G04 #@! TF.GenerationSoftware,KiCad,Pcbnew,(5.0.1-dev-70-gb7b125d83)*
G04 #@! TF.CreationDate,2019-04-09T22:27:23+02:00*
G04 #@! TF.ProjectId,ATX-breakout,4154582D627265616B6F75742E6B6963,rev?*
G04 #@! TF.SameCoordinates,Original*
G04 #@! TF.FileFunction,Soldermask,Top*
G04 #@! TF.FilePolarity,Negative*
%FSLAX46Y46*%
G04 Gerber Fmt 4.6, Leading zero omitted, Abs format (unit mm)*
G04 Created by KiCad (PCBNEW (5.0.1-dev-70-gb7b125d83)) date 04/09/19 22:27:23*
%MOMM*%
%LPD*%
G01*
G04 APERTURE LIST*
%ADD10C,0.010000*%
%ADD11C,0.100000*%
G04 APERTURE END LIST*
D10*
G04 #@! TO.C,G\002A\002A\002A*
G36*
X15306148Y-43635709D02*
X15457675Y-43785617D01*
X15495591Y-43886409D01*
X15490035Y-44124006D01*
X15369597Y-44283970D01*
X15180419Y-44341067D01*
X14968640Y-44270063D01*
X14899714Y-44212285D01*
X14787686Y-44068433D01*
X14794031Y-43935259D01*
X14920089Y-43751290D01*
X15109649Y-43620204D01*
X15306148Y-43635709D01*
X15306148Y-43635709D01*
G37*
X15306148Y-43635709D02*
X15457675Y-43785617D01*
X15495591Y-43886409D01*
X15490035Y-44124006D01*
X15369597Y-44283970D01*
X15180419Y-44341067D01*
X14968640Y-44270063D01*
X14899714Y-44212285D01*
X14787686Y-44068433D01*
X14794031Y-43935259D01*
X14920089Y-43751290D01*
X15109649Y-43620204D01*
X15306148Y-43635709D01*
G36*
X14181477Y-43646842D02*
X14332006Y-43790593D01*
X14422698Y-43944418D01*
X14428000Y-43979044D01*
X14364510Y-44106230D01*
X14221001Y-44247052D01*
X14067909Y-44337457D01*
X14025214Y-44345333D01*
X13895490Y-44290710D01*
X13799047Y-44212285D01*
X13691094Y-44056386D01*
X13666000Y-43964333D01*
X13731721Y-43800494D01*
X13880867Y-43649034D01*
X14039925Y-43583333D01*
X14181477Y-43646842D01*
X14181477Y-43646842D01*
G37*
X14181477Y-43646842D02*
X14332006Y-43790593D01*
X14422698Y-43944418D01*
X14428000Y-43979044D01*
X14364510Y-44106230D01*
X14221001Y-44247052D01*
X14067909Y-44337457D01*
X14025214Y-44345333D01*
X13895490Y-44290710D01*
X13799047Y-44212285D01*
X13691094Y-44056386D01*
X13666000Y-43964333D01*
X13731721Y-43800494D01*
X13880867Y-43649034D01*
X14039925Y-43583333D01*
X14181477Y-43646842D01*
G36*
X21887919Y-41112640D02*
X22833817Y-41425473D01*
X23117897Y-41550277D01*
X23761726Y-41913902D01*
X24263271Y-42347037D01*
X24641455Y-42867376D01*
X24749105Y-43075333D01*
X24842579Y-43287867D01*
X24905184Y-43483714D01*
X24942999Y-43705008D01*
X24962106Y-43993888D01*
X24968583Y-44392488D01*
X24969000Y-44599333D01*
X24956755Y-45190491D01*
X24909333Y-45675422D01*
X24810705Y-46085255D01*
X24644844Y-46451121D01*
X24395719Y-46804150D01*
X24047301Y-47175471D01*
X23583563Y-47596215D01*
X23302718Y-47835456D01*
X23024360Y-48101906D01*
X22783992Y-48388996D01*
X22649370Y-48603020D01*
X22523194Y-48951007D01*
X22476915Y-49280932D01*
X22512718Y-49546732D01*
X22598333Y-49679333D01*
X22714614Y-49817107D01*
X22670273Y-49902538D01*
X22466241Y-49934024D01*
X22450167Y-49934160D01*
X22217125Y-49970896D01*
X21917622Y-50064176D01*
X21730500Y-50141932D01*
X21286000Y-50348876D01*
X21286000Y-50129447D01*
X21277846Y-50005307D01*
X21225923Y-49946079D01*
X21089037Y-49937194D01*
X20825998Y-49964083D01*
X20820333Y-49964749D01*
X20514506Y-49982497D01*
X20361604Y-49950446D01*
X20355241Y-49876196D01*
X20489036Y-49767347D01*
X20756602Y-49631499D01*
X21151557Y-49476252D01*
X21263331Y-49437379D01*
X21921000Y-49213666D01*
X21946269Y-48682089D01*
X21953571Y-48381290D01*
X21927955Y-48188641D01*
X21851626Y-48043637D01*
X21714247Y-47893221D01*
X21446932Y-47702804D01*
X21199540Y-47670999D01*
X20984188Y-47787266D01*
X20812992Y-48041062D01*
X20698071Y-48421848D01*
X20654605Y-48815035D01*
X20633200Y-49298333D01*
X20308198Y-49351171D01*
X19962159Y-49485425D01*
X19788352Y-49647504D01*
X19593508Y-49891000D01*
X19593087Y-49610127D01*
X19579886Y-49422971D01*
X19518368Y-49364741D01*
X19402167Y-49387025D01*
X19197207Y-49487971D01*
X19021167Y-49619156D01*
X18830667Y-49793517D01*
X18830667Y-49615921D01*
X18907019Y-49366871D01*
X19108837Y-49125469D01*
X19395265Y-48931145D01*
X19632423Y-48842147D01*
X19814137Y-48793428D01*
X19935376Y-48734764D01*
X20015647Y-48632372D01*
X20074460Y-48452469D01*
X20131324Y-48161271D01*
X20175594Y-47901541D01*
X20212082Y-47586404D01*
X20192707Y-47411178D01*
X20171301Y-47384660D01*
X20065110Y-47354500D01*
X19819487Y-47301391D01*
X19461940Y-47230762D01*
X19019976Y-47148042D01*
X18521102Y-47058660D01*
X18506883Y-47056167D01*
X17564163Y-46881097D01*
X16772947Y-46711267D01*
X16115737Y-46541284D01*
X15575039Y-46365755D01*
X15133355Y-46179289D01*
X14773190Y-45976494D01*
X14597333Y-45851269D01*
X14401039Y-45655169D01*
X14212215Y-45396924D01*
X14067981Y-45135106D01*
X14005460Y-44928285D01*
X14005100Y-44916833D01*
X13943216Y-44798638D01*
X13784533Y-44768666D01*
X13553633Y-44695691D01*
X13286937Y-44490870D01*
X13265963Y-44470230D01*
X13090051Y-44279764D01*
X13008506Y-44121632D01*
X12995587Y-43930024D01*
X13102813Y-43930024D01*
X13203708Y-44233192D01*
X13389163Y-44472767D01*
X13630426Y-44626685D01*
X13898748Y-44672883D01*
X14165377Y-44589295D01*
X14292341Y-44488689D01*
X14447001Y-44314080D01*
X14542492Y-44171189D01*
X14597585Y-44091335D01*
X14652174Y-44171189D01*
X14829948Y-44421103D01*
X15081726Y-44607797D01*
X15343005Y-44683919D01*
X15350763Y-44684000D01*
X15656393Y-44612585D01*
X15888308Y-44423742D01*
X16039752Y-44155575D01*
X16103974Y-43846186D01*
X16074220Y-43533679D01*
X15943737Y-43256155D01*
X15705771Y-43051719D01*
X15645131Y-43023141D01*
X15323880Y-42957522D01*
X15034827Y-43050749D01*
X14766296Y-43301843D01*
X14624116Y-43444384D01*
X14542985Y-43448853D01*
X14536833Y-43436299D01*
X14362030Y-43169682D01*
X14090309Y-42982756D01*
X13956577Y-42941087D01*
X13686300Y-42966958D01*
X13421085Y-43117878D01*
X13210862Y-43355613D01*
X13115228Y-43585328D01*
X13102813Y-43930024D01*
X12995587Y-43930024D01*
X12994912Y-43920027D01*
X13009552Y-43734425D01*
X13060090Y-43432176D01*
X13163069Y-43222132D01*
X13317791Y-43059195D01*
X13547827Y-42912143D01*
X13808488Y-42828325D01*
X14045057Y-42817069D01*
X14202815Y-42887708D01*
X14216323Y-42905982D01*
X14306317Y-42907174D01*
X14481535Y-42811292D01*
X14610841Y-42715482D01*
X14757584Y-42601958D01*
X14889168Y-42523600D01*
X15041881Y-42472300D01*
X15252015Y-42439947D01*
X15555860Y-42418432D01*
X15989706Y-42399645D01*
X16031565Y-42398000D01*
X17110087Y-42355666D01*
X17568210Y-42005289D01*
X18357482Y-41500826D01*
X19190098Y-41158836D01*
X20060049Y-40979814D01*
X20961326Y-40964251D01*
X21887919Y-41112640D01*
X21887919Y-41112640D01*
G37*
X21887919Y-41112640D02*
X22833817Y-41425473D01*
X23117897Y-41550277D01*
X23761726Y-41913902D01*
X24263271Y-42347037D01*
X24641455Y-42867376D01*
X24749105Y-43075333D01*
X24842579Y-43287867D01*
X24905184Y-43483714D01*
X24942999Y-43705008D01*
X24962106Y-43993888D01*
X24968583Y-44392488D01*
X24969000Y-44599333D01*
X24956755Y-45190491D01*
X24909333Y-45675422D01*
X24810705Y-46085255D01*
X24644844Y-46451121D01*
X24395719Y-46804150D01*
X24047301Y-47175471D01*
X23583563Y-47596215D01*
X23302718Y-47835456D01*
X23024360Y-48101906D01*
X22783992Y-48388996D01*
X22649370Y-48603020D01*
X22523194Y-48951007D01*
X22476915Y-49280932D01*
X22512718Y-49546732D01*
X22598333Y-49679333D01*
X22714614Y-49817107D01*
X22670273Y-49902538D01*
X22466241Y-49934024D01*
X22450167Y-49934160D01*
X22217125Y-49970896D01*
X21917622Y-50064176D01*
X21730500Y-50141932D01*
X21286000Y-50348876D01*
X21286000Y-50129447D01*
X21277846Y-50005307D01*
X21225923Y-49946079D01*
X21089037Y-49937194D01*
X20825998Y-49964083D01*
X20820333Y-49964749D01*
X20514506Y-49982497D01*
X20361604Y-49950446D01*
X20355241Y-49876196D01*
X20489036Y-49767347D01*
X20756602Y-49631499D01*
X21151557Y-49476252D01*
X21263331Y-49437379D01*
X21921000Y-49213666D01*
X21946269Y-48682089D01*
X21953571Y-48381290D01*
X21927955Y-48188641D01*
X21851626Y-48043637D01*
X21714247Y-47893221D01*
X21446932Y-47702804D01*
X21199540Y-47670999D01*
X20984188Y-47787266D01*
X20812992Y-48041062D01*
X20698071Y-48421848D01*
X20654605Y-48815035D01*
X20633200Y-49298333D01*
X20308198Y-49351171D01*
X19962159Y-49485425D01*
X19788352Y-49647504D01*
X19593508Y-49891000D01*
X19593087Y-49610127D01*
X19579886Y-49422971D01*
X19518368Y-49364741D01*
X19402167Y-49387025D01*
X19197207Y-49487971D01*
X19021167Y-49619156D01*
X18830667Y-49793517D01*
X18830667Y-49615921D01*
X18907019Y-49366871D01*
X19108837Y-49125469D01*
X19395265Y-48931145D01*
X19632423Y-48842147D01*
X19814137Y-48793428D01*
X19935376Y-48734764D01*
X20015647Y-48632372D01*
X20074460Y-48452469D01*
X20131324Y-48161271D01*
X20175594Y-47901541D01*
X20212082Y-47586404D01*
X20192707Y-47411178D01*
X20171301Y-47384660D01*
X20065110Y-47354500D01*
X19819487Y-47301391D01*
X19461940Y-47230762D01*
X19019976Y-47148042D01*
X18521102Y-47058660D01*
X18506883Y-47056167D01*
X17564163Y-46881097D01*
X16772947Y-46711267D01*
X16115737Y-46541284D01*
X15575039Y-46365755D01*
X15133355Y-46179289D01*
X14773190Y-45976494D01*
X14597333Y-45851269D01*
X14401039Y-45655169D01*
X14212215Y-45396924D01*
X14067981Y-45135106D01*
X14005460Y-44928285D01*
X14005100Y-44916833D01*
X13943216Y-44798638D01*
X13784533Y-44768666D01*
X13553633Y-44695691D01*
X13286937Y-44490870D01*
X13265963Y-44470230D01*
X13090051Y-44279764D01*
X13008506Y-44121632D01*
X12995587Y-43930024D01*
X13102813Y-43930024D01*
X13203708Y-44233192D01*
X13389163Y-44472767D01*
X13630426Y-44626685D01*
X13898748Y-44672883D01*
X14165377Y-44589295D01*
X14292341Y-44488689D01*
X14447001Y-44314080D01*
X14542492Y-44171189D01*
X14597585Y-44091335D01*
X14652174Y-44171189D01*
X14829948Y-44421103D01*
X15081726Y-44607797D01*
X15343005Y-44683919D01*
X15350763Y-44684000D01*
X15656393Y-44612585D01*
X15888308Y-44423742D01*
X16039752Y-44155575D01*
X16103974Y-43846186D01*
X16074220Y-43533679D01*
X15943737Y-43256155D01*
X15705771Y-43051719D01*
X15645131Y-43023141D01*
X15323880Y-42957522D01*
X15034827Y-43050749D01*
X14766296Y-43301843D01*
X14624116Y-43444384D01*
X14542985Y-43448853D01*
X14536833Y-43436299D01*
X14362030Y-43169682D01*
X14090309Y-42982756D01*
X13956577Y-42941087D01*
X13686300Y-42966958D01*
X13421085Y-43117878D01*
X13210862Y-43355613D01*
X13115228Y-43585328D01*
X13102813Y-43930024D01*
X12995587Y-43930024D01*
X12994912Y-43920027D01*
X13009552Y-43734425D01*
X13060090Y-43432176D01*
X13163069Y-43222132D01*
X13317791Y-43059195D01*
X13547827Y-42912143D01*
X13808488Y-42828325D01*
X14045057Y-42817069D01*
X14202815Y-42887708D01*
X14216323Y-42905982D01*
X14306317Y-42907174D01*
X14481535Y-42811292D01*
X14610841Y-42715482D01*
X14757584Y-42601958D01*
X14889168Y-42523600D01*
X15041881Y-42472300D01*
X15252015Y-42439947D01*
X15555860Y-42418432D01*
X15989706Y-42399645D01*
X16031565Y-42398000D01*
X17110087Y-42355666D01*
X17568210Y-42005289D01*
X18357482Y-41500826D01*
X19190098Y-41158836D01*
X20060049Y-40979814D01*
X20961326Y-40964251D01*
X21887919Y-41112640D01*
D11*
G36*
X64409122Y-54746115D02*
X64525041Y-54769173D01*
X64852620Y-54904861D01*
X65011550Y-55011055D01*
X65147436Y-55101851D01*
X65398149Y-55352564D01*
X65398151Y-55352567D01*
X65595139Y-55647380D01*
X65711266Y-55927734D01*
X65730827Y-55974960D01*
X65800000Y-56322714D01*
X65800000Y-56677286D01*
X65774596Y-56805001D01*
X65730827Y-57025041D01*
X65595139Y-57352620D01*
X65462549Y-57551055D01*
X65398149Y-57647436D01*
X65147436Y-57898149D01*
X65147433Y-57898151D01*
X64852620Y-58095139D01*
X64525041Y-58230827D01*
X64409122Y-58253885D01*
X64177286Y-58300000D01*
X63822714Y-58300000D01*
X63590878Y-58253885D01*
X63474959Y-58230827D01*
X63147380Y-58095139D01*
X62852567Y-57898151D01*
X62852564Y-57898149D01*
X62601851Y-57647436D01*
X62537451Y-57551055D01*
X62404861Y-57352620D01*
X62269173Y-57025041D01*
X62225404Y-56805001D01*
X62200000Y-56677286D01*
X62200000Y-56322714D01*
X62269173Y-55974960D01*
X62288735Y-55927734D01*
X62404861Y-55647380D01*
X62601849Y-55352567D01*
X62601851Y-55352564D01*
X62852564Y-55101851D01*
X62988450Y-55011055D01*
X63147380Y-54904861D01*
X63474959Y-54769173D01*
X63590878Y-54746115D01*
X63822714Y-54700000D01*
X64177286Y-54700000D01*
X64409122Y-54746115D01*
X64409122Y-54746115D01*
G37*
G36*
X29263706Y-55762598D02*
X29340835Y-55770194D01*
X29472786Y-55810221D01*
X29538762Y-55830234D01*
X29721171Y-55927734D01*
X29881053Y-56058947D01*
X30012266Y-56218829D01*
X30109766Y-56401238D01*
X30109766Y-56401239D01*
X30169806Y-56599165D01*
X30190079Y-56805001D01*
X30169806Y-57010837D01*
X30165497Y-57025041D01*
X30109766Y-57208764D01*
X30012266Y-57391173D01*
X29881053Y-57551055D01*
X29721171Y-57682268D01*
X29538762Y-57779768D01*
X29472786Y-57799781D01*
X29340835Y-57839808D01*
X29263706Y-57847405D01*
X29186579Y-57855001D01*
X29083419Y-57855001D01*
X29006292Y-57847405D01*
X28929163Y-57839808D01*
X28797212Y-57799781D01*
X28731236Y-57779768D01*
X28548827Y-57682268D01*
X28388945Y-57551055D01*
X28257732Y-57391173D01*
X28160232Y-57208764D01*
X28104501Y-57025041D01*
X28100192Y-57010837D01*
X28079919Y-56805001D01*
X28100192Y-56599165D01*
X28160232Y-56401239D01*
X28160232Y-56401238D01*
X28257732Y-56218829D01*
X28388945Y-56058947D01*
X28548827Y-55927734D01*
X28731236Y-55830234D01*
X28797212Y-55810221D01*
X28929163Y-55770194D01*
X29006292Y-55762598D01*
X29083419Y-55755001D01*
X29186579Y-55755001D01*
X29263706Y-55762598D01*
X29263706Y-55762598D01*
G37*
G36*
X8943706Y-55762598D02*
X9020835Y-55770194D01*
X9152786Y-55810221D01*
X9218762Y-55830234D01*
X9401171Y-55927734D01*
X9561053Y-56058947D01*
X9692266Y-56218829D01*
X9789766Y-56401238D01*
X9789766Y-56401239D01*
X9849806Y-56599165D01*
X9870079Y-56805001D01*
X9849806Y-57010837D01*
X9845497Y-57025041D01*
X9789766Y-57208764D01*
X9692266Y-57391173D01*
X9561053Y-57551055D01*
X9401171Y-57682268D01*
X9218762Y-57779768D01*
X9152786Y-57799781D01*
X9020835Y-57839808D01*
X8943706Y-57847405D01*
X8866579Y-57855001D01*
X8763419Y-57855001D01*
X8686292Y-57847405D01*
X8609163Y-57839808D01*
X8477212Y-57799781D01*
X8411236Y-57779768D01*
X8228827Y-57682268D01*
X8068945Y-57551055D01*
X7937732Y-57391173D01*
X7840232Y-57208764D01*
X7784501Y-57025041D01*
X7780192Y-57010837D01*
X7759919Y-56805001D01*
X7780192Y-56599165D01*
X7840232Y-56401239D01*
X7840232Y-56401238D01*
X7937732Y-56218829D01*
X8068945Y-56058947D01*
X8228827Y-55927734D01*
X8411236Y-55830234D01*
X8477212Y-55810221D01*
X8609163Y-55770194D01*
X8686292Y-55762598D01*
X8763419Y-55755001D01*
X8866579Y-55755001D01*
X8943706Y-55762598D01*
X8943706Y-55762598D01*
G37*
G36*
X11483706Y-55762598D02*
X11560835Y-55770194D01*
X11692786Y-55810221D01*
X11758762Y-55830234D01*
X11941171Y-55927734D01*
X12101053Y-56058947D01*
X12232266Y-56218829D01*
X12329766Y-56401238D01*
X12329766Y-56401239D01*
X12389806Y-56599165D01*
X12410079Y-56805001D01*
X12389806Y-57010837D01*
X12385497Y-57025041D01*
X12329766Y-57208764D01*
X12232266Y-57391173D01*
X12101053Y-57551055D01*
X11941171Y-57682268D01*
X11758762Y-57779768D01*
X11692786Y-57799781D01*
X11560835Y-57839808D01*
X11483706Y-57847405D01*
X11406579Y-57855001D01*
X11303419Y-57855001D01*
X11226292Y-57847405D01*
X11149163Y-57839808D01*
X11017212Y-57799781D01*
X10951236Y-57779768D01*
X10768827Y-57682268D01*
X10608945Y-57551055D01*
X10477732Y-57391173D01*
X10380232Y-57208764D01*
X10324501Y-57025041D01*
X10320192Y-57010837D01*
X10299919Y-56805001D01*
X10320192Y-56599165D01*
X10380232Y-56401239D01*
X10380232Y-56401238D01*
X10477732Y-56218829D01*
X10608945Y-56058947D01*
X10768827Y-55927734D01*
X10951236Y-55830234D01*
X11017212Y-55810221D01*
X11149163Y-55770194D01*
X11226292Y-55762598D01*
X11303419Y-55755001D01*
X11406579Y-55755001D01*
X11483706Y-55762598D01*
X11483706Y-55762598D01*
G37*
G36*
X14023706Y-55762598D02*
X14100835Y-55770194D01*
X14232786Y-55810221D01*
X14298762Y-55830234D01*
X14481171Y-55927734D01*
X14641053Y-56058947D01*
X14772266Y-56218829D01*
X14869766Y-56401238D01*
X14869766Y-56401239D01*
X14929806Y-56599165D01*
X14950079Y-56805001D01*
X14929806Y-57010837D01*
X14925497Y-57025041D01*
X14869766Y-57208764D01*
X14772266Y-57391173D01*
X14641053Y-57551055D01*
X14481171Y-57682268D01*
X14298762Y-57779768D01*
X14232786Y-57799781D01*
X14100835Y-57839808D01*
X14023706Y-57847405D01*
X13946579Y-57855001D01*
X13843419Y-57855001D01*
X13766292Y-57847405D01*
X13689163Y-57839808D01*
X13557212Y-57799781D01*
X13491236Y-57779768D01*
X13308827Y-57682268D01*
X13148945Y-57551055D01*
X13017732Y-57391173D01*
X12920232Y-57208764D01*
X12864501Y-57025041D01*
X12860192Y-57010837D01*
X12839919Y-56805001D01*
X12860192Y-56599165D01*
X12920232Y-56401239D01*
X12920232Y-56401238D01*
X13017732Y-56218829D01*
X13148945Y-56058947D01*
X13308827Y-55927734D01*
X13491236Y-55830234D01*
X13557212Y-55810221D01*
X13689163Y-55770194D01*
X13766292Y-55762598D01*
X13843419Y-55755001D01*
X13946579Y-55755001D01*
X14023706Y-55762598D01*
X14023706Y-55762598D01*
G37*
G36*
X16563706Y-55762598D02*
X16640835Y-55770194D01*
X16772786Y-55810221D01*
X16838762Y-55830234D01*
X17021171Y-55927734D01*
X17181053Y-56058947D01*
X17312266Y-56218829D01*
X17409766Y-56401238D01*
X17409766Y-56401239D01*
X17469806Y-56599165D01*
X17490079Y-56805001D01*
X17469806Y-57010837D01*
X17465497Y-57025041D01*
X17409766Y-57208764D01*
X17312266Y-57391173D01*
X17181053Y-57551055D01*
X17021171Y-57682268D01*
X16838762Y-57779768D01*
X16772786Y-57799781D01*
X16640835Y-57839808D01*
X16563706Y-57847405D01*
X16486579Y-57855001D01*
X16383419Y-57855001D01*
X16306292Y-57847405D01*
X16229163Y-57839808D01*
X16097212Y-57799781D01*
X16031236Y-57779768D01*
X15848827Y-57682268D01*
X15688945Y-57551055D01*
X15557732Y-57391173D01*
X15460232Y-57208764D01*
X15404501Y-57025041D01*
X15400192Y-57010837D01*
X15379919Y-56805001D01*
X15400192Y-56599165D01*
X15460232Y-56401239D01*
X15460232Y-56401238D01*
X15557732Y-56218829D01*
X15688945Y-56058947D01*
X15848827Y-55927734D01*
X16031236Y-55830234D01*
X16097212Y-55810221D01*
X16229163Y-55770194D01*
X16306292Y-55762598D01*
X16383419Y-55755001D01*
X16486579Y-55755001D01*
X16563706Y-55762598D01*
X16563706Y-55762598D01*
G37*
G36*
X19103706Y-55762598D02*
X19180835Y-55770194D01*
X19312786Y-55810221D01*
X19378762Y-55830234D01*
X19561171Y-55927734D01*
X19721053Y-56058947D01*
X19852266Y-56218829D01*
X19949766Y-56401238D01*
X19949766Y-56401239D01*
X20009806Y-56599165D01*
X20030079Y-56805001D01*
X20009806Y-57010837D01*
X20005497Y-57025041D01*
X19949766Y-57208764D01*
X19852266Y-57391173D01*
X19721053Y-57551055D01*
X19561171Y-57682268D01*
X19378762Y-57779768D01*
X19312786Y-57799781D01*
X19180835Y-57839808D01*
X19103706Y-57847405D01*
X19026579Y-57855001D01*
X18923419Y-57855001D01*
X18846292Y-57847405D01*
X18769163Y-57839808D01*
X18637212Y-57799781D01*
X18571236Y-57779768D01*
X18388827Y-57682268D01*
X18228945Y-57551055D01*
X18097732Y-57391173D01*
X18000232Y-57208764D01*
X17944501Y-57025041D01*
X17940192Y-57010837D01*
X17919919Y-56805001D01*
X17940192Y-56599165D01*
X18000232Y-56401239D01*
X18000232Y-56401238D01*
X18097732Y-56218829D01*
X18228945Y-56058947D01*
X18388827Y-55927734D01*
X18571236Y-55830234D01*
X18637212Y-55810221D01*
X18769163Y-55770194D01*
X18846292Y-55762598D01*
X18923419Y-55755001D01*
X19026579Y-55755001D01*
X19103706Y-55762598D01*
X19103706Y-55762598D01*
G37*
G36*
X21643706Y-55762598D02*
X21720835Y-55770194D01*
X21852786Y-55810221D01*
X21918762Y-55830234D01*
X22101171Y-55927734D01*
X22261053Y-56058947D01*
X22392266Y-56218829D01*
X22489766Y-56401238D01*
X22489766Y-56401239D01*
X22549806Y-56599165D01*
X22570079Y-56805001D01*
X22549806Y-57010837D01*
X22545497Y-57025041D01*
X22489766Y-57208764D01*
X22392266Y-57391173D01*
X22261053Y-57551055D01*
X22101171Y-57682268D01*
X21918762Y-57779768D01*
X21852786Y-57799781D01*
X21720835Y-57839808D01*
X21643706Y-57847405D01*
X21566579Y-57855001D01*
X21463419Y-57855001D01*
X21386292Y-57847405D01*
X21309163Y-57839808D01*
X21177212Y-57799781D01*
X21111236Y-57779768D01*
X20928827Y-57682268D01*
X20768945Y-57551055D01*
X20637732Y-57391173D01*
X20540232Y-57208764D01*
X20484501Y-57025041D01*
X20480192Y-57010837D01*
X20459919Y-56805001D01*
X20480192Y-56599165D01*
X20540232Y-56401239D01*
X20540232Y-56401238D01*
X20637732Y-56218829D01*
X20768945Y-56058947D01*
X20928827Y-55927734D01*
X21111236Y-55830234D01*
X21177212Y-55810221D01*
X21309163Y-55770194D01*
X21386292Y-55762598D01*
X21463419Y-55755001D01*
X21566579Y-55755001D01*
X21643706Y-55762598D01*
X21643706Y-55762598D01*
G37*
G36*
X24183706Y-55762598D02*
X24260835Y-55770194D01*
X24392786Y-55810221D01*
X24458762Y-55830234D01*
X24641171Y-55927734D01*
X24801053Y-56058947D01*
X24932266Y-56218829D01*
X25029766Y-56401238D01*
X25029766Y-56401239D01*
X25089806Y-56599165D01*
X25110079Y-56805001D01*
X25089806Y-57010837D01*
X25085497Y-57025041D01*
X25029766Y-57208764D01*
X24932266Y-57391173D01*
X24801053Y-57551055D01*
X24641171Y-57682268D01*
X24458762Y-57779768D01*
X24392786Y-57799781D01*
X24260835Y-57839808D01*
X24183706Y-57847405D01*
X24106579Y-57855001D01*
X24003419Y-57855001D01*
X23926292Y-57847405D01*
X23849163Y-57839808D01*
X23717212Y-57799781D01*
X23651236Y-57779768D01*
X23468827Y-57682268D01*
X23308945Y-57551055D01*
X23177732Y-57391173D01*
X23080232Y-57208764D01*
X23024501Y-57025041D01*
X23020192Y-57010837D01*
X22999919Y-56805001D01*
X23020192Y-56599165D01*
X23080232Y-56401239D01*
X23080232Y-56401238D01*
X23177732Y-56218829D01*
X23308945Y-56058947D01*
X23468827Y-55927734D01*
X23651236Y-55830234D01*
X23717212Y-55810221D01*
X23849163Y-55770194D01*
X23926292Y-55762598D01*
X24003419Y-55755001D01*
X24106579Y-55755001D01*
X24183706Y-55762598D01*
X24183706Y-55762598D01*
G37*
G36*
X26723706Y-55762598D02*
X26800835Y-55770194D01*
X26932786Y-55810221D01*
X26998762Y-55830234D01*
X27181171Y-55927734D01*
X27341053Y-56058947D01*
X27472266Y-56218829D01*
X27569766Y-56401238D01*
X27569766Y-56401239D01*
X27629806Y-56599165D01*
X27650079Y-56805001D01*
X27629806Y-57010837D01*
X27625497Y-57025041D01*
X27569766Y-57208764D01*
X27472266Y-57391173D01*
X27341053Y-57551055D01*
X27181171Y-57682268D01*
X26998762Y-57779768D01*
X26932786Y-57799781D01*
X26800835Y-57839808D01*
X26723706Y-57847405D01*
X26646579Y-57855001D01*
X26543419Y-57855001D01*
X26466292Y-57847405D01*
X26389163Y-57839808D01*
X26257212Y-57799781D01*
X26191236Y-57779768D01*
X26008827Y-57682268D01*
X25848945Y-57551055D01*
X25717732Y-57391173D01*
X25620232Y-57208764D01*
X25564501Y-57025041D01*
X25560192Y-57010837D01*
X25539919Y-56805001D01*
X25560192Y-56599165D01*
X25620232Y-56401239D01*
X25620232Y-56401238D01*
X25717732Y-56218829D01*
X25848945Y-56058947D01*
X26008827Y-55927734D01*
X26191236Y-55830234D01*
X26257212Y-55810221D01*
X26389163Y-55770194D01*
X26466292Y-55762598D01*
X26543419Y-55755001D01*
X26646579Y-55755001D01*
X26723706Y-55762598D01*
X26723706Y-55762598D01*
G37*
G36*
X57203706Y-55762598D02*
X57280835Y-55770194D01*
X57412786Y-55810221D01*
X57478762Y-55830234D01*
X57661171Y-55927734D01*
X57821053Y-56058947D01*
X57952266Y-56218829D01*
X58049766Y-56401238D01*
X58049766Y-56401239D01*
X58109806Y-56599165D01*
X58130079Y-56805001D01*
X58109806Y-57010837D01*
X58105497Y-57025041D01*
X58049766Y-57208764D01*
X57952266Y-57391173D01*
X57821053Y-57551055D01*
X57661171Y-57682268D01*
X57478762Y-57779768D01*
X57412786Y-57799781D01*
X57280835Y-57839808D01*
X57203706Y-57847405D01*
X57126579Y-57855001D01*
X57023419Y-57855001D01*
X56946292Y-57847405D01*
X56869163Y-57839808D01*
X56737212Y-57799781D01*
X56671236Y-57779768D01*
X56488827Y-57682268D01*
X56328945Y-57551055D01*
X56197732Y-57391173D01*
X56100232Y-57208764D01*
X56044501Y-57025041D01*
X56040192Y-57010837D01*
X56019919Y-56805001D01*
X56040192Y-56599165D01*
X56100232Y-56401239D01*
X56100232Y-56401238D01*
X56197732Y-56218829D01*
X56328945Y-56058947D01*
X56488827Y-55927734D01*
X56671236Y-55830234D01*
X56737212Y-55810221D01*
X56869163Y-55770194D01*
X56946292Y-55762598D01*
X57023419Y-55755001D01*
X57126579Y-55755001D01*
X57203706Y-55762598D01*
X57203706Y-55762598D01*
G37*
G36*
X34343706Y-55762598D02*
X34420835Y-55770194D01*
X34552786Y-55810221D01*
X34618762Y-55830234D01*
X34801171Y-55927734D01*
X34961053Y-56058947D01*
X35092266Y-56218829D01*
X35189766Y-56401238D01*
X35189766Y-56401239D01*
X35249806Y-56599165D01*
X35270079Y-56805001D01*
X35249806Y-57010837D01*
X35245497Y-57025041D01*
X35189766Y-57208764D01*
X35092266Y-57391173D01*
X34961053Y-57551055D01*
X34801171Y-57682268D01*
X34618762Y-57779768D01*
X34552786Y-57799781D01*
X34420835Y-57839808D01*
X34343706Y-57847405D01*
X34266579Y-57855001D01*
X34163419Y-57855001D01*
X34086292Y-57847405D01*
X34009163Y-57839808D01*
X33877212Y-57799781D01*
X33811236Y-57779768D01*
X33628827Y-57682268D01*
X33468945Y-57551055D01*
X33337732Y-57391173D01*
X33240232Y-57208764D01*
X33184501Y-57025041D01*
X33180192Y-57010837D01*
X33159919Y-56805001D01*
X33180192Y-56599165D01*
X33240232Y-56401239D01*
X33240232Y-56401238D01*
X33337732Y-56218829D01*
X33468945Y-56058947D01*
X33628827Y-55927734D01*
X33811236Y-55830234D01*
X33877212Y-55810221D01*
X34009163Y-55770194D01*
X34086292Y-55762598D01*
X34163419Y-55755001D01*
X34266579Y-55755001D01*
X34343706Y-55762598D01*
X34343706Y-55762598D01*
G37*
G36*
X36883706Y-55762598D02*
X36960835Y-55770194D01*
X37092786Y-55810221D01*
X37158762Y-55830234D01*
X37341171Y-55927734D01*
X37501053Y-56058947D01*
X37632266Y-56218829D01*
X37729766Y-56401238D01*
X37729766Y-56401239D01*
X37789806Y-56599165D01*
X37810079Y-56805001D01*
X37789806Y-57010837D01*
X37785497Y-57025041D01*
X37729766Y-57208764D01*
X37632266Y-57391173D01*
X37501053Y-57551055D01*
X37341171Y-57682268D01*
X37158762Y-57779768D01*
X37092786Y-57799781D01*
X36960835Y-57839808D01*
X36883706Y-57847405D01*
X36806579Y-57855001D01*
X36703419Y-57855001D01*
X36626292Y-57847405D01*
X36549163Y-57839808D01*
X36417212Y-57799781D01*
X36351236Y-57779768D01*
X36168827Y-57682268D01*
X36008945Y-57551055D01*
X35877732Y-57391173D01*
X35780232Y-57208764D01*
X35724501Y-57025041D01*
X35720192Y-57010837D01*
X35699919Y-56805001D01*
X35720192Y-56599165D01*
X35780232Y-56401239D01*
X35780232Y-56401238D01*
X35877732Y-56218829D01*
X36008945Y-56058947D01*
X36168827Y-55927734D01*
X36351236Y-55830234D01*
X36417212Y-55810221D01*
X36549163Y-55770194D01*
X36626292Y-55762598D01*
X36703419Y-55755001D01*
X36806579Y-55755001D01*
X36883706Y-55762598D01*
X36883706Y-55762598D01*
G37*
G36*
X39423706Y-55762598D02*
X39500835Y-55770194D01*
X39632786Y-55810221D01*
X39698762Y-55830234D01*
X39881171Y-55927734D01*
X40041053Y-56058947D01*
X40172266Y-56218829D01*
X40269766Y-56401238D01*
X40269766Y-56401239D01*
X40329806Y-56599165D01*
X40350079Y-56805001D01*
X40329806Y-57010837D01*
X40325497Y-57025041D01*
X40269766Y-57208764D01*
X40172266Y-57391173D01*
X40041053Y-57551055D01*
X39881171Y-57682268D01*
X39698762Y-57779768D01*
X39632786Y-57799781D01*
X39500835Y-57839808D01*
X39423706Y-57847405D01*
X39346579Y-57855001D01*
X39243419Y-57855001D01*
X39166292Y-57847405D01*
X39089163Y-57839808D01*
X38957212Y-57799781D01*
X38891236Y-57779768D01*
X38708827Y-57682268D01*
X38548945Y-57551055D01*
X38417732Y-57391173D01*
X38320232Y-57208764D01*
X38264501Y-57025041D01*
X38260192Y-57010837D01*
X38239919Y-56805001D01*
X38260192Y-56599165D01*
X38320232Y-56401239D01*
X38320232Y-56401238D01*
X38417732Y-56218829D01*
X38548945Y-56058947D01*
X38708827Y-55927734D01*
X38891236Y-55830234D01*
X38957212Y-55810221D01*
X39089163Y-55770194D01*
X39166292Y-55762598D01*
X39243419Y-55755001D01*
X39346579Y-55755001D01*
X39423706Y-55762598D01*
X39423706Y-55762598D01*
G37*
G36*
X41963706Y-55762598D02*
X42040835Y-55770194D01*
X42172786Y-55810221D01*
X42238762Y-55830234D01*
X42421171Y-55927734D01*
X42581053Y-56058947D01*
X42712266Y-56218829D01*
X42809766Y-56401238D01*
X42809766Y-56401239D01*
X42869806Y-56599165D01*
X42890079Y-56805001D01*
X42869806Y-57010837D01*
X42865497Y-57025041D01*
X42809766Y-57208764D01*
X42712266Y-57391173D01*
X42581053Y-57551055D01*
X42421171Y-57682268D01*
X42238762Y-57779768D01*
X42172786Y-57799781D01*
X42040835Y-57839808D01*
X41963706Y-57847405D01*
X41886579Y-57855001D01*
X41783419Y-57855001D01*
X41706292Y-57847405D01*
X41629163Y-57839808D01*
X41497212Y-57799781D01*
X41431236Y-57779768D01*
X41248827Y-57682268D01*
X41088945Y-57551055D01*
X40957732Y-57391173D01*
X40860232Y-57208764D01*
X40804501Y-57025041D01*
X40800192Y-57010837D01*
X40779919Y-56805001D01*
X40800192Y-56599165D01*
X40860232Y-56401239D01*
X40860232Y-56401238D01*
X40957732Y-56218829D01*
X41088945Y-56058947D01*
X41248827Y-55927734D01*
X41431236Y-55830234D01*
X41497212Y-55810221D01*
X41629163Y-55770194D01*
X41706292Y-55762598D01*
X41783419Y-55755001D01*
X41886579Y-55755001D01*
X41963706Y-55762598D01*
X41963706Y-55762598D01*
G37*
G36*
X44503706Y-55762598D02*
X44580835Y-55770194D01*
X44712786Y-55810221D01*
X44778762Y-55830234D01*
X44961171Y-55927734D01*
X45121053Y-56058947D01*
X45252266Y-56218829D01*
X45349766Y-56401238D01*
X45349766Y-56401239D01*
X45409806Y-56599165D01*
X45430079Y-56805001D01*
X45409806Y-57010837D01*
X45405497Y-57025041D01*
X45349766Y-57208764D01*
X45252266Y-57391173D01*
X45121053Y-57551055D01*
X44961171Y-57682268D01*
X44778762Y-57779768D01*
X44712786Y-57799781D01*
X44580835Y-57839808D01*
X44503706Y-57847405D01*
X44426579Y-57855001D01*
X44323419Y-57855001D01*
X44246292Y-57847405D01*
X44169163Y-57839808D01*
X44037212Y-57799781D01*
X43971236Y-57779768D01*
X43788827Y-57682268D01*
X43628945Y-57551055D01*
X43497732Y-57391173D01*
X43400232Y-57208764D01*
X43344501Y-57025041D01*
X43340192Y-57010837D01*
X43319919Y-56805001D01*
X43340192Y-56599165D01*
X43400232Y-56401239D01*
X43400232Y-56401238D01*
X43497732Y-56218829D01*
X43628945Y-56058947D01*
X43788827Y-55927734D01*
X43971236Y-55830234D01*
X44037212Y-55810221D01*
X44169163Y-55770194D01*
X44246292Y-55762598D01*
X44323419Y-55755001D01*
X44426579Y-55755001D01*
X44503706Y-55762598D01*
X44503706Y-55762598D01*
G37*
G36*
X47043706Y-55762598D02*
X47120835Y-55770194D01*
X47252786Y-55810221D01*
X47318762Y-55830234D01*
X47501171Y-55927734D01*
X47661053Y-56058947D01*
X47792266Y-56218829D01*
X47889766Y-56401238D01*
X47889766Y-56401239D01*
X47949806Y-56599165D01*
X47970079Y-56805001D01*
X47949806Y-57010837D01*
X47945497Y-57025041D01*
X47889766Y-57208764D01*
X47792266Y-57391173D01*
X47661053Y-57551055D01*
X47501171Y-57682268D01*
X47318762Y-57779768D01*
X47252786Y-57799781D01*
X47120835Y-57839808D01*
X47043706Y-57847405D01*
X46966579Y-57855001D01*
X46863419Y-57855001D01*
X46786292Y-57847405D01*
X46709163Y-57839808D01*
X46577212Y-57799781D01*
X46511236Y-57779768D01*
X46328827Y-57682268D01*
X46168945Y-57551055D01*
X46037732Y-57391173D01*
X45940232Y-57208764D01*
X45884501Y-57025041D01*
X45880192Y-57010837D01*
X45859919Y-56805001D01*
X45880192Y-56599165D01*
X45940232Y-56401239D01*
X45940232Y-56401238D01*
X46037732Y-56218829D01*
X46168945Y-56058947D01*
X46328827Y-55927734D01*
X46511236Y-55830234D01*
X46577212Y-55810221D01*
X46709163Y-55770194D01*
X46786292Y-55762598D01*
X46863419Y-55755001D01*
X46966579Y-55755001D01*
X47043706Y-55762598D01*
X47043706Y-55762598D01*
G37*
G36*
X49583706Y-55762598D02*
X49660835Y-55770194D01*
X49792786Y-55810221D01*
X49858762Y-55830234D01*
X50041171Y-55927734D01*
X50201053Y-56058947D01*
X50332266Y-56218829D01*
X50429766Y-56401238D01*
X50429766Y-56401239D01*
X50489806Y-56599165D01*
X50510079Y-56805001D01*
X50489806Y-57010837D01*
X50485497Y-57025041D01*
X50429766Y-57208764D01*
X50332266Y-57391173D01*
X50201053Y-57551055D01*
X50041171Y-57682268D01*
X49858762Y-57779768D01*
X49792786Y-57799781D01*
X49660835Y-57839808D01*
X49583706Y-57847405D01*
X49506579Y-57855001D01*
X49403419Y-57855001D01*
X49326292Y-57847405D01*
X49249163Y-57839808D01*
X49117212Y-57799781D01*
X49051236Y-57779768D01*
X48868827Y-57682268D01*
X48708945Y-57551055D01*
X48577732Y-57391173D01*
X48480232Y-57208764D01*
X48424501Y-57025041D01*
X48420192Y-57010837D01*
X48399919Y-56805001D01*
X48420192Y-56599165D01*
X48480232Y-56401239D01*
X48480232Y-56401238D01*
X48577732Y-56218829D01*
X48708945Y-56058947D01*
X48868827Y-55927734D01*
X49051236Y-55830234D01*
X49117212Y-55810221D01*
X49249163Y-55770194D01*
X49326292Y-55762598D01*
X49403419Y-55755001D01*
X49506579Y-55755001D01*
X49583706Y-55762598D01*
X49583706Y-55762598D01*
G37*
G36*
X52123706Y-55762598D02*
X52200835Y-55770194D01*
X52332786Y-55810221D01*
X52398762Y-55830234D01*
X52581171Y-55927734D01*
X52741053Y-56058947D01*
X52872266Y-56218829D01*
X52969766Y-56401238D01*
X52969766Y-56401239D01*
X53029806Y-56599165D01*
X53050079Y-56805001D01*
X53029806Y-57010837D01*
X53025497Y-57025041D01*
X52969766Y-57208764D01*
X52872266Y-57391173D01*
X52741053Y-57551055D01*
X52581171Y-57682268D01*
X52398762Y-57779768D01*
X52332786Y-57799781D01*
X52200835Y-57839808D01*
X52123706Y-57847405D01*
X52046579Y-57855001D01*
X51943419Y-57855001D01*
X51866292Y-57847405D01*
X51789163Y-57839808D01*
X51657212Y-57799781D01*
X51591236Y-57779768D01*
X51408827Y-57682268D01*
X51248945Y-57551055D01*
X51117732Y-57391173D01*
X51020232Y-57208764D01*
X50964501Y-57025041D01*
X50960192Y-57010837D01*
X50939919Y-56805001D01*
X50960192Y-56599165D01*
X51020232Y-56401239D01*
X51020232Y-56401238D01*
X51117732Y-56218829D01*
X51248945Y-56058947D01*
X51408827Y-55927734D01*
X51591236Y-55830234D01*
X51657212Y-55810221D01*
X51789163Y-55770194D01*
X51866292Y-55762598D01*
X51943419Y-55755001D01*
X52046579Y-55755001D01*
X52123706Y-55762598D01*
X52123706Y-55762598D01*
G37*
G36*
X54663706Y-55762598D02*
X54740835Y-55770194D01*
X54872786Y-55810221D01*
X54938762Y-55830234D01*
X55121171Y-55927734D01*
X55281053Y-56058947D01*
X55412266Y-56218829D01*
X55509766Y-56401238D01*
X55509766Y-56401239D01*
X55569806Y-56599165D01*
X55590079Y-56805001D01*
X55569806Y-57010837D01*
X55565497Y-57025041D01*
X55509766Y-57208764D01*
X55412266Y-57391173D01*
X55281053Y-57551055D01*
X55121171Y-57682268D01*
X54938762Y-57779768D01*
X54872786Y-57799781D01*
X54740835Y-57839808D01*
X54663706Y-57847405D01*
X54586579Y-57855001D01*
X54483419Y-57855001D01*
X54406292Y-57847405D01*
X54329163Y-57839808D01*
X54197212Y-57799781D01*
X54131236Y-57779768D01*
X53948827Y-57682268D01*
X53788945Y-57551055D01*
X53657732Y-57391173D01*
X53560232Y-57208764D01*
X53504501Y-57025041D01*
X53500192Y-57010837D01*
X53479919Y-56805001D01*
X53500192Y-56599165D01*
X53560232Y-56401239D01*
X53560232Y-56401238D01*
X53657732Y-56218829D01*
X53788945Y-56058947D01*
X53948827Y-55927734D01*
X54131236Y-55830234D01*
X54197212Y-55810221D01*
X54329163Y-55770194D01*
X54406292Y-55762598D01*
X54483419Y-55755001D01*
X54586579Y-55755001D01*
X54663706Y-55762598D01*
X54663706Y-55762598D01*
G37*
G36*
X31803706Y-55762598D02*
X31880835Y-55770194D01*
X32012786Y-55810221D01*
X32078762Y-55830234D01*
X32261171Y-55927734D01*
X32421053Y-56058947D01*
X32552266Y-56218829D01*
X32649766Y-56401238D01*
X32649766Y-56401239D01*
X32709806Y-56599165D01*
X32730079Y-56805001D01*
X32709806Y-57010837D01*
X32705497Y-57025041D01*
X32649766Y-57208764D01*
X32552266Y-57391173D01*
X32421053Y-57551055D01*
X32261171Y-57682268D01*
X32078762Y-57779768D01*
X32012786Y-57799781D01*
X31880835Y-57839808D01*
X31803706Y-57847405D01*
X31726579Y-57855001D01*
X31623419Y-57855001D01*
X31546292Y-57847405D01*
X31469163Y-57839808D01*
X31337212Y-57799781D01*
X31271236Y-57779768D01*
X31088827Y-57682268D01*
X30928945Y-57551055D01*
X30797732Y-57391173D01*
X30700232Y-57208764D01*
X30644501Y-57025041D01*
X30640192Y-57010837D01*
X30619919Y-56805001D01*
X30640192Y-56599165D01*
X30700232Y-56401239D01*
X30700232Y-56401238D01*
X30797732Y-56218829D01*
X30928945Y-56058947D01*
X31088827Y-55927734D01*
X31271236Y-55830234D01*
X31337212Y-55810221D01*
X31469163Y-55770194D01*
X31546292Y-55762598D01*
X31623419Y-55755001D01*
X31726579Y-55755001D01*
X31803706Y-55762598D01*
X31803706Y-55762598D01*
G37*
G36*
X4329122Y-53816115D02*
X4445041Y-53839173D01*
X4772620Y-53974861D01*
X5063511Y-54169228D01*
X5067436Y-54171851D01*
X5318149Y-54422564D01*
X5515140Y-54717382D01*
X5650827Y-55044960D01*
X5720000Y-55392714D01*
X5720000Y-55747286D01*
X5684106Y-55927734D01*
X5658007Y-56058947D01*
X5650827Y-56095040D01*
X5515140Y-56422618D01*
X5318149Y-56717436D01*
X5067436Y-56968149D01*
X5067433Y-56968151D01*
X4772620Y-57165139D01*
X4445041Y-57300827D01*
X4329122Y-57323885D01*
X4097286Y-57370000D01*
X3742714Y-57370000D01*
X3510878Y-57323885D01*
X3394959Y-57300827D01*
X3067380Y-57165139D01*
X2772567Y-56968151D01*
X2772564Y-56968149D01*
X2521851Y-56717436D01*
X2324860Y-56422618D01*
X2189173Y-56095040D01*
X2181994Y-56058947D01*
X2155894Y-55927734D01*
X2120000Y-55747286D01*
X2120000Y-55392714D01*
X2189173Y-55044960D01*
X2324860Y-54717382D01*
X2521851Y-54422564D01*
X2772564Y-54171851D01*
X2776489Y-54169228D01*
X3067380Y-53974861D01*
X3394959Y-53839173D01*
X3510878Y-53816115D01*
X3742714Y-53770000D01*
X4097286Y-53770000D01*
X4329122Y-53816115D01*
X4329122Y-53816115D01*
G37*
G36*
X39423706Y-53222598D02*
X39500835Y-53230194D01*
X39632786Y-53270221D01*
X39698762Y-53290234D01*
X39881171Y-53387734D01*
X40041053Y-53518947D01*
X40172266Y-53678829D01*
X40269766Y-53861238D01*
X40269766Y-53861239D01*
X40329806Y-54059165D01*
X40350079Y-54265001D01*
X40329806Y-54470837D01*
X40289779Y-54602788D01*
X40269766Y-54668764D01*
X40172266Y-54851173D01*
X40041053Y-55011055D01*
X39881171Y-55142268D01*
X39698762Y-55239768D01*
X39632786Y-55259781D01*
X39500835Y-55299808D01*
X39423706Y-55307404D01*
X39346579Y-55315001D01*
X39243419Y-55315001D01*
X39166292Y-55307404D01*
X39089163Y-55299808D01*
X38957212Y-55259781D01*
X38891236Y-55239768D01*
X38708827Y-55142268D01*
X38548945Y-55011055D01*
X38417732Y-54851173D01*
X38320232Y-54668764D01*
X38300219Y-54602788D01*
X38260192Y-54470837D01*
X38239919Y-54265001D01*
X38260192Y-54059165D01*
X38320232Y-53861239D01*
X38320232Y-53861238D01*
X38417732Y-53678829D01*
X38548945Y-53518947D01*
X38708827Y-53387734D01*
X38891236Y-53290234D01*
X38957212Y-53270221D01*
X39089163Y-53230194D01*
X39166292Y-53222598D01*
X39243419Y-53215001D01*
X39346579Y-53215001D01*
X39423706Y-53222598D01*
X39423706Y-53222598D01*
G37*
G36*
X41963706Y-53222598D02*
X42040835Y-53230194D01*
X42172786Y-53270221D01*
X42238762Y-53290234D01*
X42421171Y-53387734D01*
X42581053Y-53518947D01*
X42712266Y-53678829D01*
X42809766Y-53861238D01*
X42809766Y-53861239D01*
X42869806Y-54059165D01*
X42890079Y-54265001D01*
X42869806Y-54470837D01*
X42829779Y-54602788D01*
X42809766Y-54668764D01*
X42712266Y-54851173D01*
X42581053Y-55011055D01*
X42421171Y-55142268D01*
X42238762Y-55239768D01*
X42172786Y-55259781D01*
X42040835Y-55299808D01*
X41963706Y-55307404D01*
X41886579Y-55315001D01*
X41783419Y-55315001D01*
X41706292Y-55307404D01*
X41629163Y-55299808D01*
X41497212Y-55259781D01*
X41431236Y-55239768D01*
X41248827Y-55142268D01*
X41088945Y-55011055D01*
X40957732Y-54851173D01*
X40860232Y-54668764D01*
X40840219Y-54602788D01*
X40800192Y-54470837D01*
X40779919Y-54265001D01*
X40800192Y-54059165D01*
X40860232Y-53861239D01*
X40860232Y-53861238D01*
X40957732Y-53678829D01*
X41088945Y-53518947D01*
X41248827Y-53387734D01*
X41431236Y-53290234D01*
X41497212Y-53270221D01*
X41629163Y-53230194D01*
X41706292Y-53222598D01*
X41783419Y-53215001D01*
X41886579Y-53215001D01*
X41963706Y-53222598D01*
X41963706Y-53222598D01*
G37*
G36*
X44503706Y-53222598D02*
X44580835Y-53230194D01*
X44712786Y-53270221D01*
X44778762Y-53290234D01*
X44961171Y-53387734D01*
X45121053Y-53518947D01*
X45252266Y-53678829D01*
X45349766Y-53861238D01*
X45349766Y-53861239D01*
X45409806Y-54059165D01*
X45430079Y-54265001D01*
X45409806Y-54470837D01*
X45369779Y-54602788D01*
X45349766Y-54668764D01*
X45252266Y-54851173D01*
X45121053Y-55011055D01*
X44961171Y-55142268D01*
X44778762Y-55239768D01*
X44712786Y-55259781D01*
X44580835Y-55299808D01*
X44503706Y-55307404D01*
X44426579Y-55315001D01*
X44323419Y-55315001D01*
X44246292Y-55307404D01*
X44169163Y-55299808D01*
X44037212Y-55259781D01*
X43971236Y-55239768D01*
X43788827Y-55142268D01*
X43628945Y-55011055D01*
X43497732Y-54851173D01*
X43400232Y-54668764D01*
X43380219Y-54602788D01*
X43340192Y-54470837D01*
X43319919Y-54265001D01*
X43340192Y-54059165D01*
X43400232Y-53861239D01*
X43400232Y-53861238D01*
X43497732Y-53678829D01*
X43628945Y-53518947D01*
X43788827Y-53387734D01*
X43971236Y-53290234D01*
X44037212Y-53270221D01*
X44169163Y-53230194D01*
X44246292Y-53222598D01*
X44323419Y-53215001D01*
X44426579Y-53215001D01*
X44503706Y-53222598D01*
X44503706Y-53222598D01*
G37*
G36*
X47043706Y-53222598D02*
X47120835Y-53230194D01*
X47252786Y-53270221D01*
X47318762Y-53290234D01*
X47501171Y-53387734D01*
X47661053Y-53518947D01*
X47792266Y-53678829D01*
X47889766Y-53861238D01*
X47889766Y-53861239D01*
X47949806Y-54059165D01*
X47970079Y-54265001D01*
X47949806Y-54470837D01*
X47909779Y-54602788D01*
X47889766Y-54668764D01*
X47792266Y-54851173D01*
X47661053Y-55011055D01*
X47501171Y-55142268D01*
X47318762Y-55239768D01*
X47252786Y-55259781D01*
X47120835Y-55299808D01*
X47043706Y-55307404D01*
X46966579Y-55315001D01*
X46863419Y-55315001D01*
X46786292Y-55307404D01*
X46709163Y-55299808D01*
X46577212Y-55259781D01*
X46511236Y-55239768D01*
X46328827Y-55142268D01*
X46168945Y-55011055D01*
X46037732Y-54851173D01*
X45940232Y-54668764D01*
X45920219Y-54602788D01*
X45880192Y-54470837D01*
X45859919Y-54265001D01*
X45880192Y-54059165D01*
X45940232Y-53861239D01*
X45940232Y-53861238D01*
X46037732Y-53678829D01*
X46168945Y-53518947D01*
X46328827Y-53387734D01*
X46511236Y-53290234D01*
X46577212Y-53270221D01*
X46709163Y-53230194D01*
X46786292Y-53222598D01*
X46863419Y-53215001D01*
X46966579Y-53215001D01*
X47043706Y-53222598D01*
X47043706Y-53222598D01*
G37*
G36*
X49583706Y-53222598D02*
X49660835Y-53230194D01*
X49792786Y-53270221D01*
X49858762Y-53290234D01*
X50041171Y-53387734D01*
X50201053Y-53518947D01*
X50332266Y-53678829D01*
X50429766Y-53861238D01*
X50429766Y-53861239D01*
X50489806Y-54059165D01*
X50510079Y-54265001D01*
X50489806Y-54470837D01*
X50449779Y-54602788D01*
X50429766Y-54668764D01*
X50332266Y-54851173D01*
X50201053Y-55011055D01*
X50041171Y-55142268D01*
X49858762Y-55239768D01*
X49792786Y-55259781D01*
X49660835Y-55299808D01*
X49583706Y-55307404D01*
X49506579Y-55315001D01*
X49403419Y-55315001D01*
X49326292Y-55307404D01*
X49249163Y-55299808D01*
X49117212Y-55259781D01*
X49051236Y-55239768D01*
X48868827Y-55142268D01*
X48708945Y-55011055D01*
X48577732Y-54851173D01*
X48480232Y-54668764D01*
X48460219Y-54602788D01*
X48420192Y-54470837D01*
X48399919Y-54265001D01*
X48420192Y-54059165D01*
X48480232Y-53861239D01*
X48480232Y-53861238D01*
X48577732Y-53678829D01*
X48708945Y-53518947D01*
X48868827Y-53387734D01*
X49051236Y-53290234D01*
X49117212Y-53270221D01*
X49249163Y-53230194D01*
X49326292Y-53222598D01*
X49403419Y-53215001D01*
X49506579Y-53215001D01*
X49583706Y-53222598D01*
X49583706Y-53222598D01*
G37*
G36*
X52123706Y-53222598D02*
X52200835Y-53230194D01*
X52332786Y-53270221D01*
X52398762Y-53290234D01*
X52581171Y-53387734D01*
X52741053Y-53518947D01*
X52872266Y-53678829D01*
X52969766Y-53861238D01*
X52969766Y-53861239D01*
X53029806Y-54059165D01*
X53050079Y-54265001D01*
X53029806Y-54470837D01*
X52989779Y-54602788D01*
X52969766Y-54668764D01*
X52872266Y-54851173D01*
X52741053Y-55011055D01*
X52581171Y-55142268D01*
X52398762Y-55239768D01*
X52332786Y-55259781D01*
X52200835Y-55299808D01*
X52123706Y-55307404D01*
X52046579Y-55315001D01*
X51943419Y-55315001D01*
X51866292Y-55307404D01*
X51789163Y-55299808D01*
X51657212Y-55259781D01*
X51591236Y-55239768D01*
X51408827Y-55142268D01*
X51248945Y-55011055D01*
X51117732Y-54851173D01*
X51020232Y-54668764D01*
X51000219Y-54602788D01*
X50960192Y-54470837D01*
X50939919Y-54265001D01*
X50960192Y-54059165D01*
X51020232Y-53861239D01*
X51020232Y-53861238D01*
X51117732Y-53678829D01*
X51248945Y-53518947D01*
X51408827Y-53387734D01*
X51591236Y-53290234D01*
X51657212Y-53270221D01*
X51789163Y-53230194D01*
X51866292Y-53222598D01*
X51943419Y-53215001D01*
X52046579Y-53215001D01*
X52123706Y-53222598D01*
X52123706Y-53222598D01*
G37*
G36*
X54663706Y-53222598D02*
X54740835Y-53230194D01*
X54872786Y-53270221D01*
X54938762Y-53290234D01*
X55121171Y-53387734D01*
X55281053Y-53518947D01*
X55412266Y-53678829D01*
X55509766Y-53861238D01*
X55509766Y-53861239D01*
X55569806Y-54059165D01*
X55590079Y-54265001D01*
X55569806Y-54470837D01*
X55529779Y-54602788D01*
X55509766Y-54668764D01*
X55412266Y-54851173D01*
X55281053Y-55011055D01*
X55121171Y-55142268D01*
X54938762Y-55239768D01*
X54872786Y-55259781D01*
X54740835Y-55299808D01*
X54663706Y-55307404D01*
X54586579Y-55315001D01*
X54483419Y-55315001D01*
X54406292Y-55307404D01*
X54329163Y-55299808D01*
X54197212Y-55259781D01*
X54131236Y-55239768D01*
X53948827Y-55142268D01*
X53788945Y-55011055D01*
X53657732Y-54851173D01*
X53560232Y-54668764D01*
X53540219Y-54602788D01*
X53500192Y-54470837D01*
X53479919Y-54265001D01*
X53500192Y-54059165D01*
X53560232Y-53861239D01*
X53560232Y-53861238D01*
X53657732Y-53678829D01*
X53788945Y-53518947D01*
X53948827Y-53387734D01*
X54131236Y-53290234D01*
X54197212Y-53270221D01*
X54329163Y-53230194D01*
X54406292Y-53222598D01*
X54483419Y-53215001D01*
X54586579Y-53215001D01*
X54663706Y-53222598D01*
X54663706Y-53222598D01*
G37*
G36*
X58124999Y-55315001D02*
X56024999Y-55315001D01*
X56024999Y-53215001D01*
X58124999Y-53215001D01*
X58124999Y-55315001D01*
X58124999Y-55315001D01*
G37*
G36*
X36883706Y-53222598D02*
X36960835Y-53230194D01*
X37092786Y-53270221D01*
X37158762Y-53290234D01*
X37341171Y-53387734D01*
X37501053Y-53518947D01*
X37632266Y-53678829D01*
X37729766Y-53861238D01*
X37729766Y-53861239D01*
X37789806Y-54059165D01*
X37810079Y-54265001D01*
X37789806Y-54470837D01*
X37749779Y-54602788D01*
X37729766Y-54668764D01*
X37632266Y-54851173D01*
X37501053Y-55011055D01*
X37341171Y-55142268D01*
X37158762Y-55239768D01*
X37092786Y-55259781D01*
X36960835Y-55299808D01*
X36883706Y-55307404D01*
X36806579Y-55315001D01*
X36703419Y-55315001D01*
X36626292Y-55307404D01*
X36549163Y-55299808D01*
X36417212Y-55259781D01*
X36351236Y-55239768D01*
X36168827Y-55142268D01*
X36008945Y-55011055D01*
X35877732Y-54851173D01*
X35780232Y-54668764D01*
X35760219Y-54602788D01*
X35720192Y-54470837D01*
X35699919Y-54265001D01*
X35720192Y-54059165D01*
X35780232Y-53861239D01*
X35780232Y-53861238D01*
X35877732Y-53678829D01*
X36008945Y-53518947D01*
X36168827Y-53387734D01*
X36351236Y-53290234D01*
X36417212Y-53270221D01*
X36549163Y-53230194D01*
X36626292Y-53222598D01*
X36703419Y-53215001D01*
X36806579Y-53215001D01*
X36883706Y-53222598D01*
X36883706Y-53222598D01*
G37*
G36*
X21643706Y-53222598D02*
X21720835Y-53230194D01*
X21852786Y-53270221D01*
X21918762Y-53290234D01*
X22101171Y-53387734D01*
X22261053Y-53518947D01*
X22392266Y-53678829D01*
X22489766Y-53861238D01*
X22489766Y-53861239D01*
X22549806Y-54059165D01*
X22570079Y-54265001D01*
X22549806Y-54470837D01*
X22509779Y-54602788D01*
X22489766Y-54668764D01*
X22392266Y-54851173D01*
X22261053Y-55011055D01*
X22101171Y-55142268D01*
X21918762Y-55239768D01*
X21852786Y-55259781D01*
X21720835Y-55299808D01*
X21643706Y-55307404D01*
X21566579Y-55315001D01*
X21463419Y-55315001D01*
X21386292Y-55307404D01*
X21309163Y-55299808D01*
X21177212Y-55259781D01*
X21111236Y-55239768D01*
X20928827Y-55142268D01*
X20768945Y-55011055D01*
X20637732Y-54851173D01*
X20540232Y-54668764D01*
X20520219Y-54602788D01*
X20480192Y-54470837D01*
X20459919Y-54265001D01*
X20480192Y-54059165D01*
X20540232Y-53861239D01*
X20540232Y-53861238D01*
X20637732Y-53678829D01*
X20768945Y-53518947D01*
X20928827Y-53387734D01*
X21111236Y-53290234D01*
X21177212Y-53270221D01*
X21309163Y-53230194D01*
X21386292Y-53222598D01*
X21463419Y-53215001D01*
X21566579Y-53215001D01*
X21643706Y-53222598D01*
X21643706Y-53222598D01*
G37*
G36*
X16563706Y-53222598D02*
X16640835Y-53230194D01*
X16772786Y-53270221D01*
X16838762Y-53290234D01*
X17021171Y-53387734D01*
X17181053Y-53518947D01*
X17312266Y-53678829D01*
X17409766Y-53861238D01*
X17409766Y-53861239D01*
X17469806Y-54059165D01*
X17490079Y-54265001D01*
X17469806Y-54470837D01*
X17429779Y-54602788D01*
X17409766Y-54668764D01*
X17312266Y-54851173D01*
X17181053Y-55011055D01*
X17021171Y-55142268D01*
X16838762Y-55239768D01*
X16772786Y-55259781D01*
X16640835Y-55299808D01*
X16563706Y-55307404D01*
X16486579Y-55315001D01*
X16383419Y-55315001D01*
X16306292Y-55307404D01*
X16229163Y-55299808D01*
X16097212Y-55259781D01*
X16031236Y-55239768D01*
X15848827Y-55142268D01*
X15688945Y-55011055D01*
X15557732Y-54851173D01*
X15460232Y-54668764D01*
X15440219Y-54602788D01*
X15400192Y-54470837D01*
X15379919Y-54265001D01*
X15400192Y-54059165D01*
X15460232Y-53861239D01*
X15460232Y-53861238D01*
X15557732Y-53678829D01*
X15688945Y-53518947D01*
X15848827Y-53387734D01*
X16031236Y-53290234D01*
X16097212Y-53270221D01*
X16229163Y-53230194D01*
X16306292Y-53222598D01*
X16383419Y-53215001D01*
X16486579Y-53215001D01*
X16563706Y-53222598D01*
X16563706Y-53222598D01*
G37*
G36*
X19103706Y-53222598D02*
X19180835Y-53230194D01*
X19312786Y-53270221D01*
X19378762Y-53290234D01*
X19561171Y-53387734D01*
X19721053Y-53518947D01*
X19852266Y-53678829D01*
X19949766Y-53861238D01*
X19949766Y-53861239D01*
X20009806Y-54059165D01*
X20030079Y-54265001D01*
X20009806Y-54470837D01*
X19969779Y-54602788D01*
X19949766Y-54668764D01*
X19852266Y-54851173D01*
X19721053Y-55011055D01*
X19561171Y-55142268D01*
X19378762Y-55239768D01*
X19312786Y-55259781D01*
X19180835Y-55299808D01*
X19103706Y-55307404D01*
X19026579Y-55315001D01*
X18923419Y-55315001D01*
X18846292Y-55307404D01*
X18769163Y-55299808D01*
X18637212Y-55259781D01*
X18571236Y-55239768D01*
X18388827Y-55142268D01*
X18228945Y-55011055D01*
X18097732Y-54851173D01*
X18000232Y-54668764D01*
X17980219Y-54602788D01*
X17940192Y-54470837D01*
X17919919Y-54265001D01*
X17940192Y-54059165D01*
X18000232Y-53861239D01*
X18000232Y-53861238D01*
X18097732Y-53678829D01*
X18228945Y-53518947D01*
X18388827Y-53387734D01*
X18571236Y-53290234D01*
X18637212Y-53270221D01*
X18769163Y-53230194D01*
X18846292Y-53222598D01*
X18923419Y-53215001D01*
X19026579Y-53215001D01*
X19103706Y-53222598D01*
X19103706Y-53222598D01*
G37*
G36*
X34343706Y-53222598D02*
X34420835Y-53230194D01*
X34552786Y-53270221D01*
X34618762Y-53290234D01*
X34801171Y-53387734D01*
X34961053Y-53518947D01*
X35092266Y-53678829D01*
X35189766Y-53861238D01*
X35189766Y-53861239D01*
X35249806Y-54059165D01*
X35270079Y-54265001D01*
X35249806Y-54470837D01*
X35209779Y-54602788D01*
X35189766Y-54668764D01*
X35092266Y-54851173D01*
X34961053Y-55011055D01*
X34801171Y-55142268D01*
X34618762Y-55239768D01*
X34552786Y-55259781D01*
X34420835Y-55299808D01*
X34343706Y-55307404D01*
X34266579Y-55315001D01*
X34163419Y-55315001D01*
X34086292Y-55307404D01*
X34009163Y-55299808D01*
X33877212Y-55259781D01*
X33811236Y-55239768D01*
X33628827Y-55142268D01*
X33468945Y-55011055D01*
X33337732Y-54851173D01*
X33240232Y-54668764D01*
X33220219Y-54602788D01*
X33180192Y-54470837D01*
X33159919Y-54265001D01*
X33180192Y-54059165D01*
X33240232Y-53861239D01*
X33240232Y-53861238D01*
X33337732Y-53678829D01*
X33468945Y-53518947D01*
X33628827Y-53387734D01*
X33811236Y-53290234D01*
X33877212Y-53270221D01*
X34009163Y-53230194D01*
X34086292Y-53222598D01*
X34163419Y-53215001D01*
X34266579Y-53215001D01*
X34343706Y-53222598D01*
X34343706Y-53222598D01*
G37*
G36*
X24183706Y-53222598D02*
X24260835Y-53230194D01*
X24392786Y-53270221D01*
X24458762Y-53290234D01*
X24641171Y-53387734D01*
X24801053Y-53518947D01*
X24932266Y-53678829D01*
X25029766Y-53861238D01*
X25029766Y-53861239D01*
X25089806Y-54059165D01*
X25110079Y-54265001D01*
X25089806Y-54470837D01*
X25049779Y-54602788D01*
X25029766Y-54668764D01*
X24932266Y-54851173D01*
X24801053Y-55011055D01*
X24641171Y-55142268D01*
X24458762Y-55239768D01*
X24392786Y-55259781D01*
X24260835Y-55299808D01*
X24183706Y-55307404D01*
X24106579Y-55315001D01*
X24003419Y-55315001D01*
X23926292Y-55307404D01*
X23849163Y-55299808D01*
X23717212Y-55259781D01*
X23651236Y-55239768D01*
X23468827Y-55142268D01*
X23308945Y-55011055D01*
X23177732Y-54851173D01*
X23080232Y-54668764D01*
X23060219Y-54602788D01*
X23020192Y-54470837D01*
X22999919Y-54265001D01*
X23020192Y-54059165D01*
X23080232Y-53861239D01*
X23080232Y-53861238D01*
X23177732Y-53678829D01*
X23308945Y-53518947D01*
X23468827Y-53387734D01*
X23651236Y-53290234D01*
X23717212Y-53270221D01*
X23849163Y-53230194D01*
X23926292Y-53222598D01*
X24003419Y-53215001D01*
X24106579Y-53215001D01*
X24183706Y-53222598D01*
X24183706Y-53222598D01*
G37*
G36*
X31803706Y-53222598D02*
X31880835Y-53230194D01*
X32012786Y-53270221D01*
X32078762Y-53290234D01*
X32261171Y-53387734D01*
X32421053Y-53518947D01*
X32552266Y-53678829D01*
X32649766Y-53861238D01*
X32649766Y-53861239D01*
X32709806Y-54059165D01*
X32730079Y-54265001D01*
X32709806Y-54470837D01*
X32669779Y-54602788D01*
X32649766Y-54668764D01*
X32552266Y-54851173D01*
X32421053Y-55011055D01*
X32261171Y-55142268D01*
X32078762Y-55239768D01*
X32012786Y-55259781D01*
X31880835Y-55299808D01*
X31803706Y-55307404D01*
X31726579Y-55315001D01*
X31623419Y-55315001D01*
X31546292Y-55307404D01*
X31469163Y-55299808D01*
X31337212Y-55259781D01*
X31271236Y-55239768D01*
X31088827Y-55142268D01*
X30928945Y-55011055D01*
X30797732Y-54851173D01*
X30700232Y-54668764D01*
X30680219Y-54602788D01*
X30640192Y-54470837D01*
X30619919Y-54265001D01*
X30640192Y-54059165D01*
X30700232Y-53861239D01*
X30700232Y-53861238D01*
X30797732Y-53678829D01*
X30928945Y-53518947D01*
X31088827Y-53387734D01*
X31271236Y-53290234D01*
X31337212Y-53270221D01*
X31469163Y-53230194D01*
X31546292Y-53222598D01*
X31623419Y-53215001D01*
X31726579Y-53215001D01*
X31803706Y-53222598D01*
X31803706Y-53222598D01*
G37*
G36*
X29263706Y-53222598D02*
X29340835Y-53230194D01*
X29472786Y-53270221D01*
X29538762Y-53290234D01*
X29721171Y-53387734D01*
X29881053Y-53518947D01*
X30012266Y-53678829D01*
X30109766Y-53861238D01*
X30109766Y-53861239D01*
X30169806Y-54059165D01*
X30190079Y-54265001D01*
X30169806Y-54470837D01*
X30129779Y-54602788D01*
X30109766Y-54668764D01*
X30012266Y-54851173D01*
X29881053Y-55011055D01*
X29721171Y-55142268D01*
X29538762Y-55239768D01*
X29472786Y-55259781D01*
X29340835Y-55299808D01*
X29263706Y-55307404D01*
X29186579Y-55315001D01*
X29083419Y-55315001D01*
X29006292Y-55307404D01*
X28929163Y-55299808D01*
X28797212Y-55259781D01*
X28731236Y-55239768D01*
X28548827Y-55142268D01*
X28388945Y-55011055D01*
X28257732Y-54851173D01*
X28160232Y-54668764D01*
X28140219Y-54602788D01*
X28100192Y-54470837D01*
X28079919Y-54265001D01*
X28100192Y-54059165D01*
X28160232Y-53861239D01*
X28160232Y-53861238D01*
X28257732Y-53678829D01*
X28388945Y-53518947D01*
X28548827Y-53387734D01*
X28731236Y-53290234D01*
X28797212Y-53270221D01*
X28929163Y-53230194D01*
X29006292Y-53222598D01*
X29083419Y-53215001D01*
X29186579Y-53215001D01*
X29263706Y-53222598D01*
X29263706Y-53222598D01*
G37*
G36*
X26723706Y-53222598D02*
X26800835Y-53230194D01*
X26932786Y-53270221D01*
X26998762Y-53290234D01*
X27181171Y-53387734D01*
X27341053Y-53518947D01*
X27472266Y-53678829D01*
X27569766Y-53861238D01*
X27569766Y-53861239D01*
X27629806Y-54059165D01*
X27650079Y-54265001D01*
X27629806Y-54470837D01*
X27589779Y-54602788D01*
X27569766Y-54668764D01*
X27472266Y-54851173D01*
X27341053Y-55011055D01*
X27181171Y-55142268D01*
X26998762Y-55239768D01*
X26932786Y-55259781D01*
X26800835Y-55299808D01*
X26723706Y-55307404D01*
X26646579Y-55315001D01*
X26543419Y-55315001D01*
X26466292Y-55307404D01*
X26389163Y-55299808D01*
X26257212Y-55259781D01*
X26191236Y-55239768D01*
X26008827Y-55142268D01*
X25848945Y-55011055D01*
X25717732Y-54851173D01*
X25620232Y-54668764D01*
X25600219Y-54602788D01*
X25560192Y-54470837D01*
X25539919Y-54265001D01*
X25560192Y-54059165D01*
X25620232Y-53861239D01*
X25620232Y-53861238D01*
X25717732Y-53678829D01*
X25848945Y-53518947D01*
X26008827Y-53387734D01*
X26191236Y-53290234D01*
X26257212Y-53270221D01*
X26389163Y-53230194D01*
X26466292Y-53222598D01*
X26543419Y-53215001D01*
X26646579Y-53215001D01*
X26723706Y-53222598D01*
X26723706Y-53222598D01*
G37*
G36*
X8943706Y-53222598D02*
X9020835Y-53230194D01*
X9152786Y-53270221D01*
X9218762Y-53290234D01*
X9401171Y-53387734D01*
X9561053Y-53518947D01*
X9692266Y-53678829D01*
X9789766Y-53861238D01*
X9789766Y-53861239D01*
X9849806Y-54059165D01*
X9870079Y-54265001D01*
X9849806Y-54470837D01*
X9809779Y-54602788D01*
X9789766Y-54668764D01*
X9692266Y-54851173D01*
X9561053Y-55011055D01*
X9401171Y-55142268D01*
X9218762Y-55239768D01*
X9152786Y-55259781D01*
X9020835Y-55299808D01*
X8943706Y-55307404D01*
X8866579Y-55315001D01*
X8763419Y-55315001D01*
X8686292Y-55307404D01*
X8609163Y-55299808D01*
X8477212Y-55259781D01*
X8411236Y-55239768D01*
X8228827Y-55142268D01*
X8068945Y-55011055D01*
X7937732Y-54851173D01*
X7840232Y-54668764D01*
X7820219Y-54602788D01*
X7780192Y-54470837D01*
X7759919Y-54265001D01*
X7780192Y-54059165D01*
X7840232Y-53861239D01*
X7840232Y-53861238D01*
X7937732Y-53678829D01*
X8068945Y-53518947D01*
X8228827Y-53387734D01*
X8411236Y-53290234D01*
X8477212Y-53270221D01*
X8609163Y-53230194D01*
X8686292Y-53222598D01*
X8763419Y-53215001D01*
X8866579Y-53215001D01*
X8943706Y-53222598D01*
X8943706Y-53222598D01*
G37*
G36*
X11483706Y-53222598D02*
X11560835Y-53230194D01*
X11692786Y-53270221D01*
X11758762Y-53290234D01*
X11941171Y-53387734D01*
X12101053Y-53518947D01*
X12232266Y-53678829D01*
X12329766Y-53861238D01*
X12329766Y-53861239D01*
X12389806Y-54059165D01*
X12410079Y-54265001D01*
X12389806Y-54470837D01*
X12349779Y-54602788D01*
X12329766Y-54668764D01*
X12232266Y-54851173D01*
X12101053Y-55011055D01*
X11941171Y-55142268D01*
X11758762Y-55239768D01*
X11692786Y-55259781D01*
X11560835Y-55299808D01*
X11483706Y-55307404D01*
X11406579Y-55315001D01*
X11303419Y-55315001D01*
X11226292Y-55307404D01*
X11149163Y-55299808D01*
X11017212Y-55259781D01*
X10951236Y-55239768D01*
X10768827Y-55142268D01*
X10608945Y-55011055D01*
X10477732Y-54851173D01*
X10380232Y-54668764D01*
X10360219Y-54602788D01*
X10320192Y-54470837D01*
X10299919Y-54265001D01*
X10320192Y-54059165D01*
X10380232Y-53861239D01*
X10380232Y-53861238D01*
X10477732Y-53678829D01*
X10608945Y-53518947D01*
X10768827Y-53387734D01*
X10951236Y-53290234D01*
X11017212Y-53270221D01*
X11149163Y-53230194D01*
X11226292Y-53222598D01*
X11303419Y-53215001D01*
X11406579Y-53215001D01*
X11483706Y-53222598D01*
X11483706Y-53222598D01*
G37*
G36*
X14023706Y-53222598D02*
X14100835Y-53230194D01*
X14232786Y-53270221D01*
X14298762Y-53290234D01*
X14481171Y-53387734D01*
X14641053Y-53518947D01*
X14772266Y-53678829D01*
X14869766Y-53861238D01*
X14869766Y-53861239D01*
X14929806Y-54059165D01*
X14950079Y-54265001D01*
X14929806Y-54470837D01*
X14889779Y-54602788D01*
X14869766Y-54668764D01*
X14772266Y-54851173D01*
X14641053Y-55011055D01*
X14481171Y-55142268D01*
X14298762Y-55239768D01*
X14232786Y-55259781D01*
X14100835Y-55299808D01*
X14023706Y-55307404D01*
X13946579Y-55315001D01*
X13843419Y-55315001D01*
X13766292Y-55307404D01*
X13689163Y-55299808D01*
X13557212Y-55259781D01*
X13491236Y-55239768D01*
X13308827Y-55142268D01*
X13148945Y-55011055D01*
X13017732Y-54851173D01*
X12920232Y-54668764D01*
X12900219Y-54602788D01*
X12860192Y-54470837D01*
X12839919Y-54265001D01*
X12860192Y-54059165D01*
X12920232Y-53861239D01*
X12920232Y-53861238D01*
X13017732Y-53678829D01*
X13148945Y-53518947D01*
X13308827Y-53387734D01*
X13491236Y-53290234D01*
X13557212Y-53270221D01*
X13689163Y-53230194D01*
X13766292Y-53222598D01*
X13843419Y-53215001D01*
X13946579Y-53215001D01*
X14023706Y-53222598D01*
X14023706Y-53222598D01*
G37*
G36*
X27875770Y-50315372D02*
X27991689Y-50338429D01*
X28173678Y-50413811D01*
X28337463Y-50523249D01*
X28476751Y-50662537D01*
X28586189Y-50826322D01*
X28661571Y-51008311D01*
X28682712Y-51114594D01*
X28697229Y-51187574D01*
X28700000Y-51201509D01*
X28700000Y-51398491D01*
X28661571Y-51591689D01*
X28586189Y-51773678D01*
X28476751Y-51937463D01*
X28337463Y-52076751D01*
X28173678Y-52186189D01*
X27991689Y-52261571D01*
X27875770Y-52284628D01*
X27798493Y-52300000D01*
X27601507Y-52300000D01*
X27524230Y-52284628D01*
X27408311Y-52261571D01*
X27226322Y-52186189D01*
X27062537Y-52076751D01*
X26923249Y-51937463D01*
X26813811Y-51773678D01*
X26738429Y-51591689D01*
X26700000Y-51398491D01*
X26700000Y-51201509D01*
X26702772Y-51187574D01*
X26717288Y-51114594D01*
X26738429Y-51008311D01*
X26813811Y-50826322D01*
X26923249Y-50662537D01*
X27062537Y-50523249D01*
X27226322Y-50413811D01*
X27408311Y-50338429D01*
X27524230Y-50315372D01*
X27601507Y-50300000D01*
X27798493Y-50300000D01*
X27875770Y-50315372D01*
X27875770Y-50315372D01*
G37*
G36*
X48216030Y-49914469D02*
X48216033Y-49914470D01*
X48216034Y-49914470D01*
X48404535Y-49971651D01*
X48404537Y-49971652D01*
X48578260Y-50064509D01*
X48730528Y-50189472D01*
X48855491Y-50341740D01*
X48948350Y-50515467D01*
X48977763Y-50612426D01*
X48987140Y-50635065D01*
X49000754Y-50655440D01*
X49018081Y-50672767D01*
X49038456Y-50686380D01*
X49061095Y-50695758D01*
X49085128Y-50700538D01*
X49109633Y-50700538D01*
X49133666Y-50695757D01*
X49156305Y-50686380D01*
X49176680Y-50672766D01*
X49194007Y-50655439D01*
X49207620Y-50635064D01*
X49216998Y-50612425D01*
X49217414Y-50610762D01*
X49218429Y-50608311D01*
X49293811Y-50426322D01*
X49403249Y-50262537D01*
X49542537Y-50123249D01*
X49706322Y-50013811D01*
X49888311Y-49938429D01*
X50004230Y-49915372D01*
X50081507Y-49900000D01*
X50278493Y-49900000D01*
X50355770Y-49915372D01*
X50471689Y-49938429D01*
X50653678Y-50013811D01*
X50817463Y-50123249D01*
X50956751Y-50262537D01*
X51066189Y-50426322D01*
X51141571Y-50608311D01*
X51162312Y-50712586D01*
X51167837Y-50740358D01*
X51180000Y-50801509D01*
X51180000Y-50998491D01*
X51141571Y-51191689D01*
X51066189Y-51373678D01*
X50956751Y-51537463D01*
X50817463Y-51676751D01*
X50653678Y-51786189D01*
X50471689Y-51861571D01*
X50355770Y-51884628D01*
X50278493Y-51900000D01*
X50081507Y-51900000D01*
X50004230Y-51884628D01*
X49888311Y-51861571D01*
X49706322Y-51786189D01*
X49542537Y-51676751D01*
X49403249Y-51537463D01*
X49293811Y-51373678D01*
X49218429Y-51191689D01*
X49218428Y-51191685D01*
X49215395Y-51184362D01*
X49212869Y-51176033D01*
X49201319Y-51154422D01*
X49185775Y-51135478D01*
X49166834Y-51119932D01*
X49145224Y-51108379D01*
X49121775Y-51101264D01*
X49097389Y-51098860D01*
X49073003Y-51101260D01*
X49049553Y-51108371D01*
X49027942Y-51119921D01*
X49008998Y-51135465D01*
X48993452Y-51154406D01*
X48981899Y-51176016D01*
X48977763Y-51187574D01*
X48948350Y-51284533D01*
X48855491Y-51458260D01*
X48730528Y-51610528D01*
X48578260Y-51735491D01*
X48578258Y-51735492D01*
X48404535Y-51828349D01*
X48216034Y-51885530D01*
X48216033Y-51885530D01*
X48216030Y-51885531D01*
X48069124Y-51900000D01*
X47970876Y-51900000D01*
X47823970Y-51885531D01*
X47823967Y-51885530D01*
X47823966Y-51885530D01*
X47635465Y-51828349D01*
X47461742Y-51735492D01*
X47461740Y-51735491D01*
X47309472Y-51610528D01*
X47184509Y-51458260D01*
X47091652Y-51284537D01*
X47091651Y-51284533D01*
X47034470Y-51096034D01*
X47034470Y-51096033D01*
X47034469Y-51096030D01*
X47015162Y-50900000D01*
X47034469Y-50703970D01*
X47043934Y-50672767D01*
X47091651Y-50515465D01*
X47184508Y-50341742D01*
X47184509Y-50341740D01*
X47309472Y-50189472D01*
X47461740Y-50064509D01*
X47635463Y-49971652D01*
X47635465Y-49971651D01*
X47823966Y-49914470D01*
X47823967Y-49914470D01*
X47823970Y-49914469D01*
X47970876Y-49900000D01*
X48069124Y-49900000D01*
X48216030Y-49914469D01*
X48216030Y-49914469D01*
G37*
G36*
X57996030Y-49914469D02*
X57996033Y-49914470D01*
X57996034Y-49914470D01*
X58184535Y-49971651D01*
X58184537Y-49971652D01*
X58358260Y-50064509D01*
X58510528Y-50189472D01*
X58635491Y-50341740D01*
X58635492Y-50341742D01*
X58728349Y-50515465D01*
X58776066Y-50672767D01*
X58785531Y-50703970D01*
X58804838Y-50900000D01*
X58785531Y-51096030D01*
X58785530Y-51096033D01*
X58785530Y-51096034D01*
X58728350Y-51284533D01*
X58728348Y-51284537D01*
X58635491Y-51458260D01*
X58510528Y-51610528D01*
X58358260Y-51735491D01*
X58358258Y-51735492D01*
X58184535Y-51828349D01*
X57996034Y-51885530D01*
X57996033Y-51885530D01*
X57996030Y-51885531D01*
X57849124Y-51900000D01*
X57750876Y-51900000D01*
X57603970Y-51885531D01*
X57603967Y-51885530D01*
X57603966Y-51885530D01*
X57415465Y-51828349D01*
X57241742Y-51735492D01*
X57241740Y-51735491D01*
X57089472Y-51610528D01*
X56964509Y-51458260D01*
X56871652Y-51284537D01*
X56871651Y-51284533D01*
X56814470Y-51096034D01*
X56814470Y-51096033D01*
X56814469Y-51096030D01*
X56795162Y-50900000D01*
X56814469Y-50703970D01*
X56823934Y-50672767D01*
X56871651Y-50515465D01*
X56964508Y-50341742D01*
X56964509Y-50341740D01*
X57089472Y-50189472D01*
X57241740Y-50064509D01*
X57415463Y-49971652D01*
X57415465Y-49971651D01*
X57603966Y-49914470D01*
X57603967Y-49914470D01*
X57603970Y-49914469D01*
X57750876Y-49900000D01*
X57849124Y-49900000D01*
X57996030Y-49914469D01*
X57996030Y-49914469D01*
G37*
G36*
X38416030Y-49914469D02*
X38416033Y-49914470D01*
X38416034Y-49914470D01*
X38604535Y-49971651D01*
X38604537Y-49971652D01*
X38778260Y-50064509D01*
X38930528Y-50189472D01*
X39055491Y-50341740D01*
X39148350Y-50515467D01*
X39189842Y-50652246D01*
X39199219Y-50674885D01*
X39212833Y-50695259D01*
X39230160Y-50712586D01*
X39250535Y-50726200D01*
X39273174Y-50735578D01*
X39297207Y-50740358D01*
X39321711Y-50740358D01*
X39345745Y-50735577D01*
X39368384Y-50726200D01*
X39388758Y-50712586D01*
X39406085Y-50695259D01*
X39419699Y-50674884D01*
X39432057Y-50640346D01*
X39438429Y-50608311D01*
X39513811Y-50426322D01*
X39623249Y-50262537D01*
X39762537Y-50123249D01*
X39926322Y-50013811D01*
X40108311Y-49938429D01*
X40224230Y-49915372D01*
X40301507Y-49900000D01*
X40498493Y-49900000D01*
X40575770Y-49915372D01*
X40691689Y-49938429D01*
X40873678Y-50013811D01*
X41037463Y-50123249D01*
X41176751Y-50262537D01*
X41286189Y-50426322D01*
X41361571Y-50608311D01*
X41382312Y-50712586D01*
X41387837Y-50740358D01*
X41400000Y-50801509D01*
X41400000Y-50998491D01*
X41361571Y-51191689D01*
X41286189Y-51373678D01*
X41176751Y-51537463D01*
X41037463Y-51676751D01*
X40873678Y-51786189D01*
X40691689Y-51861571D01*
X40575770Y-51884628D01*
X40498493Y-51900000D01*
X40301507Y-51900000D01*
X40224230Y-51884628D01*
X40108311Y-51861571D01*
X39926322Y-51786189D01*
X39762537Y-51676751D01*
X39623249Y-51537463D01*
X39513811Y-51373678D01*
X39438429Y-51191689D01*
X39432057Y-51159653D01*
X39424944Y-51136205D01*
X39413393Y-51114594D01*
X39397847Y-51095652D01*
X39378905Y-51080106D01*
X39357294Y-51068555D01*
X39333845Y-51061442D01*
X39309459Y-51059040D01*
X39285073Y-51061442D01*
X39261624Y-51068555D01*
X39240013Y-51080106D01*
X39221071Y-51095652D01*
X39205525Y-51114594D01*
X39189842Y-51147754D01*
X39148350Y-51284533D01*
X39055491Y-51458260D01*
X38930528Y-51610528D01*
X38778260Y-51735491D01*
X38778258Y-51735492D01*
X38604535Y-51828349D01*
X38416034Y-51885530D01*
X38416033Y-51885530D01*
X38416030Y-51885531D01*
X38269124Y-51900000D01*
X38170876Y-51900000D01*
X38023970Y-51885531D01*
X38023967Y-51885530D01*
X38023966Y-51885530D01*
X37835465Y-51828349D01*
X37661742Y-51735492D01*
X37661740Y-51735491D01*
X37509472Y-51610528D01*
X37384509Y-51458260D01*
X37291652Y-51284537D01*
X37291651Y-51284533D01*
X37234470Y-51096034D01*
X37234470Y-51096033D01*
X37234469Y-51096030D01*
X37215162Y-50900000D01*
X37234469Y-50703970D01*
X37243934Y-50672767D01*
X37291651Y-50515465D01*
X37384508Y-50341742D01*
X37384509Y-50341740D01*
X37509472Y-50189472D01*
X37661740Y-50064509D01*
X37835463Y-49971652D01*
X37835465Y-49971651D01*
X38023966Y-49914470D01*
X38023967Y-49914470D01*
X38023970Y-49914469D01*
X38170876Y-49900000D01*
X38269124Y-49900000D01*
X38416030Y-49914469D01*
X38416030Y-49914469D01*
G37*
G36*
X30775770Y-49915372D02*
X30891689Y-49938429D01*
X31073678Y-50013811D01*
X31237463Y-50123249D01*
X31376751Y-50262537D01*
X31486189Y-50426322D01*
X31561571Y-50608311D01*
X31582312Y-50712586D01*
X31587837Y-50740358D01*
X31600000Y-50801509D01*
X31600000Y-50998491D01*
X31561571Y-51191689D01*
X31486189Y-51373678D01*
X31376751Y-51537463D01*
X31237463Y-51676751D01*
X31073678Y-51786189D01*
X30891689Y-51861571D01*
X30775770Y-51884628D01*
X30698493Y-51900000D01*
X30501507Y-51900000D01*
X30424230Y-51884628D01*
X30308311Y-51861571D01*
X30126322Y-51786189D01*
X29962537Y-51676751D01*
X29823249Y-51537463D01*
X29713811Y-51373678D01*
X29638429Y-51191689D01*
X29600000Y-50998491D01*
X29600000Y-50801509D01*
X29612164Y-50740358D01*
X29617688Y-50712586D01*
X29638429Y-50608311D01*
X29713811Y-50426322D01*
X29823249Y-50262537D01*
X29962537Y-50123249D01*
X30126322Y-50013811D01*
X30308311Y-49938429D01*
X30424230Y-49915372D01*
X30501507Y-49900000D01*
X30698493Y-49900000D01*
X30775770Y-49915372D01*
X30775770Y-49915372D01*
G37*
G36*
X44675770Y-47015372D02*
X44791689Y-47038429D01*
X44973678Y-47113811D01*
X45137463Y-47223249D01*
X45276751Y-47362537D01*
X45386189Y-47526322D01*
X45461571Y-47708311D01*
X45500000Y-47901509D01*
X45500000Y-48098491D01*
X45461571Y-48291689D01*
X45386189Y-48473678D01*
X45276751Y-48637463D01*
X45137463Y-48776751D01*
X44973678Y-48886189D01*
X44791689Y-48961571D01*
X44675770Y-48984628D01*
X44598493Y-49000000D01*
X44401507Y-49000000D01*
X44324230Y-48984628D01*
X44208311Y-48961571D01*
X44026322Y-48886189D01*
X43862537Y-48776751D01*
X43723249Y-48637463D01*
X43613811Y-48473678D01*
X43538429Y-48291689D01*
X43500000Y-48098491D01*
X43500000Y-47901509D01*
X43538429Y-47708311D01*
X43613811Y-47526322D01*
X43723249Y-47362537D01*
X43862537Y-47223249D01*
X44026322Y-47113811D01*
X44208311Y-47038429D01*
X44324230Y-47015372D01*
X44401507Y-47000000D01*
X44598493Y-47000000D01*
X44675770Y-47015372D01*
X44675770Y-47015372D01*
G37*
G36*
X57975770Y-46815372D02*
X58091689Y-46838429D01*
X58273678Y-46913811D01*
X58437463Y-47023249D01*
X58576751Y-47162537D01*
X58686189Y-47326322D01*
X58761571Y-47508311D01*
X58784628Y-47624230D01*
X58796972Y-47686282D01*
X58800000Y-47701509D01*
X58800000Y-47898491D01*
X58761571Y-48091689D01*
X58686189Y-48273678D01*
X58576751Y-48437463D01*
X58437463Y-48576751D01*
X58273678Y-48686189D01*
X58091689Y-48761571D01*
X57975770Y-48784628D01*
X57898493Y-48800000D01*
X57701507Y-48800000D01*
X57624230Y-48784628D01*
X57508311Y-48761571D01*
X57326322Y-48686189D01*
X57162537Y-48576751D01*
X57023249Y-48437463D01*
X56913811Y-48273678D01*
X56838429Y-48091689D01*
X56800000Y-47898491D01*
X56800000Y-47701509D01*
X56803029Y-47686282D01*
X56815372Y-47624230D01*
X56838429Y-47508311D01*
X56913811Y-47326322D01*
X57023249Y-47162537D01*
X57162537Y-47023249D01*
X57326322Y-46913811D01*
X57508311Y-46838429D01*
X57624230Y-46815372D01*
X57701507Y-46800000D01*
X57898493Y-46800000D01*
X57975770Y-46815372D01*
X57975770Y-46815372D01*
G37*
G36*
X50376030Y-46814469D02*
X50376033Y-46814470D01*
X50376034Y-46814470D01*
X50564535Y-46871651D01*
X50564537Y-46871652D01*
X50738260Y-46964509D01*
X50890528Y-47089472D01*
X51015491Y-47241740D01*
X51108348Y-47415463D01*
X51165531Y-47603970D01*
X51184838Y-47800000D01*
X51165531Y-47996030D01*
X51165530Y-47996033D01*
X51165530Y-47996034D01*
X51111962Y-48172626D01*
X51108348Y-48184537D01*
X51015491Y-48358260D01*
X50890528Y-48510528D01*
X50738260Y-48635491D01*
X50738258Y-48635492D01*
X50564535Y-48728349D01*
X50376034Y-48785530D01*
X50376033Y-48785530D01*
X50376030Y-48785531D01*
X50229124Y-48800000D01*
X50130876Y-48800000D01*
X49983970Y-48785531D01*
X49983967Y-48785530D01*
X49983966Y-48785530D01*
X49795465Y-48728349D01*
X49621742Y-48635492D01*
X49621740Y-48635491D01*
X49469472Y-48510528D01*
X49344509Y-48358260D01*
X49251652Y-48184537D01*
X49248039Y-48172626D01*
X49194470Y-47996034D01*
X49194470Y-47996033D01*
X49194469Y-47996030D01*
X49175162Y-47800000D01*
X49194469Y-47603970D01*
X49251652Y-47415463D01*
X49344509Y-47241740D01*
X49469472Y-47089472D01*
X49621740Y-46964509D01*
X49795463Y-46871652D01*
X49795465Y-46871651D01*
X49983966Y-46814470D01*
X49983967Y-46814470D01*
X49983970Y-46814469D01*
X50130876Y-46800000D01*
X50229124Y-46800000D01*
X50376030Y-46814469D01*
X50376030Y-46814469D01*
G37*
G36*
X34289203Y-45652893D02*
X34289206Y-45652894D01*
X34289207Y-45652894D01*
X34304773Y-45657616D01*
X34326908Y-45664330D01*
X34346856Y-45674993D01*
X34361652Y-45682901D01*
X34361653Y-45682902D01*
X34361655Y-45682903D01*
X34392106Y-45707894D01*
X34417097Y-45738345D01*
X34435670Y-45773092D01*
X34447107Y-45810797D01*
X34451573Y-45856140D01*
X34451573Y-47143860D01*
X34447107Y-47189203D01*
X34435670Y-47226908D01*
X34417097Y-47261655D01*
X34392106Y-47292106D01*
X34361655Y-47317097D01*
X34361653Y-47317098D01*
X34361652Y-47317099D01*
X34346856Y-47325007D01*
X34326908Y-47335670D01*
X34304773Y-47342384D01*
X34289207Y-47347106D01*
X34289206Y-47347106D01*
X34289203Y-47347107D01*
X34243860Y-47351573D01*
X33406140Y-47351573D01*
X33360797Y-47347107D01*
X33360794Y-47347106D01*
X33360793Y-47347106D01*
X33323093Y-47335670D01*
X33323090Y-47335669D01*
X33306295Y-47326692D01*
X33283656Y-47317315D01*
X33259623Y-47312535D01*
X33235119Y-47312535D01*
X33211085Y-47317316D01*
X33188446Y-47326693D01*
X33168072Y-47340308D01*
X33150745Y-47357635D01*
X33137131Y-47378010D01*
X33127754Y-47400649D01*
X33122974Y-47424682D01*
X33122974Y-47449186D01*
X33131887Y-47484769D01*
X33141640Y-47508314D01*
X33147336Y-47522067D01*
X33180000Y-47686281D01*
X33180000Y-47853719D01*
X33147336Y-48017934D01*
X33083260Y-48172627D01*
X32990236Y-48311847D01*
X32871847Y-48430236D01*
X32732627Y-48523260D01*
X32577934Y-48587336D01*
X32413719Y-48620000D01*
X32246281Y-48620000D01*
X32082066Y-48587336D01*
X31927373Y-48523260D01*
X31788153Y-48430236D01*
X31669764Y-48311847D01*
X31576740Y-48172627D01*
X31512664Y-48017934D01*
X31480000Y-47853719D01*
X31480000Y-47686281D01*
X31512664Y-47522067D01*
X31518361Y-47508314D01*
X31541945Y-47451376D01*
X31549058Y-47427927D01*
X31551460Y-47403541D01*
X31549058Y-47379154D01*
X31541945Y-47355705D01*
X31530394Y-47334094D01*
X31514849Y-47315152D01*
X31495907Y-47299607D01*
X31474296Y-47288055D01*
X31450847Y-47280942D01*
X31426461Y-47278540D01*
X31402074Y-47280942D01*
X31378623Y-47288055D01*
X31307936Y-47317335D01*
X31307935Y-47317335D01*
X31307933Y-47317336D01*
X31143719Y-47350000D01*
X30976281Y-47350000D01*
X30812066Y-47317336D01*
X30657373Y-47253260D01*
X30518153Y-47160236D01*
X30399764Y-47041847D01*
X30306740Y-46902627D01*
X30242664Y-46747934D01*
X30210000Y-46583719D01*
X30210000Y-46416281D01*
X30242664Y-46252066D01*
X30306740Y-46097373D01*
X30399764Y-45958153D01*
X30518153Y-45839764D01*
X30657373Y-45746740D01*
X30812066Y-45682664D01*
X30976281Y-45650000D01*
X31143719Y-45650000D01*
X31307934Y-45682664D01*
X31462627Y-45746740D01*
X31601847Y-45839764D01*
X31720236Y-45958153D01*
X31813260Y-46097373D01*
X31877336Y-46252066D01*
X31910000Y-46416281D01*
X31910000Y-46583719D01*
X31877336Y-46747933D01*
X31877335Y-46747935D01*
X31877335Y-46747936D01*
X31865186Y-46777267D01*
X31848055Y-46818624D01*
X31840942Y-46842073D01*
X31838540Y-46866459D01*
X31840942Y-46890846D01*
X31848055Y-46914295D01*
X31859606Y-46935906D01*
X31875151Y-46954848D01*
X31894093Y-46970393D01*
X31915704Y-46981945D01*
X31939153Y-46989058D01*
X31963539Y-46991460D01*
X31987926Y-46989058D01*
X32011376Y-46981945D01*
X32039265Y-46970393D01*
X32082064Y-46952665D01*
X32082065Y-46952665D01*
X32082067Y-46952664D01*
X32246281Y-46920000D01*
X32413719Y-46920000D01*
X32577933Y-46952664D01*
X32577935Y-46952665D01*
X32577936Y-46952665D01*
X32583206Y-46954848D01*
X32615231Y-46968113D01*
X32638680Y-46975226D01*
X32663067Y-46977628D01*
X32687453Y-46975226D01*
X32710902Y-46968113D01*
X32732513Y-46956562D01*
X32751455Y-46941017D01*
X32767000Y-46922075D01*
X32778552Y-46900464D01*
X32785665Y-46877015D01*
X32788067Y-46852628D01*
X32785665Y-46828242D01*
X32773308Y-46793705D01*
X32764331Y-46776910D01*
X32752893Y-46739203D01*
X32748427Y-46693860D01*
X32748427Y-45856140D01*
X32752893Y-45810797D01*
X32764330Y-45773092D01*
X32782903Y-45738345D01*
X32807894Y-45707894D01*
X32838345Y-45682903D01*
X32838347Y-45682902D01*
X32838348Y-45682901D01*
X32853144Y-45674993D01*
X32873092Y-45664330D01*
X32895227Y-45657616D01*
X32910793Y-45652894D01*
X32910794Y-45652894D01*
X32910797Y-45652893D01*
X32956140Y-45648427D01*
X34243860Y-45648427D01*
X34289203Y-45652893D01*
X34289203Y-45652893D01*
G37*
G36*
X4650000Y-46950000D02*
X2550000Y-46950000D01*
X2550000Y-44850000D01*
X4650000Y-44850000D01*
X4650000Y-46950000D01*
X4650000Y-46950000D01*
G37*
G36*
X6268707Y-44857597D02*
X6345836Y-44865193D01*
X6477787Y-44905220D01*
X6543763Y-44925233D01*
X6726172Y-45022733D01*
X6886054Y-45153946D01*
X7017267Y-45313828D01*
X7114767Y-45496237D01*
X7114767Y-45496238D01*
X7174807Y-45694164D01*
X7195080Y-45900000D01*
X7174807Y-46105836D01*
X7134780Y-46237787D01*
X7114767Y-46303763D01*
X7017267Y-46486172D01*
X6886054Y-46646054D01*
X6726172Y-46777267D01*
X6543763Y-46874767D01*
X6477787Y-46894780D01*
X6345836Y-46934807D01*
X6282784Y-46941017D01*
X6191580Y-46950000D01*
X6088420Y-46950000D01*
X5997216Y-46941017D01*
X5934164Y-46934807D01*
X5802213Y-46894780D01*
X5736237Y-46874767D01*
X5553828Y-46777267D01*
X5393946Y-46646054D01*
X5262733Y-46486172D01*
X5165233Y-46303763D01*
X5145220Y-46237787D01*
X5105193Y-46105836D01*
X5084920Y-45900000D01*
X5105193Y-45694164D01*
X5165233Y-45496238D01*
X5165233Y-45496237D01*
X5262733Y-45313828D01*
X5393946Y-45153946D01*
X5553828Y-45022733D01*
X5736237Y-44925233D01*
X5802213Y-44905220D01*
X5934164Y-44865193D01*
X6011293Y-44857597D01*
X6088420Y-44850000D01*
X6191580Y-44850000D01*
X6268707Y-44857597D01*
X6268707Y-44857597D01*
G37*
G36*
X41950000Y-46650000D02*
X39850000Y-46650000D01*
X39850000Y-44550000D01*
X41950000Y-44550000D01*
X41950000Y-46650000D01*
X41950000Y-46650000D01*
G37*
G36*
X27896030Y-42694469D02*
X27896033Y-42694470D01*
X27896034Y-42694470D01*
X28084535Y-42751651D01*
X28084537Y-42751652D01*
X28258260Y-42844509D01*
X28410528Y-42969472D01*
X28535491Y-43121740D01*
X28535492Y-43121742D01*
X28628349Y-43295465D01*
X28685530Y-43483966D01*
X28685531Y-43483970D01*
X28704838Y-43680000D01*
X28685531Y-43876030D01*
X28628348Y-44064537D01*
X28535491Y-44238260D01*
X28410528Y-44390528D01*
X28258260Y-44515491D01*
X28258258Y-44515492D01*
X28084535Y-44608349D01*
X27896034Y-44665530D01*
X27896033Y-44665530D01*
X27896030Y-44665531D01*
X27749124Y-44680000D01*
X27650876Y-44680000D01*
X27503970Y-44665531D01*
X27503967Y-44665530D01*
X27503966Y-44665530D01*
X27315465Y-44608349D01*
X27141742Y-44515492D01*
X27141740Y-44515491D01*
X26989472Y-44390528D01*
X26864509Y-44238260D01*
X26771652Y-44064537D01*
X26714469Y-43876030D01*
X26695162Y-43680000D01*
X26714469Y-43483970D01*
X26714470Y-43483966D01*
X26771651Y-43295465D01*
X26864508Y-43121742D01*
X26864509Y-43121740D01*
X26989472Y-42969472D01*
X27141740Y-42844509D01*
X27315463Y-42751652D01*
X27315465Y-42751651D01*
X27503966Y-42694470D01*
X27503967Y-42694470D01*
X27503970Y-42694469D01*
X27650876Y-42680000D01*
X27749124Y-42680000D01*
X27896030Y-42694469D01*
X27896030Y-42694469D01*
G37*
G36*
X41028707Y-42017596D02*
X41105836Y-42025193D01*
X41208178Y-42056238D01*
X41303763Y-42085233D01*
X41486172Y-42182733D01*
X41646054Y-42313946D01*
X41777267Y-42473828D01*
X41874767Y-42656237D01*
X41874767Y-42656238D01*
X41934807Y-42854164D01*
X41955080Y-43060000D01*
X41934807Y-43265836D01*
X41901763Y-43374767D01*
X41874767Y-43463763D01*
X41777267Y-43646172D01*
X41646054Y-43806054D01*
X41486172Y-43937267D01*
X41303763Y-44034767D01*
X41237787Y-44054780D01*
X41105836Y-44094807D01*
X41028707Y-44102404D01*
X40951580Y-44110000D01*
X40848420Y-44110000D01*
X40771293Y-44102404D01*
X40694164Y-44094807D01*
X40562213Y-44054780D01*
X40496237Y-44034767D01*
X40313828Y-43937267D01*
X40153946Y-43806054D01*
X40022733Y-43646172D01*
X39925233Y-43463763D01*
X39898237Y-43374767D01*
X39865193Y-43265836D01*
X39844920Y-43060000D01*
X39865193Y-42854164D01*
X39925233Y-42656238D01*
X39925233Y-42656237D01*
X40022733Y-42473828D01*
X40153946Y-42313946D01*
X40313828Y-42182733D01*
X40496237Y-42085233D01*
X40591822Y-42056238D01*
X40694164Y-42025193D01*
X40771293Y-42017596D01*
X40848420Y-42010000D01*
X40951580Y-42010000D01*
X41028707Y-42017596D01*
X41028707Y-42017596D01*
G37*
G36*
X61678707Y-41417596D02*
X61755836Y-41425193D01*
X61887787Y-41465220D01*
X61953763Y-41485233D01*
X62136172Y-41582733D01*
X62296054Y-41713946D01*
X62427267Y-41873828D01*
X62524767Y-42056237D01*
X62524767Y-42056238D01*
X62584807Y-42254164D01*
X62605080Y-42460000D01*
X62584807Y-42665836D01*
X62580510Y-42680000D01*
X62524767Y-42863763D01*
X62427267Y-43046172D01*
X62296054Y-43206054D01*
X62136172Y-43337267D01*
X61953763Y-43434767D01*
X61887787Y-43454780D01*
X61755836Y-43494807D01*
X61678707Y-43502403D01*
X61601580Y-43510000D01*
X61498420Y-43510000D01*
X61421293Y-43502403D01*
X61344164Y-43494807D01*
X61212213Y-43454780D01*
X61146237Y-43434767D01*
X60963828Y-43337267D01*
X60803946Y-43206054D01*
X60672733Y-43046172D01*
X60575233Y-42863763D01*
X60519490Y-42680000D01*
X60515193Y-42665836D01*
X60494920Y-42460000D01*
X60515193Y-42254164D01*
X60575233Y-42056238D01*
X60575233Y-42056237D01*
X60672733Y-41873828D01*
X60803946Y-41713946D01*
X60963828Y-41582733D01*
X61146237Y-41485233D01*
X61212213Y-41465220D01*
X61344164Y-41425193D01*
X61421293Y-41417596D01*
X61498420Y-41410000D01*
X61601580Y-41410000D01*
X61678707Y-41417596D01*
X61678707Y-41417596D01*
G37*
G36*
X34028707Y-41357596D02*
X34105836Y-41365193D01*
X34237787Y-41405220D01*
X34303763Y-41425233D01*
X34486172Y-41522733D01*
X34646054Y-41653946D01*
X34777267Y-41813828D01*
X34874767Y-41996237D01*
X34892967Y-42056237D01*
X34934807Y-42194164D01*
X34955080Y-42400000D01*
X34934807Y-42605836D01*
X34907920Y-42694470D01*
X34874767Y-42803763D01*
X34777267Y-42986172D01*
X34646054Y-43146054D01*
X34486172Y-43277267D01*
X34303763Y-43374767D01*
X34237787Y-43394780D01*
X34105836Y-43434807D01*
X34028707Y-43442403D01*
X33951580Y-43450000D01*
X33848420Y-43450000D01*
X33771293Y-43442403D01*
X33694164Y-43434807D01*
X33562213Y-43394780D01*
X33496237Y-43374767D01*
X33313828Y-43277267D01*
X33153946Y-43146054D01*
X33022733Y-42986172D01*
X32925233Y-42803763D01*
X32892080Y-42694470D01*
X32865193Y-42605836D01*
X32844920Y-42400000D01*
X32865193Y-42194164D01*
X32907033Y-42056237D01*
X32925233Y-41996237D01*
X33022733Y-41813828D01*
X33153946Y-41653946D01*
X33313828Y-41522733D01*
X33496237Y-41425233D01*
X33562213Y-41405220D01*
X33694164Y-41365193D01*
X33771293Y-41357596D01*
X33848420Y-41350000D01*
X33951580Y-41350000D01*
X34028707Y-41357596D01*
X34028707Y-41357596D01*
G37*
G36*
X37490000Y-43450000D02*
X35390000Y-43450000D01*
X35390000Y-41350000D01*
X37490000Y-41350000D01*
X37490000Y-43450000D01*
X37490000Y-43450000D01*
G37*
G36*
X31488707Y-41357596D02*
X31565836Y-41365193D01*
X31697787Y-41405220D01*
X31763763Y-41425233D01*
X31946172Y-41522733D01*
X32106054Y-41653946D01*
X32237267Y-41813828D01*
X32334767Y-41996237D01*
X32352967Y-42056237D01*
X32394807Y-42194164D01*
X32415080Y-42400000D01*
X32394807Y-42605836D01*
X32367920Y-42694470D01*
X32334767Y-42803763D01*
X32237267Y-42986172D01*
X32106054Y-43146054D01*
X31946172Y-43277267D01*
X31763763Y-43374767D01*
X31697787Y-43394780D01*
X31565836Y-43434807D01*
X31488707Y-43442403D01*
X31411580Y-43450000D01*
X31308420Y-43450000D01*
X31231293Y-43442403D01*
X31154164Y-43434807D01*
X31022213Y-43394780D01*
X30956237Y-43374767D01*
X30773828Y-43277267D01*
X30613946Y-43146054D01*
X30482733Y-42986172D01*
X30385233Y-42803763D01*
X30352080Y-42694470D01*
X30325193Y-42605836D01*
X30304920Y-42400000D01*
X30325193Y-42194164D01*
X30367033Y-42056237D01*
X30385233Y-41996237D01*
X30482733Y-41813828D01*
X30613946Y-41653946D01*
X30773828Y-41522733D01*
X30956237Y-41425233D01*
X31022213Y-41405220D01*
X31154164Y-41365193D01*
X31231293Y-41357596D01*
X31308420Y-41350000D01*
X31411580Y-41350000D01*
X31488707Y-41357596D01*
X31488707Y-41357596D01*
G37*
G36*
X44696030Y-39394469D02*
X44696033Y-39394470D01*
X44696034Y-39394470D01*
X44884535Y-39451651D01*
X44884537Y-39451652D01*
X45058260Y-39544509D01*
X45210528Y-39669472D01*
X45335491Y-39821740D01*
X45335492Y-39821742D01*
X45428349Y-39995465D01*
X45485530Y-40183966D01*
X45485531Y-40183970D01*
X45504838Y-40380000D01*
X45485531Y-40576030D01*
X45428348Y-40764537D01*
X45335491Y-40938260D01*
X45210528Y-41090528D01*
X45058260Y-41215491D01*
X45058258Y-41215492D01*
X44884535Y-41308349D01*
X44696034Y-41365530D01*
X44696033Y-41365530D01*
X44696030Y-41365531D01*
X44549124Y-41380000D01*
X44450876Y-41380000D01*
X44303970Y-41365531D01*
X44303967Y-41365530D01*
X44303966Y-41365530D01*
X44115465Y-41308349D01*
X43941742Y-41215492D01*
X43941740Y-41215491D01*
X43789472Y-41090528D01*
X43664509Y-40938260D01*
X43571652Y-40764537D01*
X43514469Y-40576030D01*
X43495162Y-40380000D01*
X43514469Y-40183970D01*
X43514470Y-40183966D01*
X43571651Y-39995465D01*
X43664508Y-39821742D01*
X43664509Y-39821740D01*
X43789472Y-39669472D01*
X43941740Y-39544509D01*
X44115463Y-39451652D01*
X44115465Y-39451651D01*
X44303966Y-39394470D01*
X44303967Y-39394470D01*
X44303970Y-39394469D01*
X44450876Y-39380000D01*
X44549124Y-39380000D01*
X44696030Y-39394469D01*
X44696030Y-39394469D01*
G37*
G36*
X61678707Y-38877597D02*
X61755836Y-38885193D01*
X61887787Y-38925220D01*
X61953763Y-38945233D01*
X62136172Y-39042733D01*
X62296054Y-39173946D01*
X62427267Y-39333828D01*
X62524767Y-39516237D01*
X62524767Y-39516238D01*
X62584807Y-39714164D01*
X62605080Y-39920000D01*
X62584807Y-40125836D01*
X62567172Y-40183970D01*
X62524767Y-40323763D01*
X62427267Y-40506172D01*
X62296054Y-40666054D01*
X62136172Y-40797267D01*
X61953763Y-40894767D01*
X61887787Y-40914780D01*
X61755836Y-40954807D01*
X61678707Y-40962403D01*
X61601580Y-40970000D01*
X61498420Y-40970000D01*
X61421293Y-40962403D01*
X61344164Y-40954807D01*
X61212213Y-40914780D01*
X61146237Y-40894767D01*
X60963828Y-40797267D01*
X60803946Y-40666054D01*
X60672733Y-40506172D01*
X60575233Y-40323763D01*
X60532828Y-40183970D01*
X60515193Y-40125836D01*
X60494920Y-39920000D01*
X60515193Y-39714164D01*
X60575233Y-39516238D01*
X60575233Y-39516237D01*
X60672733Y-39333828D01*
X60803946Y-39173946D01*
X60963828Y-39042733D01*
X61146237Y-38945233D01*
X61212213Y-38925220D01*
X61344164Y-38885193D01*
X61421293Y-38877597D01*
X61498420Y-38870000D01*
X61601580Y-38870000D01*
X61678707Y-38877597D01*
X61678707Y-38877597D01*
G37*
G36*
X57004304Y-36345193D02*
X57105836Y-36355193D01*
X57237787Y-36395220D01*
X57303763Y-36415233D01*
X57486172Y-36512733D01*
X57646054Y-36643946D01*
X57777267Y-36803828D01*
X57874767Y-36986237D01*
X57874767Y-36986238D01*
X57934807Y-37184164D01*
X57955080Y-37390000D01*
X57934807Y-37595836D01*
X57894780Y-37727787D01*
X57874767Y-37793763D01*
X57777267Y-37976172D01*
X57646054Y-38136054D01*
X57486172Y-38267267D01*
X57303763Y-38364767D01*
X57237787Y-38384780D01*
X57105836Y-38424807D01*
X57053110Y-38430000D01*
X56951580Y-38440000D01*
X56848420Y-38440000D01*
X56746890Y-38430000D01*
X56694164Y-38424807D01*
X56562213Y-38384780D01*
X56496237Y-38364767D01*
X56313828Y-38267267D01*
X56153946Y-38136054D01*
X56022733Y-37976172D01*
X55925233Y-37793763D01*
X55905220Y-37727787D01*
X55865193Y-37595836D01*
X55844920Y-37390000D01*
X55865193Y-37184164D01*
X55925233Y-36986238D01*
X55925233Y-36986237D01*
X56022733Y-36803828D01*
X56153946Y-36643946D01*
X56313828Y-36512733D01*
X56496237Y-36415233D01*
X56562213Y-36395220D01*
X56694164Y-36355193D01*
X56795696Y-36345193D01*
X56848420Y-36340000D01*
X56951580Y-36340000D01*
X57004304Y-36345193D01*
X57004304Y-36345193D01*
G37*
G36*
X61678707Y-36337597D02*
X61755836Y-36345193D01*
X61887787Y-36385220D01*
X61953763Y-36405233D01*
X62136172Y-36502733D01*
X62296054Y-36633946D01*
X62427267Y-36793828D01*
X62524767Y-36976237D01*
X62544780Y-37042213D01*
X62584807Y-37174164D01*
X62605080Y-37380000D01*
X62584807Y-37585836D01*
X62544780Y-37717787D01*
X62524767Y-37783763D01*
X62427267Y-37966172D01*
X62296054Y-38126054D01*
X62136172Y-38257267D01*
X61953763Y-38354767D01*
X61887787Y-38374780D01*
X61755836Y-38414807D01*
X61678707Y-38422403D01*
X61601580Y-38430000D01*
X61498420Y-38430000D01*
X61421293Y-38422403D01*
X61344164Y-38414807D01*
X61212213Y-38374780D01*
X61146237Y-38354767D01*
X60963828Y-38257267D01*
X60803946Y-38126054D01*
X60672733Y-37966172D01*
X60575233Y-37783763D01*
X60555220Y-37717787D01*
X60515193Y-37585836D01*
X60494920Y-37380000D01*
X60515193Y-37174164D01*
X60555220Y-37042213D01*
X60575233Y-36976237D01*
X60672733Y-36793828D01*
X60803946Y-36633946D01*
X60963828Y-36502733D01*
X61146237Y-36405233D01*
X61212213Y-36385220D01*
X61344164Y-36345193D01*
X61421293Y-36337597D01*
X61498420Y-36330000D01*
X61601580Y-36330000D01*
X61678707Y-36337597D01*
X61678707Y-36337597D01*
G37*
G36*
X24603853Y-33572427D02*
X24896026Y-33661058D01*
X25165301Y-33804988D01*
X25357514Y-33962733D01*
X25401318Y-33998682D01*
X25595013Y-34234700D01*
X25708082Y-34446238D01*
X25738942Y-34503973D01*
X25827573Y-34796146D01*
X25850000Y-35023858D01*
X25850000Y-35776141D01*
X25827573Y-36003848D01*
X25827572Y-36003851D01*
X25827572Y-36003852D01*
X25738941Y-36296029D01*
X25595013Y-36565300D01*
X25401318Y-36801318D01*
X25165300Y-36995013D01*
X24896029Y-37138941D01*
X24896027Y-37138942D01*
X24603854Y-37227573D01*
X24300000Y-37257499D01*
X23996147Y-37227573D01*
X23703974Y-37138942D01*
X23434699Y-36995012D01*
X23198682Y-36801318D01*
X23004988Y-36565301D01*
X22976890Y-36512733D01*
X22861059Y-36296029D01*
X22861058Y-36296027D01*
X22772427Y-36003854D01*
X22750000Y-35776142D01*
X22750000Y-35023859D01*
X22772427Y-34796147D01*
X22861058Y-34503974D01*
X22897264Y-34436238D01*
X23004987Y-34234701D01*
X23004988Y-34234699D01*
X23198682Y-33998682D01*
X23434699Y-33804988D01*
X23434698Y-33804988D01*
X23434700Y-33804987D01*
X23703971Y-33661059D01*
X23703973Y-33661058D01*
X23996146Y-33572427D01*
X24300000Y-33542501D01*
X24603853Y-33572427D01*
X24603853Y-33572427D01*
G37*
G36*
X3603853Y-33572427D02*
X3896026Y-33661058D01*
X4165301Y-33804988D01*
X4357514Y-33962733D01*
X4401318Y-33998682D01*
X4595013Y-34234700D01*
X4708082Y-34446238D01*
X4738942Y-34503973D01*
X4827573Y-34796146D01*
X4850000Y-35023858D01*
X4850000Y-35776141D01*
X4827573Y-36003848D01*
X4827572Y-36003851D01*
X4827572Y-36003852D01*
X4738941Y-36296029D01*
X4595013Y-36565300D01*
X4401318Y-36801318D01*
X4165300Y-36995013D01*
X3896029Y-37138941D01*
X3896027Y-37138942D01*
X3603854Y-37227573D01*
X3300000Y-37257499D01*
X2996147Y-37227573D01*
X2703974Y-37138942D01*
X2434699Y-36995012D01*
X2198682Y-36801318D01*
X2004988Y-36565301D01*
X1976890Y-36512733D01*
X1861059Y-36296029D01*
X1861058Y-36296027D01*
X1772427Y-36003854D01*
X1750000Y-35776142D01*
X1750000Y-35023859D01*
X1772427Y-34796147D01*
X1861058Y-34503974D01*
X1897264Y-34436238D01*
X2004987Y-34234701D01*
X2004988Y-34234699D01*
X2198682Y-33998682D01*
X2434699Y-33804988D01*
X2434698Y-33804988D01*
X2434700Y-33804987D01*
X2703971Y-33661059D01*
X2703973Y-33661058D01*
X2996146Y-33572427D01*
X3300000Y-33542501D01*
X3603853Y-33572427D01*
X3603853Y-33572427D01*
G37*
G36*
X37203853Y-33572427D02*
X37496026Y-33661058D01*
X37765301Y-33804988D01*
X37957514Y-33962733D01*
X38001318Y-33998682D01*
X38195013Y-34234700D01*
X38308082Y-34446238D01*
X38338942Y-34503973D01*
X38427573Y-34796146D01*
X38450000Y-35023858D01*
X38450000Y-35776141D01*
X38427573Y-36003848D01*
X38427572Y-36003851D01*
X38427572Y-36003852D01*
X38338941Y-36296029D01*
X38195013Y-36565300D01*
X38001318Y-36801318D01*
X37765300Y-36995013D01*
X37496029Y-37138941D01*
X37496027Y-37138942D01*
X37203854Y-37227573D01*
X36900000Y-37257499D01*
X36596147Y-37227573D01*
X36303974Y-37138942D01*
X36034699Y-36995012D01*
X35798682Y-36801318D01*
X35604988Y-36565301D01*
X35576890Y-36512733D01*
X35461059Y-36296029D01*
X35461058Y-36296027D01*
X35372427Y-36003854D01*
X35350000Y-35776142D01*
X35350000Y-35023859D01*
X35372427Y-34796147D01*
X35461058Y-34503974D01*
X35497264Y-34436238D01*
X35604987Y-34234701D01*
X35604988Y-34234699D01*
X35798682Y-33998682D01*
X36034699Y-33804988D01*
X36034698Y-33804988D01*
X36034700Y-33804987D01*
X36303971Y-33661059D01*
X36303973Y-33661058D01*
X36596146Y-33572427D01*
X36900000Y-33542501D01*
X37203853Y-33572427D01*
X37203853Y-33572427D01*
G37*
G36*
X33003853Y-33572427D02*
X33296026Y-33661058D01*
X33565301Y-33804988D01*
X33757514Y-33962733D01*
X33801318Y-33998682D01*
X33995013Y-34234700D01*
X34108082Y-34446238D01*
X34138942Y-34503973D01*
X34227573Y-34796146D01*
X34250000Y-35023858D01*
X34250000Y-35776141D01*
X34227573Y-36003848D01*
X34227572Y-36003851D01*
X34227572Y-36003852D01*
X34138941Y-36296029D01*
X33995013Y-36565300D01*
X33801318Y-36801318D01*
X33565300Y-36995013D01*
X33296029Y-37138941D01*
X33296027Y-37138942D01*
X33003854Y-37227573D01*
X32700000Y-37257499D01*
X32396147Y-37227573D01*
X32103974Y-37138942D01*
X31834699Y-36995012D01*
X31598682Y-36801318D01*
X31404988Y-36565301D01*
X31376890Y-36512733D01*
X31261059Y-36296029D01*
X31261058Y-36296027D01*
X31172427Y-36003854D01*
X31150000Y-35776142D01*
X31150000Y-35023859D01*
X31172427Y-34796147D01*
X31261058Y-34503974D01*
X31297264Y-34436238D01*
X31404987Y-34234701D01*
X31404988Y-34234699D01*
X31598682Y-33998682D01*
X31834699Y-33804988D01*
X31834698Y-33804988D01*
X31834700Y-33804987D01*
X32103971Y-33661059D01*
X32103973Y-33661058D01*
X32396146Y-33572427D01*
X32700000Y-33542501D01*
X33003853Y-33572427D01*
X33003853Y-33572427D01*
G37*
G36*
X28803853Y-33572427D02*
X29096026Y-33661058D01*
X29365301Y-33804988D01*
X29557514Y-33962733D01*
X29601318Y-33998682D01*
X29795013Y-34234700D01*
X29908082Y-34446238D01*
X29938942Y-34503973D01*
X30027573Y-34796146D01*
X30050000Y-35023858D01*
X30050000Y-35776141D01*
X30027573Y-36003848D01*
X30027572Y-36003851D01*
X30027572Y-36003852D01*
X29938941Y-36296029D01*
X29795013Y-36565300D01*
X29601318Y-36801318D01*
X29365300Y-36995013D01*
X29096029Y-37138941D01*
X29096027Y-37138942D01*
X28803854Y-37227573D01*
X28500000Y-37257499D01*
X28196147Y-37227573D01*
X27903974Y-37138942D01*
X27634699Y-36995012D01*
X27398682Y-36801318D01*
X27204988Y-36565301D01*
X27176890Y-36512733D01*
X27061059Y-36296029D01*
X27061058Y-36296027D01*
X26972427Y-36003854D01*
X26950000Y-35776142D01*
X26950000Y-35023859D01*
X26972427Y-34796147D01*
X27061058Y-34503974D01*
X27097264Y-34436238D01*
X27204987Y-34234701D01*
X27204988Y-34234699D01*
X27398682Y-33998682D01*
X27634699Y-33804988D01*
X27634698Y-33804988D01*
X27634700Y-33804987D01*
X27903971Y-33661059D01*
X27903973Y-33661058D01*
X28196146Y-33572427D01*
X28500000Y-33542501D01*
X28803853Y-33572427D01*
X28803853Y-33572427D01*
G37*
G36*
X20403853Y-33572427D02*
X20696026Y-33661058D01*
X20965301Y-33804988D01*
X21157514Y-33962733D01*
X21201318Y-33998682D01*
X21395013Y-34234700D01*
X21508082Y-34446238D01*
X21538942Y-34503973D01*
X21627573Y-34796146D01*
X21650000Y-35023858D01*
X21650000Y-35776141D01*
X21627573Y-36003848D01*
X21627572Y-36003851D01*
X21627572Y-36003852D01*
X21538941Y-36296029D01*
X21395013Y-36565300D01*
X21201318Y-36801318D01*
X20965300Y-36995013D01*
X20696029Y-37138941D01*
X20696027Y-37138942D01*
X20403854Y-37227573D01*
X20100000Y-37257499D01*
X19796147Y-37227573D01*
X19503974Y-37138942D01*
X19234699Y-36995012D01*
X18998682Y-36801318D01*
X18804988Y-36565301D01*
X18776890Y-36512733D01*
X18661059Y-36296029D01*
X18661058Y-36296027D01*
X18572427Y-36003854D01*
X18550000Y-35776142D01*
X18550000Y-35023859D01*
X18572427Y-34796147D01*
X18661058Y-34503974D01*
X18697264Y-34436238D01*
X18804987Y-34234701D01*
X18804988Y-34234699D01*
X18998682Y-33998682D01*
X19234699Y-33804988D01*
X19234698Y-33804988D01*
X19234700Y-33804987D01*
X19503971Y-33661059D01*
X19503973Y-33661058D01*
X19796146Y-33572427D01*
X20100000Y-33542501D01*
X20403853Y-33572427D01*
X20403853Y-33572427D01*
G37*
G36*
X16203853Y-33572427D02*
X16496026Y-33661058D01*
X16765301Y-33804988D01*
X16957514Y-33962733D01*
X17001318Y-33998682D01*
X17195013Y-34234700D01*
X17308082Y-34446238D01*
X17338942Y-34503973D01*
X17427573Y-34796146D01*
X17450000Y-35023858D01*
X17450000Y-35776141D01*
X17427573Y-36003848D01*
X17427572Y-36003851D01*
X17427572Y-36003852D01*
X17338941Y-36296029D01*
X17195013Y-36565300D01*
X17001318Y-36801318D01*
X16765300Y-36995013D01*
X16496029Y-37138941D01*
X16496027Y-37138942D01*
X16203854Y-37227573D01*
X15900000Y-37257499D01*
X15596147Y-37227573D01*
X15303974Y-37138942D01*
X15034699Y-36995012D01*
X14798682Y-36801318D01*
X14604988Y-36565301D01*
X14576890Y-36512733D01*
X14461059Y-36296029D01*
X14461058Y-36296027D01*
X14372427Y-36003854D01*
X14350000Y-35776142D01*
X14350000Y-35023859D01*
X14372427Y-34796147D01*
X14461058Y-34503974D01*
X14497264Y-34436238D01*
X14604987Y-34234701D01*
X14604988Y-34234699D01*
X14798682Y-33998682D01*
X15034699Y-33804988D01*
X15034698Y-33804988D01*
X15034700Y-33804987D01*
X15303971Y-33661059D01*
X15303973Y-33661058D01*
X15596146Y-33572427D01*
X15900000Y-33542501D01*
X16203853Y-33572427D01*
X16203853Y-33572427D01*
G37*
G36*
X12003853Y-33572427D02*
X12296026Y-33661058D01*
X12565301Y-33804988D01*
X12757514Y-33962733D01*
X12801318Y-33998682D01*
X12995013Y-34234700D01*
X13108082Y-34446238D01*
X13138942Y-34503973D01*
X13227573Y-34796146D01*
X13250000Y-35023858D01*
X13250000Y-35776141D01*
X13227573Y-36003848D01*
X13227572Y-36003851D01*
X13227572Y-36003852D01*
X13138941Y-36296029D01*
X12995013Y-36565300D01*
X12801318Y-36801318D01*
X12565300Y-36995013D01*
X12296029Y-37138941D01*
X12296027Y-37138942D01*
X12003854Y-37227573D01*
X11700000Y-37257499D01*
X11396147Y-37227573D01*
X11103974Y-37138942D01*
X10834699Y-36995012D01*
X10598682Y-36801318D01*
X10404988Y-36565301D01*
X10376890Y-36512733D01*
X10261059Y-36296029D01*
X10261058Y-36296027D01*
X10172427Y-36003854D01*
X10150000Y-35776142D01*
X10150000Y-35023859D01*
X10172427Y-34796147D01*
X10261058Y-34503974D01*
X10297264Y-34436238D01*
X10404987Y-34234701D01*
X10404988Y-34234699D01*
X10598682Y-33998682D01*
X10834699Y-33804988D01*
X10834698Y-33804988D01*
X10834700Y-33804987D01*
X11103971Y-33661059D01*
X11103973Y-33661058D01*
X11396146Y-33572427D01*
X11700000Y-33542501D01*
X12003853Y-33572427D01*
X12003853Y-33572427D01*
G37*
G36*
X7803853Y-33572427D02*
X8096026Y-33661058D01*
X8365301Y-33804988D01*
X8557514Y-33962733D01*
X8601318Y-33998682D01*
X8795013Y-34234700D01*
X8908082Y-34446238D01*
X8938942Y-34503973D01*
X9027573Y-34796146D01*
X9050000Y-35023858D01*
X9050000Y-35776141D01*
X9027573Y-36003848D01*
X9027572Y-36003851D01*
X9027572Y-36003852D01*
X8938941Y-36296029D01*
X8795013Y-36565300D01*
X8601318Y-36801318D01*
X8365300Y-36995013D01*
X8096029Y-37138941D01*
X8096027Y-37138942D01*
X7803854Y-37227573D01*
X7500000Y-37257499D01*
X7196147Y-37227573D01*
X6903974Y-37138942D01*
X6634699Y-36995012D01*
X6398682Y-36801318D01*
X6204988Y-36565301D01*
X6176890Y-36512733D01*
X6061059Y-36296029D01*
X6061058Y-36296027D01*
X5972427Y-36003854D01*
X5950000Y-35776142D01*
X5950000Y-35023859D01*
X5972427Y-34796147D01*
X6061058Y-34503974D01*
X6097264Y-34436238D01*
X6204987Y-34234701D01*
X6204988Y-34234699D01*
X6398682Y-33998682D01*
X6634699Y-33804988D01*
X6634698Y-33804988D01*
X6634700Y-33804987D01*
X6903971Y-33661059D01*
X6903973Y-33661058D01*
X7196146Y-33572427D01*
X7500000Y-33542501D01*
X7803853Y-33572427D01*
X7803853Y-33572427D01*
G37*
G36*
X49803853Y-33572427D02*
X50096026Y-33661058D01*
X50365301Y-33804988D01*
X50557514Y-33962733D01*
X50601318Y-33998682D01*
X50795013Y-34234700D01*
X50908082Y-34446238D01*
X50938942Y-34503973D01*
X51027573Y-34796146D01*
X51050000Y-35023858D01*
X51050000Y-35776141D01*
X51027573Y-36003848D01*
X51027572Y-36003851D01*
X51027572Y-36003852D01*
X50938941Y-36296029D01*
X50795013Y-36565300D01*
X50601318Y-36801318D01*
X50365300Y-36995013D01*
X50096029Y-37138941D01*
X50096027Y-37138942D01*
X49803854Y-37227573D01*
X49500000Y-37257499D01*
X49196147Y-37227573D01*
X48903974Y-37138942D01*
X48634699Y-36995012D01*
X48398682Y-36801318D01*
X48204988Y-36565301D01*
X48176890Y-36512733D01*
X48061059Y-36296029D01*
X48061058Y-36296027D01*
X47972427Y-36003854D01*
X47950000Y-35776142D01*
X47950000Y-35023859D01*
X47972427Y-34796147D01*
X48061058Y-34503974D01*
X48097264Y-34436238D01*
X48204987Y-34234701D01*
X48204988Y-34234699D01*
X48398682Y-33998682D01*
X48634699Y-33804988D01*
X48634698Y-33804988D01*
X48634700Y-33804987D01*
X48903971Y-33661059D01*
X48903973Y-33661058D01*
X49196146Y-33572427D01*
X49500000Y-33542501D01*
X49803853Y-33572427D01*
X49803853Y-33572427D01*
G37*
G36*
X45603853Y-33572427D02*
X45896026Y-33661058D01*
X46165301Y-33804988D01*
X46357514Y-33962733D01*
X46401318Y-33998682D01*
X46595013Y-34234700D01*
X46708082Y-34446238D01*
X46738942Y-34503973D01*
X46827573Y-34796146D01*
X46850000Y-35023858D01*
X46850000Y-35776141D01*
X46827573Y-36003848D01*
X46827572Y-36003851D01*
X46827572Y-36003852D01*
X46738941Y-36296029D01*
X46595013Y-36565300D01*
X46401318Y-36801318D01*
X46165300Y-36995013D01*
X45896029Y-37138941D01*
X45896027Y-37138942D01*
X45603854Y-37227573D01*
X45300000Y-37257499D01*
X44996147Y-37227573D01*
X44703974Y-37138942D01*
X44434699Y-36995012D01*
X44198682Y-36801318D01*
X44004988Y-36565301D01*
X43976890Y-36512733D01*
X43861059Y-36296029D01*
X43861058Y-36296027D01*
X43772427Y-36003854D01*
X43750000Y-35776142D01*
X43750000Y-35023859D01*
X43772427Y-34796147D01*
X43861058Y-34503974D01*
X43897264Y-34436238D01*
X44004987Y-34234701D01*
X44004988Y-34234699D01*
X44198682Y-33998682D01*
X44434699Y-33804988D01*
X44434698Y-33804988D01*
X44434700Y-33804987D01*
X44703971Y-33661059D01*
X44703973Y-33661058D01*
X44996146Y-33572427D01*
X45300000Y-33542501D01*
X45603853Y-33572427D01*
X45603853Y-33572427D01*
G37*
G36*
X41403853Y-33572427D02*
X41696026Y-33661058D01*
X41965301Y-33804988D01*
X42157514Y-33962733D01*
X42201318Y-33998682D01*
X42395013Y-34234700D01*
X42508082Y-34446238D01*
X42538942Y-34503973D01*
X42627573Y-34796146D01*
X42650000Y-35023858D01*
X42650000Y-35776141D01*
X42627573Y-36003848D01*
X42627572Y-36003851D01*
X42627572Y-36003852D01*
X42538941Y-36296029D01*
X42395013Y-36565300D01*
X42201318Y-36801318D01*
X41965300Y-36995013D01*
X41696029Y-37138941D01*
X41696027Y-37138942D01*
X41403854Y-37227573D01*
X41100000Y-37257499D01*
X40796147Y-37227573D01*
X40503974Y-37138942D01*
X40234699Y-36995012D01*
X39998682Y-36801318D01*
X39804988Y-36565301D01*
X39776890Y-36512733D01*
X39661059Y-36296029D01*
X39661058Y-36296027D01*
X39572427Y-36003854D01*
X39550000Y-35776142D01*
X39550000Y-35023859D01*
X39572427Y-34796147D01*
X39661058Y-34503974D01*
X39697264Y-34436238D01*
X39804987Y-34234701D01*
X39804988Y-34234699D01*
X39998682Y-33998682D01*
X40234699Y-33804988D01*
X40234698Y-33804988D01*
X40234700Y-33804987D01*
X40503971Y-33661059D01*
X40503973Y-33661058D01*
X40796146Y-33572427D01*
X41100000Y-33542501D01*
X41403853Y-33572427D01*
X41403853Y-33572427D01*
G37*
G36*
X57004304Y-33805193D02*
X57105836Y-33815193D01*
X57237787Y-33855220D01*
X57303763Y-33875233D01*
X57486172Y-33972733D01*
X57646054Y-34103946D01*
X57777267Y-34263828D01*
X57874767Y-34446237D01*
X57874767Y-34446238D01*
X57934807Y-34644164D01*
X57955080Y-34850000D01*
X57934807Y-35055836D01*
X57894780Y-35187787D01*
X57874767Y-35253763D01*
X57777267Y-35436172D01*
X57646054Y-35596054D01*
X57486172Y-35727267D01*
X57303763Y-35824767D01*
X57237787Y-35844780D01*
X57105836Y-35884807D01*
X57053110Y-35890000D01*
X56951580Y-35900000D01*
X56848420Y-35900000D01*
X56746890Y-35890000D01*
X56694164Y-35884807D01*
X56562213Y-35844780D01*
X56496237Y-35824767D01*
X56313828Y-35727267D01*
X56153946Y-35596054D01*
X56022733Y-35436172D01*
X55925233Y-35253763D01*
X55905220Y-35187787D01*
X55865193Y-35055836D01*
X55844920Y-34850000D01*
X55865193Y-34644164D01*
X55925233Y-34446238D01*
X55925233Y-34446237D01*
X56022733Y-34263828D01*
X56153946Y-34103946D01*
X56313828Y-33972733D01*
X56496237Y-33875233D01*
X56562213Y-33855220D01*
X56694164Y-33815193D01*
X56795696Y-33805193D01*
X56848420Y-33800000D01*
X56951580Y-33800000D01*
X57004304Y-33805193D01*
X57004304Y-33805193D01*
G37*
G36*
X61678707Y-33797597D02*
X61755836Y-33805193D01*
X61887787Y-33845220D01*
X61953763Y-33865233D01*
X62136172Y-33962733D01*
X62296054Y-34093946D01*
X62427267Y-34253828D01*
X62524767Y-34436237D01*
X62544780Y-34502213D01*
X62584807Y-34634164D01*
X62605080Y-34840000D01*
X62584807Y-35045836D01*
X62544780Y-35177787D01*
X62524767Y-35243763D01*
X62427267Y-35426172D01*
X62296054Y-35586054D01*
X62136172Y-35717267D01*
X61953763Y-35814767D01*
X61887787Y-35834780D01*
X61755836Y-35874807D01*
X61678707Y-35882404D01*
X61601580Y-35890000D01*
X61498420Y-35890000D01*
X61421293Y-35882404D01*
X61344164Y-35874807D01*
X61212213Y-35834780D01*
X61146237Y-35814767D01*
X60963828Y-35717267D01*
X60803946Y-35586054D01*
X60672733Y-35426172D01*
X60575233Y-35243763D01*
X60555220Y-35177787D01*
X60515193Y-35045836D01*
X60494920Y-34840000D01*
X60515193Y-34634164D01*
X60555220Y-34502213D01*
X60575233Y-34436237D01*
X60672733Y-34253828D01*
X60803946Y-34093946D01*
X60963828Y-33962733D01*
X61146237Y-33865233D01*
X61212213Y-33845220D01*
X61344164Y-33805193D01*
X61421293Y-33797597D01*
X61498420Y-33790000D01*
X61601580Y-33790000D01*
X61678707Y-33797597D01*
X61678707Y-33797597D01*
G37*
G36*
X57950000Y-33360000D02*
X55850000Y-33360000D01*
X55850000Y-31260000D01*
X57950000Y-31260000D01*
X57950000Y-33360000D01*
X57950000Y-33360000D01*
G37*
G36*
X62600000Y-33350000D02*
X60500000Y-33350000D01*
X60500000Y-31250000D01*
X62600000Y-31250000D01*
X62600000Y-33350000D01*
X62600000Y-33350000D01*
G37*
G36*
X49803853Y-28072427D02*
X50096026Y-28161058D01*
X50365301Y-28304988D01*
X50601318Y-28498682D01*
X50795013Y-28734700D01*
X50938941Y-29003971D01*
X50938942Y-29003973D01*
X51027573Y-29296146D01*
X51050000Y-29523858D01*
X51050000Y-30276141D01*
X51027573Y-30503848D01*
X51027572Y-30503851D01*
X51027572Y-30503852D01*
X50938941Y-30796029D01*
X50795013Y-31065300D01*
X50601318Y-31301318D01*
X50365300Y-31495013D01*
X50246198Y-31558674D01*
X50096027Y-31638942D01*
X49803854Y-31727573D01*
X49500000Y-31757499D01*
X49196147Y-31727573D01*
X48903974Y-31638942D01*
X48634699Y-31495012D01*
X48398682Y-31301318D01*
X48204988Y-31065301D01*
X48061058Y-30796027D01*
X47972427Y-30503854D01*
X47950000Y-30276142D01*
X47950000Y-29523859D01*
X47972427Y-29296147D01*
X48061058Y-29003974D01*
X48204988Y-28734699D01*
X48398682Y-28498682D01*
X48634699Y-28304988D01*
X48634698Y-28304988D01*
X48634700Y-28304987D01*
X48903971Y-28161059D01*
X48903973Y-28161058D01*
X49196146Y-28072427D01*
X49500000Y-28042501D01*
X49803853Y-28072427D01*
X49803853Y-28072427D01*
G37*
G36*
X45603853Y-28072427D02*
X45896026Y-28161058D01*
X46165301Y-28304988D01*
X46401318Y-28498682D01*
X46595013Y-28734700D01*
X46738941Y-29003971D01*
X46738942Y-29003973D01*
X46827573Y-29296146D01*
X46850000Y-29523858D01*
X46850000Y-30276141D01*
X46827573Y-30503848D01*
X46827572Y-30503851D01*
X46827572Y-30503852D01*
X46738941Y-30796029D01*
X46595013Y-31065300D01*
X46401318Y-31301318D01*
X46165300Y-31495013D01*
X46046198Y-31558674D01*
X45896027Y-31638942D01*
X45603854Y-31727573D01*
X45300000Y-31757499D01*
X44996147Y-31727573D01*
X44703974Y-31638942D01*
X44434699Y-31495012D01*
X44198682Y-31301318D01*
X44004988Y-31065301D01*
X43861058Y-30796027D01*
X43772427Y-30503854D01*
X43750000Y-30276142D01*
X43750000Y-29523859D01*
X43772427Y-29296147D01*
X43861058Y-29003974D01*
X44004988Y-28734699D01*
X44198682Y-28498682D01*
X44434699Y-28304988D01*
X44434698Y-28304988D01*
X44434700Y-28304987D01*
X44703971Y-28161059D01*
X44703973Y-28161058D01*
X44996146Y-28072427D01*
X45300000Y-28042501D01*
X45603853Y-28072427D01*
X45603853Y-28072427D01*
G37*
G36*
X37203853Y-28072427D02*
X37496026Y-28161058D01*
X37765301Y-28304988D01*
X38001318Y-28498682D01*
X38195013Y-28734700D01*
X38338941Y-29003971D01*
X38338942Y-29003973D01*
X38427573Y-29296146D01*
X38450000Y-29523858D01*
X38450000Y-30276141D01*
X38427573Y-30503848D01*
X38427572Y-30503851D01*
X38427572Y-30503852D01*
X38338941Y-30796029D01*
X38195013Y-31065300D01*
X38001318Y-31301318D01*
X37765300Y-31495013D01*
X37646198Y-31558674D01*
X37496027Y-31638942D01*
X37203854Y-31727573D01*
X36900000Y-31757499D01*
X36596147Y-31727573D01*
X36303974Y-31638942D01*
X36034699Y-31495012D01*
X35798682Y-31301318D01*
X35604988Y-31065301D01*
X35461058Y-30796027D01*
X35372427Y-30503854D01*
X35350000Y-30276142D01*
X35350000Y-29523859D01*
X35372427Y-29296147D01*
X35461058Y-29003974D01*
X35604988Y-28734699D01*
X35798682Y-28498682D01*
X36034699Y-28304988D01*
X36034698Y-28304988D01*
X36034700Y-28304987D01*
X36303971Y-28161059D01*
X36303973Y-28161058D01*
X36596146Y-28072427D01*
X36900000Y-28042501D01*
X37203853Y-28072427D01*
X37203853Y-28072427D01*
G37*
G36*
X33003853Y-28072427D02*
X33296026Y-28161058D01*
X33565301Y-28304988D01*
X33801318Y-28498682D01*
X33995013Y-28734700D01*
X34138941Y-29003971D01*
X34138942Y-29003973D01*
X34227573Y-29296146D01*
X34250000Y-29523858D01*
X34250000Y-30276141D01*
X34227573Y-30503848D01*
X34227572Y-30503851D01*
X34227572Y-30503852D01*
X34138941Y-30796029D01*
X33995013Y-31065300D01*
X33801318Y-31301318D01*
X33565300Y-31495013D01*
X33446198Y-31558674D01*
X33296027Y-31638942D01*
X33003854Y-31727573D01*
X32700000Y-31757499D01*
X32396147Y-31727573D01*
X32103974Y-31638942D01*
X31834699Y-31495012D01*
X31598682Y-31301318D01*
X31404988Y-31065301D01*
X31261058Y-30796027D01*
X31172427Y-30503854D01*
X31150000Y-30276142D01*
X31150000Y-29523859D01*
X31172427Y-29296147D01*
X31261058Y-29003974D01*
X31404988Y-28734699D01*
X31598682Y-28498682D01*
X31834699Y-28304988D01*
X31834698Y-28304988D01*
X31834700Y-28304987D01*
X32103971Y-28161059D01*
X32103973Y-28161058D01*
X32396146Y-28072427D01*
X32700000Y-28042501D01*
X33003853Y-28072427D01*
X33003853Y-28072427D01*
G37*
G36*
X28803853Y-28072427D02*
X29096026Y-28161058D01*
X29365301Y-28304988D01*
X29601318Y-28498682D01*
X29795013Y-28734700D01*
X29938941Y-29003971D01*
X29938942Y-29003973D01*
X30027573Y-29296146D01*
X30050000Y-29523858D01*
X30050000Y-30276141D01*
X30027573Y-30503848D01*
X30027572Y-30503851D01*
X30027572Y-30503852D01*
X29938941Y-30796029D01*
X29795013Y-31065300D01*
X29601318Y-31301318D01*
X29365300Y-31495013D01*
X29246198Y-31558674D01*
X29096027Y-31638942D01*
X28803854Y-31727573D01*
X28500000Y-31757499D01*
X28196147Y-31727573D01*
X27903974Y-31638942D01*
X27634699Y-31495012D01*
X27398682Y-31301318D01*
X27204988Y-31065301D01*
X27061058Y-30796027D01*
X26972427Y-30503854D01*
X26950000Y-30276142D01*
X26950000Y-29523859D01*
X26972427Y-29296147D01*
X27061058Y-29003974D01*
X27204988Y-28734699D01*
X27398682Y-28498682D01*
X27634699Y-28304988D01*
X27634698Y-28304988D01*
X27634700Y-28304987D01*
X27903971Y-28161059D01*
X27903973Y-28161058D01*
X28196146Y-28072427D01*
X28500000Y-28042501D01*
X28803853Y-28072427D01*
X28803853Y-28072427D01*
G37*
G36*
X20403853Y-28072427D02*
X20696026Y-28161058D01*
X20965301Y-28304988D01*
X21201318Y-28498682D01*
X21395013Y-28734700D01*
X21538941Y-29003971D01*
X21538942Y-29003973D01*
X21627573Y-29296146D01*
X21650000Y-29523858D01*
X21650000Y-30276141D01*
X21627573Y-30503848D01*
X21627572Y-30503851D01*
X21627572Y-30503852D01*
X21538941Y-30796029D01*
X21395013Y-31065300D01*
X21201318Y-31301318D01*
X20965300Y-31495013D01*
X20846198Y-31558674D01*
X20696027Y-31638942D01*
X20403854Y-31727573D01*
X20100000Y-31757499D01*
X19796147Y-31727573D01*
X19503974Y-31638942D01*
X19234699Y-31495012D01*
X18998682Y-31301318D01*
X18804988Y-31065301D01*
X18661058Y-30796027D01*
X18572427Y-30503854D01*
X18550000Y-30276142D01*
X18550000Y-29523859D01*
X18572427Y-29296147D01*
X18661058Y-29003974D01*
X18804988Y-28734699D01*
X18998682Y-28498682D01*
X19234699Y-28304988D01*
X19234698Y-28304988D01*
X19234700Y-28304987D01*
X19503971Y-28161059D01*
X19503973Y-28161058D01*
X19796146Y-28072427D01*
X20100000Y-28042501D01*
X20403853Y-28072427D01*
X20403853Y-28072427D01*
G37*
G36*
X24603853Y-28072427D02*
X24896026Y-28161058D01*
X25165301Y-28304988D01*
X25401318Y-28498682D01*
X25595013Y-28734700D01*
X25738941Y-29003971D01*
X25738942Y-29003973D01*
X25827573Y-29296146D01*
X25850000Y-29523858D01*
X25850000Y-30276141D01*
X25827573Y-30503848D01*
X25827572Y-30503851D01*
X25827572Y-30503852D01*
X25738941Y-30796029D01*
X25595013Y-31065300D01*
X25401318Y-31301318D01*
X25165300Y-31495013D01*
X25046198Y-31558674D01*
X24896027Y-31638942D01*
X24603854Y-31727573D01*
X24300000Y-31757499D01*
X23996147Y-31727573D01*
X23703974Y-31638942D01*
X23434699Y-31495012D01*
X23198682Y-31301318D01*
X23004988Y-31065301D01*
X22861058Y-30796027D01*
X22772427Y-30503854D01*
X22750000Y-30276142D01*
X22750000Y-29523859D01*
X22772427Y-29296147D01*
X22861058Y-29003974D01*
X23004988Y-28734699D01*
X23198682Y-28498682D01*
X23434699Y-28304988D01*
X23434698Y-28304988D01*
X23434700Y-28304987D01*
X23703971Y-28161059D01*
X23703973Y-28161058D01*
X23996146Y-28072427D01*
X24300000Y-28042501D01*
X24603853Y-28072427D01*
X24603853Y-28072427D01*
G37*
G36*
X41403853Y-28072427D02*
X41696026Y-28161058D01*
X41965301Y-28304988D01*
X42201318Y-28498682D01*
X42395013Y-28734700D01*
X42538941Y-29003971D01*
X42538942Y-29003973D01*
X42627573Y-29296146D01*
X42650000Y-29523858D01*
X42650000Y-30276141D01*
X42627573Y-30503848D01*
X42627572Y-30503851D01*
X42627572Y-30503852D01*
X42538941Y-30796029D01*
X42395013Y-31065300D01*
X42201318Y-31301318D01*
X41965300Y-31495013D01*
X41846198Y-31558674D01*
X41696027Y-31638942D01*
X41403854Y-31727573D01*
X41100000Y-31757499D01*
X40796147Y-31727573D01*
X40503974Y-31638942D01*
X40234699Y-31495012D01*
X39998682Y-31301318D01*
X39804988Y-31065301D01*
X39661058Y-30796027D01*
X39572427Y-30503854D01*
X39550000Y-30276142D01*
X39550000Y-29523859D01*
X39572427Y-29296147D01*
X39661058Y-29003974D01*
X39804988Y-28734699D01*
X39998682Y-28498682D01*
X40234699Y-28304988D01*
X40234698Y-28304988D01*
X40234700Y-28304987D01*
X40503971Y-28161059D01*
X40503973Y-28161058D01*
X40796146Y-28072427D01*
X41100000Y-28042501D01*
X41403853Y-28072427D01*
X41403853Y-28072427D01*
G37*
G36*
X7803853Y-28072427D02*
X8096026Y-28161058D01*
X8365301Y-28304988D01*
X8601318Y-28498682D01*
X8795013Y-28734700D01*
X8938941Y-29003971D01*
X8938942Y-29003973D01*
X9027573Y-29296146D01*
X9050000Y-29523858D01*
X9050000Y-30276141D01*
X9027573Y-30503848D01*
X9027572Y-30503851D01*
X9027572Y-30503852D01*
X8938941Y-30796029D01*
X8795013Y-31065300D01*
X8601318Y-31301318D01*
X8365300Y-31495013D01*
X8246198Y-31558674D01*
X8096027Y-31638942D01*
X7803854Y-31727573D01*
X7500000Y-31757499D01*
X7196147Y-31727573D01*
X6903974Y-31638942D01*
X6634699Y-31495012D01*
X6398682Y-31301318D01*
X6204988Y-31065301D01*
X6061058Y-30796027D01*
X5972427Y-30503854D01*
X5950000Y-30276142D01*
X5950000Y-29523859D01*
X5972427Y-29296147D01*
X6061058Y-29003974D01*
X6204988Y-28734699D01*
X6398682Y-28498682D01*
X6634699Y-28304988D01*
X6634698Y-28304988D01*
X6634700Y-28304987D01*
X6903971Y-28161059D01*
X6903973Y-28161058D01*
X7196146Y-28072427D01*
X7500000Y-28042501D01*
X7803853Y-28072427D01*
X7803853Y-28072427D01*
G37*
G36*
X12003853Y-28072427D02*
X12296026Y-28161058D01*
X12565301Y-28304988D01*
X12801318Y-28498682D01*
X12995013Y-28734700D01*
X13138941Y-29003971D01*
X13138942Y-29003973D01*
X13227573Y-29296146D01*
X13250000Y-29523858D01*
X13250000Y-30276141D01*
X13227573Y-30503848D01*
X13227572Y-30503851D01*
X13227572Y-30503852D01*
X13138941Y-30796029D01*
X12995013Y-31065300D01*
X12801318Y-31301318D01*
X12565300Y-31495013D01*
X12446198Y-31558674D01*
X12296027Y-31638942D01*
X12003854Y-31727573D01*
X11700000Y-31757499D01*
X11396147Y-31727573D01*
X11103974Y-31638942D01*
X10834699Y-31495012D01*
X10598682Y-31301318D01*
X10404988Y-31065301D01*
X10261058Y-30796027D01*
X10172427Y-30503854D01*
X10150000Y-30276142D01*
X10150000Y-29523859D01*
X10172427Y-29296147D01*
X10261058Y-29003974D01*
X10404988Y-28734699D01*
X10598682Y-28498682D01*
X10834699Y-28304988D01*
X10834698Y-28304988D01*
X10834700Y-28304987D01*
X11103971Y-28161059D01*
X11103973Y-28161058D01*
X11396146Y-28072427D01*
X11700000Y-28042501D01*
X12003853Y-28072427D01*
X12003853Y-28072427D01*
G37*
G36*
X16203853Y-28072427D02*
X16496026Y-28161058D01*
X16765301Y-28304988D01*
X17001318Y-28498682D01*
X17195013Y-28734700D01*
X17338941Y-29003971D01*
X17338942Y-29003973D01*
X17427573Y-29296146D01*
X17450000Y-29523858D01*
X17450000Y-30276141D01*
X17427573Y-30503848D01*
X17427572Y-30503851D01*
X17427572Y-30503852D01*
X17338941Y-30796029D01*
X17195013Y-31065300D01*
X17001318Y-31301318D01*
X16765300Y-31495013D01*
X16646198Y-31558674D01*
X16496027Y-31638942D01*
X16203854Y-31727573D01*
X15900000Y-31757499D01*
X15596147Y-31727573D01*
X15303974Y-31638942D01*
X15034699Y-31495012D01*
X14798682Y-31301318D01*
X14604988Y-31065301D01*
X14461058Y-30796027D01*
X14372427Y-30503854D01*
X14350000Y-30276142D01*
X14350000Y-29523859D01*
X14372427Y-29296147D01*
X14461058Y-29003974D01*
X14604988Y-28734699D01*
X14798682Y-28498682D01*
X15034699Y-28304988D01*
X15034698Y-28304988D01*
X15034700Y-28304987D01*
X15303971Y-28161059D01*
X15303973Y-28161058D01*
X15596146Y-28072427D01*
X15900000Y-28042501D01*
X16203853Y-28072427D01*
X16203853Y-28072427D01*
G37*
G36*
X4700823Y-28054151D02*
X4735451Y-28064656D01*
X4767362Y-28081712D01*
X4795333Y-28104667D01*
X4818288Y-28132638D01*
X4835344Y-28164549D01*
X4845849Y-28199177D01*
X4850000Y-28241326D01*
X4850000Y-31558674D01*
X4845849Y-31600823D01*
X4835344Y-31635451D01*
X4818288Y-31667362D01*
X4795333Y-31695333D01*
X4767362Y-31718288D01*
X4735451Y-31735344D01*
X4700823Y-31745849D01*
X4658674Y-31750000D01*
X1941326Y-31750000D01*
X1899177Y-31745849D01*
X1864549Y-31735344D01*
X1832638Y-31718288D01*
X1804667Y-31695333D01*
X1781712Y-31667362D01*
X1764656Y-31635451D01*
X1754151Y-31600823D01*
X1750000Y-31558674D01*
X1750000Y-28241326D01*
X1754151Y-28199177D01*
X1764656Y-28164549D01*
X1781712Y-28132638D01*
X1804667Y-28104667D01*
X1832638Y-28081712D01*
X1864549Y-28064656D01*
X1899177Y-28054151D01*
X1941326Y-28050000D01*
X4658674Y-28050000D01*
X4700823Y-28054151D01*
X4700823Y-28054151D01*
G37*
G36*
X9676393Y-23213553D02*
X9785872Y-23235330D01*
X10095252Y-23363479D01*
X10373687Y-23549523D01*
X10610477Y-23786313D01*
X10796521Y-24064748D01*
X10924670Y-24374128D01*
X10990000Y-24702565D01*
X10990000Y-25037435D01*
X10924670Y-25365872D01*
X10796521Y-25675252D01*
X10610477Y-25953687D01*
X10373687Y-26190477D01*
X10095252Y-26376521D01*
X9785872Y-26504670D01*
X9676393Y-26526447D01*
X9457437Y-26570000D01*
X9122563Y-26570000D01*
X8903607Y-26526447D01*
X8794128Y-26504670D01*
X8484748Y-26376521D01*
X8206313Y-26190477D01*
X7969523Y-25953687D01*
X7783479Y-25675252D01*
X7655330Y-25365872D01*
X7590000Y-25037435D01*
X7590000Y-24702565D01*
X7655330Y-24374128D01*
X7783479Y-24064748D01*
X7969523Y-23786313D01*
X8206313Y-23549523D01*
X8484748Y-23363479D01*
X8794128Y-23235330D01*
X8903607Y-23213553D01*
X9122563Y-23170000D01*
X9457437Y-23170000D01*
X9676393Y-23213553D01*
X9676393Y-23213553D01*
G37*
G36*
X28128707Y-21197596D02*
X28205836Y-21205193D01*
X28337787Y-21245220D01*
X28403763Y-21265233D01*
X28586172Y-21362733D01*
X28746054Y-21493946D01*
X28877267Y-21653828D01*
X28974767Y-21836237D01*
X28974767Y-21836238D01*
X29034807Y-22034164D01*
X29055080Y-22240000D01*
X29034807Y-22445836D01*
X29006876Y-22537911D01*
X28974767Y-22643763D01*
X28877267Y-22826172D01*
X28746054Y-22986054D01*
X28586172Y-23117267D01*
X28403763Y-23214767D01*
X28337787Y-23234780D01*
X28205836Y-23274807D01*
X28128707Y-23282403D01*
X28051580Y-23290000D01*
X27948420Y-23290000D01*
X27871293Y-23282403D01*
X27794164Y-23274807D01*
X27662213Y-23234780D01*
X27596237Y-23214767D01*
X27413828Y-23117267D01*
X27253946Y-22986054D01*
X27122733Y-22826172D01*
X27025233Y-22643763D01*
X26993124Y-22537911D01*
X26965193Y-22445836D01*
X26944920Y-22240000D01*
X26965193Y-22034164D01*
X27025233Y-21836238D01*
X27025233Y-21836237D01*
X27122733Y-21653828D01*
X27253946Y-21493946D01*
X27413828Y-21362733D01*
X27596237Y-21265233D01*
X27662213Y-21245220D01*
X27794164Y-21205193D01*
X27871293Y-21197596D01*
X27948420Y-21190000D01*
X28051580Y-21190000D01*
X28128707Y-21197596D01*
X28128707Y-21197596D01*
G37*
G36*
X12139452Y-20859127D02*
X12277105Y-20886508D01*
X12449994Y-20958121D01*
X12605590Y-21062087D01*
X12737913Y-21194410D01*
X12841879Y-21350006D01*
X12913492Y-21522895D01*
X12950000Y-21706433D01*
X12950000Y-21893567D01*
X12913492Y-22077105D01*
X12841879Y-22249994D01*
X12737913Y-22405590D01*
X12605590Y-22537913D01*
X12449994Y-22641879D01*
X12277105Y-22713492D01*
X12139451Y-22740873D01*
X12093568Y-22750000D01*
X11906432Y-22750000D01*
X11860549Y-22740873D01*
X11722895Y-22713492D01*
X11550006Y-22641879D01*
X11394410Y-22537913D01*
X11262087Y-22405590D01*
X11158121Y-22249994D01*
X11086508Y-22077105D01*
X11050000Y-21893567D01*
X11050000Y-21706433D01*
X11086508Y-21522895D01*
X11158121Y-21350006D01*
X11262087Y-21194410D01*
X11394410Y-21062087D01*
X11550006Y-20958121D01*
X11722895Y-20886508D01*
X11860548Y-20859127D01*
X11906432Y-20850000D01*
X12093568Y-20850000D01*
X12139452Y-20859127D01*
X12139452Y-20859127D01*
G37*
G36*
X45853854Y-17922427D02*
X46146027Y-18011058D01*
X46146029Y-18011059D01*
X46415300Y-18154987D01*
X46651318Y-18348682D01*
X46826457Y-18562089D01*
X46845012Y-18584699D01*
X46988942Y-18853973D01*
X47077573Y-19146146D01*
X47107499Y-19450000D01*
X47077573Y-19753854D01*
X46991404Y-20037911D01*
X46988941Y-20046029D01*
X46845013Y-20315300D01*
X46651318Y-20551318D01*
X46415300Y-20745013D01*
X46217343Y-20850823D01*
X46146027Y-20888942D01*
X45853854Y-20977573D01*
X45626142Y-21000000D01*
X44873858Y-21000000D01*
X44646146Y-20977573D01*
X44353973Y-20888942D01*
X44282657Y-20850823D01*
X44084700Y-20745013D01*
X43848682Y-20551318D01*
X43654987Y-20315300D01*
X43511059Y-20046029D01*
X43508596Y-20037911D01*
X43422427Y-19753854D01*
X43392501Y-19450000D01*
X43422427Y-19146146D01*
X43511058Y-18853973D01*
X43654988Y-18584699D01*
X43673544Y-18562089D01*
X43848682Y-18348682D01*
X44084700Y-18154987D01*
X44353971Y-18011059D01*
X44353973Y-18011058D01*
X44646146Y-17922427D01*
X44873858Y-17900000D01*
X45626142Y-17900000D01*
X45853854Y-17922427D01*
X45853854Y-17922427D01*
G37*
G36*
X41450823Y-17904151D02*
X41485451Y-17914656D01*
X41517362Y-17931712D01*
X41545333Y-17954667D01*
X41568288Y-17982638D01*
X41585344Y-18014549D01*
X41595849Y-18049177D01*
X41600000Y-18091326D01*
X41600000Y-20808674D01*
X41595849Y-20850823D01*
X41585344Y-20885451D01*
X41568288Y-20917362D01*
X41545333Y-20945333D01*
X41517362Y-20968288D01*
X41485451Y-20985344D01*
X41450823Y-20995849D01*
X41408674Y-21000000D01*
X38091326Y-21000000D01*
X38049177Y-20995849D01*
X38014549Y-20985344D01*
X37982638Y-20968288D01*
X37954667Y-20945333D01*
X37931712Y-20917362D01*
X37914656Y-20885451D01*
X37904151Y-20850823D01*
X37900000Y-20808674D01*
X37900000Y-18091326D01*
X37904151Y-18049177D01*
X37914656Y-18014549D01*
X37931712Y-17982638D01*
X37954667Y-17954667D01*
X37982638Y-17931712D01*
X38014549Y-17914656D01*
X38049177Y-17904151D01*
X38091326Y-17900000D01*
X41408674Y-17900000D01*
X41450823Y-17904151D01*
X41450823Y-17904151D01*
G37*
G36*
X28128707Y-18657596D02*
X28205836Y-18665193D01*
X28337787Y-18705220D01*
X28403763Y-18725233D01*
X28586172Y-18822733D01*
X28746054Y-18953946D01*
X28877267Y-19113828D01*
X28974767Y-19296237D01*
X28974767Y-19296238D01*
X29034807Y-19494164D01*
X29055080Y-19700000D01*
X29034807Y-19905836D01*
X28994780Y-20037787D01*
X28974767Y-20103763D01*
X28877267Y-20286172D01*
X28746054Y-20446054D01*
X28586172Y-20577267D01*
X28403763Y-20674767D01*
X28337787Y-20694780D01*
X28205836Y-20734807D01*
X28128707Y-20742403D01*
X28051580Y-20750000D01*
X27948420Y-20750000D01*
X27871293Y-20742403D01*
X27794164Y-20734807D01*
X27662213Y-20694780D01*
X27596237Y-20674767D01*
X27413828Y-20577267D01*
X27253946Y-20446054D01*
X27122733Y-20286172D01*
X27025233Y-20103763D01*
X27005220Y-20037787D01*
X26965193Y-19905836D01*
X26944920Y-19700000D01*
X26965193Y-19494164D01*
X27025233Y-19296238D01*
X27025233Y-19296237D01*
X27122733Y-19113828D01*
X27253946Y-18953946D01*
X27413828Y-18822733D01*
X27596237Y-18725233D01*
X27662213Y-18705220D01*
X27794164Y-18665193D01*
X27871293Y-18657596D01*
X27948420Y-18650000D01*
X28051580Y-18650000D01*
X28128707Y-18657596D01*
X28128707Y-18657596D01*
G37*
G36*
X59863866Y-17994556D02*
X59902449Y-18006260D01*
X59938002Y-18025263D01*
X59969163Y-18050837D01*
X59994737Y-18081998D01*
X60013740Y-18117551D01*
X60025444Y-18156134D01*
X60030000Y-18202390D01*
X60030000Y-20177610D01*
X60025444Y-20223866D01*
X60013740Y-20262449D01*
X59994737Y-20298002D01*
X59969163Y-20329163D01*
X59938002Y-20354737D01*
X59902449Y-20373740D01*
X59863866Y-20385444D01*
X59817610Y-20390000D01*
X56242390Y-20390000D01*
X56196134Y-20385444D01*
X56157551Y-20373740D01*
X56121998Y-20354737D01*
X56090837Y-20329163D01*
X56065263Y-20298002D01*
X56046260Y-20262449D01*
X56034556Y-20223866D01*
X56030000Y-20177610D01*
X56030000Y-18202390D01*
X56034556Y-18156134D01*
X56046260Y-18117551D01*
X56065263Y-18081998D01*
X56090837Y-18050837D01*
X56121998Y-18025263D01*
X56157551Y-18006260D01*
X56196134Y-17994556D01*
X56242390Y-17990000D01*
X59817610Y-17990000D01*
X59863866Y-17994556D01*
X59863866Y-17994556D01*
G37*
G36*
X19409122Y-16746115D02*
X19525041Y-16769173D01*
X19852620Y-16904861D01*
X20143511Y-17099228D01*
X20147436Y-17101851D01*
X20398149Y-17352564D01*
X20398151Y-17352567D01*
X20595139Y-17647380D01*
X20730827Y-17974959D01*
X20743349Y-18037911D01*
X20800000Y-18322714D01*
X20800000Y-18677286D01*
X20753885Y-18909122D01*
X20730827Y-19025041D01*
X20595139Y-19352620D01*
X20500562Y-19494164D01*
X20398149Y-19647436D01*
X20147436Y-19898149D01*
X20147433Y-19898151D01*
X19852620Y-20095139D01*
X19852619Y-20095140D01*
X19852618Y-20095140D01*
X19831800Y-20103763D01*
X19525041Y-20230827D01*
X19409122Y-20253885D01*
X19177286Y-20300000D01*
X18822714Y-20300000D01*
X18590878Y-20253885D01*
X18474959Y-20230827D01*
X18168200Y-20103763D01*
X18147382Y-20095140D01*
X18147381Y-20095140D01*
X18147380Y-20095139D01*
X17852567Y-19898151D01*
X17852564Y-19898149D01*
X17601851Y-19647436D01*
X17499438Y-19494164D01*
X17404861Y-19352620D01*
X17269173Y-19025041D01*
X17246115Y-18909122D01*
X17200000Y-18677286D01*
X17200000Y-18322714D01*
X17256651Y-18037911D01*
X17269173Y-17974959D01*
X17404861Y-17647380D01*
X17601849Y-17352567D01*
X17601851Y-17352564D01*
X17852564Y-17101851D01*
X17856489Y-17099228D01*
X18147380Y-16904861D01*
X18474959Y-16769173D01*
X18590878Y-16746115D01*
X18822714Y-16700000D01*
X19177286Y-16700000D01*
X19409122Y-16746115D01*
X19409122Y-16746115D01*
G37*
G36*
X12139451Y-16359127D02*
X12277105Y-16386508D01*
X12449994Y-16458121D01*
X12605590Y-16562087D01*
X12737913Y-16694410D01*
X12841879Y-16850006D01*
X12913492Y-17022895D01*
X12950000Y-17206433D01*
X12950000Y-17393567D01*
X12913492Y-17577105D01*
X12841879Y-17749994D01*
X12737913Y-17905590D01*
X12605590Y-18037913D01*
X12449994Y-18141879D01*
X12347054Y-18184518D01*
X12325449Y-18196067D01*
X12306507Y-18211612D01*
X12290962Y-18230554D01*
X12279411Y-18252165D01*
X12272298Y-18275614D01*
X12269896Y-18300000D01*
X12272298Y-18324387D01*
X12279411Y-18347836D01*
X12290963Y-18369447D01*
X12306508Y-18388389D01*
X12325450Y-18403934D01*
X12347054Y-18415482D01*
X12449994Y-18458121D01*
X12605590Y-18562087D01*
X12737913Y-18694410D01*
X12841879Y-18850006D01*
X12913492Y-19022895D01*
X12950000Y-19206433D01*
X12950000Y-19393567D01*
X12913492Y-19577105D01*
X12841879Y-19749994D01*
X12737913Y-19905590D01*
X12605590Y-20037913D01*
X12449994Y-20141879D01*
X12277105Y-20213492D01*
X12139451Y-20240873D01*
X12093568Y-20250000D01*
X11906432Y-20250000D01*
X11860549Y-20240873D01*
X11722895Y-20213492D01*
X11550006Y-20141879D01*
X11394410Y-20037913D01*
X11262087Y-19905590D01*
X11158121Y-19749994D01*
X11086508Y-19577105D01*
X11050000Y-19393567D01*
X11050000Y-19206433D01*
X11086508Y-19022895D01*
X11158121Y-18850006D01*
X11262087Y-18694410D01*
X11394410Y-18562087D01*
X11550006Y-18458121D01*
X11652946Y-18415482D01*
X11674551Y-18403933D01*
X11693493Y-18388388D01*
X11709038Y-18369446D01*
X11720589Y-18347835D01*
X11727702Y-18324386D01*
X11730104Y-18300000D01*
X11727702Y-18275613D01*
X11720589Y-18252164D01*
X11709037Y-18230553D01*
X11693492Y-18211611D01*
X11674550Y-18196066D01*
X11652946Y-18184518D01*
X11550006Y-18141879D01*
X11394410Y-18037913D01*
X11262087Y-17905590D01*
X11158121Y-17749994D01*
X11086508Y-17577105D01*
X11050000Y-17393567D01*
X11050000Y-17206433D01*
X11086508Y-17022895D01*
X11158121Y-16850006D01*
X11262087Y-16694410D01*
X11394410Y-16562087D01*
X11550006Y-16458121D01*
X11722895Y-16386508D01*
X11860549Y-16359127D01*
X11906432Y-16350000D01*
X12093568Y-16350000D01*
X12139451Y-16359127D01*
X12139451Y-16359127D01*
G37*
G36*
X29050000Y-18210000D02*
X26950000Y-18210000D01*
X26950000Y-16110000D01*
X29050000Y-16110000D01*
X29050000Y-18210000D01*
X29050000Y-18210000D01*
G37*
G36*
X45853854Y-13722427D02*
X46146027Y-13811058D01*
X46146029Y-13811059D01*
X46415300Y-13954987D01*
X46651318Y-14148682D01*
X46845013Y-14384700D01*
X46987589Y-14651442D01*
X46988942Y-14653973D01*
X47077573Y-14946146D01*
X47107499Y-15250000D01*
X47077573Y-15553854D01*
X46988942Y-15846027D01*
X46988941Y-15846029D01*
X46845013Y-16115300D01*
X46651318Y-16351318D01*
X46415300Y-16545013D01*
X46146029Y-16688941D01*
X46146027Y-16688942D01*
X45853854Y-16777573D01*
X45626142Y-16800000D01*
X44873858Y-16800000D01*
X44646146Y-16777573D01*
X44353973Y-16688942D01*
X44353971Y-16688941D01*
X44084700Y-16545013D01*
X43848682Y-16351318D01*
X43654987Y-16115300D01*
X43511059Y-15846029D01*
X43511058Y-15846027D01*
X43422427Y-15553854D01*
X43392501Y-15250000D01*
X43422427Y-14946146D01*
X43511058Y-14653973D01*
X43512411Y-14651442D01*
X43654987Y-14384700D01*
X43848682Y-14148682D01*
X44084700Y-13954987D01*
X44353971Y-13811059D01*
X44353973Y-13811058D01*
X44646146Y-13722427D01*
X44873858Y-13700000D01*
X45626142Y-13700000D01*
X45853854Y-13722427D01*
X45853854Y-13722427D01*
G37*
G36*
X40353854Y-13722427D02*
X40646027Y-13811058D01*
X40646029Y-13811059D01*
X40915300Y-13954987D01*
X41151318Y-14148682D01*
X41345013Y-14384700D01*
X41487589Y-14651442D01*
X41488942Y-14653973D01*
X41577573Y-14946146D01*
X41607499Y-15250000D01*
X41577573Y-15553854D01*
X41488942Y-15846027D01*
X41488941Y-15846029D01*
X41345013Y-16115300D01*
X41151318Y-16351318D01*
X40915300Y-16545013D01*
X40646029Y-16688941D01*
X40646027Y-16688942D01*
X40353854Y-16777573D01*
X40126142Y-16800000D01*
X39373858Y-16800000D01*
X39146146Y-16777573D01*
X38853973Y-16688942D01*
X38853971Y-16688941D01*
X38584700Y-16545013D01*
X38348682Y-16351318D01*
X38154987Y-16115300D01*
X38011059Y-15846029D01*
X38011058Y-15846027D01*
X37922427Y-15553854D01*
X37892501Y-15250000D01*
X37922427Y-14946146D01*
X38011058Y-14653973D01*
X38012411Y-14651442D01*
X38154987Y-14384700D01*
X38348682Y-14148682D01*
X38584700Y-13954987D01*
X38853971Y-13811059D01*
X38853973Y-13811058D01*
X39146146Y-13722427D01*
X39373858Y-13700000D01*
X40126142Y-13700000D01*
X40353854Y-13722427D01*
X40353854Y-13722427D01*
G37*
G36*
X12950000Y-15750000D02*
X11050000Y-15750000D01*
X11050000Y-13850000D01*
X12950000Y-13850000D01*
X12950000Y-15750000D01*
X12950000Y-15750000D01*
G37*
G36*
X58924208Y-12993473D02*
X59065241Y-13007363D01*
X59291442Y-13075981D01*
X59291444Y-13075982D01*
X59291447Y-13075983D01*
X59499910Y-13187408D01*
X59682634Y-13337366D01*
X59832592Y-13520090D01*
X59944017Y-13728553D01*
X59944018Y-13728556D01*
X59944019Y-13728558D01*
X60012637Y-13954759D01*
X60035806Y-14190000D01*
X60012637Y-14425241D01*
X59944019Y-14651442D01*
X59944017Y-14651447D01*
X59832592Y-14859910D01*
X59682634Y-15042634D01*
X59499910Y-15192592D01*
X59291447Y-15304017D01*
X59291444Y-15304018D01*
X59291442Y-15304019D01*
X59065241Y-15372637D01*
X58924208Y-15386527D01*
X58888951Y-15390000D01*
X57171049Y-15390000D01*
X57135792Y-15386527D01*
X56994759Y-15372637D01*
X56768558Y-15304019D01*
X56768556Y-15304018D01*
X56768553Y-15304017D01*
X56560090Y-15192592D01*
X56377366Y-15042634D01*
X56227408Y-14859910D01*
X56115983Y-14651447D01*
X56115981Y-14651442D01*
X56047363Y-14425241D01*
X56024194Y-14190000D01*
X56047363Y-13954759D01*
X56115981Y-13728558D01*
X56115982Y-13728556D01*
X56115983Y-13728553D01*
X56227408Y-13520090D01*
X56377366Y-13337366D01*
X56560090Y-13187408D01*
X56768553Y-13075983D01*
X56768556Y-13075982D01*
X56768558Y-13075981D01*
X56994759Y-13007363D01*
X57135792Y-12993473D01*
X57171049Y-12990000D01*
X58888951Y-12990000D01*
X58924208Y-12993473D01*
X58924208Y-12993473D01*
G37*
G36*
X9676393Y-10073553D02*
X9785872Y-10095330D01*
X10095252Y-10223479D01*
X10373687Y-10409523D01*
X10610477Y-10646313D01*
X10796521Y-10924748D01*
X10924670Y-11234128D01*
X10990000Y-11562565D01*
X10990000Y-11897435D01*
X10924670Y-12225872D01*
X10796521Y-12535252D01*
X10610477Y-12813687D01*
X10373687Y-13050477D01*
X10095252Y-13236521D01*
X9785872Y-13364670D01*
X9676393Y-13386447D01*
X9457437Y-13430000D01*
X9122563Y-13430000D01*
X8903607Y-13386447D01*
X8794128Y-13364670D01*
X8484748Y-13236521D01*
X8206313Y-13050477D01*
X7969523Y-12813687D01*
X7783479Y-12535252D01*
X7655330Y-12225872D01*
X7590000Y-11897435D01*
X7590000Y-11562565D01*
X7655330Y-11234128D01*
X7783479Y-10924748D01*
X7969523Y-10646313D01*
X8206313Y-10409523D01*
X8484748Y-10223479D01*
X8794128Y-10095330D01*
X8903607Y-10073553D01*
X9122563Y-10030000D01*
X9457437Y-10030000D01*
X9676393Y-10073553D01*
X9676393Y-10073553D01*
G37*
G36*
X32335241Y-4817363D02*
X32561442Y-4885981D01*
X32561444Y-4885982D01*
X32561447Y-4885983D01*
X32769910Y-4997408D01*
X32952634Y-5147366D01*
X33102592Y-5330090D01*
X33214017Y-5538553D01*
X33214018Y-5538556D01*
X33214019Y-5538558D01*
X33282637Y-5764759D01*
X33300000Y-5941050D01*
X33300000Y-7658950D01*
X33282637Y-7835241D01*
X33214019Y-8061441D01*
X33214017Y-8061447D01*
X33102592Y-8269910D01*
X32952637Y-8452631D01*
X32952635Y-8452632D01*
X32952634Y-8452634D01*
X32769909Y-8602591D01*
X32769905Y-8602594D01*
X32561446Y-8714017D01*
X32561443Y-8714018D01*
X32561441Y-8714019D01*
X32335240Y-8782637D01*
X32100000Y-8805806D01*
X31864759Y-8782637D01*
X31638558Y-8714019D01*
X31638556Y-8714018D01*
X31638553Y-8714017D01*
X31430090Y-8602592D01*
X31247369Y-8452637D01*
X31247368Y-8452635D01*
X31247366Y-8452634D01*
X31097409Y-8269909D01*
X31097408Y-8269908D01*
X31097406Y-8269905D01*
X30985983Y-8061446D01*
X30985981Y-8061441D01*
X30917363Y-7835240D01*
X30900000Y-7658949D01*
X30900000Y-5941050D01*
X30917363Y-5764759D01*
X30917363Y-5764758D01*
X30985981Y-5538558D01*
X31097409Y-5330090D01*
X31247367Y-5147366D01*
X31430091Y-4997408D01*
X31638554Y-4885983D01*
X31638557Y-4885982D01*
X31638559Y-4885981D01*
X31864760Y-4817363D01*
X32100000Y-4794194D01*
X32335241Y-4817363D01*
X32335241Y-4817363D01*
G37*
G36*
X6335241Y-4817363D02*
X6561442Y-4885981D01*
X6561444Y-4885982D01*
X6561447Y-4885983D01*
X6769910Y-4997408D01*
X6952634Y-5147366D01*
X7102592Y-5330090D01*
X7214017Y-5538553D01*
X7214018Y-5538556D01*
X7214019Y-5538558D01*
X7282637Y-5764759D01*
X7300000Y-5941050D01*
X7300000Y-7658950D01*
X7282637Y-7835241D01*
X7214019Y-8061441D01*
X7214017Y-8061447D01*
X7102592Y-8269910D01*
X6952637Y-8452631D01*
X6952635Y-8452632D01*
X6952634Y-8452634D01*
X6769909Y-8602591D01*
X6769905Y-8602594D01*
X6561446Y-8714017D01*
X6561443Y-8714018D01*
X6561441Y-8714019D01*
X6335240Y-8782637D01*
X6100000Y-8805806D01*
X5864759Y-8782637D01*
X5638558Y-8714019D01*
X5638556Y-8714018D01*
X5638553Y-8714017D01*
X5430090Y-8602592D01*
X5247369Y-8452637D01*
X5247368Y-8452635D01*
X5247366Y-8452634D01*
X5097409Y-8269909D01*
X5097408Y-8269908D01*
X5097406Y-8269905D01*
X4985983Y-8061446D01*
X4985981Y-8061441D01*
X4917363Y-7835240D01*
X4900000Y-7658949D01*
X4900000Y-5941050D01*
X4917363Y-5764759D01*
X4917363Y-5764758D01*
X4985981Y-5538558D01*
X5097409Y-5330090D01*
X5247367Y-5147366D01*
X5430091Y-4997408D01*
X5638554Y-4885983D01*
X5638557Y-4885982D01*
X5638559Y-4885981D01*
X5864760Y-4817363D01*
X6100000Y-4794194D01*
X6335241Y-4817363D01*
X6335241Y-4817363D01*
G37*
G36*
X45335241Y-4817363D02*
X45561442Y-4885981D01*
X45561444Y-4885982D01*
X45561447Y-4885983D01*
X45769910Y-4997408D01*
X45952634Y-5147366D01*
X46102592Y-5330090D01*
X46214017Y-5538553D01*
X46214018Y-5538556D01*
X46214019Y-5538558D01*
X46282637Y-5764759D01*
X46300000Y-5941050D01*
X46300000Y-7658950D01*
X46282637Y-7835241D01*
X46214019Y-8061441D01*
X46214017Y-8061447D01*
X46102592Y-8269910D01*
X45952637Y-8452631D01*
X45952635Y-8452632D01*
X45952634Y-8452634D01*
X45769909Y-8602591D01*
X45769905Y-8602594D01*
X45561446Y-8714017D01*
X45561443Y-8714018D01*
X45561441Y-8714019D01*
X45335240Y-8782637D01*
X45100000Y-8805806D01*
X44864759Y-8782637D01*
X44638558Y-8714019D01*
X44638556Y-8714018D01*
X44638553Y-8714017D01*
X44430090Y-8602592D01*
X44247369Y-8452637D01*
X44247368Y-8452635D01*
X44247366Y-8452634D01*
X44097409Y-8269909D01*
X44097408Y-8269908D01*
X44097406Y-8269905D01*
X43985983Y-8061446D01*
X43985981Y-8061441D01*
X43917363Y-7835240D01*
X43900000Y-7658949D01*
X43900000Y-5941050D01*
X43917363Y-5764759D01*
X43917363Y-5764758D01*
X43985981Y-5538558D01*
X44097409Y-5330090D01*
X44247367Y-5147366D01*
X44430091Y-4997408D01*
X44638554Y-4885983D01*
X44638557Y-4885982D01*
X44638559Y-4885981D01*
X44864760Y-4817363D01*
X45100000Y-4794194D01*
X45335241Y-4817363D01*
X45335241Y-4817363D01*
G37*
G36*
X58335241Y-4817363D02*
X58561442Y-4885981D01*
X58561444Y-4885982D01*
X58561447Y-4885983D01*
X58769910Y-4997408D01*
X58952634Y-5147366D01*
X59102592Y-5330090D01*
X59214017Y-5538553D01*
X59214018Y-5538556D01*
X59214019Y-5538558D01*
X59282637Y-5764759D01*
X59300000Y-5941050D01*
X59300000Y-7658950D01*
X59282637Y-7835241D01*
X59214019Y-8061441D01*
X59214017Y-8061447D01*
X59102592Y-8269910D01*
X58952637Y-8452631D01*
X58952635Y-8452632D01*
X58952634Y-8452634D01*
X58769909Y-8602591D01*
X58769905Y-8602594D01*
X58561446Y-8714017D01*
X58561443Y-8714018D01*
X58561441Y-8714019D01*
X58335240Y-8782637D01*
X58100000Y-8805806D01*
X57864759Y-8782637D01*
X57638558Y-8714019D01*
X57638556Y-8714018D01*
X57638553Y-8714017D01*
X57430090Y-8602592D01*
X57247369Y-8452637D01*
X57247368Y-8452635D01*
X57247366Y-8452634D01*
X57097409Y-8269909D01*
X57097408Y-8269908D01*
X57097406Y-8269905D01*
X56985983Y-8061446D01*
X56985981Y-8061441D01*
X56917363Y-7835240D01*
X56900000Y-7658949D01*
X56900000Y-5941050D01*
X56917363Y-5764759D01*
X56917363Y-5764758D01*
X56985981Y-5538558D01*
X57097409Y-5330090D01*
X57247367Y-5147366D01*
X57430091Y-4997408D01*
X57638554Y-4885983D01*
X57638557Y-4885982D01*
X57638559Y-4885981D01*
X57864760Y-4817363D01*
X58100000Y-4794194D01*
X58335241Y-4817363D01*
X58335241Y-4817363D01*
G37*
G36*
X19335241Y-4817363D02*
X19561442Y-4885981D01*
X19561444Y-4885982D01*
X19561447Y-4885983D01*
X19769910Y-4997408D01*
X19952634Y-5147366D01*
X20102592Y-5330090D01*
X20214017Y-5538553D01*
X20214018Y-5538556D01*
X20214019Y-5538558D01*
X20282637Y-5764759D01*
X20300000Y-5941050D01*
X20300000Y-7658950D01*
X20282637Y-7835241D01*
X20214019Y-8061441D01*
X20214017Y-8061447D01*
X20102592Y-8269910D01*
X19952637Y-8452631D01*
X19952635Y-8452632D01*
X19952634Y-8452634D01*
X19769909Y-8602591D01*
X19769905Y-8602594D01*
X19561446Y-8714017D01*
X19561443Y-8714018D01*
X19561441Y-8714019D01*
X19335240Y-8782637D01*
X19100000Y-8805806D01*
X18864759Y-8782637D01*
X18638558Y-8714019D01*
X18638556Y-8714018D01*
X18638553Y-8714017D01*
X18430090Y-8602592D01*
X18247369Y-8452637D01*
X18247368Y-8452635D01*
X18247366Y-8452634D01*
X18097409Y-8269909D01*
X18097408Y-8269908D01*
X18097406Y-8269905D01*
X17985983Y-8061446D01*
X17985981Y-8061441D01*
X17917363Y-7835240D01*
X17900000Y-7658949D01*
X17900000Y-5941050D01*
X17917363Y-5764759D01*
X17917363Y-5764758D01*
X17985981Y-5538558D01*
X18097409Y-5330090D01*
X18247367Y-5147366D01*
X18430091Y-4997408D01*
X18638554Y-4885983D01*
X18638557Y-4885982D01*
X18638559Y-4885981D01*
X18864760Y-4817363D01*
X19100000Y-4794194D01*
X19335241Y-4817363D01*
X19335241Y-4817363D01*
G37*
G36*
X25133866Y-4804556D02*
X25172449Y-4816260D01*
X25208002Y-4835263D01*
X25239163Y-4860837D01*
X25264737Y-4891998D01*
X25283740Y-4927551D01*
X25295444Y-4966134D01*
X25300000Y-5012390D01*
X25300000Y-8587610D01*
X25295444Y-8633866D01*
X25283740Y-8672449D01*
X25264737Y-8708002D01*
X25239163Y-8739163D01*
X25208002Y-8764737D01*
X25172449Y-8783740D01*
X25133866Y-8795444D01*
X25087610Y-8800000D01*
X23112390Y-8800000D01*
X23066134Y-8795444D01*
X23027551Y-8783740D01*
X22991998Y-8764737D01*
X22960837Y-8739163D01*
X22935263Y-8708002D01*
X22916260Y-8672449D01*
X22904556Y-8633866D01*
X22900000Y-8587610D01*
X22900000Y-5012390D01*
X22904556Y-4966134D01*
X22916260Y-4927551D01*
X22935263Y-4891998D01*
X22960837Y-4860837D01*
X22991998Y-4835263D01*
X23027551Y-4816260D01*
X23066134Y-4804556D01*
X23112390Y-4800000D01*
X25087610Y-4800000D01*
X25133866Y-4804556D01*
X25133866Y-4804556D01*
G37*
G36*
X51133866Y-4804556D02*
X51172449Y-4816260D01*
X51208002Y-4835263D01*
X51239163Y-4860837D01*
X51264737Y-4891998D01*
X51283740Y-4927551D01*
X51295444Y-4966134D01*
X51300000Y-5012390D01*
X51300000Y-8587610D01*
X51295444Y-8633866D01*
X51283740Y-8672449D01*
X51264737Y-8708002D01*
X51239163Y-8739163D01*
X51208002Y-8764737D01*
X51172449Y-8783740D01*
X51133866Y-8795444D01*
X51087610Y-8800000D01*
X49112390Y-8800000D01*
X49066134Y-8795444D01*
X49027551Y-8783740D01*
X48991998Y-8764737D01*
X48960837Y-8739163D01*
X48935263Y-8708002D01*
X48916260Y-8672449D01*
X48904556Y-8633866D01*
X48900000Y-8587610D01*
X48900000Y-5012390D01*
X48904556Y-4966134D01*
X48916260Y-4927551D01*
X48935263Y-4891998D01*
X48960837Y-4860837D01*
X48991998Y-4835263D01*
X49027551Y-4816260D01*
X49066134Y-4804556D01*
X49112390Y-4800000D01*
X51087610Y-4800000D01*
X51133866Y-4804556D01*
X51133866Y-4804556D01*
G37*
G36*
X64133866Y-4804556D02*
X64172449Y-4816260D01*
X64208002Y-4835263D01*
X64239163Y-4860837D01*
X64264737Y-4891998D01*
X64283740Y-4927551D01*
X64295444Y-4966134D01*
X64300000Y-5012390D01*
X64300000Y-8587610D01*
X64295444Y-8633866D01*
X64283740Y-8672449D01*
X64264737Y-8708002D01*
X64239163Y-8739163D01*
X64208002Y-8764737D01*
X64172449Y-8783740D01*
X64133866Y-8795444D01*
X64087610Y-8800000D01*
X62112390Y-8800000D01*
X62066134Y-8795444D01*
X62027551Y-8783740D01*
X61991998Y-8764737D01*
X61960837Y-8739163D01*
X61935263Y-8708002D01*
X61916260Y-8672449D01*
X61904556Y-8633866D01*
X61900000Y-8587610D01*
X61900000Y-5012390D01*
X61904556Y-4966134D01*
X61916260Y-4927551D01*
X61935263Y-4891998D01*
X61960837Y-4860837D01*
X61991998Y-4835263D01*
X62027551Y-4816260D01*
X62066134Y-4804556D01*
X62112390Y-4800000D01*
X64087610Y-4800000D01*
X64133866Y-4804556D01*
X64133866Y-4804556D01*
G37*
G36*
X38133866Y-4804556D02*
X38172449Y-4816260D01*
X38208002Y-4835263D01*
X38239163Y-4860837D01*
X38264737Y-4891998D01*
X38283740Y-4927551D01*
X38295444Y-4966134D01*
X38300000Y-5012390D01*
X38300000Y-8587610D01*
X38295444Y-8633866D01*
X38283740Y-8672449D01*
X38264737Y-8708002D01*
X38239163Y-8739163D01*
X38208002Y-8764737D01*
X38172449Y-8783740D01*
X38133866Y-8795444D01*
X38087610Y-8800000D01*
X36112390Y-8800000D01*
X36066134Y-8795444D01*
X36027551Y-8783740D01*
X35991998Y-8764737D01*
X35960837Y-8739163D01*
X35935263Y-8708002D01*
X35916260Y-8672449D01*
X35904556Y-8633866D01*
X35900000Y-8587610D01*
X35900000Y-5012390D01*
X35904556Y-4966134D01*
X35916260Y-4927551D01*
X35935263Y-4891998D01*
X35960837Y-4860837D01*
X35991998Y-4835263D01*
X36027551Y-4816260D01*
X36066134Y-4804556D01*
X36112390Y-4800000D01*
X38087610Y-4800000D01*
X38133866Y-4804556D01*
X38133866Y-4804556D01*
G37*
G36*
X12133866Y-4804556D02*
X12172449Y-4816260D01*
X12208002Y-4835263D01*
X12239163Y-4860837D01*
X12264737Y-4891998D01*
X12283740Y-4927551D01*
X12295444Y-4966134D01*
X12300000Y-5012390D01*
X12300000Y-8587610D01*
X12295444Y-8633866D01*
X12283740Y-8672449D01*
X12264737Y-8708002D01*
X12239163Y-8739163D01*
X12208002Y-8764737D01*
X12172449Y-8783740D01*
X12133866Y-8795444D01*
X12087610Y-8800000D01*
X10112390Y-8800000D01*
X10066134Y-8795444D01*
X10027551Y-8783740D01*
X9991998Y-8764737D01*
X9960837Y-8739163D01*
X9935263Y-8708002D01*
X9916260Y-8672449D01*
X9904556Y-8633866D01*
X9900000Y-8587610D01*
X9900000Y-5012390D01*
X9904556Y-4966134D01*
X9916260Y-4927551D01*
X9935263Y-4891998D01*
X9960837Y-4860837D01*
X9991998Y-4835263D01*
X10027551Y-4816260D01*
X10066134Y-4804556D01*
X10112390Y-4800000D01*
X12087610Y-4800000D01*
X12133866Y-4804556D01*
X12133866Y-4804556D01*
G37*
M02*
