M48
;DRILL file {KiCad 5.0.2-5.fc29} date 2019-03-18T09:48:21 CET
;FORMAT={-:-/ absolute / inch / decimal}
FMAT,2
INCH,TZ
T1C0.0295
T2C0.0315
T3C0.0362
T4C0.0394
T5C0.0551
T6C0.0906
%
G90
G05
T1
X3.3882Y-3.4252
X3.4382Y-3.4752
X3.4882Y-3.4252
T2
X3.9173Y-3.1843
X3.9173Y-3.4843
X4.1409Y-3.5984
X4.4409Y-3.5984
X3.7559Y-3.5984
X4.0559Y-3.5984
X3.3701Y-3.5984
X3.6701Y-3.5984
X4.1409Y-3.4764
X4.4409Y-3.4764
X3.2559Y-3.3142
X3.2559Y-3.6142
T3
X2.6378Y-2.1772
X2.6378Y-2.2756
X2.6378Y-2.3543
X2.6378Y-2.4528
T4
X3.2677Y-2.2701
X3.2677Y-2.3701
X3.2677Y-2.4701
X2.5124Y-3.7309
X2.5124Y-3.8309
X2.6124Y-3.7309
X2.6124Y-3.8309
X2.7124Y-3.7309
X2.7124Y-3.8309
X2.8124Y-3.7309
X2.8124Y-3.8309
X2.9124Y-3.7309
X2.9124Y-3.8309
X3.0124Y-3.7309
X3.0124Y-3.8309
X3.1124Y-3.7309
X3.1124Y-3.8309
X3.2124Y-3.7309
X3.2124Y-3.8309
X3.3124Y-3.7309
X3.3124Y-3.8309
X3.4124Y-3.7309
X3.4124Y-3.8309
X3.5124Y-3.7309
X3.5124Y-3.8309
X3.6124Y-3.7309
X3.6124Y-3.8309
X3.7124Y-3.7309
X3.7124Y-3.8309
X3.8124Y-3.7309
X3.8124Y-3.8309
X3.9124Y-3.7309
X3.9124Y-3.8309
X4.0124Y-3.7309
X4.0124Y-3.8309
X4.1124Y-3.7309
X4.1124Y-3.8309
X4.2124Y-3.7309
X4.2124Y-3.8309
X4.3124Y-3.7309
X4.3124Y-3.8309
X4.4124Y-3.7309
X4.4124Y-3.8309
X4.5886Y-2.8661
X4.5886Y-2.9661
X4.5886Y-3.0661
X4.5886Y-3.1661
X4.5886Y-3.2661
X3.4Y-3.2638
X3.5Y-3.2638
X3.6Y-3.2638
X3.7756Y-3.2898
X3.7756Y-3.3898
X4.4055Y-2.8665
X4.4055Y-2.9665
X4.4055Y-3.0665
T5
X3.4291Y-1.8622
X3.626Y-1.8622
X3.9409Y-1.8622
X4.1378Y-1.8622
X3.9154Y-2.3681
X3.9154Y-2.5335
X4.1319Y-2.3681
X4.1319Y-2.5335
X2.2953Y-2.7717
X2.2953Y-2.9882
X2.4606Y-2.7717
X2.4606Y-2.9882
X2.626Y-2.7717
X2.626Y-2.9882
X2.7913Y-2.7717
X2.7913Y-2.9882
X2.9567Y-2.7717
X2.9567Y-2.9882
X3.122Y-2.7717
X3.122Y-2.9882
X3.2874Y-2.7717
X3.2874Y-2.9882
X3.4528Y-2.7717
X3.4528Y-2.9882
X3.6181Y-2.7717
X3.6181Y-2.9882
X3.7835Y-2.7717
X3.7835Y-2.9882
X3.9488Y-2.7717
X3.9488Y-2.9882
X4.1142Y-2.7717
X4.1142Y-2.9882
X2.9173Y-1.8622
X3.1142Y-1.8622
X2.4055Y-1.8622
X2.6024Y-1.8622
X4.4528Y-1.8622
X4.6496Y-1.8622
X4.45Y-2.1531
X4.45Y-2.35
T6
X2.5311Y-2.0563
X2.5311Y-2.5736
T0
M30
