G04 #@! TF.GenerationSoftware,KiCad,Pcbnew,5.0.2-5.fc29*
G04 #@! TF.CreationDate,2019-04-12T09:16:21+02:00*
G04 #@! TF.ProjectId,ATX-breakout,4154582d-6272-4656-916b-6f75742e6b69,rev?*
G04 #@! TF.SameCoordinates,Original*
G04 #@! TF.FileFunction,Legend,Bot*
G04 #@! TF.FilePolarity,Positive*
%FSLAX46Y46*%
G04 Gerber Fmt 4.6, Leading zero omitted, Abs format (unit mm)*
G04 Created by KiCad (PCBNEW 5.0.2-5.fc29) date 2019-04-12T09:16:21 CEST*
%MOMM*%
%LPD*%
G01*
G04 APERTURE LIST*
%ADD10C,0.300000*%
%ADD11C,0.200000*%
%ADD12C,0.150000*%
%ADD13C,0.120000*%
G04 APERTURE END LIST*
D10*
X13678571Y-48678571D02*
X13678571Y-49892857D01*
X13749999Y-50035714D01*
X13821428Y-50107142D01*
X13964285Y-50178571D01*
X14178571Y-50178571D01*
X14321428Y-50107142D01*
X13678571Y-49607142D02*
X13821428Y-49678571D01*
X14107142Y-49678571D01*
X14249999Y-49607142D01*
X14321428Y-49535714D01*
X14392857Y-49392857D01*
X14392857Y-48964285D01*
X14321428Y-48821428D01*
X14249999Y-48750000D01*
X14107142Y-48678571D01*
X13821428Y-48678571D01*
X13678571Y-48750000D01*
X12964285Y-49678571D02*
X12964285Y-48678571D01*
X12964285Y-48178571D02*
X13035714Y-48250000D01*
X12964285Y-48321428D01*
X12892857Y-48250000D01*
X12964285Y-48178571D01*
X12964285Y-48321428D01*
X12464285Y-48678571D02*
X11892857Y-48678571D01*
X12250000Y-48178571D02*
X12250000Y-49464285D01*
X12178571Y-49607142D01*
X12035714Y-49678571D01*
X11892857Y-49678571D01*
X11392857Y-49535714D02*
X11321428Y-49607142D01*
X11392857Y-49678571D01*
X11464285Y-49607142D01*
X11392857Y-49535714D01*
X11392857Y-49678571D01*
X10678571Y-49678571D02*
X10678571Y-48678571D01*
X10678571Y-48178571D02*
X10750000Y-48250000D01*
X10678571Y-48321428D01*
X10607142Y-48250000D01*
X10678571Y-48178571D01*
X10678571Y-48321428D01*
X9750000Y-49678571D02*
X9892857Y-49607142D01*
X9964285Y-49535714D01*
X10035714Y-49392857D01*
X10035714Y-48964285D01*
X9964285Y-48821428D01*
X9892857Y-48750000D01*
X9750000Y-48678571D01*
X9535714Y-48678571D01*
X9392857Y-48750000D01*
X9321428Y-48821428D01*
X9250000Y-48964285D01*
X9250000Y-49392857D01*
X9321428Y-49535714D01*
X9392857Y-49607142D01*
X9535714Y-49678571D01*
X9750000Y-49678571D01*
X7535714Y-48107142D02*
X8821428Y-50035714D01*
X7035714Y-49678571D02*
X7035714Y-48178571D01*
X6464285Y-48178571D01*
X6321428Y-48250000D01*
X6250000Y-48321428D01*
X6178571Y-48464285D01*
X6178571Y-48678571D01*
X6250000Y-48821428D01*
X6321428Y-48892857D01*
X6464285Y-48964285D01*
X7035714Y-48964285D01*
X5535714Y-49678571D02*
X5535714Y-48678571D01*
X5535714Y-48178571D02*
X5607142Y-48250000D01*
X5535714Y-48321428D01*
X5464285Y-48250000D01*
X5535714Y-48178571D01*
X5535714Y-48321428D01*
X4892857Y-49250000D02*
X4178571Y-49250000D01*
X5035714Y-49678571D02*
X4535714Y-48178571D01*
X4035714Y-49678571D01*
X3750000Y-48178571D02*
X2892857Y-48178571D01*
X3321428Y-49678571D02*
X3321428Y-48178571D01*
X2535714Y-48178571D02*
X1535714Y-49678571D01*
X1535714Y-48178571D02*
X2535714Y-49678571D01*
D11*
X1200000Y-2800000D02*
X1400000Y-2600000D01*
D12*
X1614285Y-3838095D02*
X947619Y-3600000D01*
X1614285Y-3361904D02*
X947619Y-3600000D01*
X709523Y-3695238D01*
X661904Y-3742857D01*
X614285Y-3838095D01*
D11*
X1000000Y-2600000D02*
X1200000Y-2800000D01*
X1400000Y-2600000D02*
X1000000Y-2600000D01*
X1200000Y-1800000D02*
X1200000Y-2800000D01*
X2600000Y-1400000D02*
X2800000Y-1200000D01*
X2600000Y-1000000D02*
X2600000Y-1400000D01*
X2800000Y-1200000D02*
X2600000Y-1000000D01*
D12*
X3861904Y-1452380D02*
X3338095Y-785714D01*
X3861904Y-785714D02*
X3338095Y-1452380D01*
D11*
X1800000Y-1200000D02*
X2800000Y-1200000D01*
D12*
X7166666Y-4433333D02*
X7214285Y-4385714D01*
X7309523Y-4242857D01*
X7357142Y-4147619D01*
X7404761Y-4004761D01*
X7452380Y-3766666D01*
X7452380Y-3576190D01*
X7404761Y-3338095D01*
X7357142Y-3195238D01*
X7309523Y-3100000D01*
X7214285Y-2957142D01*
X7166666Y-2909523D01*
X6880952Y-4052380D02*
X6357142Y-3385714D01*
X6880952Y-3385714D02*
X6357142Y-4052380D01*
X5928571Y-4004761D02*
X5928571Y-4052380D01*
X5976190Y-4147619D01*
X6023809Y-4195238D01*
X5595238Y-3385714D02*
X5357142Y-4052380D01*
X5119047Y-3385714D02*
X5357142Y-4052380D01*
X5452380Y-4290476D01*
X5500000Y-4338095D01*
X5595238Y-4385714D01*
X4833333Y-4433333D02*
X4785714Y-4385714D01*
X4690476Y-4242857D01*
X4642857Y-4147619D01*
X4595238Y-4004761D01*
X4547619Y-3766666D01*
X4547619Y-3576190D01*
X4595238Y-3338095D01*
X4642857Y-3195238D01*
X4690476Y-3100000D01*
X4785714Y-2957142D01*
X4833333Y-2909523D01*
D11*
X3000000Y-3000000D02*
X3600000Y-3000000D01*
X1000000Y-1000000D02*
X3000000Y-3000000D01*
X1000000Y-800000D02*
X800000Y-1000000D01*
X800000Y-1200000D02*
X1200000Y-800000D01*
X1400000Y-800000D02*
X800000Y-800000D01*
X800000Y-1400000D02*
X1400000Y-800000D01*
X800000Y-800000D02*
X800000Y-1400000D01*
D12*
X7333333Y-2633333D02*
X7380952Y-2585714D01*
X7476190Y-2442857D01*
X7523809Y-2347619D01*
X7571428Y-2204761D01*
X7619047Y-1966666D01*
X7619047Y-1776190D01*
X7571428Y-1538095D01*
X7523809Y-1395238D01*
X7476190Y-1300000D01*
X7380952Y-1157142D01*
X7333333Y-1109523D01*
X6761904Y-1252380D02*
X6666666Y-1252380D01*
X6571428Y-1300000D01*
X6523809Y-1347619D01*
X6476190Y-1442857D01*
X6428571Y-1633333D01*
X6428571Y-1871428D01*
X6476190Y-2061904D01*
X6523809Y-2157142D01*
X6571428Y-2204761D01*
X6666666Y-2252380D01*
X6761904Y-2252380D01*
X6857142Y-2204761D01*
X6904761Y-2157142D01*
X6952380Y-2061904D01*
X7000000Y-1871428D01*
X7000000Y-1633333D01*
X6952380Y-1442857D01*
X6904761Y-1347619D01*
X6857142Y-1300000D01*
X6761904Y-1252380D01*
X5952380Y-2204761D02*
X5952380Y-2252380D01*
X6000000Y-2347619D01*
X6047619Y-2395238D01*
X5333333Y-1252380D02*
X5238095Y-1252380D01*
X5142857Y-1300000D01*
X5095238Y-1347619D01*
X5047619Y-1442857D01*
X5000000Y-1633333D01*
X5000000Y-1871428D01*
X5047619Y-2061904D01*
X5095238Y-2157142D01*
X5142857Y-2204761D01*
X5238095Y-2252380D01*
X5333333Y-2252380D01*
X5428571Y-2204761D01*
X5476190Y-2157142D01*
X5523809Y-2061904D01*
X5571428Y-1871428D01*
X5571428Y-1633333D01*
X5523809Y-1442857D01*
X5476190Y-1347619D01*
X5428571Y-1300000D01*
X5333333Y-1252380D01*
X4666666Y-2633333D02*
X4619047Y-2585714D01*
X4523809Y-2442857D01*
X4476190Y-2347619D01*
X4428571Y-2204761D01*
X4380952Y-1966666D01*
X4380952Y-1776190D01*
X4428571Y-1538095D01*
X4476190Y-1395238D01*
X4523809Y-1300000D01*
X4619047Y-1157142D01*
X4666666Y-1109523D01*
X10571428Y-52333333D02*
X10619047Y-52285714D01*
X10714285Y-52142857D01*
X10761904Y-52047619D01*
X10809523Y-51904761D01*
X10857142Y-51666666D01*
X10857142Y-51476190D01*
X10809523Y-51238095D01*
X10761904Y-51095238D01*
X10714285Y-51000000D01*
X10619047Y-50857142D01*
X10571428Y-50809523D01*
X10285714Y-50952380D02*
X9666666Y-50952380D01*
X10000000Y-51333333D01*
X9857142Y-51333333D01*
X9761904Y-51380952D01*
X9714285Y-51428571D01*
X9666666Y-51523809D01*
X9666666Y-51761904D01*
X9714285Y-51857142D01*
X9761904Y-51904761D01*
X9857142Y-51952380D01*
X10142857Y-51952380D01*
X10238095Y-51904761D01*
X10285714Y-51857142D01*
X9238095Y-51857142D02*
X9190476Y-51904761D01*
X9238095Y-51952380D01*
X9285714Y-51904761D01*
X9238095Y-51857142D01*
X9238095Y-51952380D01*
X8714285Y-51952380D02*
X8523809Y-51952380D01*
X8428571Y-51904761D01*
X8380952Y-51857142D01*
X8285714Y-51714285D01*
X8238095Y-51523809D01*
X8238095Y-51142857D01*
X8285714Y-51047619D01*
X8333333Y-51000000D01*
X8428571Y-50952380D01*
X8619047Y-50952380D01*
X8714285Y-51000000D01*
X8761904Y-51047619D01*
X8809523Y-51142857D01*
X8809523Y-51380952D01*
X8761904Y-51476190D01*
X8714285Y-51523809D01*
X8619047Y-51571428D01*
X8428571Y-51571428D01*
X8333333Y-51523809D01*
X8285714Y-51476190D01*
X8238095Y-51380952D01*
X7857142Y-51047619D02*
X7809523Y-51000000D01*
X7714285Y-50952380D01*
X7476190Y-50952380D01*
X7380952Y-51000000D01*
X7333333Y-51047619D01*
X7285714Y-51142857D01*
X7285714Y-51238095D01*
X7333333Y-51380952D01*
X7904761Y-51952380D01*
X7285714Y-51952380D01*
X6809523Y-51904761D02*
X6809523Y-51952380D01*
X6857142Y-52047619D01*
X6904761Y-52095238D01*
X5142857Y-50952380D02*
X5619047Y-50952380D01*
X5666666Y-51428571D01*
X5619047Y-51380952D01*
X5523809Y-51333333D01*
X5285714Y-51333333D01*
X5190476Y-51380952D01*
X5142857Y-51428571D01*
X5095238Y-51523809D01*
X5095238Y-51761904D01*
X5142857Y-51857142D01*
X5190476Y-51904761D01*
X5285714Y-51952380D01*
X5523809Y-51952380D01*
X5619047Y-51904761D01*
X5666666Y-51857142D01*
X4190476Y-50952380D02*
X4666666Y-50952380D01*
X4714285Y-51428571D01*
X4666666Y-51380952D01*
X4571428Y-51333333D01*
X4333333Y-51333333D01*
X4238095Y-51380952D01*
X4190476Y-51428571D01*
X4142857Y-51523809D01*
X4142857Y-51761904D01*
X4190476Y-51857142D01*
X4238095Y-51904761D01*
X4333333Y-51952380D01*
X4571428Y-51952380D01*
X4666666Y-51904761D01*
X4714285Y-51857142D01*
X3714285Y-51857142D02*
X3666666Y-51904761D01*
X3714285Y-51952380D01*
X3761904Y-51904761D01*
X3714285Y-51857142D01*
X3714285Y-51952380D01*
X2761904Y-50952380D02*
X3238095Y-50952380D01*
X3285714Y-51428571D01*
X3238095Y-51380952D01*
X3142857Y-51333333D01*
X2904761Y-51333333D01*
X2809523Y-51380952D01*
X2761904Y-51428571D01*
X2714285Y-51523809D01*
X2714285Y-51761904D01*
X2761904Y-51857142D01*
X2809523Y-51904761D01*
X2904761Y-51952380D01*
X3142857Y-51952380D01*
X3238095Y-51904761D01*
X3285714Y-51857142D01*
X2380952Y-50952380D02*
X1714285Y-50952380D01*
X2142857Y-51952380D01*
X1428571Y-52333333D02*
X1380952Y-52285714D01*
X1285714Y-52142857D01*
X1238095Y-52047619D01*
X1190476Y-51904761D01*
X1142857Y-51666666D01*
X1142857Y-51476190D01*
X1190476Y-51238095D01*
X1238095Y-51095238D01*
X1285714Y-51000000D01*
X1380952Y-50857142D01*
X1428571Y-50809523D01*
X65980952Y-53333333D02*
X66028571Y-53285714D01*
X66123809Y-53142857D01*
X66171428Y-53047619D01*
X66219047Y-52904761D01*
X66266666Y-52666666D01*
X66266666Y-52476190D01*
X66219047Y-52238095D01*
X66171428Y-52095238D01*
X66123809Y-52000000D01*
X66028571Y-51857142D01*
X65980952Y-51809523D01*
X65171428Y-51952380D02*
X65361904Y-51952380D01*
X65457142Y-52000000D01*
X65504761Y-52047619D01*
X65600000Y-52190476D01*
X65647619Y-52380952D01*
X65647619Y-52761904D01*
X65600000Y-52857142D01*
X65552380Y-52904761D01*
X65457142Y-52952380D01*
X65266666Y-52952380D01*
X65171428Y-52904761D01*
X65123809Y-52857142D01*
X65076190Y-52761904D01*
X65076190Y-52523809D01*
X65123809Y-52428571D01*
X65171428Y-52380952D01*
X65266666Y-52333333D01*
X65457142Y-52333333D01*
X65552380Y-52380952D01*
X65600000Y-52428571D01*
X65647619Y-52523809D01*
X64219047Y-52285714D02*
X64219047Y-52952380D01*
X64457142Y-51904761D02*
X64695238Y-52619047D01*
X64076190Y-52619047D01*
X63647619Y-52904761D02*
X63647619Y-52952380D01*
X63695238Y-53047619D01*
X63742857Y-53095238D01*
X61980952Y-51952380D02*
X62457142Y-51952380D01*
X62504761Y-52428571D01*
X62457142Y-52380952D01*
X62361904Y-52333333D01*
X62123809Y-52333333D01*
X62028571Y-52380952D01*
X61980952Y-52428571D01*
X61933333Y-52523809D01*
X61933333Y-52761904D01*
X61980952Y-52857142D01*
X62028571Y-52904761D01*
X62123809Y-52952380D01*
X62361904Y-52952380D01*
X62457142Y-52904761D01*
X62504761Y-52857142D01*
X61076190Y-51952380D02*
X61266666Y-51952380D01*
X61361904Y-52000000D01*
X61409523Y-52047619D01*
X61504761Y-52190476D01*
X61552380Y-52380952D01*
X61552380Y-52761904D01*
X61504761Y-52857142D01*
X61457142Y-52904761D01*
X61361904Y-52952380D01*
X61171428Y-52952380D01*
X61076190Y-52904761D01*
X61028571Y-52857142D01*
X60980952Y-52761904D01*
X60980952Y-52523809D01*
X61028571Y-52428571D01*
X61076190Y-52380952D01*
X61171428Y-52333333D01*
X61361904Y-52333333D01*
X61457142Y-52380952D01*
X61504761Y-52428571D01*
X61552380Y-52523809D01*
X60552380Y-52857142D02*
X60504761Y-52904761D01*
X60552380Y-52952380D01*
X60600000Y-52904761D01*
X60552380Y-52857142D01*
X60552380Y-52952380D01*
X59600000Y-51952380D02*
X60076190Y-51952380D01*
X60123809Y-52428571D01*
X60076190Y-52380952D01*
X59980952Y-52333333D01*
X59742857Y-52333333D01*
X59647619Y-52380952D01*
X59600000Y-52428571D01*
X59552380Y-52523809D01*
X59552380Y-52761904D01*
X59600000Y-52857142D01*
X59647619Y-52904761D01*
X59742857Y-52952380D01*
X59980952Y-52952380D01*
X60076190Y-52904761D01*
X60123809Y-52857142D01*
X59219047Y-53333333D02*
X59171428Y-53285714D01*
X59076190Y-53142857D01*
X59028571Y-53047619D01*
X58980952Y-52904761D01*
X58933333Y-52666666D01*
X58933333Y-52476190D01*
X58980952Y-52238095D01*
X59028571Y-52095238D01*
X59076190Y-52000000D01*
X59171428Y-51857142D01*
X59219047Y-51809523D01*
X22380952Y-15433333D02*
X22428571Y-15385714D01*
X22523809Y-15242857D01*
X22571428Y-15147619D01*
X22619047Y-15004761D01*
X22666666Y-14766666D01*
X22666666Y-14576190D01*
X22619047Y-14338095D01*
X22571428Y-14195238D01*
X22523809Y-14100000D01*
X22428571Y-13957142D01*
X22380952Y-13909523D01*
X21476190Y-15052380D02*
X22047619Y-15052380D01*
X21761904Y-15052380D02*
X21761904Y-14052380D01*
X21857142Y-14195238D01*
X21952380Y-14290476D01*
X22047619Y-14338095D01*
X21000000Y-15052380D02*
X20809523Y-15052380D01*
X20714285Y-15004761D01*
X20666666Y-14957142D01*
X20571428Y-14814285D01*
X20523809Y-14623809D01*
X20523809Y-14242857D01*
X20571428Y-14147619D01*
X20619047Y-14100000D01*
X20714285Y-14052380D01*
X20904761Y-14052380D01*
X21000000Y-14100000D01*
X21047619Y-14147619D01*
X21095238Y-14242857D01*
X21095238Y-14480952D01*
X21047619Y-14576190D01*
X21000000Y-14623809D01*
X20904761Y-14671428D01*
X20714285Y-14671428D01*
X20619047Y-14623809D01*
X20571428Y-14576190D01*
X20523809Y-14480952D01*
X20047619Y-15004761D02*
X20047619Y-15052380D01*
X20095238Y-15147619D01*
X20142857Y-15195238D01*
X18333333Y-15052380D02*
X18904761Y-15052380D01*
X18619047Y-15052380D02*
X18619047Y-14052380D01*
X18714285Y-14195238D01*
X18809523Y-14290476D01*
X18904761Y-14338095D01*
X17761904Y-14480952D02*
X17857142Y-14433333D01*
X17904761Y-14385714D01*
X17952380Y-14290476D01*
X17952380Y-14242857D01*
X17904761Y-14147619D01*
X17857142Y-14100000D01*
X17761904Y-14052380D01*
X17571428Y-14052380D01*
X17476190Y-14100000D01*
X17428571Y-14147619D01*
X17380952Y-14242857D01*
X17380952Y-14290476D01*
X17428571Y-14385714D01*
X17476190Y-14433333D01*
X17571428Y-14480952D01*
X17761904Y-14480952D01*
X17857142Y-14528571D01*
X17904761Y-14576190D01*
X17952380Y-14671428D01*
X17952380Y-14861904D01*
X17904761Y-14957142D01*
X17857142Y-15004761D01*
X17761904Y-15052380D01*
X17571428Y-15052380D01*
X17476190Y-15004761D01*
X17428571Y-14957142D01*
X17380952Y-14861904D01*
X17380952Y-14671428D01*
X17428571Y-14576190D01*
X17476190Y-14528571D01*
X17571428Y-14480952D01*
X16952380Y-14957142D02*
X16904761Y-15004761D01*
X16952380Y-15052380D01*
X17000000Y-15004761D01*
X16952380Y-14957142D01*
X16952380Y-15052380D01*
X16000000Y-14052380D02*
X16476190Y-14052380D01*
X16523809Y-14528571D01*
X16476190Y-14480952D01*
X16380952Y-14433333D01*
X16142857Y-14433333D01*
X16047619Y-14480952D01*
X16000000Y-14528571D01*
X15952380Y-14623809D01*
X15952380Y-14861904D01*
X16000000Y-14957142D01*
X16047619Y-15004761D01*
X16142857Y-15052380D01*
X16380952Y-15052380D01*
X16476190Y-15004761D01*
X16523809Y-14957142D01*
X15619047Y-15433333D02*
X15571428Y-15385714D01*
X15476190Y-15242857D01*
X15428571Y-15147619D01*
X15380952Y-15004761D01*
X15333333Y-14766666D01*
X15333333Y-14576190D01*
X15380952Y-14338095D01*
X15428571Y-14195238D01*
X15476190Y-14100000D01*
X15571428Y-13957142D01*
X15619047Y-13909523D01*
D13*
G04 #@! TO.C,J4*
X58404999Y-58135001D02*
X58404999Y-55535001D01*
X58404999Y-58135001D02*
X7484999Y-58135001D01*
X7484999Y-58135001D02*
X7484999Y-52935001D01*
X55804999Y-52935001D02*
X7484999Y-52935001D01*
X55804999Y-55535001D02*
X55804999Y-52935001D01*
X58404999Y-55535001D02*
X55804999Y-55535001D01*
X58404999Y-52935001D02*
X57074999Y-52935001D01*
X58404999Y-54265001D02*
X58404999Y-52935001D01*
D12*
X59297379Y-55201667D02*
X60011665Y-55201667D01*
X60154522Y-55154048D01*
X60249760Y-55058810D01*
X60297379Y-54915953D01*
X60297379Y-54820715D01*
X59630713Y-56106429D02*
X60297379Y-56106429D01*
X59249760Y-55868334D02*
X59964046Y-55630239D01*
X59964046Y-56249286D01*
G04 #@! TD*
M02*
