G04 #@! TF.GenerationSoftware,KiCad,Pcbnew,(5.0.1-dev-70-gb7b125d83)*
G04 #@! TF.CreationDate,2019-04-09T22:27:23+02:00*
G04 #@! TF.ProjectId,ATX-breakout,4154582D627265616B6F75742E6B6963,rev?*
G04 #@! TF.SameCoordinates,Original*
G04 #@! TF.FileFunction,Copper,L1,Top,Signal*
G04 #@! TF.FilePolarity,Positive*
%FSLAX46Y46*%
G04 Gerber Fmt 4.6, Leading zero omitted, Abs format (unit mm)*
G04 Created by KiCad (PCBNEW (5.0.1-dev-70-gb7b125d83)) date 04/09/19 22:27:23*
%MOMM*%
%LPD*%
G01*
G04 APERTURE LIST*
G04 #@! TA.AperFunction,ComponentPad*
%ADD10O,1.600000X1.600000*%
G04 #@! TD*
G04 #@! TA.AperFunction,ComponentPad*
%ADD11C,1.600000*%
G04 #@! TD*
G04 #@! TA.AperFunction,ComponentPad*
%ADD12C,3.000000*%
G04 #@! TD*
G04 #@! TA.AperFunction,ComponentPad*
%ADD13R,1.500000X1.500000*%
G04 #@! TD*
G04 #@! TA.AperFunction,ComponentPad*
%ADD14C,1.500000*%
G04 #@! TD*
G04 #@! TA.AperFunction,Conductor*
%ADD15C,0.100000*%
G04 #@! TD*
G04 #@! TA.AperFunction,ComponentPad*
%ADD16C,2.700000*%
G04 #@! TD*
G04 #@! TA.AperFunction,ComponentPad*
%ADD17O,2.700000X3.300000*%
G04 #@! TD*
G04 #@! TA.AperFunction,ComponentPad*
%ADD18R,1.700000X1.700000*%
G04 #@! TD*
G04 #@! TA.AperFunction,ComponentPad*
%ADD19O,1.700000X1.700000*%
G04 #@! TD*
G04 #@! TA.AperFunction,ComponentPad*
%ADD20O,3.300000X2.700000*%
G04 #@! TD*
G04 #@! TA.AperFunction,ComponentPad*
%ADD21C,1.300000*%
G04 #@! TD*
G04 #@! TA.AperFunction,ComponentPad*
%ADD22C,0.760000*%
G04 #@! TD*
G04 #@! TA.AperFunction,ComponentPad*
%ADD23O,2.000000X3.600000*%
G04 #@! TD*
G04 #@! TA.AperFunction,ComponentPad*
%ADD24C,2.000000*%
G04 #@! TD*
G04 #@! TA.AperFunction,ComponentPad*
%ADD25O,3.600000X2.000000*%
G04 #@! TD*
G04 #@! TA.AperFunction,ViaPad*
%ADD26C,1.800000*%
G04 #@! TD*
G04 #@! TA.AperFunction,Conductor*
%ADD27C,1.200000*%
G04 #@! TD*
G04 #@! TA.AperFunction,Conductor*
%ADD28C,0.200000*%
G04 #@! TD*
G04 #@! TA.AperFunction,Conductor*
%ADD29C,0.600000*%
G04 #@! TD*
G04 #@! TA.AperFunction,Conductor*
%ADD30C,2.600000*%
G04 #@! TD*
G04 #@! TA.AperFunction,Conductor*
%ADD31C,2.200000*%
G04 #@! TD*
G04 #@! TA.AperFunction,Conductor*
%ADD32C,1.400000*%
G04 #@! TD*
G04 #@! TA.AperFunction,Conductor*
%ADD33C,0.800000*%
G04 #@! TD*
G04 #@! TA.AperFunction,Conductor*
%ADD34C,0.400000*%
G04 #@! TD*
G04 #@! TA.AperFunction,Conductor*
%ADD35C,0.254000*%
G04 #@! TD*
G04 #@! TA.AperFunction,Conductor*
%ADD36C,0.250000*%
G04 #@! TD*
G04 APERTURE END LIST*
D10*
G04 #@! TO.P,R4,2*
G04 #@! TO.N,Net-(Q1-Pad2)*
X27700000Y-43680000D03*
D11*
G04 #@! TO.P,R4,1*
G04 #@! TO.N,pson_pi*
X27700000Y-51300000D03*
G04 #@! TD*
D12*
G04 #@! TO.P,J3,5*
G04 #@! TO.N,GND*
X9290000Y-24870000D03*
X9290000Y-11730000D03*
D13*
G04 #@! TO.P,J3,1*
G04 #@! TO.N,Net-(J3-Pad1)*
X12000000Y-14800000D03*
D14*
G04 #@! TO.P,J3,2*
G04 #@! TO.N,Net-(J3-Pad2)*
X12000000Y-17300000D03*
G04 #@! TO.P,J3,3*
X12000000Y-19300000D03*
G04 #@! TO.P,J3,4*
G04 #@! TO.N,GND*
X12000000Y-21800000D03*
G04 #@! TD*
D15*
G04 #@! TO.N,+3V3*
G04 #@! TO.C,J5*
G36*
X4424503Y-28251204D02*
X4448772Y-28254804D01*
X4472570Y-28260765D01*
X4495670Y-28269030D01*
X4517849Y-28279520D01*
X4538892Y-28292133D01*
X4558598Y-28306748D01*
X4576776Y-28323224D01*
X4593252Y-28341402D01*
X4607867Y-28361108D01*
X4620480Y-28382151D01*
X4630970Y-28404330D01*
X4639235Y-28427430D01*
X4645196Y-28451228D01*
X4648796Y-28475497D01*
X4650000Y-28500001D01*
X4650000Y-31299999D01*
X4648796Y-31324503D01*
X4645196Y-31348772D01*
X4639235Y-31372570D01*
X4630970Y-31395670D01*
X4620480Y-31417849D01*
X4607867Y-31438892D01*
X4593252Y-31458598D01*
X4576776Y-31476776D01*
X4558598Y-31493252D01*
X4538892Y-31507867D01*
X4517849Y-31520480D01*
X4495670Y-31530970D01*
X4472570Y-31539235D01*
X4448772Y-31545196D01*
X4424503Y-31548796D01*
X4399999Y-31550000D01*
X2200001Y-31550000D01*
X2175497Y-31548796D01*
X2151228Y-31545196D01*
X2127430Y-31539235D01*
X2104330Y-31530970D01*
X2082151Y-31520480D01*
X2061108Y-31507867D01*
X2041402Y-31493252D01*
X2023224Y-31476776D01*
X2006748Y-31458598D01*
X1992133Y-31438892D01*
X1979520Y-31417849D01*
X1969030Y-31395670D01*
X1960765Y-31372570D01*
X1954804Y-31348772D01*
X1951204Y-31324503D01*
X1950000Y-31299999D01*
X1950000Y-28500001D01*
X1951204Y-28475497D01*
X1954804Y-28451228D01*
X1960765Y-28427430D01*
X1969030Y-28404330D01*
X1979520Y-28382151D01*
X1992133Y-28361108D01*
X2006748Y-28341402D01*
X2023224Y-28323224D01*
X2041402Y-28306748D01*
X2061108Y-28292133D01*
X2082151Y-28279520D01*
X2104330Y-28269030D01*
X2127430Y-28260765D01*
X2151228Y-28254804D01*
X2175497Y-28251204D01*
X2200001Y-28250000D01*
X4399999Y-28250000D01*
X4424503Y-28251204D01*
X4424503Y-28251204D01*
G37*
D16*
G04 #@! TD*
G04 #@! TO.P,J5,1*
G04 #@! TO.N,+3V3*
X3300000Y-29900000D03*
D17*
G04 #@! TO.P,J5,2*
G04 #@! TO.N,+3V3*
X7500000Y-29900000D03*
G04 #@! TO.P,J5,3*
G04 #@! TO.N,GND*
X11700000Y-29900000D03*
G04 #@! TO.P,J5,4*
G04 #@! TO.N,+5V*
X15900000Y-29900000D03*
G04 #@! TO.P,J5,5*
G04 #@! TO.N,GND*
X20100000Y-29900000D03*
G04 #@! TO.P,J5,6*
G04 #@! TO.N,+5V*
X24300000Y-29900000D03*
G04 #@! TO.P,J5,7*
G04 #@! TO.N,GND*
X28500000Y-29900000D03*
G04 #@! TO.P,J5,8*
G04 #@! TO.N,P_GOOD*
X32700000Y-29900000D03*
G04 #@! TO.P,J5,9*
G04 #@! TO.N,+5VP*
X36900000Y-29900000D03*
G04 #@! TO.P,J5,10*
G04 #@! TO.N,+12V*
X41100000Y-29900000D03*
G04 #@! TO.P,J5,11*
X45300000Y-29900000D03*
G04 #@! TO.P,J5,12*
G04 #@! TO.N,+3V3*
X49500000Y-29900000D03*
G04 #@! TO.P,J5,13*
X3300000Y-35400000D03*
G04 #@! TO.P,J5,14*
X7500000Y-35400000D03*
G04 #@! TO.P,J5,15*
G04 #@! TO.N,GND*
X11700000Y-35400000D03*
G04 #@! TO.P,J5,16*
G04 #@! TO.N,~PS_ON*
X15900000Y-35400000D03*
G04 #@! TO.P,J5,17*
G04 #@! TO.N,GND*
X20100000Y-35400000D03*
G04 #@! TO.P,J5,18*
X24300000Y-35400000D03*
G04 #@! TO.P,J5,19*
X28500000Y-35400000D03*
G04 #@! TO.P,J5,20*
G04 #@! TO.N,N/C*
X32700000Y-35400000D03*
G04 #@! TO.P,J5,21*
G04 #@! TO.N,+5V*
X36900000Y-35400000D03*
G04 #@! TO.P,J5,22*
X41100000Y-35400000D03*
G04 #@! TO.P,J5,23*
X45300000Y-35400000D03*
G04 #@! TO.P,J5,24*
G04 #@! TO.N,GND*
X49500000Y-35400000D03*
G04 #@! TD*
D18*
G04 #@! TO.P,J1,1*
G04 #@! TO.N,/5v_rpi*
X61550000Y-32300000D03*
D19*
G04 #@! TO.P,J1,2*
G04 #@! TO.N,/3v3_rpi*
X61550000Y-34840000D03*
G04 #@! TO.P,J1,3*
G04 #@! TO.N,/SDA*
X61550000Y-37380000D03*
G04 #@! TO.P,J1,4*
G04 #@! TO.N,/SCL*
X61550000Y-39920000D03*
G04 #@! TO.P,J1,5*
G04 #@! TO.N,GND*
X61550000Y-42460000D03*
G04 #@! TD*
D15*
G04 #@! TO.N,GND*
G04 #@! TO.C,J2*
G36*
X41174503Y-18101204D02*
X41198772Y-18104804D01*
X41222570Y-18110765D01*
X41245670Y-18119030D01*
X41267849Y-18129520D01*
X41288892Y-18142133D01*
X41308598Y-18156748D01*
X41326776Y-18173224D01*
X41343252Y-18191402D01*
X41357867Y-18211108D01*
X41370480Y-18232151D01*
X41380970Y-18254330D01*
X41389235Y-18277430D01*
X41395196Y-18301228D01*
X41398796Y-18325497D01*
X41400000Y-18350001D01*
X41400000Y-20549999D01*
X41398796Y-20574503D01*
X41395196Y-20598772D01*
X41389235Y-20622570D01*
X41380970Y-20645670D01*
X41370480Y-20667849D01*
X41357867Y-20688892D01*
X41343252Y-20708598D01*
X41326776Y-20726776D01*
X41308598Y-20743252D01*
X41288892Y-20757867D01*
X41267849Y-20770480D01*
X41245670Y-20780970D01*
X41222570Y-20789235D01*
X41198772Y-20795196D01*
X41174503Y-20798796D01*
X41149999Y-20800000D01*
X38350001Y-20800000D01*
X38325497Y-20798796D01*
X38301228Y-20795196D01*
X38277430Y-20789235D01*
X38254330Y-20780970D01*
X38232151Y-20770480D01*
X38211108Y-20757867D01*
X38191402Y-20743252D01*
X38173224Y-20726776D01*
X38156748Y-20708598D01*
X38142133Y-20688892D01*
X38129520Y-20667849D01*
X38119030Y-20645670D01*
X38110765Y-20622570D01*
X38104804Y-20598772D01*
X38101204Y-20574503D01*
X38100000Y-20549999D01*
X38100000Y-18350001D01*
X38101204Y-18325497D01*
X38104804Y-18301228D01*
X38110765Y-18277430D01*
X38119030Y-18254330D01*
X38129520Y-18232151D01*
X38142133Y-18211108D01*
X38156748Y-18191402D01*
X38173224Y-18173224D01*
X38191402Y-18156748D01*
X38211108Y-18142133D01*
X38232151Y-18129520D01*
X38254330Y-18119030D01*
X38277430Y-18110765D01*
X38301228Y-18104804D01*
X38325497Y-18101204D01*
X38350001Y-18100000D01*
X41149999Y-18100000D01*
X41174503Y-18101204D01*
X41174503Y-18101204D01*
G37*
D16*
G04 #@! TD*
G04 #@! TO.P,J2,1*
G04 #@! TO.N,GND*
X39750000Y-19450000D03*
D20*
G04 #@! TO.P,J2,2*
G04 #@! TO.N,GND*
X39750000Y-15250000D03*
G04 #@! TO.P,J2,3*
G04 #@! TO.N,+12V*
X45250000Y-19450000D03*
G04 #@! TO.P,J2,4*
X45250000Y-15250000D03*
G04 #@! TD*
D18*
G04 #@! TO.P,J4,1*
G04 #@! TO.N,/3v3_rpi*
X57074999Y-54265001D03*
D19*
G04 #@! TO.P,J4,2*
G04 #@! TO.N,/5v_rpi*
X57074999Y-56805001D03*
G04 #@! TO.P,J4,3*
G04 #@! TO.N,/SDA*
X54534999Y-54265001D03*
G04 #@! TO.P,J4,4*
G04 #@! TO.N,/5v_rpi*
X54534999Y-56805001D03*
G04 #@! TO.P,J4,5*
G04 #@! TO.N,/SCL*
X51994999Y-54265001D03*
G04 #@! TO.P,J4,6*
G04 #@! TO.N,GND*
X51994999Y-56805001D03*
G04 #@! TO.P,J4,7*
G04 #@! TO.N,N/C*
X49454999Y-54265001D03*
G04 #@! TO.P,J4,8*
X49454999Y-56805001D03*
G04 #@! TO.P,J4,9*
G04 #@! TO.N,GND*
X46914999Y-54265001D03*
G04 #@! TO.P,J4,10*
G04 #@! TO.N,N/C*
X46914999Y-56805001D03*
G04 #@! TO.P,J4,11*
G04 #@! TO.N,Net-(J4-Pad11)*
X44374999Y-54265001D03*
G04 #@! TO.P,J4,12*
G04 #@! TO.N,N/C*
X44374999Y-56805001D03*
G04 #@! TO.P,J4,13*
X41834999Y-54265001D03*
G04 #@! TO.P,J4,14*
G04 #@! TO.N,GND*
X41834999Y-56805001D03*
G04 #@! TO.P,J4,15*
G04 #@! TO.N,N/C*
X39294999Y-54265001D03*
G04 #@! TO.P,J4,16*
X39294999Y-56805001D03*
G04 #@! TO.P,J4,17*
G04 #@! TO.N,/3v3_rpi*
X36754999Y-54265001D03*
G04 #@! TO.P,J4,18*
G04 #@! TO.N,N/C*
X36754999Y-56805001D03*
G04 #@! TO.P,J4,19*
X34214999Y-54265001D03*
G04 #@! TO.P,J4,20*
G04 #@! TO.N,GND*
X34214999Y-56805001D03*
G04 #@! TO.P,J4,21*
G04 #@! TO.N,pson_pi*
X31674999Y-54265001D03*
G04 #@! TO.P,J4,22*
G04 #@! TO.N,N/C*
X31674999Y-56805001D03*
G04 #@! TO.P,J4,23*
X29134999Y-54265001D03*
G04 #@! TO.P,J4,24*
X29134999Y-56805001D03*
G04 #@! TO.P,J4,25*
G04 #@! TO.N,GND*
X26594999Y-54265001D03*
G04 #@! TO.P,J4,26*
G04 #@! TO.N,N/C*
X26594999Y-56805001D03*
G04 #@! TO.P,J4,27*
X24054999Y-54265001D03*
G04 #@! TO.P,J4,28*
X24054999Y-56805001D03*
G04 #@! TO.P,J4,29*
X21514999Y-54265001D03*
G04 #@! TO.P,J4,30*
G04 #@! TO.N,GND*
X21514999Y-56805001D03*
G04 #@! TO.P,J4,31*
G04 #@! TO.N,N/C*
X18974999Y-54265001D03*
G04 #@! TO.P,J4,32*
X18974999Y-56805001D03*
G04 #@! TO.P,J4,33*
X16434999Y-54265001D03*
G04 #@! TO.P,J4,34*
G04 #@! TO.N,GND*
X16434999Y-56805001D03*
G04 #@! TO.P,J4,35*
G04 #@! TO.N,N/C*
X13894999Y-54265001D03*
G04 #@! TO.P,J4,36*
X13894999Y-56805001D03*
G04 #@! TO.P,J4,37*
G04 #@! TO.N,Net-(J13-Pad2)*
X11354999Y-54265001D03*
G04 #@! TO.P,J4,38*
G04 #@! TO.N,N/C*
X11354999Y-56805001D03*
G04 #@! TO.P,J4,39*
G04 #@! TO.N,GND*
X8814999Y-54265001D03*
G04 #@! TO.P,J4,40*
G04 #@! TO.N,N/C*
X8814999Y-56805001D03*
G04 #@! TD*
D18*
G04 #@! TO.P,J7,1*
G04 #@! TO.N,GND*
X40900000Y-45600000D03*
D19*
G04 #@! TO.P,J7,2*
G04 #@! TO.N,~ps_on_ext*
X40900000Y-43060000D03*
G04 #@! TD*
G04 #@! TO.P,JP1,3*
G04 #@! TO.N,+5V*
X56900000Y-37390000D03*
G04 #@! TO.P,JP1,2*
G04 #@! TO.N,/5v_rpi*
X56900000Y-34850000D03*
D18*
G04 #@! TO.P,JP1,1*
G04 #@! TO.N,+5VP*
X56900000Y-32310000D03*
G04 #@! TD*
D19*
G04 #@! TO.P,JP2,3*
G04 #@! TO.N,+5V*
X28000000Y-22240000D03*
G04 #@! TO.P,JP2,2*
G04 #@! TO.N,Net-(J3-Pad1)*
X28000000Y-19700000D03*
D18*
G04 #@! TO.P,JP2,1*
G04 #@! TO.N,+5VP*
X28000000Y-17160000D03*
G04 #@! TD*
D19*
G04 #@! TO.P,JP3,3*
G04 #@! TO.N,Net-(JP3-Pad3)*
X31360000Y-42400000D03*
G04 #@! TO.P,JP3,2*
G04 #@! TO.N,~PS_ON*
X33900000Y-42400000D03*
D18*
G04 #@! TO.P,JP3,1*
G04 #@! TO.N,~ps_on_ext*
X36440000Y-42400000D03*
G04 #@! TD*
D21*
G04 #@! TO.P,Q1,2*
G04 #@! TO.N,Net-(Q1-Pad2)*
X32330000Y-47770000D03*
G04 #@! TO.P,Q1,3*
G04 #@! TO.N,Net-(JP3-Pad3)*
X31060000Y-46500000D03*
D22*
G04 #@! TO.P,Q1,1*
G04 #@! TO.N,GND*
X33600000Y-46500000D03*
D15*
G04 #@! TD*
G04 #@! TO.N,GND*
G04 #@! TO.C,Q1*
G36*
X33400000Y-47150000D02*
X32950000Y-46700000D01*
X32950000Y-45850000D01*
X34250000Y-45850000D01*
X34250000Y-47150000D01*
X33400000Y-47150000D01*
X33400000Y-47150000D01*
G37*
D23*
G04 #@! TO.P,J6,2*
G04 #@! TO.N,+12V*
X45100000Y-6800000D03*
D15*
G04 #@! TD*
G04 #@! TO.N,GND*
G04 #@! TO.C,J6*
G36*
X50874504Y-5001204D02*
X50898773Y-5004804D01*
X50922571Y-5010765D01*
X50945671Y-5019030D01*
X50967849Y-5029520D01*
X50988893Y-5042133D01*
X51008598Y-5056747D01*
X51026777Y-5073223D01*
X51043253Y-5091402D01*
X51057867Y-5111107D01*
X51070480Y-5132151D01*
X51080970Y-5154329D01*
X51089235Y-5177429D01*
X51095196Y-5201227D01*
X51098796Y-5225496D01*
X51100000Y-5250000D01*
X51100000Y-8350000D01*
X51098796Y-8374504D01*
X51095196Y-8398773D01*
X51089235Y-8422571D01*
X51080970Y-8445671D01*
X51070480Y-8467849D01*
X51057867Y-8488893D01*
X51043253Y-8508598D01*
X51026777Y-8526777D01*
X51008598Y-8543253D01*
X50988893Y-8557867D01*
X50967849Y-8570480D01*
X50945671Y-8580970D01*
X50922571Y-8589235D01*
X50898773Y-8595196D01*
X50874504Y-8598796D01*
X50850000Y-8600000D01*
X49350000Y-8600000D01*
X49325496Y-8598796D01*
X49301227Y-8595196D01*
X49277429Y-8589235D01*
X49254329Y-8580970D01*
X49232151Y-8570480D01*
X49211107Y-8557867D01*
X49191402Y-8543253D01*
X49173223Y-8526777D01*
X49156747Y-8508598D01*
X49142133Y-8488893D01*
X49129520Y-8467849D01*
X49119030Y-8445671D01*
X49110765Y-8422571D01*
X49104804Y-8398773D01*
X49101204Y-8374504D01*
X49100000Y-8350000D01*
X49100000Y-5250000D01*
X49101204Y-5225496D01*
X49104804Y-5201227D01*
X49110765Y-5177429D01*
X49119030Y-5154329D01*
X49129520Y-5132151D01*
X49142133Y-5111107D01*
X49156747Y-5091402D01*
X49173223Y-5073223D01*
X49191402Y-5056747D01*
X49211107Y-5042133D01*
X49232151Y-5029520D01*
X49254329Y-5019030D01*
X49277429Y-5010765D01*
X49301227Y-5004804D01*
X49325496Y-5001204D01*
X49350000Y-5000000D01*
X50850000Y-5000000D01*
X50874504Y-5001204D01*
X50874504Y-5001204D01*
G37*
D24*
G04 #@! TO.P,J6,1*
G04 #@! TO.N,GND*
X50100000Y-6800000D03*
G04 #@! TD*
D15*
G04 #@! TO.N,GND*
G04 #@! TO.C,J8*
G36*
X24874504Y-5001204D02*
X24898773Y-5004804D01*
X24922571Y-5010765D01*
X24945671Y-5019030D01*
X24967849Y-5029520D01*
X24988893Y-5042133D01*
X25008598Y-5056747D01*
X25026777Y-5073223D01*
X25043253Y-5091402D01*
X25057867Y-5111107D01*
X25070480Y-5132151D01*
X25080970Y-5154329D01*
X25089235Y-5177429D01*
X25095196Y-5201227D01*
X25098796Y-5225496D01*
X25100000Y-5250000D01*
X25100000Y-8350000D01*
X25098796Y-8374504D01*
X25095196Y-8398773D01*
X25089235Y-8422571D01*
X25080970Y-8445671D01*
X25070480Y-8467849D01*
X25057867Y-8488893D01*
X25043253Y-8508598D01*
X25026777Y-8526777D01*
X25008598Y-8543253D01*
X24988893Y-8557867D01*
X24967849Y-8570480D01*
X24945671Y-8580970D01*
X24922571Y-8589235D01*
X24898773Y-8595196D01*
X24874504Y-8598796D01*
X24850000Y-8600000D01*
X23350000Y-8600000D01*
X23325496Y-8598796D01*
X23301227Y-8595196D01*
X23277429Y-8589235D01*
X23254329Y-8580970D01*
X23232151Y-8570480D01*
X23211107Y-8557867D01*
X23191402Y-8543253D01*
X23173223Y-8526777D01*
X23156747Y-8508598D01*
X23142133Y-8488893D01*
X23129520Y-8467849D01*
X23119030Y-8445671D01*
X23110765Y-8422571D01*
X23104804Y-8398773D01*
X23101204Y-8374504D01*
X23100000Y-8350000D01*
X23100000Y-5250000D01*
X23101204Y-5225496D01*
X23104804Y-5201227D01*
X23110765Y-5177429D01*
X23119030Y-5154329D01*
X23129520Y-5132151D01*
X23142133Y-5111107D01*
X23156747Y-5091402D01*
X23173223Y-5073223D01*
X23191402Y-5056747D01*
X23211107Y-5042133D01*
X23232151Y-5029520D01*
X23254329Y-5019030D01*
X23277429Y-5010765D01*
X23301227Y-5004804D01*
X23325496Y-5001204D01*
X23350000Y-5000000D01*
X24850000Y-5000000D01*
X24874504Y-5001204D01*
X24874504Y-5001204D01*
G37*
D24*
G04 #@! TD*
G04 #@! TO.P,J8,1*
G04 #@! TO.N,GND*
X24100000Y-6800000D03*
D23*
G04 #@! TO.P,J8,2*
G04 #@! TO.N,+5V*
X19100000Y-6800000D03*
G04 #@! TD*
G04 #@! TO.P,J9,2*
G04 #@! TO.N,+5VP*
X32100000Y-6800000D03*
D15*
G04 #@! TD*
G04 #@! TO.N,GND*
G04 #@! TO.C,J9*
G36*
X37874504Y-5001204D02*
X37898773Y-5004804D01*
X37922571Y-5010765D01*
X37945671Y-5019030D01*
X37967849Y-5029520D01*
X37988893Y-5042133D01*
X38008598Y-5056747D01*
X38026777Y-5073223D01*
X38043253Y-5091402D01*
X38057867Y-5111107D01*
X38070480Y-5132151D01*
X38080970Y-5154329D01*
X38089235Y-5177429D01*
X38095196Y-5201227D01*
X38098796Y-5225496D01*
X38100000Y-5250000D01*
X38100000Y-8350000D01*
X38098796Y-8374504D01*
X38095196Y-8398773D01*
X38089235Y-8422571D01*
X38080970Y-8445671D01*
X38070480Y-8467849D01*
X38057867Y-8488893D01*
X38043253Y-8508598D01*
X38026777Y-8526777D01*
X38008598Y-8543253D01*
X37988893Y-8557867D01*
X37967849Y-8570480D01*
X37945671Y-8580970D01*
X37922571Y-8589235D01*
X37898773Y-8595196D01*
X37874504Y-8598796D01*
X37850000Y-8600000D01*
X36350000Y-8600000D01*
X36325496Y-8598796D01*
X36301227Y-8595196D01*
X36277429Y-8589235D01*
X36254329Y-8580970D01*
X36232151Y-8570480D01*
X36211107Y-8557867D01*
X36191402Y-8543253D01*
X36173223Y-8526777D01*
X36156747Y-8508598D01*
X36142133Y-8488893D01*
X36129520Y-8467849D01*
X36119030Y-8445671D01*
X36110765Y-8422571D01*
X36104804Y-8398773D01*
X36101204Y-8374504D01*
X36100000Y-8350000D01*
X36100000Y-5250000D01*
X36101204Y-5225496D01*
X36104804Y-5201227D01*
X36110765Y-5177429D01*
X36119030Y-5154329D01*
X36129520Y-5132151D01*
X36142133Y-5111107D01*
X36156747Y-5091402D01*
X36173223Y-5073223D01*
X36191402Y-5056747D01*
X36211107Y-5042133D01*
X36232151Y-5029520D01*
X36254329Y-5019030D01*
X36277429Y-5010765D01*
X36301227Y-5004804D01*
X36325496Y-5001204D01*
X36350000Y-5000000D01*
X37850000Y-5000000D01*
X37874504Y-5001204D01*
X37874504Y-5001204D01*
G37*
D24*
G04 #@! TO.P,J9,1*
G04 #@! TO.N,GND*
X37100000Y-6800000D03*
G04 #@! TD*
D15*
G04 #@! TO.N,GND*
G04 #@! TO.C,J10*
G36*
X11874504Y-5001204D02*
X11898773Y-5004804D01*
X11922571Y-5010765D01*
X11945671Y-5019030D01*
X11967849Y-5029520D01*
X11988893Y-5042133D01*
X12008598Y-5056747D01*
X12026777Y-5073223D01*
X12043253Y-5091402D01*
X12057867Y-5111107D01*
X12070480Y-5132151D01*
X12080970Y-5154329D01*
X12089235Y-5177429D01*
X12095196Y-5201227D01*
X12098796Y-5225496D01*
X12100000Y-5250000D01*
X12100000Y-8350000D01*
X12098796Y-8374504D01*
X12095196Y-8398773D01*
X12089235Y-8422571D01*
X12080970Y-8445671D01*
X12070480Y-8467849D01*
X12057867Y-8488893D01*
X12043253Y-8508598D01*
X12026777Y-8526777D01*
X12008598Y-8543253D01*
X11988893Y-8557867D01*
X11967849Y-8570480D01*
X11945671Y-8580970D01*
X11922571Y-8589235D01*
X11898773Y-8595196D01*
X11874504Y-8598796D01*
X11850000Y-8600000D01*
X10350000Y-8600000D01*
X10325496Y-8598796D01*
X10301227Y-8595196D01*
X10277429Y-8589235D01*
X10254329Y-8580970D01*
X10232151Y-8570480D01*
X10211107Y-8557867D01*
X10191402Y-8543253D01*
X10173223Y-8526777D01*
X10156747Y-8508598D01*
X10142133Y-8488893D01*
X10129520Y-8467849D01*
X10119030Y-8445671D01*
X10110765Y-8422571D01*
X10104804Y-8398773D01*
X10101204Y-8374504D01*
X10100000Y-8350000D01*
X10100000Y-5250000D01*
X10101204Y-5225496D01*
X10104804Y-5201227D01*
X10110765Y-5177429D01*
X10119030Y-5154329D01*
X10129520Y-5132151D01*
X10142133Y-5111107D01*
X10156747Y-5091402D01*
X10173223Y-5073223D01*
X10191402Y-5056747D01*
X10211107Y-5042133D01*
X10232151Y-5029520D01*
X10254329Y-5019030D01*
X10277429Y-5010765D01*
X10301227Y-5004804D01*
X10325496Y-5001204D01*
X10350000Y-5000000D01*
X11850000Y-5000000D01*
X11874504Y-5001204D01*
X11874504Y-5001204D01*
G37*
D24*
G04 #@! TD*
G04 #@! TO.P,J10,1*
G04 #@! TO.N,GND*
X11100000Y-6800000D03*
D23*
G04 #@! TO.P,J10,2*
G04 #@! TO.N,+3V3*
X6100000Y-6800000D03*
G04 #@! TD*
D15*
G04 #@! TO.N,GND*
G04 #@! TO.C,J11*
G36*
X63874504Y-5001204D02*
X63898773Y-5004804D01*
X63922571Y-5010765D01*
X63945671Y-5019030D01*
X63967849Y-5029520D01*
X63988893Y-5042133D01*
X64008598Y-5056747D01*
X64026777Y-5073223D01*
X64043253Y-5091402D01*
X64057867Y-5111107D01*
X64070480Y-5132151D01*
X64080970Y-5154329D01*
X64089235Y-5177429D01*
X64095196Y-5201227D01*
X64098796Y-5225496D01*
X64100000Y-5250000D01*
X64100000Y-8350000D01*
X64098796Y-8374504D01*
X64095196Y-8398773D01*
X64089235Y-8422571D01*
X64080970Y-8445671D01*
X64070480Y-8467849D01*
X64057867Y-8488893D01*
X64043253Y-8508598D01*
X64026777Y-8526777D01*
X64008598Y-8543253D01*
X63988893Y-8557867D01*
X63967849Y-8570480D01*
X63945671Y-8580970D01*
X63922571Y-8589235D01*
X63898773Y-8595196D01*
X63874504Y-8598796D01*
X63850000Y-8600000D01*
X62350000Y-8600000D01*
X62325496Y-8598796D01*
X62301227Y-8595196D01*
X62277429Y-8589235D01*
X62254329Y-8580970D01*
X62232151Y-8570480D01*
X62211107Y-8557867D01*
X62191402Y-8543253D01*
X62173223Y-8526777D01*
X62156747Y-8508598D01*
X62142133Y-8488893D01*
X62129520Y-8467849D01*
X62119030Y-8445671D01*
X62110765Y-8422571D01*
X62104804Y-8398773D01*
X62101204Y-8374504D01*
X62100000Y-8350000D01*
X62100000Y-5250000D01*
X62101204Y-5225496D01*
X62104804Y-5201227D01*
X62110765Y-5177429D01*
X62119030Y-5154329D01*
X62129520Y-5132151D01*
X62142133Y-5111107D01*
X62156747Y-5091402D01*
X62173223Y-5073223D01*
X62191402Y-5056747D01*
X62211107Y-5042133D01*
X62232151Y-5029520D01*
X62254329Y-5019030D01*
X62277429Y-5010765D01*
X62301227Y-5004804D01*
X62325496Y-5001204D01*
X62350000Y-5000000D01*
X63850000Y-5000000D01*
X63874504Y-5001204D01*
X63874504Y-5001204D01*
G37*
D24*
G04 #@! TD*
G04 #@! TO.P,J11,1*
G04 #@! TO.N,GND*
X63100000Y-6800000D03*
D23*
G04 #@! TO.P,J11,2*
G04 #@! TO.N,+12V*
X58100000Y-6800000D03*
G04 #@! TD*
D11*
G04 #@! TO.P,R1,1*
G04 #@! TO.N,Net-(J4-Pad11)*
X44500000Y-48000000D03*
D10*
G04 #@! TO.P,R1,2*
G04 #@! TO.N,P_GOOD*
X44500000Y-40380000D03*
G04 #@! TD*
G04 #@! TO.P,R2,2*
G04 #@! TO.N,Net-(J4-Pad11)*
X48020000Y-50900000D03*
D11*
G04 #@! TO.P,R2,1*
G04 #@! TO.N,GND*
X40400000Y-50900000D03*
G04 #@! TD*
G04 #@! TO.P,R3,1*
G04 #@! TO.N,Net-(Q1-Pad2)*
X30600000Y-50900000D03*
D10*
G04 #@! TO.P,R3,2*
G04 #@! TO.N,GND*
X38220000Y-50900000D03*
G04 #@! TD*
D11*
G04 #@! TO.P,R5,1*
G04 #@! TO.N,/SCL*
X50180000Y-50900000D03*
D10*
G04 #@! TO.P,R5,2*
G04 #@! TO.N,/3v3_rpi*
X57800000Y-50900000D03*
G04 #@! TD*
G04 #@! TO.P,R6,2*
G04 #@! TO.N,/SDA*
X50180000Y-47800000D03*
D11*
G04 #@! TO.P,R6,1*
G04 #@! TO.N,/3v3_rpi*
X57800000Y-47800000D03*
G04 #@! TD*
D15*
G04 #@! TO.N,GND*
G04 #@! TO.C,J12*
G36*
X59604504Y-18191204D02*
X59628773Y-18194804D01*
X59652571Y-18200765D01*
X59675671Y-18209030D01*
X59697849Y-18219520D01*
X59718893Y-18232133D01*
X59738598Y-18246747D01*
X59756777Y-18263223D01*
X59773253Y-18281402D01*
X59787867Y-18301107D01*
X59800480Y-18322151D01*
X59810970Y-18344329D01*
X59819235Y-18367429D01*
X59825196Y-18391227D01*
X59828796Y-18415496D01*
X59830000Y-18440000D01*
X59830000Y-19940000D01*
X59828796Y-19964504D01*
X59825196Y-19988773D01*
X59819235Y-20012571D01*
X59810970Y-20035671D01*
X59800480Y-20057849D01*
X59787867Y-20078893D01*
X59773253Y-20098598D01*
X59756777Y-20116777D01*
X59738598Y-20133253D01*
X59718893Y-20147867D01*
X59697849Y-20160480D01*
X59675671Y-20170970D01*
X59652571Y-20179235D01*
X59628773Y-20185196D01*
X59604504Y-20188796D01*
X59580000Y-20190000D01*
X56480000Y-20190000D01*
X56455496Y-20188796D01*
X56431227Y-20185196D01*
X56407429Y-20179235D01*
X56384329Y-20170970D01*
X56362151Y-20160480D01*
X56341107Y-20147867D01*
X56321402Y-20133253D01*
X56303223Y-20116777D01*
X56286747Y-20098598D01*
X56272133Y-20078893D01*
X56259520Y-20057849D01*
X56249030Y-20035671D01*
X56240765Y-20012571D01*
X56234804Y-19988773D01*
X56231204Y-19964504D01*
X56230000Y-19940000D01*
X56230000Y-18440000D01*
X56231204Y-18415496D01*
X56234804Y-18391227D01*
X56240765Y-18367429D01*
X56249030Y-18344329D01*
X56259520Y-18322151D01*
X56272133Y-18301107D01*
X56286747Y-18281402D01*
X56303223Y-18263223D01*
X56321402Y-18246747D01*
X56341107Y-18232133D01*
X56362151Y-18219520D01*
X56384329Y-18209030D01*
X56407429Y-18200765D01*
X56431227Y-18194804D01*
X56455496Y-18191204D01*
X56480000Y-18190000D01*
X59580000Y-18190000D01*
X59604504Y-18191204D01*
X59604504Y-18191204D01*
G37*
D24*
G04 #@! TD*
G04 #@! TO.P,J12,1*
G04 #@! TO.N,GND*
X58030000Y-19190000D03*
D25*
G04 #@! TO.P,J12,2*
G04 #@! TO.N,+12V*
X58030000Y-14190000D03*
G04 #@! TD*
D18*
G04 #@! TO.P,J13,1*
G04 #@! TO.N,GND*
X3600000Y-45900000D03*
D19*
G04 #@! TO.P,J13,2*
G04 #@! TO.N,Net-(J13-Pad2)*
X6140000Y-45900000D03*
G04 #@! TD*
D26*
G04 #@! TO.N,GND*
X49600000Y-40600000D03*
X52000000Y-40600000D03*
X47200000Y-40600000D03*
X49600000Y-44200000D03*
X25900000Y-41400000D03*
X24600000Y-50900000D03*
X3000000Y-40400000D03*
X5500000Y-40400000D03*
X8000000Y-40400000D03*
X3000000Y-42900000D03*
X5500000Y-42900000D03*
X8000000Y-42900000D03*
X21200000Y-23200000D03*
X18700000Y-23200000D03*
X16200000Y-23200000D03*
X10200000Y-3200000D03*
X12700000Y-3200000D03*
X15200000Y-3200000D03*
X17700000Y-3200000D03*
X20200000Y-3200000D03*
X22700000Y-3200000D03*
X25200000Y-3200000D03*
X27700000Y-3200000D03*
X30200000Y-3200000D03*
X32700000Y-3200000D03*
X35200000Y-3200000D03*
X37700000Y-3200000D03*
X62700000Y-3200000D03*
X65200000Y-3200000D03*
X40200000Y-3200000D03*
X42700000Y-3200000D03*
X45200000Y-3200000D03*
X47700000Y-3200000D03*
X50200000Y-3200000D03*
X52700000Y-3200000D03*
X55200000Y-3200000D03*
X57700000Y-3200000D03*
X60200000Y-3200000D03*
X35800000Y-15200000D03*
X35800000Y-17700000D03*
X35800000Y-20200000D03*
X29400000Y-9300000D03*
X29400000Y-11800000D03*
X29400000Y-14300000D03*
X49200000Y-25100000D03*
X51700000Y-25100000D03*
X54200000Y-25100000D03*
X53500000Y-35900000D03*
X53500000Y-33400000D03*
X53500000Y-30900000D03*
X38200000Y-47100000D03*
X22300000Y-51000000D03*
X18900000Y-51000000D03*
X15200000Y-51000000D03*
G04 #@! TD*
D27*
G04 #@! TO.N,/5v_rpi*
X58102081Y-34850000D02*
X59300000Y-33652081D01*
X56900000Y-34850000D02*
X58102081Y-34850000D01*
X59500000Y-32300000D02*
X61550000Y-32300000D01*
X59300000Y-32500000D02*
X59500000Y-32300000D01*
X59300000Y-33652081D02*
X59300000Y-32500000D01*
X63600000Y-32300000D02*
X61550000Y-32300000D01*
X64300000Y-33000000D02*
X63600000Y-32300000D01*
X64300000Y-50000000D02*
X64300000Y-33000000D01*
X57074999Y-56805001D02*
X59194999Y-56805001D01*
X59194999Y-56805001D02*
X60000000Y-56000000D01*
X60000000Y-54300000D02*
X64300000Y-50000000D01*
X60000000Y-56000000D02*
X60000000Y-54300000D01*
D28*
G04 #@! TO.N,/3v3_rpi*
X36754999Y-54265001D02*
X38039998Y-55550000D01*
X38039998Y-55550000D02*
X55750000Y-55550000D01*
X57000000Y-54300000D02*
X57050000Y-54300000D01*
X55750000Y-55550000D02*
X57000000Y-54300000D01*
D29*
G04 #@! TO.N,GND*
X7400000Y-10000000D02*
X7300000Y-9900000D01*
X11100000Y-10000000D02*
X11300000Y-9800000D01*
X11400000Y-13000000D02*
X11400000Y-13100000D01*
X6900000Y-13500000D02*
X7200000Y-13200000D01*
D30*
X11700000Y-35400000D02*
X11700000Y-29900000D01*
X20100000Y-35400000D02*
X20100000Y-29900000D01*
X20100000Y-35400000D02*
X24300000Y-35400000D01*
X28500000Y-35400000D02*
X28500000Y-29900000D01*
X11700000Y-35400000D02*
X11700000Y-37450000D01*
X11700000Y-37450000D02*
X13700000Y-39450000D01*
X20100000Y-35400000D02*
X20100000Y-37450000D01*
X20100000Y-37450000D02*
X18100000Y-39450000D01*
X18100000Y-39450000D02*
X13700000Y-39450000D01*
D31*
X11700000Y-29900000D02*
X11700000Y-27400000D01*
X28500000Y-35400000D02*
X28500000Y-37700000D01*
X24300000Y-35400000D02*
X24300000Y-37700000D01*
D30*
X24300000Y-35400000D02*
X28500000Y-35400000D01*
X9290000Y-11730000D02*
X14170000Y-11730000D01*
X9290000Y-11730000D02*
X6630000Y-11730000D01*
X7168680Y-24870000D02*
X7098680Y-24800000D01*
X9290000Y-24870000D02*
X7168680Y-24870000D01*
X11411320Y-24870000D02*
X11481320Y-24800000D01*
X9290000Y-24870000D02*
X11411320Y-24870000D01*
X53450000Y-35400000D02*
X53500000Y-35350000D01*
X49500000Y-35400000D02*
X53450000Y-35400000D01*
X49500000Y-35400000D02*
X49500000Y-33600000D01*
X49500000Y-35400000D02*
X51300000Y-33600000D01*
G04 #@! TO.N,+12V*
X41100000Y-29900000D02*
X45300000Y-29900000D01*
X45300000Y-19500000D02*
X45250000Y-19450000D01*
X45300000Y-29900000D02*
X45300000Y-19500000D01*
X45250000Y-19450000D02*
X45250000Y-15250000D01*
X58100000Y-14120000D02*
X58030000Y-14190000D01*
X46310000Y-14190000D02*
X45250000Y-15250000D01*
X58030000Y-14190000D02*
X46310000Y-14190000D01*
X45100000Y-11200000D02*
X45100000Y-12700000D01*
X45100000Y-6800000D02*
X45100000Y-11200000D01*
X58100000Y-11200000D02*
X58100000Y-12600000D01*
X58100000Y-6800000D02*
X58100000Y-11200000D01*
G04 #@! TO.N,+3V3*
X3300000Y-35400000D02*
X3300000Y-29900000D01*
X7500000Y-35400000D02*
X7500000Y-29900000D01*
D31*
X6100000Y-29800000D02*
X6200000Y-29900000D01*
D30*
X3300000Y-29900000D02*
X6200000Y-29900000D01*
X6200000Y-29900000D02*
X7500000Y-29900000D01*
D31*
X3300000Y-9600000D02*
X6100000Y-6800000D01*
X3300000Y-29900000D02*
X3300000Y-9600000D01*
D30*
X3300000Y-35400000D02*
X7500000Y-35400000D01*
G04 #@! TO.N,+5V*
X15900000Y-29900000D02*
X15900000Y-26900000D01*
X15900000Y-26900000D02*
X16700000Y-26100000D01*
X24300000Y-27100000D02*
X24300000Y-29900000D01*
X23300000Y-26100000D02*
X24300000Y-27100000D01*
X16700000Y-26100000D02*
X19100000Y-26100000D01*
X19100000Y-26100000D02*
X23300000Y-26100000D01*
D31*
X28000000Y-22240000D02*
X28000000Y-23442081D01*
X28000000Y-22942081D02*
X28000000Y-26000000D01*
D27*
X55890000Y-38400000D02*
X55380000Y-38400000D01*
D32*
X55890000Y-38400000D02*
X56900000Y-37390000D01*
X55890000Y-38400000D02*
X54600000Y-38400000D01*
X44479998Y-38400000D02*
X54600000Y-38400000D01*
X54600000Y-38400000D02*
X55380000Y-38400000D01*
D31*
X36900000Y-35400000D02*
X36900000Y-37700000D01*
X41100000Y-35400000D02*
X41100000Y-37800000D01*
X45300000Y-35400000D02*
X45300000Y-37600000D01*
X36900000Y-35400000D02*
X36900000Y-33500000D01*
D33*
X36900000Y-33500000D02*
X36100000Y-33500000D01*
X36100000Y-33500000D02*
X34800000Y-32200000D01*
X34800000Y-32200000D02*
X34800000Y-27400000D01*
X36900000Y-33500000D02*
X36100000Y-32700000D01*
X36100000Y-32700000D02*
X31600000Y-32700000D01*
X31600000Y-32700000D02*
X30600000Y-31700000D01*
X36900000Y-33500000D02*
X37000000Y-33500000D01*
X30600000Y-30600000D02*
X30600000Y-27400000D01*
X30600000Y-31700000D02*
X30600000Y-30600000D01*
X30600000Y-37200000D02*
X30600000Y-38100000D01*
X30600000Y-37200000D02*
X30600000Y-37800000D01*
X30600000Y-30600000D02*
X30600000Y-37200000D01*
X30600000Y-38100000D02*
X31000000Y-38500000D01*
D31*
X23800000Y-26600000D02*
X24300000Y-27100000D01*
X23800000Y-15900000D02*
X23800000Y-26600000D01*
X19100000Y-6800000D02*
X19100000Y-11200000D01*
X19100000Y-11200000D02*
X23800000Y-15900000D01*
D28*
G04 #@! TO.N,Net-(J3-Pad2)*
X12000000Y-17300000D02*
X12000000Y-19300000D01*
D34*
G04 #@! TO.N,/SDA*
X54534999Y-52154999D02*
X50180000Y-47800000D01*
X54534999Y-54265001D02*
X54534999Y-52154999D01*
G04 #@! TD*
D35*
G04 #@! TO.N,+5V*
G36*
X39073000Y-25352606D02*
X39073000Y-32100000D01*
X39082667Y-32148601D01*
X39110197Y-32189803D01*
X39710197Y-32789803D01*
X39751399Y-32817333D01*
X39800000Y-32827000D01*
X46047394Y-32827000D01*
X46573000Y-33352606D01*
X46573000Y-33626897D01*
X46403660Y-33456748D01*
X45973399Y-33232713D01*
X45673000Y-33312247D01*
X45673000Y-35027000D01*
X45693000Y-35027000D01*
X45693000Y-35773000D01*
X45673000Y-35773000D01*
X45673000Y-37487753D01*
X45973399Y-37567287D01*
X46403660Y-37343252D01*
X46573000Y-37173103D01*
X46573000Y-38447394D01*
X46047394Y-38973000D01*
X44782098Y-38973000D01*
X44641333Y-38945000D01*
X44358667Y-38945000D01*
X44217902Y-38973000D01*
X31152606Y-38973000D01*
X30627000Y-38447394D01*
X30627000Y-34904498D01*
X30715000Y-34904498D01*
X30715000Y-35895503D01*
X30830171Y-36474508D01*
X31268896Y-37131105D01*
X31925493Y-37569829D01*
X32700000Y-37723888D01*
X33474508Y-37569829D01*
X34131105Y-37131105D01*
X34569829Y-36474508D01*
X34647992Y-36081550D01*
X34957640Y-36081550D01*
X35251506Y-36795815D01*
X35796340Y-37343252D01*
X36226601Y-37567287D01*
X36527000Y-37487753D01*
X36527000Y-35773000D01*
X37273000Y-35773000D01*
X37273000Y-37487753D01*
X37573399Y-37567287D01*
X38003660Y-37343252D01*
X38548494Y-36795815D01*
X38842360Y-36081550D01*
X39157640Y-36081550D01*
X39451506Y-36795815D01*
X39996340Y-37343252D01*
X40426601Y-37567287D01*
X40727000Y-37487753D01*
X40727000Y-35773000D01*
X41473000Y-35773000D01*
X41473000Y-37487753D01*
X41773399Y-37567287D01*
X42203660Y-37343252D01*
X42748494Y-36795815D01*
X43042360Y-36081550D01*
X43357640Y-36081550D01*
X43651506Y-36795815D01*
X44196340Y-37343252D01*
X44626601Y-37567287D01*
X44927000Y-37487753D01*
X44927000Y-35773000D01*
X43480616Y-35773000D01*
X43357640Y-36081550D01*
X43042360Y-36081550D01*
X42919384Y-35773000D01*
X41473000Y-35773000D01*
X40727000Y-35773000D01*
X39280616Y-35773000D01*
X39157640Y-36081550D01*
X38842360Y-36081550D01*
X38719384Y-35773000D01*
X37273000Y-35773000D01*
X36527000Y-35773000D01*
X35080616Y-35773000D01*
X34957640Y-36081550D01*
X34647992Y-36081550D01*
X34685000Y-35895502D01*
X34685000Y-34904497D01*
X34647994Y-34718450D01*
X34957640Y-34718450D01*
X35080616Y-35027000D01*
X36527000Y-35027000D01*
X36527000Y-33312247D01*
X37273000Y-33312247D01*
X37273000Y-35027000D01*
X38719384Y-35027000D01*
X38842360Y-34718450D01*
X39157640Y-34718450D01*
X39280616Y-35027000D01*
X40727000Y-35027000D01*
X40727000Y-33312247D01*
X41473000Y-33312247D01*
X41473000Y-35027000D01*
X42919384Y-35027000D01*
X43042360Y-34718450D01*
X43357640Y-34718450D01*
X43480616Y-35027000D01*
X44927000Y-35027000D01*
X44927000Y-33312247D01*
X44626601Y-33232713D01*
X44196340Y-33456748D01*
X43651506Y-34004185D01*
X43357640Y-34718450D01*
X43042360Y-34718450D01*
X42748494Y-34004185D01*
X42203660Y-33456748D01*
X41773399Y-33232713D01*
X41473000Y-33312247D01*
X40727000Y-33312247D01*
X40426601Y-33232713D01*
X39996340Y-33456748D01*
X39451506Y-34004185D01*
X39157640Y-34718450D01*
X38842360Y-34718450D01*
X38548494Y-34004185D01*
X38003660Y-33456748D01*
X37573399Y-33232713D01*
X37273000Y-33312247D01*
X36527000Y-33312247D01*
X36226601Y-33232713D01*
X35796340Y-33456748D01*
X35251506Y-34004185D01*
X34957640Y-34718450D01*
X34647994Y-34718450D01*
X34569829Y-34325492D01*
X34131105Y-33668895D01*
X33474507Y-33230171D01*
X32700000Y-33076112D01*
X31925492Y-33230171D01*
X31268895Y-33668895D01*
X30830171Y-34325493D01*
X30715000Y-34904498D01*
X30627000Y-34904498D01*
X30627000Y-33100000D01*
X30617333Y-33051399D01*
X30589803Y-33010197D01*
X30435000Y-32855394D01*
X30435000Y-30646870D01*
X30485000Y-30395502D01*
X30485000Y-29404498D01*
X30715000Y-29404498D01*
X30715000Y-30395503D01*
X30830171Y-30974508D01*
X31268896Y-31631105D01*
X31925493Y-32069829D01*
X32700000Y-32223888D01*
X33474508Y-32069829D01*
X34131105Y-31631105D01*
X34569829Y-30974508D01*
X34685000Y-30395502D01*
X34685000Y-29404498D01*
X34915000Y-29404498D01*
X34915000Y-30395503D01*
X35030171Y-30974508D01*
X35468896Y-31631105D01*
X36125493Y-32069829D01*
X36900000Y-32223888D01*
X37674508Y-32069829D01*
X38331105Y-31631105D01*
X38769829Y-30974508D01*
X38885000Y-30395502D01*
X38885000Y-29404497D01*
X38769829Y-28825492D01*
X38331105Y-28168895D01*
X37674507Y-27730171D01*
X36900000Y-27576112D01*
X36125492Y-27730171D01*
X35468895Y-28168895D01*
X35030171Y-28825493D01*
X34915000Y-29404498D01*
X34685000Y-29404498D01*
X34685000Y-29404497D01*
X34569829Y-28825492D01*
X34131105Y-28168895D01*
X33474507Y-27730171D01*
X32700000Y-27576112D01*
X31925492Y-27730171D01*
X31268895Y-28168895D01*
X30830171Y-28825493D01*
X30715000Y-29404498D01*
X30485000Y-29404498D01*
X30485000Y-29404497D01*
X30369829Y-28825492D01*
X29931105Y-28168895D01*
X29274507Y-27730171D01*
X28500000Y-27576112D01*
X27725492Y-27730171D01*
X27068895Y-28168895D01*
X26630171Y-28825493D01*
X26515000Y-29404498D01*
X26515000Y-30395503D01*
X26565001Y-30646875D01*
X26565000Y-32573000D01*
X22035000Y-32573000D01*
X22035000Y-30646870D01*
X22047992Y-30581550D01*
X22357640Y-30581550D01*
X22651506Y-31295815D01*
X23196340Y-31843252D01*
X23626601Y-32067287D01*
X23927000Y-31987753D01*
X23927000Y-30273000D01*
X24673000Y-30273000D01*
X24673000Y-31987753D01*
X24973399Y-32067287D01*
X25403660Y-31843252D01*
X25948494Y-31295815D01*
X26242360Y-30581550D01*
X26119384Y-30273000D01*
X24673000Y-30273000D01*
X23927000Y-30273000D01*
X22480616Y-30273000D01*
X22357640Y-30581550D01*
X22047992Y-30581550D01*
X22085000Y-30395502D01*
X22085000Y-29404497D01*
X22047994Y-29218450D01*
X22357640Y-29218450D01*
X22480616Y-29527000D01*
X23927000Y-29527000D01*
X23927000Y-27812247D01*
X24673000Y-27812247D01*
X24673000Y-29527000D01*
X26119384Y-29527000D01*
X26242360Y-29218450D01*
X25948494Y-28504185D01*
X25403660Y-27956748D01*
X24973399Y-27732713D01*
X24673000Y-27812247D01*
X23927000Y-27812247D01*
X23626601Y-27732713D01*
X23196340Y-27956748D01*
X22651506Y-28504185D01*
X22357640Y-29218450D01*
X22047994Y-29218450D01*
X21969829Y-28825492D01*
X21531105Y-28168895D01*
X20874507Y-27730171D01*
X20100000Y-27576112D01*
X19325492Y-27730171D01*
X18668895Y-28168895D01*
X18230171Y-28825493D01*
X18115000Y-29404498D01*
X18115000Y-30395503D01*
X18165001Y-30646875D01*
X18165001Y-32573000D01*
X14752606Y-32573000D01*
X14227000Y-32047394D01*
X14227000Y-31236251D01*
X14251506Y-31295815D01*
X14796340Y-31843252D01*
X15226601Y-32067287D01*
X15527000Y-31987753D01*
X15527000Y-30273000D01*
X16273000Y-30273000D01*
X16273000Y-31987753D01*
X16573399Y-32067287D01*
X17003660Y-31843252D01*
X17548494Y-31295815D01*
X17842360Y-30581550D01*
X17719384Y-30273000D01*
X16273000Y-30273000D01*
X15527000Y-30273000D01*
X15507000Y-30273000D01*
X15507000Y-29527000D01*
X15527000Y-29527000D01*
X15527000Y-27812247D01*
X16273000Y-27812247D01*
X16273000Y-29527000D01*
X17719384Y-29527000D01*
X17842360Y-29218450D01*
X17548494Y-28504185D01*
X17003660Y-27956748D01*
X16573399Y-27732713D01*
X16273000Y-27812247D01*
X15527000Y-27812247D01*
X15226601Y-27732713D01*
X14796340Y-27956748D01*
X14251506Y-28504185D01*
X14227000Y-28563749D01*
X14227000Y-25352606D01*
X14752606Y-24827000D01*
X38547394Y-24827000D01*
X39073000Y-25352606D01*
X39073000Y-25352606D01*
G37*
X39073000Y-25352606D02*
X39073000Y-32100000D01*
X39082667Y-32148601D01*
X39110197Y-32189803D01*
X39710197Y-32789803D01*
X39751399Y-32817333D01*
X39800000Y-32827000D01*
X46047394Y-32827000D01*
X46573000Y-33352606D01*
X46573000Y-33626897D01*
X46403660Y-33456748D01*
X45973399Y-33232713D01*
X45673000Y-33312247D01*
X45673000Y-35027000D01*
X45693000Y-35027000D01*
X45693000Y-35773000D01*
X45673000Y-35773000D01*
X45673000Y-37487753D01*
X45973399Y-37567287D01*
X46403660Y-37343252D01*
X46573000Y-37173103D01*
X46573000Y-38447394D01*
X46047394Y-38973000D01*
X44782098Y-38973000D01*
X44641333Y-38945000D01*
X44358667Y-38945000D01*
X44217902Y-38973000D01*
X31152606Y-38973000D01*
X30627000Y-38447394D01*
X30627000Y-34904498D01*
X30715000Y-34904498D01*
X30715000Y-35895503D01*
X30830171Y-36474508D01*
X31268896Y-37131105D01*
X31925493Y-37569829D01*
X32700000Y-37723888D01*
X33474508Y-37569829D01*
X34131105Y-37131105D01*
X34569829Y-36474508D01*
X34647992Y-36081550D01*
X34957640Y-36081550D01*
X35251506Y-36795815D01*
X35796340Y-37343252D01*
X36226601Y-37567287D01*
X36527000Y-37487753D01*
X36527000Y-35773000D01*
X37273000Y-35773000D01*
X37273000Y-37487753D01*
X37573399Y-37567287D01*
X38003660Y-37343252D01*
X38548494Y-36795815D01*
X38842360Y-36081550D01*
X39157640Y-36081550D01*
X39451506Y-36795815D01*
X39996340Y-37343252D01*
X40426601Y-37567287D01*
X40727000Y-37487753D01*
X40727000Y-35773000D01*
X41473000Y-35773000D01*
X41473000Y-37487753D01*
X41773399Y-37567287D01*
X42203660Y-37343252D01*
X42748494Y-36795815D01*
X43042360Y-36081550D01*
X43357640Y-36081550D01*
X43651506Y-36795815D01*
X44196340Y-37343252D01*
X44626601Y-37567287D01*
X44927000Y-37487753D01*
X44927000Y-35773000D01*
X43480616Y-35773000D01*
X43357640Y-36081550D01*
X43042360Y-36081550D01*
X42919384Y-35773000D01*
X41473000Y-35773000D01*
X40727000Y-35773000D01*
X39280616Y-35773000D01*
X39157640Y-36081550D01*
X38842360Y-36081550D01*
X38719384Y-35773000D01*
X37273000Y-35773000D01*
X36527000Y-35773000D01*
X35080616Y-35773000D01*
X34957640Y-36081550D01*
X34647992Y-36081550D01*
X34685000Y-35895502D01*
X34685000Y-34904497D01*
X34647994Y-34718450D01*
X34957640Y-34718450D01*
X35080616Y-35027000D01*
X36527000Y-35027000D01*
X36527000Y-33312247D01*
X37273000Y-33312247D01*
X37273000Y-35027000D01*
X38719384Y-35027000D01*
X38842360Y-34718450D01*
X39157640Y-34718450D01*
X39280616Y-35027000D01*
X40727000Y-35027000D01*
X40727000Y-33312247D01*
X41473000Y-33312247D01*
X41473000Y-35027000D01*
X42919384Y-35027000D01*
X43042360Y-34718450D01*
X43357640Y-34718450D01*
X43480616Y-35027000D01*
X44927000Y-35027000D01*
X44927000Y-33312247D01*
X44626601Y-33232713D01*
X44196340Y-33456748D01*
X43651506Y-34004185D01*
X43357640Y-34718450D01*
X43042360Y-34718450D01*
X42748494Y-34004185D01*
X42203660Y-33456748D01*
X41773399Y-33232713D01*
X41473000Y-33312247D01*
X40727000Y-33312247D01*
X40426601Y-33232713D01*
X39996340Y-33456748D01*
X39451506Y-34004185D01*
X39157640Y-34718450D01*
X38842360Y-34718450D01*
X38548494Y-34004185D01*
X38003660Y-33456748D01*
X37573399Y-33232713D01*
X37273000Y-33312247D01*
X36527000Y-33312247D01*
X36226601Y-33232713D01*
X35796340Y-33456748D01*
X35251506Y-34004185D01*
X34957640Y-34718450D01*
X34647994Y-34718450D01*
X34569829Y-34325492D01*
X34131105Y-33668895D01*
X33474507Y-33230171D01*
X32700000Y-33076112D01*
X31925492Y-33230171D01*
X31268895Y-33668895D01*
X30830171Y-34325493D01*
X30715000Y-34904498D01*
X30627000Y-34904498D01*
X30627000Y-33100000D01*
X30617333Y-33051399D01*
X30589803Y-33010197D01*
X30435000Y-32855394D01*
X30435000Y-30646870D01*
X30485000Y-30395502D01*
X30485000Y-29404498D01*
X30715000Y-29404498D01*
X30715000Y-30395503D01*
X30830171Y-30974508D01*
X31268896Y-31631105D01*
X31925493Y-32069829D01*
X32700000Y-32223888D01*
X33474508Y-32069829D01*
X34131105Y-31631105D01*
X34569829Y-30974508D01*
X34685000Y-30395502D01*
X34685000Y-29404498D01*
X34915000Y-29404498D01*
X34915000Y-30395503D01*
X35030171Y-30974508D01*
X35468896Y-31631105D01*
X36125493Y-32069829D01*
X36900000Y-32223888D01*
X37674508Y-32069829D01*
X38331105Y-31631105D01*
X38769829Y-30974508D01*
X38885000Y-30395502D01*
X38885000Y-29404497D01*
X38769829Y-28825492D01*
X38331105Y-28168895D01*
X37674507Y-27730171D01*
X36900000Y-27576112D01*
X36125492Y-27730171D01*
X35468895Y-28168895D01*
X35030171Y-28825493D01*
X34915000Y-29404498D01*
X34685000Y-29404498D01*
X34685000Y-29404497D01*
X34569829Y-28825492D01*
X34131105Y-28168895D01*
X33474507Y-27730171D01*
X32700000Y-27576112D01*
X31925492Y-27730171D01*
X31268895Y-28168895D01*
X30830171Y-28825493D01*
X30715000Y-29404498D01*
X30485000Y-29404498D01*
X30485000Y-29404497D01*
X30369829Y-28825492D01*
X29931105Y-28168895D01*
X29274507Y-27730171D01*
X28500000Y-27576112D01*
X27725492Y-27730171D01*
X27068895Y-28168895D01*
X26630171Y-28825493D01*
X26515000Y-29404498D01*
X26515000Y-30395503D01*
X26565001Y-30646875D01*
X26565000Y-32573000D01*
X22035000Y-32573000D01*
X22035000Y-30646870D01*
X22047992Y-30581550D01*
X22357640Y-30581550D01*
X22651506Y-31295815D01*
X23196340Y-31843252D01*
X23626601Y-32067287D01*
X23927000Y-31987753D01*
X23927000Y-30273000D01*
X24673000Y-30273000D01*
X24673000Y-31987753D01*
X24973399Y-32067287D01*
X25403660Y-31843252D01*
X25948494Y-31295815D01*
X26242360Y-30581550D01*
X26119384Y-30273000D01*
X24673000Y-30273000D01*
X23927000Y-30273000D01*
X22480616Y-30273000D01*
X22357640Y-30581550D01*
X22047992Y-30581550D01*
X22085000Y-30395502D01*
X22085000Y-29404497D01*
X22047994Y-29218450D01*
X22357640Y-29218450D01*
X22480616Y-29527000D01*
X23927000Y-29527000D01*
X23927000Y-27812247D01*
X24673000Y-27812247D01*
X24673000Y-29527000D01*
X26119384Y-29527000D01*
X26242360Y-29218450D01*
X25948494Y-28504185D01*
X25403660Y-27956748D01*
X24973399Y-27732713D01*
X24673000Y-27812247D01*
X23927000Y-27812247D01*
X23626601Y-27732713D01*
X23196340Y-27956748D01*
X22651506Y-28504185D01*
X22357640Y-29218450D01*
X22047994Y-29218450D01*
X21969829Y-28825492D01*
X21531105Y-28168895D01*
X20874507Y-27730171D01*
X20100000Y-27576112D01*
X19325492Y-27730171D01*
X18668895Y-28168895D01*
X18230171Y-28825493D01*
X18115000Y-29404498D01*
X18115000Y-30395503D01*
X18165001Y-30646875D01*
X18165001Y-32573000D01*
X14752606Y-32573000D01*
X14227000Y-32047394D01*
X14227000Y-31236251D01*
X14251506Y-31295815D01*
X14796340Y-31843252D01*
X15226601Y-32067287D01*
X15527000Y-31987753D01*
X15527000Y-30273000D01*
X16273000Y-30273000D01*
X16273000Y-31987753D01*
X16573399Y-32067287D01*
X17003660Y-31843252D01*
X17548494Y-31295815D01*
X17842360Y-30581550D01*
X17719384Y-30273000D01*
X16273000Y-30273000D01*
X15527000Y-30273000D01*
X15507000Y-30273000D01*
X15507000Y-29527000D01*
X15527000Y-29527000D01*
X15527000Y-27812247D01*
X16273000Y-27812247D01*
X16273000Y-29527000D01*
X17719384Y-29527000D01*
X17842360Y-29218450D01*
X17548494Y-28504185D01*
X17003660Y-27956748D01*
X16573399Y-27732713D01*
X16273000Y-27812247D01*
X15527000Y-27812247D01*
X15226601Y-27732713D01*
X14796340Y-27956748D01*
X14251506Y-28504185D01*
X14227000Y-28563749D01*
X14227000Y-25352606D01*
X14752606Y-24827000D01*
X38547394Y-24827000D01*
X39073000Y-25352606D01*
D36*
G04 #@! TO.N,GND*
G36*
X66300001Y-21375000D02*
X51108884Y-21375000D01*
X55758884Y-16725000D01*
X60300000Y-16725000D01*
X60539177Y-16677425D01*
X60741942Y-16541942D01*
X60877425Y-16339177D01*
X60925000Y-16100000D01*
X60925000Y-12200000D01*
X60877425Y-11960823D01*
X60741942Y-11758058D01*
X60539177Y-11622575D01*
X60300000Y-11575000D01*
X60025000Y-11575000D01*
X60025000Y-6610410D01*
X59913309Y-6048903D01*
X59704359Y-5736187D01*
X59630716Y-5365957D01*
X59271559Y-4828441D01*
X58734043Y-4469284D01*
X58100000Y-4343165D01*
X57465958Y-4469284D01*
X56928442Y-4828441D01*
X56569285Y-5365957D01*
X56495641Y-5736187D01*
X56286691Y-6048904D01*
X56175000Y-6610411D01*
X56175001Y-11010406D01*
X56175000Y-11010411D01*
X56175000Y-11575000D01*
X47025000Y-11575000D01*
X47025000Y-6610410D01*
X46913309Y-6048903D01*
X46704359Y-5736187D01*
X46630716Y-5365957D01*
X46271559Y-4828441D01*
X45734043Y-4469284D01*
X45100000Y-4343165D01*
X44465958Y-4469284D01*
X43928442Y-4828441D01*
X43569285Y-5365957D01*
X43495641Y-5736187D01*
X43286691Y-6048904D01*
X43175000Y-6610411D01*
X43175001Y-11010406D01*
X43175000Y-11010411D01*
X43175000Y-11575000D01*
X42800000Y-11575000D01*
X42560823Y-11622575D01*
X42358058Y-11758058D01*
X42222575Y-11960823D01*
X42175000Y-12200000D01*
X42175000Y-20975000D01*
X39200000Y-20975000D01*
X38960823Y-21022575D01*
X38758058Y-21158058D01*
X38622575Y-21360823D01*
X38619755Y-21375000D01*
X29496664Y-21375000D01*
X29243655Y-20996345D01*
X28979233Y-20819664D01*
X29063415Y-20763415D01*
X29389419Y-20275516D01*
X29503896Y-19700000D01*
X29389419Y-19124484D01*
X29063415Y-18636585D01*
X29026750Y-18612086D01*
X29093863Y-18598737D01*
X29300600Y-18460600D01*
X29438737Y-18253863D01*
X29487244Y-18010000D01*
X29487244Y-16310000D01*
X29438737Y-16066137D01*
X29300600Y-15859400D01*
X29093863Y-15721263D01*
X28850000Y-15672756D01*
X27150000Y-15672756D01*
X26906137Y-15721263D01*
X26699400Y-15859400D01*
X26561263Y-16066137D01*
X26512756Y-16310000D01*
X26512756Y-18010000D01*
X26561263Y-18253863D01*
X26699400Y-18460600D01*
X26906137Y-18598737D01*
X26973250Y-18612086D01*
X26936585Y-18636585D01*
X26610581Y-19124484D01*
X26496104Y-19700000D01*
X26610581Y-20275516D01*
X26936585Y-20763415D01*
X27020767Y-20819664D01*
X26756345Y-20996345D01*
X26503336Y-21375000D01*
X25525000Y-21375000D01*
X25525000Y-16069889D01*
X25558793Y-15900000D01*
X25525000Y-15730111D01*
X25525000Y-15730106D01*
X25424914Y-15226939D01*
X25043655Y-14656345D01*
X24899626Y-14560108D01*
X20825000Y-10485483D01*
X20825000Y-6630106D01*
X20725000Y-6127371D01*
X20725000Y-5839955D01*
X30475000Y-5839955D01*
X30475000Y-7760044D01*
X30569284Y-8234042D01*
X30928441Y-8771559D01*
X31465957Y-9130716D01*
X32100000Y-9256835D01*
X32734042Y-9130716D01*
X33271559Y-8771559D01*
X33630716Y-8234043D01*
X33725000Y-7760045D01*
X33725000Y-5839955D01*
X33630716Y-5365957D01*
X33271559Y-4828441D01*
X32734043Y-4469284D01*
X32100000Y-4343165D01*
X31465958Y-4469284D01*
X30928442Y-4828441D01*
X30569285Y-5365957D01*
X30475000Y-5839955D01*
X20725000Y-5839955D01*
X20630716Y-5365957D01*
X20271559Y-4828441D01*
X19734043Y-4469284D01*
X19100000Y-4343165D01*
X18465958Y-4469284D01*
X17928442Y-4828441D01*
X17569285Y-5365957D01*
X17475000Y-5839955D01*
X17475000Y-6127372D01*
X17375000Y-6630107D01*
X17375001Y-11030106D01*
X17341207Y-11200000D01*
X17475087Y-11873061D01*
X17665002Y-12157288D01*
X17856346Y-12443655D01*
X18000375Y-12539892D01*
X22075000Y-16614518D01*
X22075000Y-21375000D01*
X14625000Y-21375000D01*
X14625000Y-20500000D01*
X14615485Y-20452165D01*
X14588388Y-20411612D01*
X14547835Y-20384515D01*
X14500000Y-20375000D01*
X12869544Y-20375000D01*
X13165669Y-20078875D01*
X13375000Y-19573505D01*
X13375000Y-19026495D01*
X13165669Y-18521125D01*
X12944544Y-18300000D01*
X13165669Y-18078875D01*
X13174555Y-18057420D01*
X16775000Y-18057420D01*
X16775000Y-18942580D01*
X17113736Y-19760361D01*
X17739639Y-20386264D01*
X18557420Y-20725000D01*
X19442580Y-20725000D01*
X20260361Y-20386264D01*
X20886264Y-19760361D01*
X21225000Y-18942580D01*
X21225000Y-18057420D01*
X20886264Y-17239639D01*
X20260361Y-16613736D01*
X19442580Y-16275000D01*
X18557420Y-16275000D01*
X17739639Y-16613736D01*
X17113736Y-17239639D01*
X16775000Y-18057420D01*
X13174555Y-18057420D01*
X13375000Y-17573505D01*
X13375000Y-17026495D01*
X13165669Y-16521125D01*
X12818219Y-16173675D01*
X12993863Y-16138737D01*
X13200600Y-16000600D01*
X13338737Y-15793863D01*
X13387244Y-15550000D01*
X13387244Y-14050000D01*
X13338737Y-13806137D01*
X13200600Y-13599400D01*
X12993863Y-13461263D01*
X12750000Y-13412756D01*
X11250000Y-13412756D01*
X11006137Y-13461263D01*
X10799400Y-13599400D01*
X10661263Y-13806137D01*
X10612756Y-14050000D01*
X10612756Y-15550000D01*
X10661263Y-15793863D01*
X10799400Y-16000600D01*
X11006137Y-16138737D01*
X11181781Y-16173675D01*
X10834331Y-16521125D01*
X10625000Y-17026495D01*
X10625000Y-17573505D01*
X10834331Y-18078875D01*
X11055456Y-18300000D01*
X10834331Y-18521125D01*
X10625000Y-19026495D01*
X10625000Y-19573505D01*
X10834331Y-20078875D01*
X11130456Y-20375000D01*
X5025000Y-20375000D01*
X5025000Y-10314517D01*
X6085556Y-9253962D01*
X6100000Y-9256835D01*
X6734042Y-9130716D01*
X7271559Y-8771559D01*
X7630716Y-8234043D01*
X7725000Y-7760045D01*
X7725000Y-7472625D01*
X7858793Y-6800000D01*
X7725000Y-6127376D01*
X7725000Y-5839955D01*
X7630716Y-5365957D01*
X7271559Y-4828441D01*
X6734043Y-4469284D01*
X6100000Y-4343165D01*
X5465958Y-4469284D01*
X4928442Y-4828441D01*
X4569285Y-5365957D01*
X4475000Y-5839955D01*
X4475000Y-5985482D01*
X2200375Y-8260108D01*
X2056346Y-8356345D01*
X1960108Y-8500375D01*
X1675087Y-8926939D01*
X1541207Y-9600000D01*
X1575001Y-9769894D01*
X1575000Y-20375000D01*
X700000Y-20375000D01*
X700000Y-700000D01*
X66300001Y-700000D01*
X66300001Y-21375000D01*
X66300001Y-21375000D01*
G37*
X66300001Y-21375000D02*
X51108884Y-21375000D01*
X55758884Y-16725000D01*
X60300000Y-16725000D01*
X60539177Y-16677425D01*
X60741942Y-16541942D01*
X60877425Y-16339177D01*
X60925000Y-16100000D01*
X60925000Y-12200000D01*
X60877425Y-11960823D01*
X60741942Y-11758058D01*
X60539177Y-11622575D01*
X60300000Y-11575000D01*
X60025000Y-11575000D01*
X60025000Y-6610410D01*
X59913309Y-6048903D01*
X59704359Y-5736187D01*
X59630716Y-5365957D01*
X59271559Y-4828441D01*
X58734043Y-4469284D01*
X58100000Y-4343165D01*
X57465958Y-4469284D01*
X56928442Y-4828441D01*
X56569285Y-5365957D01*
X56495641Y-5736187D01*
X56286691Y-6048904D01*
X56175000Y-6610411D01*
X56175001Y-11010406D01*
X56175000Y-11010411D01*
X56175000Y-11575000D01*
X47025000Y-11575000D01*
X47025000Y-6610410D01*
X46913309Y-6048903D01*
X46704359Y-5736187D01*
X46630716Y-5365957D01*
X46271559Y-4828441D01*
X45734043Y-4469284D01*
X45100000Y-4343165D01*
X44465958Y-4469284D01*
X43928442Y-4828441D01*
X43569285Y-5365957D01*
X43495641Y-5736187D01*
X43286691Y-6048904D01*
X43175000Y-6610411D01*
X43175001Y-11010406D01*
X43175000Y-11010411D01*
X43175000Y-11575000D01*
X42800000Y-11575000D01*
X42560823Y-11622575D01*
X42358058Y-11758058D01*
X42222575Y-11960823D01*
X42175000Y-12200000D01*
X42175000Y-20975000D01*
X39200000Y-20975000D01*
X38960823Y-21022575D01*
X38758058Y-21158058D01*
X38622575Y-21360823D01*
X38619755Y-21375000D01*
X29496664Y-21375000D01*
X29243655Y-20996345D01*
X28979233Y-20819664D01*
X29063415Y-20763415D01*
X29389419Y-20275516D01*
X29503896Y-19700000D01*
X29389419Y-19124484D01*
X29063415Y-18636585D01*
X29026750Y-18612086D01*
X29093863Y-18598737D01*
X29300600Y-18460600D01*
X29438737Y-18253863D01*
X29487244Y-18010000D01*
X29487244Y-16310000D01*
X29438737Y-16066137D01*
X29300600Y-15859400D01*
X29093863Y-15721263D01*
X28850000Y-15672756D01*
X27150000Y-15672756D01*
X26906137Y-15721263D01*
X26699400Y-15859400D01*
X26561263Y-16066137D01*
X26512756Y-16310000D01*
X26512756Y-18010000D01*
X26561263Y-18253863D01*
X26699400Y-18460600D01*
X26906137Y-18598737D01*
X26973250Y-18612086D01*
X26936585Y-18636585D01*
X26610581Y-19124484D01*
X26496104Y-19700000D01*
X26610581Y-20275516D01*
X26936585Y-20763415D01*
X27020767Y-20819664D01*
X26756345Y-20996345D01*
X26503336Y-21375000D01*
X25525000Y-21375000D01*
X25525000Y-16069889D01*
X25558793Y-15900000D01*
X25525000Y-15730111D01*
X25525000Y-15730106D01*
X25424914Y-15226939D01*
X25043655Y-14656345D01*
X24899626Y-14560108D01*
X20825000Y-10485483D01*
X20825000Y-6630106D01*
X20725000Y-6127371D01*
X20725000Y-5839955D01*
X30475000Y-5839955D01*
X30475000Y-7760044D01*
X30569284Y-8234042D01*
X30928441Y-8771559D01*
X31465957Y-9130716D01*
X32100000Y-9256835D01*
X32734042Y-9130716D01*
X33271559Y-8771559D01*
X33630716Y-8234043D01*
X33725000Y-7760045D01*
X33725000Y-5839955D01*
X33630716Y-5365957D01*
X33271559Y-4828441D01*
X32734043Y-4469284D01*
X32100000Y-4343165D01*
X31465958Y-4469284D01*
X30928442Y-4828441D01*
X30569285Y-5365957D01*
X30475000Y-5839955D01*
X20725000Y-5839955D01*
X20630716Y-5365957D01*
X20271559Y-4828441D01*
X19734043Y-4469284D01*
X19100000Y-4343165D01*
X18465958Y-4469284D01*
X17928442Y-4828441D01*
X17569285Y-5365957D01*
X17475000Y-5839955D01*
X17475000Y-6127372D01*
X17375000Y-6630107D01*
X17375001Y-11030106D01*
X17341207Y-11200000D01*
X17475087Y-11873061D01*
X17665002Y-12157288D01*
X17856346Y-12443655D01*
X18000375Y-12539892D01*
X22075000Y-16614518D01*
X22075000Y-21375000D01*
X14625000Y-21375000D01*
X14625000Y-20500000D01*
X14615485Y-20452165D01*
X14588388Y-20411612D01*
X14547835Y-20384515D01*
X14500000Y-20375000D01*
X12869544Y-20375000D01*
X13165669Y-20078875D01*
X13375000Y-19573505D01*
X13375000Y-19026495D01*
X13165669Y-18521125D01*
X12944544Y-18300000D01*
X13165669Y-18078875D01*
X13174555Y-18057420D01*
X16775000Y-18057420D01*
X16775000Y-18942580D01*
X17113736Y-19760361D01*
X17739639Y-20386264D01*
X18557420Y-20725000D01*
X19442580Y-20725000D01*
X20260361Y-20386264D01*
X20886264Y-19760361D01*
X21225000Y-18942580D01*
X21225000Y-18057420D01*
X20886264Y-17239639D01*
X20260361Y-16613736D01*
X19442580Y-16275000D01*
X18557420Y-16275000D01*
X17739639Y-16613736D01*
X17113736Y-17239639D01*
X16775000Y-18057420D01*
X13174555Y-18057420D01*
X13375000Y-17573505D01*
X13375000Y-17026495D01*
X13165669Y-16521125D01*
X12818219Y-16173675D01*
X12993863Y-16138737D01*
X13200600Y-16000600D01*
X13338737Y-15793863D01*
X13387244Y-15550000D01*
X13387244Y-14050000D01*
X13338737Y-13806137D01*
X13200600Y-13599400D01*
X12993863Y-13461263D01*
X12750000Y-13412756D01*
X11250000Y-13412756D01*
X11006137Y-13461263D01*
X10799400Y-13599400D01*
X10661263Y-13806137D01*
X10612756Y-14050000D01*
X10612756Y-15550000D01*
X10661263Y-15793863D01*
X10799400Y-16000600D01*
X11006137Y-16138737D01*
X11181781Y-16173675D01*
X10834331Y-16521125D01*
X10625000Y-17026495D01*
X10625000Y-17573505D01*
X10834331Y-18078875D01*
X11055456Y-18300000D01*
X10834331Y-18521125D01*
X10625000Y-19026495D01*
X10625000Y-19573505D01*
X10834331Y-20078875D01*
X11130456Y-20375000D01*
X5025000Y-20375000D01*
X5025000Y-10314517D01*
X6085556Y-9253962D01*
X6100000Y-9256835D01*
X6734042Y-9130716D01*
X7271559Y-8771559D01*
X7630716Y-8234043D01*
X7725000Y-7760045D01*
X7725000Y-7472625D01*
X7858793Y-6800000D01*
X7725000Y-6127376D01*
X7725000Y-5839955D01*
X7630716Y-5365957D01*
X7271559Y-4828441D01*
X6734043Y-4469284D01*
X6100000Y-4343165D01*
X5465958Y-4469284D01*
X4928442Y-4828441D01*
X4569285Y-5365957D01*
X4475000Y-5839955D01*
X4475000Y-5985482D01*
X2200375Y-8260108D01*
X2056346Y-8356345D01*
X1960108Y-8500375D01*
X1675087Y-8926939D01*
X1541207Y-9600000D01*
X1575001Y-9769894D01*
X1575000Y-20375000D01*
X700000Y-20375000D01*
X700000Y-700000D01*
X66300001Y-700000D01*
X66300001Y-21375000D01*
G36*
X66300000Y-58800000D02*
X700000Y-58800000D01*
X700000Y-55127420D01*
X1695000Y-55127420D01*
X1695000Y-56012580D01*
X2033736Y-56830361D01*
X2659639Y-57456264D01*
X3477420Y-57795000D01*
X4362580Y-57795000D01*
X5180361Y-57456264D01*
X5806264Y-56830361D01*
X5816768Y-56805001D01*
X7311103Y-56805001D01*
X7425580Y-57380517D01*
X7751584Y-57868416D01*
X8239483Y-58194420D01*
X8669729Y-58280001D01*
X8960269Y-58280001D01*
X9390515Y-58194420D01*
X9878414Y-57868416D01*
X10084999Y-57559240D01*
X10291584Y-57868416D01*
X10779483Y-58194420D01*
X11209729Y-58280001D01*
X11500269Y-58280001D01*
X11930515Y-58194420D01*
X12418414Y-57868416D01*
X12624999Y-57559240D01*
X12831584Y-57868416D01*
X13319483Y-58194420D01*
X13749729Y-58280001D01*
X14040269Y-58280001D01*
X14470515Y-58194420D01*
X14958414Y-57868416D01*
X15180176Y-57536526D01*
X15247184Y-57679498D01*
X15672257Y-58067488D01*
X16081627Y-58237046D01*
X16309999Y-58117813D01*
X16309999Y-56930001D01*
X16289999Y-56930001D01*
X16289999Y-56680001D01*
X16309999Y-56680001D01*
X16309999Y-56660001D01*
X16559999Y-56660001D01*
X16559999Y-56680001D01*
X16579999Y-56680001D01*
X16579999Y-56930001D01*
X16559999Y-56930001D01*
X16559999Y-58117813D01*
X16788371Y-58237046D01*
X17197741Y-58067488D01*
X17622814Y-57679498D01*
X17689822Y-57536526D01*
X17911584Y-57868416D01*
X18399483Y-58194420D01*
X18829729Y-58280001D01*
X19120269Y-58280001D01*
X19550515Y-58194420D01*
X20038414Y-57868416D01*
X20260176Y-57536526D01*
X20327184Y-57679498D01*
X20752257Y-58067488D01*
X21161627Y-58237046D01*
X21389999Y-58117813D01*
X21389999Y-56930001D01*
X21369999Y-56930001D01*
X21369999Y-56680001D01*
X21389999Y-56680001D01*
X21389999Y-56660001D01*
X21639999Y-56660001D01*
X21639999Y-56680001D01*
X21659999Y-56680001D01*
X21659999Y-56930001D01*
X21639999Y-56930001D01*
X21639999Y-58117813D01*
X21868371Y-58237046D01*
X22277741Y-58067488D01*
X22702814Y-57679498D01*
X22769822Y-57536526D01*
X22991584Y-57868416D01*
X23479483Y-58194420D01*
X23909729Y-58280001D01*
X24200269Y-58280001D01*
X24630515Y-58194420D01*
X25118414Y-57868416D01*
X25324999Y-57559240D01*
X25531584Y-57868416D01*
X26019483Y-58194420D01*
X26449729Y-58280001D01*
X26740269Y-58280001D01*
X27170515Y-58194420D01*
X27658414Y-57868416D01*
X27864999Y-57559240D01*
X28071584Y-57868416D01*
X28559483Y-58194420D01*
X28989729Y-58280001D01*
X29280269Y-58280001D01*
X29710515Y-58194420D01*
X30198414Y-57868416D01*
X30404999Y-57559240D01*
X30611584Y-57868416D01*
X31099483Y-58194420D01*
X31529729Y-58280001D01*
X31820269Y-58280001D01*
X32250515Y-58194420D01*
X32738414Y-57868416D01*
X32960176Y-57536526D01*
X33027184Y-57679498D01*
X33452257Y-58067488D01*
X33861627Y-58237046D01*
X34089999Y-58117813D01*
X34089999Y-56930001D01*
X34069999Y-56930001D01*
X34069999Y-56680001D01*
X34089999Y-56680001D01*
X34089999Y-56660001D01*
X34339999Y-56660001D01*
X34339999Y-56680001D01*
X34359999Y-56680001D01*
X34359999Y-56930001D01*
X34339999Y-56930001D01*
X34339999Y-58117813D01*
X34568371Y-58237046D01*
X34977741Y-58067488D01*
X35402814Y-57679498D01*
X35469822Y-57536526D01*
X35691584Y-57868416D01*
X36179483Y-58194420D01*
X36609729Y-58280001D01*
X36900269Y-58280001D01*
X37330515Y-58194420D01*
X37818414Y-57868416D01*
X38024999Y-57559240D01*
X38231584Y-57868416D01*
X38719483Y-58194420D01*
X39149729Y-58280001D01*
X39440269Y-58280001D01*
X39870515Y-58194420D01*
X40358414Y-57868416D01*
X40580176Y-57536526D01*
X40647184Y-57679498D01*
X41072257Y-58067488D01*
X41481627Y-58237046D01*
X41709999Y-58117813D01*
X41709999Y-56930001D01*
X41689999Y-56930001D01*
X41689999Y-56680001D01*
X41709999Y-56680001D01*
X41709999Y-56660001D01*
X41959999Y-56660001D01*
X41959999Y-56680001D01*
X41979999Y-56680001D01*
X41979999Y-56930001D01*
X41959999Y-56930001D01*
X41959999Y-58117813D01*
X42188371Y-58237046D01*
X42597741Y-58067488D01*
X43022814Y-57679498D01*
X43089822Y-57536526D01*
X43311584Y-57868416D01*
X43799483Y-58194420D01*
X44229729Y-58280001D01*
X44520269Y-58280001D01*
X44950515Y-58194420D01*
X45438414Y-57868416D01*
X45644999Y-57559240D01*
X45851584Y-57868416D01*
X46339483Y-58194420D01*
X46769729Y-58280001D01*
X47060269Y-58280001D01*
X47490515Y-58194420D01*
X47978414Y-57868416D01*
X48184999Y-57559240D01*
X48391584Y-57868416D01*
X48879483Y-58194420D01*
X49309729Y-58280001D01*
X49600269Y-58280001D01*
X50030515Y-58194420D01*
X50518414Y-57868416D01*
X50740176Y-57536526D01*
X50807184Y-57679498D01*
X51232257Y-58067488D01*
X51641627Y-58237046D01*
X51869999Y-58117813D01*
X51869999Y-56930001D01*
X51849999Y-56930001D01*
X51849999Y-56680001D01*
X51869999Y-56680001D01*
X51869999Y-56660001D01*
X52119999Y-56660001D01*
X52119999Y-56680001D01*
X52139999Y-56680001D01*
X52139999Y-56930001D01*
X52119999Y-56930001D01*
X52119999Y-58117813D01*
X52348371Y-58237046D01*
X52757741Y-58067488D01*
X53182814Y-57679498D01*
X53249822Y-57536526D01*
X53471584Y-57868416D01*
X53959483Y-58194420D01*
X54389729Y-58280001D01*
X54680269Y-58280001D01*
X55110515Y-58194420D01*
X55598414Y-57868416D01*
X55804999Y-57559240D01*
X56011584Y-57868416D01*
X56499483Y-58194420D01*
X56929729Y-58280001D01*
X57220269Y-58280001D01*
X57650515Y-58194420D01*
X57896585Y-58030001D01*
X59074349Y-58030001D01*
X59194999Y-58054000D01*
X59315649Y-58030001D01*
X59315651Y-58030001D01*
X59672970Y-57958926D01*
X60078175Y-57688177D01*
X60146522Y-57585888D01*
X60780892Y-56951520D01*
X60883176Y-56883176D01*
X61153925Y-56477971D01*
X61225000Y-56120652D01*
X61225000Y-56120651D01*
X61237577Y-56057420D01*
X61775000Y-56057420D01*
X61775000Y-56942580D01*
X62113736Y-57760361D01*
X62739639Y-58386264D01*
X63557420Y-58725000D01*
X64442580Y-58725000D01*
X65260361Y-58386264D01*
X65886264Y-57760361D01*
X66225000Y-56942580D01*
X66225000Y-56057420D01*
X65886264Y-55239639D01*
X65260361Y-54613736D01*
X64442580Y-54275000D01*
X63557420Y-54275000D01*
X62739639Y-54613736D01*
X62113736Y-55239639D01*
X61775000Y-56057420D01*
X61237577Y-56057420D01*
X61248999Y-56000001D01*
X61225000Y-55879350D01*
X61225000Y-54807410D01*
X65080893Y-50951519D01*
X65183176Y-50883176D01*
X65453925Y-50477971D01*
X65525000Y-50120652D01*
X65525000Y-50120651D01*
X65548999Y-50000001D01*
X65525000Y-49879350D01*
X65525000Y-33120650D01*
X65548999Y-32999999D01*
X65503032Y-32768906D01*
X65453925Y-32522029D01*
X65183176Y-32116824D01*
X65080889Y-32048478D01*
X64551523Y-31519113D01*
X64483176Y-31416824D01*
X64077971Y-31146075D01*
X63720652Y-31075000D01*
X63720650Y-31075000D01*
X63600000Y-31051001D01*
X63479350Y-31075000D01*
X62901114Y-31075000D01*
X62850600Y-30999400D01*
X62643863Y-30861263D01*
X62400000Y-30812756D01*
X60700000Y-30812756D01*
X60456137Y-30861263D01*
X60249400Y-30999400D01*
X60198886Y-31075000D01*
X59620650Y-31075000D01*
X59500000Y-31051001D01*
X59379350Y-31075000D01*
X59379348Y-31075000D01*
X59022029Y-31146075D01*
X58616824Y-31416824D01*
X58548476Y-31519114D01*
X58519112Y-31548478D01*
X58416825Y-31616824D01*
X58387244Y-31661095D01*
X58387244Y-31460000D01*
X58338737Y-31216137D01*
X58200600Y-31009400D01*
X57993863Y-30871263D01*
X57750000Y-30822756D01*
X56050000Y-30822756D01*
X55806137Y-30871263D01*
X55599400Y-31009400D01*
X55461263Y-31216137D01*
X55412756Y-31460000D01*
X55412756Y-33160000D01*
X55461263Y-33403863D01*
X55599400Y-33610600D01*
X55806137Y-33748737D01*
X55873250Y-33762086D01*
X55836585Y-33786585D01*
X55510581Y-34274484D01*
X55396104Y-34850000D01*
X55510581Y-35425516D01*
X55836585Y-35913415D01*
X56145761Y-36120000D01*
X55836585Y-36326585D01*
X55510581Y-36814484D01*
X55487960Y-36928207D01*
X55341168Y-37075000D01*
X50892105Y-37075000D01*
X51276827Y-36571285D01*
X51475000Y-35825000D01*
X51475000Y-35525000D01*
X49625000Y-35525000D01*
X49625000Y-35545000D01*
X49375000Y-35545000D01*
X49375000Y-35525000D01*
X47525000Y-35525000D01*
X47525000Y-35825000D01*
X47723173Y-36571285D01*
X48107895Y-37075000D01*
X47333000Y-37075000D01*
X47333000Y-34975000D01*
X47525000Y-34975000D01*
X47525000Y-35275000D01*
X49375000Y-35275000D01*
X49375000Y-33285551D01*
X49625000Y-33285551D01*
X49625000Y-35275000D01*
X51475000Y-35275000D01*
X51475000Y-34975000D01*
X51276827Y-34228715D01*
X50808148Y-33615075D01*
X50140315Y-33227502D01*
X49931800Y-33172781D01*
X49625000Y-33285551D01*
X49375000Y-33285551D01*
X49068200Y-33172781D01*
X48859685Y-33227502D01*
X48191852Y-33615075D01*
X47723173Y-34228715D01*
X47525000Y-34975000D01*
X47333000Y-34975000D01*
X47333000Y-33300000D01*
X47284816Y-33057761D01*
X47147599Y-32852401D01*
X46989541Y-32694343D01*
X47841942Y-31841942D01*
X47977425Y-31639177D01*
X48002405Y-31513594D01*
X48076106Y-31623895D01*
X48729394Y-32060409D01*
X49500000Y-32213692D01*
X50270607Y-32060409D01*
X50923895Y-31623895D01*
X51360409Y-30970607D01*
X51475000Y-30394517D01*
X51475000Y-29405482D01*
X51360409Y-28829393D01*
X50923895Y-28176105D01*
X50270606Y-27739591D01*
X49500000Y-27586308D01*
X48729393Y-27739591D01*
X48076105Y-28176105D01*
X48025000Y-28252589D01*
X48025000Y-24458884D01*
X53012634Y-19471250D01*
X55605000Y-19471250D01*
X55605000Y-20314320D01*
X55700150Y-20544034D01*
X55875966Y-20719849D01*
X56105680Y-20815000D01*
X57748750Y-20815000D01*
X57905000Y-20658750D01*
X57905000Y-19315000D01*
X58155000Y-19315000D01*
X58155000Y-20658750D01*
X58311250Y-20815000D01*
X59954320Y-20815000D01*
X60184034Y-20719849D01*
X60359850Y-20544034D01*
X60455000Y-20314320D01*
X60455000Y-19471250D01*
X60298750Y-19315000D01*
X58155000Y-19315000D01*
X57905000Y-19315000D01*
X55761250Y-19315000D01*
X55605000Y-19471250D01*
X53012634Y-19471250D01*
X54418204Y-18065680D01*
X55605000Y-18065680D01*
X55605000Y-18908750D01*
X55761250Y-19065000D01*
X57905000Y-19065000D01*
X57905000Y-17721250D01*
X58155000Y-17721250D01*
X58155000Y-19065000D01*
X60298750Y-19065000D01*
X60455000Y-18908750D01*
X60455000Y-18065680D01*
X60359850Y-17835966D01*
X60184034Y-17660151D01*
X59954320Y-17565000D01*
X58311250Y-17565000D01*
X58155000Y-17721250D01*
X57905000Y-17721250D01*
X57748750Y-17565000D01*
X56105680Y-17565000D01*
X55875966Y-17660151D01*
X55700150Y-17835966D01*
X55605000Y-18065680D01*
X54418204Y-18065680D01*
X55758884Y-16725000D01*
X60300000Y-16725000D01*
X60539177Y-16677425D01*
X60741942Y-16541942D01*
X60877425Y-16339177D01*
X60925000Y-16100000D01*
X60925000Y-12200000D01*
X60877425Y-11960823D01*
X60741942Y-11758058D01*
X60539177Y-11622575D01*
X60300000Y-11575000D01*
X60025000Y-11575000D01*
X60025000Y-7081250D01*
X61475000Y-7081250D01*
X61475000Y-8724320D01*
X61570151Y-8954034D01*
X61745966Y-9129850D01*
X61975680Y-9225000D01*
X62818750Y-9225000D01*
X62975000Y-9068750D01*
X62975000Y-6925000D01*
X63225000Y-6925000D01*
X63225000Y-9068750D01*
X63381250Y-9225000D01*
X64224320Y-9225000D01*
X64454034Y-9129850D01*
X64629849Y-8954034D01*
X64725000Y-8724320D01*
X64725000Y-7081250D01*
X64568750Y-6925000D01*
X63225000Y-6925000D01*
X62975000Y-6925000D01*
X61631250Y-6925000D01*
X61475000Y-7081250D01*
X60025000Y-7081250D01*
X60025000Y-6610410D01*
X59913309Y-6048903D01*
X59704359Y-5736187D01*
X59630716Y-5365957D01*
X59303124Y-4875680D01*
X61475000Y-4875680D01*
X61475000Y-6518750D01*
X61631250Y-6675000D01*
X62975000Y-6675000D01*
X62975000Y-4531250D01*
X63225000Y-4531250D01*
X63225000Y-6675000D01*
X64568750Y-6675000D01*
X64725000Y-6518750D01*
X64725000Y-4875680D01*
X64629849Y-4645966D01*
X64454034Y-4470150D01*
X64224320Y-4375000D01*
X63381250Y-4375000D01*
X63225000Y-4531250D01*
X62975000Y-4531250D01*
X62818750Y-4375000D01*
X61975680Y-4375000D01*
X61745966Y-4470150D01*
X61570151Y-4645966D01*
X61475000Y-4875680D01*
X59303124Y-4875680D01*
X59271559Y-4828441D01*
X58734043Y-4469284D01*
X58100000Y-4343165D01*
X57465958Y-4469284D01*
X56928442Y-4828441D01*
X56569285Y-5365957D01*
X56495641Y-5736187D01*
X56286691Y-6048904D01*
X56175000Y-6610411D01*
X56175001Y-11010406D01*
X56175000Y-11010411D01*
X56175000Y-11575000D01*
X47025000Y-11575000D01*
X47025000Y-7081250D01*
X48475000Y-7081250D01*
X48475000Y-8724320D01*
X48570151Y-8954034D01*
X48745966Y-9129850D01*
X48975680Y-9225000D01*
X49818750Y-9225000D01*
X49975000Y-9068750D01*
X49975000Y-6925000D01*
X50225000Y-6925000D01*
X50225000Y-9068750D01*
X50381250Y-9225000D01*
X51224320Y-9225000D01*
X51454034Y-9129850D01*
X51629849Y-8954034D01*
X51725000Y-8724320D01*
X51725000Y-7081250D01*
X51568750Y-6925000D01*
X50225000Y-6925000D01*
X49975000Y-6925000D01*
X48631250Y-6925000D01*
X48475000Y-7081250D01*
X47025000Y-7081250D01*
X47025000Y-6610410D01*
X46913309Y-6048903D01*
X46704359Y-5736187D01*
X46630716Y-5365957D01*
X46303124Y-4875680D01*
X48475000Y-4875680D01*
X48475000Y-6518750D01*
X48631250Y-6675000D01*
X49975000Y-6675000D01*
X49975000Y-4531250D01*
X50225000Y-4531250D01*
X50225000Y-6675000D01*
X51568750Y-6675000D01*
X51725000Y-6518750D01*
X51725000Y-4875680D01*
X51629849Y-4645966D01*
X51454034Y-4470150D01*
X51224320Y-4375000D01*
X50381250Y-4375000D01*
X50225000Y-4531250D01*
X49975000Y-4531250D01*
X49818750Y-4375000D01*
X48975680Y-4375000D01*
X48745966Y-4470150D01*
X48570151Y-4645966D01*
X48475000Y-4875680D01*
X46303124Y-4875680D01*
X46271559Y-4828441D01*
X45734043Y-4469284D01*
X45100000Y-4343165D01*
X44465958Y-4469284D01*
X43928442Y-4828441D01*
X43569285Y-5365957D01*
X43495641Y-5736187D01*
X43286691Y-6048904D01*
X43175000Y-6610411D01*
X43175001Y-11010406D01*
X43175000Y-11010411D01*
X43175000Y-11575000D01*
X42800000Y-11575000D01*
X42560823Y-11622575D01*
X42358058Y-11758058D01*
X42222575Y-11960823D01*
X42175000Y-12200000D01*
X42175000Y-20975000D01*
X42004008Y-20975000D01*
X42025000Y-20924320D01*
X42025000Y-19731250D01*
X41868750Y-19575000D01*
X39875000Y-19575000D01*
X39875000Y-19595000D01*
X39625000Y-19595000D01*
X39625000Y-19575000D01*
X37631250Y-19575000D01*
X37475000Y-19731250D01*
X37475000Y-20924320D01*
X37570150Y-21154034D01*
X37745966Y-21329849D01*
X37975680Y-21425000D01*
X38609809Y-21425000D01*
X38575000Y-21600000D01*
X38575000Y-24067000D01*
X29725000Y-24067000D01*
X29725000Y-22070106D01*
X29624914Y-21566939D01*
X29243655Y-20996345D01*
X28979233Y-20819664D01*
X29063415Y-20763415D01*
X29389419Y-20275516D01*
X29503896Y-19700000D01*
X29389419Y-19124484D01*
X29063415Y-18636585D01*
X29026750Y-18612086D01*
X29093863Y-18598737D01*
X29300600Y-18460600D01*
X29438737Y-18253863D01*
X29487244Y-18010000D01*
X29487244Y-17975680D01*
X37475000Y-17975680D01*
X37475000Y-19168750D01*
X37631250Y-19325000D01*
X39625000Y-19325000D01*
X39625000Y-17631250D01*
X39875000Y-17631250D01*
X39875000Y-19325000D01*
X41868750Y-19325000D01*
X42025000Y-19168750D01*
X42025000Y-17975680D01*
X41929850Y-17745966D01*
X41754034Y-17570151D01*
X41524320Y-17475000D01*
X40031250Y-17475000D01*
X39875000Y-17631250D01*
X39625000Y-17631250D01*
X39468750Y-17475000D01*
X37975680Y-17475000D01*
X37745966Y-17570151D01*
X37570150Y-17745966D01*
X37475000Y-17975680D01*
X29487244Y-17975680D01*
X29487244Y-16310000D01*
X29438737Y-16066137D01*
X29300600Y-15859400D01*
X29093863Y-15721263D01*
X28895468Y-15681800D01*
X37522781Y-15681800D01*
X37577502Y-15890315D01*
X37965075Y-16558148D01*
X38578715Y-17026827D01*
X39325000Y-17225000D01*
X39625000Y-17225000D01*
X39625000Y-15375000D01*
X39875000Y-15375000D01*
X39875000Y-17225000D01*
X40175000Y-17225000D01*
X40921285Y-17026827D01*
X41534925Y-16558148D01*
X41922498Y-15890315D01*
X41977219Y-15681800D01*
X41864449Y-15375000D01*
X39875000Y-15375000D01*
X39625000Y-15375000D01*
X37635551Y-15375000D01*
X37522781Y-15681800D01*
X28895468Y-15681800D01*
X28850000Y-15672756D01*
X27150000Y-15672756D01*
X26906137Y-15721263D01*
X26699400Y-15859400D01*
X26561263Y-16066137D01*
X26512756Y-16310000D01*
X26512756Y-18010000D01*
X26561263Y-18253863D01*
X26699400Y-18460600D01*
X26906137Y-18598737D01*
X26973250Y-18612086D01*
X26936585Y-18636585D01*
X26610581Y-19124484D01*
X26496104Y-19700000D01*
X26610581Y-20275516D01*
X26936585Y-20763415D01*
X27020767Y-20819664D01*
X26756345Y-20996345D01*
X26375086Y-21566940D01*
X26275000Y-22070107D01*
X26275000Y-24067000D01*
X25525000Y-24067000D01*
X25525000Y-16069889D01*
X25558793Y-15900000D01*
X25525000Y-15730111D01*
X25525000Y-15730106D01*
X25424914Y-15226939D01*
X25151804Y-14818200D01*
X37522781Y-14818200D01*
X37635551Y-15125000D01*
X39625000Y-15125000D01*
X39625000Y-13275000D01*
X39875000Y-13275000D01*
X39875000Y-15125000D01*
X41864449Y-15125000D01*
X41977219Y-14818200D01*
X41922498Y-14609685D01*
X41534925Y-13941852D01*
X40921285Y-13473173D01*
X40175000Y-13275000D01*
X39875000Y-13275000D01*
X39625000Y-13275000D01*
X39325000Y-13275000D01*
X38578715Y-13473173D01*
X37965075Y-13941852D01*
X37577502Y-14609685D01*
X37522781Y-14818200D01*
X25151804Y-14818200D01*
X25043655Y-14656345D01*
X24899626Y-14560108D01*
X20825000Y-10485483D01*
X20825000Y-7081250D01*
X22475000Y-7081250D01*
X22475000Y-8724320D01*
X22570151Y-8954034D01*
X22745966Y-9129850D01*
X22975680Y-9225000D01*
X23818750Y-9225000D01*
X23975000Y-9068750D01*
X23975000Y-6925000D01*
X24225000Y-6925000D01*
X24225000Y-9068750D01*
X24381250Y-9225000D01*
X25224320Y-9225000D01*
X25454034Y-9129850D01*
X25629849Y-8954034D01*
X25725000Y-8724320D01*
X25725000Y-7081250D01*
X25568750Y-6925000D01*
X24225000Y-6925000D01*
X23975000Y-6925000D01*
X22631250Y-6925000D01*
X22475000Y-7081250D01*
X20825000Y-7081250D01*
X20825000Y-6630106D01*
X20725000Y-6127371D01*
X20725000Y-5839955D01*
X20630716Y-5365957D01*
X20303124Y-4875680D01*
X22475000Y-4875680D01*
X22475000Y-6518750D01*
X22631250Y-6675000D01*
X23975000Y-6675000D01*
X23975000Y-4531250D01*
X24225000Y-4531250D01*
X24225000Y-6675000D01*
X25568750Y-6675000D01*
X25725000Y-6518750D01*
X25725000Y-5839955D01*
X30475000Y-5839955D01*
X30475000Y-7760044D01*
X30569284Y-8234042D01*
X30928441Y-8771559D01*
X31465957Y-9130716D01*
X32100000Y-9256835D01*
X32734042Y-9130716D01*
X33271559Y-8771559D01*
X33630716Y-8234043D01*
X33725000Y-7760045D01*
X33725000Y-7081250D01*
X35475000Y-7081250D01*
X35475000Y-8724320D01*
X35570151Y-8954034D01*
X35745966Y-9129850D01*
X35975680Y-9225000D01*
X36818750Y-9225000D01*
X36975000Y-9068750D01*
X36975000Y-6925000D01*
X37225000Y-6925000D01*
X37225000Y-9068750D01*
X37381250Y-9225000D01*
X38224320Y-9225000D01*
X38454034Y-9129850D01*
X38629849Y-8954034D01*
X38725000Y-8724320D01*
X38725000Y-7081250D01*
X38568750Y-6925000D01*
X37225000Y-6925000D01*
X36975000Y-6925000D01*
X35631250Y-6925000D01*
X35475000Y-7081250D01*
X33725000Y-7081250D01*
X33725000Y-5839955D01*
X33630716Y-5365957D01*
X33303124Y-4875680D01*
X35475000Y-4875680D01*
X35475000Y-6518750D01*
X35631250Y-6675000D01*
X36975000Y-6675000D01*
X36975000Y-4531250D01*
X37225000Y-4531250D01*
X37225000Y-6675000D01*
X38568750Y-6675000D01*
X38725000Y-6518750D01*
X38725000Y-4875680D01*
X38629849Y-4645966D01*
X38454034Y-4470150D01*
X38224320Y-4375000D01*
X37381250Y-4375000D01*
X37225000Y-4531250D01*
X36975000Y-4531250D01*
X36818750Y-4375000D01*
X35975680Y-4375000D01*
X35745966Y-4470150D01*
X35570151Y-4645966D01*
X35475000Y-4875680D01*
X33303124Y-4875680D01*
X33271559Y-4828441D01*
X32734043Y-4469284D01*
X32100000Y-4343165D01*
X31465958Y-4469284D01*
X30928442Y-4828441D01*
X30569285Y-5365957D01*
X30475000Y-5839955D01*
X25725000Y-5839955D01*
X25725000Y-4875680D01*
X25629849Y-4645966D01*
X25454034Y-4470150D01*
X25224320Y-4375000D01*
X24381250Y-4375000D01*
X24225000Y-4531250D01*
X23975000Y-4531250D01*
X23818750Y-4375000D01*
X22975680Y-4375000D01*
X22745966Y-4470150D01*
X22570151Y-4645966D01*
X22475000Y-4875680D01*
X20303124Y-4875680D01*
X20271559Y-4828441D01*
X19734043Y-4469284D01*
X19100000Y-4343165D01*
X18465958Y-4469284D01*
X17928442Y-4828441D01*
X17569285Y-5365957D01*
X17475000Y-5839955D01*
X17475000Y-6127372D01*
X17375000Y-6630107D01*
X17375001Y-11030106D01*
X17341207Y-11200000D01*
X17475087Y-11873061D01*
X17665002Y-12157288D01*
X17856346Y-12443655D01*
X18000375Y-12539892D01*
X22075000Y-16614518D01*
X22075001Y-24067000D01*
X14700000Y-24067000D01*
X14457761Y-24115184D01*
X14252401Y-24252401D01*
X13652401Y-24852401D01*
X13515184Y-25057761D01*
X13467000Y-25300000D01*
X13467000Y-28715849D01*
X13008148Y-28115075D01*
X12340315Y-27727502D01*
X12131800Y-27672781D01*
X11825000Y-27785551D01*
X11825000Y-29775000D01*
X11845000Y-29775000D01*
X11845000Y-30025000D01*
X11825000Y-30025000D01*
X11825000Y-32014449D01*
X12131800Y-32127219D01*
X12340315Y-32072498D01*
X13008148Y-31684925D01*
X13467000Y-31084151D01*
X13467000Y-32100000D01*
X13515184Y-32342239D01*
X13652401Y-32547599D01*
X14252401Y-33147599D01*
X14457761Y-33284816D01*
X14700000Y-33333000D01*
X14989597Y-33333000D01*
X14476105Y-33676105D01*
X14039591Y-34329394D01*
X13925000Y-34905483D01*
X13925000Y-35894518D01*
X14039591Y-36470607D01*
X14476106Y-37123895D01*
X15129394Y-37560409D01*
X15900000Y-37713692D01*
X16670607Y-37560409D01*
X17323895Y-37123895D01*
X17760409Y-36470607D01*
X17875000Y-35894517D01*
X17875000Y-35525000D01*
X18125000Y-35525000D01*
X18125000Y-35825000D01*
X18323173Y-36571285D01*
X18791852Y-37184925D01*
X19459685Y-37572498D01*
X19668200Y-37627219D01*
X19975000Y-37514449D01*
X19975000Y-35525000D01*
X20225000Y-35525000D01*
X20225000Y-37514449D01*
X20531800Y-37627219D01*
X20740315Y-37572498D01*
X21408148Y-37184925D01*
X21876827Y-36571285D01*
X22075000Y-35825000D01*
X22075000Y-35525000D01*
X22325000Y-35525000D01*
X22325000Y-35825000D01*
X22523173Y-36571285D01*
X22991852Y-37184925D01*
X23659685Y-37572498D01*
X23868200Y-37627219D01*
X24175000Y-37514449D01*
X24175000Y-35525000D01*
X24425000Y-35525000D01*
X24425000Y-37514449D01*
X24731800Y-37627219D01*
X24940315Y-37572498D01*
X25608148Y-37184925D01*
X26076827Y-36571285D01*
X26275000Y-35825000D01*
X26275000Y-35525000D01*
X26525000Y-35525000D01*
X26525000Y-35825000D01*
X26723173Y-36571285D01*
X27191852Y-37184925D01*
X27859685Y-37572498D01*
X28068200Y-37627219D01*
X28375000Y-37514449D01*
X28375000Y-35525000D01*
X26525000Y-35525000D01*
X26275000Y-35525000D01*
X24425000Y-35525000D01*
X24175000Y-35525000D01*
X22325000Y-35525000D01*
X22075000Y-35525000D01*
X20225000Y-35525000D01*
X19975000Y-35525000D01*
X18125000Y-35525000D01*
X17875000Y-35525000D01*
X17875000Y-34905482D01*
X17760409Y-34329393D01*
X17323895Y-33676105D01*
X16810402Y-33333000D01*
X19277900Y-33333000D01*
X18791852Y-33615075D01*
X18323173Y-34228715D01*
X18125000Y-34975000D01*
X18125000Y-35275000D01*
X19975000Y-35275000D01*
X19975000Y-35255000D01*
X20225000Y-35255000D01*
X20225000Y-35275000D01*
X22075000Y-35275000D01*
X22075000Y-34975000D01*
X21876827Y-34228715D01*
X21408148Y-33615075D01*
X20922100Y-33333000D01*
X23477900Y-33333000D01*
X22991852Y-33615075D01*
X22523173Y-34228715D01*
X22325000Y-34975000D01*
X22325000Y-35275000D01*
X24175000Y-35275000D01*
X24175000Y-35255000D01*
X24425000Y-35255000D01*
X24425000Y-35275000D01*
X26275000Y-35275000D01*
X26275000Y-34975000D01*
X26076827Y-34228715D01*
X25608148Y-33615075D01*
X25122100Y-33333000D01*
X27677900Y-33333000D01*
X27191852Y-33615075D01*
X26723173Y-34228715D01*
X26525000Y-34975000D01*
X26525000Y-35275000D01*
X28375000Y-35275000D01*
X28375000Y-35255000D01*
X28625000Y-35255000D01*
X28625000Y-35275000D01*
X28645000Y-35275000D01*
X28645000Y-35525000D01*
X28625000Y-35525000D01*
X28625000Y-37514449D01*
X28931800Y-37627219D01*
X29140315Y-37572498D01*
X29575000Y-37320231D01*
X29575000Y-37900949D01*
X29575001Y-37900953D01*
X29575001Y-37999051D01*
X29554921Y-38100000D01*
X29634472Y-38499934D01*
X29803834Y-38753402D01*
X29803836Y-38753404D01*
X29861018Y-38838983D01*
X29946597Y-38896165D01*
X30346597Y-39296165D01*
X30510450Y-39405648D01*
X30652401Y-39547599D01*
X30857761Y-39684816D01*
X31100000Y-39733000D01*
X43218480Y-39733000D01*
X43157680Y-39823993D01*
X43047083Y-40380000D01*
X43157680Y-40936007D01*
X43472633Y-41407367D01*
X43943993Y-41722320D01*
X44359652Y-41805000D01*
X44640348Y-41805000D01*
X45056007Y-41722320D01*
X45527367Y-41407367D01*
X45842320Y-40936007D01*
X45952917Y-40380000D01*
X45842320Y-39823993D01*
X45781520Y-39733000D01*
X46100000Y-39733000D01*
X46140219Y-39725000D01*
X55759502Y-39725000D01*
X55890000Y-39750958D01*
X56020498Y-39725000D01*
X56020499Y-39725000D01*
X56406989Y-39648122D01*
X56845272Y-39355272D01*
X56919197Y-39244636D01*
X57361793Y-38802040D01*
X57475516Y-38779419D01*
X57963415Y-38453415D01*
X58289419Y-37965516D01*
X58403896Y-37390000D01*
X58289419Y-36814484D01*
X57963415Y-36326585D01*
X57654239Y-36120000D01*
X57721586Y-36075000D01*
X57981431Y-36075000D01*
X58102081Y-36098999D01*
X58222731Y-36075000D01*
X58222733Y-36075000D01*
X58580052Y-36003925D01*
X58985257Y-35733176D01*
X59053604Y-35630887D01*
X60080892Y-34603601D01*
X60095002Y-34594173D01*
X60046104Y-34840000D01*
X60160581Y-35415516D01*
X60486585Y-35903415D01*
X60795761Y-36110000D01*
X60486585Y-36316585D01*
X60160581Y-36804484D01*
X60046104Y-37380000D01*
X60160581Y-37955516D01*
X60486585Y-38443415D01*
X60795761Y-38650000D01*
X60486585Y-38856585D01*
X60160581Y-39344484D01*
X60046104Y-39920000D01*
X60160581Y-40495516D01*
X60486585Y-40983415D01*
X60818475Y-41205177D01*
X60675503Y-41272185D01*
X60287513Y-41697258D01*
X60117955Y-42106628D01*
X60237188Y-42335000D01*
X61425000Y-42335000D01*
X61425000Y-42315000D01*
X61675000Y-42315000D01*
X61675000Y-42335000D01*
X62862812Y-42335000D01*
X62982045Y-42106628D01*
X62812487Y-41697258D01*
X62424497Y-41272185D01*
X62281525Y-41205177D01*
X62613415Y-40983415D01*
X62939419Y-40495516D01*
X63053896Y-39920000D01*
X62939419Y-39344484D01*
X62613415Y-38856585D01*
X62304239Y-38650000D01*
X62613415Y-38443415D01*
X62939419Y-37955516D01*
X63053896Y-37380000D01*
X62939419Y-36804484D01*
X62613415Y-36316585D01*
X62304239Y-36110000D01*
X62613415Y-35903415D01*
X62939419Y-35415516D01*
X63053896Y-34840000D01*
X62939419Y-34264484D01*
X62613415Y-33776585D01*
X62576750Y-33752086D01*
X62643863Y-33738737D01*
X62850600Y-33600600D01*
X62901114Y-33525000D01*
X63075001Y-33525000D01*
X63075000Y-49492588D01*
X59219111Y-53348478D01*
X59116825Y-53416824D01*
X58846076Y-53822029D01*
X58814232Y-53982121D01*
X58751001Y-54300000D01*
X58775000Y-54420650D01*
X58775000Y-55492589D01*
X58687588Y-55580001D01*
X58354048Y-55580001D01*
X58375599Y-55565601D01*
X58513736Y-55358864D01*
X58562243Y-55115001D01*
X58562243Y-53415001D01*
X58513736Y-53171138D01*
X58375599Y-52964401D01*
X58168862Y-52826264D01*
X57924999Y-52777757D01*
X56224999Y-52777757D01*
X55981136Y-52826264D01*
X55774399Y-52964401D01*
X55636262Y-53171138D01*
X55622913Y-53238251D01*
X55598414Y-53201586D01*
X55359999Y-53042282D01*
X55359999Y-52236246D01*
X55376160Y-52154999D01*
X55359999Y-52073751D01*
X55359999Y-52073748D01*
X55312131Y-51833100D01*
X55129790Y-51560208D01*
X55060909Y-51514183D01*
X54446726Y-50900000D01*
X56347083Y-50900000D01*
X56457680Y-51456007D01*
X56772633Y-51927367D01*
X57243993Y-52242320D01*
X57659652Y-52325000D01*
X57940348Y-52325000D01*
X58356007Y-52242320D01*
X58827367Y-51927367D01*
X59142320Y-51456007D01*
X59252917Y-50900000D01*
X59142320Y-50343993D01*
X58827367Y-49872633D01*
X58356007Y-49557680D01*
X57940348Y-49475000D01*
X57659652Y-49475000D01*
X57243993Y-49557680D01*
X56772633Y-49872633D01*
X56457680Y-50343993D01*
X56347083Y-50900000D01*
X54446726Y-50900000D01*
X51585435Y-48038709D01*
X51632917Y-47800000D01*
X51576536Y-47516550D01*
X56375000Y-47516550D01*
X56375000Y-48083450D01*
X56591944Y-48607197D01*
X56992803Y-49008056D01*
X57516550Y-49225000D01*
X58083450Y-49225000D01*
X58607197Y-49008056D01*
X59008056Y-48607197D01*
X59225000Y-48083450D01*
X59225000Y-47516550D01*
X59008056Y-46992803D01*
X58607197Y-46591944D01*
X58083450Y-46375000D01*
X57516550Y-46375000D01*
X56992803Y-46591944D01*
X56591944Y-46992803D01*
X56375000Y-47516550D01*
X51576536Y-47516550D01*
X51522320Y-47243993D01*
X51207367Y-46772633D01*
X50736007Y-46457680D01*
X50320348Y-46375000D01*
X50039652Y-46375000D01*
X49623993Y-46457680D01*
X49152633Y-46772633D01*
X48837680Y-47243993D01*
X48727083Y-47800000D01*
X48837680Y-48356007D01*
X49152633Y-48827367D01*
X49623993Y-49142320D01*
X50039652Y-49225000D01*
X50320348Y-49225000D01*
X50418709Y-49205435D01*
X50847251Y-49633976D01*
X50463450Y-49475000D01*
X49896550Y-49475000D01*
X49372803Y-49691944D01*
X49105345Y-49959402D01*
X49047367Y-49872633D01*
X48576007Y-49557680D01*
X48160348Y-49475000D01*
X47879652Y-49475000D01*
X47463993Y-49557680D01*
X46992633Y-49872633D01*
X46677680Y-50343993D01*
X46567083Y-50900000D01*
X46677680Y-51456007D01*
X46992633Y-51927367D01*
X47463993Y-52242320D01*
X47879652Y-52325000D01*
X48160348Y-52325000D01*
X48576007Y-52242320D01*
X49047367Y-51927367D01*
X49105345Y-51840598D01*
X49372803Y-52108056D01*
X49896550Y-52325000D01*
X50463450Y-52325000D01*
X50987197Y-52108056D01*
X51388056Y-51707197D01*
X51605000Y-51183450D01*
X51605000Y-50616550D01*
X51446024Y-50232749D01*
X53710000Y-52496726D01*
X53710000Y-53042282D01*
X53471584Y-53201586D01*
X53264999Y-53510762D01*
X53058414Y-53201586D01*
X52570515Y-52875582D01*
X52140269Y-52790001D01*
X51849729Y-52790001D01*
X51419483Y-52875582D01*
X50931584Y-53201586D01*
X50724999Y-53510762D01*
X50518414Y-53201586D01*
X50030515Y-52875582D01*
X49600269Y-52790001D01*
X49309729Y-52790001D01*
X48879483Y-52875582D01*
X48391584Y-53201586D01*
X48169822Y-53533476D01*
X48102814Y-53390504D01*
X47677741Y-53002514D01*
X47268371Y-52832956D01*
X47039999Y-52952189D01*
X47039999Y-54140001D01*
X47059999Y-54140001D01*
X47059999Y-54390001D01*
X47039999Y-54390001D01*
X47039999Y-54410001D01*
X46789999Y-54410001D01*
X46789999Y-54390001D01*
X46769999Y-54390001D01*
X46769999Y-54140001D01*
X46789999Y-54140001D01*
X46789999Y-52952189D01*
X46561627Y-52832956D01*
X46152257Y-53002514D01*
X45727184Y-53390504D01*
X45660176Y-53533476D01*
X45438414Y-53201586D01*
X44950515Y-52875582D01*
X44520269Y-52790001D01*
X44229729Y-52790001D01*
X43799483Y-52875582D01*
X43311584Y-53201586D01*
X43104999Y-53510762D01*
X42898414Y-53201586D01*
X42410515Y-52875582D01*
X41980269Y-52790001D01*
X41689729Y-52790001D01*
X41259483Y-52875582D01*
X40771584Y-53201586D01*
X40564999Y-53510762D01*
X40358414Y-53201586D01*
X39870515Y-52875582D01*
X39440269Y-52790001D01*
X39149729Y-52790001D01*
X38719483Y-52875582D01*
X38231584Y-53201586D01*
X38024999Y-53510762D01*
X37818414Y-53201586D01*
X37330515Y-52875582D01*
X36900269Y-52790001D01*
X36609729Y-52790001D01*
X36179483Y-52875582D01*
X35691584Y-53201586D01*
X35484999Y-53510762D01*
X35278414Y-53201586D01*
X34790515Y-52875582D01*
X34360269Y-52790001D01*
X34069729Y-52790001D01*
X33639483Y-52875582D01*
X33151584Y-53201586D01*
X32944999Y-53510762D01*
X32738414Y-53201586D01*
X32250515Y-52875582D01*
X31820269Y-52790001D01*
X31529729Y-52790001D01*
X31099483Y-52875582D01*
X30611584Y-53201586D01*
X30404999Y-53510762D01*
X30198414Y-53201586D01*
X29710515Y-52875582D01*
X29280269Y-52790001D01*
X28989729Y-52790001D01*
X28559483Y-52875582D01*
X28071584Y-53201586D01*
X27849822Y-53533476D01*
X27782814Y-53390504D01*
X27357741Y-53002514D01*
X26948371Y-52832956D01*
X26719999Y-52952189D01*
X26719999Y-54140001D01*
X26739999Y-54140001D01*
X26739999Y-54390001D01*
X26719999Y-54390001D01*
X26719999Y-54410001D01*
X26469999Y-54410001D01*
X26469999Y-54390001D01*
X26449999Y-54390001D01*
X26449999Y-54140001D01*
X26469999Y-54140001D01*
X26469999Y-52952189D01*
X26241627Y-52832956D01*
X25832257Y-53002514D01*
X25407184Y-53390504D01*
X25340176Y-53533476D01*
X25118414Y-53201586D01*
X24630515Y-52875582D01*
X24200269Y-52790001D01*
X23909729Y-52790001D01*
X23479483Y-52875582D01*
X22991584Y-53201586D01*
X22784999Y-53510762D01*
X22578414Y-53201586D01*
X22090515Y-52875582D01*
X21660269Y-52790001D01*
X21369729Y-52790001D01*
X20939483Y-52875582D01*
X20451584Y-53201586D01*
X20244999Y-53510762D01*
X20038414Y-53201586D01*
X19550515Y-52875582D01*
X19120269Y-52790001D01*
X18829729Y-52790001D01*
X18399483Y-52875582D01*
X17911584Y-53201586D01*
X17704999Y-53510762D01*
X17498414Y-53201586D01*
X17010515Y-52875582D01*
X16580269Y-52790001D01*
X16289729Y-52790001D01*
X15859483Y-52875582D01*
X15371584Y-53201586D01*
X15164999Y-53510762D01*
X14958414Y-53201586D01*
X14470515Y-52875582D01*
X14040269Y-52790001D01*
X13749729Y-52790001D01*
X13319483Y-52875582D01*
X12831584Y-53201586D01*
X12624999Y-53510762D01*
X12418414Y-53201586D01*
X11930515Y-52875582D01*
X11500269Y-52790001D01*
X11209729Y-52790001D01*
X10779483Y-52875582D01*
X10291584Y-53201586D01*
X10069822Y-53533476D01*
X10002814Y-53390504D01*
X9577741Y-53002514D01*
X9168371Y-52832956D01*
X8939999Y-52952189D01*
X8939999Y-54140001D01*
X8959999Y-54140001D01*
X8959999Y-54390001D01*
X8939999Y-54390001D01*
X8939999Y-54410001D01*
X8689999Y-54410001D01*
X8689999Y-54390001D01*
X7501546Y-54390001D01*
X7382945Y-54618374D01*
X7627184Y-55139498D01*
X8052257Y-55527488D01*
X8064447Y-55532537D01*
X7751584Y-55741586D01*
X7425580Y-56229485D01*
X7311103Y-56805001D01*
X5816768Y-56805001D01*
X6145000Y-56012580D01*
X6145000Y-55127420D01*
X5806264Y-54309639D01*
X5408253Y-53911628D01*
X7382945Y-53911628D01*
X7501546Y-54140001D01*
X8689999Y-54140001D01*
X8689999Y-52952189D01*
X8461627Y-52832956D01*
X8052257Y-53002514D01*
X7627184Y-53390504D01*
X7382945Y-53911628D01*
X5408253Y-53911628D01*
X5180361Y-53683736D01*
X4362580Y-53345000D01*
X3477420Y-53345000D01*
X2659639Y-53683736D01*
X2033736Y-54309639D01*
X1695000Y-55127420D01*
X700000Y-55127420D01*
X700000Y-51016550D01*
X26275000Y-51016550D01*
X26275000Y-51583450D01*
X26491944Y-52107197D01*
X26892803Y-52508056D01*
X27416550Y-52725000D01*
X27983450Y-52725000D01*
X28507197Y-52508056D01*
X28908056Y-52107197D01*
X29125000Y-51583450D01*
X29125000Y-51016550D01*
X28959314Y-50616550D01*
X29175000Y-50616550D01*
X29175000Y-51183450D01*
X29391944Y-51707197D01*
X29792803Y-52108056D01*
X30316550Y-52325000D01*
X30883450Y-52325000D01*
X31407197Y-52108056D01*
X31808056Y-51707197D01*
X31999289Y-51245521D01*
X36837524Y-51245521D01*
X36998114Y-51633244D01*
X37371725Y-52045025D01*
X37874478Y-52282486D01*
X38095000Y-52163267D01*
X38095000Y-51025000D01*
X36957423Y-51025000D01*
X36837524Y-51245521D01*
X31999289Y-51245521D01*
X32025000Y-51183450D01*
X32025000Y-50616550D01*
X31999290Y-50554479D01*
X36837524Y-50554479D01*
X36957423Y-50775000D01*
X38095000Y-50775000D01*
X38095000Y-49636733D01*
X38345000Y-49636733D01*
X38345000Y-50775000D01*
X38365000Y-50775000D01*
X38365000Y-51025000D01*
X38345000Y-51025000D01*
X38345000Y-52163267D01*
X38565522Y-52282486D01*
X39068275Y-52045025D01*
X39198949Y-51901000D01*
X39575777Y-51901000D01*
X39650291Y-52144550D01*
X40183627Y-52336716D01*
X40749905Y-52310155D01*
X41149709Y-52144550D01*
X41224223Y-51901000D01*
X40400000Y-51076777D01*
X39575777Y-51901000D01*
X39198949Y-51901000D01*
X39367957Y-51714726D01*
X39399000Y-51724223D01*
X40223223Y-50900000D01*
X40576777Y-50900000D01*
X41401000Y-51724223D01*
X41644550Y-51649709D01*
X41836716Y-51116373D01*
X41810155Y-50550095D01*
X41644550Y-50150291D01*
X41401000Y-50075777D01*
X40576777Y-50900000D01*
X40223223Y-50900000D01*
X39399000Y-50075777D01*
X39367957Y-50085274D01*
X39198950Y-49899000D01*
X39575777Y-49899000D01*
X40400000Y-50723223D01*
X41224223Y-49899000D01*
X41149709Y-49655450D01*
X40616373Y-49463284D01*
X40050095Y-49489845D01*
X39650291Y-49655450D01*
X39575777Y-49899000D01*
X39198950Y-49899000D01*
X39068275Y-49754975D01*
X38565522Y-49517514D01*
X38345000Y-49636733D01*
X38095000Y-49636733D01*
X37874478Y-49517514D01*
X37371725Y-49754975D01*
X36998114Y-50166756D01*
X36837524Y-50554479D01*
X31999290Y-50554479D01*
X31808056Y-50092803D01*
X31407197Y-49691944D01*
X30883450Y-49475000D01*
X30316550Y-49475000D01*
X29792803Y-49691944D01*
X29391944Y-50092803D01*
X29175000Y-50616550D01*
X28959314Y-50616550D01*
X28908056Y-50492803D01*
X28507197Y-50091944D01*
X27983450Y-49875000D01*
X27416550Y-49875000D01*
X26892803Y-50091944D01*
X26491944Y-50492803D01*
X26275000Y-51016550D01*
X700000Y-51016550D01*
X700000Y-46181250D01*
X2125000Y-46181250D01*
X2125000Y-46874320D01*
X2220150Y-47104034D01*
X2395966Y-47279849D01*
X2625680Y-47375000D01*
X3318750Y-47375000D01*
X3475000Y-47218750D01*
X3475000Y-46025000D01*
X2281250Y-46025000D01*
X2125000Y-46181250D01*
X700000Y-46181250D01*
X700000Y-44925680D01*
X2125000Y-44925680D01*
X2125000Y-45618750D01*
X2281250Y-45775000D01*
X3475000Y-45775000D01*
X3475000Y-44581250D01*
X3725000Y-44581250D01*
X3725000Y-45775000D01*
X3745000Y-45775000D01*
X3745000Y-46025000D01*
X3725000Y-46025000D01*
X3725000Y-47218750D01*
X3881250Y-47375000D01*
X4574320Y-47375000D01*
X4804034Y-47279849D01*
X4979850Y-47104034D01*
X5052825Y-46927856D01*
X5076585Y-46963415D01*
X5564484Y-47289419D01*
X5994730Y-47375000D01*
X6285270Y-47375000D01*
X6715516Y-47289419D01*
X7203415Y-46963415D01*
X7529419Y-46475516D01*
X7574995Y-46246387D01*
X29785000Y-46246387D01*
X29785000Y-46753613D01*
X29979107Y-47222230D01*
X30337770Y-47580893D01*
X30806387Y-47775000D01*
X31055000Y-47775000D01*
X31055000Y-48023613D01*
X31249107Y-48492230D01*
X31607770Y-48850893D01*
X32076387Y-49045000D01*
X32583613Y-49045000D01*
X33052230Y-48850893D01*
X33410893Y-48492230D01*
X33605000Y-48023613D01*
X33605000Y-47787244D01*
X34250000Y-47787244D01*
X34493863Y-47738737D01*
X34527068Y-47716550D01*
X43075000Y-47716550D01*
X43075000Y-48283450D01*
X43291944Y-48807197D01*
X43692803Y-49208056D01*
X44216550Y-49425000D01*
X44783450Y-49425000D01*
X45307197Y-49208056D01*
X45708056Y-48807197D01*
X45925000Y-48283450D01*
X45925000Y-47716550D01*
X45708056Y-47192803D01*
X45307197Y-46791944D01*
X44783450Y-46575000D01*
X44216550Y-46575000D01*
X43692803Y-46791944D01*
X43291944Y-47192803D01*
X43075000Y-47716550D01*
X34527068Y-47716550D01*
X34700600Y-47600600D01*
X34838737Y-47393863D01*
X34887244Y-47150000D01*
X34887244Y-45881250D01*
X39425000Y-45881250D01*
X39425000Y-46574320D01*
X39520151Y-46804034D01*
X39695966Y-46979850D01*
X39925680Y-47075000D01*
X40618750Y-47075000D01*
X40775000Y-46918750D01*
X40775000Y-45725000D01*
X41025000Y-45725000D01*
X41025000Y-46918750D01*
X41181250Y-47075000D01*
X41874320Y-47075000D01*
X42104034Y-46979850D01*
X42279849Y-46804034D01*
X42375000Y-46574320D01*
X42375000Y-45881250D01*
X42218750Y-45725000D01*
X41025000Y-45725000D01*
X40775000Y-45725000D01*
X39581250Y-45725000D01*
X39425000Y-45881250D01*
X34887244Y-45881250D01*
X34887244Y-45850000D01*
X34838737Y-45606137D01*
X34700600Y-45399400D01*
X34493863Y-45261263D01*
X34250000Y-45212756D01*
X32950000Y-45212756D01*
X32706137Y-45261263D01*
X32499400Y-45399400D01*
X32361263Y-45606137D01*
X32312756Y-45850000D01*
X32312756Y-46192685D01*
X32140893Y-45777770D01*
X31782230Y-45419107D01*
X31313613Y-45225000D01*
X30806387Y-45225000D01*
X30337770Y-45419107D01*
X29979107Y-45777770D01*
X29785000Y-46246387D01*
X7574995Y-46246387D01*
X7643896Y-45900000D01*
X7529419Y-45324484D01*
X7203415Y-44836585D01*
X6715516Y-44510581D01*
X6285270Y-44425000D01*
X5994730Y-44425000D01*
X5564484Y-44510581D01*
X5076585Y-44836585D01*
X5052825Y-44872144D01*
X4979850Y-44695966D01*
X4804034Y-44520151D01*
X4574320Y-44425000D01*
X3881250Y-44425000D01*
X3725000Y-44581250D01*
X3475000Y-44581250D01*
X3318750Y-44425000D01*
X2625680Y-44425000D01*
X2395966Y-44520151D01*
X2220150Y-44695966D01*
X2125000Y-44925680D01*
X700000Y-44925680D01*
X700000Y-43680000D01*
X26247083Y-43680000D01*
X26357680Y-44236007D01*
X26672633Y-44707367D01*
X27143993Y-45022320D01*
X27559652Y-45105000D01*
X27840348Y-45105000D01*
X28256007Y-45022320D01*
X28727367Y-44707367D01*
X29042320Y-44236007D01*
X29152917Y-43680000D01*
X29042320Y-43123993D01*
X28727367Y-42652633D01*
X28349276Y-42400000D01*
X29856104Y-42400000D01*
X29970581Y-42975516D01*
X30296585Y-43463415D01*
X30784484Y-43789419D01*
X31214730Y-43875000D01*
X31505270Y-43875000D01*
X31935516Y-43789419D01*
X32423415Y-43463415D01*
X32630000Y-43154239D01*
X32836585Y-43463415D01*
X33324484Y-43789419D01*
X33754730Y-43875000D01*
X34045270Y-43875000D01*
X34475516Y-43789419D01*
X34963415Y-43463415D01*
X34987914Y-43426750D01*
X35001263Y-43493863D01*
X35139400Y-43700600D01*
X35346137Y-43838737D01*
X35590000Y-43887244D01*
X37290000Y-43887244D01*
X37533863Y-43838737D01*
X37740600Y-43700600D01*
X37878737Y-43493863D01*
X37927244Y-43250000D01*
X37927244Y-43060000D01*
X39396104Y-43060000D01*
X39510581Y-43635516D01*
X39836585Y-44123415D01*
X39872144Y-44147175D01*
X39695966Y-44220150D01*
X39520151Y-44395966D01*
X39425000Y-44625680D01*
X39425000Y-45318750D01*
X39581250Y-45475000D01*
X40775000Y-45475000D01*
X40775000Y-45455000D01*
X41025000Y-45455000D01*
X41025000Y-45475000D01*
X42218750Y-45475000D01*
X42375000Y-45318750D01*
X42375000Y-44625680D01*
X42279849Y-44395966D01*
X42104034Y-44220150D01*
X41927856Y-44147175D01*
X41963415Y-44123415D01*
X42289419Y-43635516D01*
X42403896Y-43060000D01*
X42354839Y-42813372D01*
X60117955Y-42813372D01*
X60287513Y-43222742D01*
X60675503Y-43647815D01*
X61196627Y-43892054D01*
X61425000Y-43773453D01*
X61425000Y-42585000D01*
X61675000Y-42585000D01*
X61675000Y-43773453D01*
X61903373Y-43892054D01*
X62424497Y-43647815D01*
X62812487Y-43222742D01*
X62982045Y-42813372D01*
X62862812Y-42585000D01*
X61675000Y-42585000D01*
X61425000Y-42585000D01*
X60237188Y-42585000D01*
X60117955Y-42813372D01*
X42354839Y-42813372D01*
X42289419Y-42484484D01*
X41963415Y-41996585D01*
X41475516Y-41670581D01*
X41045270Y-41585000D01*
X40754730Y-41585000D01*
X40324484Y-41670581D01*
X39836585Y-41996585D01*
X39510581Y-42484484D01*
X39396104Y-43060000D01*
X37927244Y-43060000D01*
X37927244Y-41550000D01*
X37878737Y-41306137D01*
X37740600Y-41099400D01*
X37533863Y-40961263D01*
X37290000Y-40912756D01*
X35590000Y-40912756D01*
X35346137Y-40961263D01*
X35139400Y-41099400D01*
X35001263Y-41306137D01*
X34987914Y-41373250D01*
X34963415Y-41336585D01*
X34475516Y-41010581D01*
X34045270Y-40925000D01*
X33754730Y-40925000D01*
X33324484Y-41010581D01*
X32836585Y-41336585D01*
X32630000Y-41645761D01*
X32423415Y-41336585D01*
X31935516Y-41010581D01*
X31505270Y-40925000D01*
X31214730Y-40925000D01*
X30784484Y-41010581D01*
X30296585Y-41336585D01*
X29970581Y-41824484D01*
X29856104Y-42400000D01*
X28349276Y-42400000D01*
X28256007Y-42337680D01*
X27840348Y-42255000D01*
X27559652Y-42255000D01*
X27143993Y-42337680D01*
X26672633Y-42652633D01*
X26357680Y-43123993D01*
X26247083Y-43680000D01*
X700000Y-43680000D01*
X700000Y-28500001D01*
X1312756Y-28500001D01*
X1312756Y-31299999D01*
X1375001Y-31612922D01*
X1375000Y-34654115D01*
X1325000Y-34905483D01*
X1325000Y-35894518D01*
X1439591Y-36470607D01*
X1876106Y-37123895D01*
X2529394Y-37560409D01*
X3300000Y-37713692D01*
X4070607Y-37560409D01*
X4422921Y-37325000D01*
X6377080Y-37325000D01*
X6729394Y-37560409D01*
X7500000Y-37713692D01*
X8270607Y-37560409D01*
X8923895Y-37123895D01*
X9360409Y-36470607D01*
X9475000Y-35894517D01*
X9475000Y-35525000D01*
X9725000Y-35525000D01*
X9725000Y-35825000D01*
X9923173Y-36571285D01*
X10391852Y-37184925D01*
X11059685Y-37572498D01*
X11268200Y-37627219D01*
X11575000Y-37514449D01*
X11575000Y-35525000D01*
X11825000Y-35525000D01*
X11825000Y-37514449D01*
X12131800Y-37627219D01*
X12340315Y-37572498D01*
X13008148Y-37184925D01*
X13476827Y-36571285D01*
X13675000Y-35825000D01*
X13675000Y-35525000D01*
X11825000Y-35525000D01*
X11575000Y-35525000D01*
X9725000Y-35525000D01*
X9475000Y-35525000D01*
X9475000Y-34975000D01*
X9725000Y-34975000D01*
X9725000Y-35275000D01*
X11575000Y-35275000D01*
X11575000Y-33285551D01*
X11825000Y-33285551D01*
X11825000Y-35275000D01*
X13675000Y-35275000D01*
X13675000Y-34975000D01*
X13476827Y-34228715D01*
X13008148Y-33615075D01*
X12340315Y-33227502D01*
X12131800Y-33172781D01*
X11825000Y-33285551D01*
X11575000Y-33285551D01*
X11268200Y-33172781D01*
X11059685Y-33227502D01*
X10391852Y-33615075D01*
X9923173Y-34228715D01*
X9725000Y-34975000D01*
X9475000Y-34975000D01*
X9475000Y-34905482D01*
X9425000Y-34654115D01*
X9425000Y-30645885D01*
X9475000Y-30394517D01*
X9475000Y-30025000D01*
X9725000Y-30025000D01*
X9725000Y-30325000D01*
X9923173Y-31071285D01*
X10391852Y-31684925D01*
X11059685Y-32072498D01*
X11268200Y-32127219D01*
X11575000Y-32014449D01*
X11575000Y-30025000D01*
X9725000Y-30025000D01*
X9475000Y-30025000D01*
X9475000Y-29475000D01*
X9725000Y-29475000D01*
X9725000Y-29775000D01*
X11575000Y-29775000D01*
X11575000Y-27785551D01*
X11268200Y-27672781D01*
X11059685Y-27727502D01*
X10391852Y-28115075D01*
X9923173Y-28728715D01*
X9725000Y-29475000D01*
X9475000Y-29475000D01*
X9475000Y-29405482D01*
X9360409Y-28829393D01*
X8923895Y-28176105D01*
X8270606Y-27739591D01*
X7500000Y-27586308D01*
X6729393Y-27739591D01*
X6377079Y-27975000D01*
X5095781Y-27975000D01*
X5027376Y-27872624D01*
X5025000Y-27871036D01*
X5025000Y-26377192D01*
X7959585Y-26377192D01*
X8119735Y-26693394D01*
X8906599Y-27002438D01*
X9751833Y-26986837D01*
X10460265Y-26693394D01*
X10620415Y-26377192D01*
X9290000Y-25046777D01*
X7959585Y-26377192D01*
X5025000Y-26377192D01*
X5025000Y-24486599D01*
X7157562Y-24486599D01*
X7173163Y-25331833D01*
X7466606Y-26040265D01*
X7782808Y-26200415D01*
X9113223Y-24870000D01*
X9466777Y-24870000D01*
X10797192Y-26200415D01*
X11113394Y-26040265D01*
X11422438Y-25253401D01*
X11406837Y-24408167D01*
X11113394Y-23699735D01*
X10797192Y-23539585D01*
X9466777Y-24870000D01*
X9113223Y-24870000D01*
X7782808Y-23539585D01*
X7466606Y-23699735D01*
X7157562Y-24486599D01*
X5025000Y-24486599D01*
X5025000Y-23362808D01*
X7959585Y-23362808D01*
X9290000Y-24693223D01*
X10620415Y-23362808D01*
X10460265Y-23046606D01*
X9742692Y-22764776D01*
X11212000Y-22764776D01*
X11280371Y-23003147D01*
X11795574Y-23186953D01*
X12341899Y-23159608D01*
X12719629Y-23003147D01*
X12788000Y-22764776D01*
X12000000Y-21976777D01*
X11212000Y-22764776D01*
X9742692Y-22764776D01*
X9673401Y-22737562D01*
X8828167Y-22753163D01*
X8119735Y-23046606D01*
X7959585Y-23362808D01*
X5025000Y-23362808D01*
X5025000Y-21595574D01*
X10613047Y-21595574D01*
X10640392Y-22141899D01*
X10796853Y-22519629D01*
X11035224Y-22588000D01*
X11823223Y-21800000D01*
X12176777Y-21800000D01*
X12964776Y-22588000D01*
X13203147Y-22519629D01*
X13386953Y-22004426D01*
X13359608Y-21458101D01*
X13203147Y-21080371D01*
X12964776Y-21012000D01*
X12176777Y-21800000D01*
X11823223Y-21800000D01*
X11035224Y-21012000D01*
X10796853Y-21080371D01*
X10613047Y-21595574D01*
X5025000Y-21595574D01*
X5025000Y-14050000D01*
X10612756Y-14050000D01*
X10612756Y-15550000D01*
X10661263Y-15793863D01*
X10799400Y-16000600D01*
X11006137Y-16138737D01*
X11181781Y-16173675D01*
X10834331Y-16521125D01*
X10625000Y-17026495D01*
X10625000Y-17573505D01*
X10834331Y-18078875D01*
X11055456Y-18300000D01*
X10834331Y-18521125D01*
X10625000Y-19026495D01*
X10625000Y-19573505D01*
X10834331Y-20078875D01*
X11221125Y-20465669D01*
X11409101Y-20543531D01*
X11280371Y-20596853D01*
X11212000Y-20835224D01*
X12000000Y-21623223D01*
X12788000Y-20835224D01*
X12719629Y-20596853D01*
X12581307Y-20547504D01*
X12778875Y-20465669D01*
X13165669Y-20078875D01*
X13375000Y-19573505D01*
X13375000Y-19026495D01*
X13165669Y-18521125D01*
X12944544Y-18300000D01*
X13165669Y-18078875D01*
X13174555Y-18057420D01*
X16775000Y-18057420D01*
X16775000Y-18942580D01*
X17113736Y-19760361D01*
X17739639Y-20386264D01*
X18557420Y-20725000D01*
X19442580Y-20725000D01*
X20260361Y-20386264D01*
X20886264Y-19760361D01*
X21225000Y-18942580D01*
X21225000Y-18057420D01*
X20886264Y-17239639D01*
X20260361Y-16613736D01*
X19442580Y-16275000D01*
X18557420Y-16275000D01*
X17739639Y-16613736D01*
X17113736Y-17239639D01*
X16775000Y-18057420D01*
X13174555Y-18057420D01*
X13375000Y-17573505D01*
X13375000Y-17026495D01*
X13165669Y-16521125D01*
X12818219Y-16173675D01*
X12993863Y-16138737D01*
X13200600Y-16000600D01*
X13338737Y-15793863D01*
X13387244Y-15550000D01*
X13387244Y-14050000D01*
X13338737Y-13806137D01*
X13200600Y-13599400D01*
X12993863Y-13461263D01*
X12750000Y-13412756D01*
X11250000Y-13412756D01*
X11006137Y-13461263D01*
X10799400Y-13599400D01*
X10661263Y-13806137D01*
X10612756Y-14050000D01*
X5025000Y-14050000D01*
X5025000Y-13237192D01*
X7959585Y-13237192D01*
X8119735Y-13553394D01*
X8906599Y-13862438D01*
X9751833Y-13846837D01*
X10460265Y-13553394D01*
X10620415Y-13237192D01*
X9290000Y-11906777D01*
X7959585Y-13237192D01*
X5025000Y-13237192D01*
X5025000Y-11346599D01*
X7157562Y-11346599D01*
X7173163Y-12191833D01*
X7466606Y-12900265D01*
X7782808Y-13060415D01*
X9113223Y-11730000D01*
X9466777Y-11730000D01*
X10797192Y-13060415D01*
X11113394Y-12900265D01*
X11422438Y-12113401D01*
X11406837Y-11268167D01*
X11113394Y-10559735D01*
X10797192Y-10399585D01*
X9466777Y-11730000D01*
X9113223Y-11730000D01*
X7782808Y-10399585D01*
X7466606Y-10559735D01*
X7157562Y-11346599D01*
X5025000Y-11346599D01*
X5025000Y-10314517D01*
X5116709Y-10222808D01*
X7959585Y-10222808D01*
X9290000Y-11553223D01*
X10620415Y-10222808D01*
X10460265Y-9906606D01*
X9673401Y-9597562D01*
X8828167Y-9613163D01*
X8119735Y-9906606D01*
X7959585Y-10222808D01*
X5116709Y-10222808D01*
X6085556Y-9253962D01*
X6100000Y-9256835D01*
X6734042Y-9130716D01*
X7271559Y-8771559D01*
X7630716Y-8234043D01*
X7725000Y-7760045D01*
X7725000Y-7472625D01*
X7802849Y-7081250D01*
X9475000Y-7081250D01*
X9475000Y-8724320D01*
X9570151Y-8954034D01*
X9745966Y-9129850D01*
X9975680Y-9225000D01*
X10818750Y-9225000D01*
X10975000Y-9068750D01*
X10975000Y-6925000D01*
X11225000Y-6925000D01*
X11225000Y-9068750D01*
X11381250Y-9225000D01*
X12224320Y-9225000D01*
X12454034Y-9129850D01*
X12629849Y-8954034D01*
X12725000Y-8724320D01*
X12725000Y-7081250D01*
X12568750Y-6925000D01*
X11225000Y-6925000D01*
X10975000Y-6925000D01*
X9631250Y-6925000D01*
X9475000Y-7081250D01*
X7802849Y-7081250D01*
X7858793Y-6800000D01*
X7725000Y-6127376D01*
X7725000Y-5839955D01*
X7630716Y-5365957D01*
X7303124Y-4875680D01*
X9475000Y-4875680D01*
X9475000Y-6518750D01*
X9631250Y-6675000D01*
X10975000Y-6675000D01*
X10975000Y-4531250D01*
X11225000Y-4531250D01*
X11225000Y-6675000D01*
X12568750Y-6675000D01*
X12725000Y-6518750D01*
X12725000Y-4875680D01*
X12629849Y-4645966D01*
X12454034Y-4470150D01*
X12224320Y-4375000D01*
X11381250Y-4375000D01*
X11225000Y-4531250D01*
X10975000Y-4531250D01*
X10818750Y-4375000D01*
X9975680Y-4375000D01*
X9745966Y-4470150D01*
X9570151Y-4645966D01*
X9475000Y-4875680D01*
X7303124Y-4875680D01*
X7271559Y-4828441D01*
X6734043Y-4469284D01*
X6100000Y-4343165D01*
X5465958Y-4469284D01*
X4928442Y-4828441D01*
X4569285Y-5365957D01*
X4475000Y-5839955D01*
X4475000Y-5985482D01*
X2200375Y-8260108D01*
X2056346Y-8356345D01*
X1960108Y-8500375D01*
X1675087Y-8926939D01*
X1541207Y-9600000D01*
X1575001Y-9769894D01*
X1575000Y-27871036D01*
X1572624Y-27872624D01*
X1380294Y-28160467D01*
X1312756Y-28500001D01*
X700000Y-28500001D01*
X700000Y-700000D01*
X66300001Y-700000D01*
X66300000Y-58800000D01*
X66300000Y-58800000D01*
G37*
X66300000Y-58800000D02*
X700000Y-58800000D01*
X700000Y-55127420D01*
X1695000Y-55127420D01*
X1695000Y-56012580D01*
X2033736Y-56830361D01*
X2659639Y-57456264D01*
X3477420Y-57795000D01*
X4362580Y-57795000D01*
X5180361Y-57456264D01*
X5806264Y-56830361D01*
X5816768Y-56805001D01*
X7311103Y-56805001D01*
X7425580Y-57380517D01*
X7751584Y-57868416D01*
X8239483Y-58194420D01*
X8669729Y-58280001D01*
X8960269Y-58280001D01*
X9390515Y-58194420D01*
X9878414Y-57868416D01*
X10084999Y-57559240D01*
X10291584Y-57868416D01*
X10779483Y-58194420D01*
X11209729Y-58280001D01*
X11500269Y-58280001D01*
X11930515Y-58194420D01*
X12418414Y-57868416D01*
X12624999Y-57559240D01*
X12831584Y-57868416D01*
X13319483Y-58194420D01*
X13749729Y-58280001D01*
X14040269Y-58280001D01*
X14470515Y-58194420D01*
X14958414Y-57868416D01*
X15180176Y-57536526D01*
X15247184Y-57679498D01*
X15672257Y-58067488D01*
X16081627Y-58237046D01*
X16309999Y-58117813D01*
X16309999Y-56930001D01*
X16289999Y-56930001D01*
X16289999Y-56680001D01*
X16309999Y-56680001D01*
X16309999Y-56660001D01*
X16559999Y-56660001D01*
X16559999Y-56680001D01*
X16579999Y-56680001D01*
X16579999Y-56930001D01*
X16559999Y-56930001D01*
X16559999Y-58117813D01*
X16788371Y-58237046D01*
X17197741Y-58067488D01*
X17622814Y-57679498D01*
X17689822Y-57536526D01*
X17911584Y-57868416D01*
X18399483Y-58194420D01*
X18829729Y-58280001D01*
X19120269Y-58280001D01*
X19550515Y-58194420D01*
X20038414Y-57868416D01*
X20260176Y-57536526D01*
X20327184Y-57679498D01*
X20752257Y-58067488D01*
X21161627Y-58237046D01*
X21389999Y-58117813D01*
X21389999Y-56930001D01*
X21369999Y-56930001D01*
X21369999Y-56680001D01*
X21389999Y-56680001D01*
X21389999Y-56660001D01*
X21639999Y-56660001D01*
X21639999Y-56680001D01*
X21659999Y-56680001D01*
X21659999Y-56930001D01*
X21639999Y-56930001D01*
X21639999Y-58117813D01*
X21868371Y-58237046D01*
X22277741Y-58067488D01*
X22702814Y-57679498D01*
X22769822Y-57536526D01*
X22991584Y-57868416D01*
X23479483Y-58194420D01*
X23909729Y-58280001D01*
X24200269Y-58280001D01*
X24630515Y-58194420D01*
X25118414Y-57868416D01*
X25324999Y-57559240D01*
X25531584Y-57868416D01*
X26019483Y-58194420D01*
X26449729Y-58280001D01*
X26740269Y-58280001D01*
X27170515Y-58194420D01*
X27658414Y-57868416D01*
X27864999Y-57559240D01*
X28071584Y-57868416D01*
X28559483Y-58194420D01*
X28989729Y-58280001D01*
X29280269Y-58280001D01*
X29710515Y-58194420D01*
X30198414Y-57868416D01*
X30404999Y-57559240D01*
X30611584Y-57868416D01*
X31099483Y-58194420D01*
X31529729Y-58280001D01*
X31820269Y-58280001D01*
X32250515Y-58194420D01*
X32738414Y-57868416D01*
X32960176Y-57536526D01*
X33027184Y-57679498D01*
X33452257Y-58067488D01*
X33861627Y-58237046D01*
X34089999Y-58117813D01*
X34089999Y-56930001D01*
X34069999Y-56930001D01*
X34069999Y-56680001D01*
X34089999Y-56680001D01*
X34089999Y-56660001D01*
X34339999Y-56660001D01*
X34339999Y-56680001D01*
X34359999Y-56680001D01*
X34359999Y-56930001D01*
X34339999Y-56930001D01*
X34339999Y-58117813D01*
X34568371Y-58237046D01*
X34977741Y-58067488D01*
X35402814Y-57679498D01*
X35469822Y-57536526D01*
X35691584Y-57868416D01*
X36179483Y-58194420D01*
X36609729Y-58280001D01*
X36900269Y-58280001D01*
X37330515Y-58194420D01*
X37818414Y-57868416D01*
X38024999Y-57559240D01*
X38231584Y-57868416D01*
X38719483Y-58194420D01*
X39149729Y-58280001D01*
X39440269Y-58280001D01*
X39870515Y-58194420D01*
X40358414Y-57868416D01*
X40580176Y-57536526D01*
X40647184Y-57679498D01*
X41072257Y-58067488D01*
X41481627Y-58237046D01*
X41709999Y-58117813D01*
X41709999Y-56930001D01*
X41689999Y-56930001D01*
X41689999Y-56680001D01*
X41709999Y-56680001D01*
X41709999Y-56660001D01*
X41959999Y-56660001D01*
X41959999Y-56680001D01*
X41979999Y-56680001D01*
X41979999Y-56930001D01*
X41959999Y-56930001D01*
X41959999Y-58117813D01*
X42188371Y-58237046D01*
X42597741Y-58067488D01*
X43022814Y-57679498D01*
X43089822Y-57536526D01*
X43311584Y-57868416D01*
X43799483Y-58194420D01*
X44229729Y-58280001D01*
X44520269Y-58280001D01*
X44950515Y-58194420D01*
X45438414Y-57868416D01*
X45644999Y-57559240D01*
X45851584Y-57868416D01*
X46339483Y-58194420D01*
X46769729Y-58280001D01*
X47060269Y-58280001D01*
X47490515Y-58194420D01*
X47978414Y-57868416D01*
X48184999Y-57559240D01*
X48391584Y-57868416D01*
X48879483Y-58194420D01*
X49309729Y-58280001D01*
X49600269Y-58280001D01*
X50030515Y-58194420D01*
X50518414Y-57868416D01*
X50740176Y-57536526D01*
X50807184Y-57679498D01*
X51232257Y-58067488D01*
X51641627Y-58237046D01*
X51869999Y-58117813D01*
X51869999Y-56930001D01*
X51849999Y-56930001D01*
X51849999Y-56680001D01*
X51869999Y-56680001D01*
X51869999Y-56660001D01*
X52119999Y-56660001D01*
X52119999Y-56680001D01*
X52139999Y-56680001D01*
X52139999Y-56930001D01*
X52119999Y-56930001D01*
X52119999Y-58117813D01*
X52348371Y-58237046D01*
X52757741Y-58067488D01*
X53182814Y-57679498D01*
X53249822Y-57536526D01*
X53471584Y-57868416D01*
X53959483Y-58194420D01*
X54389729Y-58280001D01*
X54680269Y-58280001D01*
X55110515Y-58194420D01*
X55598414Y-57868416D01*
X55804999Y-57559240D01*
X56011584Y-57868416D01*
X56499483Y-58194420D01*
X56929729Y-58280001D01*
X57220269Y-58280001D01*
X57650515Y-58194420D01*
X57896585Y-58030001D01*
X59074349Y-58030001D01*
X59194999Y-58054000D01*
X59315649Y-58030001D01*
X59315651Y-58030001D01*
X59672970Y-57958926D01*
X60078175Y-57688177D01*
X60146522Y-57585888D01*
X60780892Y-56951520D01*
X60883176Y-56883176D01*
X61153925Y-56477971D01*
X61225000Y-56120652D01*
X61225000Y-56120651D01*
X61237577Y-56057420D01*
X61775000Y-56057420D01*
X61775000Y-56942580D01*
X62113736Y-57760361D01*
X62739639Y-58386264D01*
X63557420Y-58725000D01*
X64442580Y-58725000D01*
X65260361Y-58386264D01*
X65886264Y-57760361D01*
X66225000Y-56942580D01*
X66225000Y-56057420D01*
X65886264Y-55239639D01*
X65260361Y-54613736D01*
X64442580Y-54275000D01*
X63557420Y-54275000D01*
X62739639Y-54613736D01*
X62113736Y-55239639D01*
X61775000Y-56057420D01*
X61237577Y-56057420D01*
X61248999Y-56000001D01*
X61225000Y-55879350D01*
X61225000Y-54807410D01*
X65080893Y-50951519D01*
X65183176Y-50883176D01*
X65453925Y-50477971D01*
X65525000Y-50120652D01*
X65525000Y-50120651D01*
X65548999Y-50000001D01*
X65525000Y-49879350D01*
X65525000Y-33120650D01*
X65548999Y-32999999D01*
X65503032Y-32768906D01*
X65453925Y-32522029D01*
X65183176Y-32116824D01*
X65080889Y-32048478D01*
X64551523Y-31519113D01*
X64483176Y-31416824D01*
X64077971Y-31146075D01*
X63720652Y-31075000D01*
X63720650Y-31075000D01*
X63600000Y-31051001D01*
X63479350Y-31075000D01*
X62901114Y-31075000D01*
X62850600Y-30999400D01*
X62643863Y-30861263D01*
X62400000Y-30812756D01*
X60700000Y-30812756D01*
X60456137Y-30861263D01*
X60249400Y-30999400D01*
X60198886Y-31075000D01*
X59620650Y-31075000D01*
X59500000Y-31051001D01*
X59379350Y-31075000D01*
X59379348Y-31075000D01*
X59022029Y-31146075D01*
X58616824Y-31416824D01*
X58548476Y-31519114D01*
X58519112Y-31548478D01*
X58416825Y-31616824D01*
X58387244Y-31661095D01*
X58387244Y-31460000D01*
X58338737Y-31216137D01*
X58200600Y-31009400D01*
X57993863Y-30871263D01*
X57750000Y-30822756D01*
X56050000Y-30822756D01*
X55806137Y-30871263D01*
X55599400Y-31009400D01*
X55461263Y-31216137D01*
X55412756Y-31460000D01*
X55412756Y-33160000D01*
X55461263Y-33403863D01*
X55599400Y-33610600D01*
X55806137Y-33748737D01*
X55873250Y-33762086D01*
X55836585Y-33786585D01*
X55510581Y-34274484D01*
X55396104Y-34850000D01*
X55510581Y-35425516D01*
X55836585Y-35913415D01*
X56145761Y-36120000D01*
X55836585Y-36326585D01*
X55510581Y-36814484D01*
X55487960Y-36928207D01*
X55341168Y-37075000D01*
X50892105Y-37075000D01*
X51276827Y-36571285D01*
X51475000Y-35825000D01*
X51475000Y-35525000D01*
X49625000Y-35525000D01*
X49625000Y-35545000D01*
X49375000Y-35545000D01*
X49375000Y-35525000D01*
X47525000Y-35525000D01*
X47525000Y-35825000D01*
X47723173Y-36571285D01*
X48107895Y-37075000D01*
X47333000Y-37075000D01*
X47333000Y-34975000D01*
X47525000Y-34975000D01*
X47525000Y-35275000D01*
X49375000Y-35275000D01*
X49375000Y-33285551D01*
X49625000Y-33285551D01*
X49625000Y-35275000D01*
X51475000Y-35275000D01*
X51475000Y-34975000D01*
X51276827Y-34228715D01*
X50808148Y-33615075D01*
X50140315Y-33227502D01*
X49931800Y-33172781D01*
X49625000Y-33285551D01*
X49375000Y-33285551D01*
X49068200Y-33172781D01*
X48859685Y-33227502D01*
X48191852Y-33615075D01*
X47723173Y-34228715D01*
X47525000Y-34975000D01*
X47333000Y-34975000D01*
X47333000Y-33300000D01*
X47284816Y-33057761D01*
X47147599Y-32852401D01*
X46989541Y-32694343D01*
X47841942Y-31841942D01*
X47977425Y-31639177D01*
X48002405Y-31513594D01*
X48076106Y-31623895D01*
X48729394Y-32060409D01*
X49500000Y-32213692D01*
X50270607Y-32060409D01*
X50923895Y-31623895D01*
X51360409Y-30970607D01*
X51475000Y-30394517D01*
X51475000Y-29405482D01*
X51360409Y-28829393D01*
X50923895Y-28176105D01*
X50270606Y-27739591D01*
X49500000Y-27586308D01*
X48729393Y-27739591D01*
X48076105Y-28176105D01*
X48025000Y-28252589D01*
X48025000Y-24458884D01*
X53012634Y-19471250D01*
X55605000Y-19471250D01*
X55605000Y-20314320D01*
X55700150Y-20544034D01*
X55875966Y-20719849D01*
X56105680Y-20815000D01*
X57748750Y-20815000D01*
X57905000Y-20658750D01*
X57905000Y-19315000D01*
X58155000Y-19315000D01*
X58155000Y-20658750D01*
X58311250Y-20815000D01*
X59954320Y-20815000D01*
X60184034Y-20719849D01*
X60359850Y-20544034D01*
X60455000Y-20314320D01*
X60455000Y-19471250D01*
X60298750Y-19315000D01*
X58155000Y-19315000D01*
X57905000Y-19315000D01*
X55761250Y-19315000D01*
X55605000Y-19471250D01*
X53012634Y-19471250D01*
X54418204Y-18065680D01*
X55605000Y-18065680D01*
X55605000Y-18908750D01*
X55761250Y-19065000D01*
X57905000Y-19065000D01*
X57905000Y-17721250D01*
X58155000Y-17721250D01*
X58155000Y-19065000D01*
X60298750Y-19065000D01*
X60455000Y-18908750D01*
X60455000Y-18065680D01*
X60359850Y-17835966D01*
X60184034Y-17660151D01*
X59954320Y-17565000D01*
X58311250Y-17565000D01*
X58155000Y-17721250D01*
X57905000Y-17721250D01*
X57748750Y-17565000D01*
X56105680Y-17565000D01*
X55875966Y-17660151D01*
X55700150Y-17835966D01*
X55605000Y-18065680D01*
X54418204Y-18065680D01*
X55758884Y-16725000D01*
X60300000Y-16725000D01*
X60539177Y-16677425D01*
X60741942Y-16541942D01*
X60877425Y-16339177D01*
X60925000Y-16100000D01*
X60925000Y-12200000D01*
X60877425Y-11960823D01*
X60741942Y-11758058D01*
X60539177Y-11622575D01*
X60300000Y-11575000D01*
X60025000Y-11575000D01*
X60025000Y-7081250D01*
X61475000Y-7081250D01*
X61475000Y-8724320D01*
X61570151Y-8954034D01*
X61745966Y-9129850D01*
X61975680Y-9225000D01*
X62818750Y-9225000D01*
X62975000Y-9068750D01*
X62975000Y-6925000D01*
X63225000Y-6925000D01*
X63225000Y-9068750D01*
X63381250Y-9225000D01*
X64224320Y-9225000D01*
X64454034Y-9129850D01*
X64629849Y-8954034D01*
X64725000Y-8724320D01*
X64725000Y-7081250D01*
X64568750Y-6925000D01*
X63225000Y-6925000D01*
X62975000Y-6925000D01*
X61631250Y-6925000D01*
X61475000Y-7081250D01*
X60025000Y-7081250D01*
X60025000Y-6610410D01*
X59913309Y-6048903D01*
X59704359Y-5736187D01*
X59630716Y-5365957D01*
X59303124Y-4875680D01*
X61475000Y-4875680D01*
X61475000Y-6518750D01*
X61631250Y-6675000D01*
X62975000Y-6675000D01*
X62975000Y-4531250D01*
X63225000Y-4531250D01*
X63225000Y-6675000D01*
X64568750Y-6675000D01*
X64725000Y-6518750D01*
X64725000Y-4875680D01*
X64629849Y-4645966D01*
X64454034Y-4470150D01*
X64224320Y-4375000D01*
X63381250Y-4375000D01*
X63225000Y-4531250D01*
X62975000Y-4531250D01*
X62818750Y-4375000D01*
X61975680Y-4375000D01*
X61745966Y-4470150D01*
X61570151Y-4645966D01*
X61475000Y-4875680D01*
X59303124Y-4875680D01*
X59271559Y-4828441D01*
X58734043Y-4469284D01*
X58100000Y-4343165D01*
X57465958Y-4469284D01*
X56928442Y-4828441D01*
X56569285Y-5365957D01*
X56495641Y-5736187D01*
X56286691Y-6048904D01*
X56175000Y-6610411D01*
X56175001Y-11010406D01*
X56175000Y-11010411D01*
X56175000Y-11575000D01*
X47025000Y-11575000D01*
X47025000Y-7081250D01*
X48475000Y-7081250D01*
X48475000Y-8724320D01*
X48570151Y-8954034D01*
X48745966Y-9129850D01*
X48975680Y-9225000D01*
X49818750Y-9225000D01*
X49975000Y-9068750D01*
X49975000Y-6925000D01*
X50225000Y-6925000D01*
X50225000Y-9068750D01*
X50381250Y-9225000D01*
X51224320Y-9225000D01*
X51454034Y-9129850D01*
X51629849Y-8954034D01*
X51725000Y-8724320D01*
X51725000Y-7081250D01*
X51568750Y-6925000D01*
X50225000Y-6925000D01*
X49975000Y-6925000D01*
X48631250Y-6925000D01*
X48475000Y-7081250D01*
X47025000Y-7081250D01*
X47025000Y-6610410D01*
X46913309Y-6048903D01*
X46704359Y-5736187D01*
X46630716Y-5365957D01*
X46303124Y-4875680D01*
X48475000Y-4875680D01*
X48475000Y-6518750D01*
X48631250Y-6675000D01*
X49975000Y-6675000D01*
X49975000Y-4531250D01*
X50225000Y-4531250D01*
X50225000Y-6675000D01*
X51568750Y-6675000D01*
X51725000Y-6518750D01*
X51725000Y-4875680D01*
X51629849Y-4645966D01*
X51454034Y-4470150D01*
X51224320Y-4375000D01*
X50381250Y-4375000D01*
X50225000Y-4531250D01*
X49975000Y-4531250D01*
X49818750Y-4375000D01*
X48975680Y-4375000D01*
X48745966Y-4470150D01*
X48570151Y-4645966D01*
X48475000Y-4875680D01*
X46303124Y-4875680D01*
X46271559Y-4828441D01*
X45734043Y-4469284D01*
X45100000Y-4343165D01*
X44465958Y-4469284D01*
X43928442Y-4828441D01*
X43569285Y-5365957D01*
X43495641Y-5736187D01*
X43286691Y-6048904D01*
X43175000Y-6610411D01*
X43175001Y-11010406D01*
X43175000Y-11010411D01*
X43175000Y-11575000D01*
X42800000Y-11575000D01*
X42560823Y-11622575D01*
X42358058Y-11758058D01*
X42222575Y-11960823D01*
X42175000Y-12200000D01*
X42175000Y-20975000D01*
X42004008Y-20975000D01*
X42025000Y-20924320D01*
X42025000Y-19731250D01*
X41868750Y-19575000D01*
X39875000Y-19575000D01*
X39875000Y-19595000D01*
X39625000Y-19595000D01*
X39625000Y-19575000D01*
X37631250Y-19575000D01*
X37475000Y-19731250D01*
X37475000Y-20924320D01*
X37570150Y-21154034D01*
X37745966Y-21329849D01*
X37975680Y-21425000D01*
X38609809Y-21425000D01*
X38575000Y-21600000D01*
X38575000Y-24067000D01*
X29725000Y-24067000D01*
X29725000Y-22070106D01*
X29624914Y-21566939D01*
X29243655Y-20996345D01*
X28979233Y-20819664D01*
X29063415Y-20763415D01*
X29389419Y-20275516D01*
X29503896Y-19700000D01*
X29389419Y-19124484D01*
X29063415Y-18636585D01*
X29026750Y-18612086D01*
X29093863Y-18598737D01*
X29300600Y-18460600D01*
X29438737Y-18253863D01*
X29487244Y-18010000D01*
X29487244Y-17975680D01*
X37475000Y-17975680D01*
X37475000Y-19168750D01*
X37631250Y-19325000D01*
X39625000Y-19325000D01*
X39625000Y-17631250D01*
X39875000Y-17631250D01*
X39875000Y-19325000D01*
X41868750Y-19325000D01*
X42025000Y-19168750D01*
X42025000Y-17975680D01*
X41929850Y-17745966D01*
X41754034Y-17570151D01*
X41524320Y-17475000D01*
X40031250Y-17475000D01*
X39875000Y-17631250D01*
X39625000Y-17631250D01*
X39468750Y-17475000D01*
X37975680Y-17475000D01*
X37745966Y-17570151D01*
X37570150Y-17745966D01*
X37475000Y-17975680D01*
X29487244Y-17975680D01*
X29487244Y-16310000D01*
X29438737Y-16066137D01*
X29300600Y-15859400D01*
X29093863Y-15721263D01*
X28895468Y-15681800D01*
X37522781Y-15681800D01*
X37577502Y-15890315D01*
X37965075Y-16558148D01*
X38578715Y-17026827D01*
X39325000Y-17225000D01*
X39625000Y-17225000D01*
X39625000Y-15375000D01*
X39875000Y-15375000D01*
X39875000Y-17225000D01*
X40175000Y-17225000D01*
X40921285Y-17026827D01*
X41534925Y-16558148D01*
X41922498Y-15890315D01*
X41977219Y-15681800D01*
X41864449Y-15375000D01*
X39875000Y-15375000D01*
X39625000Y-15375000D01*
X37635551Y-15375000D01*
X37522781Y-15681800D01*
X28895468Y-15681800D01*
X28850000Y-15672756D01*
X27150000Y-15672756D01*
X26906137Y-15721263D01*
X26699400Y-15859400D01*
X26561263Y-16066137D01*
X26512756Y-16310000D01*
X26512756Y-18010000D01*
X26561263Y-18253863D01*
X26699400Y-18460600D01*
X26906137Y-18598737D01*
X26973250Y-18612086D01*
X26936585Y-18636585D01*
X26610581Y-19124484D01*
X26496104Y-19700000D01*
X26610581Y-20275516D01*
X26936585Y-20763415D01*
X27020767Y-20819664D01*
X26756345Y-20996345D01*
X26375086Y-21566940D01*
X26275000Y-22070107D01*
X26275000Y-24067000D01*
X25525000Y-24067000D01*
X25525000Y-16069889D01*
X25558793Y-15900000D01*
X25525000Y-15730111D01*
X25525000Y-15730106D01*
X25424914Y-15226939D01*
X25151804Y-14818200D01*
X37522781Y-14818200D01*
X37635551Y-15125000D01*
X39625000Y-15125000D01*
X39625000Y-13275000D01*
X39875000Y-13275000D01*
X39875000Y-15125000D01*
X41864449Y-15125000D01*
X41977219Y-14818200D01*
X41922498Y-14609685D01*
X41534925Y-13941852D01*
X40921285Y-13473173D01*
X40175000Y-13275000D01*
X39875000Y-13275000D01*
X39625000Y-13275000D01*
X39325000Y-13275000D01*
X38578715Y-13473173D01*
X37965075Y-13941852D01*
X37577502Y-14609685D01*
X37522781Y-14818200D01*
X25151804Y-14818200D01*
X25043655Y-14656345D01*
X24899626Y-14560108D01*
X20825000Y-10485483D01*
X20825000Y-7081250D01*
X22475000Y-7081250D01*
X22475000Y-8724320D01*
X22570151Y-8954034D01*
X22745966Y-9129850D01*
X22975680Y-9225000D01*
X23818750Y-9225000D01*
X23975000Y-9068750D01*
X23975000Y-6925000D01*
X24225000Y-6925000D01*
X24225000Y-9068750D01*
X24381250Y-9225000D01*
X25224320Y-9225000D01*
X25454034Y-9129850D01*
X25629849Y-8954034D01*
X25725000Y-8724320D01*
X25725000Y-7081250D01*
X25568750Y-6925000D01*
X24225000Y-6925000D01*
X23975000Y-6925000D01*
X22631250Y-6925000D01*
X22475000Y-7081250D01*
X20825000Y-7081250D01*
X20825000Y-6630106D01*
X20725000Y-6127371D01*
X20725000Y-5839955D01*
X20630716Y-5365957D01*
X20303124Y-4875680D01*
X22475000Y-4875680D01*
X22475000Y-6518750D01*
X22631250Y-6675000D01*
X23975000Y-6675000D01*
X23975000Y-4531250D01*
X24225000Y-4531250D01*
X24225000Y-6675000D01*
X25568750Y-6675000D01*
X25725000Y-6518750D01*
X25725000Y-5839955D01*
X30475000Y-5839955D01*
X30475000Y-7760044D01*
X30569284Y-8234042D01*
X30928441Y-8771559D01*
X31465957Y-9130716D01*
X32100000Y-9256835D01*
X32734042Y-9130716D01*
X33271559Y-8771559D01*
X33630716Y-8234043D01*
X33725000Y-7760045D01*
X33725000Y-7081250D01*
X35475000Y-7081250D01*
X35475000Y-8724320D01*
X35570151Y-8954034D01*
X35745966Y-9129850D01*
X35975680Y-9225000D01*
X36818750Y-9225000D01*
X36975000Y-9068750D01*
X36975000Y-6925000D01*
X37225000Y-6925000D01*
X37225000Y-9068750D01*
X37381250Y-9225000D01*
X38224320Y-9225000D01*
X38454034Y-9129850D01*
X38629849Y-8954034D01*
X38725000Y-8724320D01*
X38725000Y-7081250D01*
X38568750Y-6925000D01*
X37225000Y-6925000D01*
X36975000Y-6925000D01*
X35631250Y-6925000D01*
X35475000Y-7081250D01*
X33725000Y-7081250D01*
X33725000Y-5839955D01*
X33630716Y-5365957D01*
X33303124Y-4875680D01*
X35475000Y-4875680D01*
X35475000Y-6518750D01*
X35631250Y-6675000D01*
X36975000Y-6675000D01*
X36975000Y-4531250D01*
X37225000Y-4531250D01*
X37225000Y-6675000D01*
X38568750Y-6675000D01*
X38725000Y-6518750D01*
X38725000Y-4875680D01*
X38629849Y-4645966D01*
X38454034Y-4470150D01*
X38224320Y-4375000D01*
X37381250Y-4375000D01*
X37225000Y-4531250D01*
X36975000Y-4531250D01*
X36818750Y-4375000D01*
X35975680Y-4375000D01*
X35745966Y-4470150D01*
X35570151Y-4645966D01*
X35475000Y-4875680D01*
X33303124Y-4875680D01*
X33271559Y-4828441D01*
X32734043Y-4469284D01*
X32100000Y-4343165D01*
X31465958Y-4469284D01*
X30928442Y-4828441D01*
X30569285Y-5365957D01*
X30475000Y-5839955D01*
X25725000Y-5839955D01*
X25725000Y-4875680D01*
X25629849Y-4645966D01*
X25454034Y-4470150D01*
X25224320Y-4375000D01*
X24381250Y-4375000D01*
X24225000Y-4531250D01*
X23975000Y-4531250D01*
X23818750Y-4375000D01*
X22975680Y-4375000D01*
X22745966Y-4470150D01*
X22570151Y-4645966D01*
X22475000Y-4875680D01*
X20303124Y-4875680D01*
X20271559Y-4828441D01*
X19734043Y-4469284D01*
X19100000Y-4343165D01*
X18465958Y-4469284D01*
X17928442Y-4828441D01*
X17569285Y-5365957D01*
X17475000Y-5839955D01*
X17475000Y-6127372D01*
X17375000Y-6630107D01*
X17375001Y-11030106D01*
X17341207Y-11200000D01*
X17475087Y-11873061D01*
X17665002Y-12157288D01*
X17856346Y-12443655D01*
X18000375Y-12539892D01*
X22075000Y-16614518D01*
X22075001Y-24067000D01*
X14700000Y-24067000D01*
X14457761Y-24115184D01*
X14252401Y-24252401D01*
X13652401Y-24852401D01*
X13515184Y-25057761D01*
X13467000Y-25300000D01*
X13467000Y-28715849D01*
X13008148Y-28115075D01*
X12340315Y-27727502D01*
X12131800Y-27672781D01*
X11825000Y-27785551D01*
X11825000Y-29775000D01*
X11845000Y-29775000D01*
X11845000Y-30025000D01*
X11825000Y-30025000D01*
X11825000Y-32014449D01*
X12131800Y-32127219D01*
X12340315Y-32072498D01*
X13008148Y-31684925D01*
X13467000Y-31084151D01*
X13467000Y-32100000D01*
X13515184Y-32342239D01*
X13652401Y-32547599D01*
X14252401Y-33147599D01*
X14457761Y-33284816D01*
X14700000Y-33333000D01*
X14989597Y-33333000D01*
X14476105Y-33676105D01*
X14039591Y-34329394D01*
X13925000Y-34905483D01*
X13925000Y-35894518D01*
X14039591Y-36470607D01*
X14476106Y-37123895D01*
X15129394Y-37560409D01*
X15900000Y-37713692D01*
X16670607Y-37560409D01*
X17323895Y-37123895D01*
X17760409Y-36470607D01*
X17875000Y-35894517D01*
X17875000Y-35525000D01*
X18125000Y-35525000D01*
X18125000Y-35825000D01*
X18323173Y-36571285D01*
X18791852Y-37184925D01*
X19459685Y-37572498D01*
X19668200Y-37627219D01*
X19975000Y-37514449D01*
X19975000Y-35525000D01*
X20225000Y-35525000D01*
X20225000Y-37514449D01*
X20531800Y-37627219D01*
X20740315Y-37572498D01*
X21408148Y-37184925D01*
X21876827Y-36571285D01*
X22075000Y-35825000D01*
X22075000Y-35525000D01*
X22325000Y-35525000D01*
X22325000Y-35825000D01*
X22523173Y-36571285D01*
X22991852Y-37184925D01*
X23659685Y-37572498D01*
X23868200Y-37627219D01*
X24175000Y-37514449D01*
X24175000Y-35525000D01*
X24425000Y-35525000D01*
X24425000Y-37514449D01*
X24731800Y-37627219D01*
X24940315Y-37572498D01*
X25608148Y-37184925D01*
X26076827Y-36571285D01*
X26275000Y-35825000D01*
X26275000Y-35525000D01*
X26525000Y-35525000D01*
X26525000Y-35825000D01*
X26723173Y-36571285D01*
X27191852Y-37184925D01*
X27859685Y-37572498D01*
X28068200Y-37627219D01*
X28375000Y-37514449D01*
X28375000Y-35525000D01*
X26525000Y-35525000D01*
X26275000Y-35525000D01*
X24425000Y-35525000D01*
X24175000Y-35525000D01*
X22325000Y-35525000D01*
X22075000Y-35525000D01*
X20225000Y-35525000D01*
X19975000Y-35525000D01*
X18125000Y-35525000D01*
X17875000Y-35525000D01*
X17875000Y-34905482D01*
X17760409Y-34329393D01*
X17323895Y-33676105D01*
X16810402Y-33333000D01*
X19277900Y-33333000D01*
X18791852Y-33615075D01*
X18323173Y-34228715D01*
X18125000Y-34975000D01*
X18125000Y-35275000D01*
X19975000Y-35275000D01*
X19975000Y-35255000D01*
X20225000Y-35255000D01*
X20225000Y-35275000D01*
X22075000Y-35275000D01*
X22075000Y-34975000D01*
X21876827Y-34228715D01*
X21408148Y-33615075D01*
X20922100Y-33333000D01*
X23477900Y-33333000D01*
X22991852Y-33615075D01*
X22523173Y-34228715D01*
X22325000Y-34975000D01*
X22325000Y-35275000D01*
X24175000Y-35275000D01*
X24175000Y-35255000D01*
X24425000Y-35255000D01*
X24425000Y-35275000D01*
X26275000Y-35275000D01*
X26275000Y-34975000D01*
X26076827Y-34228715D01*
X25608148Y-33615075D01*
X25122100Y-33333000D01*
X27677900Y-33333000D01*
X27191852Y-33615075D01*
X26723173Y-34228715D01*
X26525000Y-34975000D01*
X26525000Y-35275000D01*
X28375000Y-35275000D01*
X28375000Y-35255000D01*
X28625000Y-35255000D01*
X28625000Y-35275000D01*
X28645000Y-35275000D01*
X28645000Y-35525000D01*
X28625000Y-35525000D01*
X28625000Y-37514449D01*
X28931800Y-37627219D01*
X29140315Y-37572498D01*
X29575000Y-37320231D01*
X29575000Y-37900949D01*
X29575001Y-37900953D01*
X29575001Y-37999051D01*
X29554921Y-38100000D01*
X29634472Y-38499934D01*
X29803834Y-38753402D01*
X29803836Y-38753404D01*
X29861018Y-38838983D01*
X29946597Y-38896165D01*
X30346597Y-39296165D01*
X30510450Y-39405648D01*
X30652401Y-39547599D01*
X30857761Y-39684816D01*
X31100000Y-39733000D01*
X43218480Y-39733000D01*
X43157680Y-39823993D01*
X43047083Y-40380000D01*
X43157680Y-40936007D01*
X43472633Y-41407367D01*
X43943993Y-41722320D01*
X44359652Y-41805000D01*
X44640348Y-41805000D01*
X45056007Y-41722320D01*
X45527367Y-41407367D01*
X45842320Y-40936007D01*
X45952917Y-40380000D01*
X45842320Y-39823993D01*
X45781520Y-39733000D01*
X46100000Y-39733000D01*
X46140219Y-39725000D01*
X55759502Y-39725000D01*
X55890000Y-39750958D01*
X56020498Y-39725000D01*
X56020499Y-39725000D01*
X56406989Y-39648122D01*
X56845272Y-39355272D01*
X56919197Y-39244636D01*
X57361793Y-38802040D01*
X57475516Y-38779419D01*
X57963415Y-38453415D01*
X58289419Y-37965516D01*
X58403896Y-37390000D01*
X58289419Y-36814484D01*
X57963415Y-36326585D01*
X57654239Y-36120000D01*
X57721586Y-36075000D01*
X57981431Y-36075000D01*
X58102081Y-36098999D01*
X58222731Y-36075000D01*
X58222733Y-36075000D01*
X58580052Y-36003925D01*
X58985257Y-35733176D01*
X59053604Y-35630887D01*
X60080892Y-34603601D01*
X60095002Y-34594173D01*
X60046104Y-34840000D01*
X60160581Y-35415516D01*
X60486585Y-35903415D01*
X60795761Y-36110000D01*
X60486585Y-36316585D01*
X60160581Y-36804484D01*
X60046104Y-37380000D01*
X60160581Y-37955516D01*
X60486585Y-38443415D01*
X60795761Y-38650000D01*
X60486585Y-38856585D01*
X60160581Y-39344484D01*
X60046104Y-39920000D01*
X60160581Y-40495516D01*
X60486585Y-40983415D01*
X60818475Y-41205177D01*
X60675503Y-41272185D01*
X60287513Y-41697258D01*
X60117955Y-42106628D01*
X60237188Y-42335000D01*
X61425000Y-42335000D01*
X61425000Y-42315000D01*
X61675000Y-42315000D01*
X61675000Y-42335000D01*
X62862812Y-42335000D01*
X62982045Y-42106628D01*
X62812487Y-41697258D01*
X62424497Y-41272185D01*
X62281525Y-41205177D01*
X62613415Y-40983415D01*
X62939419Y-40495516D01*
X63053896Y-39920000D01*
X62939419Y-39344484D01*
X62613415Y-38856585D01*
X62304239Y-38650000D01*
X62613415Y-38443415D01*
X62939419Y-37955516D01*
X63053896Y-37380000D01*
X62939419Y-36804484D01*
X62613415Y-36316585D01*
X62304239Y-36110000D01*
X62613415Y-35903415D01*
X62939419Y-35415516D01*
X63053896Y-34840000D01*
X62939419Y-34264484D01*
X62613415Y-33776585D01*
X62576750Y-33752086D01*
X62643863Y-33738737D01*
X62850600Y-33600600D01*
X62901114Y-33525000D01*
X63075001Y-33525000D01*
X63075000Y-49492588D01*
X59219111Y-53348478D01*
X59116825Y-53416824D01*
X58846076Y-53822029D01*
X58814232Y-53982121D01*
X58751001Y-54300000D01*
X58775000Y-54420650D01*
X58775000Y-55492589D01*
X58687588Y-55580001D01*
X58354048Y-55580001D01*
X58375599Y-55565601D01*
X58513736Y-55358864D01*
X58562243Y-55115001D01*
X58562243Y-53415001D01*
X58513736Y-53171138D01*
X58375599Y-52964401D01*
X58168862Y-52826264D01*
X57924999Y-52777757D01*
X56224999Y-52777757D01*
X55981136Y-52826264D01*
X55774399Y-52964401D01*
X55636262Y-53171138D01*
X55622913Y-53238251D01*
X55598414Y-53201586D01*
X55359999Y-53042282D01*
X55359999Y-52236246D01*
X55376160Y-52154999D01*
X55359999Y-52073751D01*
X55359999Y-52073748D01*
X55312131Y-51833100D01*
X55129790Y-51560208D01*
X55060909Y-51514183D01*
X54446726Y-50900000D01*
X56347083Y-50900000D01*
X56457680Y-51456007D01*
X56772633Y-51927367D01*
X57243993Y-52242320D01*
X57659652Y-52325000D01*
X57940348Y-52325000D01*
X58356007Y-52242320D01*
X58827367Y-51927367D01*
X59142320Y-51456007D01*
X59252917Y-50900000D01*
X59142320Y-50343993D01*
X58827367Y-49872633D01*
X58356007Y-49557680D01*
X57940348Y-49475000D01*
X57659652Y-49475000D01*
X57243993Y-49557680D01*
X56772633Y-49872633D01*
X56457680Y-50343993D01*
X56347083Y-50900000D01*
X54446726Y-50900000D01*
X51585435Y-48038709D01*
X51632917Y-47800000D01*
X51576536Y-47516550D01*
X56375000Y-47516550D01*
X56375000Y-48083450D01*
X56591944Y-48607197D01*
X56992803Y-49008056D01*
X57516550Y-49225000D01*
X58083450Y-49225000D01*
X58607197Y-49008056D01*
X59008056Y-48607197D01*
X59225000Y-48083450D01*
X59225000Y-47516550D01*
X59008056Y-46992803D01*
X58607197Y-46591944D01*
X58083450Y-46375000D01*
X57516550Y-46375000D01*
X56992803Y-46591944D01*
X56591944Y-46992803D01*
X56375000Y-47516550D01*
X51576536Y-47516550D01*
X51522320Y-47243993D01*
X51207367Y-46772633D01*
X50736007Y-46457680D01*
X50320348Y-46375000D01*
X50039652Y-46375000D01*
X49623993Y-46457680D01*
X49152633Y-46772633D01*
X48837680Y-47243993D01*
X48727083Y-47800000D01*
X48837680Y-48356007D01*
X49152633Y-48827367D01*
X49623993Y-49142320D01*
X50039652Y-49225000D01*
X50320348Y-49225000D01*
X50418709Y-49205435D01*
X50847251Y-49633976D01*
X50463450Y-49475000D01*
X49896550Y-49475000D01*
X49372803Y-49691944D01*
X49105345Y-49959402D01*
X49047367Y-49872633D01*
X48576007Y-49557680D01*
X48160348Y-49475000D01*
X47879652Y-49475000D01*
X47463993Y-49557680D01*
X46992633Y-49872633D01*
X46677680Y-50343993D01*
X46567083Y-50900000D01*
X46677680Y-51456007D01*
X46992633Y-51927367D01*
X47463993Y-52242320D01*
X47879652Y-52325000D01*
X48160348Y-52325000D01*
X48576007Y-52242320D01*
X49047367Y-51927367D01*
X49105345Y-51840598D01*
X49372803Y-52108056D01*
X49896550Y-52325000D01*
X50463450Y-52325000D01*
X50987197Y-52108056D01*
X51388056Y-51707197D01*
X51605000Y-51183450D01*
X51605000Y-50616550D01*
X51446024Y-50232749D01*
X53710000Y-52496726D01*
X53710000Y-53042282D01*
X53471584Y-53201586D01*
X53264999Y-53510762D01*
X53058414Y-53201586D01*
X52570515Y-52875582D01*
X52140269Y-52790001D01*
X51849729Y-52790001D01*
X51419483Y-52875582D01*
X50931584Y-53201586D01*
X50724999Y-53510762D01*
X50518414Y-53201586D01*
X50030515Y-52875582D01*
X49600269Y-52790001D01*
X49309729Y-52790001D01*
X48879483Y-52875582D01*
X48391584Y-53201586D01*
X48169822Y-53533476D01*
X48102814Y-53390504D01*
X47677741Y-53002514D01*
X47268371Y-52832956D01*
X47039999Y-52952189D01*
X47039999Y-54140001D01*
X47059999Y-54140001D01*
X47059999Y-54390001D01*
X47039999Y-54390001D01*
X47039999Y-54410001D01*
X46789999Y-54410001D01*
X46789999Y-54390001D01*
X46769999Y-54390001D01*
X46769999Y-54140001D01*
X46789999Y-54140001D01*
X46789999Y-52952189D01*
X46561627Y-52832956D01*
X46152257Y-53002514D01*
X45727184Y-53390504D01*
X45660176Y-53533476D01*
X45438414Y-53201586D01*
X44950515Y-52875582D01*
X44520269Y-52790001D01*
X44229729Y-52790001D01*
X43799483Y-52875582D01*
X43311584Y-53201586D01*
X43104999Y-53510762D01*
X42898414Y-53201586D01*
X42410515Y-52875582D01*
X41980269Y-52790001D01*
X41689729Y-52790001D01*
X41259483Y-52875582D01*
X40771584Y-53201586D01*
X40564999Y-53510762D01*
X40358414Y-53201586D01*
X39870515Y-52875582D01*
X39440269Y-52790001D01*
X39149729Y-52790001D01*
X38719483Y-52875582D01*
X38231584Y-53201586D01*
X38024999Y-53510762D01*
X37818414Y-53201586D01*
X37330515Y-52875582D01*
X36900269Y-52790001D01*
X36609729Y-52790001D01*
X36179483Y-52875582D01*
X35691584Y-53201586D01*
X35484999Y-53510762D01*
X35278414Y-53201586D01*
X34790515Y-52875582D01*
X34360269Y-52790001D01*
X34069729Y-52790001D01*
X33639483Y-52875582D01*
X33151584Y-53201586D01*
X32944999Y-53510762D01*
X32738414Y-53201586D01*
X32250515Y-52875582D01*
X31820269Y-52790001D01*
X31529729Y-52790001D01*
X31099483Y-52875582D01*
X30611584Y-53201586D01*
X30404999Y-53510762D01*
X30198414Y-53201586D01*
X29710515Y-52875582D01*
X29280269Y-52790001D01*
X28989729Y-52790001D01*
X28559483Y-52875582D01*
X28071584Y-53201586D01*
X27849822Y-53533476D01*
X27782814Y-53390504D01*
X27357741Y-53002514D01*
X26948371Y-52832956D01*
X26719999Y-52952189D01*
X26719999Y-54140001D01*
X26739999Y-54140001D01*
X26739999Y-54390001D01*
X26719999Y-54390001D01*
X26719999Y-54410001D01*
X26469999Y-54410001D01*
X26469999Y-54390001D01*
X26449999Y-54390001D01*
X26449999Y-54140001D01*
X26469999Y-54140001D01*
X26469999Y-52952189D01*
X26241627Y-52832956D01*
X25832257Y-53002514D01*
X25407184Y-53390504D01*
X25340176Y-53533476D01*
X25118414Y-53201586D01*
X24630515Y-52875582D01*
X24200269Y-52790001D01*
X23909729Y-52790001D01*
X23479483Y-52875582D01*
X22991584Y-53201586D01*
X22784999Y-53510762D01*
X22578414Y-53201586D01*
X22090515Y-52875582D01*
X21660269Y-52790001D01*
X21369729Y-52790001D01*
X20939483Y-52875582D01*
X20451584Y-53201586D01*
X20244999Y-53510762D01*
X20038414Y-53201586D01*
X19550515Y-52875582D01*
X19120269Y-52790001D01*
X18829729Y-52790001D01*
X18399483Y-52875582D01*
X17911584Y-53201586D01*
X17704999Y-53510762D01*
X17498414Y-53201586D01*
X17010515Y-52875582D01*
X16580269Y-52790001D01*
X16289729Y-52790001D01*
X15859483Y-52875582D01*
X15371584Y-53201586D01*
X15164999Y-53510762D01*
X14958414Y-53201586D01*
X14470515Y-52875582D01*
X14040269Y-52790001D01*
X13749729Y-52790001D01*
X13319483Y-52875582D01*
X12831584Y-53201586D01*
X12624999Y-53510762D01*
X12418414Y-53201586D01*
X11930515Y-52875582D01*
X11500269Y-52790001D01*
X11209729Y-52790001D01*
X10779483Y-52875582D01*
X10291584Y-53201586D01*
X10069822Y-53533476D01*
X10002814Y-53390504D01*
X9577741Y-53002514D01*
X9168371Y-52832956D01*
X8939999Y-52952189D01*
X8939999Y-54140001D01*
X8959999Y-54140001D01*
X8959999Y-54390001D01*
X8939999Y-54390001D01*
X8939999Y-54410001D01*
X8689999Y-54410001D01*
X8689999Y-54390001D01*
X7501546Y-54390001D01*
X7382945Y-54618374D01*
X7627184Y-55139498D01*
X8052257Y-55527488D01*
X8064447Y-55532537D01*
X7751584Y-55741586D01*
X7425580Y-56229485D01*
X7311103Y-56805001D01*
X5816768Y-56805001D01*
X6145000Y-56012580D01*
X6145000Y-55127420D01*
X5806264Y-54309639D01*
X5408253Y-53911628D01*
X7382945Y-53911628D01*
X7501546Y-54140001D01*
X8689999Y-54140001D01*
X8689999Y-52952189D01*
X8461627Y-52832956D01*
X8052257Y-53002514D01*
X7627184Y-53390504D01*
X7382945Y-53911628D01*
X5408253Y-53911628D01*
X5180361Y-53683736D01*
X4362580Y-53345000D01*
X3477420Y-53345000D01*
X2659639Y-53683736D01*
X2033736Y-54309639D01*
X1695000Y-55127420D01*
X700000Y-55127420D01*
X700000Y-51016550D01*
X26275000Y-51016550D01*
X26275000Y-51583450D01*
X26491944Y-52107197D01*
X26892803Y-52508056D01*
X27416550Y-52725000D01*
X27983450Y-52725000D01*
X28507197Y-52508056D01*
X28908056Y-52107197D01*
X29125000Y-51583450D01*
X29125000Y-51016550D01*
X28959314Y-50616550D01*
X29175000Y-50616550D01*
X29175000Y-51183450D01*
X29391944Y-51707197D01*
X29792803Y-52108056D01*
X30316550Y-52325000D01*
X30883450Y-52325000D01*
X31407197Y-52108056D01*
X31808056Y-51707197D01*
X31999289Y-51245521D01*
X36837524Y-51245521D01*
X36998114Y-51633244D01*
X37371725Y-52045025D01*
X37874478Y-52282486D01*
X38095000Y-52163267D01*
X38095000Y-51025000D01*
X36957423Y-51025000D01*
X36837524Y-51245521D01*
X31999289Y-51245521D01*
X32025000Y-51183450D01*
X32025000Y-50616550D01*
X31999290Y-50554479D01*
X36837524Y-50554479D01*
X36957423Y-50775000D01*
X38095000Y-50775000D01*
X38095000Y-49636733D01*
X38345000Y-49636733D01*
X38345000Y-50775000D01*
X38365000Y-50775000D01*
X38365000Y-51025000D01*
X38345000Y-51025000D01*
X38345000Y-52163267D01*
X38565522Y-52282486D01*
X39068275Y-52045025D01*
X39198949Y-51901000D01*
X39575777Y-51901000D01*
X39650291Y-52144550D01*
X40183627Y-52336716D01*
X40749905Y-52310155D01*
X41149709Y-52144550D01*
X41224223Y-51901000D01*
X40400000Y-51076777D01*
X39575777Y-51901000D01*
X39198949Y-51901000D01*
X39367957Y-51714726D01*
X39399000Y-51724223D01*
X40223223Y-50900000D01*
X40576777Y-50900000D01*
X41401000Y-51724223D01*
X41644550Y-51649709D01*
X41836716Y-51116373D01*
X41810155Y-50550095D01*
X41644550Y-50150291D01*
X41401000Y-50075777D01*
X40576777Y-50900000D01*
X40223223Y-50900000D01*
X39399000Y-50075777D01*
X39367957Y-50085274D01*
X39198950Y-49899000D01*
X39575777Y-49899000D01*
X40400000Y-50723223D01*
X41224223Y-49899000D01*
X41149709Y-49655450D01*
X40616373Y-49463284D01*
X40050095Y-49489845D01*
X39650291Y-49655450D01*
X39575777Y-49899000D01*
X39198950Y-49899000D01*
X39068275Y-49754975D01*
X38565522Y-49517514D01*
X38345000Y-49636733D01*
X38095000Y-49636733D01*
X37874478Y-49517514D01*
X37371725Y-49754975D01*
X36998114Y-50166756D01*
X36837524Y-50554479D01*
X31999290Y-50554479D01*
X31808056Y-50092803D01*
X31407197Y-49691944D01*
X30883450Y-49475000D01*
X30316550Y-49475000D01*
X29792803Y-49691944D01*
X29391944Y-50092803D01*
X29175000Y-50616550D01*
X28959314Y-50616550D01*
X28908056Y-50492803D01*
X28507197Y-50091944D01*
X27983450Y-49875000D01*
X27416550Y-49875000D01*
X26892803Y-50091944D01*
X26491944Y-50492803D01*
X26275000Y-51016550D01*
X700000Y-51016550D01*
X700000Y-46181250D01*
X2125000Y-46181250D01*
X2125000Y-46874320D01*
X2220150Y-47104034D01*
X2395966Y-47279849D01*
X2625680Y-47375000D01*
X3318750Y-47375000D01*
X3475000Y-47218750D01*
X3475000Y-46025000D01*
X2281250Y-46025000D01*
X2125000Y-46181250D01*
X700000Y-46181250D01*
X700000Y-44925680D01*
X2125000Y-44925680D01*
X2125000Y-45618750D01*
X2281250Y-45775000D01*
X3475000Y-45775000D01*
X3475000Y-44581250D01*
X3725000Y-44581250D01*
X3725000Y-45775000D01*
X3745000Y-45775000D01*
X3745000Y-46025000D01*
X3725000Y-46025000D01*
X3725000Y-47218750D01*
X3881250Y-47375000D01*
X4574320Y-47375000D01*
X4804034Y-47279849D01*
X4979850Y-47104034D01*
X5052825Y-46927856D01*
X5076585Y-46963415D01*
X5564484Y-47289419D01*
X5994730Y-47375000D01*
X6285270Y-47375000D01*
X6715516Y-47289419D01*
X7203415Y-46963415D01*
X7529419Y-46475516D01*
X7574995Y-46246387D01*
X29785000Y-46246387D01*
X29785000Y-46753613D01*
X29979107Y-47222230D01*
X30337770Y-47580893D01*
X30806387Y-47775000D01*
X31055000Y-47775000D01*
X31055000Y-48023613D01*
X31249107Y-48492230D01*
X31607770Y-48850893D01*
X32076387Y-49045000D01*
X32583613Y-49045000D01*
X33052230Y-48850893D01*
X33410893Y-48492230D01*
X33605000Y-48023613D01*
X33605000Y-47787244D01*
X34250000Y-47787244D01*
X34493863Y-47738737D01*
X34527068Y-47716550D01*
X43075000Y-47716550D01*
X43075000Y-48283450D01*
X43291944Y-48807197D01*
X43692803Y-49208056D01*
X44216550Y-49425000D01*
X44783450Y-49425000D01*
X45307197Y-49208056D01*
X45708056Y-48807197D01*
X45925000Y-48283450D01*
X45925000Y-47716550D01*
X45708056Y-47192803D01*
X45307197Y-46791944D01*
X44783450Y-46575000D01*
X44216550Y-46575000D01*
X43692803Y-46791944D01*
X43291944Y-47192803D01*
X43075000Y-47716550D01*
X34527068Y-47716550D01*
X34700600Y-47600600D01*
X34838737Y-47393863D01*
X34887244Y-47150000D01*
X34887244Y-45881250D01*
X39425000Y-45881250D01*
X39425000Y-46574320D01*
X39520151Y-46804034D01*
X39695966Y-46979850D01*
X39925680Y-47075000D01*
X40618750Y-47075000D01*
X40775000Y-46918750D01*
X40775000Y-45725000D01*
X41025000Y-45725000D01*
X41025000Y-46918750D01*
X41181250Y-47075000D01*
X41874320Y-47075000D01*
X42104034Y-46979850D01*
X42279849Y-46804034D01*
X42375000Y-46574320D01*
X42375000Y-45881250D01*
X42218750Y-45725000D01*
X41025000Y-45725000D01*
X40775000Y-45725000D01*
X39581250Y-45725000D01*
X39425000Y-45881250D01*
X34887244Y-45881250D01*
X34887244Y-45850000D01*
X34838737Y-45606137D01*
X34700600Y-45399400D01*
X34493863Y-45261263D01*
X34250000Y-45212756D01*
X32950000Y-45212756D01*
X32706137Y-45261263D01*
X32499400Y-45399400D01*
X32361263Y-45606137D01*
X32312756Y-45850000D01*
X32312756Y-46192685D01*
X32140893Y-45777770D01*
X31782230Y-45419107D01*
X31313613Y-45225000D01*
X30806387Y-45225000D01*
X30337770Y-45419107D01*
X29979107Y-45777770D01*
X29785000Y-46246387D01*
X7574995Y-46246387D01*
X7643896Y-45900000D01*
X7529419Y-45324484D01*
X7203415Y-44836585D01*
X6715516Y-44510581D01*
X6285270Y-44425000D01*
X5994730Y-44425000D01*
X5564484Y-44510581D01*
X5076585Y-44836585D01*
X5052825Y-44872144D01*
X4979850Y-44695966D01*
X4804034Y-44520151D01*
X4574320Y-44425000D01*
X3881250Y-44425000D01*
X3725000Y-44581250D01*
X3475000Y-44581250D01*
X3318750Y-44425000D01*
X2625680Y-44425000D01*
X2395966Y-44520151D01*
X2220150Y-44695966D01*
X2125000Y-44925680D01*
X700000Y-44925680D01*
X700000Y-43680000D01*
X26247083Y-43680000D01*
X26357680Y-44236007D01*
X26672633Y-44707367D01*
X27143993Y-45022320D01*
X27559652Y-45105000D01*
X27840348Y-45105000D01*
X28256007Y-45022320D01*
X28727367Y-44707367D01*
X29042320Y-44236007D01*
X29152917Y-43680000D01*
X29042320Y-43123993D01*
X28727367Y-42652633D01*
X28349276Y-42400000D01*
X29856104Y-42400000D01*
X29970581Y-42975516D01*
X30296585Y-43463415D01*
X30784484Y-43789419D01*
X31214730Y-43875000D01*
X31505270Y-43875000D01*
X31935516Y-43789419D01*
X32423415Y-43463415D01*
X32630000Y-43154239D01*
X32836585Y-43463415D01*
X33324484Y-43789419D01*
X33754730Y-43875000D01*
X34045270Y-43875000D01*
X34475516Y-43789419D01*
X34963415Y-43463415D01*
X34987914Y-43426750D01*
X35001263Y-43493863D01*
X35139400Y-43700600D01*
X35346137Y-43838737D01*
X35590000Y-43887244D01*
X37290000Y-43887244D01*
X37533863Y-43838737D01*
X37740600Y-43700600D01*
X37878737Y-43493863D01*
X37927244Y-43250000D01*
X37927244Y-43060000D01*
X39396104Y-43060000D01*
X39510581Y-43635516D01*
X39836585Y-44123415D01*
X39872144Y-44147175D01*
X39695966Y-44220150D01*
X39520151Y-44395966D01*
X39425000Y-44625680D01*
X39425000Y-45318750D01*
X39581250Y-45475000D01*
X40775000Y-45475000D01*
X40775000Y-45455000D01*
X41025000Y-45455000D01*
X41025000Y-45475000D01*
X42218750Y-45475000D01*
X42375000Y-45318750D01*
X42375000Y-44625680D01*
X42279849Y-44395966D01*
X42104034Y-44220150D01*
X41927856Y-44147175D01*
X41963415Y-44123415D01*
X42289419Y-43635516D01*
X42403896Y-43060000D01*
X42354839Y-42813372D01*
X60117955Y-42813372D01*
X60287513Y-43222742D01*
X60675503Y-43647815D01*
X61196627Y-43892054D01*
X61425000Y-43773453D01*
X61425000Y-42585000D01*
X61675000Y-42585000D01*
X61675000Y-43773453D01*
X61903373Y-43892054D01*
X62424497Y-43647815D01*
X62812487Y-43222742D01*
X62982045Y-42813372D01*
X62862812Y-42585000D01*
X61675000Y-42585000D01*
X61425000Y-42585000D01*
X60237188Y-42585000D01*
X60117955Y-42813372D01*
X42354839Y-42813372D01*
X42289419Y-42484484D01*
X41963415Y-41996585D01*
X41475516Y-41670581D01*
X41045270Y-41585000D01*
X40754730Y-41585000D01*
X40324484Y-41670581D01*
X39836585Y-41996585D01*
X39510581Y-42484484D01*
X39396104Y-43060000D01*
X37927244Y-43060000D01*
X37927244Y-41550000D01*
X37878737Y-41306137D01*
X37740600Y-41099400D01*
X37533863Y-40961263D01*
X37290000Y-40912756D01*
X35590000Y-40912756D01*
X35346137Y-40961263D01*
X35139400Y-41099400D01*
X35001263Y-41306137D01*
X34987914Y-41373250D01*
X34963415Y-41336585D01*
X34475516Y-41010581D01*
X34045270Y-40925000D01*
X33754730Y-40925000D01*
X33324484Y-41010581D01*
X32836585Y-41336585D01*
X32630000Y-41645761D01*
X32423415Y-41336585D01*
X31935516Y-41010581D01*
X31505270Y-40925000D01*
X31214730Y-40925000D01*
X30784484Y-41010581D01*
X30296585Y-41336585D01*
X29970581Y-41824484D01*
X29856104Y-42400000D01*
X28349276Y-42400000D01*
X28256007Y-42337680D01*
X27840348Y-42255000D01*
X27559652Y-42255000D01*
X27143993Y-42337680D01*
X26672633Y-42652633D01*
X26357680Y-43123993D01*
X26247083Y-43680000D01*
X700000Y-43680000D01*
X700000Y-28500001D01*
X1312756Y-28500001D01*
X1312756Y-31299999D01*
X1375001Y-31612922D01*
X1375000Y-34654115D01*
X1325000Y-34905483D01*
X1325000Y-35894518D01*
X1439591Y-36470607D01*
X1876106Y-37123895D01*
X2529394Y-37560409D01*
X3300000Y-37713692D01*
X4070607Y-37560409D01*
X4422921Y-37325000D01*
X6377080Y-37325000D01*
X6729394Y-37560409D01*
X7500000Y-37713692D01*
X8270607Y-37560409D01*
X8923895Y-37123895D01*
X9360409Y-36470607D01*
X9475000Y-35894517D01*
X9475000Y-35525000D01*
X9725000Y-35525000D01*
X9725000Y-35825000D01*
X9923173Y-36571285D01*
X10391852Y-37184925D01*
X11059685Y-37572498D01*
X11268200Y-37627219D01*
X11575000Y-37514449D01*
X11575000Y-35525000D01*
X11825000Y-35525000D01*
X11825000Y-37514449D01*
X12131800Y-37627219D01*
X12340315Y-37572498D01*
X13008148Y-37184925D01*
X13476827Y-36571285D01*
X13675000Y-35825000D01*
X13675000Y-35525000D01*
X11825000Y-35525000D01*
X11575000Y-35525000D01*
X9725000Y-35525000D01*
X9475000Y-35525000D01*
X9475000Y-34975000D01*
X9725000Y-34975000D01*
X9725000Y-35275000D01*
X11575000Y-35275000D01*
X11575000Y-33285551D01*
X11825000Y-33285551D01*
X11825000Y-35275000D01*
X13675000Y-35275000D01*
X13675000Y-34975000D01*
X13476827Y-34228715D01*
X13008148Y-33615075D01*
X12340315Y-33227502D01*
X12131800Y-33172781D01*
X11825000Y-33285551D01*
X11575000Y-33285551D01*
X11268200Y-33172781D01*
X11059685Y-33227502D01*
X10391852Y-33615075D01*
X9923173Y-34228715D01*
X9725000Y-34975000D01*
X9475000Y-34975000D01*
X9475000Y-34905482D01*
X9425000Y-34654115D01*
X9425000Y-30645885D01*
X9475000Y-30394517D01*
X9475000Y-30025000D01*
X9725000Y-30025000D01*
X9725000Y-30325000D01*
X9923173Y-31071285D01*
X10391852Y-31684925D01*
X11059685Y-32072498D01*
X11268200Y-32127219D01*
X11575000Y-32014449D01*
X11575000Y-30025000D01*
X9725000Y-30025000D01*
X9475000Y-30025000D01*
X9475000Y-29475000D01*
X9725000Y-29475000D01*
X9725000Y-29775000D01*
X11575000Y-29775000D01*
X11575000Y-27785551D01*
X11268200Y-27672781D01*
X11059685Y-27727502D01*
X10391852Y-28115075D01*
X9923173Y-28728715D01*
X9725000Y-29475000D01*
X9475000Y-29475000D01*
X9475000Y-29405482D01*
X9360409Y-28829393D01*
X8923895Y-28176105D01*
X8270606Y-27739591D01*
X7500000Y-27586308D01*
X6729393Y-27739591D01*
X6377079Y-27975000D01*
X5095781Y-27975000D01*
X5027376Y-27872624D01*
X5025000Y-27871036D01*
X5025000Y-26377192D01*
X7959585Y-26377192D01*
X8119735Y-26693394D01*
X8906599Y-27002438D01*
X9751833Y-26986837D01*
X10460265Y-26693394D01*
X10620415Y-26377192D01*
X9290000Y-25046777D01*
X7959585Y-26377192D01*
X5025000Y-26377192D01*
X5025000Y-24486599D01*
X7157562Y-24486599D01*
X7173163Y-25331833D01*
X7466606Y-26040265D01*
X7782808Y-26200415D01*
X9113223Y-24870000D01*
X9466777Y-24870000D01*
X10797192Y-26200415D01*
X11113394Y-26040265D01*
X11422438Y-25253401D01*
X11406837Y-24408167D01*
X11113394Y-23699735D01*
X10797192Y-23539585D01*
X9466777Y-24870000D01*
X9113223Y-24870000D01*
X7782808Y-23539585D01*
X7466606Y-23699735D01*
X7157562Y-24486599D01*
X5025000Y-24486599D01*
X5025000Y-23362808D01*
X7959585Y-23362808D01*
X9290000Y-24693223D01*
X10620415Y-23362808D01*
X10460265Y-23046606D01*
X9742692Y-22764776D01*
X11212000Y-22764776D01*
X11280371Y-23003147D01*
X11795574Y-23186953D01*
X12341899Y-23159608D01*
X12719629Y-23003147D01*
X12788000Y-22764776D01*
X12000000Y-21976777D01*
X11212000Y-22764776D01*
X9742692Y-22764776D01*
X9673401Y-22737562D01*
X8828167Y-22753163D01*
X8119735Y-23046606D01*
X7959585Y-23362808D01*
X5025000Y-23362808D01*
X5025000Y-21595574D01*
X10613047Y-21595574D01*
X10640392Y-22141899D01*
X10796853Y-22519629D01*
X11035224Y-22588000D01*
X11823223Y-21800000D01*
X12176777Y-21800000D01*
X12964776Y-22588000D01*
X13203147Y-22519629D01*
X13386953Y-22004426D01*
X13359608Y-21458101D01*
X13203147Y-21080371D01*
X12964776Y-21012000D01*
X12176777Y-21800000D01*
X11823223Y-21800000D01*
X11035224Y-21012000D01*
X10796853Y-21080371D01*
X10613047Y-21595574D01*
X5025000Y-21595574D01*
X5025000Y-14050000D01*
X10612756Y-14050000D01*
X10612756Y-15550000D01*
X10661263Y-15793863D01*
X10799400Y-16000600D01*
X11006137Y-16138737D01*
X11181781Y-16173675D01*
X10834331Y-16521125D01*
X10625000Y-17026495D01*
X10625000Y-17573505D01*
X10834331Y-18078875D01*
X11055456Y-18300000D01*
X10834331Y-18521125D01*
X10625000Y-19026495D01*
X10625000Y-19573505D01*
X10834331Y-20078875D01*
X11221125Y-20465669D01*
X11409101Y-20543531D01*
X11280371Y-20596853D01*
X11212000Y-20835224D01*
X12000000Y-21623223D01*
X12788000Y-20835224D01*
X12719629Y-20596853D01*
X12581307Y-20547504D01*
X12778875Y-20465669D01*
X13165669Y-20078875D01*
X13375000Y-19573505D01*
X13375000Y-19026495D01*
X13165669Y-18521125D01*
X12944544Y-18300000D01*
X13165669Y-18078875D01*
X13174555Y-18057420D01*
X16775000Y-18057420D01*
X16775000Y-18942580D01*
X17113736Y-19760361D01*
X17739639Y-20386264D01*
X18557420Y-20725000D01*
X19442580Y-20725000D01*
X20260361Y-20386264D01*
X20886264Y-19760361D01*
X21225000Y-18942580D01*
X21225000Y-18057420D01*
X20886264Y-17239639D01*
X20260361Y-16613736D01*
X19442580Y-16275000D01*
X18557420Y-16275000D01*
X17739639Y-16613736D01*
X17113736Y-17239639D01*
X16775000Y-18057420D01*
X13174555Y-18057420D01*
X13375000Y-17573505D01*
X13375000Y-17026495D01*
X13165669Y-16521125D01*
X12818219Y-16173675D01*
X12993863Y-16138737D01*
X13200600Y-16000600D01*
X13338737Y-15793863D01*
X13387244Y-15550000D01*
X13387244Y-14050000D01*
X13338737Y-13806137D01*
X13200600Y-13599400D01*
X12993863Y-13461263D01*
X12750000Y-13412756D01*
X11250000Y-13412756D01*
X11006137Y-13461263D01*
X10799400Y-13599400D01*
X10661263Y-13806137D01*
X10612756Y-14050000D01*
X5025000Y-14050000D01*
X5025000Y-13237192D01*
X7959585Y-13237192D01*
X8119735Y-13553394D01*
X8906599Y-13862438D01*
X9751833Y-13846837D01*
X10460265Y-13553394D01*
X10620415Y-13237192D01*
X9290000Y-11906777D01*
X7959585Y-13237192D01*
X5025000Y-13237192D01*
X5025000Y-11346599D01*
X7157562Y-11346599D01*
X7173163Y-12191833D01*
X7466606Y-12900265D01*
X7782808Y-13060415D01*
X9113223Y-11730000D01*
X9466777Y-11730000D01*
X10797192Y-13060415D01*
X11113394Y-12900265D01*
X11422438Y-12113401D01*
X11406837Y-11268167D01*
X11113394Y-10559735D01*
X10797192Y-10399585D01*
X9466777Y-11730000D01*
X9113223Y-11730000D01*
X7782808Y-10399585D01*
X7466606Y-10559735D01*
X7157562Y-11346599D01*
X5025000Y-11346599D01*
X5025000Y-10314517D01*
X5116709Y-10222808D01*
X7959585Y-10222808D01*
X9290000Y-11553223D01*
X10620415Y-10222808D01*
X10460265Y-9906606D01*
X9673401Y-9597562D01*
X8828167Y-9613163D01*
X8119735Y-9906606D01*
X7959585Y-10222808D01*
X5116709Y-10222808D01*
X6085556Y-9253962D01*
X6100000Y-9256835D01*
X6734042Y-9130716D01*
X7271559Y-8771559D01*
X7630716Y-8234043D01*
X7725000Y-7760045D01*
X7725000Y-7472625D01*
X7802849Y-7081250D01*
X9475000Y-7081250D01*
X9475000Y-8724320D01*
X9570151Y-8954034D01*
X9745966Y-9129850D01*
X9975680Y-9225000D01*
X10818750Y-9225000D01*
X10975000Y-9068750D01*
X10975000Y-6925000D01*
X11225000Y-6925000D01*
X11225000Y-9068750D01*
X11381250Y-9225000D01*
X12224320Y-9225000D01*
X12454034Y-9129850D01*
X12629849Y-8954034D01*
X12725000Y-8724320D01*
X12725000Y-7081250D01*
X12568750Y-6925000D01*
X11225000Y-6925000D01*
X10975000Y-6925000D01*
X9631250Y-6925000D01*
X9475000Y-7081250D01*
X7802849Y-7081250D01*
X7858793Y-6800000D01*
X7725000Y-6127376D01*
X7725000Y-5839955D01*
X7630716Y-5365957D01*
X7303124Y-4875680D01*
X9475000Y-4875680D01*
X9475000Y-6518750D01*
X9631250Y-6675000D01*
X10975000Y-6675000D01*
X10975000Y-4531250D01*
X11225000Y-4531250D01*
X11225000Y-6675000D01*
X12568750Y-6675000D01*
X12725000Y-6518750D01*
X12725000Y-4875680D01*
X12629849Y-4645966D01*
X12454034Y-4470150D01*
X12224320Y-4375000D01*
X11381250Y-4375000D01*
X11225000Y-4531250D01*
X10975000Y-4531250D01*
X10818750Y-4375000D01*
X9975680Y-4375000D01*
X9745966Y-4470150D01*
X9570151Y-4645966D01*
X9475000Y-4875680D01*
X7303124Y-4875680D01*
X7271559Y-4828441D01*
X6734043Y-4469284D01*
X6100000Y-4343165D01*
X5465958Y-4469284D01*
X4928442Y-4828441D01*
X4569285Y-5365957D01*
X4475000Y-5839955D01*
X4475000Y-5985482D01*
X2200375Y-8260108D01*
X2056346Y-8356345D01*
X1960108Y-8500375D01*
X1675087Y-8926939D01*
X1541207Y-9600000D01*
X1575001Y-9769894D01*
X1575000Y-27871036D01*
X1572624Y-27872624D01*
X1380294Y-28160467D01*
X1312756Y-28500001D01*
X700000Y-28500001D01*
X700000Y-700000D01*
X66300001Y-700000D01*
X66300000Y-58800000D01*
G04 #@! TO.N,+12V*
G36*
X60175000Y-15975000D02*
X55500000Y-15975000D01*
X55452165Y-15984515D01*
X55411612Y-16011612D01*
X47311612Y-24111612D01*
X47284515Y-24152165D01*
X47275000Y-24200000D01*
X47275000Y-31348224D01*
X46441629Y-32181595D01*
X46342239Y-32115184D01*
X46100000Y-32067000D01*
X40062198Y-32067000D01*
X39833000Y-31837802D01*
X39833000Y-25300000D01*
X39784816Y-25057761D01*
X39647599Y-24852401D01*
X39325000Y-24529802D01*
X39325000Y-21725000D01*
X42800000Y-21725000D01*
X42847835Y-21715485D01*
X42888388Y-21688388D01*
X42915485Y-21647835D01*
X42925000Y-21600000D01*
X42925000Y-12325000D01*
X60175000Y-12325000D01*
X60175000Y-15975000D01*
X60175000Y-15975000D01*
G37*
X60175000Y-15975000D02*
X55500000Y-15975000D01*
X55452165Y-15984515D01*
X55411612Y-16011612D01*
X47311612Y-24111612D01*
X47284515Y-24152165D01*
X47275000Y-24200000D01*
X47275000Y-31348224D01*
X46441629Y-32181595D01*
X46342239Y-32115184D01*
X46100000Y-32067000D01*
X40062198Y-32067000D01*
X39833000Y-31837802D01*
X39833000Y-25300000D01*
X39784816Y-25057761D01*
X39647599Y-24852401D01*
X39325000Y-24529802D01*
X39325000Y-21725000D01*
X42800000Y-21725000D01*
X42847835Y-21715485D01*
X42888388Y-21688388D01*
X42915485Y-21647835D01*
X42925000Y-21600000D01*
X42925000Y-12325000D01*
X60175000Y-12325000D01*
X60175000Y-15975000D01*
G04 #@! TD*
M02*
