G04 #@! TF.GenerationSoftware,KiCad,Pcbnew,5.0.2-5.fc29*
G04 #@! TF.CreationDate,2019-04-09T09:13:13+02:00*
G04 #@! TF.ProjectId,ATX-breakout,4154582d-6272-4656-916b-6f75742e6b69,rev?*
G04 #@! TF.SameCoordinates,Original*
G04 #@! TF.FileFunction,Copper,L1,Top*
G04 #@! TF.FilePolarity,Positive*
%FSLAX46Y46*%
G04 Gerber Fmt 4.6, Leading zero omitted, Abs format (unit mm)*
G04 Created by KiCad (PCBNEW 5.0.2-5.fc29) date 2019-04-09T09:13:13 CEST*
%MOMM*%
%LPD*%
G01*
G04 APERTURE LIST*
G04 #@! TA.AperFunction,ComponentPad*
%ADD10O,1.600000X1.600000*%
G04 #@! TD*
G04 #@! TA.AperFunction,ComponentPad*
%ADD11C,1.600000*%
G04 #@! TD*
G04 #@! TA.AperFunction,ComponentPad*
%ADD12C,3.000000*%
G04 #@! TD*
G04 #@! TA.AperFunction,ComponentPad*
%ADD13R,1.500000X1.500000*%
G04 #@! TD*
G04 #@! TA.AperFunction,ComponentPad*
%ADD14C,1.500000*%
G04 #@! TD*
G04 #@! TA.AperFunction,Conductor*
%ADD15C,0.100000*%
G04 #@! TD*
G04 #@! TA.AperFunction,ComponentPad*
%ADD16C,2.700000*%
G04 #@! TD*
G04 #@! TA.AperFunction,ComponentPad*
%ADD17O,2.700000X3.300000*%
G04 #@! TD*
G04 #@! TA.AperFunction,ComponentPad*
%ADD18R,1.700000X1.700000*%
G04 #@! TD*
G04 #@! TA.AperFunction,ComponentPad*
%ADD19O,1.700000X1.700000*%
G04 #@! TD*
G04 #@! TA.AperFunction,ComponentPad*
%ADD20O,3.300000X2.700000*%
G04 #@! TD*
G04 #@! TA.AperFunction,ComponentPad*
%ADD21C,1.300000*%
G04 #@! TD*
G04 #@! TA.AperFunction,ComponentPad*
%ADD22C,0.760000*%
G04 #@! TD*
G04 #@! TA.AperFunction,ComponentPad*
%ADD23O,2.000000X3.600000*%
G04 #@! TD*
G04 #@! TA.AperFunction,ComponentPad*
%ADD24C,2.000000*%
G04 #@! TD*
G04 #@! TA.AperFunction,ComponentPad*
%ADD25O,3.600000X2.000000*%
G04 #@! TD*
G04 #@! TA.AperFunction,Conductor*
%ADD26C,1.200000*%
G04 #@! TD*
G04 #@! TA.AperFunction,Conductor*
%ADD27C,0.200000*%
G04 #@! TD*
G04 #@! TA.AperFunction,Conductor*
%ADD28C,0.600000*%
G04 #@! TD*
G04 #@! TA.AperFunction,Conductor*
%ADD29C,2.600000*%
G04 #@! TD*
G04 #@! TA.AperFunction,Conductor*
%ADD30C,2.200000*%
G04 #@! TD*
G04 #@! TA.AperFunction,Conductor*
%ADD31C,1.000000*%
G04 #@! TD*
G04 #@! TA.AperFunction,Conductor*
%ADD32C,1.400000*%
G04 #@! TD*
G04 #@! TA.AperFunction,Conductor*
%ADD33C,0.800000*%
G04 #@! TD*
G04 #@! TA.AperFunction,Conductor*
%ADD34C,0.400000*%
G04 #@! TD*
G04 #@! TA.AperFunction,Conductor*
%ADD35C,0.254000*%
G04 #@! TD*
G04 APERTURE END LIST*
D10*
G04 #@! TO.P,R4,2*
G04 #@! TO.N,Net-(Q1-Pad2)*
X27700000Y-43680000D03*
D11*
G04 #@! TO.P,R4,1*
G04 #@! TO.N,pson_pi*
X27700000Y-51300000D03*
G04 #@! TD*
D12*
G04 #@! TO.P,J3,5*
G04 #@! TO.N,GND*
X9290000Y-24870000D03*
X9290000Y-11730000D03*
D13*
G04 #@! TO.P,J3,1*
G04 #@! TO.N,Net-(J3-Pad1)*
X12000000Y-14800000D03*
D14*
G04 #@! TO.P,J3,2*
G04 #@! TO.N,Net-(J3-Pad2)*
X12000000Y-17300000D03*
G04 #@! TO.P,J3,3*
X12000000Y-19300000D03*
G04 #@! TO.P,J3,4*
G04 #@! TO.N,GND*
X12000000Y-21800000D03*
G04 #@! TD*
D15*
G04 #@! TO.N,+3V3*
G04 #@! TO.C,J5*
G36*
X4424503Y-28251204D02*
X4448772Y-28254804D01*
X4472570Y-28260765D01*
X4495670Y-28269030D01*
X4517849Y-28279520D01*
X4538892Y-28292133D01*
X4558598Y-28306748D01*
X4576776Y-28323224D01*
X4593252Y-28341402D01*
X4607867Y-28361108D01*
X4620480Y-28382151D01*
X4630970Y-28404330D01*
X4639235Y-28427430D01*
X4645196Y-28451228D01*
X4648796Y-28475497D01*
X4650000Y-28500001D01*
X4650000Y-31299999D01*
X4648796Y-31324503D01*
X4645196Y-31348772D01*
X4639235Y-31372570D01*
X4630970Y-31395670D01*
X4620480Y-31417849D01*
X4607867Y-31438892D01*
X4593252Y-31458598D01*
X4576776Y-31476776D01*
X4558598Y-31493252D01*
X4538892Y-31507867D01*
X4517849Y-31520480D01*
X4495670Y-31530970D01*
X4472570Y-31539235D01*
X4448772Y-31545196D01*
X4424503Y-31548796D01*
X4399999Y-31550000D01*
X2200001Y-31550000D01*
X2175497Y-31548796D01*
X2151228Y-31545196D01*
X2127430Y-31539235D01*
X2104330Y-31530970D01*
X2082151Y-31520480D01*
X2061108Y-31507867D01*
X2041402Y-31493252D01*
X2023224Y-31476776D01*
X2006748Y-31458598D01*
X1992133Y-31438892D01*
X1979520Y-31417849D01*
X1969030Y-31395670D01*
X1960765Y-31372570D01*
X1954804Y-31348772D01*
X1951204Y-31324503D01*
X1950000Y-31299999D01*
X1950000Y-28500001D01*
X1951204Y-28475497D01*
X1954804Y-28451228D01*
X1960765Y-28427430D01*
X1969030Y-28404330D01*
X1979520Y-28382151D01*
X1992133Y-28361108D01*
X2006748Y-28341402D01*
X2023224Y-28323224D01*
X2041402Y-28306748D01*
X2061108Y-28292133D01*
X2082151Y-28279520D01*
X2104330Y-28269030D01*
X2127430Y-28260765D01*
X2151228Y-28254804D01*
X2175497Y-28251204D01*
X2200001Y-28250000D01*
X4399999Y-28250000D01*
X4424503Y-28251204D01*
X4424503Y-28251204D01*
G37*
D16*
G04 #@! TD*
G04 #@! TO.P,J5,1*
G04 #@! TO.N,+3V3*
X3300000Y-29900000D03*
D17*
G04 #@! TO.P,J5,2*
G04 #@! TO.N,+3V3*
X7500000Y-29900000D03*
G04 #@! TO.P,J5,3*
G04 #@! TO.N,GND*
X11700000Y-29900000D03*
G04 #@! TO.P,J5,4*
G04 #@! TO.N,+5V*
X15900000Y-29900000D03*
G04 #@! TO.P,J5,5*
G04 #@! TO.N,GND*
X20100000Y-29900000D03*
G04 #@! TO.P,J5,6*
G04 #@! TO.N,+5V*
X24300000Y-29900000D03*
G04 #@! TO.P,J5,7*
G04 #@! TO.N,GND*
X28500000Y-29900000D03*
G04 #@! TO.P,J5,8*
G04 #@! TO.N,P_GOOD*
X32700000Y-29900000D03*
G04 #@! TO.P,J5,9*
G04 #@! TO.N,+5VP*
X36900000Y-29900000D03*
G04 #@! TO.P,J5,10*
G04 #@! TO.N,+12V*
X41100000Y-29900000D03*
G04 #@! TO.P,J5,11*
X45300000Y-29900000D03*
G04 #@! TO.P,J5,12*
G04 #@! TO.N,+3V3*
X49500000Y-29900000D03*
G04 #@! TO.P,J5,13*
X3300000Y-35400000D03*
G04 #@! TO.P,J5,14*
X7500000Y-35400000D03*
G04 #@! TO.P,J5,15*
G04 #@! TO.N,GND*
X11700000Y-35400000D03*
G04 #@! TO.P,J5,16*
G04 #@! TO.N,~PS_ON*
X15900000Y-35400000D03*
G04 #@! TO.P,J5,17*
G04 #@! TO.N,GND*
X20100000Y-35400000D03*
G04 #@! TO.P,J5,18*
X24300000Y-35400000D03*
G04 #@! TO.P,J5,19*
X28500000Y-35400000D03*
G04 #@! TO.P,J5,20*
G04 #@! TO.N,N/C*
X32700000Y-35400000D03*
G04 #@! TO.P,J5,21*
G04 #@! TO.N,+5V*
X36900000Y-35400000D03*
G04 #@! TO.P,J5,22*
X41100000Y-35400000D03*
G04 #@! TO.P,J5,23*
X45300000Y-35400000D03*
G04 #@! TO.P,J5,24*
G04 #@! TO.N,GND*
X49500000Y-35400000D03*
G04 #@! TD*
D18*
G04 #@! TO.P,J1,1*
G04 #@! TO.N,/5v_rpi*
X61550000Y-32300000D03*
D19*
G04 #@! TO.P,J1,2*
G04 #@! TO.N,/3v3_rpi*
X61550000Y-34840000D03*
G04 #@! TO.P,J1,3*
G04 #@! TO.N,/SDA*
X61550000Y-37380000D03*
G04 #@! TO.P,J1,4*
G04 #@! TO.N,/SCL*
X61550000Y-39920000D03*
G04 #@! TO.P,J1,5*
G04 #@! TO.N,GND*
X61550000Y-42460000D03*
G04 #@! TD*
D15*
G04 #@! TO.N,GND*
G04 #@! TO.C,J2*
G36*
X51374503Y-18301204D02*
X51398772Y-18304804D01*
X51422570Y-18310765D01*
X51445670Y-18319030D01*
X51467849Y-18329520D01*
X51488892Y-18342133D01*
X51508598Y-18356748D01*
X51526776Y-18373224D01*
X51543252Y-18391402D01*
X51557867Y-18411108D01*
X51570480Y-18432151D01*
X51580970Y-18454330D01*
X51589235Y-18477430D01*
X51595196Y-18501228D01*
X51598796Y-18525497D01*
X51600000Y-18550001D01*
X51600000Y-20749999D01*
X51598796Y-20774503D01*
X51595196Y-20798772D01*
X51589235Y-20822570D01*
X51580970Y-20845670D01*
X51570480Y-20867849D01*
X51557867Y-20888892D01*
X51543252Y-20908598D01*
X51526776Y-20926776D01*
X51508598Y-20943252D01*
X51488892Y-20957867D01*
X51467849Y-20970480D01*
X51445670Y-20980970D01*
X51422570Y-20989235D01*
X51398772Y-20995196D01*
X51374503Y-20998796D01*
X51349999Y-21000000D01*
X48550001Y-21000000D01*
X48525497Y-20998796D01*
X48501228Y-20995196D01*
X48477430Y-20989235D01*
X48454330Y-20980970D01*
X48432151Y-20970480D01*
X48411108Y-20957867D01*
X48391402Y-20943252D01*
X48373224Y-20926776D01*
X48356748Y-20908598D01*
X48342133Y-20888892D01*
X48329520Y-20867849D01*
X48319030Y-20845670D01*
X48310765Y-20822570D01*
X48304804Y-20798772D01*
X48301204Y-20774503D01*
X48300000Y-20749999D01*
X48300000Y-18550001D01*
X48301204Y-18525497D01*
X48304804Y-18501228D01*
X48310765Y-18477430D01*
X48319030Y-18454330D01*
X48329520Y-18432151D01*
X48342133Y-18411108D01*
X48356748Y-18391402D01*
X48373224Y-18373224D01*
X48391402Y-18356748D01*
X48411108Y-18342133D01*
X48432151Y-18329520D01*
X48454330Y-18319030D01*
X48477430Y-18310765D01*
X48501228Y-18304804D01*
X48525497Y-18301204D01*
X48550001Y-18300000D01*
X51349999Y-18300000D01*
X51374503Y-18301204D01*
X51374503Y-18301204D01*
G37*
D16*
G04 #@! TD*
G04 #@! TO.P,J2,1*
G04 #@! TO.N,GND*
X49950000Y-19650000D03*
D20*
G04 #@! TO.P,J2,2*
G04 #@! TO.N,GND*
X49950000Y-23850000D03*
G04 #@! TO.P,J2,3*
G04 #@! TO.N,+12V*
X44450000Y-19650000D03*
G04 #@! TO.P,J2,4*
X44450000Y-23850000D03*
G04 #@! TD*
D18*
G04 #@! TO.P,J4,1*
G04 #@! TO.N,/3v3_rpi*
X57074999Y-54265001D03*
D19*
G04 #@! TO.P,J4,2*
G04 #@! TO.N,/5v_rpi*
X57074999Y-56805001D03*
G04 #@! TO.P,J4,3*
G04 #@! TO.N,/SDA*
X54534999Y-54265001D03*
G04 #@! TO.P,J4,4*
G04 #@! TO.N,/5v_rpi*
X54534999Y-56805001D03*
G04 #@! TO.P,J4,5*
G04 #@! TO.N,/SCL*
X51994999Y-54265001D03*
G04 #@! TO.P,J4,6*
G04 #@! TO.N,GND*
X51994999Y-56805001D03*
G04 #@! TO.P,J4,7*
G04 #@! TO.N,N/C*
X49454999Y-54265001D03*
G04 #@! TO.P,J4,8*
X49454999Y-56805001D03*
G04 #@! TO.P,J4,9*
G04 #@! TO.N,GND*
X46914999Y-54265001D03*
G04 #@! TO.P,J4,10*
G04 #@! TO.N,N/C*
X46914999Y-56805001D03*
G04 #@! TO.P,J4,11*
G04 #@! TO.N,Net-(J4-Pad11)*
X44374999Y-54265001D03*
G04 #@! TO.P,J4,12*
G04 #@! TO.N,N/C*
X44374999Y-56805001D03*
G04 #@! TO.P,J4,13*
X41834999Y-54265001D03*
G04 #@! TO.P,J4,14*
G04 #@! TO.N,GND*
X41834999Y-56805001D03*
G04 #@! TO.P,J4,15*
G04 #@! TO.N,N/C*
X39294999Y-54265001D03*
G04 #@! TO.P,J4,16*
X39294999Y-56805001D03*
G04 #@! TO.P,J4,17*
G04 #@! TO.N,/3v3_rpi*
X36754999Y-54265001D03*
G04 #@! TO.P,J4,18*
G04 #@! TO.N,N/C*
X36754999Y-56805001D03*
G04 #@! TO.P,J4,19*
X34214999Y-54265001D03*
G04 #@! TO.P,J4,20*
G04 #@! TO.N,GND*
X34214999Y-56805001D03*
G04 #@! TO.P,J4,21*
G04 #@! TO.N,pson_pi*
X31674999Y-54265001D03*
G04 #@! TO.P,J4,22*
G04 #@! TO.N,N/C*
X31674999Y-56805001D03*
G04 #@! TO.P,J4,23*
X29134999Y-54265001D03*
G04 #@! TO.P,J4,24*
X29134999Y-56805001D03*
G04 #@! TO.P,J4,25*
G04 #@! TO.N,GND*
X26594999Y-54265001D03*
G04 #@! TO.P,J4,26*
G04 #@! TO.N,N/C*
X26594999Y-56805001D03*
G04 #@! TO.P,J4,27*
X24054999Y-54265001D03*
G04 #@! TO.P,J4,28*
X24054999Y-56805001D03*
G04 #@! TO.P,J4,29*
X21514999Y-54265001D03*
G04 #@! TO.P,J4,30*
G04 #@! TO.N,GND*
X21514999Y-56805001D03*
G04 #@! TO.P,J4,31*
G04 #@! TO.N,N/C*
X18974999Y-54265001D03*
G04 #@! TO.P,J4,32*
X18974999Y-56805001D03*
G04 #@! TO.P,J4,33*
X16434999Y-54265001D03*
G04 #@! TO.P,J4,34*
G04 #@! TO.N,GND*
X16434999Y-56805001D03*
G04 #@! TO.P,J4,35*
G04 #@! TO.N,N/C*
X13894999Y-54265001D03*
G04 #@! TO.P,J4,36*
X13894999Y-56805001D03*
G04 #@! TO.P,J4,37*
X11354999Y-54265001D03*
G04 #@! TO.P,J4,38*
X11354999Y-56805001D03*
G04 #@! TO.P,J4,39*
G04 #@! TO.N,GND*
X8814999Y-54265001D03*
G04 #@! TO.P,J4,40*
G04 #@! TO.N,N/C*
X8814999Y-56805001D03*
G04 #@! TD*
D18*
G04 #@! TO.P,J7,1*
G04 #@! TO.N,GND*
X40900000Y-45600000D03*
D19*
G04 #@! TO.P,J7,2*
G04 #@! TO.N,~ps_on_ext*
X40900000Y-43060000D03*
G04 #@! TD*
G04 #@! TO.P,JP1,3*
G04 #@! TO.N,+5V*
X56900000Y-37390000D03*
G04 #@! TO.P,JP1,2*
G04 #@! TO.N,/5v_rpi*
X56900000Y-34850000D03*
D18*
G04 #@! TO.P,JP1,1*
G04 #@! TO.N,+5VP*
X56900000Y-32310000D03*
G04 #@! TD*
D19*
G04 #@! TO.P,JP2,3*
G04 #@! TO.N,+5V*
X28000000Y-22240000D03*
G04 #@! TO.P,JP2,2*
G04 #@! TO.N,Net-(J3-Pad1)*
X28000000Y-19700000D03*
D18*
G04 #@! TO.P,JP2,1*
G04 #@! TO.N,+5VP*
X28000000Y-17160000D03*
G04 #@! TD*
D19*
G04 #@! TO.P,JP3,3*
G04 #@! TO.N,Net-(JP3-Pad3)*
X31360000Y-42400000D03*
G04 #@! TO.P,JP3,2*
G04 #@! TO.N,~PS_ON*
X33900000Y-42400000D03*
D18*
G04 #@! TO.P,JP3,1*
G04 #@! TO.N,~ps_on_ext*
X36440000Y-42400000D03*
G04 #@! TD*
D21*
G04 #@! TO.P,Q1,2*
G04 #@! TO.N,Net-(Q1-Pad2)*
X32330000Y-47770000D03*
G04 #@! TO.P,Q1,3*
G04 #@! TO.N,Net-(JP3-Pad3)*
X31060000Y-46500000D03*
D22*
G04 #@! TO.P,Q1,1*
G04 #@! TO.N,GND*
X33600000Y-46500000D03*
D15*
G04 #@! TD*
G04 #@! TO.N,GND*
G04 #@! TO.C,Q1*
G36*
X33400000Y-47150000D02*
X32950000Y-46700000D01*
X32950000Y-45850000D01*
X34250000Y-45850000D01*
X34250000Y-47150000D01*
X33400000Y-47150000D01*
X33400000Y-47150000D01*
G37*
D23*
G04 #@! TO.P,J6,2*
G04 #@! TO.N,+12V*
X45100000Y-6800000D03*
D15*
G04 #@! TD*
G04 #@! TO.N,GND*
G04 #@! TO.C,J6*
G36*
X50874504Y-5001204D02*
X50898773Y-5004804D01*
X50922571Y-5010765D01*
X50945671Y-5019030D01*
X50967849Y-5029520D01*
X50988893Y-5042133D01*
X51008598Y-5056747D01*
X51026777Y-5073223D01*
X51043253Y-5091402D01*
X51057867Y-5111107D01*
X51070480Y-5132151D01*
X51080970Y-5154329D01*
X51089235Y-5177429D01*
X51095196Y-5201227D01*
X51098796Y-5225496D01*
X51100000Y-5250000D01*
X51100000Y-8350000D01*
X51098796Y-8374504D01*
X51095196Y-8398773D01*
X51089235Y-8422571D01*
X51080970Y-8445671D01*
X51070480Y-8467849D01*
X51057867Y-8488893D01*
X51043253Y-8508598D01*
X51026777Y-8526777D01*
X51008598Y-8543253D01*
X50988893Y-8557867D01*
X50967849Y-8570480D01*
X50945671Y-8580970D01*
X50922571Y-8589235D01*
X50898773Y-8595196D01*
X50874504Y-8598796D01*
X50850000Y-8600000D01*
X49350000Y-8600000D01*
X49325496Y-8598796D01*
X49301227Y-8595196D01*
X49277429Y-8589235D01*
X49254329Y-8580970D01*
X49232151Y-8570480D01*
X49211107Y-8557867D01*
X49191402Y-8543253D01*
X49173223Y-8526777D01*
X49156747Y-8508598D01*
X49142133Y-8488893D01*
X49129520Y-8467849D01*
X49119030Y-8445671D01*
X49110765Y-8422571D01*
X49104804Y-8398773D01*
X49101204Y-8374504D01*
X49100000Y-8350000D01*
X49100000Y-5250000D01*
X49101204Y-5225496D01*
X49104804Y-5201227D01*
X49110765Y-5177429D01*
X49119030Y-5154329D01*
X49129520Y-5132151D01*
X49142133Y-5111107D01*
X49156747Y-5091402D01*
X49173223Y-5073223D01*
X49191402Y-5056747D01*
X49211107Y-5042133D01*
X49232151Y-5029520D01*
X49254329Y-5019030D01*
X49277429Y-5010765D01*
X49301227Y-5004804D01*
X49325496Y-5001204D01*
X49350000Y-5000000D01*
X50850000Y-5000000D01*
X50874504Y-5001204D01*
X50874504Y-5001204D01*
G37*
D24*
G04 #@! TO.P,J6,1*
G04 #@! TO.N,GND*
X50100000Y-6800000D03*
G04 #@! TD*
D15*
G04 #@! TO.N,GND*
G04 #@! TO.C,J8*
G36*
X24874504Y-5001204D02*
X24898773Y-5004804D01*
X24922571Y-5010765D01*
X24945671Y-5019030D01*
X24967849Y-5029520D01*
X24988893Y-5042133D01*
X25008598Y-5056747D01*
X25026777Y-5073223D01*
X25043253Y-5091402D01*
X25057867Y-5111107D01*
X25070480Y-5132151D01*
X25080970Y-5154329D01*
X25089235Y-5177429D01*
X25095196Y-5201227D01*
X25098796Y-5225496D01*
X25100000Y-5250000D01*
X25100000Y-8350000D01*
X25098796Y-8374504D01*
X25095196Y-8398773D01*
X25089235Y-8422571D01*
X25080970Y-8445671D01*
X25070480Y-8467849D01*
X25057867Y-8488893D01*
X25043253Y-8508598D01*
X25026777Y-8526777D01*
X25008598Y-8543253D01*
X24988893Y-8557867D01*
X24967849Y-8570480D01*
X24945671Y-8580970D01*
X24922571Y-8589235D01*
X24898773Y-8595196D01*
X24874504Y-8598796D01*
X24850000Y-8600000D01*
X23350000Y-8600000D01*
X23325496Y-8598796D01*
X23301227Y-8595196D01*
X23277429Y-8589235D01*
X23254329Y-8580970D01*
X23232151Y-8570480D01*
X23211107Y-8557867D01*
X23191402Y-8543253D01*
X23173223Y-8526777D01*
X23156747Y-8508598D01*
X23142133Y-8488893D01*
X23129520Y-8467849D01*
X23119030Y-8445671D01*
X23110765Y-8422571D01*
X23104804Y-8398773D01*
X23101204Y-8374504D01*
X23100000Y-8350000D01*
X23100000Y-5250000D01*
X23101204Y-5225496D01*
X23104804Y-5201227D01*
X23110765Y-5177429D01*
X23119030Y-5154329D01*
X23129520Y-5132151D01*
X23142133Y-5111107D01*
X23156747Y-5091402D01*
X23173223Y-5073223D01*
X23191402Y-5056747D01*
X23211107Y-5042133D01*
X23232151Y-5029520D01*
X23254329Y-5019030D01*
X23277429Y-5010765D01*
X23301227Y-5004804D01*
X23325496Y-5001204D01*
X23350000Y-5000000D01*
X24850000Y-5000000D01*
X24874504Y-5001204D01*
X24874504Y-5001204D01*
G37*
D24*
G04 #@! TD*
G04 #@! TO.P,J8,1*
G04 #@! TO.N,GND*
X24100000Y-6800000D03*
D23*
G04 #@! TO.P,J8,2*
G04 #@! TO.N,+5V*
X19100000Y-6800000D03*
G04 #@! TD*
G04 #@! TO.P,J9,2*
G04 #@! TO.N,+5VP*
X32100000Y-6800000D03*
D15*
G04 #@! TD*
G04 #@! TO.N,GND*
G04 #@! TO.C,J9*
G36*
X37874504Y-5001204D02*
X37898773Y-5004804D01*
X37922571Y-5010765D01*
X37945671Y-5019030D01*
X37967849Y-5029520D01*
X37988893Y-5042133D01*
X38008598Y-5056747D01*
X38026777Y-5073223D01*
X38043253Y-5091402D01*
X38057867Y-5111107D01*
X38070480Y-5132151D01*
X38080970Y-5154329D01*
X38089235Y-5177429D01*
X38095196Y-5201227D01*
X38098796Y-5225496D01*
X38100000Y-5250000D01*
X38100000Y-8350000D01*
X38098796Y-8374504D01*
X38095196Y-8398773D01*
X38089235Y-8422571D01*
X38080970Y-8445671D01*
X38070480Y-8467849D01*
X38057867Y-8488893D01*
X38043253Y-8508598D01*
X38026777Y-8526777D01*
X38008598Y-8543253D01*
X37988893Y-8557867D01*
X37967849Y-8570480D01*
X37945671Y-8580970D01*
X37922571Y-8589235D01*
X37898773Y-8595196D01*
X37874504Y-8598796D01*
X37850000Y-8600000D01*
X36350000Y-8600000D01*
X36325496Y-8598796D01*
X36301227Y-8595196D01*
X36277429Y-8589235D01*
X36254329Y-8580970D01*
X36232151Y-8570480D01*
X36211107Y-8557867D01*
X36191402Y-8543253D01*
X36173223Y-8526777D01*
X36156747Y-8508598D01*
X36142133Y-8488893D01*
X36129520Y-8467849D01*
X36119030Y-8445671D01*
X36110765Y-8422571D01*
X36104804Y-8398773D01*
X36101204Y-8374504D01*
X36100000Y-8350000D01*
X36100000Y-5250000D01*
X36101204Y-5225496D01*
X36104804Y-5201227D01*
X36110765Y-5177429D01*
X36119030Y-5154329D01*
X36129520Y-5132151D01*
X36142133Y-5111107D01*
X36156747Y-5091402D01*
X36173223Y-5073223D01*
X36191402Y-5056747D01*
X36211107Y-5042133D01*
X36232151Y-5029520D01*
X36254329Y-5019030D01*
X36277429Y-5010765D01*
X36301227Y-5004804D01*
X36325496Y-5001204D01*
X36350000Y-5000000D01*
X37850000Y-5000000D01*
X37874504Y-5001204D01*
X37874504Y-5001204D01*
G37*
D24*
G04 #@! TO.P,J9,1*
G04 #@! TO.N,GND*
X37100000Y-6800000D03*
G04 #@! TD*
D15*
G04 #@! TO.N,GND*
G04 #@! TO.C,J10*
G36*
X11874504Y-5001204D02*
X11898773Y-5004804D01*
X11922571Y-5010765D01*
X11945671Y-5019030D01*
X11967849Y-5029520D01*
X11988893Y-5042133D01*
X12008598Y-5056747D01*
X12026777Y-5073223D01*
X12043253Y-5091402D01*
X12057867Y-5111107D01*
X12070480Y-5132151D01*
X12080970Y-5154329D01*
X12089235Y-5177429D01*
X12095196Y-5201227D01*
X12098796Y-5225496D01*
X12100000Y-5250000D01*
X12100000Y-8350000D01*
X12098796Y-8374504D01*
X12095196Y-8398773D01*
X12089235Y-8422571D01*
X12080970Y-8445671D01*
X12070480Y-8467849D01*
X12057867Y-8488893D01*
X12043253Y-8508598D01*
X12026777Y-8526777D01*
X12008598Y-8543253D01*
X11988893Y-8557867D01*
X11967849Y-8570480D01*
X11945671Y-8580970D01*
X11922571Y-8589235D01*
X11898773Y-8595196D01*
X11874504Y-8598796D01*
X11850000Y-8600000D01*
X10350000Y-8600000D01*
X10325496Y-8598796D01*
X10301227Y-8595196D01*
X10277429Y-8589235D01*
X10254329Y-8580970D01*
X10232151Y-8570480D01*
X10211107Y-8557867D01*
X10191402Y-8543253D01*
X10173223Y-8526777D01*
X10156747Y-8508598D01*
X10142133Y-8488893D01*
X10129520Y-8467849D01*
X10119030Y-8445671D01*
X10110765Y-8422571D01*
X10104804Y-8398773D01*
X10101204Y-8374504D01*
X10100000Y-8350000D01*
X10100000Y-5250000D01*
X10101204Y-5225496D01*
X10104804Y-5201227D01*
X10110765Y-5177429D01*
X10119030Y-5154329D01*
X10129520Y-5132151D01*
X10142133Y-5111107D01*
X10156747Y-5091402D01*
X10173223Y-5073223D01*
X10191402Y-5056747D01*
X10211107Y-5042133D01*
X10232151Y-5029520D01*
X10254329Y-5019030D01*
X10277429Y-5010765D01*
X10301227Y-5004804D01*
X10325496Y-5001204D01*
X10350000Y-5000000D01*
X11850000Y-5000000D01*
X11874504Y-5001204D01*
X11874504Y-5001204D01*
G37*
D24*
G04 #@! TD*
G04 #@! TO.P,J10,1*
G04 #@! TO.N,GND*
X11100000Y-6800000D03*
D23*
G04 #@! TO.P,J10,2*
G04 #@! TO.N,+3V3*
X6100000Y-6800000D03*
G04 #@! TD*
D15*
G04 #@! TO.N,GND*
G04 #@! TO.C,J11*
G36*
X63874504Y-5001204D02*
X63898773Y-5004804D01*
X63922571Y-5010765D01*
X63945671Y-5019030D01*
X63967849Y-5029520D01*
X63988893Y-5042133D01*
X64008598Y-5056747D01*
X64026777Y-5073223D01*
X64043253Y-5091402D01*
X64057867Y-5111107D01*
X64070480Y-5132151D01*
X64080970Y-5154329D01*
X64089235Y-5177429D01*
X64095196Y-5201227D01*
X64098796Y-5225496D01*
X64100000Y-5250000D01*
X64100000Y-8350000D01*
X64098796Y-8374504D01*
X64095196Y-8398773D01*
X64089235Y-8422571D01*
X64080970Y-8445671D01*
X64070480Y-8467849D01*
X64057867Y-8488893D01*
X64043253Y-8508598D01*
X64026777Y-8526777D01*
X64008598Y-8543253D01*
X63988893Y-8557867D01*
X63967849Y-8570480D01*
X63945671Y-8580970D01*
X63922571Y-8589235D01*
X63898773Y-8595196D01*
X63874504Y-8598796D01*
X63850000Y-8600000D01*
X62350000Y-8600000D01*
X62325496Y-8598796D01*
X62301227Y-8595196D01*
X62277429Y-8589235D01*
X62254329Y-8580970D01*
X62232151Y-8570480D01*
X62211107Y-8557867D01*
X62191402Y-8543253D01*
X62173223Y-8526777D01*
X62156747Y-8508598D01*
X62142133Y-8488893D01*
X62129520Y-8467849D01*
X62119030Y-8445671D01*
X62110765Y-8422571D01*
X62104804Y-8398773D01*
X62101204Y-8374504D01*
X62100000Y-8350000D01*
X62100000Y-5250000D01*
X62101204Y-5225496D01*
X62104804Y-5201227D01*
X62110765Y-5177429D01*
X62119030Y-5154329D01*
X62129520Y-5132151D01*
X62142133Y-5111107D01*
X62156747Y-5091402D01*
X62173223Y-5073223D01*
X62191402Y-5056747D01*
X62211107Y-5042133D01*
X62232151Y-5029520D01*
X62254329Y-5019030D01*
X62277429Y-5010765D01*
X62301227Y-5004804D01*
X62325496Y-5001204D01*
X62350000Y-5000000D01*
X63850000Y-5000000D01*
X63874504Y-5001204D01*
X63874504Y-5001204D01*
G37*
D24*
G04 #@! TD*
G04 #@! TO.P,J11,1*
G04 #@! TO.N,GND*
X63100000Y-6800000D03*
D23*
G04 #@! TO.P,J11,2*
G04 #@! TO.N,+12V*
X58100000Y-6800000D03*
G04 #@! TD*
D11*
G04 #@! TO.P,R1,1*
G04 #@! TO.N,Net-(J4-Pad11)*
X44500000Y-48000000D03*
D10*
G04 #@! TO.P,R1,2*
G04 #@! TO.N,P_GOOD*
X44500000Y-40380000D03*
G04 #@! TD*
G04 #@! TO.P,R2,2*
G04 #@! TO.N,Net-(J4-Pad11)*
X48020000Y-50900000D03*
D11*
G04 #@! TO.P,R2,1*
G04 #@! TO.N,GND*
X40400000Y-50900000D03*
G04 #@! TD*
G04 #@! TO.P,R3,1*
G04 #@! TO.N,Net-(Q1-Pad2)*
X30600000Y-50900000D03*
D10*
G04 #@! TO.P,R3,2*
G04 #@! TO.N,GND*
X38220000Y-50900000D03*
G04 #@! TD*
D11*
G04 #@! TO.P,R5,1*
G04 #@! TO.N,/SCL*
X50180000Y-50900000D03*
D10*
G04 #@! TO.P,R5,2*
G04 #@! TO.N,/3v3_rpi*
X57800000Y-50900000D03*
G04 #@! TD*
G04 #@! TO.P,R6,2*
G04 #@! TO.N,/SDA*
X50180000Y-47800000D03*
D11*
G04 #@! TO.P,R6,1*
G04 #@! TO.N,/3v3_rpi*
X57800000Y-47800000D03*
G04 #@! TD*
D15*
G04 #@! TO.N,GND*
G04 #@! TO.C,J12*
G36*
X59604504Y-18191204D02*
X59628773Y-18194804D01*
X59652571Y-18200765D01*
X59675671Y-18209030D01*
X59697849Y-18219520D01*
X59718893Y-18232133D01*
X59738598Y-18246747D01*
X59756777Y-18263223D01*
X59773253Y-18281402D01*
X59787867Y-18301107D01*
X59800480Y-18322151D01*
X59810970Y-18344329D01*
X59819235Y-18367429D01*
X59825196Y-18391227D01*
X59828796Y-18415496D01*
X59830000Y-18440000D01*
X59830000Y-19940000D01*
X59828796Y-19964504D01*
X59825196Y-19988773D01*
X59819235Y-20012571D01*
X59810970Y-20035671D01*
X59800480Y-20057849D01*
X59787867Y-20078893D01*
X59773253Y-20098598D01*
X59756777Y-20116777D01*
X59738598Y-20133253D01*
X59718893Y-20147867D01*
X59697849Y-20160480D01*
X59675671Y-20170970D01*
X59652571Y-20179235D01*
X59628773Y-20185196D01*
X59604504Y-20188796D01*
X59580000Y-20190000D01*
X56480000Y-20190000D01*
X56455496Y-20188796D01*
X56431227Y-20185196D01*
X56407429Y-20179235D01*
X56384329Y-20170970D01*
X56362151Y-20160480D01*
X56341107Y-20147867D01*
X56321402Y-20133253D01*
X56303223Y-20116777D01*
X56286747Y-20098598D01*
X56272133Y-20078893D01*
X56259520Y-20057849D01*
X56249030Y-20035671D01*
X56240765Y-20012571D01*
X56234804Y-19988773D01*
X56231204Y-19964504D01*
X56230000Y-19940000D01*
X56230000Y-18440000D01*
X56231204Y-18415496D01*
X56234804Y-18391227D01*
X56240765Y-18367429D01*
X56249030Y-18344329D01*
X56259520Y-18322151D01*
X56272133Y-18301107D01*
X56286747Y-18281402D01*
X56303223Y-18263223D01*
X56321402Y-18246747D01*
X56341107Y-18232133D01*
X56362151Y-18219520D01*
X56384329Y-18209030D01*
X56407429Y-18200765D01*
X56431227Y-18194804D01*
X56455496Y-18191204D01*
X56480000Y-18190000D01*
X59580000Y-18190000D01*
X59604504Y-18191204D01*
X59604504Y-18191204D01*
G37*
D24*
G04 #@! TD*
G04 #@! TO.P,J12,1*
G04 #@! TO.N,GND*
X58030000Y-19190000D03*
D25*
G04 #@! TO.P,J12,2*
G04 #@! TO.N,+12V*
X58030000Y-14190000D03*
G04 #@! TD*
D26*
G04 #@! TO.N,/5v_rpi*
X58102081Y-34850000D02*
X59300000Y-33652081D01*
X56900000Y-34850000D02*
X58102081Y-34850000D01*
X59500000Y-32300000D02*
X61550000Y-32300000D01*
X59300000Y-32500000D02*
X59500000Y-32300000D01*
X59300000Y-33652081D02*
X59300000Y-32500000D01*
X63600000Y-32300000D02*
X61550000Y-32300000D01*
X64300000Y-33000000D02*
X63600000Y-32300000D01*
X64300000Y-50000000D02*
X64300000Y-33000000D01*
X57074999Y-56805001D02*
X59194999Y-56805001D01*
X59194999Y-56805001D02*
X60000000Y-56000000D01*
X60000000Y-54300000D02*
X64300000Y-50000000D01*
X60000000Y-56000000D02*
X60000000Y-54300000D01*
D27*
G04 #@! TO.N,/3v3_rpi*
X36754999Y-54265001D02*
X38039998Y-55550000D01*
X38039998Y-55550000D02*
X55750000Y-55550000D01*
X57000000Y-54300000D02*
X57050000Y-54300000D01*
X55750000Y-55550000D02*
X57000000Y-54300000D01*
D28*
G04 #@! TO.N,GND*
X7400000Y-10000000D02*
X7300000Y-9900000D01*
X11100000Y-10000000D02*
X11300000Y-9800000D01*
X11400000Y-13000000D02*
X11400000Y-13100000D01*
X6900000Y-13500000D02*
X7200000Y-13200000D01*
D29*
X11700000Y-35400000D02*
X11700000Y-29900000D01*
X20100000Y-35400000D02*
X20100000Y-29900000D01*
X20100000Y-35400000D02*
X24300000Y-35400000D01*
X28500000Y-35400000D02*
X28500000Y-29900000D01*
X49500000Y-35400000D02*
X51200000Y-35400000D01*
X51200000Y-35400000D02*
X53350000Y-33250000D01*
X53350000Y-26950000D02*
X53350000Y-33250000D01*
X50250000Y-23850000D02*
X53350000Y-26950000D01*
X49950000Y-23850000D02*
X50250000Y-23850000D01*
X49950000Y-23850000D02*
X49950000Y-19650000D01*
X11700000Y-35400000D02*
X11700000Y-37450000D01*
X11700000Y-37450000D02*
X13700000Y-39450000D01*
X20100000Y-35400000D02*
X20100000Y-37450000D01*
X20100000Y-37450000D02*
X18100000Y-39450000D01*
X18100000Y-39450000D02*
X13700000Y-39450000D01*
D30*
X11700000Y-29900000D02*
X11700000Y-27400000D01*
X28500000Y-35400000D02*
X28500000Y-37700000D01*
X24300000Y-35400000D02*
X24300000Y-37700000D01*
D29*
X24300000Y-35400000D02*
X28500000Y-35400000D01*
G04 #@! TO.N,+12V*
X44450000Y-19650000D02*
X44450000Y-23850000D01*
D31*
X41550000Y-23850000D02*
X44450000Y-23850000D01*
X41100000Y-29900000D02*
X41100000Y-24300000D01*
X41100000Y-24300000D02*
X41550000Y-23850000D01*
X44450000Y-26400000D02*
X44450000Y-23850000D01*
X45300000Y-29900000D02*
X45300000Y-27250000D01*
X45300000Y-27250000D02*
X44450000Y-26400000D01*
D29*
X41100000Y-29900000D02*
X45300000Y-29900000D01*
G04 #@! TO.N,+3V3*
X3300000Y-35400000D02*
X3300000Y-29900000D01*
X7500000Y-35400000D02*
X7500000Y-29900000D01*
D30*
X6100000Y-29800000D02*
X6200000Y-29900000D01*
D29*
X3300000Y-29900000D02*
X6200000Y-29900000D01*
X6200000Y-29900000D02*
X7500000Y-29900000D01*
D30*
X3300000Y-9600000D02*
X6100000Y-6800000D01*
X3300000Y-29900000D02*
X3300000Y-9600000D01*
D29*
X3300000Y-35400000D02*
X7500000Y-35400000D01*
G04 #@! TO.N,+5V*
X15900000Y-29900000D02*
X15900000Y-26900000D01*
X15900000Y-26900000D02*
X16700000Y-26100000D01*
X24300000Y-27100000D02*
X24300000Y-29900000D01*
X23300000Y-26100000D02*
X24300000Y-27100000D01*
X16700000Y-26100000D02*
X19100000Y-26100000D01*
X19100000Y-26100000D02*
X23300000Y-26100000D01*
D30*
X28000000Y-22240000D02*
X28000000Y-23442081D01*
X28000000Y-22942081D02*
X28000000Y-26000000D01*
D26*
X55890000Y-38400000D02*
X55380000Y-38400000D01*
D32*
X55890000Y-38400000D02*
X56900000Y-37390000D01*
X55890000Y-38400000D02*
X54600000Y-38400000D01*
X44479998Y-38400000D02*
X54600000Y-38400000D01*
X54600000Y-38400000D02*
X55380000Y-38400000D01*
D30*
X36900000Y-35400000D02*
X36900000Y-37700000D01*
X41100000Y-35400000D02*
X41100000Y-37800000D01*
X45300000Y-35400000D02*
X45300000Y-37600000D01*
X36900000Y-35400000D02*
X36900000Y-33500000D01*
D33*
X36900000Y-33500000D02*
X36100000Y-33500000D01*
X36100000Y-33500000D02*
X34800000Y-32200000D01*
X34800000Y-32200000D02*
X34800000Y-27400000D01*
X36900000Y-33500000D02*
X36100000Y-32700000D01*
X36100000Y-32700000D02*
X31600000Y-32700000D01*
X31600000Y-32700000D02*
X30600000Y-31700000D01*
X36900000Y-33500000D02*
X37000000Y-33500000D01*
X30600000Y-30600000D02*
X30600000Y-27400000D01*
X30600000Y-31700000D02*
X30600000Y-30600000D01*
X30600000Y-37200000D02*
X30600000Y-38100000D01*
X30600000Y-37200000D02*
X30600000Y-37800000D01*
X30600000Y-30600000D02*
X30600000Y-37200000D01*
X30600000Y-38100000D02*
X31000000Y-38500000D01*
D30*
X23800000Y-26600000D02*
X24300000Y-27100000D01*
X23800000Y-15900000D02*
X23800000Y-26600000D01*
X19100000Y-6800000D02*
X19100000Y-11200000D01*
X19100000Y-11200000D02*
X23800000Y-15900000D01*
D27*
G04 #@! TO.N,Net-(J3-Pad2)*
X12000000Y-17300000D02*
X12000000Y-19300000D01*
D34*
G04 #@! TO.N,/SDA*
X54534999Y-52154999D02*
X50180000Y-47800000D01*
X54534999Y-54265001D02*
X54534999Y-52154999D01*
G04 #@! TD*
D35*
G04 #@! TO.N,+5V*
G36*
X39073000Y-25352606D02*
X39073000Y-32100000D01*
X39082667Y-32148601D01*
X39110197Y-32189803D01*
X39710197Y-32789803D01*
X39751399Y-32817333D01*
X39800000Y-32827000D01*
X46047394Y-32827000D01*
X46573000Y-33352606D01*
X46573000Y-33626897D01*
X46403660Y-33456748D01*
X45973399Y-33232713D01*
X45673000Y-33312247D01*
X45673000Y-35027000D01*
X45693000Y-35027000D01*
X45693000Y-35773000D01*
X45673000Y-35773000D01*
X45673000Y-37487753D01*
X45973399Y-37567287D01*
X46403660Y-37343252D01*
X46573000Y-37173103D01*
X46573000Y-38447394D01*
X46047394Y-38973000D01*
X44782098Y-38973000D01*
X44641333Y-38945000D01*
X44358667Y-38945000D01*
X44217902Y-38973000D01*
X31152606Y-38973000D01*
X30627000Y-38447394D01*
X30627000Y-34904498D01*
X30715000Y-34904498D01*
X30715000Y-35895503D01*
X30830171Y-36474508D01*
X31268896Y-37131105D01*
X31925493Y-37569829D01*
X32700000Y-37723888D01*
X33474508Y-37569829D01*
X34131105Y-37131105D01*
X34569829Y-36474508D01*
X34647992Y-36081550D01*
X34957640Y-36081550D01*
X35251506Y-36795815D01*
X35796340Y-37343252D01*
X36226601Y-37567287D01*
X36527000Y-37487753D01*
X36527000Y-35773000D01*
X37273000Y-35773000D01*
X37273000Y-37487753D01*
X37573399Y-37567287D01*
X38003660Y-37343252D01*
X38548494Y-36795815D01*
X38842360Y-36081550D01*
X39157640Y-36081550D01*
X39451506Y-36795815D01*
X39996340Y-37343252D01*
X40426601Y-37567287D01*
X40727000Y-37487753D01*
X40727000Y-35773000D01*
X41473000Y-35773000D01*
X41473000Y-37487753D01*
X41773399Y-37567287D01*
X42203660Y-37343252D01*
X42748494Y-36795815D01*
X43042360Y-36081550D01*
X43357640Y-36081550D01*
X43651506Y-36795815D01*
X44196340Y-37343252D01*
X44626601Y-37567287D01*
X44927000Y-37487753D01*
X44927000Y-35773000D01*
X43480616Y-35773000D01*
X43357640Y-36081550D01*
X43042360Y-36081550D01*
X42919384Y-35773000D01*
X41473000Y-35773000D01*
X40727000Y-35773000D01*
X39280616Y-35773000D01*
X39157640Y-36081550D01*
X38842360Y-36081550D01*
X38719384Y-35773000D01*
X37273000Y-35773000D01*
X36527000Y-35773000D01*
X35080616Y-35773000D01*
X34957640Y-36081550D01*
X34647992Y-36081550D01*
X34685000Y-35895502D01*
X34685000Y-34904497D01*
X34647994Y-34718450D01*
X34957640Y-34718450D01*
X35080616Y-35027000D01*
X36527000Y-35027000D01*
X36527000Y-33312247D01*
X37273000Y-33312247D01*
X37273000Y-35027000D01*
X38719384Y-35027000D01*
X38842360Y-34718450D01*
X39157640Y-34718450D01*
X39280616Y-35027000D01*
X40727000Y-35027000D01*
X40727000Y-33312247D01*
X41473000Y-33312247D01*
X41473000Y-35027000D01*
X42919384Y-35027000D01*
X43042360Y-34718450D01*
X43357640Y-34718450D01*
X43480616Y-35027000D01*
X44927000Y-35027000D01*
X44927000Y-33312247D01*
X44626601Y-33232713D01*
X44196340Y-33456748D01*
X43651506Y-34004185D01*
X43357640Y-34718450D01*
X43042360Y-34718450D01*
X42748494Y-34004185D01*
X42203660Y-33456748D01*
X41773399Y-33232713D01*
X41473000Y-33312247D01*
X40727000Y-33312247D01*
X40426601Y-33232713D01*
X39996340Y-33456748D01*
X39451506Y-34004185D01*
X39157640Y-34718450D01*
X38842360Y-34718450D01*
X38548494Y-34004185D01*
X38003660Y-33456748D01*
X37573399Y-33232713D01*
X37273000Y-33312247D01*
X36527000Y-33312247D01*
X36226601Y-33232713D01*
X35796340Y-33456748D01*
X35251506Y-34004185D01*
X34957640Y-34718450D01*
X34647994Y-34718450D01*
X34569829Y-34325492D01*
X34131105Y-33668895D01*
X33474507Y-33230171D01*
X32700000Y-33076112D01*
X31925492Y-33230171D01*
X31268895Y-33668895D01*
X30830171Y-34325493D01*
X30715000Y-34904498D01*
X30627000Y-34904498D01*
X30627000Y-33100000D01*
X30617333Y-33051399D01*
X30589803Y-33010197D01*
X30435000Y-32855394D01*
X30435000Y-30646870D01*
X30485000Y-30395502D01*
X30485000Y-29404498D01*
X30715000Y-29404498D01*
X30715000Y-30395503D01*
X30830171Y-30974508D01*
X31268896Y-31631105D01*
X31925493Y-32069829D01*
X32700000Y-32223888D01*
X33474508Y-32069829D01*
X34131105Y-31631105D01*
X34569829Y-30974508D01*
X34685000Y-30395502D01*
X34685000Y-29404498D01*
X34915000Y-29404498D01*
X34915000Y-30395503D01*
X35030171Y-30974508D01*
X35468896Y-31631105D01*
X36125493Y-32069829D01*
X36900000Y-32223888D01*
X37674508Y-32069829D01*
X38331105Y-31631105D01*
X38769829Y-30974508D01*
X38885000Y-30395502D01*
X38885000Y-29404497D01*
X38769829Y-28825492D01*
X38331105Y-28168895D01*
X37674507Y-27730171D01*
X36900000Y-27576112D01*
X36125492Y-27730171D01*
X35468895Y-28168895D01*
X35030171Y-28825493D01*
X34915000Y-29404498D01*
X34685000Y-29404498D01*
X34685000Y-29404497D01*
X34569829Y-28825492D01*
X34131105Y-28168895D01*
X33474507Y-27730171D01*
X32700000Y-27576112D01*
X31925492Y-27730171D01*
X31268895Y-28168895D01*
X30830171Y-28825493D01*
X30715000Y-29404498D01*
X30485000Y-29404498D01*
X30485000Y-29404497D01*
X30369829Y-28825492D01*
X29931105Y-28168895D01*
X29274507Y-27730171D01*
X28500000Y-27576112D01*
X27725492Y-27730171D01*
X27068895Y-28168895D01*
X26630171Y-28825493D01*
X26515000Y-29404498D01*
X26515000Y-30395503D01*
X26565001Y-30646875D01*
X26565000Y-32573000D01*
X22035000Y-32573000D01*
X22035000Y-30646870D01*
X22047992Y-30581550D01*
X22357640Y-30581550D01*
X22651506Y-31295815D01*
X23196340Y-31843252D01*
X23626601Y-32067287D01*
X23927000Y-31987753D01*
X23927000Y-30273000D01*
X24673000Y-30273000D01*
X24673000Y-31987753D01*
X24973399Y-32067287D01*
X25403660Y-31843252D01*
X25948494Y-31295815D01*
X26242360Y-30581550D01*
X26119384Y-30273000D01*
X24673000Y-30273000D01*
X23927000Y-30273000D01*
X22480616Y-30273000D01*
X22357640Y-30581550D01*
X22047992Y-30581550D01*
X22085000Y-30395502D01*
X22085000Y-29404497D01*
X22047994Y-29218450D01*
X22357640Y-29218450D01*
X22480616Y-29527000D01*
X23927000Y-29527000D01*
X23927000Y-27812247D01*
X24673000Y-27812247D01*
X24673000Y-29527000D01*
X26119384Y-29527000D01*
X26242360Y-29218450D01*
X25948494Y-28504185D01*
X25403660Y-27956748D01*
X24973399Y-27732713D01*
X24673000Y-27812247D01*
X23927000Y-27812247D01*
X23626601Y-27732713D01*
X23196340Y-27956748D01*
X22651506Y-28504185D01*
X22357640Y-29218450D01*
X22047994Y-29218450D01*
X21969829Y-28825492D01*
X21531105Y-28168895D01*
X20874507Y-27730171D01*
X20100000Y-27576112D01*
X19325492Y-27730171D01*
X18668895Y-28168895D01*
X18230171Y-28825493D01*
X18115000Y-29404498D01*
X18115000Y-30395503D01*
X18165001Y-30646875D01*
X18165001Y-32573000D01*
X14752606Y-32573000D01*
X14227000Y-32047394D01*
X14227000Y-31236251D01*
X14251506Y-31295815D01*
X14796340Y-31843252D01*
X15226601Y-32067287D01*
X15527000Y-31987753D01*
X15527000Y-30273000D01*
X16273000Y-30273000D01*
X16273000Y-31987753D01*
X16573399Y-32067287D01*
X17003660Y-31843252D01*
X17548494Y-31295815D01*
X17842360Y-30581550D01*
X17719384Y-30273000D01*
X16273000Y-30273000D01*
X15527000Y-30273000D01*
X15507000Y-30273000D01*
X15507000Y-29527000D01*
X15527000Y-29527000D01*
X15527000Y-27812247D01*
X16273000Y-27812247D01*
X16273000Y-29527000D01*
X17719384Y-29527000D01*
X17842360Y-29218450D01*
X17548494Y-28504185D01*
X17003660Y-27956748D01*
X16573399Y-27732713D01*
X16273000Y-27812247D01*
X15527000Y-27812247D01*
X15226601Y-27732713D01*
X14796340Y-27956748D01*
X14251506Y-28504185D01*
X14227000Y-28563749D01*
X14227000Y-25352606D01*
X14752606Y-24827000D01*
X38547394Y-24827000D01*
X39073000Y-25352606D01*
X39073000Y-25352606D01*
G37*
X39073000Y-25352606D02*
X39073000Y-32100000D01*
X39082667Y-32148601D01*
X39110197Y-32189803D01*
X39710197Y-32789803D01*
X39751399Y-32817333D01*
X39800000Y-32827000D01*
X46047394Y-32827000D01*
X46573000Y-33352606D01*
X46573000Y-33626897D01*
X46403660Y-33456748D01*
X45973399Y-33232713D01*
X45673000Y-33312247D01*
X45673000Y-35027000D01*
X45693000Y-35027000D01*
X45693000Y-35773000D01*
X45673000Y-35773000D01*
X45673000Y-37487753D01*
X45973399Y-37567287D01*
X46403660Y-37343252D01*
X46573000Y-37173103D01*
X46573000Y-38447394D01*
X46047394Y-38973000D01*
X44782098Y-38973000D01*
X44641333Y-38945000D01*
X44358667Y-38945000D01*
X44217902Y-38973000D01*
X31152606Y-38973000D01*
X30627000Y-38447394D01*
X30627000Y-34904498D01*
X30715000Y-34904498D01*
X30715000Y-35895503D01*
X30830171Y-36474508D01*
X31268896Y-37131105D01*
X31925493Y-37569829D01*
X32700000Y-37723888D01*
X33474508Y-37569829D01*
X34131105Y-37131105D01*
X34569829Y-36474508D01*
X34647992Y-36081550D01*
X34957640Y-36081550D01*
X35251506Y-36795815D01*
X35796340Y-37343252D01*
X36226601Y-37567287D01*
X36527000Y-37487753D01*
X36527000Y-35773000D01*
X37273000Y-35773000D01*
X37273000Y-37487753D01*
X37573399Y-37567287D01*
X38003660Y-37343252D01*
X38548494Y-36795815D01*
X38842360Y-36081550D01*
X39157640Y-36081550D01*
X39451506Y-36795815D01*
X39996340Y-37343252D01*
X40426601Y-37567287D01*
X40727000Y-37487753D01*
X40727000Y-35773000D01*
X41473000Y-35773000D01*
X41473000Y-37487753D01*
X41773399Y-37567287D01*
X42203660Y-37343252D01*
X42748494Y-36795815D01*
X43042360Y-36081550D01*
X43357640Y-36081550D01*
X43651506Y-36795815D01*
X44196340Y-37343252D01*
X44626601Y-37567287D01*
X44927000Y-37487753D01*
X44927000Y-35773000D01*
X43480616Y-35773000D01*
X43357640Y-36081550D01*
X43042360Y-36081550D01*
X42919384Y-35773000D01*
X41473000Y-35773000D01*
X40727000Y-35773000D01*
X39280616Y-35773000D01*
X39157640Y-36081550D01*
X38842360Y-36081550D01*
X38719384Y-35773000D01*
X37273000Y-35773000D01*
X36527000Y-35773000D01*
X35080616Y-35773000D01*
X34957640Y-36081550D01*
X34647992Y-36081550D01*
X34685000Y-35895502D01*
X34685000Y-34904497D01*
X34647994Y-34718450D01*
X34957640Y-34718450D01*
X35080616Y-35027000D01*
X36527000Y-35027000D01*
X36527000Y-33312247D01*
X37273000Y-33312247D01*
X37273000Y-35027000D01*
X38719384Y-35027000D01*
X38842360Y-34718450D01*
X39157640Y-34718450D01*
X39280616Y-35027000D01*
X40727000Y-35027000D01*
X40727000Y-33312247D01*
X41473000Y-33312247D01*
X41473000Y-35027000D01*
X42919384Y-35027000D01*
X43042360Y-34718450D01*
X43357640Y-34718450D01*
X43480616Y-35027000D01*
X44927000Y-35027000D01*
X44927000Y-33312247D01*
X44626601Y-33232713D01*
X44196340Y-33456748D01*
X43651506Y-34004185D01*
X43357640Y-34718450D01*
X43042360Y-34718450D01*
X42748494Y-34004185D01*
X42203660Y-33456748D01*
X41773399Y-33232713D01*
X41473000Y-33312247D01*
X40727000Y-33312247D01*
X40426601Y-33232713D01*
X39996340Y-33456748D01*
X39451506Y-34004185D01*
X39157640Y-34718450D01*
X38842360Y-34718450D01*
X38548494Y-34004185D01*
X38003660Y-33456748D01*
X37573399Y-33232713D01*
X37273000Y-33312247D01*
X36527000Y-33312247D01*
X36226601Y-33232713D01*
X35796340Y-33456748D01*
X35251506Y-34004185D01*
X34957640Y-34718450D01*
X34647994Y-34718450D01*
X34569829Y-34325492D01*
X34131105Y-33668895D01*
X33474507Y-33230171D01*
X32700000Y-33076112D01*
X31925492Y-33230171D01*
X31268895Y-33668895D01*
X30830171Y-34325493D01*
X30715000Y-34904498D01*
X30627000Y-34904498D01*
X30627000Y-33100000D01*
X30617333Y-33051399D01*
X30589803Y-33010197D01*
X30435000Y-32855394D01*
X30435000Y-30646870D01*
X30485000Y-30395502D01*
X30485000Y-29404498D01*
X30715000Y-29404498D01*
X30715000Y-30395503D01*
X30830171Y-30974508D01*
X31268896Y-31631105D01*
X31925493Y-32069829D01*
X32700000Y-32223888D01*
X33474508Y-32069829D01*
X34131105Y-31631105D01*
X34569829Y-30974508D01*
X34685000Y-30395502D01*
X34685000Y-29404498D01*
X34915000Y-29404498D01*
X34915000Y-30395503D01*
X35030171Y-30974508D01*
X35468896Y-31631105D01*
X36125493Y-32069829D01*
X36900000Y-32223888D01*
X37674508Y-32069829D01*
X38331105Y-31631105D01*
X38769829Y-30974508D01*
X38885000Y-30395502D01*
X38885000Y-29404497D01*
X38769829Y-28825492D01*
X38331105Y-28168895D01*
X37674507Y-27730171D01*
X36900000Y-27576112D01*
X36125492Y-27730171D01*
X35468895Y-28168895D01*
X35030171Y-28825493D01*
X34915000Y-29404498D01*
X34685000Y-29404498D01*
X34685000Y-29404497D01*
X34569829Y-28825492D01*
X34131105Y-28168895D01*
X33474507Y-27730171D01*
X32700000Y-27576112D01*
X31925492Y-27730171D01*
X31268895Y-28168895D01*
X30830171Y-28825493D01*
X30715000Y-29404498D01*
X30485000Y-29404498D01*
X30485000Y-29404497D01*
X30369829Y-28825492D01*
X29931105Y-28168895D01*
X29274507Y-27730171D01*
X28500000Y-27576112D01*
X27725492Y-27730171D01*
X27068895Y-28168895D01*
X26630171Y-28825493D01*
X26515000Y-29404498D01*
X26515000Y-30395503D01*
X26565001Y-30646875D01*
X26565000Y-32573000D01*
X22035000Y-32573000D01*
X22035000Y-30646870D01*
X22047992Y-30581550D01*
X22357640Y-30581550D01*
X22651506Y-31295815D01*
X23196340Y-31843252D01*
X23626601Y-32067287D01*
X23927000Y-31987753D01*
X23927000Y-30273000D01*
X24673000Y-30273000D01*
X24673000Y-31987753D01*
X24973399Y-32067287D01*
X25403660Y-31843252D01*
X25948494Y-31295815D01*
X26242360Y-30581550D01*
X26119384Y-30273000D01*
X24673000Y-30273000D01*
X23927000Y-30273000D01*
X22480616Y-30273000D01*
X22357640Y-30581550D01*
X22047992Y-30581550D01*
X22085000Y-30395502D01*
X22085000Y-29404497D01*
X22047994Y-29218450D01*
X22357640Y-29218450D01*
X22480616Y-29527000D01*
X23927000Y-29527000D01*
X23927000Y-27812247D01*
X24673000Y-27812247D01*
X24673000Y-29527000D01*
X26119384Y-29527000D01*
X26242360Y-29218450D01*
X25948494Y-28504185D01*
X25403660Y-27956748D01*
X24973399Y-27732713D01*
X24673000Y-27812247D01*
X23927000Y-27812247D01*
X23626601Y-27732713D01*
X23196340Y-27956748D01*
X22651506Y-28504185D01*
X22357640Y-29218450D01*
X22047994Y-29218450D01*
X21969829Y-28825492D01*
X21531105Y-28168895D01*
X20874507Y-27730171D01*
X20100000Y-27576112D01*
X19325492Y-27730171D01*
X18668895Y-28168895D01*
X18230171Y-28825493D01*
X18115000Y-29404498D01*
X18115000Y-30395503D01*
X18165001Y-30646875D01*
X18165001Y-32573000D01*
X14752606Y-32573000D01*
X14227000Y-32047394D01*
X14227000Y-31236251D01*
X14251506Y-31295815D01*
X14796340Y-31843252D01*
X15226601Y-32067287D01*
X15527000Y-31987753D01*
X15527000Y-30273000D01*
X16273000Y-30273000D01*
X16273000Y-31987753D01*
X16573399Y-32067287D01*
X17003660Y-31843252D01*
X17548494Y-31295815D01*
X17842360Y-30581550D01*
X17719384Y-30273000D01*
X16273000Y-30273000D01*
X15527000Y-30273000D01*
X15507000Y-30273000D01*
X15507000Y-29527000D01*
X15527000Y-29527000D01*
X15527000Y-27812247D01*
X16273000Y-27812247D01*
X16273000Y-29527000D01*
X17719384Y-29527000D01*
X17842360Y-29218450D01*
X17548494Y-28504185D01*
X17003660Y-27956748D01*
X16573399Y-27732713D01*
X16273000Y-27812247D01*
X15527000Y-27812247D01*
X15226601Y-27732713D01*
X14796340Y-27956748D01*
X14251506Y-28504185D01*
X14227000Y-28563749D01*
X14227000Y-25352606D01*
X14752606Y-24827000D01*
X38547394Y-24827000D01*
X39073000Y-25352606D01*
G04 #@! TO.N,GND*
G36*
X7956993Y-10223044D02*
X9290000Y-11556052D01*
X10623007Y-10223044D01*
X10473723Y-9927000D01*
X11173000Y-9927000D01*
X11173000Y-10699373D01*
X11113964Y-10556848D01*
X10796956Y-10396993D01*
X9463948Y-11730000D01*
X10796956Y-13063007D01*
X11113964Y-12903152D01*
X11173000Y-12753270D01*
X11173000Y-13000000D01*
X11182667Y-13048601D01*
X11210197Y-13089803D01*
X11251399Y-13117333D01*
X11300000Y-13127000D01*
X18573341Y-13127000D01*
X22065000Y-16618660D01*
X22065001Y-24065000D01*
X14700000Y-24065000D01*
X14456996Y-24113336D01*
X14250987Y-24250987D01*
X13650987Y-24850987D01*
X13513336Y-25056996D01*
X13465000Y-25300000D01*
X13465000Y-28710850D01*
X13010976Y-28115076D01*
X12342928Y-27726420D01*
X12130157Y-27670364D01*
X11823000Y-27783911D01*
X11823000Y-29777000D01*
X11843000Y-29777000D01*
X11843000Y-30023000D01*
X11823000Y-30023000D01*
X11823000Y-32016089D01*
X12130157Y-32129636D01*
X12342928Y-32073580D01*
X13010976Y-31684924D01*
X13465000Y-31089150D01*
X13465000Y-32100000D01*
X13513336Y-32343004D01*
X13650987Y-32549013D01*
X14250987Y-33149013D01*
X14456996Y-33286664D01*
X14700000Y-33335000D01*
X14968604Y-33335000D01*
X14468895Y-33668895D01*
X14030171Y-34325493D01*
X13915000Y-34904498D01*
X13915000Y-35895503D01*
X14030171Y-36474508D01*
X14468896Y-37131105D01*
X15125493Y-37569829D01*
X15900000Y-37723888D01*
X16674508Y-37569829D01*
X17331105Y-37131105D01*
X17769829Y-36474508D01*
X17885000Y-35895502D01*
X17885000Y-35523000D01*
X18123000Y-35523000D01*
X18123000Y-35823000D01*
X18320560Y-36570202D01*
X18789024Y-37184924D01*
X19457072Y-37573580D01*
X19669843Y-37629636D01*
X19977000Y-37516089D01*
X19977000Y-35523000D01*
X20223000Y-35523000D01*
X20223000Y-37516089D01*
X20530157Y-37629636D01*
X20742928Y-37573580D01*
X21410976Y-37184924D01*
X21879440Y-36570202D01*
X22077000Y-35823000D01*
X22077000Y-35523000D01*
X22323000Y-35523000D01*
X22323000Y-35823000D01*
X22520560Y-36570202D01*
X22989024Y-37184924D01*
X23657072Y-37573580D01*
X23869843Y-37629636D01*
X24177000Y-37516089D01*
X24177000Y-35523000D01*
X24423000Y-35523000D01*
X24423000Y-37516089D01*
X24730157Y-37629636D01*
X24942928Y-37573580D01*
X25610976Y-37184924D01*
X26079440Y-36570202D01*
X26277000Y-35823000D01*
X26277000Y-35523000D01*
X26523000Y-35523000D01*
X26523000Y-35823000D01*
X26720560Y-36570202D01*
X27189024Y-37184924D01*
X27857072Y-37573580D01*
X28069843Y-37629636D01*
X28377000Y-37516089D01*
X28377000Y-35523000D01*
X26523000Y-35523000D01*
X26277000Y-35523000D01*
X24423000Y-35523000D01*
X24177000Y-35523000D01*
X22323000Y-35523000D01*
X22077000Y-35523000D01*
X20223000Y-35523000D01*
X19977000Y-35523000D01*
X18123000Y-35523000D01*
X17885000Y-35523000D01*
X17885000Y-34904497D01*
X17769829Y-34325492D01*
X17331105Y-33668895D01*
X16831395Y-33335000D01*
X19270437Y-33335000D01*
X18789024Y-33615076D01*
X18320560Y-34229798D01*
X18123000Y-34977000D01*
X18123000Y-35277000D01*
X19977000Y-35277000D01*
X19977000Y-35257000D01*
X20223000Y-35257000D01*
X20223000Y-35277000D01*
X22077000Y-35277000D01*
X22077000Y-34977000D01*
X21879440Y-34229798D01*
X21410976Y-33615076D01*
X20929563Y-33335000D01*
X23470437Y-33335000D01*
X22989024Y-33615076D01*
X22520560Y-34229798D01*
X22323000Y-34977000D01*
X22323000Y-35277000D01*
X24177000Y-35277000D01*
X24177000Y-35257000D01*
X24423000Y-35257000D01*
X24423000Y-35277000D01*
X26277000Y-35277000D01*
X26277000Y-34977000D01*
X26079440Y-34229798D01*
X25610976Y-33615076D01*
X25129563Y-33335000D01*
X27670437Y-33335000D01*
X27189024Y-33615076D01*
X26720560Y-34229798D01*
X26523000Y-34977000D01*
X26523000Y-35277000D01*
X28377000Y-35277000D01*
X28377000Y-35257000D01*
X28623000Y-35257000D01*
X28623000Y-35277000D01*
X28643000Y-35277000D01*
X28643000Y-35523000D01*
X28623000Y-35523000D01*
X28623000Y-37516089D01*
X28930157Y-37629636D01*
X29142928Y-37573580D01*
X29565000Y-37328028D01*
X29565000Y-37901935D01*
X29565001Y-37901939D01*
X29565001Y-37998062D01*
X29544724Y-38100000D01*
X29625052Y-38503836D01*
X29653354Y-38546193D01*
X29853808Y-38846193D01*
X29940225Y-38903935D01*
X30340224Y-39303934D01*
X30538172Y-39436198D01*
X30650987Y-39549013D01*
X30856996Y-39686664D01*
X31100000Y-39735000D01*
X43205116Y-39735000D01*
X43148260Y-39820091D01*
X43036887Y-40380000D01*
X43148260Y-40939909D01*
X43465423Y-41414577D01*
X43940091Y-41731740D01*
X44358667Y-41815000D01*
X44641333Y-41815000D01*
X45059909Y-41731740D01*
X45534577Y-41414577D01*
X45851740Y-40939909D01*
X45963113Y-40380000D01*
X45851740Y-39820091D01*
X45794884Y-39735000D01*
X55758519Y-39735000D01*
X55890000Y-39761153D01*
X56021481Y-39735000D01*
X56021485Y-39735000D01*
X56410891Y-39657542D01*
X56852481Y-39362481D01*
X56926962Y-39251012D01*
X57366718Y-38811256D01*
X57479418Y-38788839D01*
X57970625Y-38460625D01*
X58298839Y-37969418D01*
X58414092Y-37390000D01*
X58298839Y-36810582D01*
X57970625Y-36319375D01*
X57672239Y-36120000D01*
X57724620Y-36085000D01*
X57980449Y-36085000D01*
X58102081Y-36109194D01*
X58223713Y-36085000D01*
X58223717Y-36085000D01*
X58583954Y-36013344D01*
X58992466Y-35740385D01*
X59061367Y-35637267D01*
X60079925Y-34618710D01*
X60035908Y-34840000D01*
X60151161Y-35419418D01*
X60479375Y-35910625D01*
X60777761Y-36110000D01*
X60479375Y-36309375D01*
X60151161Y-36800582D01*
X60035908Y-37380000D01*
X60151161Y-37959418D01*
X60479375Y-38450625D01*
X60777761Y-38650000D01*
X60479375Y-38849375D01*
X60151161Y-39340582D01*
X60035908Y-39920000D01*
X60151161Y-40499418D01*
X60479375Y-40990625D01*
X60805783Y-41208724D01*
X60676071Y-41269284D01*
X60286928Y-41694360D01*
X60115493Y-42108263D01*
X60235492Y-42337000D01*
X61427000Y-42337000D01*
X61427000Y-42317000D01*
X61673000Y-42317000D01*
X61673000Y-42337000D01*
X62864508Y-42337000D01*
X62984507Y-42108263D01*
X62813072Y-41694360D01*
X62423929Y-41269284D01*
X62294217Y-41208724D01*
X62620625Y-40990625D01*
X62948839Y-40499418D01*
X63064092Y-39920000D01*
X62948839Y-39340582D01*
X62620625Y-38849375D01*
X62322239Y-38650000D01*
X62620625Y-38450625D01*
X62948839Y-37959418D01*
X63064092Y-37380000D01*
X62948839Y-36800582D01*
X62620625Y-36309375D01*
X62322239Y-36110000D01*
X62620625Y-35910625D01*
X62948839Y-35419418D01*
X63064092Y-34840000D01*
X62948839Y-34260582D01*
X62620625Y-33769375D01*
X62602381Y-33757184D01*
X62647765Y-33748157D01*
X62857809Y-33607809D01*
X62906459Y-33535000D01*
X63065001Y-33535000D01*
X63065000Y-49488446D01*
X59212732Y-53340715D01*
X59109616Y-53409615D01*
X59040716Y-53512731D01*
X59040714Y-53512733D01*
X58836656Y-53818128D01*
X58817733Y-53913263D01*
X58765000Y-54178364D01*
X58765000Y-54178368D01*
X58740806Y-54300000D01*
X58765000Y-54421632D01*
X58765000Y-55488446D01*
X58683446Y-55570001D01*
X58384685Y-55570001D01*
X58523156Y-55362766D01*
X58572439Y-55115001D01*
X58572439Y-53415001D01*
X58523156Y-53167236D01*
X58382808Y-52957192D01*
X58172764Y-52816844D01*
X57924999Y-52767561D01*
X56224999Y-52767561D01*
X55977234Y-52816844D01*
X55767190Y-52957192D01*
X55626842Y-53167236D01*
X55617815Y-53212620D01*
X55605624Y-53194376D01*
X55369999Y-53036936D01*
X55369999Y-52237236D01*
X55386357Y-52154999D01*
X55321551Y-51829199D01*
X55321551Y-51829198D01*
X55137000Y-51552998D01*
X55067282Y-51506414D01*
X54460868Y-50900000D01*
X56336887Y-50900000D01*
X56448260Y-51459909D01*
X56765423Y-51934577D01*
X57240091Y-52251740D01*
X57658667Y-52335000D01*
X57941333Y-52335000D01*
X58359909Y-52251740D01*
X58834577Y-51934577D01*
X59151740Y-51459909D01*
X59263113Y-50900000D01*
X59151740Y-50340091D01*
X58834577Y-49865423D01*
X58359909Y-49548260D01*
X57941333Y-49465000D01*
X57658667Y-49465000D01*
X57240091Y-49548260D01*
X56765423Y-49865423D01*
X56448260Y-50340091D01*
X56336887Y-50900000D01*
X54460868Y-50900000D01*
X51596285Y-48035418D01*
X51643113Y-47800000D01*
X51586336Y-47514561D01*
X56365000Y-47514561D01*
X56365000Y-48085439D01*
X56583466Y-48612862D01*
X56987138Y-49016534D01*
X57514561Y-49235000D01*
X58085439Y-49235000D01*
X58612862Y-49016534D01*
X59016534Y-48612862D01*
X59235000Y-48085439D01*
X59235000Y-47514561D01*
X59016534Y-46987138D01*
X58612862Y-46583466D01*
X58085439Y-46365000D01*
X57514561Y-46365000D01*
X56987138Y-46583466D01*
X56583466Y-46987138D01*
X56365000Y-47514561D01*
X51586336Y-47514561D01*
X51531740Y-47240091D01*
X51214577Y-46765423D01*
X50739909Y-46448260D01*
X50321333Y-46365000D01*
X50038667Y-46365000D01*
X49620091Y-46448260D01*
X49145423Y-46765423D01*
X48828260Y-47240091D01*
X48716887Y-47800000D01*
X48828260Y-48359909D01*
X49145423Y-48834577D01*
X49620091Y-49151740D01*
X50038667Y-49235000D01*
X50321333Y-49235000D01*
X50415418Y-49216285D01*
X50804631Y-49605498D01*
X50465439Y-49465000D01*
X49894561Y-49465000D01*
X49367138Y-49683466D01*
X49106890Y-49943714D01*
X49054577Y-49865423D01*
X48579909Y-49548260D01*
X48161333Y-49465000D01*
X47878667Y-49465000D01*
X47460091Y-49548260D01*
X46985423Y-49865423D01*
X46668260Y-50340091D01*
X46556887Y-50900000D01*
X46668260Y-51459909D01*
X46985423Y-51934577D01*
X47460091Y-52251740D01*
X47878667Y-52335000D01*
X48161333Y-52335000D01*
X48579909Y-52251740D01*
X49054577Y-51934577D01*
X49106890Y-51856286D01*
X49367138Y-52116534D01*
X49894561Y-52335000D01*
X50465439Y-52335000D01*
X50992862Y-52116534D01*
X51396534Y-51712862D01*
X51615000Y-51185439D01*
X51615000Y-50614561D01*
X51474502Y-50275370D01*
X53700000Y-52500868D01*
X53700000Y-53036936D01*
X53464374Y-53194376D01*
X53264999Y-53492762D01*
X53065624Y-53194376D01*
X52574417Y-52866162D01*
X52141255Y-52780001D01*
X51848743Y-52780001D01*
X51415581Y-52866162D01*
X50924374Y-53194376D01*
X50724999Y-53492762D01*
X50525624Y-53194376D01*
X50034417Y-52866162D01*
X49601255Y-52780001D01*
X49308743Y-52780001D01*
X48875581Y-52866162D01*
X48384374Y-53194376D01*
X48166275Y-53520784D01*
X48105715Y-53391072D01*
X47680639Y-53001929D01*
X47266736Y-52830494D01*
X47037999Y-52950493D01*
X47037999Y-54142001D01*
X47057999Y-54142001D01*
X47057999Y-54388001D01*
X47037999Y-54388001D01*
X47037999Y-54408001D01*
X46791999Y-54408001D01*
X46791999Y-54388001D01*
X46771999Y-54388001D01*
X46771999Y-54142001D01*
X46791999Y-54142001D01*
X46791999Y-52950493D01*
X46563262Y-52830494D01*
X46149359Y-53001929D01*
X45724283Y-53391072D01*
X45663723Y-53520784D01*
X45445624Y-53194376D01*
X44954417Y-52866162D01*
X44521255Y-52780001D01*
X44228743Y-52780001D01*
X43795581Y-52866162D01*
X43304374Y-53194376D01*
X43104999Y-53492762D01*
X42905624Y-53194376D01*
X42414417Y-52866162D01*
X41981255Y-52780001D01*
X41688743Y-52780001D01*
X41255581Y-52866162D01*
X40764374Y-53194376D01*
X40564999Y-53492762D01*
X40365624Y-53194376D01*
X39874417Y-52866162D01*
X39441255Y-52780001D01*
X39148743Y-52780001D01*
X38715581Y-52866162D01*
X38224374Y-53194376D01*
X38024999Y-53492762D01*
X37825624Y-53194376D01*
X37334417Y-52866162D01*
X36901255Y-52780001D01*
X36608743Y-52780001D01*
X36175581Y-52866162D01*
X35684374Y-53194376D01*
X35484999Y-53492762D01*
X35285624Y-53194376D01*
X34794417Y-52866162D01*
X34361255Y-52780001D01*
X34068743Y-52780001D01*
X33635581Y-52866162D01*
X33144374Y-53194376D01*
X32944999Y-53492762D01*
X32745624Y-53194376D01*
X32254417Y-52866162D01*
X31821255Y-52780001D01*
X31528743Y-52780001D01*
X31095581Y-52866162D01*
X30604374Y-53194376D01*
X30404999Y-53492762D01*
X30205624Y-53194376D01*
X29714417Y-52866162D01*
X29281255Y-52780001D01*
X28988743Y-52780001D01*
X28555581Y-52866162D01*
X28064374Y-53194376D01*
X27846275Y-53520784D01*
X27785715Y-53391072D01*
X27360639Y-53001929D01*
X26946736Y-52830494D01*
X26717999Y-52950493D01*
X26717999Y-54142001D01*
X26737999Y-54142001D01*
X26737999Y-54388001D01*
X26717999Y-54388001D01*
X26717999Y-54408001D01*
X26471999Y-54408001D01*
X26471999Y-54388001D01*
X26451999Y-54388001D01*
X26451999Y-54142001D01*
X26471999Y-54142001D01*
X26471999Y-52950493D01*
X26243262Y-52830494D01*
X25829359Y-53001929D01*
X25404283Y-53391072D01*
X25343723Y-53520784D01*
X25125624Y-53194376D01*
X24634417Y-52866162D01*
X24201255Y-52780001D01*
X23908743Y-52780001D01*
X23475581Y-52866162D01*
X22984374Y-53194376D01*
X22784999Y-53492762D01*
X22585624Y-53194376D01*
X22094417Y-52866162D01*
X21661255Y-52780001D01*
X21368743Y-52780001D01*
X20935581Y-52866162D01*
X20444374Y-53194376D01*
X20244999Y-53492762D01*
X20045624Y-53194376D01*
X19554417Y-52866162D01*
X19121255Y-52780001D01*
X18828743Y-52780001D01*
X18395581Y-52866162D01*
X17904374Y-53194376D01*
X17704999Y-53492762D01*
X17505624Y-53194376D01*
X17014417Y-52866162D01*
X16581255Y-52780001D01*
X16288743Y-52780001D01*
X15855581Y-52866162D01*
X15364374Y-53194376D01*
X15164999Y-53492762D01*
X14965624Y-53194376D01*
X14474417Y-52866162D01*
X14041255Y-52780001D01*
X13748743Y-52780001D01*
X13315581Y-52866162D01*
X12824374Y-53194376D01*
X12624999Y-53492762D01*
X12425624Y-53194376D01*
X11934417Y-52866162D01*
X11501255Y-52780001D01*
X11208743Y-52780001D01*
X10775581Y-52866162D01*
X10284374Y-53194376D01*
X10066275Y-53520784D01*
X10005715Y-53391072D01*
X9580639Y-53001929D01*
X9166736Y-52830494D01*
X8937999Y-52950493D01*
X8937999Y-54142001D01*
X8957999Y-54142001D01*
X8957999Y-54388001D01*
X8937999Y-54388001D01*
X8937999Y-54408001D01*
X8691999Y-54408001D01*
X8691999Y-54388001D01*
X7499870Y-54388001D01*
X7380483Y-54616739D01*
X7624283Y-55138930D01*
X8049359Y-55528073D01*
X8051686Y-55529037D01*
X7744374Y-55734376D01*
X7416160Y-56225583D01*
X7300907Y-56805001D01*
X7416160Y-57384419D01*
X7744374Y-57875626D01*
X8235581Y-58203840D01*
X8668743Y-58290001D01*
X8961255Y-58290001D01*
X9394417Y-58203840D01*
X9885624Y-57875626D01*
X10084999Y-57577240D01*
X10284374Y-57875626D01*
X10775581Y-58203840D01*
X11208743Y-58290001D01*
X11501255Y-58290001D01*
X11934417Y-58203840D01*
X12425624Y-57875626D01*
X12624999Y-57577240D01*
X12824374Y-57875626D01*
X13315581Y-58203840D01*
X13748743Y-58290001D01*
X14041255Y-58290001D01*
X14474417Y-58203840D01*
X14965624Y-57875626D01*
X15183723Y-57549218D01*
X15244283Y-57678930D01*
X15669359Y-58068073D01*
X16083262Y-58239508D01*
X16311999Y-58119509D01*
X16311999Y-56928001D01*
X16291999Y-56928001D01*
X16291999Y-56682001D01*
X16311999Y-56682001D01*
X16311999Y-56662001D01*
X16557999Y-56662001D01*
X16557999Y-56682001D01*
X16577999Y-56682001D01*
X16577999Y-56928001D01*
X16557999Y-56928001D01*
X16557999Y-58119509D01*
X16786736Y-58239508D01*
X17200639Y-58068073D01*
X17625715Y-57678930D01*
X17686275Y-57549218D01*
X17904374Y-57875626D01*
X18395581Y-58203840D01*
X18828743Y-58290001D01*
X19121255Y-58290001D01*
X19554417Y-58203840D01*
X20045624Y-57875626D01*
X20263723Y-57549218D01*
X20324283Y-57678930D01*
X20749359Y-58068073D01*
X21163262Y-58239508D01*
X21391999Y-58119509D01*
X21391999Y-56928001D01*
X21371999Y-56928001D01*
X21371999Y-56682001D01*
X21391999Y-56682001D01*
X21391999Y-56662001D01*
X21637999Y-56662001D01*
X21637999Y-56682001D01*
X21657999Y-56682001D01*
X21657999Y-56928001D01*
X21637999Y-56928001D01*
X21637999Y-58119509D01*
X21866736Y-58239508D01*
X22280639Y-58068073D01*
X22705715Y-57678930D01*
X22766275Y-57549218D01*
X22984374Y-57875626D01*
X23475581Y-58203840D01*
X23908743Y-58290001D01*
X24201255Y-58290001D01*
X24634417Y-58203840D01*
X25125624Y-57875626D01*
X25324999Y-57577240D01*
X25524374Y-57875626D01*
X26015581Y-58203840D01*
X26448743Y-58290001D01*
X26741255Y-58290001D01*
X27174417Y-58203840D01*
X27665624Y-57875626D01*
X27864999Y-57577240D01*
X28064374Y-57875626D01*
X28555581Y-58203840D01*
X28988743Y-58290001D01*
X29281255Y-58290001D01*
X29714417Y-58203840D01*
X30205624Y-57875626D01*
X30404999Y-57577240D01*
X30604374Y-57875626D01*
X31095581Y-58203840D01*
X31528743Y-58290001D01*
X31821255Y-58290001D01*
X32254417Y-58203840D01*
X32745624Y-57875626D01*
X32963723Y-57549218D01*
X33024283Y-57678930D01*
X33449359Y-58068073D01*
X33863262Y-58239508D01*
X34091999Y-58119509D01*
X34091999Y-56928001D01*
X34071999Y-56928001D01*
X34071999Y-56682001D01*
X34091999Y-56682001D01*
X34091999Y-56662001D01*
X34337999Y-56662001D01*
X34337999Y-56682001D01*
X34357999Y-56682001D01*
X34357999Y-56928001D01*
X34337999Y-56928001D01*
X34337999Y-58119509D01*
X34566736Y-58239508D01*
X34980639Y-58068073D01*
X35405715Y-57678930D01*
X35466275Y-57549218D01*
X35684374Y-57875626D01*
X36175581Y-58203840D01*
X36608743Y-58290001D01*
X36901255Y-58290001D01*
X37334417Y-58203840D01*
X37825624Y-57875626D01*
X38024999Y-57577240D01*
X38224374Y-57875626D01*
X38715581Y-58203840D01*
X39148743Y-58290001D01*
X39441255Y-58290001D01*
X39874417Y-58203840D01*
X40365624Y-57875626D01*
X40583723Y-57549218D01*
X40644283Y-57678930D01*
X41069359Y-58068073D01*
X41483262Y-58239508D01*
X41711999Y-58119509D01*
X41711999Y-56928001D01*
X41691999Y-56928001D01*
X41691999Y-56682001D01*
X41711999Y-56682001D01*
X41711999Y-56662001D01*
X41957999Y-56662001D01*
X41957999Y-56682001D01*
X41977999Y-56682001D01*
X41977999Y-56928001D01*
X41957999Y-56928001D01*
X41957999Y-58119509D01*
X42186736Y-58239508D01*
X42600639Y-58068073D01*
X43025715Y-57678930D01*
X43086275Y-57549218D01*
X43304374Y-57875626D01*
X43795581Y-58203840D01*
X44228743Y-58290001D01*
X44521255Y-58290001D01*
X44954417Y-58203840D01*
X45445624Y-57875626D01*
X45644999Y-57577240D01*
X45844374Y-57875626D01*
X46335581Y-58203840D01*
X46768743Y-58290001D01*
X47061255Y-58290001D01*
X47494417Y-58203840D01*
X47985624Y-57875626D01*
X48184999Y-57577240D01*
X48384374Y-57875626D01*
X48875581Y-58203840D01*
X49308743Y-58290001D01*
X49601255Y-58290001D01*
X50034417Y-58203840D01*
X50525624Y-57875626D01*
X50743723Y-57549218D01*
X50804283Y-57678930D01*
X51229359Y-58068073D01*
X51643262Y-58239508D01*
X51871999Y-58119509D01*
X51871999Y-56928001D01*
X51851999Y-56928001D01*
X51851999Y-56682001D01*
X51871999Y-56682001D01*
X51871999Y-56662001D01*
X52117999Y-56662001D01*
X52117999Y-56682001D01*
X52137999Y-56682001D01*
X52137999Y-56928001D01*
X52117999Y-56928001D01*
X52117999Y-58119509D01*
X52346736Y-58239508D01*
X52760639Y-58068073D01*
X53185715Y-57678930D01*
X53246275Y-57549218D01*
X53464374Y-57875626D01*
X53955581Y-58203840D01*
X54388743Y-58290001D01*
X54681255Y-58290001D01*
X55114417Y-58203840D01*
X55605624Y-57875626D01*
X55804999Y-57577240D01*
X56004374Y-57875626D01*
X56495581Y-58203840D01*
X56928743Y-58290001D01*
X57221255Y-58290001D01*
X57654417Y-58203840D01*
X57899619Y-58040001D01*
X59073367Y-58040001D01*
X59194999Y-58064195D01*
X59316631Y-58040001D01*
X59316635Y-58040001D01*
X59676872Y-57968345D01*
X60085384Y-57695386D01*
X60154285Y-57592268D01*
X60787269Y-56959285D01*
X60890385Y-56890385D01*
X61163344Y-56481873D01*
X61235000Y-56121636D01*
X61235000Y-56121632D01*
X61248168Y-56055431D01*
X61765000Y-56055431D01*
X61765000Y-56944569D01*
X62105259Y-57766026D01*
X62733974Y-58394741D01*
X63555431Y-58735000D01*
X64444569Y-58735000D01*
X65266026Y-58394741D01*
X65894741Y-57766026D01*
X66235000Y-56944569D01*
X66235000Y-56055431D01*
X65894741Y-55233974D01*
X65266026Y-54605259D01*
X64444569Y-54265000D01*
X63555431Y-54265000D01*
X62733974Y-54605259D01*
X62105259Y-55233974D01*
X61765000Y-56055431D01*
X61248168Y-56055431D01*
X61259194Y-56000001D01*
X61235000Y-55878370D01*
X61235000Y-54811553D01*
X65087270Y-50959284D01*
X65190385Y-50890385D01*
X65266147Y-50777000D01*
X65330182Y-50681164D01*
X65463344Y-50481873D01*
X65535000Y-50121636D01*
X65535000Y-50121632D01*
X65559194Y-50000001D01*
X65535000Y-49878370D01*
X65535000Y-33121630D01*
X65559194Y-32999999D01*
X65535000Y-32878368D01*
X65535000Y-32878364D01*
X65463344Y-32518127D01*
X65190385Y-32109615D01*
X65087266Y-32040713D01*
X64559287Y-31512734D01*
X64490385Y-31409615D01*
X64081873Y-31136656D01*
X63721636Y-31065000D01*
X63721632Y-31065000D01*
X63600000Y-31040806D01*
X63478368Y-31065000D01*
X62906459Y-31065000D01*
X62857809Y-30992191D01*
X62647765Y-30851843D01*
X62400000Y-30802560D01*
X60700000Y-30802560D01*
X60452235Y-30851843D01*
X60242191Y-30992191D01*
X60193541Y-31065000D01*
X59621632Y-31065000D01*
X59500000Y-31040806D01*
X59378368Y-31065000D01*
X59378364Y-31065000D01*
X59018127Y-31136656D01*
X58609615Y-31409615D01*
X58540713Y-31512734D01*
X58512732Y-31540715D01*
X58409616Y-31609615D01*
X58397440Y-31627838D01*
X58397440Y-31460000D01*
X58348157Y-31212235D01*
X58207809Y-31002191D01*
X57997765Y-30861843D01*
X57750000Y-30812560D01*
X56050000Y-30812560D01*
X55802235Y-30861843D01*
X55592191Y-31002191D01*
X55451843Y-31212235D01*
X55402560Y-31460000D01*
X55402560Y-33160000D01*
X55451843Y-33407765D01*
X55592191Y-33617809D01*
X55802235Y-33758157D01*
X55847619Y-33767184D01*
X55829375Y-33779375D01*
X55501161Y-34270582D01*
X55385908Y-34850000D01*
X55501161Y-35429418D01*
X55829375Y-35920625D01*
X56127761Y-36120000D01*
X55829375Y-36319375D01*
X55501161Y-36810582D01*
X55478744Y-36923282D01*
X55337026Y-37065000D01*
X50902367Y-37065000D01*
X51279440Y-36570202D01*
X51477000Y-35823000D01*
X51477000Y-35523000D01*
X49623000Y-35523000D01*
X49623000Y-35543000D01*
X49377000Y-35543000D01*
X49377000Y-35523000D01*
X47523000Y-35523000D01*
X47523000Y-35823000D01*
X47720560Y-36570202D01*
X48097633Y-37065000D01*
X47335000Y-37065000D01*
X47335000Y-34977000D01*
X47523000Y-34977000D01*
X47523000Y-35277000D01*
X49377000Y-35277000D01*
X49377000Y-33283911D01*
X49623000Y-33283911D01*
X49623000Y-35277000D01*
X51477000Y-35277000D01*
X51477000Y-34977000D01*
X51279440Y-34229798D01*
X50810976Y-33615076D01*
X50142928Y-33226420D01*
X49930157Y-33170364D01*
X49623000Y-33283911D01*
X49377000Y-33283911D01*
X49069843Y-33170364D01*
X48857072Y-33226420D01*
X48189024Y-33615076D01*
X47720560Y-34229798D01*
X47523000Y-34977000D01*
X47335000Y-34977000D01*
X47335000Y-33300000D01*
X47286664Y-33056996D01*
X47149013Y-32850987D01*
X46998026Y-32700000D01*
X47849013Y-31849013D01*
X47986664Y-31643004D01*
X48007352Y-31538998D01*
X48068896Y-31631105D01*
X48725493Y-32069829D01*
X49500000Y-32223888D01*
X50274508Y-32069829D01*
X50931105Y-31631105D01*
X51369829Y-30974508D01*
X51485000Y-30395502D01*
X51485000Y-29404497D01*
X51369829Y-28825492D01*
X50931105Y-28168895D01*
X50274507Y-27730171D01*
X49500000Y-27576112D01*
X48725492Y-27730171D01*
X48068895Y-28168895D01*
X48035000Y-28219623D01*
X48035000Y-27127000D01*
X66290001Y-27127000D01*
X66290000Y-58790000D01*
X710000Y-58790000D01*
X710000Y-55125431D01*
X1685000Y-55125431D01*
X1685000Y-56014569D01*
X2025259Y-56836026D01*
X2653974Y-57464741D01*
X3475431Y-57805000D01*
X4364569Y-57805000D01*
X5186026Y-57464741D01*
X5814741Y-56836026D01*
X6155000Y-56014569D01*
X6155000Y-55125431D01*
X5814741Y-54303974D01*
X5424030Y-53913263D01*
X7380483Y-53913263D01*
X7499870Y-54142001D01*
X8691999Y-54142001D01*
X8691999Y-52950493D01*
X8463262Y-52830494D01*
X8049359Y-53001929D01*
X7624283Y-53391072D01*
X7380483Y-53913263D01*
X5424030Y-53913263D01*
X5186026Y-53675259D01*
X4364569Y-53335000D01*
X3475431Y-53335000D01*
X2653974Y-53675259D01*
X2025259Y-54303974D01*
X1685000Y-55125431D01*
X710000Y-55125431D01*
X710000Y-51014561D01*
X26265000Y-51014561D01*
X26265000Y-51585439D01*
X26483466Y-52112862D01*
X26887138Y-52516534D01*
X27414561Y-52735000D01*
X27985439Y-52735000D01*
X28512862Y-52516534D01*
X28916534Y-52112862D01*
X29135000Y-51585439D01*
X29135000Y-51014561D01*
X28969315Y-50614561D01*
X29165000Y-50614561D01*
X29165000Y-51185439D01*
X29383466Y-51712862D01*
X29787138Y-52116534D01*
X30314561Y-52335000D01*
X30885439Y-52335000D01*
X31412862Y-52116534D01*
X31816534Y-51712862D01*
X32010790Y-51243887D01*
X36835056Y-51243887D01*
X36997524Y-51636144D01*
X37372290Y-52047930D01*
X37876112Y-52284954D01*
X38097000Y-52164949D01*
X38097000Y-51023000D01*
X36955719Y-51023000D01*
X36835056Y-51243887D01*
X32010790Y-51243887D01*
X32035000Y-51185439D01*
X32035000Y-50614561D01*
X32010791Y-50556113D01*
X36835056Y-50556113D01*
X36955719Y-50777000D01*
X38097000Y-50777000D01*
X38097000Y-49635051D01*
X38343000Y-49635051D01*
X38343000Y-50777000D01*
X38363000Y-50777000D01*
X38363000Y-51023000D01*
X38343000Y-51023000D01*
X38343000Y-52164949D01*
X38563888Y-52284954D01*
X39067710Y-52047930D01*
X39201598Y-51900816D01*
X39573133Y-51900816D01*
X39647368Y-52145169D01*
X40181164Y-52338406D01*
X40748276Y-52312659D01*
X41152632Y-52145169D01*
X41226867Y-51900816D01*
X40400000Y-51073948D01*
X39573133Y-51900816D01*
X39201598Y-51900816D01*
X39368416Y-51717520D01*
X39399184Y-51726867D01*
X40226052Y-50900000D01*
X40573948Y-50900000D01*
X41400816Y-51726867D01*
X41645169Y-51652632D01*
X41838406Y-51118836D01*
X41812659Y-50551724D01*
X41645169Y-50147368D01*
X41400816Y-50073133D01*
X40573948Y-50900000D01*
X40226052Y-50900000D01*
X39399184Y-50073133D01*
X39368416Y-50082480D01*
X39201599Y-49899184D01*
X39573133Y-49899184D01*
X40400000Y-50726052D01*
X41226867Y-49899184D01*
X41152632Y-49654831D01*
X40618836Y-49461594D01*
X40051724Y-49487341D01*
X39647368Y-49654831D01*
X39573133Y-49899184D01*
X39201599Y-49899184D01*
X39067710Y-49752070D01*
X38563888Y-49515046D01*
X38343000Y-49635051D01*
X38097000Y-49635051D01*
X37876112Y-49515046D01*
X37372290Y-49752070D01*
X36997524Y-50163856D01*
X36835056Y-50556113D01*
X32010791Y-50556113D01*
X31816534Y-50087138D01*
X31412862Y-49683466D01*
X30885439Y-49465000D01*
X30314561Y-49465000D01*
X29787138Y-49683466D01*
X29383466Y-50087138D01*
X29165000Y-50614561D01*
X28969315Y-50614561D01*
X28916534Y-50487138D01*
X28512862Y-50083466D01*
X27985439Y-49865000D01*
X27414561Y-49865000D01*
X26887138Y-50083466D01*
X26483466Y-50487138D01*
X26265000Y-51014561D01*
X710000Y-51014561D01*
X710000Y-46244398D01*
X29775000Y-46244398D01*
X29775000Y-46755602D01*
X29970629Y-47227894D01*
X30332106Y-47589371D01*
X30804398Y-47785000D01*
X31045000Y-47785000D01*
X31045000Y-48025602D01*
X31240629Y-48497894D01*
X31602106Y-48859371D01*
X32074398Y-49055000D01*
X32585602Y-49055000D01*
X33057894Y-48859371D01*
X33419371Y-48497894D01*
X33615000Y-48025602D01*
X33615000Y-47797440D01*
X34250000Y-47797440D01*
X34497765Y-47748157D01*
X34548044Y-47714561D01*
X43065000Y-47714561D01*
X43065000Y-48285439D01*
X43283466Y-48812862D01*
X43687138Y-49216534D01*
X44214561Y-49435000D01*
X44785439Y-49435000D01*
X45312862Y-49216534D01*
X45716534Y-48812862D01*
X45935000Y-48285439D01*
X45935000Y-47714561D01*
X45716534Y-47187138D01*
X45312862Y-46783466D01*
X44785439Y-46565000D01*
X44214561Y-46565000D01*
X43687138Y-46783466D01*
X43283466Y-47187138D01*
X43065000Y-47714561D01*
X34548044Y-47714561D01*
X34707809Y-47607809D01*
X34848157Y-47397765D01*
X34897440Y-47150000D01*
X34897440Y-45879750D01*
X39423000Y-45879750D01*
X39423000Y-46574718D01*
X39518455Y-46805167D01*
X39694833Y-46981545D01*
X39925282Y-47077000D01*
X40620250Y-47077000D01*
X40777000Y-46920250D01*
X40777000Y-45723000D01*
X41023000Y-45723000D01*
X41023000Y-46920250D01*
X41179750Y-47077000D01*
X41874718Y-47077000D01*
X42105167Y-46981545D01*
X42281545Y-46805167D01*
X42377000Y-46574718D01*
X42377000Y-45879750D01*
X42220250Y-45723000D01*
X41023000Y-45723000D01*
X40777000Y-45723000D01*
X39579750Y-45723000D01*
X39423000Y-45879750D01*
X34897440Y-45879750D01*
X34897440Y-45850000D01*
X34848157Y-45602235D01*
X34707809Y-45392191D01*
X34497765Y-45251843D01*
X34250000Y-45202560D01*
X32950000Y-45202560D01*
X32702235Y-45251843D01*
X32492191Y-45392191D01*
X32351843Y-45602235D01*
X32302560Y-45850000D01*
X32302560Y-46141938D01*
X32149371Y-45772106D01*
X31787894Y-45410629D01*
X31315602Y-45215000D01*
X30804398Y-45215000D01*
X30332106Y-45410629D01*
X29970629Y-45772106D01*
X29775000Y-46244398D01*
X710000Y-46244398D01*
X710000Y-43680000D01*
X26236887Y-43680000D01*
X26348260Y-44239909D01*
X26665423Y-44714577D01*
X27140091Y-45031740D01*
X27558667Y-45115000D01*
X27841333Y-45115000D01*
X28259909Y-45031740D01*
X28734577Y-44714577D01*
X29051740Y-44239909D01*
X29163113Y-43680000D01*
X29051740Y-43120091D01*
X28734577Y-42645423D01*
X28367276Y-42400000D01*
X29845908Y-42400000D01*
X29961161Y-42979418D01*
X30289375Y-43470625D01*
X30780582Y-43798839D01*
X31213744Y-43885000D01*
X31506256Y-43885000D01*
X31939418Y-43798839D01*
X32430625Y-43470625D01*
X32630000Y-43172239D01*
X32829375Y-43470625D01*
X33320582Y-43798839D01*
X33753744Y-43885000D01*
X34046256Y-43885000D01*
X34479418Y-43798839D01*
X34970625Y-43470625D01*
X34982816Y-43452381D01*
X34991843Y-43497765D01*
X35132191Y-43707809D01*
X35342235Y-43848157D01*
X35590000Y-43897440D01*
X37290000Y-43897440D01*
X37537765Y-43848157D01*
X37747809Y-43707809D01*
X37888157Y-43497765D01*
X37937440Y-43250000D01*
X37937440Y-43060000D01*
X39385908Y-43060000D01*
X39501161Y-43639418D01*
X39829375Y-44130625D01*
X39859032Y-44150441D01*
X39694833Y-44218455D01*
X39518455Y-44394833D01*
X39423000Y-44625282D01*
X39423000Y-45320250D01*
X39579750Y-45477000D01*
X40777000Y-45477000D01*
X40777000Y-45457000D01*
X41023000Y-45457000D01*
X41023000Y-45477000D01*
X42220250Y-45477000D01*
X42377000Y-45320250D01*
X42377000Y-44625282D01*
X42281545Y-44394833D01*
X42105167Y-44218455D01*
X41940968Y-44150441D01*
X41970625Y-44130625D01*
X42298839Y-43639418D01*
X42414092Y-43060000D01*
X42364710Y-42811737D01*
X60115493Y-42811737D01*
X60286928Y-43225640D01*
X60676071Y-43650716D01*
X61198262Y-43894516D01*
X61427000Y-43775129D01*
X61427000Y-42583000D01*
X61673000Y-42583000D01*
X61673000Y-43775129D01*
X61901738Y-43894516D01*
X62423929Y-43650716D01*
X62813072Y-43225640D01*
X62984507Y-42811737D01*
X62864508Y-42583000D01*
X61673000Y-42583000D01*
X61427000Y-42583000D01*
X60235492Y-42583000D01*
X60115493Y-42811737D01*
X42364710Y-42811737D01*
X42298839Y-42480582D01*
X41970625Y-41989375D01*
X41479418Y-41661161D01*
X41046256Y-41575000D01*
X40753744Y-41575000D01*
X40320582Y-41661161D01*
X39829375Y-41989375D01*
X39501161Y-42480582D01*
X39385908Y-43060000D01*
X37937440Y-43060000D01*
X37937440Y-41550000D01*
X37888157Y-41302235D01*
X37747809Y-41092191D01*
X37537765Y-40951843D01*
X37290000Y-40902560D01*
X35590000Y-40902560D01*
X35342235Y-40951843D01*
X35132191Y-41092191D01*
X34991843Y-41302235D01*
X34982816Y-41347619D01*
X34970625Y-41329375D01*
X34479418Y-41001161D01*
X34046256Y-40915000D01*
X33753744Y-40915000D01*
X33320582Y-41001161D01*
X32829375Y-41329375D01*
X32630000Y-41627761D01*
X32430625Y-41329375D01*
X31939418Y-41001161D01*
X31506256Y-40915000D01*
X31213744Y-40915000D01*
X30780582Y-41001161D01*
X30289375Y-41329375D01*
X29961161Y-41820582D01*
X29845908Y-42400000D01*
X28367276Y-42400000D01*
X28259909Y-42328260D01*
X27841333Y-42245000D01*
X27558667Y-42245000D01*
X27140091Y-42328260D01*
X26665423Y-42645423D01*
X26348260Y-43120091D01*
X26236887Y-43680000D01*
X710000Y-43680000D01*
X710000Y-13127000D01*
X1565001Y-13127000D01*
X1565000Y-27866033D01*
X1370874Y-28156565D01*
X1302560Y-28500001D01*
X1302560Y-31299999D01*
X1365001Y-31613908D01*
X1365000Y-34653130D01*
X1315000Y-34904498D01*
X1315000Y-35895503D01*
X1430171Y-36474508D01*
X1868896Y-37131105D01*
X2525493Y-37569829D01*
X3300000Y-37723888D01*
X4074508Y-37569829D01*
X4425955Y-37335000D01*
X6374046Y-37335000D01*
X6725493Y-37569829D01*
X7500000Y-37723888D01*
X8274508Y-37569829D01*
X8931105Y-37131105D01*
X9369829Y-36474508D01*
X9485000Y-35895502D01*
X9485000Y-35523000D01*
X9723000Y-35523000D01*
X9723000Y-35823000D01*
X9920560Y-36570202D01*
X10389024Y-37184924D01*
X11057072Y-37573580D01*
X11269843Y-37629636D01*
X11577000Y-37516089D01*
X11577000Y-35523000D01*
X11823000Y-35523000D01*
X11823000Y-37516089D01*
X12130157Y-37629636D01*
X12342928Y-37573580D01*
X13010976Y-37184924D01*
X13479440Y-36570202D01*
X13677000Y-35823000D01*
X13677000Y-35523000D01*
X11823000Y-35523000D01*
X11577000Y-35523000D01*
X9723000Y-35523000D01*
X9485000Y-35523000D01*
X9485000Y-34977000D01*
X9723000Y-34977000D01*
X9723000Y-35277000D01*
X11577000Y-35277000D01*
X11577000Y-33283911D01*
X11823000Y-33283911D01*
X11823000Y-35277000D01*
X13677000Y-35277000D01*
X13677000Y-34977000D01*
X13479440Y-34229798D01*
X13010976Y-33615076D01*
X12342928Y-33226420D01*
X12130157Y-33170364D01*
X11823000Y-33283911D01*
X11577000Y-33283911D01*
X11269843Y-33170364D01*
X11057072Y-33226420D01*
X10389024Y-33615076D01*
X9920560Y-34229798D01*
X9723000Y-34977000D01*
X9485000Y-34977000D01*
X9485000Y-34904497D01*
X9435000Y-34653129D01*
X9435000Y-30646870D01*
X9485000Y-30395502D01*
X9485000Y-30023000D01*
X9723000Y-30023000D01*
X9723000Y-30323000D01*
X9920560Y-31070202D01*
X10389024Y-31684924D01*
X11057072Y-32073580D01*
X11269843Y-32129636D01*
X11577000Y-32016089D01*
X11577000Y-30023000D01*
X9723000Y-30023000D01*
X9485000Y-30023000D01*
X9485000Y-29477000D01*
X9723000Y-29477000D01*
X9723000Y-29777000D01*
X11577000Y-29777000D01*
X11577000Y-27783911D01*
X11269843Y-27670364D01*
X11057072Y-27726420D01*
X10389024Y-28115076D01*
X9920560Y-28729798D01*
X9723000Y-29477000D01*
X9485000Y-29477000D01*
X9485000Y-29404497D01*
X9369829Y-28825492D01*
X8931105Y-28168895D01*
X8274507Y-27730171D01*
X7500000Y-27576112D01*
X6725492Y-27730171D01*
X6374045Y-27965000D01*
X5101127Y-27965000D01*
X5035000Y-27866034D01*
X5035000Y-26376956D01*
X7956993Y-26376956D01*
X8116848Y-26693964D01*
X8904150Y-27004069D01*
X9750194Y-26989282D01*
X10463152Y-26693964D01*
X10623007Y-26376956D01*
X9290000Y-25043948D01*
X7956993Y-26376956D01*
X5035000Y-26376956D01*
X5035000Y-24484150D01*
X7155931Y-24484150D01*
X7170718Y-25330194D01*
X7466036Y-26043152D01*
X7783044Y-26203007D01*
X9116052Y-24870000D01*
X9463948Y-24870000D01*
X10796956Y-26203007D01*
X11113964Y-26043152D01*
X11424069Y-25255850D01*
X11409282Y-24409806D01*
X11113964Y-23696848D01*
X10796956Y-23536993D01*
X9463948Y-24870000D01*
X9116052Y-24870000D01*
X7783044Y-23536993D01*
X7466036Y-23696848D01*
X7155931Y-24484150D01*
X5035000Y-24484150D01*
X5035000Y-23363044D01*
X7956993Y-23363044D01*
X9290000Y-24696052D01*
X10623007Y-23363044D01*
X10463152Y-23046036D01*
X9748631Y-22764598D01*
X11209351Y-22764598D01*
X11277445Y-23003772D01*
X11793110Y-23188650D01*
X12340273Y-23162118D01*
X12722555Y-23003772D01*
X12790649Y-22764598D01*
X12000000Y-21973948D01*
X11209351Y-22764598D01*
X9748631Y-22764598D01*
X9675850Y-22735931D01*
X8829806Y-22750718D01*
X8116848Y-23046036D01*
X7956993Y-23363044D01*
X5035000Y-23363044D01*
X5035000Y-21593110D01*
X10611350Y-21593110D01*
X10637882Y-22140273D01*
X10796228Y-22522555D01*
X11035402Y-22590649D01*
X11826052Y-21800000D01*
X12173948Y-21800000D01*
X12964598Y-22590649D01*
X13203772Y-22522555D01*
X13388650Y-22006890D01*
X13362118Y-21459727D01*
X13203772Y-21077445D01*
X12964598Y-21009351D01*
X12173948Y-21800000D01*
X11826052Y-21800000D01*
X11035402Y-21009351D01*
X10796228Y-21077445D01*
X10611350Y-21593110D01*
X5035000Y-21593110D01*
X5035000Y-14050000D01*
X10602560Y-14050000D01*
X10602560Y-15550000D01*
X10651843Y-15797765D01*
X10792191Y-16007809D01*
X11002235Y-16148157D01*
X11161480Y-16179833D01*
X10825853Y-16515460D01*
X10615000Y-17024506D01*
X10615000Y-17575494D01*
X10825853Y-18084540D01*
X11041313Y-18300000D01*
X10825853Y-18515460D01*
X10615000Y-19024506D01*
X10615000Y-19575494D01*
X10825853Y-20084540D01*
X11215460Y-20474147D01*
X11393818Y-20548025D01*
X11277445Y-20596228D01*
X11209351Y-20835402D01*
X12000000Y-21626052D01*
X12790649Y-20835402D01*
X12722555Y-20596228D01*
X12597796Y-20551499D01*
X12784540Y-20474147D01*
X13174147Y-20084540D01*
X13385000Y-19575494D01*
X13385000Y-19024506D01*
X13174147Y-18515460D01*
X12958687Y-18300000D01*
X13174147Y-18084540D01*
X13186204Y-18055431D01*
X16765000Y-18055431D01*
X16765000Y-18944569D01*
X17105259Y-19766026D01*
X17733974Y-20394741D01*
X18555431Y-20735000D01*
X19444569Y-20735000D01*
X20266026Y-20394741D01*
X20894741Y-19766026D01*
X21235000Y-18944569D01*
X21235000Y-18055431D01*
X20894741Y-17233974D01*
X20266026Y-16605259D01*
X19444569Y-16265000D01*
X18555431Y-16265000D01*
X17733974Y-16605259D01*
X17105259Y-17233974D01*
X16765000Y-18055431D01*
X13186204Y-18055431D01*
X13385000Y-17575494D01*
X13385000Y-17024506D01*
X13174147Y-16515460D01*
X12838520Y-16179833D01*
X12997765Y-16148157D01*
X13207809Y-16007809D01*
X13348157Y-15797765D01*
X13397440Y-15550000D01*
X13397440Y-14050000D01*
X13348157Y-13802235D01*
X13207809Y-13592191D01*
X12997765Y-13451843D01*
X12750000Y-13402560D01*
X11250000Y-13402560D01*
X11002235Y-13451843D01*
X10792191Y-13592191D01*
X10651843Y-13802235D01*
X10602560Y-14050000D01*
X5035000Y-14050000D01*
X5035000Y-13236956D01*
X7956993Y-13236956D01*
X8116848Y-13553964D01*
X8904150Y-13864069D01*
X9750194Y-13849282D01*
X10463152Y-13553964D01*
X10623007Y-13236956D01*
X9290000Y-11903948D01*
X7956993Y-13236956D01*
X5035000Y-13236956D01*
X5035000Y-13127000D01*
X7300000Y-13127000D01*
X7348601Y-13117333D01*
X7389803Y-13089803D01*
X7417333Y-13048601D01*
X7427000Y-13000000D01*
X7427000Y-12808911D01*
X7466036Y-12903152D01*
X7783044Y-13063007D01*
X9116052Y-11730000D01*
X7783044Y-10396993D01*
X7466036Y-10556848D01*
X7427000Y-10655954D01*
X7427000Y-9927000D01*
X8106277Y-9927000D01*
X7956993Y-10223044D01*
X7956993Y-10223044D01*
G37*
X7956993Y-10223044D02*
X9290000Y-11556052D01*
X10623007Y-10223044D01*
X10473723Y-9927000D01*
X11173000Y-9927000D01*
X11173000Y-10699373D01*
X11113964Y-10556848D01*
X10796956Y-10396993D01*
X9463948Y-11730000D01*
X10796956Y-13063007D01*
X11113964Y-12903152D01*
X11173000Y-12753270D01*
X11173000Y-13000000D01*
X11182667Y-13048601D01*
X11210197Y-13089803D01*
X11251399Y-13117333D01*
X11300000Y-13127000D01*
X18573341Y-13127000D01*
X22065000Y-16618660D01*
X22065001Y-24065000D01*
X14700000Y-24065000D01*
X14456996Y-24113336D01*
X14250987Y-24250987D01*
X13650987Y-24850987D01*
X13513336Y-25056996D01*
X13465000Y-25300000D01*
X13465000Y-28710850D01*
X13010976Y-28115076D01*
X12342928Y-27726420D01*
X12130157Y-27670364D01*
X11823000Y-27783911D01*
X11823000Y-29777000D01*
X11843000Y-29777000D01*
X11843000Y-30023000D01*
X11823000Y-30023000D01*
X11823000Y-32016089D01*
X12130157Y-32129636D01*
X12342928Y-32073580D01*
X13010976Y-31684924D01*
X13465000Y-31089150D01*
X13465000Y-32100000D01*
X13513336Y-32343004D01*
X13650987Y-32549013D01*
X14250987Y-33149013D01*
X14456996Y-33286664D01*
X14700000Y-33335000D01*
X14968604Y-33335000D01*
X14468895Y-33668895D01*
X14030171Y-34325493D01*
X13915000Y-34904498D01*
X13915000Y-35895503D01*
X14030171Y-36474508D01*
X14468896Y-37131105D01*
X15125493Y-37569829D01*
X15900000Y-37723888D01*
X16674508Y-37569829D01*
X17331105Y-37131105D01*
X17769829Y-36474508D01*
X17885000Y-35895502D01*
X17885000Y-35523000D01*
X18123000Y-35523000D01*
X18123000Y-35823000D01*
X18320560Y-36570202D01*
X18789024Y-37184924D01*
X19457072Y-37573580D01*
X19669843Y-37629636D01*
X19977000Y-37516089D01*
X19977000Y-35523000D01*
X20223000Y-35523000D01*
X20223000Y-37516089D01*
X20530157Y-37629636D01*
X20742928Y-37573580D01*
X21410976Y-37184924D01*
X21879440Y-36570202D01*
X22077000Y-35823000D01*
X22077000Y-35523000D01*
X22323000Y-35523000D01*
X22323000Y-35823000D01*
X22520560Y-36570202D01*
X22989024Y-37184924D01*
X23657072Y-37573580D01*
X23869843Y-37629636D01*
X24177000Y-37516089D01*
X24177000Y-35523000D01*
X24423000Y-35523000D01*
X24423000Y-37516089D01*
X24730157Y-37629636D01*
X24942928Y-37573580D01*
X25610976Y-37184924D01*
X26079440Y-36570202D01*
X26277000Y-35823000D01*
X26277000Y-35523000D01*
X26523000Y-35523000D01*
X26523000Y-35823000D01*
X26720560Y-36570202D01*
X27189024Y-37184924D01*
X27857072Y-37573580D01*
X28069843Y-37629636D01*
X28377000Y-37516089D01*
X28377000Y-35523000D01*
X26523000Y-35523000D01*
X26277000Y-35523000D01*
X24423000Y-35523000D01*
X24177000Y-35523000D01*
X22323000Y-35523000D01*
X22077000Y-35523000D01*
X20223000Y-35523000D01*
X19977000Y-35523000D01*
X18123000Y-35523000D01*
X17885000Y-35523000D01*
X17885000Y-34904497D01*
X17769829Y-34325492D01*
X17331105Y-33668895D01*
X16831395Y-33335000D01*
X19270437Y-33335000D01*
X18789024Y-33615076D01*
X18320560Y-34229798D01*
X18123000Y-34977000D01*
X18123000Y-35277000D01*
X19977000Y-35277000D01*
X19977000Y-35257000D01*
X20223000Y-35257000D01*
X20223000Y-35277000D01*
X22077000Y-35277000D01*
X22077000Y-34977000D01*
X21879440Y-34229798D01*
X21410976Y-33615076D01*
X20929563Y-33335000D01*
X23470437Y-33335000D01*
X22989024Y-33615076D01*
X22520560Y-34229798D01*
X22323000Y-34977000D01*
X22323000Y-35277000D01*
X24177000Y-35277000D01*
X24177000Y-35257000D01*
X24423000Y-35257000D01*
X24423000Y-35277000D01*
X26277000Y-35277000D01*
X26277000Y-34977000D01*
X26079440Y-34229798D01*
X25610976Y-33615076D01*
X25129563Y-33335000D01*
X27670437Y-33335000D01*
X27189024Y-33615076D01*
X26720560Y-34229798D01*
X26523000Y-34977000D01*
X26523000Y-35277000D01*
X28377000Y-35277000D01*
X28377000Y-35257000D01*
X28623000Y-35257000D01*
X28623000Y-35277000D01*
X28643000Y-35277000D01*
X28643000Y-35523000D01*
X28623000Y-35523000D01*
X28623000Y-37516089D01*
X28930157Y-37629636D01*
X29142928Y-37573580D01*
X29565000Y-37328028D01*
X29565000Y-37901935D01*
X29565001Y-37901939D01*
X29565001Y-37998062D01*
X29544724Y-38100000D01*
X29625052Y-38503836D01*
X29653354Y-38546193D01*
X29853808Y-38846193D01*
X29940225Y-38903935D01*
X30340224Y-39303934D01*
X30538172Y-39436198D01*
X30650987Y-39549013D01*
X30856996Y-39686664D01*
X31100000Y-39735000D01*
X43205116Y-39735000D01*
X43148260Y-39820091D01*
X43036887Y-40380000D01*
X43148260Y-40939909D01*
X43465423Y-41414577D01*
X43940091Y-41731740D01*
X44358667Y-41815000D01*
X44641333Y-41815000D01*
X45059909Y-41731740D01*
X45534577Y-41414577D01*
X45851740Y-40939909D01*
X45963113Y-40380000D01*
X45851740Y-39820091D01*
X45794884Y-39735000D01*
X55758519Y-39735000D01*
X55890000Y-39761153D01*
X56021481Y-39735000D01*
X56021485Y-39735000D01*
X56410891Y-39657542D01*
X56852481Y-39362481D01*
X56926962Y-39251012D01*
X57366718Y-38811256D01*
X57479418Y-38788839D01*
X57970625Y-38460625D01*
X58298839Y-37969418D01*
X58414092Y-37390000D01*
X58298839Y-36810582D01*
X57970625Y-36319375D01*
X57672239Y-36120000D01*
X57724620Y-36085000D01*
X57980449Y-36085000D01*
X58102081Y-36109194D01*
X58223713Y-36085000D01*
X58223717Y-36085000D01*
X58583954Y-36013344D01*
X58992466Y-35740385D01*
X59061367Y-35637267D01*
X60079925Y-34618710D01*
X60035908Y-34840000D01*
X60151161Y-35419418D01*
X60479375Y-35910625D01*
X60777761Y-36110000D01*
X60479375Y-36309375D01*
X60151161Y-36800582D01*
X60035908Y-37380000D01*
X60151161Y-37959418D01*
X60479375Y-38450625D01*
X60777761Y-38650000D01*
X60479375Y-38849375D01*
X60151161Y-39340582D01*
X60035908Y-39920000D01*
X60151161Y-40499418D01*
X60479375Y-40990625D01*
X60805783Y-41208724D01*
X60676071Y-41269284D01*
X60286928Y-41694360D01*
X60115493Y-42108263D01*
X60235492Y-42337000D01*
X61427000Y-42337000D01*
X61427000Y-42317000D01*
X61673000Y-42317000D01*
X61673000Y-42337000D01*
X62864508Y-42337000D01*
X62984507Y-42108263D01*
X62813072Y-41694360D01*
X62423929Y-41269284D01*
X62294217Y-41208724D01*
X62620625Y-40990625D01*
X62948839Y-40499418D01*
X63064092Y-39920000D01*
X62948839Y-39340582D01*
X62620625Y-38849375D01*
X62322239Y-38650000D01*
X62620625Y-38450625D01*
X62948839Y-37959418D01*
X63064092Y-37380000D01*
X62948839Y-36800582D01*
X62620625Y-36309375D01*
X62322239Y-36110000D01*
X62620625Y-35910625D01*
X62948839Y-35419418D01*
X63064092Y-34840000D01*
X62948839Y-34260582D01*
X62620625Y-33769375D01*
X62602381Y-33757184D01*
X62647765Y-33748157D01*
X62857809Y-33607809D01*
X62906459Y-33535000D01*
X63065001Y-33535000D01*
X63065000Y-49488446D01*
X59212732Y-53340715D01*
X59109616Y-53409615D01*
X59040716Y-53512731D01*
X59040714Y-53512733D01*
X58836656Y-53818128D01*
X58817733Y-53913263D01*
X58765000Y-54178364D01*
X58765000Y-54178368D01*
X58740806Y-54300000D01*
X58765000Y-54421632D01*
X58765000Y-55488446D01*
X58683446Y-55570001D01*
X58384685Y-55570001D01*
X58523156Y-55362766D01*
X58572439Y-55115001D01*
X58572439Y-53415001D01*
X58523156Y-53167236D01*
X58382808Y-52957192D01*
X58172764Y-52816844D01*
X57924999Y-52767561D01*
X56224999Y-52767561D01*
X55977234Y-52816844D01*
X55767190Y-52957192D01*
X55626842Y-53167236D01*
X55617815Y-53212620D01*
X55605624Y-53194376D01*
X55369999Y-53036936D01*
X55369999Y-52237236D01*
X55386357Y-52154999D01*
X55321551Y-51829199D01*
X55321551Y-51829198D01*
X55137000Y-51552998D01*
X55067282Y-51506414D01*
X54460868Y-50900000D01*
X56336887Y-50900000D01*
X56448260Y-51459909D01*
X56765423Y-51934577D01*
X57240091Y-52251740D01*
X57658667Y-52335000D01*
X57941333Y-52335000D01*
X58359909Y-52251740D01*
X58834577Y-51934577D01*
X59151740Y-51459909D01*
X59263113Y-50900000D01*
X59151740Y-50340091D01*
X58834577Y-49865423D01*
X58359909Y-49548260D01*
X57941333Y-49465000D01*
X57658667Y-49465000D01*
X57240091Y-49548260D01*
X56765423Y-49865423D01*
X56448260Y-50340091D01*
X56336887Y-50900000D01*
X54460868Y-50900000D01*
X51596285Y-48035418D01*
X51643113Y-47800000D01*
X51586336Y-47514561D01*
X56365000Y-47514561D01*
X56365000Y-48085439D01*
X56583466Y-48612862D01*
X56987138Y-49016534D01*
X57514561Y-49235000D01*
X58085439Y-49235000D01*
X58612862Y-49016534D01*
X59016534Y-48612862D01*
X59235000Y-48085439D01*
X59235000Y-47514561D01*
X59016534Y-46987138D01*
X58612862Y-46583466D01*
X58085439Y-46365000D01*
X57514561Y-46365000D01*
X56987138Y-46583466D01*
X56583466Y-46987138D01*
X56365000Y-47514561D01*
X51586336Y-47514561D01*
X51531740Y-47240091D01*
X51214577Y-46765423D01*
X50739909Y-46448260D01*
X50321333Y-46365000D01*
X50038667Y-46365000D01*
X49620091Y-46448260D01*
X49145423Y-46765423D01*
X48828260Y-47240091D01*
X48716887Y-47800000D01*
X48828260Y-48359909D01*
X49145423Y-48834577D01*
X49620091Y-49151740D01*
X50038667Y-49235000D01*
X50321333Y-49235000D01*
X50415418Y-49216285D01*
X50804631Y-49605498D01*
X50465439Y-49465000D01*
X49894561Y-49465000D01*
X49367138Y-49683466D01*
X49106890Y-49943714D01*
X49054577Y-49865423D01*
X48579909Y-49548260D01*
X48161333Y-49465000D01*
X47878667Y-49465000D01*
X47460091Y-49548260D01*
X46985423Y-49865423D01*
X46668260Y-50340091D01*
X46556887Y-50900000D01*
X46668260Y-51459909D01*
X46985423Y-51934577D01*
X47460091Y-52251740D01*
X47878667Y-52335000D01*
X48161333Y-52335000D01*
X48579909Y-52251740D01*
X49054577Y-51934577D01*
X49106890Y-51856286D01*
X49367138Y-52116534D01*
X49894561Y-52335000D01*
X50465439Y-52335000D01*
X50992862Y-52116534D01*
X51396534Y-51712862D01*
X51615000Y-51185439D01*
X51615000Y-50614561D01*
X51474502Y-50275370D01*
X53700000Y-52500868D01*
X53700000Y-53036936D01*
X53464374Y-53194376D01*
X53264999Y-53492762D01*
X53065624Y-53194376D01*
X52574417Y-52866162D01*
X52141255Y-52780001D01*
X51848743Y-52780001D01*
X51415581Y-52866162D01*
X50924374Y-53194376D01*
X50724999Y-53492762D01*
X50525624Y-53194376D01*
X50034417Y-52866162D01*
X49601255Y-52780001D01*
X49308743Y-52780001D01*
X48875581Y-52866162D01*
X48384374Y-53194376D01*
X48166275Y-53520784D01*
X48105715Y-53391072D01*
X47680639Y-53001929D01*
X47266736Y-52830494D01*
X47037999Y-52950493D01*
X47037999Y-54142001D01*
X47057999Y-54142001D01*
X47057999Y-54388001D01*
X47037999Y-54388001D01*
X47037999Y-54408001D01*
X46791999Y-54408001D01*
X46791999Y-54388001D01*
X46771999Y-54388001D01*
X46771999Y-54142001D01*
X46791999Y-54142001D01*
X46791999Y-52950493D01*
X46563262Y-52830494D01*
X46149359Y-53001929D01*
X45724283Y-53391072D01*
X45663723Y-53520784D01*
X45445624Y-53194376D01*
X44954417Y-52866162D01*
X44521255Y-52780001D01*
X44228743Y-52780001D01*
X43795581Y-52866162D01*
X43304374Y-53194376D01*
X43104999Y-53492762D01*
X42905624Y-53194376D01*
X42414417Y-52866162D01*
X41981255Y-52780001D01*
X41688743Y-52780001D01*
X41255581Y-52866162D01*
X40764374Y-53194376D01*
X40564999Y-53492762D01*
X40365624Y-53194376D01*
X39874417Y-52866162D01*
X39441255Y-52780001D01*
X39148743Y-52780001D01*
X38715581Y-52866162D01*
X38224374Y-53194376D01*
X38024999Y-53492762D01*
X37825624Y-53194376D01*
X37334417Y-52866162D01*
X36901255Y-52780001D01*
X36608743Y-52780001D01*
X36175581Y-52866162D01*
X35684374Y-53194376D01*
X35484999Y-53492762D01*
X35285624Y-53194376D01*
X34794417Y-52866162D01*
X34361255Y-52780001D01*
X34068743Y-52780001D01*
X33635581Y-52866162D01*
X33144374Y-53194376D01*
X32944999Y-53492762D01*
X32745624Y-53194376D01*
X32254417Y-52866162D01*
X31821255Y-52780001D01*
X31528743Y-52780001D01*
X31095581Y-52866162D01*
X30604374Y-53194376D01*
X30404999Y-53492762D01*
X30205624Y-53194376D01*
X29714417Y-52866162D01*
X29281255Y-52780001D01*
X28988743Y-52780001D01*
X28555581Y-52866162D01*
X28064374Y-53194376D01*
X27846275Y-53520784D01*
X27785715Y-53391072D01*
X27360639Y-53001929D01*
X26946736Y-52830494D01*
X26717999Y-52950493D01*
X26717999Y-54142001D01*
X26737999Y-54142001D01*
X26737999Y-54388001D01*
X26717999Y-54388001D01*
X26717999Y-54408001D01*
X26471999Y-54408001D01*
X26471999Y-54388001D01*
X26451999Y-54388001D01*
X26451999Y-54142001D01*
X26471999Y-54142001D01*
X26471999Y-52950493D01*
X26243262Y-52830494D01*
X25829359Y-53001929D01*
X25404283Y-53391072D01*
X25343723Y-53520784D01*
X25125624Y-53194376D01*
X24634417Y-52866162D01*
X24201255Y-52780001D01*
X23908743Y-52780001D01*
X23475581Y-52866162D01*
X22984374Y-53194376D01*
X22784999Y-53492762D01*
X22585624Y-53194376D01*
X22094417Y-52866162D01*
X21661255Y-52780001D01*
X21368743Y-52780001D01*
X20935581Y-52866162D01*
X20444374Y-53194376D01*
X20244999Y-53492762D01*
X20045624Y-53194376D01*
X19554417Y-52866162D01*
X19121255Y-52780001D01*
X18828743Y-52780001D01*
X18395581Y-52866162D01*
X17904374Y-53194376D01*
X17704999Y-53492762D01*
X17505624Y-53194376D01*
X17014417Y-52866162D01*
X16581255Y-52780001D01*
X16288743Y-52780001D01*
X15855581Y-52866162D01*
X15364374Y-53194376D01*
X15164999Y-53492762D01*
X14965624Y-53194376D01*
X14474417Y-52866162D01*
X14041255Y-52780001D01*
X13748743Y-52780001D01*
X13315581Y-52866162D01*
X12824374Y-53194376D01*
X12624999Y-53492762D01*
X12425624Y-53194376D01*
X11934417Y-52866162D01*
X11501255Y-52780001D01*
X11208743Y-52780001D01*
X10775581Y-52866162D01*
X10284374Y-53194376D01*
X10066275Y-53520784D01*
X10005715Y-53391072D01*
X9580639Y-53001929D01*
X9166736Y-52830494D01*
X8937999Y-52950493D01*
X8937999Y-54142001D01*
X8957999Y-54142001D01*
X8957999Y-54388001D01*
X8937999Y-54388001D01*
X8937999Y-54408001D01*
X8691999Y-54408001D01*
X8691999Y-54388001D01*
X7499870Y-54388001D01*
X7380483Y-54616739D01*
X7624283Y-55138930D01*
X8049359Y-55528073D01*
X8051686Y-55529037D01*
X7744374Y-55734376D01*
X7416160Y-56225583D01*
X7300907Y-56805001D01*
X7416160Y-57384419D01*
X7744374Y-57875626D01*
X8235581Y-58203840D01*
X8668743Y-58290001D01*
X8961255Y-58290001D01*
X9394417Y-58203840D01*
X9885624Y-57875626D01*
X10084999Y-57577240D01*
X10284374Y-57875626D01*
X10775581Y-58203840D01*
X11208743Y-58290001D01*
X11501255Y-58290001D01*
X11934417Y-58203840D01*
X12425624Y-57875626D01*
X12624999Y-57577240D01*
X12824374Y-57875626D01*
X13315581Y-58203840D01*
X13748743Y-58290001D01*
X14041255Y-58290001D01*
X14474417Y-58203840D01*
X14965624Y-57875626D01*
X15183723Y-57549218D01*
X15244283Y-57678930D01*
X15669359Y-58068073D01*
X16083262Y-58239508D01*
X16311999Y-58119509D01*
X16311999Y-56928001D01*
X16291999Y-56928001D01*
X16291999Y-56682001D01*
X16311999Y-56682001D01*
X16311999Y-56662001D01*
X16557999Y-56662001D01*
X16557999Y-56682001D01*
X16577999Y-56682001D01*
X16577999Y-56928001D01*
X16557999Y-56928001D01*
X16557999Y-58119509D01*
X16786736Y-58239508D01*
X17200639Y-58068073D01*
X17625715Y-57678930D01*
X17686275Y-57549218D01*
X17904374Y-57875626D01*
X18395581Y-58203840D01*
X18828743Y-58290001D01*
X19121255Y-58290001D01*
X19554417Y-58203840D01*
X20045624Y-57875626D01*
X20263723Y-57549218D01*
X20324283Y-57678930D01*
X20749359Y-58068073D01*
X21163262Y-58239508D01*
X21391999Y-58119509D01*
X21391999Y-56928001D01*
X21371999Y-56928001D01*
X21371999Y-56682001D01*
X21391999Y-56682001D01*
X21391999Y-56662001D01*
X21637999Y-56662001D01*
X21637999Y-56682001D01*
X21657999Y-56682001D01*
X21657999Y-56928001D01*
X21637999Y-56928001D01*
X21637999Y-58119509D01*
X21866736Y-58239508D01*
X22280639Y-58068073D01*
X22705715Y-57678930D01*
X22766275Y-57549218D01*
X22984374Y-57875626D01*
X23475581Y-58203840D01*
X23908743Y-58290001D01*
X24201255Y-58290001D01*
X24634417Y-58203840D01*
X25125624Y-57875626D01*
X25324999Y-57577240D01*
X25524374Y-57875626D01*
X26015581Y-58203840D01*
X26448743Y-58290001D01*
X26741255Y-58290001D01*
X27174417Y-58203840D01*
X27665624Y-57875626D01*
X27864999Y-57577240D01*
X28064374Y-57875626D01*
X28555581Y-58203840D01*
X28988743Y-58290001D01*
X29281255Y-58290001D01*
X29714417Y-58203840D01*
X30205624Y-57875626D01*
X30404999Y-57577240D01*
X30604374Y-57875626D01*
X31095581Y-58203840D01*
X31528743Y-58290001D01*
X31821255Y-58290001D01*
X32254417Y-58203840D01*
X32745624Y-57875626D01*
X32963723Y-57549218D01*
X33024283Y-57678930D01*
X33449359Y-58068073D01*
X33863262Y-58239508D01*
X34091999Y-58119509D01*
X34091999Y-56928001D01*
X34071999Y-56928001D01*
X34071999Y-56682001D01*
X34091999Y-56682001D01*
X34091999Y-56662001D01*
X34337999Y-56662001D01*
X34337999Y-56682001D01*
X34357999Y-56682001D01*
X34357999Y-56928001D01*
X34337999Y-56928001D01*
X34337999Y-58119509D01*
X34566736Y-58239508D01*
X34980639Y-58068073D01*
X35405715Y-57678930D01*
X35466275Y-57549218D01*
X35684374Y-57875626D01*
X36175581Y-58203840D01*
X36608743Y-58290001D01*
X36901255Y-58290001D01*
X37334417Y-58203840D01*
X37825624Y-57875626D01*
X38024999Y-57577240D01*
X38224374Y-57875626D01*
X38715581Y-58203840D01*
X39148743Y-58290001D01*
X39441255Y-58290001D01*
X39874417Y-58203840D01*
X40365624Y-57875626D01*
X40583723Y-57549218D01*
X40644283Y-57678930D01*
X41069359Y-58068073D01*
X41483262Y-58239508D01*
X41711999Y-58119509D01*
X41711999Y-56928001D01*
X41691999Y-56928001D01*
X41691999Y-56682001D01*
X41711999Y-56682001D01*
X41711999Y-56662001D01*
X41957999Y-56662001D01*
X41957999Y-56682001D01*
X41977999Y-56682001D01*
X41977999Y-56928001D01*
X41957999Y-56928001D01*
X41957999Y-58119509D01*
X42186736Y-58239508D01*
X42600639Y-58068073D01*
X43025715Y-57678930D01*
X43086275Y-57549218D01*
X43304374Y-57875626D01*
X43795581Y-58203840D01*
X44228743Y-58290001D01*
X44521255Y-58290001D01*
X44954417Y-58203840D01*
X45445624Y-57875626D01*
X45644999Y-57577240D01*
X45844374Y-57875626D01*
X46335581Y-58203840D01*
X46768743Y-58290001D01*
X47061255Y-58290001D01*
X47494417Y-58203840D01*
X47985624Y-57875626D01*
X48184999Y-57577240D01*
X48384374Y-57875626D01*
X48875581Y-58203840D01*
X49308743Y-58290001D01*
X49601255Y-58290001D01*
X50034417Y-58203840D01*
X50525624Y-57875626D01*
X50743723Y-57549218D01*
X50804283Y-57678930D01*
X51229359Y-58068073D01*
X51643262Y-58239508D01*
X51871999Y-58119509D01*
X51871999Y-56928001D01*
X51851999Y-56928001D01*
X51851999Y-56682001D01*
X51871999Y-56682001D01*
X51871999Y-56662001D01*
X52117999Y-56662001D01*
X52117999Y-56682001D01*
X52137999Y-56682001D01*
X52137999Y-56928001D01*
X52117999Y-56928001D01*
X52117999Y-58119509D01*
X52346736Y-58239508D01*
X52760639Y-58068073D01*
X53185715Y-57678930D01*
X53246275Y-57549218D01*
X53464374Y-57875626D01*
X53955581Y-58203840D01*
X54388743Y-58290001D01*
X54681255Y-58290001D01*
X55114417Y-58203840D01*
X55605624Y-57875626D01*
X55804999Y-57577240D01*
X56004374Y-57875626D01*
X56495581Y-58203840D01*
X56928743Y-58290001D01*
X57221255Y-58290001D01*
X57654417Y-58203840D01*
X57899619Y-58040001D01*
X59073367Y-58040001D01*
X59194999Y-58064195D01*
X59316631Y-58040001D01*
X59316635Y-58040001D01*
X59676872Y-57968345D01*
X60085384Y-57695386D01*
X60154285Y-57592268D01*
X60787269Y-56959285D01*
X60890385Y-56890385D01*
X61163344Y-56481873D01*
X61235000Y-56121636D01*
X61235000Y-56121632D01*
X61248168Y-56055431D01*
X61765000Y-56055431D01*
X61765000Y-56944569D01*
X62105259Y-57766026D01*
X62733974Y-58394741D01*
X63555431Y-58735000D01*
X64444569Y-58735000D01*
X65266026Y-58394741D01*
X65894741Y-57766026D01*
X66235000Y-56944569D01*
X66235000Y-56055431D01*
X65894741Y-55233974D01*
X65266026Y-54605259D01*
X64444569Y-54265000D01*
X63555431Y-54265000D01*
X62733974Y-54605259D01*
X62105259Y-55233974D01*
X61765000Y-56055431D01*
X61248168Y-56055431D01*
X61259194Y-56000001D01*
X61235000Y-55878370D01*
X61235000Y-54811553D01*
X65087270Y-50959284D01*
X65190385Y-50890385D01*
X65266147Y-50777000D01*
X65330182Y-50681164D01*
X65463344Y-50481873D01*
X65535000Y-50121636D01*
X65535000Y-50121632D01*
X65559194Y-50000001D01*
X65535000Y-49878370D01*
X65535000Y-33121630D01*
X65559194Y-32999999D01*
X65535000Y-32878368D01*
X65535000Y-32878364D01*
X65463344Y-32518127D01*
X65190385Y-32109615D01*
X65087266Y-32040713D01*
X64559287Y-31512734D01*
X64490385Y-31409615D01*
X64081873Y-31136656D01*
X63721636Y-31065000D01*
X63721632Y-31065000D01*
X63600000Y-31040806D01*
X63478368Y-31065000D01*
X62906459Y-31065000D01*
X62857809Y-30992191D01*
X62647765Y-30851843D01*
X62400000Y-30802560D01*
X60700000Y-30802560D01*
X60452235Y-30851843D01*
X60242191Y-30992191D01*
X60193541Y-31065000D01*
X59621632Y-31065000D01*
X59500000Y-31040806D01*
X59378368Y-31065000D01*
X59378364Y-31065000D01*
X59018127Y-31136656D01*
X58609615Y-31409615D01*
X58540713Y-31512734D01*
X58512732Y-31540715D01*
X58409616Y-31609615D01*
X58397440Y-31627838D01*
X58397440Y-31460000D01*
X58348157Y-31212235D01*
X58207809Y-31002191D01*
X57997765Y-30861843D01*
X57750000Y-30812560D01*
X56050000Y-30812560D01*
X55802235Y-30861843D01*
X55592191Y-31002191D01*
X55451843Y-31212235D01*
X55402560Y-31460000D01*
X55402560Y-33160000D01*
X55451843Y-33407765D01*
X55592191Y-33617809D01*
X55802235Y-33758157D01*
X55847619Y-33767184D01*
X55829375Y-33779375D01*
X55501161Y-34270582D01*
X55385908Y-34850000D01*
X55501161Y-35429418D01*
X55829375Y-35920625D01*
X56127761Y-36120000D01*
X55829375Y-36319375D01*
X55501161Y-36810582D01*
X55478744Y-36923282D01*
X55337026Y-37065000D01*
X50902367Y-37065000D01*
X51279440Y-36570202D01*
X51477000Y-35823000D01*
X51477000Y-35523000D01*
X49623000Y-35523000D01*
X49623000Y-35543000D01*
X49377000Y-35543000D01*
X49377000Y-35523000D01*
X47523000Y-35523000D01*
X47523000Y-35823000D01*
X47720560Y-36570202D01*
X48097633Y-37065000D01*
X47335000Y-37065000D01*
X47335000Y-34977000D01*
X47523000Y-34977000D01*
X47523000Y-35277000D01*
X49377000Y-35277000D01*
X49377000Y-33283911D01*
X49623000Y-33283911D01*
X49623000Y-35277000D01*
X51477000Y-35277000D01*
X51477000Y-34977000D01*
X51279440Y-34229798D01*
X50810976Y-33615076D01*
X50142928Y-33226420D01*
X49930157Y-33170364D01*
X49623000Y-33283911D01*
X49377000Y-33283911D01*
X49069843Y-33170364D01*
X48857072Y-33226420D01*
X48189024Y-33615076D01*
X47720560Y-34229798D01*
X47523000Y-34977000D01*
X47335000Y-34977000D01*
X47335000Y-33300000D01*
X47286664Y-33056996D01*
X47149013Y-32850987D01*
X46998026Y-32700000D01*
X47849013Y-31849013D01*
X47986664Y-31643004D01*
X48007352Y-31538998D01*
X48068896Y-31631105D01*
X48725493Y-32069829D01*
X49500000Y-32223888D01*
X50274508Y-32069829D01*
X50931105Y-31631105D01*
X51369829Y-30974508D01*
X51485000Y-30395502D01*
X51485000Y-29404497D01*
X51369829Y-28825492D01*
X50931105Y-28168895D01*
X50274507Y-27730171D01*
X49500000Y-27576112D01*
X48725492Y-27730171D01*
X48068895Y-28168895D01*
X48035000Y-28219623D01*
X48035000Y-27127000D01*
X66290001Y-27127000D01*
X66290000Y-58790000D01*
X710000Y-58790000D01*
X710000Y-55125431D01*
X1685000Y-55125431D01*
X1685000Y-56014569D01*
X2025259Y-56836026D01*
X2653974Y-57464741D01*
X3475431Y-57805000D01*
X4364569Y-57805000D01*
X5186026Y-57464741D01*
X5814741Y-56836026D01*
X6155000Y-56014569D01*
X6155000Y-55125431D01*
X5814741Y-54303974D01*
X5424030Y-53913263D01*
X7380483Y-53913263D01*
X7499870Y-54142001D01*
X8691999Y-54142001D01*
X8691999Y-52950493D01*
X8463262Y-52830494D01*
X8049359Y-53001929D01*
X7624283Y-53391072D01*
X7380483Y-53913263D01*
X5424030Y-53913263D01*
X5186026Y-53675259D01*
X4364569Y-53335000D01*
X3475431Y-53335000D01*
X2653974Y-53675259D01*
X2025259Y-54303974D01*
X1685000Y-55125431D01*
X710000Y-55125431D01*
X710000Y-51014561D01*
X26265000Y-51014561D01*
X26265000Y-51585439D01*
X26483466Y-52112862D01*
X26887138Y-52516534D01*
X27414561Y-52735000D01*
X27985439Y-52735000D01*
X28512862Y-52516534D01*
X28916534Y-52112862D01*
X29135000Y-51585439D01*
X29135000Y-51014561D01*
X28969315Y-50614561D01*
X29165000Y-50614561D01*
X29165000Y-51185439D01*
X29383466Y-51712862D01*
X29787138Y-52116534D01*
X30314561Y-52335000D01*
X30885439Y-52335000D01*
X31412862Y-52116534D01*
X31816534Y-51712862D01*
X32010790Y-51243887D01*
X36835056Y-51243887D01*
X36997524Y-51636144D01*
X37372290Y-52047930D01*
X37876112Y-52284954D01*
X38097000Y-52164949D01*
X38097000Y-51023000D01*
X36955719Y-51023000D01*
X36835056Y-51243887D01*
X32010790Y-51243887D01*
X32035000Y-51185439D01*
X32035000Y-50614561D01*
X32010791Y-50556113D01*
X36835056Y-50556113D01*
X36955719Y-50777000D01*
X38097000Y-50777000D01*
X38097000Y-49635051D01*
X38343000Y-49635051D01*
X38343000Y-50777000D01*
X38363000Y-50777000D01*
X38363000Y-51023000D01*
X38343000Y-51023000D01*
X38343000Y-52164949D01*
X38563888Y-52284954D01*
X39067710Y-52047930D01*
X39201598Y-51900816D01*
X39573133Y-51900816D01*
X39647368Y-52145169D01*
X40181164Y-52338406D01*
X40748276Y-52312659D01*
X41152632Y-52145169D01*
X41226867Y-51900816D01*
X40400000Y-51073948D01*
X39573133Y-51900816D01*
X39201598Y-51900816D01*
X39368416Y-51717520D01*
X39399184Y-51726867D01*
X40226052Y-50900000D01*
X40573948Y-50900000D01*
X41400816Y-51726867D01*
X41645169Y-51652632D01*
X41838406Y-51118836D01*
X41812659Y-50551724D01*
X41645169Y-50147368D01*
X41400816Y-50073133D01*
X40573948Y-50900000D01*
X40226052Y-50900000D01*
X39399184Y-50073133D01*
X39368416Y-50082480D01*
X39201599Y-49899184D01*
X39573133Y-49899184D01*
X40400000Y-50726052D01*
X41226867Y-49899184D01*
X41152632Y-49654831D01*
X40618836Y-49461594D01*
X40051724Y-49487341D01*
X39647368Y-49654831D01*
X39573133Y-49899184D01*
X39201599Y-49899184D01*
X39067710Y-49752070D01*
X38563888Y-49515046D01*
X38343000Y-49635051D01*
X38097000Y-49635051D01*
X37876112Y-49515046D01*
X37372290Y-49752070D01*
X36997524Y-50163856D01*
X36835056Y-50556113D01*
X32010791Y-50556113D01*
X31816534Y-50087138D01*
X31412862Y-49683466D01*
X30885439Y-49465000D01*
X30314561Y-49465000D01*
X29787138Y-49683466D01*
X29383466Y-50087138D01*
X29165000Y-50614561D01*
X28969315Y-50614561D01*
X28916534Y-50487138D01*
X28512862Y-50083466D01*
X27985439Y-49865000D01*
X27414561Y-49865000D01*
X26887138Y-50083466D01*
X26483466Y-50487138D01*
X26265000Y-51014561D01*
X710000Y-51014561D01*
X710000Y-46244398D01*
X29775000Y-46244398D01*
X29775000Y-46755602D01*
X29970629Y-47227894D01*
X30332106Y-47589371D01*
X30804398Y-47785000D01*
X31045000Y-47785000D01*
X31045000Y-48025602D01*
X31240629Y-48497894D01*
X31602106Y-48859371D01*
X32074398Y-49055000D01*
X32585602Y-49055000D01*
X33057894Y-48859371D01*
X33419371Y-48497894D01*
X33615000Y-48025602D01*
X33615000Y-47797440D01*
X34250000Y-47797440D01*
X34497765Y-47748157D01*
X34548044Y-47714561D01*
X43065000Y-47714561D01*
X43065000Y-48285439D01*
X43283466Y-48812862D01*
X43687138Y-49216534D01*
X44214561Y-49435000D01*
X44785439Y-49435000D01*
X45312862Y-49216534D01*
X45716534Y-48812862D01*
X45935000Y-48285439D01*
X45935000Y-47714561D01*
X45716534Y-47187138D01*
X45312862Y-46783466D01*
X44785439Y-46565000D01*
X44214561Y-46565000D01*
X43687138Y-46783466D01*
X43283466Y-47187138D01*
X43065000Y-47714561D01*
X34548044Y-47714561D01*
X34707809Y-47607809D01*
X34848157Y-47397765D01*
X34897440Y-47150000D01*
X34897440Y-45879750D01*
X39423000Y-45879750D01*
X39423000Y-46574718D01*
X39518455Y-46805167D01*
X39694833Y-46981545D01*
X39925282Y-47077000D01*
X40620250Y-47077000D01*
X40777000Y-46920250D01*
X40777000Y-45723000D01*
X41023000Y-45723000D01*
X41023000Y-46920250D01*
X41179750Y-47077000D01*
X41874718Y-47077000D01*
X42105167Y-46981545D01*
X42281545Y-46805167D01*
X42377000Y-46574718D01*
X42377000Y-45879750D01*
X42220250Y-45723000D01*
X41023000Y-45723000D01*
X40777000Y-45723000D01*
X39579750Y-45723000D01*
X39423000Y-45879750D01*
X34897440Y-45879750D01*
X34897440Y-45850000D01*
X34848157Y-45602235D01*
X34707809Y-45392191D01*
X34497765Y-45251843D01*
X34250000Y-45202560D01*
X32950000Y-45202560D01*
X32702235Y-45251843D01*
X32492191Y-45392191D01*
X32351843Y-45602235D01*
X32302560Y-45850000D01*
X32302560Y-46141938D01*
X32149371Y-45772106D01*
X31787894Y-45410629D01*
X31315602Y-45215000D01*
X30804398Y-45215000D01*
X30332106Y-45410629D01*
X29970629Y-45772106D01*
X29775000Y-46244398D01*
X710000Y-46244398D01*
X710000Y-43680000D01*
X26236887Y-43680000D01*
X26348260Y-44239909D01*
X26665423Y-44714577D01*
X27140091Y-45031740D01*
X27558667Y-45115000D01*
X27841333Y-45115000D01*
X28259909Y-45031740D01*
X28734577Y-44714577D01*
X29051740Y-44239909D01*
X29163113Y-43680000D01*
X29051740Y-43120091D01*
X28734577Y-42645423D01*
X28367276Y-42400000D01*
X29845908Y-42400000D01*
X29961161Y-42979418D01*
X30289375Y-43470625D01*
X30780582Y-43798839D01*
X31213744Y-43885000D01*
X31506256Y-43885000D01*
X31939418Y-43798839D01*
X32430625Y-43470625D01*
X32630000Y-43172239D01*
X32829375Y-43470625D01*
X33320582Y-43798839D01*
X33753744Y-43885000D01*
X34046256Y-43885000D01*
X34479418Y-43798839D01*
X34970625Y-43470625D01*
X34982816Y-43452381D01*
X34991843Y-43497765D01*
X35132191Y-43707809D01*
X35342235Y-43848157D01*
X35590000Y-43897440D01*
X37290000Y-43897440D01*
X37537765Y-43848157D01*
X37747809Y-43707809D01*
X37888157Y-43497765D01*
X37937440Y-43250000D01*
X37937440Y-43060000D01*
X39385908Y-43060000D01*
X39501161Y-43639418D01*
X39829375Y-44130625D01*
X39859032Y-44150441D01*
X39694833Y-44218455D01*
X39518455Y-44394833D01*
X39423000Y-44625282D01*
X39423000Y-45320250D01*
X39579750Y-45477000D01*
X40777000Y-45477000D01*
X40777000Y-45457000D01*
X41023000Y-45457000D01*
X41023000Y-45477000D01*
X42220250Y-45477000D01*
X42377000Y-45320250D01*
X42377000Y-44625282D01*
X42281545Y-44394833D01*
X42105167Y-44218455D01*
X41940968Y-44150441D01*
X41970625Y-44130625D01*
X42298839Y-43639418D01*
X42414092Y-43060000D01*
X42364710Y-42811737D01*
X60115493Y-42811737D01*
X60286928Y-43225640D01*
X60676071Y-43650716D01*
X61198262Y-43894516D01*
X61427000Y-43775129D01*
X61427000Y-42583000D01*
X61673000Y-42583000D01*
X61673000Y-43775129D01*
X61901738Y-43894516D01*
X62423929Y-43650716D01*
X62813072Y-43225640D01*
X62984507Y-42811737D01*
X62864508Y-42583000D01*
X61673000Y-42583000D01*
X61427000Y-42583000D01*
X60235492Y-42583000D01*
X60115493Y-42811737D01*
X42364710Y-42811737D01*
X42298839Y-42480582D01*
X41970625Y-41989375D01*
X41479418Y-41661161D01*
X41046256Y-41575000D01*
X40753744Y-41575000D01*
X40320582Y-41661161D01*
X39829375Y-41989375D01*
X39501161Y-42480582D01*
X39385908Y-43060000D01*
X37937440Y-43060000D01*
X37937440Y-41550000D01*
X37888157Y-41302235D01*
X37747809Y-41092191D01*
X37537765Y-40951843D01*
X37290000Y-40902560D01*
X35590000Y-40902560D01*
X35342235Y-40951843D01*
X35132191Y-41092191D01*
X34991843Y-41302235D01*
X34982816Y-41347619D01*
X34970625Y-41329375D01*
X34479418Y-41001161D01*
X34046256Y-40915000D01*
X33753744Y-40915000D01*
X33320582Y-41001161D01*
X32829375Y-41329375D01*
X32630000Y-41627761D01*
X32430625Y-41329375D01*
X31939418Y-41001161D01*
X31506256Y-40915000D01*
X31213744Y-40915000D01*
X30780582Y-41001161D01*
X30289375Y-41329375D01*
X29961161Y-41820582D01*
X29845908Y-42400000D01*
X28367276Y-42400000D01*
X28259909Y-42328260D01*
X27841333Y-42245000D01*
X27558667Y-42245000D01*
X27140091Y-42328260D01*
X26665423Y-42645423D01*
X26348260Y-43120091D01*
X26236887Y-43680000D01*
X710000Y-43680000D01*
X710000Y-13127000D01*
X1565001Y-13127000D01*
X1565000Y-27866033D01*
X1370874Y-28156565D01*
X1302560Y-28500001D01*
X1302560Y-31299999D01*
X1365001Y-31613908D01*
X1365000Y-34653130D01*
X1315000Y-34904498D01*
X1315000Y-35895503D01*
X1430171Y-36474508D01*
X1868896Y-37131105D01*
X2525493Y-37569829D01*
X3300000Y-37723888D01*
X4074508Y-37569829D01*
X4425955Y-37335000D01*
X6374046Y-37335000D01*
X6725493Y-37569829D01*
X7500000Y-37723888D01*
X8274508Y-37569829D01*
X8931105Y-37131105D01*
X9369829Y-36474508D01*
X9485000Y-35895502D01*
X9485000Y-35523000D01*
X9723000Y-35523000D01*
X9723000Y-35823000D01*
X9920560Y-36570202D01*
X10389024Y-37184924D01*
X11057072Y-37573580D01*
X11269843Y-37629636D01*
X11577000Y-37516089D01*
X11577000Y-35523000D01*
X11823000Y-35523000D01*
X11823000Y-37516089D01*
X12130157Y-37629636D01*
X12342928Y-37573580D01*
X13010976Y-37184924D01*
X13479440Y-36570202D01*
X13677000Y-35823000D01*
X13677000Y-35523000D01*
X11823000Y-35523000D01*
X11577000Y-35523000D01*
X9723000Y-35523000D01*
X9485000Y-35523000D01*
X9485000Y-34977000D01*
X9723000Y-34977000D01*
X9723000Y-35277000D01*
X11577000Y-35277000D01*
X11577000Y-33283911D01*
X11823000Y-33283911D01*
X11823000Y-35277000D01*
X13677000Y-35277000D01*
X13677000Y-34977000D01*
X13479440Y-34229798D01*
X13010976Y-33615076D01*
X12342928Y-33226420D01*
X12130157Y-33170364D01*
X11823000Y-33283911D01*
X11577000Y-33283911D01*
X11269843Y-33170364D01*
X11057072Y-33226420D01*
X10389024Y-33615076D01*
X9920560Y-34229798D01*
X9723000Y-34977000D01*
X9485000Y-34977000D01*
X9485000Y-34904497D01*
X9435000Y-34653129D01*
X9435000Y-30646870D01*
X9485000Y-30395502D01*
X9485000Y-30023000D01*
X9723000Y-30023000D01*
X9723000Y-30323000D01*
X9920560Y-31070202D01*
X10389024Y-31684924D01*
X11057072Y-32073580D01*
X11269843Y-32129636D01*
X11577000Y-32016089D01*
X11577000Y-30023000D01*
X9723000Y-30023000D01*
X9485000Y-30023000D01*
X9485000Y-29477000D01*
X9723000Y-29477000D01*
X9723000Y-29777000D01*
X11577000Y-29777000D01*
X11577000Y-27783911D01*
X11269843Y-27670364D01*
X11057072Y-27726420D01*
X10389024Y-28115076D01*
X9920560Y-28729798D01*
X9723000Y-29477000D01*
X9485000Y-29477000D01*
X9485000Y-29404497D01*
X9369829Y-28825492D01*
X8931105Y-28168895D01*
X8274507Y-27730171D01*
X7500000Y-27576112D01*
X6725492Y-27730171D01*
X6374045Y-27965000D01*
X5101127Y-27965000D01*
X5035000Y-27866034D01*
X5035000Y-26376956D01*
X7956993Y-26376956D01*
X8116848Y-26693964D01*
X8904150Y-27004069D01*
X9750194Y-26989282D01*
X10463152Y-26693964D01*
X10623007Y-26376956D01*
X9290000Y-25043948D01*
X7956993Y-26376956D01*
X5035000Y-26376956D01*
X5035000Y-24484150D01*
X7155931Y-24484150D01*
X7170718Y-25330194D01*
X7466036Y-26043152D01*
X7783044Y-26203007D01*
X9116052Y-24870000D01*
X9463948Y-24870000D01*
X10796956Y-26203007D01*
X11113964Y-26043152D01*
X11424069Y-25255850D01*
X11409282Y-24409806D01*
X11113964Y-23696848D01*
X10796956Y-23536993D01*
X9463948Y-24870000D01*
X9116052Y-24870000D01*
X7783044Y-23536993D01*
X7466036Y-23696848D01*
X7155931Y-24484150D01*
X5035000Y-24484150D01*
X5035000Y-23363044D01*
X7956993Y-23363044D01*
X9290000Y-24696052D01*
X10623007Y-23363044D01*
X10463152Y-23046036D01*
X9748631Y-22764598D01*
X11209351Y-22764598D01*
X11277445Y-23003772D01*
X11793110Y-23188650D01*
X12340273Y-23162118D01*
X12722555Y-23003772D01*
X12790649Y-22764598D01*
X12000000Y-21973948D01*
X11209351Y-22764598D01*
X9748631Y-22764598D01*
X9675850Y-22735931D01*
X8829806Y-22750718D01*
X8116848Y-23046036D01*
X7956993Y-23363044D01*
X5035000Y-23363044D01*
X5035000Y-21593110D01*
X10611350Y-21593110D01*
X10637882Y-22140273D01*
X10796228Y-22522555D01*
X11035402Y-22590649D01*
X11826052Y-21800000D01*
X12173948Y-21800000D01*
X12964598Y-22590649D01*
X13203772Y-22522555D01*
X13388650Y-22006890D01*
X13362118Y-21459727D01*
X13203772Y-21077445D01*
X12964598Y-21009351D01*
X12173948Y-21800000D01*
X11826052Y-21800000D01*
X11035402Y-21009351D01*
X10796228Y-21077445D01*
X10611350Y-21593110D01*
X5035000Y-21593110D01*
X5035000Y-14050000D01*
X10602560Y-14050000D01*
X10602560Y-15550000D01*
X10651843Y-15797765D01*
X10792191Y-16007809D01*
X11002235Y-16148157D01*
X11161480Y-16179833D01*
X10825853Y-16515460D01*
X10615000Y-17024506D01*
X10615000Y-17575494D01*
X10825853Y-18084540D01*
X11041313Y-18300000D01*
X10825853Y-18515460D01*
X10615000Y-19024506D01*
X10615000Y-19575494D01*
X10825853Y-20084540D01*
X11215460Y-20474147D01*
X11393818Y-20548025D01*
X11277445Y-20596228D01*
X11209351Y-20835402D01*
X12000000Y-21626052D01*
X12790649Y-20835402D01*
X12722555Y-20596228D01*
X12597796Y-20551499D01*
X12784540Y-20474147D01*
X13174147Y-20084540D01*
X13385000Y-19575494D01*
X13385000Y-19024506D01*
X13174147Y-18515460D01*
X12958687Y-18300000D01*
X13174147Y-18084540D01*
X13186204Y-18055431D01*
X16765000Y-18055431D01*
X16765000Y-18944569D01*
X17105259Y-19766026D01*
X17733974Y-20394741D01*
X18555431Y-20735000D01*
X19444569Y-20735000D01*
X20266026Y-20394741D01*
X20894741Y-19766026D01*
X21235000Y-18944569D01*
X21235000Y-18055431D01*
X20894741Y-17233974D01*
X20266026Y-16605259D01*
X19444569Y-16265000D01*
X18555431Y-16265000D01*
X17733974Y-16605259D01*
X17105259Y-17233974D01*
X16765000Y-18055431D01*
X13186204Y-18055431D01*
X13385000Y-17575494D01*
X13385000Y-17024506D01*
X13174147Y-16515460D01*
X12838520Y-16179833D01*
X12997765Y-16148157D01*
X13207809Y-16007809D01*
X13348157Y-15797765D01*
X13397440Y-15550000D01*
X13397440Y-14050000D01*
X13348157Y-13802235D01*
X13207809Y-13592191D01*
X12997765Y-13451843D01*
X12750000Y-13402560D01*
X11250000Y-13402560D01*
X11002235Y-13451843D01*
X10792191Y-13592191D01*
X10651843Y-13802235D01*
X10602560Y-14050000D01*
X5035000Y-14050000D01*
X5035000Y-13236956D01*
X7956993Y-13236956D01*
X8116848Y-13553964D01*
X8904150Y-13864069D01*
X9750194Y-13849282D01*
X10463152Y-13553964D01*
X10623007Y-13236956D01*
X9290000Y-11903948D01*
X7956993Y-13236956D01*
X5035000Y-13236956D01*
X5035000Y-13127000D01*
X7300000Y-13127000D01*
X7348601Y-13117333D01*
X7389803Y-13089803D01*
X7417333Y-13048601D01*
X7427000Y-13000000D01*
X7427000Y-12808911D01*
X7466036Y-12903152D01*
X7783044Y-13063007D01*
X9116052Y-11730000D01*
X7783044Y-10396993D01*
X7466036Y-10556848D01*
X7427000Y-10655954D01*
X7427000Y-9927000D01*
X8106277Y-9927000D01*
X7956993Y-10223044D01*
G36*
X38565000Y-24065000D02*
X29735000Y-24065000D01*
X29735000Y-22069120D01*
X29634334Y-21563037D01*
X29250865Y-20989135D01*
X28997233Y-20819664D01*
X29070625Y-20770625D01*
X29398839Y-20279418D01*
X29514092Y-19700000D01*
X29398839Y-19120582D01*
X29070625Y-18629375D01*
X29052381Y-18617184D01*
X29097765Y-18608157D01*
X29307809Y-18467809D01*
X29448157Y-18257765D01*
X29497440Y-18010000D01*
X29497440Y-16310000D01*
X29448157Y-16062235D01*
X29307809Y-15852191D01*
X29097765Y-15711843D01*
X28850000Y-15662560D01*
X27150000Y-15662560D01*
X26902235Y-15711843D01*
X26692191Y-15852191D01*
X26551843Y-16062235D01*
X26502560Y-16310000D01*
X26502560Y-18010000D01*
X26551843Y-18257765D01*
X26692191Y-18467809D01*
X26902235Y-18608157D01*
X26947619Y-18617184D01*
X26929375Y-18629375D01*
X26601161Y-19120582D01*
X26485908Y-19700000D01*
X26601161Y-20279418D01*
X26929375Y-20770625D01*
X27002767Y-20819664D01*
X26749135Y-20989135D01*
X26365666Y-21563038D01*
X26265000Y-22069121D01*
X26265000Y-24065000D01*
X25535000Y-24065000D01*
X25535000Y-16070878D01*
X25568990Y-15900000D01*
X25521760Y-15662560D01*
X25434334Y-15223037D01*
X25050865Y-14649135D01*
X24905998Y-14552338D01*
X23480660Y-13127000D01*
X38565000Y-13127000D01*
X38565000Y-24065000D01*
X38565000Y-24065000D01*
G37*
X38565000Y-24065000D02*
X29735000Y-24065000D01*
X29735000Y-22069120D01*
X29634334Y-21563037D01*
X29250865Y-20989135D01*
X28997233Y-20819664D01*
X29070625Y-20770625D01*
X29398839Y-20279418D01*
X29514092Y-19700000D01*
X29398839Y-19120582D01*
X29070625Y-18629375D01*
X29052381Y-18617184D01*
X29097765Y-18608157D01*
X29307809Y-18467809D01*
X29448157Y-18257765D01*
X29497440Y-18010000D01*
X29497440Y-16310000D01*
X29448157Y-16062235D01*
X29307809Y-15852191D01*
X29097765Y-15711843D01*
X28850000Y-15662560D01*
X27150000Y-15662560D01*
X26902235Y-15711843D01*
X26692191Y-15852191D01*
X26551843Y-16062235D01*
X26502560Y-16310000D01*
X26502560Y-18010000D01*
X26551843Y-18257765D01*
X26692191Y-18467809D01*
X26902235Y-18608157D01*
X26947619Y-18617184D01*
X26929375Y-18629375D01*
X26601161Y-19120582D01*
X26485908Y-19700000D01*
X26601161Y-20279418D01*
X26929375Y-20770625D01*
X27002767Y-20819664D01*
X26749135Y-20989135D01*
X26365666Y-21563038D01*
X26265000Y-22069121D01*
X26265000Y-24065000D01*
X25535000Y-24065000D01*
X25535000Y-16070878D01*
X25568990Y-15900000D01*
X25521760Y-15662560D01*
X25434334Y-15223037D01*
X25050865Y-14649135D01*
X24905998Y-14552338D01*
X23480660Y-13127000D01*
X38565000Y-13127000D01*
X38565000Y-24065000D01*
G36*
X66290001Y-26873000D02*
X48035000Y-26873000D01*
X48035000Y-16135000D01*
X60700000Y-16135000D01*
X60943004Y-16086664D01*
X61149013Y-15949013D01*
X61286664Y-15743004D01*
X61335000Y-15500000D01*
X61335000Y-710000D01*
X66290001Y-710000D01*
X66290001Y-26873000D01*
X66290001Y-26873000D01*
G37*
X66290001Y-26873000D02*
X48035000Y-26873000D01*
X48035000Y-16135000D01*
X60700000Y-16135000D01*
X60943004Y-16086664D01*
X61149013Y-15949013D01*
X61286664Y-15743004D01*
X61335000Y-15500000D01*
X61335000Y-710000D01*
X66290001Y-710000D01*
X66290001Y-26873000D01*
G36*
X38565000Y-12873000D02*
X23226660Y-12873000D01*
X20835000Y-10481341D01*
X20835000Y-6629120D01*
X20735000Y-6126385D01*
X20735000Y-5838969D01*
X30465000Y-5838969D01*
X30465000Y-7761030D01*
X30559864Y-8237944D01*
X30921231Y-8778769D01*
X31462055Y-9140136D01*
X32100000Y-9267031D01*
X32737944Y-9140136D01*
X33278769Y-8778769D01*
X33640136Y-8237945D01*
X33735000Y-7761031D01*
X33735000Y-5838969D01*
X33640136Y-5362055D01*
X33278769Y-4821231D01*
X32737945Y-4459864D01*
X32100000Y-4332969D01*
X31462056Y-4459864D01*
X30921232Y-4821231D01*
X30559865Y-5362055D01*
X30465000Y-5838969D01*
X20735000Y-5838969D01*
X20640136Y-5362055D01*
X20278769Y-4821231D01*
X19737945Y-4459864D01*
X19100000Y-4332969D01*
X18462056Y-4459864D01*
X17921232Y-4821231D01*
X17559865Y-5362055D01*
X17465000Y-5838969D01*
X17465000Y-6126386D01*
X17365000Y-6629121D01*
X17365001Y-11029117D01*
X17331010Y-11200000D01*
X17465667Y-11876963D01*
X17849136Y-12450865D01*
X17994003Y-12547662D01*
X18319341Y-12873000D01*
X11427000Y-12873000D01*
X11427000Y-9800000D01*
X11417333Y-9751399D01*
X11389803Y-9710197D01*
X11348601Y-9682667D01*
X11300000Y-9673000D01*
X7300000Y-9673000D01*
X7251399Y-9682667D01*
X7210197Y-9710197D01*
X7182667Y-9751399D01*
X7173000Y-9800000D01*
X7173000Y-12873000D01*
X5035000Y-12873000D01*
X5035000Y-10318659D01*
X6088847Y-9264813D01*
X6100000Y-9267031D01*
X6737944Y-9140136D01*
X7278769Y-8778769D01*
X7640136Y-8237945D01*
X7735000Y-7761031D01*
X7735000Y-7473611D01*
X7868990Y-6800000D01*
X7735000Y-6126390D01*
X7735000Y-5838969D01*
X7640136Y-5362055D01*
X7278769Y-4821231D01*
X6737945Y-4459864D01*
X6100000Y-4332969D01*
X5462056Y-4459864D01*
X4921232Y-4821231D01*
X4559865Y-5362055D01*
X4465000Y-5838969D01*
X4465000Y-5981340D01*
X2194003Y-8252338D01*
X2049136Y-8349135D01*
X1952340Y-8494001D01*
X1665667Y-8923037D01*
X1531010Y-9600000D01*
X1565001Y-9770883D01*
X1565001Y-12873000D01*
X710000Y-12873000D01*
X710000Y-710000D01*
X38565000Y-710000D01*
X38565000Y-12873000D01*
X38565000Y-12873000D01*
G37*
X38565000Y-12873000D02*
X23226660Y-12873000D01*
X20835000Y-10481341D01*
X20835000Y-6629120D01*
X20735000Y-6126385D01*
X20735000Y-5838969D01*
X30465000Y-5838969D01*
X30465000Y-7761030D01*
X30559864Y-8237944D01*
X30921231Y-8778769D01*
X31462055Y-9140136D01*
X32100000Y-9267031D01*
X32737944Y-9140136D01*
X33278769Y-8778769D01*
X33640136Y-8237945D01*
X33735000Y-7761031D01*
X33735000Y-5838969D01*
X33640136Y-5362055D01*
X33278769Y-4821231D01*
X32737945Y-4459864D01*
X32100000Y-4332969D01*
X31462056Y-4459864D01*
X30921232Y-4821231D01*
X30559865Y-5362055D01*
X30465000Y-5838969D01*
X20735000Y-5838969D01*
X20640136Y-5362055D01*
X20278769Y-4821231D01*
X19737945Y-4459864D01*
X19100000Y-4332969D01*
X18462056Y-4459864D01*
X17921232Y-4821231D01*
X17559865Y-5362055D01*
X17465000Y-5838969D01*
X17465000Y-6126386D01*
X17365000Y-6629121D01*
X17365001Y-11029117D01*
X17331010Y-11200000D01*
X17465667Y-11876963D01*
X17849136Y-12450865D01*
X17994003Y-12547662D01*
X18319341Y-12873000D01*
X11427000Y-12873000D01*
X11427000Y-9800000D01*
X11417333Y-9751399D01*
X11389803Y-9710197D01*
X11348601Y-9682667D01*
X11300000Y-9673000D01*
X7300000Y-9673000D01*
X7251399Y-9682667D01*
X7210197Y-9710197D01*
X7182667Y-9751399D01*
X7173000Y-9800000D01*
X7173000Y-12873000D01*
X5035000Y-12873000D01*
X5035000Y-10318659D01*
X6088847Y-9264813D01*
X6100000Y-9267031D01*
X6737944Y-9140136D01*
X7278769Y-8778769D01*
X7640136Y-8237945D01*
X7735000Y-7761031D01*
X7735000Y-7473611D01*
X7868990Y-6800000D01*
X7735000Y-6126390D01*
X7735000Y-5838969D01*
X7640136Y-5362055D01*
X7278769Y-4821231D01*
X6737945Y-4459864D01*
X6100000Y-4332969D01*
X5462056Y-4459864D01*
X4921232Y-4821231D01*
X4559865Y-5362055D01*
X4465000Y-5838969D01*
X4465000Y-5981340D01*
X2194003Y-8252338D01*
X2049136Y-8349135D01*
X1952340Y-8494001D01*
X1665667Y-8923037D01*
X1531010Y-9600000D01*
X1565001Y-9770883D01*
X1565001Y-12873000D01*
X710000Y-12873000D01*
X710000Y-710000D01*
X38565000Y-710000D01*
X38565000Y-12873000D01*
G36*
X66290001Y-12873000D02*
X61335000Y-12873000D01*
X61335000Y-710000D01*
X66290001Y-710000D01*
X66290001Y-12873000D01*
X66290001Y-12873000D01*
G37*
X66290001Y-12873000D02*
X61335000Y-12873000D01*
X61335000Y-710000D01*
X66290001Y-710000D01*
X66290001Y-12873000D01*
G04 #@! TO.N,+12V*
G36*
X60573000Y-15373000D02*
X47600000Y-15373000D01*
X47551399Y-15382667D01*
X47510197Y-15410197D01*
X47494330Y-15429553D01*
X47294330Y-15729553D01*
X47273000Y-15800000D01*
X47273000Y-31347394D01*
X46441347Y-32179047D01*
X46343004Y-32113336D01*
X46100000Y-32065000D01*
X40063026Y-32065000D01*
X39835000Y-31836974D01*
X39835000Y-25300000D01*
X39786664Y-25056996D01*
X39649013Y-24850987D01*
X39327000Y-24528974D01*
X39327000Y-5250000D01*
X48452560Y-5250000D01*
X48452560Y-8350000D01*
X48520874Y-8693435D01*
X48715414Y-8984586D01*
X49006565Y-9179126D01*
X49350000Y-9247440D01*
X50850000Y-9247440D01*
X51193435Y-9179126D01*
X51484586Y-8984586D01*
X51679126Y-8693435D01*
X51747440Y-8350000D01*
X51747440Y-5250000D01*
X51679126Y-4906565D01*
X51484586Y-4615414D01*
X51193435Y-4420874D01*
X50850000Y-4352560D01*
X49350000Y-4352560D01*
X49006565Y-4420874D01*
X48715414Y-4615414D01*
X48520874Y-4906565D01*
X48452560Y-5250000D01*
X39327000Y-5250000D01*
X39327000Y-710000D01*
X60573000Y-710000D01*
X60573000Y-15373000D01*
X60573000Y-15373000D01*
G37*
X60573000Y-15373000D02*
X47600000Y-15373000D01*
X47551399Y-15382667D01*
X47510197Y-15410197D01*
X47494330Y-15429553D01*
X47294330Y-15729553D01*
X47273000Y-15800000D01*
X47273000Y-31347394D01*
X46441347Y-32179047D01*
X46343004Y-32113336D01*
X46100000Y-32065000D01*
X40063026Y-32065000D01*
X39835000Y-31836974D01*
X39835000Y-25300000D01*
X39786664Y-25056996D01*
X39649013Y-24850987D01*
X39327000Y-24528974D01*
X39327000Y-5250000D01*
X48452560Y-5250000D01*
X48452560Y-8350000D01*
X48520874Y-8693435D01*
X48715414Y-8984586D01*
X49006565Y-9179126D01*
X49350000Y-9247440D01*
X50850000Y-9247440D01*
X51193435Y-9179126D01*
X51484586Y-8984586D01*
X51679126Y-8693435D01*
X51747440Y-8350000D01*
X51747440Y-5250000D01*
X51679126Y-4906565D01*
X51484586Y-4615414D01*
X51193435Y-4420874D01*
X50850000Y-4352560D01*
X49350000Y-4352560D01*
X49006565Y-4420874D01*
X48715414Y-4615414D01*
X48520874Y-4906565D01*
X48452560Y-5250000D01*
X39327000Y-5250000D01*
X39327000Y-710000D01*
X60573000Y-710000D01*
X60573000Y-15373000D01*
G04 #@! TD*
M02*
