M48
;DRILL file {KiCad 5.0.2-5.fc29} date 2019-04-09T09:13:11 CEST
;FORMAT={-:-/ absolute / inch / decimal}
FMAT,2
INCH,TZ
T1C0.0295
T2C0.0315
T3C0.0362
T4C0.0394
T5C0.0551
T6C0.0906
T7C0.1260
%
G90
G05
T1
X1.2228Y-1.8307
X1.2728Y-1.8807
X1.3228Y-1.8307
T2
X1.9756Y-2.0039
X2.2756Y-2.0039
X1.0906Y-1.7197
X1.0906Y-2.0197
X1.9756Y-1.8819
X2.2756Y-1.8819
X1.752Y-1.5898
X1.752Y-1.8898
X1.2047Y-2.0039
X1.5047Y-2.0039
X1.5906Y-2.0039
X1.8906Y-2.0039
T3
X0.4724Y-0.5827
X0.4724Y-0.6811
X0.4724Y-0.7598
X0.4724Y-0.8583
T4
X1.1024Y-0.6756
X1.1024Y-0.7756
X1.1024Y-0.8756
X2.4232Y-1.2717
X2.4232Y-1.3717
X2.4232Y-1.4717
X2.4232Y-1.5717
X2.4232Y-1.6717
X2.2402Y-1.272
X2.2402Y-1.372
X2.2402Y-1.472
X1.6102Y-1.6953
X1.6102Y-1.7953
X0.347Y-2.1364
X0.347Y-2.2364
X0.447Y-2.1364
X0.447Y-2.2364
X0.547Y-2.1364
X0.547Y-2.2364
X0.647Y-2.1364
X0.647Y-2.2364
X0.747Y-2.1364
X0.747Y-2.2364
X0.847Y-2.1364
X0.847Y-2.2364
X0.947Y-2.1364
X0.947Y-2.2364
X1.047Y-2.1364
X1.047Y-2.2364
X1.147Y-2.1364
X1.147Y-2.2364
X1.247Y-2.1364
X1.247Y-2.2364
X1.347Y-2.1364
X1.347Y-2.2364
X1.447Y-2.1364
X1.447Y-2.2364
X1.547Y-2.1364
X1.547Y-2.2364
X1.647Y-2.1364
X1.647Y-2.2364
X1.747Y-2.1364
X1.747Y-2.2364
X1.847Y-2.1364
X1.847Y-2.2364
X1.947Y-2.1364
X1.947Y-2.2364
X2.047Y-2.1364
X2.047Y-2.2364
X2.147Y-2.1364
X2.147Y-2.2364
X2.247Y-2.1364
X2.247Y-2.2364
X1.2346Y-1.6693
X1.3346Y-1.6693
X1.4346Y-1.6693
T5
X1.7756Y-0.2677
X1.9724Y-0.2677
X1.2638Y-0.2677
X1.4606Y-0.2677
X1.75Y-0.7736
X1.75Y-0.939
X1.9665Y-0.7736
X1.9665Y-0.939
X2.2846Y-0.5587
X2.2846Y-0.7555
X0.1299Y-1.1772
X0.1299Y-1.3937
X0.2953Y-1.1772
X0.2953Y-1.3937
X0.4606Y-1.1772
X0.4606Y-1.3937
X0.626Y-1.1772
X0.626Y-1.3937
X0.7913Y-1.1772
X0.7913Y-1.3937
X0.9567Y-1.1772
X0.9567Y-1.3937
X1.122Y-1.1772
X1.122Y-1.3937
X1.2874Y-1.1772
X1.2874Y-1.3937
X1.4528Y-1.1772
X1.4528Y-1.3937
X1.6181Y-1.1772
X1.6181Y-1.3937
X1.7835Y-1.1772
X1.7835Y-1.3937
X1.9488Y-1.1772
X1.9488Y-1.3937
X2.2874Y-0.2677
X2.4843Y-0.2677
X0.2402Y-0.2677
X0.437Y-0.2677
X0.752Y-0.2677
X0.9488Y-0.2677
T6
X0.3657Y-0.4618
X0.3657Y-0.9791
T7
X0.748Y-0.7283
X0.1543Y-2.1878
X2.5197Y-2.2244
T0
M30
