G04 #@! TF.GenerationSoftware,KiCad,Pcbnew,(5.0.1-dev-70-gb7b125d83)*
G04 #@! TF.CreationDate,2019-03-06T19:22:54+01:00*
G04 #@! TF.ProjectId,ATX-breakout,4154582D627265616B6F75742E6B6963,rev?*
G04 #@! TF.SameCoordinates,Original*
G04 #@! TF.FileFunction,Copper,L2,Bot,Signal*
G04 #@! TF.FilePolarity,Positive*
%FSLAX46Y46*%
G04 Gerber Fmt 4.6, Leading zero omitted, Abs format (unit mm)*
G04 Created by KiCad (PCBNEW (5.0.1-dev-70-gb7b125d83)) date 03/06/19 19:22:54*
%MOMM*%
%LPD*%
G01*
G04 APERTURE LIST*
G04 #@! TA.AperFunction,Conductor*
%ADD10C,0.100000*%
G04 #@! TD*
G04 #@! TA.AperFunction,ComponentPad*
%ADD11C,2.700000*%
G04 #@! TD*
G04 #@! TA.AperFunction,ComponentPad*
%ADD12O,2.700000X3.300000*%
G04 #@! TD*
G04 #@! TA.AperFunction,ComponentPad*
%ADD13R,1.700000X1.700000*%
G04 #@! TD*
G04 #@! TA.AperFunction,ComponentPad*
%ADD14O,1.700000X1.700000*%
G04 #@! TD*
G04 #@! TA.AperFunction,ComponentPad*
%ADD15O,3.300000X2.700000*%
G04 #@! TD*
G04 #@! TA.AperFunction,ComponentPad*
%ADD16C,1.300000*%
G04 #@! TD*
G04 #@! TA.AperFunction,ComponentPad*
%ADD17R,1.300000X1.300000*%
G04 #@! TD*
G04 #@! TA.AperFunction,ComponentPad*
%ADD18O,2.000000X3.600000*%
G04 #@! TD*
G04 #@! TA.AperFunction,ComponentPad*
%ADD19C,2.000000*%
G04 #@! TD*
G04 #@! TA.AperFunction,ComponentPad*
%ADD20C,3.000000*%
G04 #@! TD*
G04 #@! TA.AperFunction,ComponentPad*
%ADD21R,1.500000X1.500000*%
G04 #@! TD*
G04 #@! TA.AperFunction,ComponentPad*
%ADD22C,1.500000*%
G04 #@! TD*
G04 #@! TA.AperFunction,ComponentPad*
%ADD23C,1.600000*%
G04 #@! TD*
G04 #@! TA.AperFunction,ComponentPad*
%ADD24O,1.600000X1.600000*%
G04 #@! TD*
G04 #@! TA.AperFunction,Conductor*
%ADD25C,1.400000*%
G04 #@! TD*
G04 #@! TA.AperFunction,Conductor*
%ADD26C,0.400000*%
G04 #@! TD*
G04 #@! TA.AperFunction,Conductor*
%ADD27C,2.600000*%
G04 #@! TD*
G04 #@! TA.AperFunction,Conductor*
%ADD28C,2.200000*%
G04 #@! TD*
G04 #@! TA.AperFunction,Conductor*
%ADD29C,0.800000*%
G04 #@! TD*
G04 #@! TA.AperFunction,Conductor*
%ADD30C,0.600000*%
G04 #@! TD*
G04 #@! TA.AperFunction,Conductor*
%ADD31C,1.000000*%
G04 #@! TD*
G04 #@! TA.AperFunction,Conductor*
%ADD32C,0.254000*%
G04 #@! TD*
G04 APERTURE END LIST*
D10*
G04 #@! TO.N,+3V3*
G04 #@! TO.C,J5*
G36*
X59424503Y-68751204D02*
X59448772Y-68754804D01*
X59472570Y-68760765D01*
X59495670Y-68769030D01*
X59517849Y-68779520D01*
X59538892Y-68792133D01*
X59558598Y-68806748D01*
X59576776Y-68823224D01*
X59593252Y-68841402D01*
X59607867Y-68861108D01*
X59620480Y-68882151D01*
X59630970Y-68904330D01*
X59639235Y-68927430D01*
X59645196Y-68951228D01*
X59648796Y-68975497D01*
X59650000Y-69000001D01*
X59650000Y-71799999D01*
X59648796Y-71824503D01*
X59645196Y-71848772D01*
X59639235Y-71872570D01*
X59630970Y-71895670D01*
X59620480Y-71917849D01*
X59607867Y-71938892D01*
X59593252Y-71958598D01*
X59576776Y-71976776D01*
X59558598Y-71993252D01*
X59538892Y-72007867D01*
X59517849Y-72020480D01*
X59495670Y-72030970D01*
X59472570Y-72039235D01*
X59448772Y-72045196D01*
X59424503Y-72048796D01*
X59399999Y-72050000D01*
X57200001Y-72050000D01*
X57175497Y-72048796D01*
X57151228Y-72045196D01*
X57127430Y-72039235D01*
X57104330Y-72030970D01*
X57082151Y-72020480D01*
X57061108Y-72007867D01*
X57041402Y-71993252D01*
X57023224Y-71976776D01*
X57006748Y-71958598D01*
X56992133Y-71938892D01*
X56979520Y-71917849D01*
X56969030Y-71895670D01*
X56960765Y-71872570D01*
X56954804Y-71848772D01*
X56951204Y-71824503D01*
X56950000Y-71799999D01*
X56950000Y-69000001D01*
X56951204Y-68975497D01*
X56954804Y-68951228D01*
X56960765Y-68927430D01*
X56969030Y-68904330D01*
X56979520Y-68882151D01*
X56992133Y-68861108D01*
X57006748Y-68841402D01*
X57023224Y-68823224D01*
X57041402Y-68806748D01*
X57061108Y-68792133D01*
X57082151Y-68779520D01*
X57104330Y-68769030D01*
X57127430Y-68760765D01*
X57151228Y-68754804D01*
X57175497Y-68751204D01*
X57200001Y-68750000D01*
X59399999Y-68750000D01*
X59424503Y-68751204D01*
X59424503Y-68751204D01*
G37*
D11*
G04 #@! TD*
G04 #@! TO.P,J5,1*
G04 #@! TO.N,+3V3*
X58300000Y-70400000D03*
D12*
G04 #@! TO.P,J5,2*
G04 #@! TO.N,+3V3*
X62500000Y-70400000D03*
G04 #@! TO.P,J5,3*
G04 #@! TO.N,GND*
X66700000Y-70400000D03*
G04 #@! TO.P,J5,4*
G04 #@! TO.N,+5V*
X70900000Y-70400000D03*
G04 #@! TO.P,J5,5*
G04 #@! TO.N,GND*
X75100000Y-70400000D03*
G04 #@! TO.P,J5,6*
G04 #@! TO.N,+5V*
X79300000Y-70400000D03*
G04 #@! TO.P,J5,7*
G04 #@! TO.N,GND*
X83500000Y-70400000D03*
G04 #@! TO.P,J5,8*
G04 #@! TO.N,P_GOOD*
X87700000Y-70400000D03*
G04 #@! TO.P,J5,9*
G04 #@! TO.N,+5VP*
X91900000Y-70400000D03*
G04 #@! TO.P,J5,10*
G04 #@! TO.N,+12V*
X96100000Y-70400000D03*
G04 #@! TO.P,J5,11*
X100300000Y-70400000D03*
G04 #@! TO.P,J5,12*
G04 #@! TO.N,+3V3*
X104500000Y-70400000D03*
G04 #@! TO.P,J5,13*
X58300000Y-75900000D03*
G04 #@! TO.P,J5,14*
X62500000Y-75900000D03*
G04 #@! TO.P,J5,15*
G04 #@! TO.N,GND*
X66700000Y-75900000D03*
G04 #@! TO.P,J5,16*
G04 #@! TO.N,~PS_ON*
X70900000Y-75900000D03*
G04 #@! TO.P,J5,17*
G04 #@! TO.N,GND*
X75100000Y-75900000D03*
G04 #@! TO.P,J5,18*
X79300000Y-75900000D03*
G04 #@! TO.P,J5,19*
X83500000Y-75900000D03*
G04 #@! TO.P,J5,20*
G04 #@! TO.N,N/C*
X87700000Y-75900000D03*
G04 #@! TO.P,J5,21*
G04 #@! TO.N,+5V*
X91900000Y-75900000D03*
G04 #@! TO.P,J5,22*
X96100000Y-75900000D03*
G04 #@! TO.P,J5,23*
X100300000Y-75900000D03*
G04 #@! TO.P,J5,24*
G04 #@! TO.N,GND*
X104500000Y-75900000D03*
G04 #@! TD*
D13*
G04 #@! TO.P,J1,1*
G04 #@! TO.N,/5v_rpi*
X116550000Y-72800000D03*
D14*
G04 #@! TO.P,J1,2*
G04 #@! TO.N,/3v3_rpi*
X116550000Y-75340000D03*
G04 #@! TO.P,J1,3*
G04 #@! TO.N,/SDA*
X116550000Y-77880000D03*
G04 #@! TO.P,J1,4*
G04 #@! TO.N,/SCL*
X116550000Y-80420000D03*
G04 #@! TO.P,J1,5*
G04 #@! TO.N,GND*
X116550000Y-82960000D03*
G04 #@! TD*
D10*
G04 #@! TO.N,GND*
G04 #@! TO.C,J2*
G36*
X106374503Y-58801204D02*
X106398772Y-58804804D01*
X106422570Y-58810765D01*
X106445670Y-58819030D01*
X106467849Y-58829520D01*
X106488892Y-58842133D01*
X106508598Y-58856748D01*
X106526776Y-58873224D01*
X106543252Y-58891402D01*
X106557867Y-58911108D01*
X106570480Y-58932151D01*
X106580970Y-58954330D01*
X106589235Y-58977430D01*
X106595196Y-59001228D01*
X106598796Y-59025497D01*
X106600000Y-59050001D01*
X106600000Y-61249999D01*
X106598796Y-61274503D01*
X106595196Y-61298772D01*
X106589235Y-61322570D01*
X106580970Y-61345670D01*
X106570480Y-61367849D01*
X106557867Y-61388892D01*
X106543252Y-61408598D01*
X106526776Y-61426776D01*
X106508598Y-61443252D01*
X106488892Y-61457867D01*
X106467849Y-61470480D01*
X106445670Y-61480970D01*
X106422570Y-61489235D01*
X106398772Y-61495196D01*
X106374503Y-61498796D01*
X106349999Y-61500000D01*
X103550001Y-61500000D01*
X103525497Y-61498796D01*
X103501228Y-61495196D01*
X103477430Y-61489235D01*
X103454330Y-61480970D01*
X103432151Y-61470480D01*
X103411108Y-61457867D01*
X103391402Y-61443252D01*
X103373224Y-61426776D01*
X103356748Y-61408598D01*
X103342133Y-61388892D01*
X103329520Y-61367849D01*
X103319030Y-61345670D01*
X103310765Y-61322570D01*
X103304804Y-61298772D01*
X103301204Y-61274503D01*
X103300000Y-61249999D01*
X103300000Y-59050001D01*
X103301204Y-59025497D01*
X103304804Y-59001228D01*
X103310765Y-58977430D01*
X103319030Y-58954330D01*
X103329520Y-58932151D01*
X103342133Y-58911108D01*
X103356748Y-58891402D01*
X103373224Y-58873224D01*
X103391402Y-58856748D01*
X103411108Y-58842133D01*
X103432151Y-58829520D01*
X103454330Y-58819030D01*
X103477430Y-58810765D01*
X103501228Y-58804804D01*
X103525497Y-58801204D01*
X103550001Y-58800000D01*
X106349999Y-58800000D01*
X106374503Y-58801204D01*
X106374503Y-58801204D01*
G37*
D11*
G04 #@! TD*
G04 #@! TO.P,J2,1*
G04 #@! TO.N,GND*
X104950000Y-60150000D03*
D15*
G04 #@! TO.P,J2,2*
G04 #@! TO.N,GND*
X104950000Y-64350000D03*
G04 #@! TO.P,J2,3*
G04 #@! TO.N,+12V*
X99450000Y-60150000D03*
G04 #@! TO.P,J2,4*
X99450000Y-64350000D03*
G04 #@! TD*
D13*
G04 #@! TO.P,J4,1*
G04 #@! TO.N,/3v3_rpi*
X112074999Y-94765001D03*
D14*
G04 #@! TO.P,J4,2*
G04 #@! TO.N,/5v_rpi*
X112074999Y-97305001D03*
G04 #@! TO.P,J4,3*
G04 #@! TO.N,/SDA*
X109534999Y-94765001D03*
G04 #@! TO.P,J4,4*
G04 #@! TO.N,/5v_rpi*
X109534999Y-97305001D03*
G04 #@! TO.P,J4,5*
G04 #@! TO.N,/SCL*
X106994999Y-94765001D03*
G04 #@! TO.P,J4,6*
G04 #@! TO.N,GND*
X106994999Y-97305001D03*
G04 #@! TO.P,J4,7*
G04 #@! TO.N,N/C*
X104454999Y-94765001D03*
G04 #@! TO.P,J4,8*
X104454999Y-97305001D03*
G04 #@! TO.P,J4,9*
G04 #@! TO.N,GND*
X101914999Y-94765001D03*
G04 #@! TO.P,J4,10*
G04 #@! TO.N,N/C*
X101914999Y-97305001D03*
G04 #@! TO.P,J4,11*
G04 #@! TO.N,Net-(J4-Pad11)*
X99374999Y-94765001D03*
G04 #@! TO.P,J4,12*
G04 #@! TO.N,N/C*
X99374999Y-97305001D03*
G04 #@! TO.P,J4,13*
X96834999Y-94765001D03*
G04 #@! TO.P,J4,14*
G04 #@! TO.N,GND*
X96834999Y-97305001D03*
G04 #@! TO.P,J4,15*
G04 #@! TO.N,N/C*
X94294999Y-94765001D03*
G04 #@! TO.P,J4,16*
X94294999Y-97305001D03*
G04 #@! TO.P,J4,17*
G04 #@! TO.N,/3v3_rpi*
X91754999Y-94765001D03*
G04 #@! TO.P,J4,18*
G04 #@! TO.N,N/C*
X91754999Y-97305001D03*
G04 #@! TO.P,J4,19*
X89214999Y-94765001D03*
G04 #@! TO.P,J4,20*
G04 #@! TO.N,GND*
X89214999Y-97305001D03*
G04 #@! TO.P,J4,21*
G04 #@! TO.N,pson_pi*
X86674999Y-94765001D03*
G04 #@! TO.P,J4,22*
G04 #@! TO.N,N/C*
X86674999Y-97305001D03*
G04 #@! TO.P,J4,23*
X84134999Y-94765001D03*
G04 #@! TO.P,J4,24*
X84134999Y-97305001D03*
G04 #@! TO.P,J4,25*
G04 #@! TO.N,GND*
X81594999Y-94765001D03*
G04 #@! TO.P,J4,26*
G04 #@! TO.N,N/C*
X81594999Y-97305001D03*
G04 #@! TO.P,J4,27*
X79054999Y-94765001D03*
G04 #@! TO.P,J4,28*
X79054999Y-97305001D03*
G04 #@! TO.P,J4,29*
X76514999Y-94765001D03*
G04 #@! TO.P,J4,30*
G04 #@! TO.N,GND*
X76514999Y-97305001D03*
G04 #@! TO.P,J4,31*
G04 #@! TO.N,N/C*
X73974999Y-94765001D03*
G04 #@! TO.P,J4,32*
X73974999Y-97305001D03*
G04 #@! TO.P,J4,33*
X71434999Y-94765001D03*
G04 #@! TO.P,J4,34*
G04 #@! TO.N,GND*
X71434999Y-97305001D03*
G04 #@! TO.P,J4,35*
G04 #@! TO.N,N/C*
X68894999Y-94765001D03*
G04 #@! TO.P,J4,36*
X68894999Y-97305001D03*
G04 #@! TO.P,J4,37*
X66354999Y-94765001D03*
G04 #@! TO.P,J4,38*
X66354999Y-97305001D03*
G04 #@! TO.P,J4,39*
G04 #@! TO.N,GND*
X63814999Y-94765001D03*
G04 #@! TO.P,J4,40*
G04 #@! TO.N,N/C*
X63814999Y-97305001D03*
G04 #@! TD*
D13*
G04 #@! TO.P,J7,1*
G04 #@! TO.N,GND*
X95900000Y-86100000D03*
D14*
G04 #@! TO.P,J7,2*
G04 #@! TO.N,~ps_on_ext*
X95900000Y-83560000D03*
G04 #@! TD*
G04 #@! TO.P,JP1,3*
G04 #@! TO.N,+5V*
X111900000Y-77890000D03*
G04 #@! TO.P,JP1,2*
G04 #@! TO.N,/5v_rpi*
X111900000Y-75350000D03*
D13*
G04 #@! TO.P,JP1,1*
G04 #@! TO.N,+5VP*
X111900000Y-72810000D03*
G04 #@! TD*
D14*
G04 #@! TO.P,JP2,3*
G04 #@! TO.N,+5V*
X83000000Y-62740000D03*
G04 #@! TO.P,JP2,2*
G04 #@! TO.N,Net-(J3-Pad1)*
X83000000Y-60200000D03*
D13*
G04 #@! TO.P,JP2,1*
G04 #@! TO.N,+5VP*
X83000000Y-57660000D03*
G04 #@! TD*
D14*
G04 #@! TO.P,JP3,3*
G04 #@! TO.N,Net-(JP3-Pad3)*
X86360000Y-82900000D03*
G04 #@! TO.P,JP3,2*
G04 #@! TO.N,~PS_ON*
X88900000Y-82900000D03*
D13*
G04 #@! TO.P,JP3,1*
G04 #@! TO.N,~ps_on_ext*
X91440000Y-82900000D03*
G04 #@! TD*
D16*
G04 #@! TO.P,Q1,2*
G04 #@! TO.N,Net-(JP3-Pad3)*
X87270000Y-86530000D03*
G04 #@! TO.P,Q1,3*
G04 #@! TO.N,GND*
X88540000Y-87800000D03*
D17*
G04 #@! TO.P,Q1,1*
G04 #@! TO.N,Net-(Q1-Pad1)*
X86000000Y-87800000D03*
G04 #@! TD*
D18*
G04 #@! TO.P,J6,2*
G04 #@! TO.N,+12V*
X100100000Y-47300000D03*
D10*
G04 #@! TD*
G04 #@! TO.N,GND*
G04 #@! TO.C,J6*
G36*
X105874504Y-45501204D02*
X105898773Y-45504804D01*
X105922571Y-45510765D01*
X105945671Y-45519030D01*
X105967849Y-45529520D01*
X105988893Y-45542133D01*
X106008598Y-45556747D01*
X106026777Y-45573223D01*
X106043253Y-45591402D01*
X106057867Y-45611107D01*
X106070480Y-45632151D01*
X106080970Y-45654329D01*
X106089235Y-45677429D01*
X106095196Y-45701227D01*
X106098796Y-45725496D01*
X106100000Y-45750000D01*
X106100000Y-48850000D01*
X106098796Y-48874504D01*
X106095196Y-48898773D01*
X106089235Y-48922571D01*
X106080970Y-48945671D01*
X106070480Y-48967849D01*
X106057867Y-48988893D01*
X106043253Y-49008598D01*
X106026777Y-49026777D01*
X106008598Y-49043253D01*
X105988893Y-49057867D01*
X105967849Y-49070480D01*
X105945671Y-49080970D01*
X105922571Y-49089235D01*
X105898773Y-49095196D01*
X105874504Y-49098796D01*
X105850000Y-49100000D01*
X104350000Y-49100000D01*
X104325496Y-49098796D01*
X104301227Y-49095196D01*
X104277429Y-49089235D01*
X104254329Y-49080970D01*
X104232151Y-49070480D01*
X104211107Y-49057867D01*
X104191402Y-49043253D01*
X104173223Y-49026777D01*
X104156747Y-49008598D01*
X104142133Y-48988893D01*
X104129520Y-48967849D01*
X104119030Y-48945671D01*
X104110765Y-48922571D01*
X104104804Y-48898773D01*
X104101204Y-48874504D01*
X104100000Y-48850000D01*
X104100000Y-45750000D01*
X104101204Y-45725496D01*
X104104804Y-45701227D01*
X104110765Y-45677429D01*
X104119030Y-45654329D01*
X104129520Y-45632151D01*
X104142133Y-45611107D01*
X104156747Y-45591402D01*
X104173223Y-45573223D01*
X104191402Y-45556747D01*
X104211107Y-45542133D01*
X104232151Y-45529520D01*
X104254329Y-45519030D01*
X104277429Y-45510765D01*
X104301227Y-45504804D01*
X104325496Y-45501204D01*
X104350000Y-45500000D01*
X105850000Y-45500000D01*
X105874504Y-45501204D01*
X105874504Y-45501204D01*
G37*
D19*
G04 #@! TO.P,J6,1*
G04 #@! TO.N,GND*
X105100000Y-47300000D03*
G04 #@! TD*
D10*
G04 #@! TO.N,GND*
G04 #@! TO.C,J8*
G36*
X79874504Y-45501204D02*
X79898773Y-45504804D01*
X79922571Y-45510765D01*
X79945671Y-45519030D01*
X79967849Y-45529520D01*
X79988893Y-45542133D01*
X80008598Y-45556747D01*
X80026777Y-45573223D01*
X80043253Y-45591402D01*
X80057867Y-45611107D01*
X80070480Y-45632151D01*
X80080970Y-45654329D01*
X80089235Y-45677429D01*
X80095196Y-45701227D01*
X80098796Y-45725496D01*
X80100000Y-45750000D01*
X80100000Y-48850000D01*
X80098796Y-48874504D01*
X80095196Y-48898773D01*
X80089235Y-48922571D01*
X80080970Y-48945671D01*
X80070480Y-48967849D01*
X80057867Y-48988893D01*
X80043253Y-49008598D01*
X80026777Y-49026777D01*
X80008598Y-49043253D01*
X79988893Y-49057867D01*
X79967849Y-49070480D01*
X79945671Y-49080970D01*
X79922571Y-49089235D01*
X79898773Y-49095196D01*
X79874504Y-49098796D01*
X79850000Y-49100000D01*
X78350000Y-49100000D01*
X78325496Y-49098796D01*
X78301227Y-49095196D01*
X78277429Y-49089235D01*
X78254329Y-49080970D01*
X78232151Y-49070480D01*
X78211107Y-49057867D01*
X78191402Y-49043253D01*
X78173223Y-49026777D01*
X78156747Y-49008598D01*
X78142133Y-48988893D01*
X78129520Y-48967849D01*
X78119030Y-48945671D01*
X78110765Y-48922571D01*
X78104804Y-48898773D01*
X78101204Y-48874504D01*
X78100000Y-48850000D01*
X78100000Y-45750000D01*
X78101204Y-45725496D01*
X78104804Y-45701227D01*
X78110765Y-45677429D01*
X78119030Y-45654329D01*
X78129520Y-45632151D01*
X78142133Y-45611107D01*
X78156747Y-45591402D01*
X78173223Y-45573223D01*
X78191402Y-45556747D01*
X78211107Y-45542133D01*
X78232151Y-45529520D01*
X78254329Y-45519030D01*
X78277429Y-45510765D01*
X78301227Y-45504804D01*
X78325496Y-45501204D01*
X78350000Y-45500000D01*
X79850000Y-45500000D01*
X79874504Y-45501204D01*
X79874504Y-45501204D01*
G37*
D19*
G04 #@! TD*
G04 #@! TO.P,J8,1*
G04 #@! TO.N,GND*
X79100000Y-47300000D03*
D18*
G04 #@! TO.P,J8,2*
G04 #@! TO.N,+5V*
X74100000Y-47300000D03*
G04 #@! TD*
G04 #@! TO.P,J9,2*
G04 #@! TO.N,+5VP*
X87100000Y-47300000D03*
D10*
G04 #@! TD*
G04 #@! TO.N,GND*
G04 #@! TO.C,J9*
G36*
X92874504Y-45501204D02*
X92898773Y-45504804D01*
X92922571Y-45510765D01*
X92945671Y-45519030D01*
X92967849Y-45529520D01*
X92988893Y-45542133D01*
X93008598Y-45556747D01*
X93026777Y-45573223D01*
X93043253Y-45591402D01*
X93057867Y-45611107D01*
X93070480Y-45632151D01*
X93080970Y-45654329D01*
X93089235Y-45677429D01*
X93095196Y-45701227D01*
X93098796Y-45725496D01*
X93100000Y-45750000D01*
X93100000Y-48850000D01*
X93098796Y-48874504D01*
X93095196Y-48898773D01*
X93089235Y-48922571D01*
X93080970Y-48945671D01*
X93070480Y-48967849D01*
X93057867Y-48988893D01*
X93043253Y-49008598D01*
X93026777Y-49026777D01*
X93008598Y-49043253D01*
X92988893Y-49057867D01*
X92967849Y-49070480D01*
X92945671Y-49080970D01*
X92922571Y-49089235D01*
X92898773Y-49095196D01*
X92874504Y-49098796D01*
X92850000Y-49100000D01*
X91350000Y-49100000D01*
X91325496Y-49098796D01*
X91301227Y-49095196D01*
X91277429Y-49089235D01*
X91254329Y-49080970D01*
X91232151Y-49070480D01*
X91211107Y-49057867D01*
X91191402Y-49043253D01*
X91173223Y-49026777D01*
X91156747Y-49008598D01*
X91142133Y-48988893D01*
X91129520Y-48967849D01*
X91119030Y-48945671D01*
X91110765Y-48922571D01*
X91104804Y-48898773D01*
X91101204Y-48874504D01*
X91100000Y-48850000D01*
X91100000Y-45750000D01*
X91101204Y-45725496D01*
X91104804Y-45701227D01*
X91110765Y-45677429D01*
X91119030Y-45654329D01*
X91129520Y-45632151D01*
X91142133Y-45611107D01*
X91156747Y-45591402D01*
X91173223Y-45573223D01*
X91191402Y-45556747D01*
X91211107Y-45542133D01*
X91232151Y-45529520D01*
X91254329Y-45519030D01*
X91277429Y-45510765D01*
X91301227Y-45504804D01*
X91325496Y-45501204D01*
X91350000Y-45500000D01*
X92850000Y-45500000D01*
X92874504Y-45501204D01*
X92874504Y-45501204D01*
G37*
D19*
G04 #@! TO.P,J9,1*
G04 #@! TO.N,GND*
X92100000Y-47300000D03*
G04 #@! TD*
D10*
G04 #@! TO.N,GND*
G04 #@! TO.C,J10*
G36*
X66874504Y-45501204D02*
X66898773Y-45504804D01*
X66922571Y-45510765D01*
X66945671Y-45519030D01*
X66967849Y-45529520D01*
X66988893Y-45542133D01*
X67008598Y-45556747D01*
X67026777Y-45573223D01*
X67043253Y-45591402D01*
X67057867Y-45611107D01*
X67070480Y-45632151D01*
X67080970Y-45654329D01*
X67089235Y-45677429D01*
X67095196Y-45701227D01*
X67098796Y-45725496D01*
X67100000Y-45750000D01*
X67100000Y-48850000D01*
X67098796Y-48874504D01*
X67095196Y-48898773D01*
X67089235Y-48922571D01*
X67080970Y-48945671D01*
X67070480Y-48967849D01*
X67057867Y-48988893D01*
X67043253Y-49008598D01*
X67026777Y-49026777D01*
X67008598Y-49043253D01*
X66988893Y-49057867D01*
X66967849Y-49070480D01*
X66945671Y-49080970D01*
X66922571Y-49089235D01*
X66898773Y-49095196D01*
X66874504Y-49098796D01*
X66850000Y-49100000D01*
X65350000Y-49100000D01*
X65325496Y-49098796D01*
X65301227Y-49095196D01*
X65277429Y-49089235D01*
X65254329Y-49080970D01*
X65232151Y-49070480D01*
X65211107Y-49057867D01*
X65191402Y-49043253D01*
X65173223Y-49026777D01*
X65156747Y-49008598D01*
X65142133Y-48988893D01*
X65129520Y-48967849D01*
X65119030Y-48945671D01*
X65110765Y-48922571D01*
X65104804Y-48898773D01*
X65101204Y-48874504D01*
X65100000Y-48850000D01*
X65100000Y-45750000D01*
X65101204Y-45725496D01*
X65104804Y-45701227D01*
X65110765Y-45677429D01*
X65119030Y-45654329D01*
X65129520Y-45632151D01*
X65142133Y-45611107D01*
X65156747Y-45591402D01*
X65173223Y-45573223D01*
X65191402Y-45556747D01*
X65211107Y-45542133D01*
X65232151Y-45529520D01*
X65254329Y-45519030D01*
X65277429Y-45510765D01*
X65301227Y-45504804D01*
X65325496Y-45501204D01*
X65350000Y-45500000D01*
X66850000Y-45500000D01*
X66874504Y-45501204D01*
X66874504Y-45501204D01*
G37*
D19*
G04 #@! TD*
G04 #@! TO.P,J10,1*
G04 #@! TO.N,GND*
X66100000Y-47300000D03*
D18*
G04 #@! TO.P,J10,2*
G04 #@! TO.N,+3V3*
X61100000Y-47300000D03*
G04 #@! TD*
D10*
G04 #@! TO.N,GND*
G04 #@! TO.C,J11*
G36*
X118874504Y-45501204D02*
X118898773Y-45504804D01*
X118922571Y-45510765D01*
X118945671Y-45519030D01*
X118967849Y-45529520D01*
X118988893Y-45542133D01*
X119008598Y-45556747D01*
X119026777Y-45573223D01*
X119043253Y-45591402D01*
X119057867Y-45611107D01*
X119070480Y-45632151D01*
X119080970Y-45654329D01*
X119089235Y-45677429D01*
X119095196Y-45701227D01*
X119098796Y-45725496D01*
X119100000Y-45750000D01*
X119100000Y-48850000D01*
X119098796Y-48874504D01*
X119095196Y-48898773D01*
X119089235Y-48922571D01*
X119080970Y-48945671D01*
X119070480Y-48967849D01*
X119057867Y-48988893D01*
X119043253Y-49008598D01*
X119026777Y-49026777D01*
X119008598Y-49043253D01*
X118988893Y-49057867D01*
X118967849Y-49070480D01*
X118945671Y-49080970D01*
X118922571Y-49089235D01*
X118898773Y-49095196D01*
X118874504Y-49098796D01*
X118850000Y-49100000D01*
X117350000Y-49100000D01*
X117325496Y-49098796D01*
X117301227Y-49095196D01*
X117277429Y-49089235D01*
X117254329Y-49080970D01*
X117232151Y-49070480D01*
X117211107Y-49057867D01*
X117191402Y-49043253D01*
X117173223Y-49026777D01*
X117156747Y-49008598D01*
X117142133Y-48988893D01*
X117129520Y-48967849D01*
X117119030Y-48945671D01*
X117110765Y-48922571D01*
X117104804Y-48898773D01*
X117101204Y-48874504D01*
X117100000Y-48850000D01*
X117100000Y-45750000D01*
X117101204Y-45725496D01*
X117104804Y-45701227D01*
X117110765Y-45677429D01*
X117119030Y-45654329D01*
X117129520Y-45632151D01*
X117142133Y-45611107D01*
X117156747Y-45591402D01*
X117173223Y-45573223D01*
X117191402Y-45556747D01*
X117211107Y-45542133D01*
X117232151Y-45529520D01*
X117254329Y-45519030D01*
X117277429Y-45510765D01*
X117301227Y-45504804D01*
X117325496Y-45501204D01*
X117350000Y-45500000D01*
X118850000Y-45500000D01*
X118874504Y-45501204D01*
X118874504Y-45501204D01*
G37*
D19*
G04 #@! TD*
G04 #@! TO.P,J11,1*
G04 #@! TO.N,GND*
X118100000Y-47300000D03*
D18*
G04 #@! TO.P,J11,2*
G04 #@! TO.N,+12V*
X113100000Y-47300000D03*
G04 #@! TD*
D20*
G04 #@! TO.P,J3,5*
G04 #@! TO.N,GND*
X64290000Y-65370000D03*
X64290000Y-52230000D03*
D21*
G04 #@! TO.P,J3,1*
G04 #@! TO.N,Net-(J3-Pad1)*
X67000000Y-55300000D03*
D22*
G04 #@! TO.P,J3,2*
G04 #@! TO.N,Net-(J3-Pad2)*
X67000000Y-57800000D03*
G04 #@! TO.P,J3,3*
X67000000Y-59800000D03*
G04 #@! TO.P,J3,4*
G04 #@! TO.N,GND*
X67000000Y-62300000D03*
G04 #@! TD*
D23*
G04 #@! TO.P,R1,1*
G04 #@! TO.N,Net-(J4-Pad11)*
X99500000Y-88500000D03*
D24*
G04 #@! TO.P,R1,2*
G04 #@! TO.N,P_GOOD*
X99500000Y-80880000D03*
G04 #@! TD*
G04 #@! TO.P,R2,2*
G04 #@! TO.N,Net-(J4-Pad11)*
X103020000Y-91400000D03*
D23*
G04 #@! TO.P,R2,1*
G04 #@! TO.N,GND*
X95400000Y-91400000D03*
G04 #@! TD*
G04 #@! TO.P,R3,1*
G04 #@! TO.N,Net-(Q1-Pad1)*
X85600000Y-91400000D03*
D24*
G04 #@! TO.P,R3,2*
G04 #@! TO.N,GND*
X93220000Y-91400000D03*
G04 #@! TD*
G04 #@! TO.P,R4,2*
G04 #@! TO.N,Net-(Q1-Pad1)*
X82700000Y-84180000D03*
D23*
G04 #@! TO.P,R4,1*
G04 #@! TO.N,pson_pi*
X82700000Y-91800000D03*
G04 #@! TD*
G04 #@! TO.P,R5,1*
G04 #@! TO.N,/SCL*
X105180000Y-91400000D03*
D24*
G04 #@! TO.P,R5,2*
G04 #@! TO.N,/3v3_rpi*
X112800000Y-91400000D03*
G04 #@! TD*
G04 #@! TO.P,R6,2*
G04 #@! TO.N,/SDA*
X105180000Y-88300000D03*
D23*
G04 #@! TO.P,R6,1*
G04 #@! TO.N,/3v3_rpi*
X112800000Y-88300000D03*
G04 #@! TD*
D25*
G04 #@! TO.N,/5v_rpi*
X109534999Y-97305001D02*
X112074999Y-97305001D01*
D26*
G04 #@! TO.N,/SCL*
X105180000Y-91400000D02*
X106311370Y-91400000D01*
X106994999Y-92083629D02*
X106311370Y-91400000D01*
X106994999Y-94765001D02*
X106994999Y-92083629D01*
D27*
G04 #@! TO.N,GND*
X105100000Y-60000000D02*
X104950000Y-60150000D01*
X105100000Y-51000000D02*
X105100000Y-60000000D01*
X79300000Y-75900000D02*
X83500000Y-75900000D01*
X105100000Y-51000000D02*
X105100000Y-47300000D01*
D28*
X64290000Y-65370000D02*
X68370000Y-65370000D01*
X62168680Y-65370000D02*
X60600000Y-63801320D01*
X64290000Y-65370000D02*
X62168680Y-65370000D01*
D26*
X92140000Y-91400000D02*
X93220000Y-91400000D01*
X88540000Y-87800000D02*
X92140000Y-91400000D01*
X93220000Y-91400000D02*
X95400000Y-91400000D01*
X95900000Y-90900000D02*
X95400000Y-91400000D01*
X95900000Y-86100000D02*
X95900000Y-90900000D01*
X95900000Y-86100000D02*
X99340000Y-86100000D01*
D27*
G04 #@! TO.N,+12V*
X99450000Y-60150000D02*
X99450000Y-55550000D01*
X100100000Y-55400000D02*
X100100000Y-51000000D01*
X99950000Y-55550000D02*
X100100000Y-55400000D01*
X99450000Y-55550000D02*
X99950000Y-55550000D01*
D26*
G04 #@! TO.N,Net-(J4-Pad11)*
X101888630Y-91400000D02*
X103020000Y-91400000D01*
X101537919Y-91400000D02*
X101888630Y-91400000D01*
X99374999Y-93562920D02*
X101537919Y-91400000D01*
X99374999Y-94765001D02*
X99374999Y-93562920D01*
X99374999Y-88625001D02*
X99500000Y-88500000D01*
X99374999Y-94765001D02*
X99374999Y-88625001D01*
G04 #@! TO.N,pson_pi*
X86674999Y-94765001D02*
X85009998Y-93100000D01*
X84000000Y-93100000D02*
X82700000Y-91800000D01*
X85009998Y-93100000D02*
X84000000Y-93100000D01*
D29*
G04 #@! TO.N,+3V3*
X62500000Y-72850000D02*
X62500000Y-70400000D01*
X85600000Y-68700000D02*
X85600000Y-72150000D01*
X85600000Y-72150000D02*
X84600000Y-73150000D01*
X86600000Y-67700000D02*
X85600000Y-68700000D01*
X84600000Y-73150000D02*
X62800000Y-73150000D01*
X62800000Y-73150000D02*
X62500000Y-72850000D01*
X89800000Y-68900000D02*
X88600000Y-67700000D01*
X88600000Y-67700000D02*
X86600000Y-67700000D01*
D26*
X104500000Y-72450000D02*
X103350000Y-73600000D01*
X104500000Y-70400000D02*
X104500000Y-72450000D01*
X103350000Y-73600000D02*
X90500000Y-73600000D01*
X89800000Y-72900000D02*
X89800000Y-71600000D01*
X90500000Y-73600000D02*
X89800000Y-72900000D01*
D29*
X89800000Y-71600000D02*
X89800000Y-68900000D01*
D26*
G04 #@! TO.N,~PS_ON*
X70900000Y-77950000D02*
X73250000Y-80300000D01*
X70900000Y-75900000D02*
X70900000Y-77950000D01*
X86300000Y-80300000D02*
X88900000Y-82900000D01*
X73250000Y-80300000D02*
X86300000Y-80300000D01*
G04 #@! TO.N,P_GOOD*
X98120000Y-79500000D02*
X99500000Y-80880000D01*
X90800000Y-79500000D02*
X98120000Y-79500000D01*
X89800000Y-78500000D02*
X90800000Y-79500000D01*
X89800000Y-74550000D02*
X89800000Y-78500000D01*
X87700000Y-70400000D02*
X87700000Y-72450000D01*
X87700000Y-72450000D02*
X89800000Y-74550000D01*
D28*
G04 #@! TO.N,+5VP*
X91900000Y-65600000D02*
X91900000Y-70400000D01*
X87100000Y-60800000D02*
X91900000Y-65600000D01*
X86940000Y-57660000D02*
X87100000Y-57500000D01*
X83000000Y-57660000D02*
X86940000Y-57660000D01*
X87100000Y-51000000D02*
X87100000Y-57500000D01*
X87100000Y-57500000D02*
X87100000Y-60800000D01*
D30*
X91900000Y-70400000D02*
X91900000Y-70700000D01*
X91900000Y-70700000D02*
X91900000Y-71300000D01*
X91900000Y-71300000D02*
X93500000Y-72900000D01*
X101000000Y-72900000D02*
X101700000Y-72900000D01*
X93500000Y-72900000D02*
X101000000Y-72900000D01*
X101700000Y-72900000D02*
X102400000Y-72200000D01*
X103600000Y-67800000D02*
X104900000Y-67800000D01*
X104900000Y-67800000D02*
X105800000Y-67800000D01*
D31*
X103600000Y-67800000D02*
X102400000Y-69000000D01*
D30*
X102400000Y-72200000D02*
X102400000Y-69000000D01*
D28*
X87100000Y-51000000D02*
X87100000Y-47300000D01*
D26*
G04 #@! TO.N,~ps_on_ext*
X95240000Y-82900000D02*
X95900000Y-83560000D01*
X91440000Y-82900000D02*
X95240000Y-82900000D01*
G04 #@! TO.N,Net-(JP3-Pad3)*
X86360000Y-85620000D02*
X87270000Y-86530000D01*
X86360000Y-82900000D02*
X86360000Y-85620000D01*
G04 #@! TO.N,/3v3_rpi*
X112800000Y-91400000D02*
X112800000Y-88300000D01*
X112800000Y-94040000D02*
X112074999Y-94765001D01*
X112800000Y-91400000D02*
X112800000Y-94040000D01*
D31*
X114834999Y-94765001D02*
X112074999Y-94765001D01*
X119300000Y-90300000D02*
X114834999Y-94765001D01*
X116550000Y-75340000D02*
X119300000Y-78090000D01*
X119300000Y-78090000D02*
X119300000Y-90300000D01*
G04 #@! TO.N,+5VP*
X111900000Y-70960000D02*
X111900000Y-72810000D01*
X108740000Y-67800000D02*
X111900000Y-70960000D01*
X103600000Y-67800000D02*
X108740000Y-67800000D01*
D26*
G04 #@! TO.N,Net-(Q1-Pad1)*
X86000000Y-87480000D02*
X86000000Y-87800000D01*
X82700000Y-84180000D02*
X86000000Y-87480000D01*
X85600000Y-88200000D02*
X86000000Y-87800000D01*
X85600000Y-91400000D02*
X85600000Y-88200000D01*
D28*
G04 #@! TO.N,Net-(J3-Pad1)*
X83000000Y-60200000D02*
X79800000Y-60200000D01*
X74900000Y-55300000D02*
X67000000Y-55300000D01*
X79800000Y-60200000D02*
X74900000Y-55300000D01*
G04 #@! TO.N,Net-(J3-Pad2)*
X67000000Y-59800000D02*
X67000000Y-57800000D01*
D26*
G04 #@! TO.N,/SDA*
X115600000Y-77880000D02*
X105180000Y-88300000D01*
X116550000Y-77880000D02*
X115600000Y-77880000D01*
G04 #@! TO.N,/SCL*
X115347919Y-80420000D02*
X113200000Y-82567919D01*
X116550000Y-80420000D02*
X115347919Y-80420000D01*
X113200000Y-84511370D02*
X111311370Y-86400000D01*
X113200000Y-82567919D02*
X113200000Y-84511370D01*
X106311370Y-91400000D02*
X111311370Y-86400000D01*
X111311370Y-86400000D02*
X111500000Y-86211370D01*
G04 #@! TD*
D32*
G04 #@! TO.N,+12V*
G36*
X115573000Y-53373000D02*
X107035000Y-53373000D01*
X107035000Y-47109424D01*
X106922729Y-46545001D01*
X106747440Y-46282662D01*
X106747440Y-45750000D01*
X106679126Y-45406565D01*
X106484586Y-45115414D01*
X106193435Y-44920874D01*
X105850000Y-44852560D01*
X104350000Y-44852560D01*
X104006565Y-44920874D01*
X103715414Y-45115414D01*
X103520874Y-45406565D01*
X103452560Y-45750000D01*
X103452560Y-46282663D01*
X103277272Y-46545001D01*
X103165001Y-47109424D01*
X103165000Y-50809424D01*
X103165000Y-53373000D01*
X102400000Y-53373000D01*
X102351399Y-53382667D01*
X102310197Y-53410197D01*
X102282667Y-53451399D01*
X102273000Y-53500000D01*
X102273000Y-67521868D01*
X101518392Y-68276477D01*
X101330854Y-68557146D01*
X101242765Y-69000000D01*
X101330854Y-69442854D01*
X101465001Y-69643618D01*
X101465000Y-71812710D01*
X101312711Y-71965000D01*
X94327000Y-71965000D01*
X94327000Y-41210000D01*
X115573000Y-41210000D01*
X115573000Y-53373000D01*
X115573000Y-53373000D01*
G37*
X115573000Y-53373000D02*
X107035000Y-53373000D01*
X107035000Y-47109424D01*
X106922729Y-46545001D01*
X106747440Y-46282662D01*
X106747440Y-45750000D01*
X106679126Y-45406565D01*
X106484586Y-45115414D01*
X106193435Y-44920874D01*
X105850000Y-44852560D01*
X104350000Y-44852560D01*
X104006565Y-44920874D01*
X103715414Y-45115414D01*
X103520874Y-45406565D01*
X103452560Y-45750000D01*
X103452560Y-46282663D01*
X103277272Y-46545001D01*
X103165001Y-47109424D01*
X103165000Y-50809424D01*
X103165000Y-53373000D01*
X102400000Y-53373000D01*
X102351399Y-53382667D01*
X102310197Y-53410197D01*
X102282667Y-53451399D01*
X102273000Y-53500000D01*
X102273000Y-67521868D01*
X101518392Y-68276477D01*
X101330854Y-68557146D01*
X101242765Y-69000000D01*
X101330854Y-69442854D01*
X101465001Y-69643618D01*
X101465000Y-71812710D01*
X101312711Y-71965000D01*
X94327000Y-71965000D01*
X94327000Y-41210000D01*
X115573000Y-41210000D01*
X115573000Y-53373000D01*
G04 #@! TO.N,GND*
G36*
X65231010Y-55300000D02*
X65365666Y-55976963D01*
X65748558Y-56550001D01*
X65365667Y-57123037D01*
X65265001Y-57629120D01*
X65265000Y-59970879D01*
X65365666Y-60476962D01*
X65749135Y-61050865D01*
X66278573Y-61404624D01*
X67000000Y-62126052D01*
X67721429Y-61404622D01*
X68250865Y-61050865D01*
X68634334Y-60476963D01*
X68735000Y-59970880D01*
X68735000Y-57629120D01*
X68634334Y-57123037D01*
X68575510Y-57035000D01*
X74181341Y-57035000D01*
X78452340Y-61306001D01*
X78549135Y-61450865D01*
X79123037Y-61834334D01*
X79629120Y-61935000D01*
X79629124Y-61935000D01*
X79799999Y-61968989D01*
X79970874Y-61935000D01*
X81751890Y-61935000D01*
X81601161Y-62160582D01*
X81485908Y-62740000D01*
X81601161Y-63319418D01*
X81929375Y-63810625D01*
X82420582Y-64138839D01*
X82853744Y-64225000D01*
X83146256Y-64225000D01*
X83579418Y-64138839D01*
X84070625Y-63810625D01*
X84398839Y-63319418D01*
X84514092Y-62740000D01*
X84398839Y-62160582D01*
X84070625Y-61669375D01*
X83997233Y-61620336D01*
X84250865Y-61450865D01*
X84634334Y-60876963D01*
X84768990Y-60200000D01*
X84634334Y-59523037D01*
X84548782Y-59395000D01*
X85365001Y-59395000D01*
X85365001Y-60629117D01*
X85331010Y-60800000D01*
X85389934Y-61096228D01*
X85465667Y-61476963D01*
X85849136Y-62050865D01*
X85994003Y-62147662D01*
X90165000Y-66318660D01*
X90165000Y-67801290D01*
X89403937Y-67040227D01*
X89346193Y-66953807D01*
X89003837Y-66725052D01*
X88701935Y-66665000D01*
X88701934Y-66665000D01*
X88600000Y-66644724D01*
X88498066Y-66665000D01*
X86701934Y-66665000D01*
X86600000Y-66644724D01*
X86498065Y-66665000D01*
X86196163Y-66725052D01*
X85853807Y-66953807D01*
X85796065Y-67040224D01*
X84940227Y-67896063D01*
X84853807Y-67953807D01*
X84660673Y-68242854D01*
X84625052Y-68296164D01*
X84587480Y-68485051D01*
X84142928Y-68226420D01*
X83930157Y-68170364D01*
X83623000Y-68283911D01*
X83623000Y-70277000D01*
X83643000Y-70277000D01*
X83643000Y-70523000D01*
X83623000Y-70523000D01*
X83623000Y-70543000D01*
X83377000Y-70543000D01*
X83377000Y-70523000D01*
X81523000Y-70523000D01*
X81523000Y-70823000D01*
X81720560Y-71570202D01*
X82135737Y-72115000D01*
X80741866Y-72115000D01*
X81169829Y-71474508D01*
X81285000Y-70895502D01*
X81285000Y-69977000D01*
X81523000Y-69977000D01*
X81523000Y-70277000D01*
X83377000Y-70277000D01*
X83377000Y-68283911D01*
X83069843Y-68170364D01*
X82857072Y-68226420D01*
X82189024Y-68615076D01*
X81720560Y-69229798D01*
X81523000Y-69977000D01*
X81285000Y-69977000D01*
X81285000Y-69904497D01*
X81169829Y-69325492D01*
X80731105Y-68668895D01*
X80074507Y-68230171D01*
X79300000Y-68076112D01*
X78525492Y-68230171D01*
X77868895Y-68668895D01*
X77430171Y-69325493D01*
X77315000Y-69904498D01*
X77315000Y-70895503D01*
X77430171Y-71474508D01*
X77858135Y-72115000D01*
X76464263Y-72115000D01*
X76879440Y-71570202D01*
X77077000Y-70823000D01*
X77077000Y-70523000D01*
X75223000Y-70523000D01*
X75223000Y-70543000D01*
X74977000Y-70543000D01*
X74977000Y-70523000D01*
X73123000Y-70523000D01*
X73123000Y-70823000D01*
X73320560Y-71570202D01*
X73735737Y-72115000D01*
X72341866Y-72115000D01*
X72769829Y-71474508D01*
X72885000Y-70895502D01*
X72885000Y-69977000D01*
X73123000Y-69977000D01*
X73123000Y-70277000D01*
X74977000Y-70277000D01*
X74977000Y-68283911D01*
X75223000Y-68283911D01*
X75223000Y-70277000D01*
X77077000Y-70277000D01*
X77077000Y-69977000D01*
X76879440Y-69229798D01*
X76410976Y-68615076D01*
X75742928Y-68226420D01*
X75530157Y-68170364D01*
X75223000Y-68283911D01*
X74977000Y-68283911D01*
X74669843Y-68170364D01*
X74457072Y-68226420D01*
X73789024Y-68615076D01*
X73320560Y-69229798D01*
X73123000Y-69977000D01*
X72885000Y-69977000D01*
X72885000Y-69904497D01*
X72769829Y-69325492D01*
X72331105Y-68668895D01*
X71674507Y-68230171D01*
X70900000Y-68076112D01*
X70125492Y-68230171D01*
X69468895Y-68668895D01*
X69030171Y-69325493D01*
X68915000Y-69904498D01*
X68915000Y-70895503D01*
X69030171Y-71474508D01*
X69458135Y-72115000D01*
X68064263Y-72115000D01*
X68479440Y-71570202D01*
X68677000Y-70823000D01*
X68677000Y-70523000D01*
X66823000Y-70523000D01*
X66823000Y-70543000D01*
X66577000Y-70543000D01*
X66577000Y-70523000D01*
X64723000Y-70523000D01*
X64723000Y-70823000D01*
X64920560Y-71570202D01*
X65335737Y-72115000D01*
X63941866Y-72115000D01*
X64369829Y-71474508D01*
X64485000Y-70895502D01*
X64485000Y-69977000D01*
X64723000Y-69977000D01*
X64723000Y-70277000D01*
X66577000Y-70277000D01*
X66577000Y-68283911D01*
X66823000Y-68283911D01*
X66823000Y-70277000D01*
X68677000Y-70277000D01*
X68677000Y-69977000D01*
X68479440Y-69229798D01*
X68010976Y-68615076D01*
X67342928Y-68226420D01*
X67130157Y-68170364D01*
X66823000Y-68283911D01*
X66577000Y-68283911D01*
X66269843Y-68170364D01*
X66057072Y-68226420D01*
X65389024Y-68615076D01*
X64920560Y-69229798D01*
X64723000Y-69977000D01*
X64485000Y-69977000D01*
X64485000Y-69904497D01*
X64369829Y-69325492D01*
X63931105Y-68668895D01*
X63274507Y-68230171D01*
X62500000Y-68076112D01*
X61725492Y-68230171D01*
X61068895Y-68668895D01*
X60630171Y-69325493D01*
X60515000Y-69904498D01*
X60515000Y-70895503D01*
X60630171Y-71474508D01*
X61068896Y-72131105D01*
X61465000Y-72395773D01*
X61465000Y-72748065D01*
X61444724Y-72850000D01*
X61465000Y-72951934D01*
X61525052Y-73253836D01*
X61753807Y-73596193D01*
X61840227Y-73653937D01*
X61884777Y-73698487D01*
X61725492Y-73730171D01*
X61068895Y-74168895D01*
X60630171Y-74825493D01*
X60515000Y-75404498D01*
X60515000Y-76395503D01*
X60630171Y-76974508D01*
X61068896Y-77631105D01*
X61725493Y-78069829D01*
X62500000Y-78223888D01*
X63274508Y-78069829D01*
X63931105Y-77631105D01*
X64369829Y-76974508D01*
X64485000Y-76395502D01*
X64485000Y-76023000D01*
X64723000Y-76023000D01*
X64723000Y-76323000D01*
X64920560Y-77070202D01*
X65389024Y-77684924D01*
X66057072Y-78073580D01*
X66269843Y-78129636D01*
X66577000Y-78016089D01*
X66577000Y-76023000D01*
X66823000Y-76023000D01*
X66823000Y-78016089D01*
X67130157Y-78129636D01*
X67342928Y-78073580D01*
X68010976Y-77684924D01*
X68479440Y-77070202D01*
X68677000Y-76323000D01*
X68677000Y-76023000D01*
X66823000Y-76023000D01*
X66577000Y-76023000D01*
X64723000Y-76023000D01*
X64485000Y-76023000D01*
X64485000Y-75404497D01*
X64369829Y-74825492D01*
X63941866Y-74185000D01*
X65335737Y-74185000D01*
X64920560Y-74729798D01*
X64723000Y-75477000D01*
X64723000Y-75777000D01*
X66577000Y-75777000D01*
X66577000Y-75757000D01*
X66823000Y-75757000D01*
X66823000Y-75777000D01*
X68677000Y-75777000D01*
X68677000Y-75477000D01*
X68479440Y-74729798D01*
X68064263Y-74185000D01*
X69458134Y-74185000D01*
X69030171Y-74825493D01*
X68915000Y-75404498D01*
X68915000Y-76395503D01*
X69030171Y-76974508D01*
X69468896Y-77631105D01*
X70064352Y-78028976D01*
X70113448Y-78275800D01*
X70113449Y-78275801D01*
X70298000Y-78552001D01*
X70367718Y-78598585D01*
X72601415Y-80832283D01*
X72647999Y-80902001D01*
X72723253Y-80952284D01*
X72924199Y-81086552D01*
X73250000Y-81151358D01*
X73332237Y-81135000D01*
X85954133Y-81135000D01*
X86234133Y-81415000D01*
X86213744Y-81415000D01*
X85780582Y-81501161D01*
X85289375Y-81829375D01*
X84961161Y-82320582D01*
X84845908Y-82900000D01*
X84961161Y-83479418D01*
X85289375Y-83970625D01*
X85525000Y-84128065D01*
X85525001Y-85537762D01*
X85508643Y-85620000D01*
X85555268Y-85854400D01*
X84116285Y-84415418D01*
X84163113Y-84180000D01*
X84051740Y-83620091D01*
X83734577Y-83145423D01*
X83259909Y-82828260D01*
X82841333Y-82745000D01*
X82558667Y-82745000D01*
X82140091Y-82828260D01*
X81665423Y-83145423D01*
X81348260Y-83620091D01*
X81236887Y-84180000D01*
X81348260Y-84739909D01*
X81665423Y-85214577D01*
X82140091Y-85531740D01*
X82558667Y-85615000D01*
X82841333Y-85615000D01*
X82935418Y-85596285D01*
X84702560Y-87363428D01*
X84702560Y-88450000D01*
X84751843Y-88697765D01*
X84765001Y-88717457D01*
X84765000Y-90205604D01*
X84383466Y-90587138D01*
X84165000Y-91114561D01*
X84165000Y-91685439D01*
X84383466Y-92212862D01*
X84435604Y-92265000D01*
X84345868Y-92265000D01*
X84135000Y-92054132D01*
X84135000Y-91514561D01*
X83916534Y-90987138D01*
X83512862Y-90583466D01*
X82985439Y-90365000D01*
X82414561Y-90365000D01*
X81887138Y-90583466D01*
X81483466Y-90987138D01*
X81265000Y-91514561D01*
X81265000Y-92085439D01*
X81483466Y-92612862D01*
X81887138Y-93016534D01*
X82414561Y-93235000D01*
X82954132Y-93235000D01*
X83273665Y-93554532D01*
X83064374Y-93694376D01*
X82846275Y-94020784D01*
X82785715Y-93891072D01*
X82360639Y-93501929D01*
X81946736Y-93330494D01*
X81717999Y-93450493D01*
X81717999Y-94642001D01*
X81737999Y-94642001D01*
X81737999Y-94888001D01*
X81717999Y-94888001D01*
X81717999Y-94908001D01*
X81471999Y-94908001D01*
X81471999Y-94888001D01*
X81451999Y-94888001D01*
X81451999Y-94642001D01*
X81471999Y-94642001D01*
X81471999Y-93450493D01*
X81243262Y-93330494D01*
X80829359Y-93501929D01*
X80404283Y-93891072D01*
X80343723Y-94020784D01*
X80125624Y-93694376D01*
X79634417Y-93366162D01*
X79201255Y-93280001D01*
X78908743Y-93280001D01*
X78475581Y-93366162D01*
X77984374Y-93694376D01*
X77784999Y-93992762D01*
X77585624Y-93694376D01*
X77094417Y-93366162D01*
X76661255Y-93280001D01*
X76368743Y-93280001D01*
X75935581Y-93366162D01*
X75444374Y-93694376D01*
X75244999Y-93992762D01*
X75045624Y-93694376D01*
X74554417Y-93366162D01*
X74121255Y-93280001D01*
X73828743Y-93280001D01*
X73395581Y-93366162D01*
X72904374Y-93694376D01*
X72704999Y-93992762D01*
X72505624Y-93694376D01*
X72014417Y-93366162D01*
X71581255Y-93280001D01*
X71288743Y-93280001D01*
X70855581Y-93366162D01*
X70364374Y-93694376D01*
X70164999Y-93992762D01*
X69965624Y-93694376D01*
X69474417Y-93366162D01*
X69041255Y-93280001D01*
X68748743Y-93280001D01*
X68315581Y-93366162D01*
X67824374Y-93694376D01*
X67624999Y-93992762D01*
X67425624Y-93694376D01*
X66934417Y-93366162D01*
X66501255Y-93280001D01*
X66208743Y-93280001D01*
X65775581Y-93366162D01*
X65284374Y-93694376D01*
X65066275Y-94020784D01*
X65005715Y-93891072D01*
X64580639Y-93501929D01*
X64166736Y-93330494D01*
X63937999Y-93450493D01*
X63937999Y-94642001D01*
X63957999Y-94642001D01*
X63957999Y-94888001D01*
X63937999Y-94888001D01*
X63937999Y-94908001D01*
X63691999Y-94908001D01*
X63691999Y-94888001D01*
X62499870Y-94888001D01*
X62380483Y-95116739D01*
X62624283Y-95638930D01*
X63049359Y-96028073D01*
X63051686Y-96029037D01*
X62744374Y-96234376D01*
X62416160Y-96725583D01*
X62300907Y-97305001D01*
X62416160Y-97884419D01*
X62744374Y-98375626D01*
X63235581Y-98703840D01*
X63668743Y-98790001D01*
X63961255Y-98790001D01*
X64394417Y-98703840D01*
X64885624Y-98375626D01*
X65084999Y-98077240D01*
X65284374Y-98375626D01*
X65775581Y-98703840D01*
X66208743Y-98790001D01*
X66501255Y-98790001D01*
X66934417Y-98703840D01*
X67425624Y-98375626D01*
X67624999Y-98077240D01*
X67824374Y-98375626D01*
X68315581Y-98703840D01*
X68748743Y-98790001D01*
X69041255Y-98790001D01*
X69474417Y-98703840D01*
X69965624Y-98375626D01*
X70183723Y-98049218D01*
X70244283Y-98178930D01*
X70669359Y-98568073D01*
X71083262Y-98739508D01*
X71311999Y-98619509D01*
X71311999Y-97428001D01*
X71291999Y-97428001D01*
X71291999Y-97182001D01*
X71311999Y-97182001D01*
X71311999Y-97162001D01*
X71557999Y-97162001D01*
X71557999Y-97182001D01*
X71577999Y-97182001D01*
X71577999Y-97428001D01*
X71557999Y-97428001D01*
X71557999Y-98619509D01*
X71786736Y-98739508D01*
X72200639Y-98568073D01*
X72625715Y-98178930D01*
X72686275Y-98049218D01*
X72904374Y-98375626D01*
X73395581Y-98703840D01*
X73828743Y-98790001D01*
X74121255Y-98790001D01*
X74554417Y-98703840D01*
X75045624Y-98375626D01*
X75263723Y-98049218D01*
X75324283Y-98178930D01*
X75749359Y-98568073D01*
X76163262Y-98739508D01*
X76391999Y-98619509D01*
X76391999Y-97428001D01*
X76371999Y-97428001D01*
X76371999Y-97182001D01*
X76391999Y-97182001D01*
X76391999Y-97162001D01*
X76637999Y-97162001D01*
X76637999Y-97182001D01*
X76657999Y-97182001D01*
X76657999Y-97428001D01*
X76637999Y-97428001D01*
X76637999Y-98619509D01*
X76866736Y-98739508D01*
X77280639Y-98568073D01*
X77705715Y-98178930D01*
X77766275Y-98049218D01*
X77984374Y-98375626D01*
X78475581Y-98703840D01*
X78908743Y-98790001D01*
X79201255Y-98790001D01*
X79634417Y-98703840D01*
X80125624Y-98375626D01*
X80324999Y-98077240D01*
X80524374Y-98375626D01*
X81015581Y-98703840D01*
X81448743Y-98790001D01*
X81741255Y-98790001D01*
X82174417Y-98703840D01*
X82665624Y-98375626D01*
X82864999Y-98077240D01*
X83064374Y-98375626D01*
X83555581Y-98703840D01*
X83988743Y-98790001D01*
X84281255Y-98790001D01*
X84714417Y-98703840D01*
X85205624Y-98375626D01*
X85404999Y-98077240D01*
X85604374Y-98375626D01*
X86095581Y-98703840D01*
X86528743Y-98790001D01*
X86821255Y-98790001D01*
X87254417Y-98703840D01*
X87745624Y-98375626D01*
X87963723Y-98049218D01*
X88024283Y-98178930D01*
X88449359Y-98568073D01*
X88863262Y-98739508D01*
X89091999Y-98619509D01*
X89091999Y-97428001D01*
X89071999Y-97428001D01*
X89071999Y-97182001D01*
X89091999Y-97182001D01*
X89091999Y-97162001D01*
X89337999Y-97162001D01*
X89337999Y-97182001D01*
X89357999Y-97182001D01*
X89357999Y-97428001D01*
X89337999Y-97428001D01*
X89337999Y-98619509D01*
X89566736Y-98739508D01*
X89980639Y-98568073D01*
X90405715Y-98178930D01*
X90466275Y-98049218D01*
X90684374Y-98375626D01*
X91175581Y-98703840D01*
X91608743Y-98790001D01*
X91901255Y-98790001D01*
X92334417Y-98703840D01*
X92825624Y-98375626D01*
X93024999Y-98077240D01*
X93224374Y-98375626D01*
X93715581Y-98703840D01*
X94148743Y-98790001D01*
X94441255Y-98790001D01*
X94874417Y-98703840D01*
X95365624Y-98375626D01*
X95583723Y-98049218D01*
X95644283Y-98178930D01*
X96069359Y-98568073D01*
X96483262Y-98739508D01*
X96711999Y-98619509D01*
X96711999Y-97428001D01*
X96691999Y-97428001D01*
X96691999Y-97182001D01*
X96711999Y-97182001D01*
X96711999Y-97162001D01*
X96957999Y-97162001D01*
X96957999Y-97182001D01*
X96977999Y-97182001D01*
X96977999Y-97428001D01*
X96957999Y-97428001D01*
X96957999Y-98619509D01*
X97186736Y-98739508D01*
X97600639Y-98568073D01*
X98025715Y-98178930D01*
X98086275Y-98049218D01*
X98304374Y-98375626D01*
X98795581Y-98703840D01*
X99228743Y-98790001D01*
X99521255Y-98790001D01*
X99954417Y-98703840D01*
X100445624Y-98375626D01*
X100644999Y-98077240D01*
X100844374Y-98375626D01*
X101335581Y-98703840D01*
X101768743Y-98790001D01*
X102061255Y-98790001D01*
X102494417Y-98703840D01*
X102985624Y-98375626D01*
X103184999Y-98077240D01*
X103384374Y-98375626D01*
X103875581Y-98703840D01*
X104308743Y-98790001D01*
X104601255Y-98790001D01*
X105034417Y-98703840D01*
X105525624Y-98375626D01*
X105743723Y-98049218D01*
X105804283Y-98178930D01*
X106229359Y-98568073D01*
X106643262Y-98739508D01*
X106871999Y-98619509D01*
X106871999Y-97428001D01*
X106851999Y-97428001D01*
X106851999Y-97182001D01*
X106871999Y-97182001D01*
X106871999Y-97162001D01*
X107117999Y-97162001D01*
X107117999Y-97182001D01*
X107137999Y-97182001D01*
X107137999Y-97428001D01*
X107117999Y-97428001D01*
X107117999Y-98619509D01*
X107346736Y-98739508D01*
X107760639Y-98568073D01*
X108185715Y-98178930D01*
X108246275Y-98049218D01*
X108464374Y-98375626D01*
X108955581Y-98703840D01*
X109388743Y-98790001D01*
X109681255Y-98790001D01*
X110114417Y-98703840D01*
X110209959Y-98640001D01*
X111400039Y-98640001D01*
X111495581Y-98703840D01*
X111928743Y-98790001D01*
X112221255Y-98790001D01*
X112654417Y-98703840D01*
X113145624Y-98375626D01*
X113473838Y-97884419D01*
X113589091Y-97305001D01*
X113473838Y-96725583D01*
X113145624Y-96234376D01*
X113127380Y-96222185D01*
X113172764Y-96213158D01*
X113382808Y-96072810D01*
X113498276Y-95900001D01*
X114723216Y-95900001D01*
X114834999Y-95922236D01*
X114946782Y-95900001D01*
X115277854Y-95834147D01*
X115653288Y-95583290D01*
X115716612Y-95488519D01*
X120023521Y-91181611D01*
X120118289Y-91118289D01*
X120369146Y-90742855D01*
X120435000Y-90411783D01*
X120457235Y-90300000D01*
X120435000Y-90188217D01*
X120435000Y-78201781D01*
X120457235Y-78089999D01*
X120429387Y-77950000D01*
X120369146Y-77647145D01*
X120118289Y-77271711D01*
X120023521Y-77208390D01*
X118041487Y-75226356D01*
X117948839Y-74760582D01*
X117620625Y-74269375D01*
X117602381Y-74257184D01*
X117647765Y-74248157D01*
X117857809Y-74107809D01*
X117998157Y-73897765D01*
X118047440Y-73650000D01*
X118047440Y-71950000D01*
X117998157Y-71702235D01*
X117857809Y-71492191D01*
X117647765Y-71351843D01*
X117400000Y-71302560D01*
X115700000Y-71302560D01*
X115452235Y-71351843D01*
X115242191Y-71492191D01*
X115101843Y-71702235D01*
X115052560Y-71950000D01*
X115052560Y-73650000D01*
X115101843Y-73897765D01*
X115242191Y-74107809D01*
X115452235Y-74248157D01*
X115497619Y-74257184D01*
X115479375Y-74269375D01*
X115151161Y-74760582D01*
X115035908Y-75340000D01*
X115151161Y-75919418D01*
X115479375Y-76410625D01*
X115777761Y-76610000D01*
X115479375Y-76809375D01*
X115291919Y-77089923D01*
X115274199Y-77093448D01*
X115169437Y-77163448D01*
X114997999Y-77277999D01*
X114951417Y-77347714D01*
X105415418Y-86883715D01*
X105321333Y-86865000D01*
X105038667Y-86865000D01*
X104620091Y-86948260D01*
X104145423Y-87265423D01*
X103828260Y-87740091D01*
X103716887Y-88300000D01*
X103828260Y-88859909D01*
X104145423Y-89334577D01*
X104620091Y-89651740D01*
X105038667Y-89735000D01*
X105321333Y-89735000D01*
X105739909Y-89651740D01*
X106214577Y-89334577D01*
X106531740Y-88859909D01*
X106643113Y-88300000D01*
X106596285Y-88064582D01*
X112412132Y-82248737D01*
X112365000Y-82485683D01*
X112365000Y-82485686D01*
X112348643Y-82567919D01*
X112365000Y-82650152D01*
X112365001Y-84165501D01*
X110779089Y-85751414D01*
X110779086Y-85751416D01*
X106169949Y-90360553D01*
X105992862Y-90183466D01*
X105465439Y-89965000D01*
X104894561Y-89965000D01*
X104367138Y-90183466D01*
X104106890Y-90443714D01*
X104054577Y-90365423D01*
X103579909Y-90048260D01*
X103161333Y-89965000D01*
X102878667Y-89965000D01*
X102460091Y-90048260D01*
X101985423Y-90365423D01*
X101852070Y-90565000D01*
X101620156Y-90565000D01*
X101537919Y-90548642D01*
X101455682Y-90565000D01*
X101212118Y-90613448D01*
X100935918Y-90797999D01*
X100889334Y-90867717D01*
X100209999Y-91547052D01*
X100209999Y-89759141D01*
X100312862Y-89716534D01*
X100716534Y-89312862D01*
X100935000Y-88785439D01*
X100935000Y-88214561D01*
X100716534Y-87687138D01*
X100312862Y-87283466D01*
X99785439Y-87065000D01*
X99214561Y-87065000D01*
X98687138Y-87283466D01*
X98283466Y-87687138D01*
X98065000Y-88214561D01*
X98065000Y-88785439D01*
X98283466Y-89312862D01*
X98540000Y-89569396D01*
X98539999Y-93480686D01*
X98527095Y-93545558D01*
X98304374Y-93694376D01*
X98104999Y-93992762D01*
X97905624Y-93694376D01*
X97414417Y-93366162D01*
X96981255Y-93280001D01*
X96688743Y-93280001D01*
X96255581Y-93366162D01*
X95764374Y-93694376D01*
X95564999Y-93992762D01*
X95365624Y-93694376D01*
X94874417Y-93366162D01*
X94441255Y-93280001D01*
X94148743Y-93280001D01*
X93715581Y-93366162D01*
X93224374Y-93694376D01*
X93024999Y-93992762D01*
X92825624Y-93694376D01*
X92334417Y-93366162D01*
X91901255Y-93280001D01*
X91608743Y-93280001D01*
X91175581Y-93366162D01*
X90684374Y-93694376D01*
X90484999Y-93992762D01*
X90285624Y-93694376D01*
X89794417Y-93366162D01*
X89361255Y-93280001D01*
X89068743Y-93280001D01*
X88635581Y-93366162D01*
X88144374Y-93694376D01*
X87944999Y-93992762D01*
X87745624Y-93694376D01*
X87254417Y-93366162D01*
X86821255Y-93280001D01*
X86528743Y-93280001D01*
X86397060Y-93306194D01*
X85914025Y-92823159D01*
X86412862Y-92616534D01*
X86816534Y-92212862D01*
X87010790Y-91743887D01*
X91835056Y-91743887D01*
X91997524Y-92136144D01*
X92372290Y-92547930D01*
X92876112Y-92784954D01*
X93097000Y-92664949D01*
X93097000Y-91523000D01*
X91955719Y-91523000D01*
X91835056Y-91743887D01*
X87010790Y-91743887D01*
X87035000Y-91685439D01*
X87035000Y-91114561D01*
X87010791Y-91056113D01*
X91835056Y-91056113D01*
X91955719Y-91277000D01*
X93097000Y-91277000D01*
X93097000Y-90135051D01*
X93343000Y-90135051D01*
X93343000Y-91277000D01*
X93363000Y-91277000D01*
X93363000Y-91523000D01*
X93343000Y-91523000D01*
X93343000Y-92664949D01*
X93563888Y-92784954D01*
X94067710Y-92547930D01*
X94201598Y-92400816D01*
X94573133Y-92400816D01*
X94647368Y-92645169D01*
X95181164Y-92838406D01*
X95748276Y-92812659D01*
X96152632Y-92645169D01*
X96226867Y-92400816D01*
X95400000Y-91573948D01*
X94573133Y-92400816D01*
X94201598Y-92400816D01*
X94368416Y-92217520D01*
X94399184Y-92226867D01*
X95226052Y-91400000D01*
X95573948Y-91400000D01*
X96400816Y-92226867D01*
X96645169Y-92152632D01*
X96838406Y-91618836D01*
X96812659Y-91051724D01*
X96645169Y-90647368D01*
X96400816Y-90573133D01*
X95573948Y-91400000D01*
X95226052Y-91400000D01*
X94399184Y-90573133D01*
X94368416Y-90582480D01*
X94201599Y-90399184D01*
X94573133Y-90399184D01*
X95400000Y-91226052D01*
X96226867Y-90399184D01*
X96152632Y-90154831D01*
X95618836Y-89961594D01*
X95051724Y-89987341D01*
X94647368Y-90154831D01*
X94573133Y-90399184D01*
X94201599Y-90399184D01*
X94067710Y-90252070D01*
X93563888Y-90015046D01*
X93343000Y-90135051D01*
X93097000Y-90135051D01*
X92876112Y-90015046D01*
X92372290Y-90252070D01*
X91997524Y-90663856D01*
X91835056Y-91056113D01*
X87010791Y-91056113D01*
X86816534Y-90587138D01*
X86435000Y-90205604D01*
X86435000Y-89097440D01*
X86650000Y-89097440D01*
X86897765Y-89048157D01*
X87107809Y-88907809D01*
X87248157Y-88697765D01*
X87249280Y-88692117D01*
X87821831Y-88692117D01*
X87877625Y-88920941D01*
X88357011Y-89089094D01*
X88864254Y-89060994D01*
X89202375Y-88920941D01*
X89258169Y-88692117D01*
X88540000Y-87973948D01*
X87821831Y-88692117D01*
X87249280Y-88692117D01*
X87297440Y-88450000D01*
X87297440Y-88168758D01*
X87419059Y-88462375D01*
X87647883Y-88518169D01*
X88366052Y-87800000D01*
X88713948Y-87800000D01*
X89432117Y-88518169D01*
X89660941Y-88462375D01*
X89829094Y-87982989D01*
X89800994Y-87475746D01*
X89660941Y-87137625D01*
X89432117Y-87081831D01*
X88713948Y-87800000D01*
X88366052Y-87800000D01*
X88351910Y-87785858D01*
X88525858Y-87611910D01*
X88540000Y-87626052D01*
X89258169Y-86907883D01*
X89202375Y-86679059D01*
X88722989Y-86510906D01*
X88555000Y-86520212D01*
X88555000Y-86379750D01*
X94423000Y-86379750D01*
X94423000Y-87074718D01*
X94518455Y-87305167D01*
X94694833Y-87481545D01*
X94925282Y-87577000D01*
X95620250Y-87577000D01*
X95777000Y-87420250D01*
X95777000Y-86223000D01*
X96023000Y-86223000D01*
X96023000Y-87420250D01*
X96179750Y-87577000D01*
X96874718Y-87577000D01*
X97105167Y-87481545D01*
X97281545Y-87305167D01*
X97377000Y-87074718D01*
X97377000Y-86379750D01*
X97220250Y-86223000D01*
X96023000Y-86223000D01*
X95777000Y-86223000D01*
X94579750Y-86223000D01*
X94423000Y-86379750D01*
X88555000Y-86379750D01*
X88555000Y-86274398D01*
X88359371Y-85802106D01*
X87997894Y-85440629D01*
X87525602Y-85245000D01*
X87195000Y-85245000D01*
X87195000Y-84128065D01*
X87430625Y-83970625D01*
X87630000Y-83672239D01*
X87829375Y-83970625D01*
X88320582Y-84298839D01*
X88753744Y-84385000D01*
X89046256Y-84385000D01*
X89479418Y-84298839D01*
X89970625Y-83970625D01*
X89982816Y-83952381D01*
X89991843Y-83997765D01*
X90132191Y-84207809D01*
X90342235Y-84348157D01*
X90590000Y-84397440D01*
X92290000Y-84397440D01*
X92537765Y-84348157D01*
X92747809Y-84207809D01*
X92888157Y-83997765D01*
X92937440Y-83750000D01*
X92937440Y-83735000D01*
X94420718Y-83735000D01*
X94501161Y-84139418D01*
X94829375Y-84630625D01*
X94859032Y-84650441D01*
X94694833Y-84718455D01*
X94518455Y-84894833D01*
X94423000Y-85125282D01*
X94423000Y-85820250D01*
X94579750Y-85977000D01*
X95777000Y-85977000D01*
X95777000Y-85957000D01*
X96023000Y-85957000D01*
X96023000Y-85977000D01*
X97220250Y-85977000D01*
X97377000Y-85820250D01*
X97377000Y-85125282D01*
X97281545Y-84894833D01*
X97105167Y-84718455D01*
X96940968Y-84650441D01*
X96970625Y-84630625D01*
X97298839Y-84139418D01*
X97414092Y-83560000D01*
X97298839Y-82980582D01*
X96970625Y-82489375D01*
X96479418Y-82161161D01*
X96046256Y-82075000D01*
X95753744Y-82075000D01*
X95563127Y-82112916D01*
X95322237Y-82065000D01*
X95322233Y-82065000D01*
X95240000Y-82048643D01*
X95157767Y-82065000D01*
X92937440Y-82065000D01*
X92937440Y-82050000D01*
X92888157Y-81802235D01*
X92747809Y-81592191D01*
X92537765Y-81451843D01*
X92290000Y-81402560D01*
X90590000Y-81402560D01*
X90342235Y-81451843D01*
X90132191Y-81592191D01*
X89991843Y-81802235D01*
X89982816Y-81847619D01*
X89970625Y-81829375D01*
X89479418Y-81501161D01*
X89046256Y-81415000D01*
X88753744Y-81415000D01*
X88622062Y-81441193D01*
X86948587Y-79767720D01*
X86902001Y-79697999D01*
X86625801Y-79513448D01*
X86382237Y-79465000D01*
X86382233Y-79465000D01*
X86300000Y-79448643D01*
X86217767Y-79465000D01*
X73595868Y-79465000D01*
X71989935Y-77859068D01*
X72331105Y-77631105D01*
X72769829Y-76974508D01*
X72885000Y-76395502D01*
X72885000Y-76023000D01*
X73123000Y-76023000D01*
X73123000Y-76323000D01*
X73320560Y-77070202D01*
X73789024Y-77684924D01*
X74457072Y-78073580D01*
X74669843Y-78129636D01*
X74977000Y-78016089D01*
X74977000Y-76023000D01*
X75223000Y-76023000D01*
X75223000Y-78016089D01*
X75530157Y-78129636D01*
X75742928Y-78073580D01*
X76410976Y-77684924D01*
X76879440Y-77070202D01*
X77077000Y-76323000D01*
X77077000Y-76023000D01*
X77323000Y-76023000D01*
X77323000Y-76323000D01*
X77520560Y-77070202D01*
X77989024Y-77684924D01*
X78657072Y-78073580D01*
X78869843Y-78129636D01*
X79177000Y-78016089D01*
X79177000Y-76023000D01*
X79423000Y-76023000D01*
X79423000Y-78016089D01*
X79730157Y-78129636D01*
X79942928Y-78073580D01*
X80610976Y-77684924D01*
X81079440Y-77070202D01*
X81277000Y-76323000D01*
X81277000Y-76023000D01*
X81523000Y-76023000D01*
X81523000Y-76323000D01*
X81720560Y-77070202D01*
X82189024Y-77684924D01*
X82857072Y-78073580D01*
X83069843Y-78129636D01*
X83377000Y-78016089D01*
X83377000Y-76023000D01*
X83623000Y-76023000D01*
X83623000Y-78016089D01*
X83930157Y-78129636D01*
X84142928Y-78073580D01*
X84810976Y-77684924D01*
X85279440Y-77070202D01*
X85477000Y-76323000D01*
X85477000Y-76023000D01*
X83623000Y-76023000D01*
X83377000Y-76023000D01*
X81523000Y-76023000D01*
X81277000Y-76023000D01*
X79423000Y-76023000D01*
X79177000Y-76023000D01*
X77323000Y-76023000D01*
X77077000Y-76023000D01*
X75223000Y-76023000D01*
X74977000Y-76023000D01*
X73123000Y-76023000D01*
X72885000Y-76023000D01*
X72885000Y-75404497D01*
X72769829Y-74825492D01*
X72341866Y-74185000D01*
X73735737Y-74185000D01*
X73320560Y-74729798D01*
X73123000Y-75477000D01*
X73123000Y-75777000D01*
X74977000Y-75777000D01*
X74977000Y-75757000D01*
X75223000Y-75757000D01*
X75223000Y-75777000D01*
X77077000Y-75777000D01*
X77077000Y-75477000D01*
X76879440Y-74729798D01*
X76464263Y-74185000D01*
X77935737Y-74185000D01*
X77520560Y-74729798D01*
X77323000Y-75477000D01*
X77323000Y-75777000D01*
X79177000Y-75777000D01*
X79177000Y-75757000D01*
X79423000Y-75757000D01*
X79423000Y-75777000D01*
X81277000Y-75777000D01*
X81277000Y-75477000D01*
X81079440Y-74729798D01*
X80664263Y-74185000D01*
X82135737Y-74185000D01*
X81720560Y-74729798D01*
X81523000Y-75477000D01*
X81523000Y-75777000D01*
X83377000Y-75777000D01*
X83377000Y-75757000D01*
X83623000Y-75757000D01*
X83623000Y-75777000D01*
X85477000Y-75777000D01*
X85477000Y-75477000D01*
X85279440Y-74729798D01*
X84842896Y-74156961D01*
X85003837Y-74124948D01*
X85346193Y-73896193D01*
X85403937Y-73809773D01*
X86259776Y-72953935D01*
X86346193Y-72896193D01*
X86574948Y-72553837D01*
X86613265Y-72361205D01*
X86864352Y-72528976D01*
X86913448Y-72775800D01*
X86963027Y-72850000D01*
X87098000Y-73052001D01*
X87167718Y-73098585D01*
X87654329Y-73585197D01*
X86925492Y-73730171D01*
X86268895Y-74168895D01*
X85830171Y-74825493D01*
X85715000Y-75404498D01*
X85715000Y-76395503D01*
X85830171Y-76974508D01*
X86268896Y-77631105D01*
X86925493Y-78069829D01*
X87700000Y-78223888D01*
X88474508Y-78069829D01*
X88965001Y-77742092D01*
X88965001Y-78417762D01*
X88948643Y-78500000D01*
X89013448Y-78825800D01*
X89108274Y-78967716D01*
X89198000Y-79102001D01*
X89267718Y-79148585D01*
X90151415Y-80032282D01*
X90197999Y-80102001D01*
X90474199Y-80286552D01*
X90717763Y-80335000D01*
X90800000Y-80351358D01*
X90882237Y-80335000D01*
X97774133Y-80335000D01*
X98083715Y-80644582D01*
X98036887Y-80880000D01*
X98148260Y-81439909D01*
X98465423Y-81914577D01*
X98940091Y-82231740D01*
X99358667Y-82315000D01*
X99641333Y-82315000D01*
X100059909Y-82231740D01*
X100534577Y-81914577D01*
X100851740Y-81439909D01*
X100963113Y-80880000D01*
X100851740Y-80320091D01*
X100534577Y-79845423D01*
X100059909Y-79528260D01*
X99641333Y-79445000D01*
X99358667Y-79445000D01*
X99264582Y-79463715D01*
X98768587Y-78967720D01*
X98722001Y-78897999D01*
X98445801Y-78713448D01*
X98202237Y-78665000D01*
X98202233Y-78665000D01*
X98120000Y-78648643D01*
X98037767Y-78665000D01*
X91145868Y-78665000D01*
X90635000Y-78154133D01*
X90635000Y-77742092D01*
X91125493Y-78069829D01*
X91900000Y-78223888D01*
X92674508Y-78069829D01*
X93331105Y-77631105D01*
X93769829Y-76974508D01*
X93885000Y-76395502D01*
X93885000Y-75404497D01*
X93769829Y-74825492D01*
X93508911Y-74435000D01*
X94491090Y-74435000D01*
X94230171Y-74825493D01*
X94115000Y-75404498D01*
X94115000Y-76395503D01*
X94230171Y-76974508D01*
X94668896Y-77631105D01*
X95325493Y-78069829D01*
X96100000Y-78223888D01*
X96874508Y-78069829D01*
X97531105Y-77631105D01*
X97969829Y-76974508D01*
X98085000Y-76395502D01*
X98085000Y-75404497D01*
X97969829Y-74825492D01*
X97708911Y-74435000D01*
X98691090Y-74435000D01*
X98430171Y-74825493D01*
X98315000Y-75404498D01*
X98315000Y-76395503D01*
X98430171Y-76974508D01*
X98868896Y-77631105D01*
X99525493Y-78069829D01*
X100300000Y-78223888D01*
X101074508Y-78069829D01*
X101731105Y-77631105D01*
X102169829Y-76974508D01*
X102285000Y-76395502D01*
X102285000Y-76023000D01*
X102523000Y-76023000D01*
X102523000Y-76323000D01*
X102720560Y-77070202D01*
X103189024Y-77684924D01*
X103857072Y-78073580D01*
X104069843Y-78129636D01*
X104377000Y-78016089D01*
X104377000Y-76023000D01*
X104623000Y-76023000D01*
X104623000Y-78016089D01*
X104930157Y-78129636D01*
X105142928Y-78073580D01*
X105810976Y-77684924D01*
X106279440Y-77070202D01*
X106477000Y-76323000D01*
X106477000Y-76023000D01*
X104623000Y-76023000D01*
X104377000Y-76023000D01*
X102523000Y-76023000D01*
X102285000Y-76023000D01*
X102285000Y-75404497D01*
X102169829Y-74825492D01*
X101908911Y-74435000D01*
X102945218Y-74435000D01*
X102720560Y-74729798D01*
X102523000Y-75477000D01*
X102523000Y-75777000D01*
X104377000Y-75777000D01*
X104377000Y-75757000D01*
X104623000Y-75757000D01*
X104623000Y-75777000D01*
X106477000Y-75777000D01*
X106477000Y-75477000D01*
X106279440Y-74729798D01*
X105810976Y-74115076D01*
X105142928Y-73726420D01*
X104930157Y-73670364D01*
X104623002Y-73783910D01*
X104623002Y-73623000D01*
X104507867Y-73623000D01*
X105032282Y-73098585D01*
X105102001Y-73052001D01*
X105286552Y-72775801D01*
X105335000Y-72532237D01*
X105335649Y-72528976D01*
X105931105Y-72131105D01*
X106369829Y-71474508D01*
X106485000Y-70895502D01*
X106485000Y-69904497D01*
X106369829Y-69325492D01*
X106108911Y-68935000D01*
X108269869Y-68935000D01*
X110738978Y-71404110D01*
X110592191Y-71502191D01*
X110451843Y-71712235D01*
X110402560Y-71960000D01*
X110402560Y-73660000D01*
X110451843Y-73907765D01*
X110592191Y-74117809D01*
X110802235Y-74258157D01*
X110847619Y-74267184D01*
X110829375Y-74279375D01*
X110501161Y-74770582D01*
X110385908Y-75350000D01*
X110501161Y-75929418D01*
X110829375Y-76420625D01*
X111127761Y-76620000D01*
X110829375Y-76819375D01*
X110501161Y-77310582D01*
X110385908Y-77890000D01*
X110501161Y-78469418D01*
X110829375Y-78960625D01*
X111320582Y-79288839D01*
X111753744Y-79375000D01*
X112046256Y-79375000D01*
X112479418Y-79288839D01*
X112970625Y-78960625D01*
X113298839Y-78469418D01*
X113414092Y-77890000D01*
X113298839Y-77310582D01*
X112970625Y-76819375D01*
X112672239Y-76620000D01*
X112970625Y-76420625D01*
X113298839Y-75929418D01*
X113414092Y-75350000D01*
X113298839Y-74770582D01*
X112970625Y-74279375D01*
X112952381Y-74267184D01*
X112997765Y-74258157D01*
X113207809Y-74117809D01*
X113348157Y-73907765D01*
X113397440Y-73660000D01*
X113397440Y-71960000D01*
X113348157Y-71712235D01*
X113207809Y-71502191D01*
X113035000Y-71386723D01*
X113035000Y-71071783D01*
X113057235Y-70960000D01*
X112969146Y-70517145D01*
X112718289Y-70141711D01*
X112623521Y-70078390D01*
X109872131Y-67327000D01*
X121290001Y-67327000D01*
X121290000Y-99290000D01*
X55710000Y-99290000D01*
X55710000Y-94413263D01*
X62380483Y-94413263D01*
X62499870Y-94642001D01*
X63691999Y-94642001D01*
X63691999Y-93450493D01*
X63463262Y-93330494D01*
X63049359Y-93501929D01*
X62624283Y-93891072D01*
X62380483Y-94413263D01*
X55710000Y-94413263D01*
X55710000Y-75404498D01*
X56315000Y-75404498D01*
X56315000Y-76395503D01*
X56430171Y-76974508D01*
X56868896Y-77631105D01*
X57525493Y-78069829D01*
X58300000Y-78223888D01*
X59074508Y-78069829D01*
X59731105Y-77631105D01*
X60169829Y-76974508D01*
X60285000Y-76395502D01*
X60285000Y-75404497D01*
X60169829Y-74825492D01*
X59731105Y-74168895D01*
X59074507Y-73730171D01*
X58300000Y-73576112D01*
X57525492Y-73730171D01*
X56868895Y-74168895D01*
X56430171Y-74825493D01*
X56315000Y-75404498D01*
X55710000Y-75404498D01*
X55710000Y-69000001D01*
X56302560Y-69000001D01*
X56302560Y-71799999D01*
X56370874Y-72143435D01*
X56565414Y-72434586D01*
X56856565Y-72629126D01*
X57200001Y-72697440D01*
X59399999Y-72697440D01*
X59743435Y-72629126D01*
X60034586Y-72434586D01*
X60229126Y-72143435D01*
X60297440Y-71799999D01*
X60297440Y-69000001D01*
X60229126Y-68656565D01*
X60034586Y-68365414D01*
X59743435Y-68170874D01*
X59399999Y-68102560D01*
X57200001Y-68102560D01*
X56856565Y-68170874D01*
X56565414Y-68365414D01*
X56370874Y-68656565D01*
X56302560Y-69000001D01*
X55710000Y-69000001D01*
X55710000Y-66876956D01*
X62956993Y-66876956D01*
X63116848Y-67193964D01*
X63904150Y-67504069D01*
X64750194Y-67489282D01*
X65463152Y-67193964D01*
X65623007Y-66876956D01*
X64290000Y-65543948D01*
X62956993Y-66876956D01*
X55710000Y-66876956D01*
X55710000Y-64984150D01*
X62155931Y-64984150D01*
X62170718Y-65830194D01*
X62466036Y-66543152D01*
X62783044Y-66703007D01*
X64116052Y-65370000D01*
X64463948Y-65370000D01*
X65796956Y-66703007D01*
X66113964Y-66543152D01*
X66424069Y-65755850D01*
X66409282Y-64909806D01*
X66113964Y-64196848D01*
X65796956Y-64036993D01*
X64463948Y-65370000D01*
X64116052Y-65370000D01*
X62783044Y-64036993D01*
X62466036Y-64196848D01*
X62155931Y-64984150D01*
X55710000Y-64984150D01*
X55710000Y-63863044D01*
X62956993Y-63863044D01*
X64290000Y-65196052D01*
X65623007Y-63863044D01*
X65463152Y-63546036D01*
X64748631Y-63264598D01*
X66209351Y-63264598D01*
X66277445Y-63503772D01*
X66793110Y-63688650D01*
X67340273Y-63662118D01*
X67722555Y-63503772D01*
X67790649Y-63264598D01*
X67000000Y-62473948D01*
X66209351Y-63264598D01*
X64748631Y-63264598D01*
X64675850Y-63235931D01*
X63829806Y-63250718D01*
X63116848Y-63546036D01*
X62956993Y-63863044D01*
X55710000Y-63863044D01*
X55710000Y-62093110D01*
X65611350Y-62093110D01*
X65637882Y-62640273D01*
X65796228Y-63022555D01*
X66035402Y-63090649D01*
X66826052Y-62300000D01*
X67173948Y-62300000D01*
X67964598Y-63090649D01*
X68203772Y-63022555D01*
X68388650Y-62506890D01*
X68362118Y-61959727D01*
X68203772Y-61577445D01*
X67964598Y-61509351D01*
X67173948Y-62300000D01*
X66826052Y-62300000D01*
X66035402Y-61509351D01*
X65796228Y-61577445D01*
X65611350Y-62093110D01*
X55710000Y-62093110D01*
X55710000Y-54627000D01*
X65364878Y-54627000D01*
X65231010Y-55300000D01*
X65231010Y-55300000D01*
G37*
X65231010Y-55300000D02*
X65365666Y-55976963D01*
X65748558Y-56550001D01*
X65365667Y-57123037D01*
X65265001Y-57629120D01*
X65265000Y-59970879D01*
X65365666Y-60476962D01*
X65749135Y-61050865D01*
X66278573Y-61404624D01*
X67000000Y-62126052D01*
X67721429Y-61404622D01*
X68250865Y-61050865D01*
X68634334Y-60476963D01*
X68735000Y-59970880D01*
X68735000Y-57629120D01*
X68634334Y-57123037D01*
X68575510Y-57035000D01*
X74181341Y-57035000D01*
X78452340Y-61306001D01*
X78549135Y-61450865D01*
X79123037Y-61834334D01*
X79629120Y-61935000D01*
X79629124Y-61935000D01*
X79799999Y-61968989D01*
X79970874Y-61935000D01*
X81751890Y-61935000D01*
X81601161Y-62160582D01*
X81485908Y-62740000D01*
X81601161Y-63319418D01*
X81929375Y-63810625D01*
X82420582Y-64138839D01*
X82853744Y-64225000D01*
X83146256Y-64225000D01*
X83579418Y-64138839D01*
X84070625Y-63810625D01*
X84398839Y-63319418D01*
X84514092Y-62740000D01*
X84398839Y-62160582D01*
X84070625Y-61669375D01*
X83997233Y-61620336D01*
X84250865Y-61450865D01*
X84634334Y-60876963D01*
X84768990Y-60200000D01*
X84634334Y-59523037D01*
X84548782Y-59395000D01*
X85365001Y-59395000D01*
X85365001Y-60629117D01*
X85331010Y-60800000D01*
X85389934Y-61096228D01*
X85465667Y-61476963D01*
X85849136Y-62050865D01*
X85994003Y-62147662D01*
X90165000Y-66318660D01*
X90165000Y-67801290D01*
X89403937Y-67040227D01*
X89346193Y-66953807D01*
X89003837Y-66725052D01*
X88701935Y-66665000D01*
X88701934Y-66665000D01*
X88600000Y-66644724D01*
X88498066Y-66665000D01*
X86701934Y-66665000D01*
X86600000Y-66644724D01*
X86498065Y-66665000D01*
X86196163Y-66725052D01*
X85853807Y-66953807D01*
X85796065Y-67040224D01*
X84940227Y-67896063D01*
X84853807Y-67953807D01*
X84660673Y-68242854D01*
X84625052Y-68296164D01*
X84587480Y-68485051D01*
X84142928Y-68226420D01*
X83930157Y-68170364D01*
X83623000Y-68283911D01*
X83623000Y-70277000D01*
X83643000Y-70277000D01*
X83643000Y-70523000D01*
X83623000Y-70523000D01*
X83623000Y-70543000D01*
X83377000Y-70543000D01*
X83377000Y-70523000D01*
X81523000Y-70523000D01*
X81523000Y-70823000D01*
X81720560Y-71570202D01*
X82135737Y-72115000D01*
X80741866Y-72115000D01*
X81169829Y-71474508D01*
X81285000Y-70895502D01*
X81285000Y-69977000D01*
X81523000Y-69977000D01*
X81523000Y-70277000D01*
X83377000Y-70277000D01*
X83377000Y-68283911D01*
X83069843Y-68170364D01*
X82857072Y-68226420D01*
X82189024Y-68615076D01*
X81720560Y-69229798D01*
X81523000Y-69977000D01*
X81285000Y-69977000D01*
X81285000Y-69904497D01*
X81169829Y-69325492D01*
X80731105Y-68668895D01*
X80074507Y-68230171D01*
X79300000Y-68076112D01*
X78525492Y-68230171D01*
X77868895Y-68668895D01*
X77430171Y-69325493D01*
X77315000Y-69904498D01*
X77315000Y-70895503D01*
X77430171Y-71474508D01*
X77858135Y-72115000D01*
X76464263Y-72115000D01*
X76879440Y-71570202D01*
X77077000Y-70823000D01*
X77077000Y-70523000D01*
X75223000Y-70523000D01*
X75223000Y-70543000D01*
X74977000Y-70543000D01*
X74977000Y-70523000D01*
X73123000Y-70523000D01*
X73123000Y-70823000D01*
X73320560Y-71570202D01*
X73735737Y-72115000D01*
X72341866Y-72115000D01*
X72769829Y-71474508D01*
X72885000Y-70895502D01*
X72885000Y-69977000D01*
X73123000Y-69977000D01*
X73123000Y-70277000D01*
X74977000Y-70277000D01*
X74977000Y-68283911D01*
X75223000Y-68283911D01*
X75223000Y-70277000D01*
X77077000Y-70277000D01*
X77077000Y-69977000D01*
X76879440Y-69229798D01*
X76410976Y-68615076D01*
X75742928Y-68226420D01*
X75530157Y-68170364D01*
X75223000Y-68283911D01*
X74977000Y-68283911D01*
X74669843Y-68170364D01*
X74457072Y-68226420D01*
X73789024Y-68615076D01*
X73320560Y-69229798D01*
X73123000Y-69977000D01*
X72885000Y-69977000D01*
X72885000Y-69904497D01*
X72769829Y-69325492D01*
X72331105Y-68668895D01*
X71674507Y-68230171D01*
X70900000Y-68076112D01*
X70125492Y-68230171D01*
X69468895Y-68668895D01*
X69030171Y-69325493D01*
X68915000Y-69904498D01*
X68915000Y-70895503D01*
X69030171Y-71474508D01*
X69458135Y-72115000D01*
X68064263Y-72115000D01*
X68479440Y-71570202D01*
X68677000Y-70823000D01*
X68677000Y-70523000D01*
X66823000Y-70523000D01*
X66823000Y-70543000D01*
X66577000Y-70543000D01*
X66577000Y-70523000D01*
X64723000Y-70523000D01*
X64723000Y-70823000D01*
X64920560Y-71570202D01*
X65335737Y-72115000D01*
X63941866Y-72115000D01*
X64369829Y-71474508D01*
X64485000Y-70895502D01*
X64485000Y-69977000D01*
X64723000Y-69977000D01*
X64723000Y-70277000D01*
X66577000Y-70277000D01*
X66577000Y-68283911D01*
X66823000Y-68283911D01*
X66823000Y-70277000D01*
X68677000Y-70277000D01*
X68677000Y-69977000D01*
X68479440Y-69229798D01*
X68010976Y-68615076D01*
X67342928Y-68226420D01*
X67130157Y-68170364D01*
X66823000Y-68283911D01*
X66577000Y-68283911D01*
X66269843Y-68170364D01*
X66057072Y-68226420D01*
X65389024Y-68615076D01*
X64920560Y-69229798D01*
X64723000Y-69977000D01*
X64485000Y-69977000D01*
X64485000Y-69904497D01*
X64369829Y-69325492D01*
X63931105Y-68668895D01*
X63274507Y-68230171D01*
X62500000Y-68076112D01*
X61725492Y-68230171D01*
X61068895Y-68668895D01*
X60630171Y-69325493D01*
X60515000Y-69904498D01*
X60515000Y-70895503D01*
X60630171Y-71474508D01*
X61068896Y-72131105D01*
X61465000Y-72395773D01*
X61465000Y-72748065D01*
X61444724Y-72850000D01*
X61465000Y-72951934D01*
X61525052Y-73253836D01*
X61753807Y-73596193D01*
X61840227Y-73653937D01*
X61884777Y-73698487D01*
X61725492Y-73730171D01*
X61068895Y-74168895D01*
X60630171Y-74825493D01*
X60515000Y-75404498D01*
X60515000Y-76395503D01*
X60630171Y-76974508D01*
X61068896Y-77631105D01*
X61725493Y-78069829D01*
X62500000Y-78223888D01*
X63274508Y-78069829D01*
X63931105Y-77631105D01*
X64369829Y-76974508D01*
X64485000Y-76395502D01*
X64485000Y-76023000D01*
X64723000Y-76023000D01*
X64723000Y-76323000D01*
X64920560Y-77070202D01*
X65389024Y-77684924D01*
X66057072Y-78073580D01*
X66269843Y-78129636D01*
X66577000Y-78016089D01*
X66577000Y-76023000D01*
X66823000Y-76023000D01*
X66823000Y-78016089D01*
X67130157Y-78129636D01*
X67342928Y-78073580D01*
X68010976Y-77684924D01*
X68479440Y-77070202D01*
X68677000Y-76323000D01*
X68677000Y-76023000D01*
X66823000Y-76023000D01*
X66577000Y-76023000D01*
X64723000Y-76023000D01*
X64485000Y-76023000D01*
X64485000Y-75404497D01*
X64369829Y-74825492D01*
X63941866Y-74185000D01*
X65335737Y-74185000D01*
X64920560Y-74729798D01*
X64723000Y-75477000D01*
X64723000Y-75777000D01*
X66577000Y-75777000D01*
X66577000Y-75757000D01*
X66823000Y-75757000D01*
X66823000Y-75777000D01*
X68677000Y-75777000D01*
X68677000Y-75477000D01*
X68479440Y-74729798D01*
X68064263Y-74185000D01*
X69458134Y-74185000D01*
X69030171Y-74825493D01*
X68915000Y-75404498D01*
X68915000Y-76395503D01*
X69030171Y-76974508D01*
X69468896Y-77631105D01*
X70064352Y-78028976D01*
X70113448Y-78275800D01*
X70113449Y-78275801D01*
X70298000Y-78552001D01*
X70367718Y-78598585D01*
X72601415Y-80832283D01*
X72647999Y-80902001D01*
X72723253Y-80952284D01*
X72924199Y-81086552D01*
X73250000Y-81151358D01*
X73332237Y-81135000D01*
X85954133Y-81135000D01*
X86234133Y-81415000D01*
X86213744Y-81415000D01*
X85780582Y-81501161D01*
X85289375Y-81829375D01*
X84961161Y-82320582D01*
X84845908Y-82900000D01*
X84961161Y-83479418D01*
X85289375Y-83970625D01*
X85525000Y-84128065D01*
X85525001Y-85537762D01*
X85508643Y-85620000D01*
X85555268Y-85854400D01*
X84116285Y-84415418D01*
X84163113Y-84180000D01*
X84051740Y-83620091D01*
X83734577Y-83145423D01*
X83259909Y-82828260D01*
X82841333Y-82745000D01*
X82558667Y-82745000D01*
X82140091Y-82828260D01*
X81665423Y-83145423D01*
X81348260Y-83620091D01*
X81236887Y-84180000D01*
X81348260Y-84739909D01*
X81665423Y-85214577D01*
X82140091Y-85531740D01*
X82558667Y-85615000D01*
X82841333Y-85615000D01*
X82935418Y-85596285D01*
X84702560Y-87363428D01*
X84702560Y-88450000D01*
X84751843Y-88697765D01*
X84765001Y-88717457D01*
X84765000Y-90205604D01*
X84383466Y-90587138D01*
X84165000Y-91114561D01*
X84165000Y-91685439D01*
X84383466Y-92212862D01*
X84435604Y-92265000D01*
X84345868Y-92265000D01*
X84135000Y-92054132D01*
X84135000Y-91514561D01*
X83916534Y-90987138D01*
X83512862Y-90583466D01*
X82985439Y-90365000D01*
X82414561Y-90365000D01*
X81887138Y-90583466D01*
X81483466Y-90987138D01*
X81265000Y-91514561D01*
X81265000Y-92085439D01*
X81483466Y-92612862D01*
X81887138Y-93016534D01*
X82414561Y-93235000D01*
X82954132Y-93235000D01*
X83273665Y-93554532D01*
X83064374Y-93694376D01*
X82846275Y-94020784D01*
X82785715Y-93891072D01*
X82360639Y-93501929D01*
X81946736Y-93330494D01*
X81717999Y-93450493D01*
X81717999Y-94642001D01*
X81737999Y-94642001D01*
X81737999Y-94888001D01*
X81717999Y-94888001D01*
X81717999Y-94908001D01*
X81471999Y-94908001D01*
X81471999Y-94888001D01*
X81451999Y-94888001D01*
X81451999Y-94642001D01*
X81471999Y-94642001D01*
X81471999Y-93450493D01*
X81243262Y-93330494D01*
X80829359Y-93501929D01*
X80404283Y-93891072D01*
X80343723Y-94020784D01*
X80125624Y-93694376D01*
X79634417Y-93366162D01*
X79201255Y-93280001D01*
X78908743Y-93280001D01*
X78475581Y-93366162D01*
X77984374Y-93694376D01*
X77784999Y-93992762D01*
X77585624Y-93694376D01*
X77094417Y-93366162D01*
X76661255Y-93280001D01*
X76368743Y-93280001D01*
X75935581Y-93366162D01*
X75444374Y-93694376D01*
X75244999Y-93992762D01*
X75045624Y-93694376D01*
X74554417Y-93366162D01*
X74121255Y-93280001D01*
X73828743Y-93280001D01*
X73395581Y-93366162D01*
X72904374Y-93694376D01*
X72704999Y-93992762D01*
X72505624Y-93694376D01*
X72014417Y-93366162D01*
X71581255Y-93280001D01*
X71288743Y-93280001D01*
X70855581Y-93366162D01*
X70364374Y-93694376D01*
X70164999Y-93992762D01*
X69965624Y-93694376D01*
X69474417Y-93366162D01*
X69041255Y-93280001D01*
X68748743Y-93280001D01*
X68315581Y-93366162D01*
X67824374Y-93694376D01*
X67624999Y-93992762D01*
X67425624Y-93694376D01*
X66934417Y-93366162D01*
X66501255Y-93280001D01*
X66208743Y-93280001D01*
X65775581Y-93366162D01*
X65284374Y-93694376D01*
X65066275Y-94020784D01*
X65005715Y-93891072D01*
X64580639Y-93501929D01*
X64166736Y-93330494D01*
X63937999Y-93450493D01*
X63937999Y-94642001D01*
X63957999Y-94642001D01*
X63957999Y-94888001D01*
X63937999Y-94888001D01*
X63937999Y-94908001D01*
X63691999Y-94908001D01*
X63691999Y-94888001D01*
X62499870Y-94888001D01*
X62380483Y-95116739D01*
X62624283Y-95638930D01*
X63049359Y-96028073D01*
X63051686Y-96029037D01*
X62744374Y-96234376D01*
X62416160Y-96725583D01*
X62300907Y-97305001D01*
X62416160Y-97884419D01*
X62744374Y-98375626D01*
X63235581Y-98703840D01*
X63668743Y-98790001D01*
X63961255Y-98790001D01*
X64394417Y-98703840D01*
X64885624Y-98375626D01*
X65084999Y-98077240D01*
X65284374Y-98375626D01*
X65775581Y-98703840D01*
X66208743Y-98790001D01*
X66501255Y-98790001D01*
X66934417Y-98703840D01*
X67425624Y-98375626D01*
X67624999Y-98077240D01*
X67824374Y-98375626D01*
X68315581Y-98703840D01*
X68748743Y-98790001D01*
X69041255Y-98790001D01*
X69474417Y-98703840D01*
X69965624Y-98375626D01*
X70183723Y-98049218D01*
X70244283Y-98178930D01*
X70669359Y-98568073D01*
X71083262Y-98739508D01*
X71311999Y-98619509D01*
X71311999Y-97428001D01*
X71291999Y-97428001D01*
X71291999Y-97182001D01*
X71311999Y-97182001D01*
X71311999Y-97162001D01*
X71557999Y-97162001D01*
X71557999Y-97182001D01*
X71577999Y-97182001D01*
X71577999Y-97428001D01*
X71557999Y-97428001D01*
X71557999Y-98619509D01*
X71786736Y-98739508D01*
X72200639Y-98568073D01*
X72625715Y-98178930D01*
X72686275Y-98049218D01*
X72904374Y-98375626D01*
X73395581Y-98703840D01*
X73828743Y-98790001D01*
X74121255Y-98790001D01*
X74554417Y-98703840D01*
X75045624Y-98375626D01*
X75263723Y-98049218D01*
X75324283Y-98178930D01*
X75749359Y-98568073D01*
X76163262Y-98739508D01*
X76391999Y-98619509D01*
X76391999Y-97428001D01*
X76371999Y-97428001D01*
X76371999Y-97182001D01*
X76391999Y-97182001D01*
X76391999Y-97162001D01*
X76637999Y-97162001D01*
X76637999Y-97182001D01*
X76657999Y-97182001D01*
X76657999Y-97428001D01*
X76637999Y-97428001D01*
X76637999Y-98619509D01*
X76866736Y-98739508D01*
X77280639Y-98568073D01*
X77705715Y-98178930D01*
X77766275Y-98049218D01*
X77984374Y-98375626D01*
X78475581Y-98703840D01*
X78908743Y-98790001D01*
X79201255Y-98790001D01*
X79634417Y-98703840D01*
X80125624Y-98375626D01*
X80324999Y-98077240D01*
X80524374Y-98375626D01*
X81015581Y-98703840D01*
X81448743Y-98790001D01*
X81741255Y-98790001D01*
X82174417Y-98703840D01*
X82665624Y-98375626D01*
X82864999Y-98077240D01*
X83064374Y-98375626D01*
X83555581Y-98703840D01*
X83988743Y-98790001D01*
X84281255Y-98790001D01*
X84714417Y-98703840D01*
X85205624Y-98375626D01*
X85404999Y-98077240D01*
X85604374Y-98375626D01*
X86095581Y-98703840D01*
X86528743Y-98790001D01*
X86821255Y-98790001D01*
X87254417Y-98703840D01*
X87745624Y-98375626D01*
X87963723Y-98049218D01*
X88024283Y-98178930D01*
X88449359Y-98568073D01*
X88863262Y-98739508D01*
X89091999Y-98619509D01*
X89091999Y-97428001D01*
X89071999Y-97428001D01*
X89071999Y-97182001D01*
X89091999Y-97182001D01*
X89091999Y-97162001D01*
X89337999Y-97162001D01*
X89337999Y-97182001D01*
X89357999Y-97182001D01*
X89357999Y-97428001D01*
X89337999Y-97428001D01*
X89337999Y-98619509D01*
X89566736Y-98739508D01*
X89980639Y-98568073D01*
X90405715Y-98178930D01*
X90466275Y-98049218D01*
X90684374Y-98375626D01*
X91175581Y-98703840D01*
X91608743Y-98790001D01*
X91901255Y-98790001D01*
X92334417Y-98703840D01*
X92825624Y-98375626D01*
X93024999Y-98077240D01*
X93224374Y-98375626D01*
X93715581Y-98703840D01*
X94148743Y-98790001D01*
X94441255Y-98790001D01*
X94874417Y-98703840D01*
X95365624Y-98375626D01*
X95583723Y-98049218D01*
X95644283Y-98178930D01*
X96069359Y-98568073D01*
X96483262Y-98739508D01*
X96711999Y-98619509D01*
X96711999Y-97428001D01*
X96691999Y-97428001D01*
X96691999Y-97182001D01*
X96711999Y-97182001D01*
X96711999Y-97162001D01*
X96957999Y-97162001D01*
X96957999Y-97182001D01*
X96977999Y-97182001D01*
X96977999Y-97428001D01*
X96957999Y-97428001D01*
X96957999Y-98619509D01*
X97186736Y-98739508D01*
X97600639Y-98568073D01*
X98025715Y-98178930D01*
X98086275Y-98049218D01*
X98304374Y-98375626D01*
X98795581Y-98703840D01*
X99228743Y-98790001D01*
X99521255Y-98790001D01*
X99954417Y-98703840D01*
X100445624Y-98375626D01*
X100644999Y-98077240D01*
X100844374Y-98375626D01*
X101335581Y-98703840D01*
X101768743Y-98790001D01*
X102061255Y-98790001D01*
X102494417Y-98703840D01*
X102985624Y-98375626D01*
X103184999Y-98077240D01*
X103384374Y-98375626D01*
X103875581Y-98703840D01*
X104308743Y-98790001D01*
X104601255Y-98790001D01*
X105034417Y-98703840D01*
X105525624Y-98375626D01*
X105743723Y-98049218D01*
X105804283Y-98178930D01*
X106229359Y-98568073D01*
X106643262Y-98739508D01*
X106871999Y-98619509D01*
X106871999Y-97428001D01*
X106851999Y-97428001D01*
X106851999Y-97182001D01*
X106871999Y-97182001D01*
X106871999Y-97162001D01*
X107117999Y-97162001D01*
X107117999Y-97182001D01*
X107137999Y-97182001D01*
X107137999Y-97428001D01*
X107117999Y-97428001D01*
X107117999Y-98619509D01*
X107346736Y-98739508D01*
X107760639Y-98568073D01*
X108185715Y-98178930D01*
X108246275Y-98049218D01*
X108464374Y-98375626D01*
X108955581Y-98703840D01*
X109388743Y-98790001D01*
X109681255Y-98790001D01*
X110114417Y-98703840D01*
X110209959Y-98640001D01*
X111400039Y-98640001D01*
X111495581Y-98703840D01*
X111928743Y-98790001D01*
X112221255Y-98790001D01*
X112654417Y-98703840D01*
X113145624Y-98375626D01*
X113473838Y-97884419D01*
X113589091Y-97305001D01*
X113473838Y-96725583D01*
X113145624Y-96234376D01*
X113127380Y-96222185D01*
X113172764Y-96213158D01*
X113382808Y-96072810D01*
X113498276Y-95900001D01*
X114723216Y-95900001D01*
X114834999Y-95922236D01*
X114946782Y-95900001D01*
X115277854Y-95834147D01*
X115653288Y-95583290D01*
X115716612Y-95488519D01*
X120023521Y-91181611D01*
X120118289Y-91118289D01*
X120369146Y-90742855D01*
X120435000Y-90411783D01*
X120457235Y-90300000D01*
X120435000Y-90188217D01*
X120435000Y-78201781D01*
X120457235Y-78089999D01*
X120429387Y-77950000D01*
X120369146Y-77647145D01*
X120118289Y-77271711D01*
X120023521Y-77208390D01*
X118041487Y-75226356D01*
X117948839Y-74760582D01*
X117620625Y-74269375D01*
X117602381Y-74257184D01*
X117647765Y-74248157D01*
X117857809Y-74107809D01*
X117998157Y-73897765D01*
X118047440Y-73650000D01*
X118047440Y-71950000D01*
X117998157Y-71702235D01*
X117857809Y-71492191D01*
X117647765Y-71351843D01*
X117400000Y-71302560D01*
X115700000Y-71302560D01*
X115452235Y-71351843D01*
X115242191Y-71492191D01*
X115101843Y-71702235D01*
X115052560Y-71950000D01*
X115052560Y-73650000D01*
X115101843Y-73897765D01*
X115242191Y-74107809D01*
X115452235Y-74248157D01*
X115497619Y-74257184D01*
X115479375Y-74269375D01*
X115151161Y-74760582D01*
X115035908Y-75340000D01*
X115151161Y-75919418D01*
X115479375Y-76410625D01*
X115777761Y-76610000D01*
X115479375Y-76809375D01*
X115291919Y-77089923D01*
X115274199Y-77093448D01*
X115169437Y-77163448D01*
X114997999Y-77277999D01*
X114951417Y-77347714D01*
X105415418Y-86883715D01*
X105321333Y-86865000D01*
X105038667Y-86865000D01*
X104620091Y-86948260D01*
X104145423Y-87265423D01*
X103828260Y-87740091D01*
X103716887Y-88300000D01*
X103828260Y-88859909D01*
X104145423Y-89334577D01*
X104620091Y-89651740D01*
X105038667Y-89735000D01*
X105321333Y-89735000D01*
X105739909Y-89651740D01*
X106214577Y-89334577D01*
X106531740Y-88859909D01*
X106643113Y-88300000D01*
X106596285Y-88064582D01*
X112412132Y-82248737D01*
X112365000Y-82485683D01*
X112365000Y-82485686D01*
X112348643Y-82567919D01*
X112365000Y-82650152D01*
X112365001Y-84165501D01*
X110779089Y-85751414D01*
X110779086Y-85751416D01*
X106169949Y-90360553D01*
X105992862Y-90183466D01*
X105465439Y-89965000D01*
X104894561Y-89965000D01*
X104367138Y-90183466D01*
X104106890Y-90443714D01*
X104054577Y-90365423D01*
X103579909Y-90048260D01*
X103161333Y-89965000D01*
X102878667Y-89965000D01*
X102460091Y-90048260D01*
X101985423Y-90365423D01*
X101852070Y-90565000D01*
X101620156Y-90565000D01*
X101537919Y-90548642D01*
X101455682Y-90565000D01*
X101212118Y-90613448D01*
X100935918Y-90797999D01*
X100889334Y-90867717D01*
X100209999Y-91547052D01*
X100209999Y-89759141D01*
X100312862Y-89716534D01*
X100716534Y-89312862D01*
X100935000Y-88785439D01*
X100935000Y-88214561D01*
X100716534Y-87687138D01*
X100312862Y-87283466D01*
X99785439Y-87065000D01*
X99214561Y-87065000D01*
X98687138Y-87283466D01*
X98283466Y-87687138D01*
X98065000Y-88214561D01*
X98065000Y-88785439D01*
X98283466Y-89312862D01*
X98540000Y-89569396D01*
X98539999Y-93480686D01*
X98527095Y-93545558D01*
X98304374Y-93694376D01*
X98104999Y-93992762D01*
X97905624Y-93694376D01*
X97414417Y-93366162D01*
X96981255Y-93280001D01*
X96688743Y-93280001D01*
X96255581Y-93366162D01*
X95764374Y-93694376D01*
X95564999Y-93992762D01*
X95365624Y-93694376D01*
X94874417Y-93366162D01*
X94441255Y-93280001D01*
X94148743Y-93280001D01*
X93715581Y-93366162D01*
X93224374Y-93694376D01*
X93024999Y-93992762D01*
X92825624Y-93694376D01*
X92334417Y-93366162D01*
X91901255Y-93280001D01*
X91608743Y-93280001D01*
X91175581Y-93366162D01*
X90684374Y-93694376D01*
X90484999Y-93992762D01*
X90285624Y-93694376D01*
X89794417Y-93366162D01*
X89361255Y-93280001D01*
X89068743Y-93280001D01*
X88635581Y-93366162D01*
X88144374Y-93694376D01*
X87944999Y-93992762D01*
X87745624Y-93694376D01*
X87254417Y-93366162D01*
X86821255Y-93280001D01*
X86528743Y-93280001D01*
X86397060Y-93306194D01*
X85914025Y-92823159D01*
X86412862Y-92616534D01*
X86816534Y-92212862D01*
X87010790Y-91743887D01*
X91835056Y-91743887D01*
X91997524Y-92136144D01*
X92372290Y-92547930D01*
X92876112Y-92784954D01*
X93097000Y-92664949D01*
X93097000Y-91523000D01*
X91955719Y-91523000D01*
X91835056Y-91743887D01*
X87010790Y-91743887D01*
X87035000Y-91685439D01*
X87035000Y-91114561D01*
X87010791Y-91056113D01*
X91835056Y-91056113D01*
X91955719Y-91277000D01*
X93097000Y-91277000D01*
X93097000Y-90135051D01*
X93343000Y-90135051D01*
X93343000Y-91277000D01*
X93363000Y-91277000D01*
X93363000Y-91523000D01*
X93343000Y-91523000D01*
X93343000Y-92664949D01*
X93563888Y-92784954D01*
X94067710Y-92547930D01*
X94201598Y-92400816D01*
X94573133Y-92400816D01*
X94647368Y-92645169D01*
X95181164Y-92838406D01*
X95748276Y-92812659D01*
X96152632Y-92645169D01*
X96226867Y-92400816D01*
X95400000Y-91573948D01*
X94573133Y-92400816D01*
X94201598Y-92400816D01*
X94368416Y-92217520D01*
X94399184Y-92226867D01*
X95226052Y-91400000D01*
X95573948Y-91400000D01*
X96400816Y-92226867D01*
X96645169Y-92152632D01*
X96838406Y-91618836D01*
X96812659Y-91051724D01*
X96645169Y-90647368D01*
X96400816Y-90573133D01*
X95573948Y-91400000D01*
X95226052Y-91400000D01*
X94399184Y-90573133D01*
X94368416Y-90582480D01*
X94201599Y-90399184D01*
X94573133Y-90399184D01*
X95400000Y-91226052D01*
X96226867Y-90399184D01*
X96152632Y-90154831D01*
X95618836Y-89961594D01*
X95051724Y-89987341D01*
X94647368Y-90154831D01*
X94573133Y-90399184D01*
X94201599Y-90399184D01*
X94067710Y-90252070D01*
X93563888Y-90015046D01*
X93343000Y-90135051D01*
X93097000Y-90135051D01*
X92876112Y-90015046D01*
X92372290Y-90252070D01*
X91997524Y-90663856D01*
X91835056Y-91056113D01*
X87010791Y-91056113D01*
X86816534Y-90587138D01*
X86435000Y-90205604D01*
X86435000Y-89097440D01*
X86650000Y-89097440D01*
X86897765Y-89048157D01*
X87107809Y-88907809D01*
X87248157Y-88697765D01*
X87249280Y-88692117D01*
X87821831Y-88692117D01*
X87877625Y-88920941D01*
X88357011Y-89089094D01*
X88864254Y-89060994D01*
X89202375Y-88920941D01*
X89258169Y-88692117D01*
X88540000Y-87973948D01*
X87821831Y-88692117D01*
X87249280Y-88692117D01*
X87297440Y-88450000D01*
X87297440Y-88168758D01*
X87419059Y-88462375D01*
X87647883Y-88518169D01*
X88366052Y-87800000D01*
X88713948Y-87800000D01*
X89432117Y-88518169D01*
X89660941Y-88462375D01*
X89829094Y-87982989D01*
X89800994Y-87475746D01*
X89660941Y-87137625D01*
X89432117Y-87081831D01*
X88713948Y-87800000D01*
X88366052Y-87800000D01*
X88351910Y-87785858D01*
X88525858Y-87611910D01*
X88540000Y-87626052D01*
X89258169Y-86907883D01*
X89202375Y-86679059D01*
X88722989Y-86510906D01*
X88555000Y-86520212D01*
X88555000Y-86379750D01*
X94423000Y-86379750D01*
X94423000Y-87074718D01*
X94518455Y-87305167D01*
X94694833Y-87481545D01*
X94925282Y-87577000D01*
X95620250Y-87577000D01*
X95777000Y-87420250D01*
X95777000Y-86223000D01*
X96023000Y-86223000D01*
X96023000Y-87420250D01*
X96179750Y-87577000D01*
X96874718Y-87577000D01*
X97105167Y-87481545D01*
X97281545Y-87305167D01*
X97377000Y-87074718D01*
X97377000Y-86379750D01*
X97220250Y-86223000D01*
X96023000Y-86223000D01*
X95777000Y-86223000D01*
X94579750Y-86223000D01*
X94423000Y-86379750D01*
X88555000Y-86379750D01*
X88555000Y-86274398D01*
X88359371Y-85802106D01*
X87997894Y-85440629D01*
X87525602Y-85245000D01*
X87195000Y-85245000D01*
X87195000Y-84128065D01*
X87430625Y-83970625D01*
X87630000Y-83672239D01*
X87829375Y-83970625D01*
X88320582Y-84298839D01*
X88753744Y-84385000D01*
X89046256Y-84385000D01*
X89479418Y-84298839D01*
X89970625Y-83970625D01*
X89982816Y-83952381D01*
X89991843Y-83997765D01*
X90132191Y-84207809D01*
X90342235Y-84348157D01*
X90590000Y-84397440D01*
X92290000Y-84397440D01*
X92537765Y-84348157D01*
X92747809Y-84207809D01*
X92888157Y-83997765D01*
X92937440Y-83750000D01*
X92937440Y-83735000D01*
X94420718Y-83735000D01*
X94501161Y-84139418D01*
X94829375Y-84630625D01*
X94859032Y-84650441D01*
X94694833Y-84718455D01*
X94518455Y-84894833D01*
X94423000Y-85125282D01*
X94423000Y-85820250D01*
X94579750Y-85977000D01*
X95777000Y-85977000D01*
X95777000Y-85957000D01*
X96023000Y-85957000D01*
X96023000Y-85977000D01*
X97220250Y-85977000D01*
X97377000Y-85820250D01*
X97377000Y-85125282D01*
X97281545Y-84894833D01*
X97105167Y-84718455D01*
X96940968Y-84650441D01*
X96970625Y-84630625D01*
X97298839Y-84139418D01*
X97414092Y-83560000D01*
X97298839Y-82980582D01*
X96970625Y-82489375D01*
X96479418Y-82161161D01*
X96046256Y-82075000D01*
X95753744Y-82075000D01*
X95563127Y-82112916D01*
X95322237Y-82065000D01*
X95322233Y-82065000D01*
X95240000Y-82048643D01*
X95157767Y-82065000D01*
X92937440Y-82065000D01*
X92937440Y-82050000D01*
X92888157Y-81802235D01*
X92747809Y-81592191D01*
X92537765Y-81451843D01*
X92290000Y-81402560D01*
X90590000Y-81402560D01*
X90342235Y-81451843D01*
X90132191Y-81592191D01*
X89991843Y-81802235D01*
X89982816Y-81847619D01*
X89970625Y-81829375D01*
X89479418Y-81501161D01*
X89046256Y-81415000D01*
X88753744Y-81415000D01*
X88622062Y-81441193D01*
X86948587Y-79767720D01*
X86902001Y-79697999D01*
X86625801Y-79513448D01*
X86382237Y-79465000D01*
X86382233Y-79465000D01*
X86300000Y-79448643D01*
X86217767Y-79465000D01*
X73595868Y-79465000D01*
X71989935Y-77859068D01*
X72331105Y-77631105D01*
X72769829Y-76974508D01*
X72885000Y-76395502D01*
X72885000Y-76023000D01*
X73123000Y-76023000D01*
X73123000Y-76323000D01*
X73320560Y-77070202D01*
X73789024Y-77684924D01*
X74457072Y-78073580D01*
X74669843Y-78129636D01*
X74977000Y-78016089D01*
X74977000Y-76023000D01*
X75223000Y-76023000D01*
X75223000Y-78016089D01*
X75530157Y-78129636D01*
X75742928Y-78073580D01*
X76410976Y-77684924D01*
X76879440Y-77070202D01*
X77077000Y-76323000D01*
X77077000Y-76023000D01*
X77323000Y-76023000D01*
X77323000Y-76323000D01*
X77520560Y-77070202D01*
X77989024Y-77684924D01*
X78657072Y-78073580D01*
X78869843Y-78129636D01*
X79177000Y-78016089D01*
X79177000Y-76023000D01*
X79423000Y-76023000D01*
X79423000Y-78016089D01*
X79730157Y-78129636D01*
X79942928Y-78073580D01*
X80610976Y-77684924D01*
X81079440Y-77070202D01*
X81277000Y-76323000D01*
X81277000Y-76023000D01*
X81523000Y-76023000D01*
X81523000Y-76323000D01*
X81720560Y-77070202D01*
X82189024Y-77684924D01*
X82857072Y-78073580D01*
X83069843Y-78129636D01*
X83377000Y-78016089D01*
X83377000Y-76023000D01*
X83623000Y-76023000D01*
X83623000Y-78016089D01*
X83930157Y-78129636D01*
X84142928Y-78073580D01*
X84810976Y-77684924D01*
X85279440Y-77070202D01*
X85477000Y-76323000D01*
X85477000Y-76023000D01*
X83623000Y-76023000D01*
X83377000Y-76023000D01*
X81523000Y-76023000D01*
X81277000Y-76023000D01*
X79423000Y-76023000D01*
X79177000Y-76023000D01*
X77323000Y-76023000D01*
X77077000Y-76023000D01*
X75223000Y-76023000D01*
X74977000Y-76023000D01*
X73123000Y-76023000D01*
X72885000Y-76023000D01*
X72885000Y-75404497D01*
X72769829Y-74825492D01*
X72341866Y-74185000D01*
X73735737Y-74185000D01*
X73320560Y-74729798D01*
X73123000Y-75477000D01*
X73123000Y-75777000D01*
X74977000Y-75777000D01*
X74977000Y-75757000D01*
X75223000Y-75757000D01*
X75223000Y-75777000D01*
X77077000Y-75777000D01*
X77077000Y-75477000D01*
X76879440Y-74729798D01*
X76464263Y-74185000D01*
X77935737Y-74185000D01*
X77520560Y-74729798D01*
X77323000Y-75477000D01*
X77323000Y-75777000D01*
X79177000Y-75777000D01*
X79177000Y-75757000D01*
X79423000Y-75757000D01*
X79423000Y-75777000D01*
X81277000Y-75777000D01*
X81277000Y-75477000D01*
X81079440Y-74729798D01*
X80664263Y-74185000D01*
X82135737Y-74185000D01*
X81720560Y-74729798D01*
X81523000Y-75477000D01*
X81523000Y-75777000D01*
X83377000Y-75777000D01*
X83377000Y-75757000D01*
X83623000Y-75757000D01*
X83623000Y-75777000D01*
X85477000Y-75777000D01*
X85477000Y-75477000D01*
X85279440Y-74729798D01*
X84842896Y-74156961D01*
X85003837Y-74124948D01*
X85346193Y-73896193D01*
X85403937Y-73809773D01*
X86259776Y-72953935D01*
X86346193Y-72896193D01*
X86574948Y-72553837D01*
X86613265Y-72361205D01*
X86864352Y-72528976D01*
X86913448Y-72775800D01*
X86963027Y-72850000D01*
X87098000Y-73052001D01*
X87167718Y-73098585D01*
X87654329Y-73585197D01*
X86925492Y-73730171D01*
X86268895Y-74168895D01*
X85830171Y-74825493D01*
X85715000Y-75404498D01*
X85715000Y-76395503D01*
X85830171Y-76974508D01*
X86268896Y-77631105D01*
X86925493Y-78069829D01*
X87700000Y-78223888D01*
X88474508Y-78069829D01*
X88965001Y-77742092D01*
X88965001Y-78417762D01*
X88948643Y-78500000D01*
X89013448Y-78825800D01*
X89108274Y-78967716D01*
X89198000Y-79102001D01*
X89267718Y-79148585D01*
X90151415Y-80032282D01*
X90197999Y-80102001D01*
X90474199Y-80286552D01*
X90717763Y-80335000D01*
X90800000Y-80351358D01*
X90882237Y-80335000D01*
X97774133Y-80335000D01*
X98083715Y-80644582D01*
X98036887Y-80880000D01*
X98148260Y-81439909D01*
X98465423Y-81914577D01*
X98940091Y-82231740D01*
X99358667Y-82315000D01*
X99641333Y-82315000D01*
X100059909Y-82231740D01*
X100534577Y-81914577D01*
X100851740Y-81439909D01*
X100963113Y-80880000D01*
X100851740Y-80320091D01*
X100534577Y-79845423D01*
X100059909Y-79528260D01*
X99641333Y-79445000D01*
X99358667Y-79445000D01*
X99264582Y-79463715D01*
X98768587Y-78967720D01*
X98722001Y-78897999D01*
X98445801Y-78713448D01*
X98202237Y-78665000D01*
X98202233Y-78665000D01*
X98120000Y-78648643D01*
X98037767Y-78665000D01*
X91145868Y-78665000D01*
X90635000Y-78154133D01*
X90635000Y-77742092D01*
X91125493Y-78069829D01*
X91900000Y-78223888D01*
X92674508Y-78069829D01*
X93331105Y-77631105D01*
X93769829Y-76974508D01*
X93885000Y-76395502D01*
X93885000Y-75404497D01*
X93769829Y-74825492D01*
X93508911Y-74435000D01*
X94491090Y-74435000D01*
X94230171Y-74825493D01*
X94115000Y-75404498D01*
X94115000Y-76395503D01*
X94230171Y-76974508D01*
X94668896Y-77631105D01*
X95325493Y-78069829D01*
X96100000Y-78223888D01*
X96874508Y-78069829D01*
X97531105Y-77631105D01*
X97969829Y-76974508D01*
X98085000Y-76395502D01*
X98085000Y-75404497D01*
X97969829Y-74825492D01*
X97708911Y-74435000D01*
X98691090Y-74435000D01*
X98430171Y-74825493D01*
X98315000Y-75404498D01*
X98315000Y-76395503D01*
X98430171Y-76974508D01*
X98868896Y-77631105D01*
X99525493Y-78069829D01*
X100300000Y-78223888D01*
X101074508Y-78069829D01*
X101731105Y-77631105D01*
X102169829Y-76974508D01*
X102285000Y-76395502D01*
X102285000Y-76023000D01*
X102523000Y-76023000D01*
X102523000Y-76323000D01*
X102720560Y-77070202D01*
X103189024Y-77684924D01*
X103857072Y-78073580D01*
X104069843Y-78129636D01*
X104377000Y-78016089D01*
X104377000Y-76023000D01*
X104623000Y-76023000D01*
X104623000Y-78016089D01*
X104930157Y-78129636D01*
X105142928Y-78073580D01*
X105810976Y-77684924D01*
X106279440Y-77070202D01*
X106477000Y-76323000D01*
X106477000Y-76023000D01*
X104623000Y-76023000D01*
X104377000Y-76023000D01*
X102523000Y-76023000D01*
X102285000Y-76023000D01*
X102285000Y-75404497D01*
X102169829Y-74825492D01*
X101908911Y-74435000D01*
X102945218Y-74435000D01*
X102720560Y-74729798D01*
X102523000Y-75477000D01*
X102523000Y-75777000D01*
X104377000Y-75777000D01*
X104377000Y-75757000D01*
X104623000Y-75757000D01*
X104623000Y-75777000D01*
X106477000Y-75777000D01*
X106477000Y-75477000D01*
X106279440Y-74729798D01*
X105810976Y-74115076D01*
X105142928Y-73726420D01*
X104930157Y-73670364D01*
X104623002Y-73783910D01*
X104623002Y-73623000D01*
X104507867Y-73623000D01*
X105032282Y-73098585D01*
X105102001Y-73052001D01*
X105286552Y-72775801D01*
X105335000Y-72532237D01*
X105335649Y-72528976D01*
X105931105Y-72131105D01*
X106369829Y-71474508D01*
X106485000Y-70895502D01*
X106485000Y-69904497D01*
X106369829Y-69325492D01*
X106108911Y-68935000D01*
X108269869Y-68935000D01*
X110738978Y-71404110D01*
X110592191Y-71502191D01*
X110451843Y-71712235D01*
X110402560Y-71960000D01*
X110402560Y-73660000D01*
X110451843Y-73907765D01*
X110592191Y-74117809D01*
X110802235Y-74258157D01*
X110847619Y-74267184D01*
X110829375Y-74279375D01*
X110501161Y-74770582D01*
X110385908Y-75350000D01*
X110501161Y-75929418D01*
X110829375Y-76420625D01*
X111127761Y-76620000D01*
X110829375Y-76819375D01*
X110501161Y-77310582D01*
X110385908Y-77890000D01*
X110501161Y-78469418D01*
X110829375Y-78960625D01*
X111320582Y-79288839D01*
X111753744Y-79375000D01*
X112046256Y-79375000D01*
X112479418Y-79288839D01*
X112970625Y-78960625D01*
X113298839Y-78469418D01*
X113414092Y-77890000D01*
X113298839Y-77310582D01*
X112970625Y-76819375D01*
X112672239Y-76620000D01*
X112970625Y-76420625D01*
X113298839Y-75929418D01*
X113414092Y-75350000D01*
X113298839Y-74770582D01*
X112970625Y-74279375D01*
X112952381Y-74267184D01*
X112997765Y-74258157D01*
X113207809Y-74117809D01*
X113348157Y-73907765D01*
X113397440Y-73660000D01*
X113397440Y-71960000D01*
X113348157Y-71712235D01*
X113207809Y-71502191D01*
X113035000Y-71386723D01*
X113035000Y-71071783D01*
X113057235Y-70960000D01*
X112969146Y-70517145D01*
X112718289Y-70141711D01*
X112623521Y-70078390D01*
X109872131Y-67327000D01*
X121290001Y-67327000D01*
X121290000Y-99290000D01*
X55710000Y-99290000D01*
X55710000Y-94413263D01*
X62380483Y-94413263D01*
X62499870Y-94642001D01*
X63691999Y-94642001D01*
X63691999Y-93450493D01*
X63463262Y-93330494D01*
X63049359Y-93501929D01*
X62624283Y-93891072D01*
X62380483Y-94413263D01*
X55710000Y-94413263D01*
X55710000Y-75404498D01*
X56315000Y-75404498D01*
X56315000Y-76395503D01*
X56430171Y-76974508D01*
X56868896Y-77631105D01*
X57525493Y-78069829D01*
X58300000Y-78223888D01*
X59074508Y-78069829D01*
X59731105Y-77631105D01*
X60169829Y-76974508D01*
X60285000Y-76395502D01*
X60285000Y-75404497D01*
X60169829Y-74825492D01*
X59731105Y-74168895D01*
X59074507Y-73730171D01*
X58300000Y-73576112D01*
X57525492Y-73730171D01*
X56868895Y-74168895D01*
X56430171Y-74825493D01*
X56315000Y-75404498D01*
X55710000Y-75404498D01*
X55710000Y-69000001D01*
X56302560Y-69000001D01*
X56302560Y-71799999D01*
X56370874Y-72143435D01*
X56565414Y-72434586D01*
X56856565Y-72629126D01*
X57200001Y-72697440D01*
X59399999Y-72697440D01*
X59743435Y-72629126D01*
X60034586Y-72434586D01*
X60229126Y-72143435D01*
X60297440Y-71799999D01*
X60297440Y-69000001D01*
X60229126Y-68656565D01*
X60034586Y-68365414D01*
X59743435Y-68170874D01*
X59399999Y-68102560D01*
X57200001Y-68102560D01*
X56856565Y-68170874D01*
X56565414Y-68365414D01*
X56370874Y-68656565D01*
X56302560Y-69000001D01*
X55710000Y-69000001D01*
X55710000Y-66876956D01*
X62956993Y-66876956D01*
X63116848Y-67193964D01*
X63904150Y-67504069D01*
X64750194Y-67489282D01*
X65463152Y-67193964D01*
X65623007Y-66876956D01*
X64290000Y-65543948D01*
X62956993Y-66876956D01*
X55710000Y-66876956D01*
X55710000Y-64984150D01*
X62155931Y-64984150D01*
X62170718Y-65830194D01*
X62466036Y-66543152D01*
X62783044Y-66703007D01*
X64116052Y-65370000D01*
X64463948Y-65370000D01*
X65796956Y-66703007D01*
X66113964Y-66543152D01*
X66424069Y-65755850D01*
X66409282Y-64909806D01*
X66113964Y-64196848D01*
X65796956Y-64036993D01*
X64463948Y-65370000D01*
X64116052Y-65370000D01*
X62783044Y-64036993D01*
X62466036Y-64196848D01*
X62155931Y-64984150D01*
X55710000Y-64984150D01*
X55710000Y-63863044D01*
X62956993Y-63863044D01*
X64290000Y-65196052D01*
X65623007Y-63863044D01*
X65463152Y-63546036D01*
X64748631Y-63264598D01*
X66209351Y-63264598D01*
X66277445Y-63503772D01*
X66793110Y-63688650D01*
X67340273Y-63662118D01*
X67722555Y-63503772D01*
X67790649Y-63264598D01*
X67000000Y-62473948D01*
X66209351Y-63264598D01*
X64748631Y-63264598D01*
X64675850Y-63235931D01*
X63829806Y-63250718D01*
X63116848Y-63546036D01*
X62956993Y-63863044D01*
X55710000Y-63863044D01*
X55710000Y-62093110D01*
X65611350Y-62093110D01*
X65637882Y-62640273D01*
X65796228Y-63022555D01*
X66035402Y-63090649D01*
X66826052Y-62300000D01*
X67173948Y-62300000D01*
X67964598Y-63090649D01*
X68203772Y-63022555D01*
X68388650Y-62506890D01*
X68362118Y-61959727D01*
X68203772Y-61577445D01*
X67964598Y-61509351D01*
X67173948Y-62300000D01*
X66826052Y-62300000D01*
X66035402Y-61509351D01*
X65796228Y-61577445D01*
X65611350Y-62093110D01*
X55710000Y-62093110D01*
X55710000Y-54627000D01*
X65364878Y-54627000D01*
X65231010Y-55300000D01*
G36*
X101985423Y-92434577D02*
X102460091Y-92751740D01*
X102878667Y-92835000D01*
X103161333Y-92835000D01*
X103579909Y-92751740D01*
X104054577Y-92434577D01*
X104106890Y-92356286D01*
X104367138Y-92616534D01*
X104894561Y-92835000D01*
X105465439Y-92835000D01*
X105992862Y-92616534D01*
X106160000Y-92449396D01*
X106159999Y-93536936D01*
X105924374Y-93694376D01*
X105724999Y-93992762D01*
X105525624Y-93694376D01*
X105034417Y-93366162D01*
X104601255Y-93280001D01*
X104308743Y-93280001D01*
X103875581Y-93366162D01*
X103384374Y-93694376D01*
X103166275Y-94020784D01*
X103105715Y-93891072D01*
X102680639Y-93501929D01*
X102266736Y-93330494D01*
X102037999Y-93450493D01*
X102037999Y-94642001D01*
X102057999Y-94642001D01*
X102057999Y-94888001D01*
X102037999Y-94888001D01*
X102037999Y-94908001D01*
X101791999Y-94908001D01*
X101791999Y-94888001D01*
X101771999Y-94888001D01*
X101771999Y-94642001D01*
X101791999Y-94642001D01*
X101791999Y-93450493D01*
X101563262Y-93330494D01*
X101149359Y-93501929D01*
X100724283Y-93891072D01*
X100663723Y-94020784D01*
X100445624Y-93694376D01*
X100432907Y-93685879D01*
X101864774Y-92254013D01*
X101985423Y-92434577D01*
X101985423Y-92434577D01*
G37*
X101985423Y-92434577D02*
X102460091Y-92751740D01*
X102878667Y-92835000D01*
X103161333Y-92835000D01*
X103579909Y-92751740D01*
X104054577Y-92434577D01*
X104106890Y-92356286D01*
X104367138Y-92616534D01*
X104894561Y-92835000D01*
X105465439Y-92835000D01*
X105992862Y-92616534D01*
X106160000Y-92449396D01*
X106159999Y-93536936D01*
X105924374Y-93694376D01*
X105724999Y-93992762D01*
X105525624Y-93694376D01*
X105034417Y-93366162D01*
X104601255Y-93280001D01*
X104308743Y-93280001D01*
X103875581Y-93366162D01*
X103384374Y-93694376D01*
X103166275Y-94020784D01*
X103105715Y-93891072D01*
X102680639Y-93501929D01*
X102266736Y-93330494D01*
X102037999Y-93450493D01*
X102037999Y-94642001D01*
X102057999Y-94642001D01*
X102057999Y-94888001D01*
X102037999Y-94888001D01*
X102037999Y-94908001D01*
X101791999Y-94908001D01*
X101791999Y-94888001D01*
X101771999Y-94888001D01*
X101771999Y-94642001D01*
X101791999Y-94642001D01*
X101791999Y-93450493D01*
X101563262Y-93330494D01*
X101149359Y-93501929D01*
X100724283Y-93891072D01*
X100663723Y-94020784D01*
X100445624Y-93694376D01*
X100432907Y-93685879D01*
X101864774Y-92254013D01*
X101985423Y-92434577D01*
G36*
X118165000Y-78560132D02*
X118165001Y-89829867D01*
X114364868Y-93630001D01*
X113635000Y-93630001D01*
X113635000Y-92567930D01*
X113834577Y-92434577D01*
X114151740Y-91959909D01*
X114263113Y-91400000D01*
X114151740Y-90840091D01*
X113834577Y-90365423D01*
X113635000Y-90232070D01*
X113635000Y-89494396D01*
X114016534Y-89112862D01*
X114235000Y-88585439D01*
X114235000Y-88014561D01*
X114016534Y-87487138D01*
X113612862Y-87083466D01*
X113085439Y-86865000D01*
X112514561Y-86865000D01*
X111987138Y-87083466D01*
X111583466Y-87487138D01*
X111365000Y-88014561D01*
X111365000Y-88585439D01*
X111583466Y-89112862D01*
X111965001Y-89494397D01*
X111965000Y-90232070D01*
X111765423Y-90365423D01*
X111448260Y-90840091D01*
X111336887Y-91400000D01*
X111448260Y-91959909D01*
X111765423Y-92434577D01*
X111965000Y-92567930D01*
X111965001Y-93267561D01*
X111224999Y-93267561D01*
X110977234Y-93316844D01*
X110767190Y-93457192D01*
X110626842Y-93667236D01*
X110617815Y-93712620D01*
X110605624Y-93694376D01*
X110114417Y-93366162D01*
X109681255Y-93280001D01*
X109388743Y-93280001D01*
X108955581Y-93366162D01*
X108464374Y-93694376D01*
X108264999Y-93992762D01*
X108065624Y-93694376D01*
X107829999Y-93536936D01*
X107829999Y-92165861D01*
X107846356Y-92083628D01*
X107829999Y-92001395D01*
X107829999Y-92001392D01*
X107781551Y-91757828D01*
X107733182Y-91685439D01*
X107643583Y-91551344D01*
X107643582Y-91551343D01*
X107597000Y-91481628D01*
X107527284Y-91435045D01*
X107492238Y-91399999D01*
X111959954Y-86932284D01*
X111959956Y-86932281D01*
X112148584Y-86743653D01*
X113732283Y-85159955D01*
X113802001Y-85113371D01*
X113986552Y-84837171D01*
X114035000Y-84593607D01*
X114035000Y-84593604D01*
X114051357Y-84511371D01*
X114035000Y-84429138D01*
X114035000Y-83311737D01*
X115115493Y-83311737D01*
X115286928Y-83725640D01*
X115676071Y-84150716D01*
X116198262Y-84394516D01*
X116427000Y-84275129D01*
X116427000Y-83083000D01*
X116673000Y-83083000D01*
X116673000Y-84275129D01*
X116901738Y-84394516D01*
X117423929Y-84150716D01*
X117813072Y-83725640D01*
X117984507Y-83311737D01*
X117864508Y-83083000D01*
X116673000Y-83083000D01*
X116427000Y-83083000D01*
X115235492Y-83083000D01*
X115115493Y-83311737D01*
X114035000Y-83311737D01*
X114035000Y-82913786D01*
X115470878Y-81477909D01*
X115479375Y-81490625D01*
X115805783Y-81708724D01*
X115676071Y-81769284D01*
X115286928Y-82194360D01*
X115115493Y-82608263D01*
X115235492Y-82837000D01*
X116427000Y-82837000D01*
X116427000Y-82817000D01*
X116673000Y-82817000D01*
X116673000Y-82837000D01*
X117864508Y-82837000D01*
X117984507Y-82608263D01*
X117813072Y-82194360D01*
X117423929Y-81769284D01*
X117294217Y-81708724D01*
X117620625Y-81490625D01*
X117948839Y-80999418D01*
X118064092Y-80420000D01*
X117948839Y-79840582D01*
X117620625Y-79349375D01*
X117322239Y-79150000D01*
X117620625Y-78950625D01*
X117948839Y-78459418D01*
X117967993Y-78363125D01*
X118165000Y-78560132D01*
X118165000Y-78560132D01*
G37*
X118165000Y-78560132D02*
X118165001Y-89829867D01*
X114364868Y-93630001D01*
X113635000Y-93630001D01*
X113635000Y-92567930D01*
X113834577Y-92434577D01*
X114151740Y-91959909D01*
X114263113Y-91400000D01*
X114151740Y-90840091D01*
X113834577Y-90365423D01*
X113635000Y-90232070D01*
X113635000Y-89494396D01*
X114016534Y-89112862D01*
X114235000Y-88585439D01*
X114235000Y-88014561D01*
X114016534Y-87487138D01*
X113612862Y-87083466D01*
X113085439Y-86865000D01*
X112514561Y-86865000D01*
X111987138Y-87083466D01*
X111583466Y-87487138D01*
X111365000Y-88014561D01*
X111365000Y-88585439D01*
X111583466Y-89112862D01*
X111965001Y-89494397D01*
X111965000Y-90232070D01*
X111765423Y-90365423D01*
X111448260Y-90840091D01*
X111336887Y-91400000D01*
X111448260Y-91959909D01*
X111765423Y-92434577D01*
X111965000Y-92567930D01*
X111965001Y-93267561D01*
X111224999Y-93267561D01*
X110977234Y-93316844D01*
X110767190Y-93457192D01*
X110626842Y-93667236D01*
X110617815Y-93712620D01*
X110605624Y-93694376D01*
X110114417Y-93366162D01*
X109681255Y-93280001D01*
X109388743Y-93280001D01*
X108955581Y-93366162D01*
X108464374Y-93694376D01*
X108264999Y-93992762D01*
X108065624Y-93694376D01*
X107829999Y-93536936D01*
X107829999Y-92165861D01*
X107846356Y-92083628D01*
X107829999Y-92001395D01*
X107829999Y-92001392D01*
X107781551Y-91757828D01*
X107733182Y-91685439D01*
X107643583Y-91551344D01*
X107643582Y-91551343D01*
X107597000Y-91481628D01*
X107527284Y-91435045D01*
X107492238Y-91399999D01*
X111959954Y-86932284D01*
X111959956Y-86932281D01*
X112148584Y-86743653D01*
X113732283Y-85159955D01*
X113802001Y-85113371D01*
X113986552Y-84837171D01*
X114035000Y-84593607D01*
X114035000Y-84593604D01*
X114051357Y-84511371D01*
X114035000Y-84429138D01*
X114035000Y-83311737D01*
X115115493Y-83311737D01*
X115286928Y-83725640D01*
X115676071Y-84150716D01*
X116198262Y-84394516D01*
X116427000Y-84275129D01*
X116427000Y-83083000D01*
X116673000Y-83083000D01*
X116673000Y-84275129D01*
X116901738Y-84394516D01*
X117423929Y-84150716D01*
X117813072Y-83725640D01*
X117984507Y-83311737D01*
X117864508Y-83083000D01*
X116673000Y-83083000D01*
X116427000Y-83083000D01*
X115235492Y-83083000D01*
X115115493Y-83311737D01*
X114035000Y-83311737D01*
X114035000Y-82913786D01*
X115470878Y-81477909D01*
X115479375Y-81490625D01*
X115805783Y-81708724D01*
X115676071Y-81769284D01*
X115286928Y-82194360D01*
X115115493Y-82608263D01*
X115235492Y-82837000D01*
X116427000Y-82837000D01*
X116427000Y-82817000D01*
X116673000Y-82817000D01*
X116673000Y-82837000D01*
X117864508Y-82837000D01*
X117984507Y-82608263D01*
X117813072Y-82194360D01*
X117423929Y-81769284D01*
X117294217Y-81708724D01*
X117620625Y-81490625D01*
X117948839Y-80999418D01*
X118064092Y-80420000D01*
X117948839Y-79840582D01*
X117620625Y-79349375D01*
X117322239Y-79150000D01*
X117620625Y-78950625D01*
X117948839Y-78459418D01*
X117967993Y-78363125D01*
X118165000Y-78560132D01*
G36*
X93565000Y-65077206D02*
X93534334Y-64923037D01*
X93150865Y-64349135D01*
X93005998Y-64252338D01*
X88835000Y-60081341D01*
X88835000Y-57670879D01*
X88868990Y-57500001D01*
X88835000Y-57329120D01*
X88835000Y-54627000D01*
X93565000Y-54627000D01*
X93565000Y-65077206D01*
X93565000Y-65077206D01*
G37*
X93565000Y-65077206D02*
X93534334Y-64923037D01*
X93150865Y-64349135D01*
X93005998Y-64252338D01*
X88835000Y-60081341D01*
X88835000Y-57670879D01*
X88868990Y-57500001D01*
X88835000Y-57329120D01*
X88835000Y-54627000D01*
X93565000Y-54627000D01*
X93565000Y-65077206D01*
G36*
X85365001Y-55925000D02*
X82829120Y-55925000D01*
X82323037Y-56025666D01*
X82104665Y-56171578D01*
X81902235Y-56211843D01*
X81692191Y-56352191D01*
X81551843Y-56562235D01*
X81511578Y-56764665D01*
X81365666Y-56983037D01*
X81231010Y-57660000D01*
X81365666Y-58336963D01*
X81451218Y-58465000D01*
X80518661Y-58465000D01*
X76680659Y-54627000D01*
X85365001Y-54627000D01*
X85365001Y-55925000D01*
X85365001Y-55925000D01*
G37*
X85365001Y-55925000D02*
X82829120Y-55925000D01*
X82323037Y-56025666D01*
X82104665Y-56171578D01*
X81902235Y-56211843D01*
X81692191Y-56352191D01*
X81551843Y-56562235D01*
X81511578Y-56764665D01*
X81365666Y-56983037D01*
X81231010Y-57660000D01*
X81365666Y-58336963D01*
X81451218Y-58465000D01*
X80518661Y-58465000D01*
X76680659Y-54627000D01*
X85365001Y-54627000D01*
X85365001Y-55925000D01*
G36*
X121290001Y-67073000D02*
X109619286Y-67073000D01*
X109558289Y-66981711D01*
X109182855Y-66730854D01*
X108851783Y-66665000D01*
X108740000Y-66642765D01*
X108628217Y-66665000D01*
X103711781Y-66665000D01*
X103599999Y-66642765D01*
X103488217Y-66665000D01*
X103157145Y-66730854D01*
X103035000Y-66812469D01*
X103035000Y-66184507D01*
X103126996Y-54501000D01*
X103117712Y-54452325D01*
X103090507Y-54410907D01*
X103049523Y-54383054D01*
X103035000Y-54380106D01*
X103035000Y-54135000D01*
X115700000Y-54135000D01*
X115943004Y-54086664D01*
X116149013Y-53949013D01*
X116286664Y-53743004D01*
X116335000Y-53500000D01*
X116335000Y-41210000D01*
X121290001Y-41210000D01*
X121290001Y-67073000D01*
X121290001Y-67073000D01*
G37*
X121290001Y-67073000D02*
X109619286Y-67073000D01*
X109558289Y-66981711D01*
X109182855Y-66730854D01*
X108851783Y-66665000D01*
X108740000Y-66642765D01*
X108628217Y-66665000D01*
X103711781Y-66665000D01*
X103599999Y-66642765D01*
X103488217Y-66665000D01*
X103157145Y-66730854D01*
X103035000Y-66812469D01*
X103035000Y-66184507D01*
X103126996Y-54501000D01*
X103117712Y-54452325D01*
X103090507Y-54410907D01*
X103049523Y-54383054D01*
X103035000Y-54380106D01*
X103035000Y-54135000D01*
X115700000Y-54135000D01*
X115943004Y-54086664D01*
X116149013Y-53949013D01*
X116286664Y-53743004D01*
X116335000Y-53500000D01*
X116335000Y-41210000D01*
X121290001Y-41210000D01*
X121290001Y-67073000D01*
G36*
X93565000Y-54373000D02*
X88835000Y-54373000D01*
X88835000Y-47129120D01*
X88735000Y-46626385D01*
X88735000Y-46338969D01*
X88640136Y-45862055D01*
X88278769Y-45321231D01*
X87737945Y-44959864D01*
X87100000Y-44832969D01*
X86462056Y-44959864D01*
X85921232Y-45321231D01*
X85559865Y-45862055D01*
X85465000Y-46338969D01*
X85465000Y-46626390D01*
X85365001Y-47129120D01*
X85365000Y-50829120D01*
X85365000Y-50829121D01*
X85365001Y-54373000D01*
X76426659Y-54373000D01*
X76247664Y-54194005D01*
X76150865Y-54049135D01*
X75576963Y-53665666D01*
X75070880Y-53565000D01*
X75070878Y-53565000D01*
X74900000Y-53531010D01*
X74729122Y-53565000D01*
X66829120Y-53565000D01*
X66323037Y-53665666D01*
X65749135Y-54049135D01*
X65532735Y-54373000D01*
X55710000Y-54373000D01*
X55710000Y-46338969D01*
X59465000Y-46338969D01*
X59465000Y-48261030D01*
X59559864Y-48737944D01*
X59921231Y-49278769D01*
X60462055Y-49640136D01*
X61100000Y-49767031D01*
X61737944Y-49640136D01*
X62278769Y-49278769D01*
X62640136Y-48737945D01*
X62735000Y-48261031D01*
X62735000Y-46338969D01*
X72465000Y-46338969D01*
X72465000Y-48261030D01*
X72559864Y-48737944D01*
X72921231Y-49278769D01*
X73462055Y-49640136D01*
X74100000Y-49767031D01*
X74737944Y-49640136D01*
X75278769Y-49278769D01*
X75640136Y-48737945D01*
X75735000Y-48261031D01*
X75735000Y-46338969D01*
X75640136Y-45862055D01*
X75278769Y-45321231D01*
X74737945Y-44959864D01*
X74100000Y-44832969D01*
X73462056Y-44959864D01*
X72921232Y-45321231D01*
X72559865Y-45862055D01*
X72465000Y-46338969D01*
X62735000Y-46338969D01*
X62640136Y-45862055D01*
X62278769Y-45321231D01*
X61737945Y-44959864D01*
X61100000Y-44832969D01*
X60462056Y-44959864D01*
X59921232Y-45321231D01*
X59559865Y-45862055D01*
X59465000Y-46338969D01*
X55710000Y-46338969D01*
X55710000Y-41210000D01*
X93565000Y-41210000D01*
X93565000Y-54373000D01*
X93565000Y-54373000D01*
G37*
X93565000Y-54373000D02*
X88835000Y-54373000D01*
X88835000Y-47129120D01*
X88735000Y-46626385D01*
X88735000Y-46338969D01*
X88640136Y-45862055D01*
X88278769Y-45321231D01*
X87737945Y-44959864D01*
X87100000Y-44832969D01*
X86462056Y-44959864D01*
X85921232Y-45321231D01*
X85559865Y-45862055D01*
X85465000Y-46338969D01*
X85465000Y-46626390D01*
X85365001Y-47129120D01*
X85365000Y-50829120D01*
X85365000Y-50829121D01*
X85365001Y-54373000D01*
X76426659Y-54373000D01*
X76247664Y-54194005D01*
X76150865Y-54049135D01*
X75576963Y-53665666D01*
X75070880Y-53565000D01*
X75070878Y-53565000D01*
X74900000Y-53531010D01*
X74729122Y-53565000D01*
X66829120Y-53565000D01*
X66323037Y-53665666D01*
X65749135Y-54049135D01*
X65532735Y-54373000D01*
X55710000Y-54373000D01*
X55710000Y-46338969D01*
X59465000Y-46338969D01*
X59465000Y-48261030D01*
X59559864Y-48737944D01*
X59921231Y-49278769D01*
X60462055Y-49640136D01*
X61100000Y-49767031D01*
X61737944Y-49640136D01*
X62278769Y-49278769D01*
X62640136Y-48737945D01*
X62735000Y-48261031D01*
X62735000Y-46338969D01*
X72465000Y-46338969D01*
X72465000Y-48261030D01*
X72559864Y-48737944D01*
X72921231Y-49278769D01*
X73462055Y-49640136D01*
X74100000Y-49767031D01*
X74737944Y-49640136D01*
X75278769Y-49278769D01*
X75640136Y-48737945D01*
X75735000Y-48261031D01*
X75735000Y-46338969D01*
X75640136Y-45862055D01*
X75278769Y-45321231D01*
X74737945Y-44959864D01*
X74100000Y-44832969D01*
X73462056Y-44959864D01*
X72921232Y-45321231D01*
X72559865Y-45862055D01*
X72465000Y-46338969D01*
X62735000Y-46338969D01*
X62640136Y-45862055D01*
X62278769Y-45321231D01*
X61737945Y-44959864D01*
X61100000Y-44832969D01*
X60462056Y-44959864D01*
X59921232Y-45321231D01*
X59559865Y-45862055D01*
X59465000Y-46338969D01*
X55710000Y-46338969D01*
X55710000Y-41210000D01*
X93565000Y-41210000D01*
X93565000Y-54373000D01*
G04 #@! TD*
M02*
