G04 #@! TF.GenerationSoftware,KiCad,Pcbnew,(5.0.1-dev-70-gb7b125d83)*
G04 #@! TF.CreationDate,2019-03-06T23:18:23+01:00*
G04 #@! TF.ProjectId,ATX-breakout,4154582D627265616B6F75742E6B6963,rev?*
G04 #@! TF.SameCoordinates,Original*
G04 #@! TF.FileFunction,Legend,Top*
G04 #@! TF.FilePolarity,Positive*
%FSLAX46Y46*%
G04 Gerber Fmt 4.6, Leading zero omitted, Abs format (unit mm)*
G04 Created by KiCad (PCBNEW (5.0.1-dev-70-gb7b125d83)) date 03/06/19 23:18:23*
%MOMM*%
%LPD*%
G01*
G04 APERTURE LIST*
%ADD10C,0.300000*%
%ADD11C,0.200000*%
%ADD12C,0.150000*%
%ADD13C,0.120000*%
G04 APERTURE END LIST*
D10*
X56578571Y-98078571D02*
X57792857Y-98078571D01*
X57935714Y-98150000D01*
X58007142Y-98221428D01*
X58078571Y-98364285D01*
X58078571Y-98578571D01*
X58007142Y-98721428D01*
X57507142Y-98078571D02*
X57578571Y-98221428D01*
X57578571Y-98507142D01*
X57507142Y-98650000D01*
X57435714Y-98721428D01*
X57292857Y-98792857D01*
X56864285Y-98792857D01*
X56721428Y-98721428D01*
X56650000Y-98650000D01*
X56578571Y-98507142D01*
X56578571Y-98221428D01*
X56650000Y-98078571D01*
X57578571Y-97364285D02*
X56578571Y-97364285D01*
X56078571Y-97364285D02*
X56150000Y-97435714D01*
X56221428Y-97364285D01*
X56150000Y-97292857D01*
X56078571Y-97364285D01*
X56221428Y-97364285D01*
X56578571Y-96864285D02*
X56578571Y-96292857D01*
X56078571Y-96650000D02*
X57364285Y-96650000D01*
X57507142Y-96578571D01*
X57578571Y-96435714D01*
X57578571Y-96292857D01*
X57435714Y-95792857D02*
X57507142Y-95721428D01*
X57578571Y-95792857D01*
X57507142Y-95864285D01*
X57435714Y-95792857D01*
X57578571Y-95792857D01*
X57578571Y-95078571D02*
X56578571Y-95078571D01*
X56078571Y-95078571D02*
X56150000Y-95150000D01*
X56221428Y-95078571D01*
X56150000Y-95007142D01*
X56078571Y-95078571D01*
X56221428Y-95078571D01*
X57578571Y-94150000D02*
X57507142Y-94292857D01*
X57435714Y-94364285D01*
X57292857Y-94435714D01*
X56864285Y-94435714D01*
X56721428Y-94364285D01*
X56650000Y-94292857D01*
X56578571Y-94150000D01*
X56578571Y-93935714D01*
X56650000Y-93792857D01*
X56721428Y-93721428D01*
X56864285Y-93650000D01*
X57292857Y-93650000D01*
X57435714Y-93721428D01*
X57507142Y-93792857D01*
X57578571Y-93935714D01*
X57578571Y-94150000D01*
X56007142Y-91935714D02*
X57935714Y-93221428D01*
X57578571Y-91435714D02*
X56078571Y-91435714D01*
X56078571Y-90864285D01*
X56150000Y-90721428D01*
X56221428Y-90650000D01*
X56364285Y-90578571D01*
X56578571Y-90578571D01*
X56721428Y-90650000D01*
X56792857Y-90721428D01*
X56864285Y-90864285D01*
X56864285Y-91435714D01*
X57578571Y-89935714D02*
X56578571Y-89935714D01*
X56078571Y-89935714D02*
X56150000Y-90007142D01*
X56221428Y-89935714D01*
X56150000Y-89864285D01*
X56078571Y-89935714D01*
X56221428Y-89935714D01*
X57150000Y-89292857D02*
X57150000Y-88578571D01*
X57578571Y-89435714D02*
X56078571Y-88935714D01*
X57578571Y-88435714D01*
X56078571Y-88150000D02*
X56078571Y-87292857D01*
X57578571Y-87721428D02*
X56078571Y-87721428D01*
X56078571Y-86935714D02*
X57578571Y-85935714D01*
X56078571Y-85935714D02*
X57578571Y-86935714D01*
D11*
X58183333Y-50515476D02*
X58957142Y-50515476D01*
X58540476Y-50991666D01*
X58719047Y-50991666D01*
X58838095Y-51051190D01*
X58897619Y-51110714D01*
X58957142Y-51229761D01*
X58957142Y-51527380D01*
X58897619Y-51646428D01*
X58838095Y-51705952D01*
X58719047Y-51765476D01*
X58361904Y-51765476D01*
X58242857Y-51705952D01*
X58183333Y-51646428D01*
X59314285Y-50515476D02*
X59730952Y-51765476D01*
X60147619Y-50515476D01*
X60445238Y-50515476D02*
X61219047Y-50515476D01*
X60802380Y-50991666D01*
X60980952Y-50991666D01*
X61100000Y-51051190D01*
X61159523Y-51110714D01*
X61219047Y-51229761D01*
X61219047Y-51527380D01*
X61159523Y-51646428D01*
X61100000Y-51705952D01*
X60980952Y-51765476D01*
X60623809Y-51765476D01*
X60504761Y-51705952D01*
X60445238Y-51646428D01*
X66695238Y-51765476D02*
X66576190Y-51705952D01*
X66516666Y-51646428D01*
X66457142Y-51527380D01*
X66457142Y-51170238D01*
X66516666Y-51051190D01*
X66576190Y-50991666D01*
X66695238Y-50932142D01*
X66873809Y-50932142D01*
X66992857Y-50991666D01*
X67052380Y-51051190D01*
X67111904Y-51170238D01*
X67111904Y-51527380D01*
X67052380Y-51646428D01*
X66992857Y-51705952D01*
X66873809Y-51765476D01*
X66695238Y-51765476D01*
X68183333Y-50932142D02*
X68183333Y-51765476D01*
X67647619Y-50932142D02*
X67647619Y-51586904D01*
X67707142Y-51705952D01*
X67826190Y-51765476D01*
X68004761Y-51765476D01*
X68123809Y-51705952D01*
X68183333Y-51646428D01*
X68600000Y-50932142D02*
X69076190Y-50932142D01*
X68778571Y-50515476D02*
X68778571Y-51586904D01*
X68838095Y-51705952D01*
X68957142Y-51765476D01*
X69076190Y-51765476D01*
X91800000Y-84900000D02*
X91800000Y-84400000D01*
X93000000Y-85600000D02*
X93900000Y-85600000D01*
D12*
X95519047Y-88171428D02*
X96280952Y-88171428D01*
X95785714Y-81604761D02*
X95880952Y-81652380D01*
X96071428Y-81652380D01*
X96166666Y-81604761D01*
X96214285Y-81509523D01*
X96214285Y-81461904D01*
X96166666Y-81366666D01*
X96071428Y-81319047D01*
X95928571Y-81319047D01*
X95833333Y-81271428D01*
X95785714Y-81176190D01*
X95785714Y-81128571D01*
X95833333Y-81033333D01*
X95928571Y-80985714D01*
X96071428Y-80985714D01*
X96166666Y-81033333D01*
D11*
X90469047Y-85510714D02*
X90885714Y-85510714D01*
X91064285Y-86165476D02*
X90469047Y-86165476D01*
X90469047Y-84915476D01*
X91064285Y-84915476D01*
X91480952Y-86165476D02*
X92135714Y-85332142D01*
X91480952Y-85332142D02*
X92135714Y-86165476D01*
X92433333Y-85332142D02*
X92909523Y-85332142D01*
X92611904Y-84915476D02*
X92611904Y-85986904D01*
X92671428Y-86105952D01*
X92790476Y-86165476D01*
X92909523Y-86165476D01*
X82975000Y-82765476D02*
X82975000Y-81515476D01*
X83451190Y-81515476D01*
X83570238Y-81575000D01*
X83629761Y-81634523D01*
X83689285Y-81753571D01*
X83689285Y-81932142D01*
X83629761Y-82051190D01*
X83570238Y-82110714D01*
X83451190Y-82170238D01*
X82975000Y-82170238D01*
X84225000Y-82765476D02*
X84225000Y-81932142D01*
X84225000Y-81515476D02*
X84165476Y-81575000D01*
X84225000Y-81634523D01*
X84284523Y-81575000D01*
X84225000Y-81515476D01*
X84225000Y-81634523D01*
X81741666Y-54415476D02*
X81146428Y-54415476D01*
X81086904Y-55010714D01*
X81146428Y-54951190D01*
X81265476Y-54891666D01*
X81563095Y-54891666D01*
X81682142Y-54951190D01*
X81741666Y-55010714D01*
X81801190Y-55129761D01*
X81801190Y-55427380D01*
X81741666Y-55546428D01*
X81682142Y-55605952D01*
X81563095Y-55665476D01*
X81265476Y-55665476D01*
X81146428Y-55605952D01*
X81086904Y-55546428D01*
X82158333Y-54415476D02*
X82575000Y-55665476D01*
X82991666Y-54415476D01*
X83348809Y-55605952D02*
X83527380Y-55665476D01*
X83825000Y-55665476D01*
X83944047Y-55605952D01*
X84003571Y-55546428D01*
X84063095Y-55427380D01*
X84063095Y-55308333D01*
X84003571Y-55189285D01*
X83944047Y-55129761D01*
X83825000Y-55070238D01*
X83586904Y-55010714D01*
X83467857Y-54951190D01*
X83408333Y-54891666D01*
X83348809Y-54772619D01*
X83348809Y-54653571D01*
X83408333Y-54534523D01*
X83467857Y-54475000D01*
X83586904Y-54415476D01*
X83884523Y-54415476D01*
X84063095Y-54475000D01*
X85015476Y-55010714D02*
X85194047Y-55070238D01*
X85253571Y-55129761D01*
X85313095Y-55248809D01*
X85313095Y-55427380D01*
X85253571Y-55546428D01*
X85194047Y-55605952D01*
X85075000Y-55665476D01*
X84598809Y-55665476D01*
X84598809Y-54415476D01*
X85015476Y-54415476D01*
X85134523Y-54475000D01*
X85194047Y-54534523D01*
X85253571Y-54653571D01*
X85253571Y-54772619D01*
X85194047Y-54891666D01*
X85134523Y-54951190D01*
X85015476Y-55010714D01*
X84598809Y-55010714D01*
X82961904Y-64815476D02*
X82366666Y-64815476D01*
X82307142Y-65410714D01*
X82366666Y-65351190D01*
X82485714Y-65291666D01*
X82783333Y-65291666D01*
X82902380Y-65351190D01*
X82961904Y-65410714D01*
X83021428Y-65529761D01*
X83021428Y-65827380D01*
X82961904Y-65946428D01*
X82902380Y-66005952D01*
X82783333Y-66065476D01*
X82485714Y-66065476D01*
X82366666Y-66005952D01*
X82307142Y-65946428D01*
X83378571Y-64815476D02*
X83795238Y-66065476D01*
X84211904Y-64815476D01*
X87165476Y-65557142D02*
X85915476Y-65557142D01*
X85915476Y-65080952D01*
X85975000Y-64961904D01*
X86034523Y-64902380D01*
X86153571Y-64842857D01*
X86332142Y-64842857D01*
X86451190Y-64902380D01*
X86510714Y-64961904D01*
X86570238Y-65080952D01*
X86570238Y-65557142D01*
X87165476Y-64128571D02*
X87105952Y-64247619D01*
X87046428Y-64307142D01*
X86927380Y-64366666D01*
X86570238Y-64366666D01*
X86451190Y-64307142D01*
X86391666Y-64247619D01*
X86332142Y-64128571D01*
X86332142Y-63950000D01*
X86391666Y-63830952D01*
X86451190Y-63771428D01*
X86570238Y-63711904D01*
X86927380Y-63711904D01*
X87046428Y-63771428D01*
X87105952Y-63830952D01*
X87165476Y-63950000D01*
X87165476Y-64128571D01*
X86332142Y-63295238D02*
X87165476Y-63057142D01*
X86570238Y-62819047D01*
X87165476Y-62580952D01*
X86332142Y-62342857D01*
X87105952Y-61390476D02*
X87165476Y-61509523D01*
X87165476Y-61747619D01*
X87105952Y-61866666D01*
X86986904Y-61926190D01*
X86510714Y-61926190D01*
X86391666Y-61866666D01*
X86332142Y-61747619D01*
X86332142Y-61509523D01*
X86391666Y-61390476D01*
X86510714Y-61330952D01*
X86629761Y-61330952D01*
X86748809Y-61926190D01*
X87165476Y-60795238D02*
X86332142Y-60795238D01*
X86570238Y-60795238D02*
X86451190Y-60735714D01*
X86391666Y-60676190D01*
X86332142Y-60557142D01*
X86332142Y-60438095D01*
X87105952Y-60080952D02*
X87165476Y-59902380D01*
X87165476Y-59604761D01*
X87105952Y-59485714D01*
X87046428Y-59426190D01*
X86927380Y-59366666D01*
X86808333Y-59366666D01*
X86689285Y-59426190D01*
X86629761Y-59485714D01*
X86570238Y-59604761D01*
X86510714Y-59842857D01*
X86451190Y-59961904D01*
X86391666Y-60021428D01*
X86272619Y-60080952D01*
X86153571Y-60080952D01*
X86034523Y-60021428D01*
X85975000Y-59961904D01*
X85915476Y-59842857D01*
X85915476Y-59545238D01*
X85975000Y-59366666D01*
X87105952Y-58354761D02*
X87165476Y-58473809D01*
X87165476Y-58711904D01*
X87105952Y-58830952D01*
X86986904Y-58890476D01*
X86510714Y-58890476D01*
X86391666Y-58830952D01*
X86332142Y-58711904D01*
X86332142Y-58473809D01*
X86391666Y-58354761D01*
X86510714Y-58295238D01*
X86629761Y-58295238D01*
X86748809Y-58890476D01*
X87165476Y-57580952D02*
X87105952Y-57700000D01*
X86986904Y-57759523D01*
X85915476Y-57759523D01*
X87105952Y-56628571D02*
X87165476Y-56747619D01*
X87165476Y-56985714D01*
X87105952Y-57104761D01*
X86986904Y-57164285D01*
X86510714Y-57164285D01*
X86391666Y-57104761D01*
X86332142Y-56985714D01*
X86332142Y-56747619D01*
X86391666Y-56628571D01*
X86510714Y-56569047D01*
X86629761Y-56569047D01*
X86748809Y-57164285D01*
X87105952Y-55497619D02*
X87165476Y-55616666D01*
X87165476Y-55854761D01*
X87105952Y-55973809D01*
X87046428Y-56033333D01*
X86927380Y-56092857D01*
X86570238Y-56092857D01*
X86451190Y-56033333D01*
X86391666Y-55973809D01*
X86332142Y-55854761D01*
X86332142Y-55616666D01*
X86391666Y-55497619D01*
X86332142Y-55140476D02*
X86332142Y-54664285D01*
X85915476Y-54961904D02*
X86986904Y-54961904D01*
X87105952Y-54902380D01*
X87165476Y-54783333D01*
X87165476Y-54664285D01*
X111661904Y-79915476D02*
X111066666Y-79915476D01*
X111007142Y-80510714D01*
X111066666Y-80451190D01*
X111185714Y-80391666D01*
X111483333Y-80391666D01*
X111602380Y-80451190D01*
X111661904Y-80510714D01*
X111721428Y-80629761D01*
X111721428Y-80927380D01*
X111661904Y-81046428D01*
X111602380Y-81105952D01*
X111483333Y-81165476D01*
X111185714Y-81165476D01*
X111066666Y-81105952D01*
X111007142Y-81046428D01*
X112078571Y-79915476D02*
X112495238Y-81165476D01*
X112911904Y-79915476D01*
X110441666Y-69515476D02*
X109846428Y-69515476D01*
X109786904Y-70110714D01*
X109846428Y-70051190D01*
X109965476Y-69991666D01*
X110263095Y-69991666D01*
X110382142Y-70051190D01*
X110441666Y-70110714D01*
X110501190Y-70229761D01*
X110501190Y-70527380D01*
X110441666Y-70646428D01*
X110382142Y-70705952D01*
X110263095Y-70765476D01*
X109965476Y-70765476D01*
X109846428Y-70705952D01*
X109786904Y-70646428D01*
X110858333Y-69515476D02*
X111275000Y-70765476D01*
X111691666Y-69515476D01*
X112048809Y-70705952D02*
X112227380Y-70765476D01*
X112525000Y-70765476D01*
X112644047Y-70705952D01*
X112703571Y-70646428D01*
X112763095Y-70527380D01*
X112763095Y-70408333D01*
X112703571Y-70289285D01*
X112644047Y-70229761D01*
X112525000Y-70170238D01*
X112286904Y-70110714D01*
X112167857Y-70051190D01*
X112108333Y-69991666D01*
X112048809Y-69872619D01*
X112048809Y-69753571D01*
X112108333Y-69634523D01*
X112167857Y-69575000D01*
X112286904Y-69515476D01*
X112584523Y-69515476D01*
X112763095Y-69575000D01*
X113715476Y-70110714D02*
X113894047Y-70170238D01*
X113953571Y-70229761D01*
X114013095Y-70348809D01*
X114013095Y-70527380D01*
X113953571Y-70646428D01*
X113894047Y-70705952D01*
X113775000Y-70765476D01*
X113298809Y-70765476D01*
X113298809Y-69515476D01*
X113715476Y-69515476D01*
X113834523Y-69575000D01*
X113894047Y-69634523D01*
X113953571Y-69753571D01*
X113953571Y-69872619D01*
X113894047Y-69991666D01*
X113834523Y-70051190D01*
X113715476Y-70110714D01*
X113298809Y-70110714D01*
X116261904Y-58065476D02*
X115666666Y-58065476D01*
X115607142Y-58660714D01*
X115666666Y-58601190D01*
X115785714Y-58541666D01*
X116083333Y-58541666D01*
X116202380Y-58601190D01*
X116261904Y-58660714D01*
X116321428Y-58779761D01*
X116321428Y-59077380D01*
X116261904Y-59196428D01*
X116202380Y-59255952D01*
X116083333Y-59315476D01*
X115785714Y-59315476D01*
X115666666Y-59255952D01*
X115607142Y-59196428D01*
X116678571Y-58065476D02*
X117095238Y-59315476D01*
X117511904Y-58065476D01*
X114952380Y-60140476D02*
X115726190Y-60140476D01*
X115309523Y-60616666D01*
X115488095Y-60616666D01*
X115607142Y-60676190D01*
X115666666Y-60735714D01*
X115726190Y-60854761D01*
X115726190Y-61152380D01*
X115666666Y-61271428D01*
X115607142Y-61330952D01*
X115488095Y-61390476D01*
X115130952Y-61390476D01*
X115011904Y-61330952D01*
X114952380Y-61271428D01*
X116083333Y-60140476D02*
X116500000Y-61390476D01*
X116916666Y-60140476D01*
X117214285Y-60140476D02*
X117988095Y-60140476D01*
X117571428Y-60616666D01*
X117750000Y-60616666D01*
X117869047Y-60676190D01*
X117928571Y-60735714D01*
X117988095Y-60854761D01*
X117988095Y-61152380D01*
X117928571Y-61271428D01*
X117869047Y-61330952D01*
X117750000Y-61390476D01*
X117392857Y-61390476D01*
X117273809Y-61330952D01*
X117214285Y-61271428D01*
X114982142Y-63405952D02*
X115160714Y-63465476D01*
X115458333Y-63465476D01*
X115577380Y-63405952D01*
X115636904Y-63346428D01*
X115696428Y-63227380D01*
X115696428Y-63108333D01*
X115636904Y-62989285D01*
X115577380Y-62929761D01*
X115458333Y-62870238D01*
X115220238Y-62810714D01*
X115101190Y-62751190D01*
X115041666Y-62691666D01*
X114982142Y-62572619D01*
X114982142Y-62453571D01*
X115041666Y-62334523D01*
X115101190Y-62275000D01*
X115220238Y-62215476D01*
X115517857Y-62215476D01*
X115696428Y-62275000D01*
X116232142Y-63465476D02*
X116232142Y-62215476D01*
X116529761Y-62215476D01*
X116708333Y-62275000D01*
X116827380Y-62394047D01*
X116886904Y-62513095D01*
X116946428Y-62751190D01*
X116946428Y-62929761D01*
X116886904Y-63167857D01*
X116827380Y-63286904D01*
X116708333Y-63405952D01*
X116529761Y-63465476D01*
X116232142Y-63465476D01*
X117422619Y-63108333D02*
X118017857Y-63108333D01*
X117303571Y-63465476D02*
X117720238Y-62215476D01*
X118136904Y-63465476D01*
X115011904Y-65480952D02*
X115190476Y-65540476D01*
X115488095Y-65540476D01*
X115607142Y-65480952D01*
X115666666Y-65421428D01*
X115726190Y-65302380D01*
X115726190Y-65183333D01*
X115666666Y-65064285D01*
X115607142Y-65004761D01*
X115488095Y-64945238D01*
X115250000Y-64885714D01*
X115130952Y-64826190D01*
X115071428Y-64766666D01*
X115011904Y-64647619D01*
X115011904Y-64528571D01*
X115071428Y-64409523D01*
X115130952Y-64350000D01*
X115250000Y-64290476D01*
X115547619Y-64290476D01*
X115726190Y-64350000D01*
X116976190Y-65421428D02*
X116916666Y-65480952D01*
X116738095Y-65540476D01*
X116619047Y-65540476D01*
X116440476Y-65480952D01*
X116321428Y-65361904D01*
X116261904Y-65242857D01*
X116202380Y-65004761D01*
X116202380Y-64826190D01*
X116261904Y-64588095D01*
X116321428Y-64469047D01*
X116440476Y-64350000D01*
X116619047Y-64290476D01*
X116738095Y-64290476D01*
X116916666Y-64350000D01*
X116976190Y-64409523D01*
X118107142Y-65540476D02*
X117511904Y-65540476D01*
X117511904Y-64290476D01*
X116023809Y-67139285D02*
X116976190Y-67139285D01*
D13*
G04 #@! TO.C,J5*
X81400000Y-68040000D02*
X55490000Y-68040000D01*
X55490000Y-68040000D02*
X55490000Y-77860000D01*
X55490000Y-77860000D02*
X79590000Y-77860000D01*
X79590000Y-77860000D02*
X79590000Y-79260000D01*
X79590000Y-79260000D02*
X81400000Y-79260000D01*
X81400000Y-68040000D02*
X107310000Y-68040000D01*
X107310000Y-68040000D02*
X107310000Y-77860000D01*
X107310000Y-77860000D02*
X83210000Y-77860000D01*
X83210000Y-77860000D02*
X83210000Y-79260000D01*
X83210000Y-79260000D02*
X81400000Y-79260000D01*
X58100000Y-67800000D02*
X55250000Y-67800000D01*
X55250000Y-67800000D02*
X55250000Y-70650000D01*
G04 #@! TO.C,J1*
X115220000Y-84290000D02*
X117880000Y-84290000D01*
X115220000Y-74070000D02*
X115220000Y-84290000D01*
X117880000Y-74070000D02*
X117880000Y-84290000D01*
X115220000Y-74070000D02*
X117880000Y-74070000D01*
X115220000Y-72800000D02*
X115220000Y-71470000D01*
X115220000Y-71470000D02*
X116550000Y-71470000D01*
G04 #@! TO.C,J2*
X107310000Y-62250000D02*
X107310000Y-57340000D01*
X107310000Y-57340000D02*
X97490000Y-57340000D01*
X97490000Y-57340000D02*
X97490000Y-60440000D01*
X97490000Y-60440000D02*
X96090000Y-60440000D01*
X96090000Y-60440000D02*
X96090000Y-62250000D01*
X107310000Y-62250000D02*
X107310000Y-67160000D01*
X107310000Y-67160000D02*
X97490000Y-67160000D01*
X97490000Y-67160000D02*
X97490000Y-64060000D01*
X97490000Y-64060000D02*
X96090000Y-64060000D01*
X96090000Y-64060000D02*
X96090000Y-62250000D01*
X107550000Y-59950000D02*
X107550000Y-57100000D01*
X107550000Y-57100000D02*
X104700000Y-57100000D01*
G04 #@! TO.C,J7*
X97230000Y-82230000D02*
X94570000Y-82230000D01*
X97230000Y-84830000D02*
X97230000Y-82230000D01*
X94570000Y-84830000D02*
X94570000Y-82230000D01*
X97230000Y-84830000D02*
X94570000Y-84830000D01*
X97230000Y-86100000D02*
X97230000Y-87430000D01*
X97230000Y-87430000D02*
X95900000Y-87430000D01*
G04 #@! TO.C,JP1*
X110570000Y-71480000D02*
X111900000Y-71480000D01*
X110570000Y-72810000D02*
X110570000Y-71480000D01*
X110570000Y-74080000D02*
X113230000Y-74080000D01*
X113230000Y-74080000D02*
X113230000Y-79220000D01*
X110570000Y-74080000D02*
X110570000Y-79220000D01*
X110570000Y-79220000D02*
X113230000Y-79220000D01*
G04 #@! TO.C,JP2*
X81670000Y-56330000D02*
X83000000Y-56330000D01*
X81670000Y-57660000D02*
X81670000Y-56330000D01*
X81670000Y-58930000D02*
X84330000Y-58930000D01*
X84330000Y-58930000D02*
X84330000Y-64070000D01*
X81670000Y-58930000D02*
X81670000Y-64070000D01*
X81670000Y-64070000D02*
X84330000Y-64070000D01*
G04 #@! TO.C,JP3*
X92770000Y-81570000D02*
X92770000Y-82900000D01*
X91440000Y-81570000D02*
X92770000Y-81570000D01*
X90170000Y-81570000D02*
X90170000Y-84230000D01*
X90170000Y-84230000D02*
X85030000Y-84230000D01*
X90170000Y-81570000D02*
X85030000Y-81570000D01*
X85030000Y-81570000D02*
X85030000Y-84230000D01*
G04 #@! TO.C,Q1*
X85470000Y-89650000D02*
X89070000Y-89650000D01*
X85431522Y-89638478D02*
G75*
G02X87270000Y-85200000I1838478J1838478D01*
G01*
X89108478Y-89638478D02*
G75*
G03X87270000Y-85200000I-1838478J1838478D01*
G01*
G04 #@! TO.C,J6*
X105400000Y-50210000D02*
X104800000Y-50210000D01*
X105100000Y-49610000D02*
X105400000Y-50210000D01*
X104800000Y-50210000D02*
X105100000Y-49610000D01*
X100850000Y-38690000D02*
X101100000Y-37190000D01*
X99350000Y-38690000D02*
X100850000Y-38690000D01*
X99100000Y-37190000D02*
X99350000Y-38690000D01*
X101100000Y-37190000D02*
X99100000Y-37190000D01*
X105850000Y-38690000D02*
X106100000Y-37190000D01*
X104350000Y-38690000D02*
X105850000Y-38690000D01*
X104100000Y-37190000D02*
X104350000Y-38690000D01*
X106100000Y-37190000D02*
X104100000Y-37190000D01*
X96490000Y-38690000D02*
X108710000Y-38690000D01*
X96490000Y-40490000D02*
X96490000Y-38690000D01*
X108710000Y-40490000D02*
X96490000Y-40490000D01*
X108710000Y-38690000D02*
X108710000Y-40490000D01*
X96490000Y-49410000D02*
X108710000Y-49410000D01*
X96490000Y-37190000D02*
X96490000Y-49410000D01*
X108710000Y-37190000D02*
X96490000Y-37190000D01*
X108710000Y-49410000D02*
X108710000Y-37190000D01*
G04 #@! TO.C,J8*
X82710000Y-49410000D02*
X82710000Y-37190000D01*
X82710000Y-37190000D02*
X70490000Y-37190000D01*
X70490000Y-37190000D02*
X70490000Y-49410000D01*
X70490000Y-49410000D02*
X82710000Y-49410000D01*
X82710000Y-38690000D02*
X82710000Y-40490000D01*
X82710000Y-40490000D02*
X70490000Y-40490000D01*
X70490000Y-40490000D02*
X70490000Y-38690000D01*
X70490000Y-38690000D02*
X82710000Y-38690000D01*
X80100000Y-37190000D02*
X78100000Y-37190000D01*
X78100000Y-37190000D02*
X78350000Y-38690000D01*
X78350000Y-38690000D02*
X79850000Y-38690000D01*
X79850000Y-38690000D02*
X80100000Y-37190000D01*
X75100000Y-37190000D02*
X73100000Y-37190000D01*
X73100000Y-37190000D02*
X73350000Y-38690000D01*
X73350000Y-38690000D02*
X74850000Y-38690000D01*
X74850000Y-38690000D02*
X75100000Y-37190000D01*
X78800000Y-50210000D02*
X79100000Y-49610000D01*
X79100000Y-49610000D02*
X79400000Y-50210000D01*
X79400000Y-50210000D02*
X78800000Y-50210000D01*
G04 #@! TO.C,J9*
X92400000Y-50210000D02*
X91800000Y-50210000D01*
X92100000Y-49610000D02*
X92400000Y-50210000D01*
X91800000Y-50210000D02*
X92100000Y-49610000D01*
X87850000Y-38690000D02*
X88100000Y-37190000D01*
X86350000Y-38690000D02*
X87850000Y-38690000D01*
X86100000Y-37190000D02*
X86350000Y-38690000D01*
X88100000Y-37190000D02*
X86100000Y-37190000D01*
X92850000Y-38690000D02*
X93100000Y-37190000D01*
X91350000Y-38690000D02*
X92850000Y-38690000D01*
X91100000Y-37190000D02*
X91350000Y-38690000D01*
X93100000Y-37190000D02*
X91100000Y-37190000D01*
X83490000Y-38690000D02*
X95710000Y-38690000D01*
X83490000Y-40490000D02*
X83490000Y-38690000D01*
X95710000Y-40490000D02*
X83490000Y-40490000D01*
X95710000Y-38690000D02*
X95710000Y-40490000D01*
X83490000Y-49410000D02*
X95710000Y-49410000D01*
X83490000Y-37190000D02*
X83490000Y-49410000D01*
X95710000Y-37190000D02*
X83490000Y-37190000D01*
X95710000Y-49410000D02*
X95710000Y-37190000D01*
G04 #@! TO.C,J10*
X69710000Y-49410000D02*
X69710000Y-37190000D01*
X69710000Y-37190000D02*
X57490000Y-37190000D01*
X57490000Y-37190000D02*
X57490000Y-49410000D01*
X57490000Y-49410000D02*
X69710000Y-49410000D01*
X69710000Y-38690000D02*
X69710000Y-40490000D01*
X69710000Y-40490000D02*
X57490000Y-40490000D01*
X57490000Y-40490000D02*
X57490000Y-38690000D01*
X57490000Y-38690000D02*
X69710000Y-38690000D01*
X67100000Y-37190000D02*
X65100000Y-37190000D01*
X65100000Y-37190000D02*
X65350000Y-38690000D01*
X65350000Y-38690000D02*
X66850000Y-38690000D01*
X66850000Y-38690000D02*
X67100000Y-37190000D01*
X62100000Y-37190000D02*
X60100000Y-37190000D01*
X60100000Y-37190000D02*
X60350000Y-38690000D01*
X60350000Y-38690000D02*
X61850000Y-38690000D01*
X61850000Y-38690000D02*
X62100000Y-37190000D01*
X65800000Y-50210000D02*
X66100000Y-49610000D01*
X66100000Y-49610000D02*
X66400000Y-50210000D01*
X66400000Y-50210000D02*
X65800000Y-50210000D01*
G04 #@! TO.C,J11*
X121710000Y-49410000D02*
X121710000Y-37190000D01*
X121710000Y-37190000D02*
X109490000Y-37190000D01*
X109490000Y-37190000D02*
X109490000Y-49410000D01*
X109490000Y-49410000D02*
X121710000Y-49410000D01*
X121710000Y-38690000D02*
X121710000Y-40490000D01*
X121710000Y-40490000D02*
X109490000Y-40490000D01*
X109490000Y-40490000D02*
X109490000Y-38690000D01*
X109490000Y-38690000D02*
X121710000Y-38690000D01*
X119100000Y-37190000D02*
X117100000Y-37190000D01*
X117100000Y-37190000D02*
X117350000Y-38690000D01*
X117350000Y-38690000D02*
X118850000Y-38690000D01*
X118850000Y-38690000D02*
X119100000Y-37190000D01*
X114100000Y-37190000D02*
X112100000Y-37190000D01*
X112100000Y-37190000D02*
X112350000Y-38690000D01*
X112350000Y-38690000D02*
X113850000Y-38690000D01*
X113850000Y-38690000D02*
X114100000Y-37190000D01*
X117800000Y-50210000D02*
X118100000Y-49610000D01*
X118100000Y-49610000D02*
X118400000Y-50210000D01*
X118400000Y-50210000D02*
X117800000Y-50210000D01*
G04 #@! TO.C,J3*
X68260000Y-54800000D02*
X68260000Y-55800000D01*
X54510000Y-51550000D02*
X54010000Y-51550000D01*
X54510000Y-52550000D02*
X54510000Y-51550000D01*
X62510000Y-52550000D02*
X54510000Y-52550000D01*
X68010000Y-52550000D02*
X66010000Y-52550000D01*
X68010000Y-65050000D02*
X68010000Y-52550000D01*
X66010000Y-65050000D02*
X68010000Y-65050000D01*
X54510000Y-65050000D02*
X62510000Y-65050000D01*
X54510000Y-66050000D02*
X54510000Y-65050000D01*
X54010000Y-66050000D02*
X54510000Y-66050000D01*
X54010000Y-51550000D02*
X54010000Y-66050000D01*
G04 #@! TO.C,R1*
X98460000Y-87960000D02*
X98130000Y-87960000D01*
X98130000Y-87960000D02*
X98130000Y-81420000D01*
X98130000Y-81420000D02*
X98460000Y-81420000D01*
X100540000Y-87960000D02*
X100870000Y-87960000D01*
X100870000Y-87960000D02*
X100870000Y-81420000D01*
X100870000Y-81420000D02*
X100540000Y-81420000D01*
G04 #@! TO.C,R2*
X102480000Y-92770000D02*
X102480000Y-92440000D01*
X95940000Y-92770000D02*
X102480000Y-92770000D01*
X95940000Y-92440000D02*
X95940000Y-92770000D01*
X102480000Y-90030000D02*
X102480000Y-90360000D01*
X95940000Y-90030000D02*
X102480000Y-90030000D01*
X95940000Y-90360000D02*
X95940000Y-90030000D01*
G04 #@! TO.C,R3*
X86140000Y-90360000D02*
X86140000Y-90030000D01*
X86140000Y-90030000D02*
X92680000Y-90030000D01*
X92680000Y-90030000D02*
X92680000Y-90360000D01*
X86140000Y-92440000D02*
X86140000Y-92770000D01*
X86140000Y-92770000D02*
X92680000Y-92770000D01*
X92680000Y-92770000D02*
X92680000Y-92440000D01*
G04 #@! TO.C,R4*
X84070000Y-84720000D02*
X83740000Y-84720000D01*
X84070000Y-91260000D02*
X84070000Y-84720000D01*
X83740000Y-91260000D02*
X84070000Y-91260000D01*
X81330000Y-84720000D02*
X81660000Y-84720000D01*
X81330000Y-91260000D02*
X81330000Y-84720000D01*
X81660000Y-91260000D02*
X81330000Y-91260000D01*
G04 #@! TO.C,R5*
X105720000Y-90360000D02*
X105720000Y-90030000D01*
X105720000Y-90030000D02*
X112260000Y-90030000D01*
X112260000Y-90030000D02*
X112260000Y-90360000D01*
X105720000Y-92440000D02*
X105720000Y-92770000D01*
X105720000Y-92770000D02*
X112260000Y-92770000D01*
X112260000Y-92770000D02*
X112260000Y-92440000D01*
G04 #@! TO.C,R6*
X105720000Y-86930000D02*
X105720000Y-87260000D01*
X112260000Y-86930000D02*
X105720000Y-86930000D01*
X112260000Y-87260000D02*
X112260000Y-86930000D01*
X105720000Y-89670000D02*
X105720000Y-89340000D01*
X112260000Y-89670000D02*
X105720000Y-89670000D01*
X112260000Y-89340000D02*
X112260000Y-89670000D01*
G04 #@! TO.C,J5*
D11*
X56111904Y-80808333D02*
X56707142Y-80808333D01*
X55992857Y-81165476D02*
X56409523Y-79915476D01*
X56826190Y-81165476D01*
X57064285Y-79915476D02*
X57778571Y-79915476D01*
X57421428Y-81165476D02*
X57421428Y-79915476D01*
X58076190Y-79915476D02*
X58909523Y-81165476D01*
X58909523Y-79915476D02*
X58076190Y-81165476D01*
X59326190Y-80034523D02*
X59385714Y-79975000D01*
X59504761Y-79915476D01*
X59802380Y-79915476D01*
X59921428Y-79975000D01*
X59980952Y-80034523D01*
X60040476Y-80153571D01*
X60040476Y-80272619D01*
X59980952Y-80451190D01*
X59266666Y-81165476D01*
X60040476Y-81165476D01*
X61111904Y-80332142D02*
X61111904Y-81165476D01*
X60814285Y-79855952D02*
X60516666Y-80748809D01*
X61290476Y-80748809D01*
X61766666Y-80332142D02*
X61766666Y-81582142D01*
X61766666Y-80391666D02*
X61885714Y-80332142D01*
X62123809Y-80332142D01*
X62242857Y-80391666D01*
X62302380Y-80451190D01*
X62361904Y-80570238D01*
X62361904Y-80927380D01*
X62302380Y-81046428D01*
X62242857Y-81105952D01*
X62123809Y-81165476D01*
X61885714Y-81165476D01*
X61766666Y-81105952D01*
X62897619Y-81165476D02*
X62897619Y-80332142D01*
X62897619Y-79915476D02*
X62838095Y-79975000D01*
X62897619Y-80034523D01*
X62957142Y-79975000D01*
X62897619Y-79915476D01*
X62897619Y-80034523D01*
X63492857Y-80332142D02*
X63492857Y-81165476D01*
X63492857Y-80451190D02*
X63552380Y-80391666D01*
X63671428Y-80332142D01*
X63850000Y-80332142D01*
X63969047Y-80391666D01*
X64028571Y-80510714D01*
X64028571Y-81165476D01*
G04 #@! TO.C,J1*
X115329761Y-70765476D02*
X115329761Y-69515476D01*
X115865476Y-69634523D02*
X115925000Y-69575000D01*
X116044047Y-69515476D01*
X116341666Y-69515476D01*
X116460714Y-69575000D01*
X116520238Y-69634523D01*
X116579761Y-69753571D01*
X116579761Y-69872619D01*
X116520238Y-70051190D01*
X115805952Y-70765476D01*
X116579761Y-70765476D01*
X117829761Y-70646428D02*
X117770238Y-70705952D01*
X117591666Y-70765476D01*
X117472619Y-70765476D01*
X117294047Y-70705952D01*
X117175000Y-70586904D01*
X117115476Y-70467857D01*
X117055952Y-70229761D01*
X117055952Y-70051190D01*
X117115476Y-69813095D01*
X117175000Y-69694047D01*
X117294047Y-69575000D01*
X117472619Y-69515476D01*
X117591666Y-69515476D01*
X117770238Y-69575000D01*
X117829761Y-69634523D01*
G04 #@! TO.C,J2*
X94910714Y-63738095D02*
X94910714Y-63321428D01*
X95565476Y-63142857D02*
X95565476Y-63738095D01*
X94315476Y-63738095D01*
X94315476Y-63142857D01*
X95565476Y-62607142D02*
X94315476Y-62607142D01*
X94315476Y-62130952D01*
X94375000Y-62011904D01*
X94434523Y-61952380D01*
X94553571Y-61892857D01*
X94732142Y-61892857D01*
X94851190Y-61952380D01*
X94910714Y-62011904D01*
X94970238Y-62130952D01*
X94970238Y-62607142D01*
X95505952Y-61416666D02*
X95565476Y-61238095D01*
X95565476Y-60940476D01*
X95505952Y-60821428D01*
X95446428Y-60761904D01*
X95327380Y-60702380D01*
X95208333Y-60702380D01*
X95089285Y-60761904D01*
X95029761Y-60821428D01*
X94970238Y-60940476D01*
X94910714Y-61178571D01*
X94851190Y-61297619D01*
X94791666Y-61357142D01*
X94672619Y-61416666D01*
X94553571Y-61416666D01*
X94434523Y-61357142D01*
X94375000Y-61297619D01*
X94315476Y-61178571D01*
X94315476Y-60880952D01*
X94375000Y-60702380D01*
G04 #@! TO.C,JP1*
D12*
X108952380Y-76133333D02*
X109666666Y-76133333D01*
X109809523Y-76180952D01*
X109904761Y-76276190D01*
X109952380Y-76419047D01*
X109952380Y-76514285D01*
X109952380Y-75657142D02*
X108952380Y-75657142D01*
X108952380Y-75276190D01*
X109000000Y-75180952D01*
X109047619Y-75133333D01*
X109142857Y-75085714D01*
X109285714Y-75085714D01*
X109380952Y-75133333D01*
X109428571Y-75180952D01*
X109476190Y-75276190D01*
X109476190Y-75657142D01*
X109952380Y-74133333D02*
X109952380Y-74704761D01*
X109952380Y-74419047D02*
X108952380Y-74419047D01*
X109095238Y-74514285D01*
X109190476Y-74609523D01*
X109238095Y-74704761D01*
D11*
X111532142Y-68207619D02*
X112782142Y-68207619D01*
X111591666Y-68207619D02*
X111532142Y-68088571D01*
X111532142Y-67850476D01*
X111591666Y-67731428D01*
X111651190Y-67671904D01*
X111770238Y-67612380D01*
X112127380Y-67612380D01*
X112246428Y-67671904D01*
X112305952Y-67731428D01*
X112365476Y-67850476D01*
X112365476Y-68088571D01*
X112305952Y-68207619D01*
X112365476Y-66898095D02*
X112305952Y-67017142D01*
X112246428Y-67076666D01*
X112127380Y-67136190D01*
X111770238Y-67136190D01*
X111651190Y-67076666D01*
X111591666Y-67017142D01*
X111532142Y-66898095D01*
X111532142Y-66719523D01*
X111591666Y-66600476D01*
X111651190Y-66540952D01*
X111770238Y-66481428D01*
X112127380Y-66481428D01*
X112246428Y-66540952D01*
X112305952Y-66600476D01*
X112365476Y-66719523D01*
X112365476Y-66898095D01*
X111532142Y-66064761D02*
X112365476Y-65826666D01*
X111770238Y-65588571D01*
X112365476Y-65350476D01*
X111532142Y-65112380D01*
X112305952Y-64160000D02*
X112365476Y-64279047D01*
X112365476Y-64517142D01*
X112305952Y-64636190D01*
X112186904Y-64695714D01*
X111710714Y-64695714D01*
X111591666Y-64636190D01*
X111532142Y-64517142D01*
X111532142Y-64279047D01*
X111591666Y-64160000D01*
X111710714Y-64100476D01*
X111829761Y-64100476D01*
X111948809Y-64695714D01*
X112365476Y-63564761D02*
X111532142Y-63564761D01*
X111770238Y-63564761D02*
X111651190Y-63505238D01*
X111591666Y-63445714D01*
X111532142Y-63326666D01*
X111532142Y-63207619D01*
X112305952Y-62850476D02*
X112365476Y-62671904D01*
X112365476Y-62374285D01*
X112305952Y-62255238D01*
X112246428Y-62195714D01*
X112127380Y-62136190D01*
X112008333Y-62136190D01*
X111889285Y-62195714D01*
X111829761Y-62255238D01*
X111770238Y-62374285D01*
X111710714Y-62612380D01*
X111651190Y-62731428D01*
X111591666Y-62790952D01*
X111472619Y-62850476D01*
X111353571Y-62850476D01*
X111234523Y-62790952D01*
X111175000Y-62731428D01*
X111115476Y-62612380D01*
X111115476Y-62314761D01*
X111175000Y-62136190D01*
X112305952Y-61124285D02*
X112365476Y-61243333D01*
X112365476Y-61481428D01*
X112305952Y-61600476D01*
X112186904Y-61660000D01*
X111710714Y-61660000D01*
X111591666Y-61600476D01*
X111532142Y-61481428D01*
X111532142Y-61243333D01*
X111591666Y-61124285D01*
X111710714Y-61064761D01*
X111829761Y-61064761D01*
X111948809Y-61660000D01*
X112365476Y-60350476D02*
X112305952Y-60469523D01*
X112186904Y-60529047D01*
X111115476Y-60529047D01*
X112305952Y-59398095D02*
X112365476Y-59517142D01*
X112365476Y-59755238D01*
X112305952Y-59874285D01*
X112186904Y-59933809D01*
X111710714Y-59933809D01*
X111591666Y-59874285D01*
X111532142Y-59755238D01*
X111532142Y-59517142D01*
X111591666Y-59398095D01*
X111710714Y-59338571D01*
X111829761Y-59338571D01*
X111948809Y-59933809D01*
X112305952Y-58267142D02*
X112365476Y-58386190D01*
X112365476Y-58624285D01*
X112305952Y-58743333D01*
X112246428Y-58802857D01*
X112127380Y-58862380D01*
X111770238Y-58862380D01*
X111651190Y-58802857D01*
X111591666Y-58743333D01*
X111532142Y-58624285D01*
X111532142Y-58386190D01*
X111591666Y-58267142D01*
X111532142Y-57910000D02*
X111532142Y-57433809D01*
X111115476Y-57731428D02*
X112186904Y-57731428D01*
X112305952Y-57671904D01*
X112365476Y-57552857D01*
X112365476Y-57433809D01*
G04 #@! TO.C,JP2*
D12*
X80052380Y-61033333D02*
X80766666Y-61033333D01*
X80909523Y-61080952D01*
X81004761Y-61176190D01*
X81052380Y-61319047D01*
X81052380Y-61414285D01*
X81052380Y-60557142D02*
X80052380Y-60557142D01*
X80052380Y-60176190D01*
X80100000Y-60080952D01*
X80147619Y-60033333D01*
X80242857Y-59985714D01*
X80385714Y-59985714D01*
X80480952Y-60033333D01*
X80528571Y-60080952D01*
X80576190Y-60176190D01*
X80576190Y-60557142D01*
X80147619Y-59604761D02*
X80100000Y-59557142D01*
X80052380Y-59461904D01*
X80052380Y-59223809D01*
X80100000Y-59128571D01*
X80147619Y-59080952D01*
X80242857Y-59033333D01*
X80338095Y-59033333D01*
X80480952Y-59080952D01*
X81052380Y-59652380D01*
X81052380Y-59033333D01*
G04 #@! TO.C,JP3*
D11*
X83542857Y-81065476D02*
X83542857Y-79815476D01*
X84019047Y-79815476D01*
X84138095Y-79875000D01*
X84197619Y-79934523D01*
X84257142Y-80053571D01*
X84257142Y-80232142D01*
X84197619Y-80351190D01*
X84138095Y-80410714D01*
X84019047Y-80470238D01*
X83542857Y-80470238D01*
X84733333Y-81005952D02*
X84911904Y-81065476D01*
X85209523Y-81065476D01*
X85328571Y-81005952D01*
X85388095Y-80946428D01*
X85447619Y-80827380D01*
X85447619Y-80708333D01*
X85388095Y-80589285D01*
X85328571Y-80529761D01*
X85209523Y-80470238D01*
X84971428Y-80410714D01*
X84852380Y-80351190D01*
X84792857Y-80291666D01*
X84733333Y-80172619D01*
X84733333Y-80053571D01*
X84792857Y-79934523D01*
X84852380Y-79875000D01*
X84971428Y-79815476D01*
X85269047Y-79815476D01*
X85447619Y-79875000D01*
X85983333Y-79815476D02*
X85983333Y-80827380D01*
X86042857Y-80946428D01*
X86102380Y-81005952D01*
X86221428Y-81065476D01*
X86459523Y-81065476D01*
X86578571Y-81005952D01*
X86638095Y-80946428D01*
X86697619Y-80827380D01*
X86697619Y-79815476D01*
X86995238Y-81184523D02*
X87947619Y-81184523D01*
X88780952Y-81005952D02*
X88661904Y-81065476D01*
X88423809Y-81065476D01*
X88304761Y-81005952D01*
X88245238Y-80946428D01*
X88185714Y-80827380D01*
X88185714Y-80470238D01*
X88245238Y-80351190D01*
X88304761Y-80291666D01*
X88423809Y-80232142D01*
X88661904Y-80232142D01*
X88780952Y-80291666D01*
X89495238Y-81065476D02*
X89376190Y-81005952D01*
X89316666Y-80946428D01*
X89257142Y-80827380D01*
X89257142Y-80470238D01*
X89316666Y-80351190D01*
X89376190Y-80291666D01*
X89495238Y-80232142D01*
X89673809Y-80232142D01*
X89792857Y-80291666D01*
X89852380Y-80351190D01*
X89911904Y-80470238D01*
X89911904Y-80827380D01*
X89852380Y-80946428D01*
X89792857Y-81005952D01*
X89673809Y-81065476D01*
X89495238Y-81065476D01*
X90447619Y-80232142D02*
X90447619Y-81065476D01*
X90447619Y-80351190D02*
X90507142Y-80291666D01*
X90626190Y-80232142D01*
X90804761Y-80232142D01*
X90923809Y-80291666D01*
X90983333Y-80410714D01*
X90983333Y-81065476D01*
X91400000Y-80232142D02*
X91876190Y-80232142D01*
X91578571Y-79815476D02*
X91578571Y-80886904D01*
X91638095Y-81005952D01*
X91757142Y-81065476D01*
X91876190Y-81065476D01*
X92292857Y-81065476D02*
X92292857Y-80232142D01*
X92292857Y-80470238D02*
X92352380Y-80351190D01*
X92411904Y-80291666D01*
X92530952Y-80232142D01*
X92650000Y-80232142D01*
X93245238Y-81065476D02*
X93126190Y-81005952D01*
X93066666Y-80946428D01*
X93007142Y-80827380D01*
X93007142Y-80470238D01*
X93066666Y-80351190D01*
X93126190Y-80291666D01*
X93245238Y-80232142D01*
X93423809Y-80232142D01*
X93542857Y-80291666D01*
X93602380Y-80351190D01*
X93661904Y-80470238D01*
X93661904Y-80827380D01*
X93602380Y-80946428D01*
X93542857Y-81005952D01*
X93423809Y-81065476D01*
X93245238Y-81065476D01*
X94376190Y-81065476D02*
X94257142Y-81005952D01*
X94197619Y-80886904D01*
X94197619Y-79815476D01*
G04 #@! TO.C,Q1*
D12*
X90804761Y-88347619D02*
X90709523Y-88300000D01*
X90614285Y-88204761D01*
X90471428Y-88061904D01*
X90376190Y-88014285D01*
X90280952Y-88014285D01*
X90328571Y-88252380D02*
X90233333Y-88204761D01*
X90138095Y-88109523D01*
X90090476Y-87919047D01*
X90090476Y-87585714D01*
X90138095Y-87395238D01*
X90233333Y-87300000D01*
X90328571Y-87252380D01*
X90519047Y-87252380D01*
X90614285Y-87300000D01*
X90709523Y-87395238D01*
X90757142Y-87585714D01*
X90757142Y-87919047D01*
X90709523Y-88109523D01*
X90614285Y-88204761D01*
X90519047Y-88252380D01*
X90328571Y-88252380D01*
X91709523Y-88252380D02*
X91138095Y-88252380D01*
X91423809Y-88252380D02*
X91423809Y-87252380D01*
X91328571Y-87395238D01*
X91233333Y-87490476D01*
X91138095Y-87538095D01*
G04 #@! TO.C,J6*
D11*
X99861904Y-51765476D02*
X99147619Y-51765476D01*
X99504761Y-51765476D02*
X99504761Y-50515476D01*
X99385714Y-50694047D01*
X99266666Y-50813095D01*
X99147619Y-50872619D01*
X100338095Y-50634523D02*
X100397619Y-50575000D01*
X100516666Y-50515476D01*
X100814285Y-50515476D01*
X100933333Y-50575000D01*
X100992857Y-50634523D01*
X101052380Y-50753571D01*
X101052380Y-50872619D01*
X100992857Y-51051190D01*
X100278571Y-51765476D01*
X101052380Y-51765476D01*
X101409523Y-50515476D02*
X101826190Y-51765476D01*
X102242857Y-50515476D01*
X103790476Y-51765476D02*
X103671428Y-51705952D01*
X103611904Y-51646428D01*
X103552380Y-51527380D01*
X103552380Y-51170238D01*
X103611904Y-51051190D01*
X103671428Y-50991666D01*
X103790476Y-50932142D01*
X103969047Y-50932142D01*
X104088095Y-50991666D01*
X104147619Y-51051190D01*
X104207142Y-51170238D01*
X104207142Y-51527380D01*
X104147619Y-51646428D01*
X104088095Y-51705952D01*
X103969047Y-51765476D01*
X103790476Y-51765476D01*
X105278571Y-50932142D02*
X105278571Y-51765476D01*
X104742857Y-50932142D02*
X104742857Y-51586904D01*
X104802380Y-51705952D01*
X104921428Y-51765476D01*
X105100000Y-51765476D01*
X105219047Y-51705952D01*
X105278571Y-51646428D01*
X105695238Y-50932142D02*
X106171428Y-50932142D01*
X105873809Y-50515476D02*
X105873809Y-51586904D01*
X105933333Y-51705952D01*
X106052380Y-51765476D01*
X106171428Y-51765476D01*
G04 #@! TO.C,J8*
X74397619Y-50515476D02*
X73802380Y-50515476D01*
X73742857Y-51110714D01*
X73802380Y-51051190D01*
X73921428Y-50991666D01*
X74219047Y-50991666D01*
X74338095Y-51051190D01*
X74397619Y-51110714D01*
X74457142Y-51229761D01*
X74457142Y-51527380D01*
X74397619Y-51646428D01*
X74338095Y-51705952D01*
X74219047Y-51765476D01*
X73921428Y-51765476D01*
X73802380Y-51705952D01*
X73742857Y-51646428D01*
X74814285Y-50515476D02*
X75230952Y-51765476D01*
X75647619Y-50515476D01*
X77195238Y-51765476D02*
X77076190Y-51705952D01*
X77016666Y-51646428D01*
X76957142Y-51527380D01*
X76957142Y-51170238D01*
X77016666Y-51051190D01*
X77076190Y-50991666D01*
X77195238Y-50932142D01*
X77373809Y-50932142D01*
X77492857Y-50991666D01*
X77552380Y-51051190D01*
X77611904Y-51170238D01*
X77611904Y-51527380D01*
X77552380Y-51646428D01*
X77492857Y-51705952D01*
X77373809Y-51765476D01*
X77195238Y-51765476D01*
X78683333Y-50932142D02*
X78683333Y-51765476D01*
X78147619Y-50932142D02*
X78147619Y-51586904D01*
X78207142Y-51705952D01*
X78326190Y-51765476D01*
X78504761Y-51765476D01*
X78623809Y-51705952D01*
X78683333Y-51646428D01*
X79100000Y-50932142D02*
X79576190Y-50932142D01*
X79278571Y-50515476D02*
X79278571Y-51586904D01*
X79338095Y-51705952D01*
X79457142Y-51765476D01*
X79576190Y-51765476D01*
G04 #@! TO.C,J9*
X86177380Y-50515476D02*
X85582142Y-50515476D01*
X85522619Y-51110714D01*
X85582142Y-51051190D01*
X85701190Y-50991666D01*
X85998809Y-50991666D01*
X86117857Y-51051190D01*
X86177380Y-51110714D01*
X86236904Y-51229761D01*
X86236904Y-51527380D01*
X86177380Y-51646428D01*
X86117857Y-51705952D01*
X85998809Y-51765476D01*
X85701190Y-51765476D01*
X85582142Y-51705952D01*
X85522619Y-51646428D01*
X86594047Y-50515476D02*
X87010714Y-51765476D01*
X87427380Y-50515476D01*
X87784523Y-51705952D02*
X87963095Y-51765476D01*
X88260714Y-51765476D01*
X88379761Y-51705952D01*
X88439285Y-51646428D01*
X88498809Y-51527380D01*
X88498809Y-51408333D01*
X88439285Y-51289285D01*
X88379761Y-51229761D01*
X88260714Y-51170238D01*
X88022619Y-51110714D01*
X87903571Y-51051190D01*
X87844047Y-50991666D01*
X87784523Y-50872619D01*
X87784523Y-50753571D01*
X87844047Y-50634523D01*
X87903571Y-50575000D01*
X88022619Y-50515476D01*
X88320238Y-50515476D01*
X88498809Y-50575000D01*
X89451190Y-51110714D02*
X89629761Y-51170238D01*
X89689285Y-51229761D01*
X89748809Y-51348809D01*
X89748809Y-51527380D01*
X89689285Y-51646428D01*
X89629761Y-51705952D01*
X89510714Y-51765476D01*
X89034523Y-51765476D01*
X89034523Y-50515476D01*
X89451190Y-50515476D01*
X89570238Y-50575000D01*
X89629761Y-50634523D01*
X89689285Y-50753571D01*
X89689285Y-50872619D01*
X89629761Y-50991666D01*
X89570238Y-51051190D01*
X89451190Y-51110714D01*
X89034523Y-51110714D01*
X91415476Y-51765476D02*
X91296428Y-51705952D01*
X91236904Y-51646428D01*
X91177380Y-51527380D01*
X91177380Y-51170238D01*
X91236904Y-51051190D01*
X91296428Y-50991666D01*
X91415476Y-50932142D01*
X91594047Y-50932142D01*
X91713095Y-50991666D01*
X91772619Y-51051190D01*
X91832142Y-51170238D01*
X91832142Y-51527380D01*
X91772619Y-51646428D01*
X91713095Y-51705952D01*
X91594047Y-51765476D01*
X91415476Y-51765476D01*
X92903571Y-50932142D02*
X92903571Y-51765476D01*
X92367857Y-50932142D02*
X92367857Y-51586904D01*
X92427380Y-51705952D01*
X92546428Y-51765476D01*
X92725000Y-51765476D01*
X92844047Y-51705952D01*
X92903571Y-51646428D01*
X93320238Y-50932142D02*
X93796428Y-50932142D01*
X93498809Y-50515476D02*
X93498809Y-51586904D01*
X93558333Y-51705952D01*
X93677380Y-51765476D01*
X93796428Y-51765476D01*
G04 #@! TO.C,J11*
X112861904Y-51765476D02*
X112147619Y-51765476D01*
X112504761Y-51765476D02*
X112504761Y-50515476D01*
X112385714Y-50694047D01*
X112266666Y-50813095D01*
X112147619Y-50872619D01*
X113338095Y-50634523D02*
X113397619Y-50575000D01*
X113516666Y-50515476D01*
X113814285Y-50515476D01*
X113933333Y-50575000D01*
X113992857Y-50634523D01*
X114052380Y-50753571D01*
X114052380Y-50872619D01*
X113992857Y-51051190D01*
X113278571Y-51765476D01*
X114052380Y-51765476D01*
X114409523Y-50515476D02*
X114826190Y-51765476D01*
X115242857Y-50515476D01*
X116790476Y-51765476D02*
X116671428Y-51705952D01*
X116611904Y-51646428D01*
X116552380Y-51527380D01*
X116552380Y-51170238D01*
X116611904Y-51051190D01*
X116671428Y-50991666D01*
X116790476Y-50932142D01*
X116969047Y-50932142D01*
X117088095Y-50991666D01*
X117147619Y-51051190D01*
X117207142Y-51170238D01*
X117207142Y-51527380D01*
X117147619Y-51646428D01*
X117088095Y-51705952D01*
X116969047Y-51765476D01*
X116790476Y-51765476D01*
X118278571Y-50932142D02*
X118278571Y-51765476D01*
X117742857Y-50932142D02*
X117742857Y-51586904D01*
X117802380Y-51705952D01*
X117921428Y-51765476D01*
X118100000Y-51765476D01*
X118219047Y-51705952D01*
X118278571Y-51646428D01*
X118695238Y-50932142D02*
X119171428Y-50932142D01*
X118873809Y-50515476D02*
X118873809Y-51586904D01*
X118933333Y-51705952D01*
X119052380Y-51765476D01*
X119171428Y-51765476D01*
G04 #@! TO.C,R1*
D12*
X102152380Y-84856666D02*
X101676190Y-85190000D01*
X102152380Y-85428095D02*
X101152380Y-85428095D01*
X101152380Y-85047142D01*
X101200000Y-84951904D01*
X101247619Y-84904285D01*
X101342857Y-84856666D01*
X101485714Y-84856666D01*
X101580952Y-84904285D01*
X101628571Y-84951904D01*
X101676190Y-85047142D01*
X101676190Y-85428095D01*
X102152380Y-83904285D02*
X102152380Y-84475714D01*
X102152380Y-84190000D02*
X101152380Y-84190000D01*
X101295238Y-84285238D01*
X101390476Y-84380476D01*
X101438095Y-84475714D01*
G04 #@! TO.C,R2*
X96633333Y-89752380D02*
X96300000Y-89276190D01*
X96061904Y-89752380D02*
X96061904Y-88752380D01*
X96442857Y-88752380D01*
X96538095Y-88800000D01*
X96585714Y-88847619D01*
X96633333Y-88942857D01*
X96633333Y-89085714D01*
X96585714Y-89180952D01*
X96538095Y-89228571D01*
X96442857Y-89276190D01*
X96061904Y-89276190D01*
X97014285Y-88847619D02*
X97061904Y-88800000D01*
X97157142Y-88752380D01*
X97395238Y-88752380D01*
X97490476Y-88800000D01*
X97538095Y-88847619D01*
X97585714Y-88942857D01*
X97585714Y-89038095D01*
X97538095Y-89180952D01*
X96966666Y-89752380D01*
X97585714Y-89752380D01*
G04 #@! TO.C,R3*
X90733333Y-89752380D02*
X90400000Y-89276190D01*
X90161904Y-89752380D02*
X90161904Y-88752380D01*
X90542857Y-88752380D01*
X90638095Y-88800000D01*
X90685714Y-88847619D01*
X90733333Y-88942857D01*
X90733333Y-89085714D01*
X90685714Y-89180952D01*
X90638095Y-89228571D01*
X90542857Y-89276190D01*
X90161904Y-89276190D01*
X91066666Y-88752380D02*
X91685714Y-88752380D01*
X91352380Y-89133333D01*
X91495238Y-89133333D01*
X91590476Y-89180952D01*
X91638095Y-89228571D01*
X91685714Y-89323809D01*
X91685714Y-89561904D01*
X91638095Y-89657142D01*
X91590476Y-89704761D01*
X91495238Y-89752380D01*
X91209523Y-89752380D01*
X91114285Y-89704761D01*
X91066666Y-89657142D01*
G04 #@! TO.C,R4*
X80782380Y-88156666D02*
X80306190Y-88490000D01*
X80782380Y-88728095D02*
X79782380Y-88728095D01*
X79782380Y-88347142D01*
X79830000Y-88251904D01*
X79877619Y-88204285D01*
X79972857Y-88156666D01*
X80115714Y-88156666D01*
X80210952Y-88204285D01*
X80258571Y-88251904D01*
X80306190Y-88347142D01*
X80306190Y-88728095D01*
X80115714Y-87299523D02*
X80782380Y-87299523D01*
X79734761Y-87537619D02*
X80449047Y-87775714D01*
X80449047Y-87156666D01*
G04 #@! TO.C,R5*
X114633333Y-91852380D02*
X114300000Y-91376190D01*
X114061904Y-91852380D02*
X114061904Y-90852380D01*
X114442857Y-90852380D01*
X114538095Y-90900000D01*
X114585714Y-90947619D01*
X114633333Y-91042857D01*
X114633333Y-91185714D01*
X114585714Y-91280952D01*
X114538095Y-91328571D01*
X114442857Y-91376190D01*
X114061904Y-91376190D01*
X115538095Y-90852380D02*
X115061904Y-90852380D01*
X115014285Y-91328571D01*
X115061904Y-91280952D01*
X115157142Y-91233333D01*
X115395238Y-91233333D01*
X115490476Y-91280952D01*
X115538095Y-91328571D01*
X115585714Y-91423809D01*
X115585714Y-91661904D01*
X115538095Y-91757142D01*
X115490476Y-91804761D01*
X115395238Y-91852380D01*
X115157142Y-91852380D01*
X115061904Y-91804761D01*
X115014285Y-91757142D01*
G04 #@! TO.C,R6*
X114633333Y-88752380D02*
X114300000Y-88276190D01*
X114061904Y-88752380D02*
X114061904Y-87752380D01*
X114442857Y-87752380D01*
X114538095Y-87800000D01*
X114585714Y-87847619D01*
X114633333Y-87942857D01*
X114633333Y-88085714D01*
X114585714Y-88180952D01*
X114538095Y-88228571D01*
X114442857Y-88276190D01*
X114061904Y-88276190D01*
X115490476Y-87752380D02*
X115300000Y-87752380D01*
X115204761Y-87800000D01*
X115157142Y-87847619D01*
X115061904Y-87990476D01*
X115014285Y-88180952D01*
X115014285Y-88561904D01*
X115061904Y-88657142D01*
X115109523Y-88704761D01*
X115204761Y-88752380D01*
X115395238Y-88752380D01*
X115490476Y-88704761D01*
X115538095Y-88657142D01*
X115585714Y-88561904D01*
X115585714Y-88323809D01*
X115538095Y-88228571D01*
X115490476Y-88180952D01*
X115395238Y-88133333D01*
X115204761Y-88133333D01*
X115109523Y-88180952D01*
X115061904Y-88228571D01*
X115014285Y-88323809D01*
G04 #@! TD*
M02*
