M48
;DRILL file {KiCad 5.0.2-5.fc29} date 2019-04-12T09:16:24 CEST
;FORMAT={-:-/ absolute / inch / decimal}
FMAT,2
INCH,TZ
T1C0.0295
T2C0.0315
T3C0.0354
T4C0.0394
T5C0.0551
T6C0.0827
T7C0.1260
%
G90
G05
T1
X1.2228Y-1.8307
X1.2728Y-1.8807
X1.3228Y-1.8307
T2
X1.5906Y-2.0039
X1.8906Y-2.0039
X1.9756Y-2.0039
X2.2756Y-2.0039
X1.0906Y-1.7197
X1.0906Y-2.0197
X1.752Y-1.5898
X1.752Y-1.8898
X1.2047Y-2.0039
X1.5047Y-2.0039
X1.9756Y-1.8819
X2.2756Y-1.8819
T3
X0.311Y-0.5827
X0.311Y-0.6811
X0.311Y-0.7598
X0.311Y-0.8583
T4
X0.1181Y-1.5906
X0.1181Y-1.689
X0.2165Y-1.5906
X0.2165Y-1.689
X0.315Y-1.5906
X0.315Y-1.689
X0.4016Y-0.126
X0.5Y-0.126
X0.5984Y-0.126
X0.5984Y-2.0079
X0.6378Y-0.9134
X0.6969Y-0.126
X0.7362Y-0.9134
X0.7441Y-2.0079
X0.7953Y-0.126
X0.8346Y-0.9134
X0.878Y-2.0079
X0.8937Y-0.126
X0.9685Y-2.0039
X0.9921Y-0.126
X1.Y-1.6654
X1.0591Y-0.4646
X1.0906Y-0.126
X1.1575Y-0.3661
X1.1575Y-0.4646
X1.189Y-0.126
X1.2874Y-0.126
X1.3858Y-0.126
X1.4094Y-0.5984
X1.4094Y-0.6969
X1.4094Y-0.7953
X1.4843Y-0.126
X1.5039Y-1.8543
X1.5827Y-0.126
X1.6811Y-0.126
X1.7795Y-0.126
X1.8583Y-1.5984
X1.878Y-0.126
X1.937Y-0.9882
X1.9528Y-1.5984
X1.9528Y-1.7402
X1.9764Y-0.126
X2.0354Y-0.9882
X2.0472Y-1.5984
X2.0748Y-0.126
X2.1063Y-1.2165
X2.1063Y-1.315
X2.1063Y-1.4134
X2.1339Y-0.9882
X2.1732Y-0.126
X2.2717Y-0.126
X2.3701Y-0.126
X2.4685Y-0.126
X2.5669Y-0.126
X0.347Y-2.1364
X0.347Y-2.2364
X0.447Y-2.1364
X0.447Y-2.2364
X0.547Y-2.1364
X0.547Y-2.2364
X0.647Y-2.1364
X0.647Y-2.2364
X0.747Y-2.1364
X0.747Y-2.2364
X0.847Y-2.1364
X0.847Y-2.2364
X0.947Y-2.1364
X0.947Y-2.2364
X1.047Y-2.1364
X1.047Y-2.2364
X1.147Y-2.1364
X1.147Y-2.2364
X1.247Y-2.1364
X1.247Y-2.2364
X1.347Y-2.1364
X1.347Y-2.2364
X1.447Y-2.1364
X1.447Y-2.2364
X1.547Y-2.1364
X1.547Y-2.2364
X1.647Y-2.1364
X1.647Y-2.2364
X1.747Y-2.1364
X1.747Y-2.2364
X1.847Y-2.1364
X1.847Y-2.2364
X1.947Y-2.1364
X1.947Y-2.2364
X2.047Y-2.1364
X2.047Y-2.2364
X2.147Y-2.1364
X2.147Y-2.2364
X2.247Y-2.1364
X2.247Y-2.2364
X2.4232Y-1.2717
X2.4232Y-1.3717
X2.4232Y-1.4717
X2.4232Y-1.5717
X2.4232Y-1.6717
X1.2346Y-1.6693
X1.3346Y-1.6693
X1.4346Y-1.6693
X0.1417Y-1.8071
X0.2417Y-1.8071
X1.1024Y-0.6756
X1.1024Y-0.7756
X1.1024Y-0.8756
X2.2402Y-1.272
X2.2402Y-1.372
X2.2402Y-1.472
X1.6102Y-1.6953
X1.6102Y-1.7953
T5
X2.2874Y-0.2677
X2.4843Y-0.2677
X1.7756Y-0.2677
X1.9724Y-0.2677
X0.752Y-0.2677
X0.9488Y-0.2677
X1.565Y-0.6004
X1.565Y-0.7657
X1.7815Y-0.6004
X1.7815Y-0.7657
X0.2402Y-0.2677
X0.437Y-0.2677
X0.1299Y-1.1772
X0.1299Y-1.3937
X0.2953Y-1.1772
X0.2953Y-1.3937
X0.4606Y-1.1772
X0.4606Y-1.3937
X0.626Y-1.1772
X0.626Y-1.3937
X0.7913Y-1.1772
X0.7913Y-1.3937
X0.9567Y-1.1772
X0.9567Y-1.3937
X1.122Y-1.1772
X1.122Y-1.3937
X1.2874Y-1.1772
X1.2874Y-1.3937
X1.4528Y-1.1772
X1.4528Y-1.3937
X1.6181Y-1.1772
X1.6181Y-1.3937
X1.7835Y-1.1772
X1.7835Y-1.3937
X1.9488Y-1.1772
X1.9488Y-1.3937
X1.2638Y-0.2677
X1.4606Y-0.2677
X2.2846Y-0.5587
X2.2846Y-0.7555
T6
X0.3346Y-0.4618
X0.3346Y-0.9791
X0.4992Y-0.7205
T7
X0.748Y-0.7283
X0.1543Y-2.1878
X2.5197Y-2.2244
T0
M30
