M48
;DRILL file {KiCad (5.0.1-dev-70-gb7b125d83)} date 03/06/19 23:30:44
;FORMAT={2:4/ absolute / inch / suppress leading zeros}
FMAT,2
INCH,TZ
T1C0.0295
T2C0.0315
T3C0.0362
T4C0.0394
T5C0.0551
T6C0.0906
%
G90
G05
M72
T1
X33858Y-34567
X34358Y-34067
X34858Y-34567
T2
X33701Y-35984
X36701Y-35984
X39173Y-31843
X39173Y-34843
X37559Y-35984
X40559Y-35984
X41409Y-35984
X44409Y-35984
X41409Y-34764
X44409Y-34764
X32559Y-33142
X32559Y-36142
T3
X26378Y-21772
X26378Y-22756
X26378Y-23543
X26378Y-24528
T4
X44055Y-28665
X44055Y-29665
X44055Y-30665
X37756Y-32898
X37756Y-33898
X45886Y-28661
X45886Y-29661
X45886Y-30661
X45886Y-31661
X45886Y-32661
X25124Y-37309
X25124Y-38309
X26124Y-37309
X26124Y-38309
X27124Y-37309
X27124Y-38309
X28124Y-37309
X28124Y-38309
X29124Y-37309
X29124Y-38309
X30124Y-37309
X30124Y-38309
X31124Y-37309
X31124Y-38309
X32124Y-37309
X32124Y-38309
X33124Y-37309
X33124Y-38309
X34124Y-37309
X34124Y-38309
X35124Y-37309
X35124Y-38309
X36124Y-37309
X36124Y-38309
X37124Y-37309
X37124Y-38309
X38124Y-37309
X38124Y-38309
X39124Y-37309
X39124Y-38309
X40124Y-37309
X40124Y-38309
X41124Y-37309
X41124Y-38309
X42124Y-37309
X42124Y-38309
X43124Y-37309
X43124Y-38309
X44124Y-37309
X44124Y-38309
X32677Y-22701
X32677Y-23701
X32677Y-24701
X34000Y-32638
X35000Y-32638
X36000Y-32638
T5
X44528Y-18622
X46496Y-18622
X24055Y-18622
X26024Y-18622
X39409Y-18622
X41378Y-18622
X22953Y-27717
X22953Y-29882
X24606Y-27717
X24606Y-29882
X26260Y-27717
X26260Y-29882
X27913Y-27717
X27913Y-29882
X29567Y-27717
X29567Y-29882
X31220Y-27717
X31220Y-29882
X32874Y-27717
X32874Y-29882
X34528Y-27717
X34528Y-29882
X36181Y-27717
X36181Y-29882
X37835Y-27717
X37835Y-29882
X39488Y-27717
X39488Y-29882
X41142Y-27717
X41142Y-29882
X29173Y-18622
X31142Y-18622
X39154Y-23681
X39154Y-25335
X41319Y-23681
X41319Y-25335
X34291Y-18622
X36260Y-18622
T6
X25311Y-20563
X25311Y-25736
T0
M30
