G04 #@! TF.GenerationSoftware,KiCad,Pcbnew,5.0.2-5.fc29*
G04 #@! TF.CreationDate,2019-03-18T09:47:41+01:00*
G04 #@! TF.ProjectId,ATX-breakout,4154582d-6272-4656-916b-6f75742e6b69,rev?*
G04 #@! TF.SameCoordinates,Original*
G04 #@! TF.FileFunction,Soldermask,Bot*
G04 #@! TF.FilePolarity,Negative*
%FSLAX46Y46*%
G04 Gerber Fmt 4.6, Leading zero omitted, Abs format (unit mm)*
G04 Created by KiCad (PCBNEW 5.0.2-5.fc29) date 2019-03-18T09:47:41 CET*
%MOMM*%
%LPD*%
G01*
G04 APERTURE LIST*
%ADD10C,0.010000*%
%ADD11C,0.100000*%
G04 APERTURE END LIST*
D10*
G04 #@! TO.C,G\002A\002A\002A*
G36*
X66112081Y-82612640D02*
X65166183Y-82925473D01*
X64882103Y-83050277D01*
X64238274Y-83413902D01*
X63736729Y-83847037D01*
X63358545Y-84367376D01*
X63250895Y-84575333D01*
X63157421Y-84787867D01*
X63094816Y-84983714D01*
X63057001Y-85205008D01*
X63037894Y-85493888D01*
X63031417Y-85892488D01*
X63031000Y-86099333D01*
X63043245Y-86690491D01*
X63090667Y-87175422D01*
X63189295Y-87585255D01*
X63355156Y-87951121D01*
X63604281Y-88304150D01*
X63952699Y-88675471D01*
X64416437Y-89096215D01*
X64697282Y-89335456D01*
X64975640Y-89601906D01*
X65216008Y-89888996D01*
X65350630Y-90103020D01*
X65476806Y-90451007D01*
X65523085Y-90780932D01*
X65487282Y-91046732D01*
X65401667Y-91179333D01*
X65285386Y-91317107D01*
X65329727Y-91402538D01*
X65533759Y-91434024D01*
X65549833Y-91434160D01*
X65782875Y-91470896D01*
X66082378Y-91564176D01*
X66269500Y-91641932D01*
X66714000Y-91848876D01*
X66714000Y-91629447D01*
X66722154Y-91505307D01*
X66774077Y-91446079D01*
X66910963Y-91437194D01*
X67174002Y-91464083D01*
X67179667Y-91464749D01*
X67485494Y-91482497D01*
X67638396Y-91450446D01*
X67644759Y-91376196D01*
X67510964Y-91267347D01*
X67243398Y-91131499D01*
X66848443Y-90976252D01*
X66736669Y-90937379D01*
X66079000Y-90713666D01*
X66053731Y-90182089D01*
X66046429Y-89881290D01*
X66072045Y-89688641D01*
X66148374Y-89543637D01*
X66285753Y-89393221D01*
X66553068Y-89202804D01*
X66800460Y-89170999D01*
X67015812Y-89287266D01*
X67187008Y-89541062D01*
X67301929Y-89921848D01*
X67345395Y-90315035D01*
X67366800Y-90798333D01*
X67691802Y-90851171D01*
X68037841Y-90985425D01*
X68211648Y-91147504D01*
X68406492Y-91391000D01*
X68406913Y-91110127D01*
X68420114Y-90922971D01*
X68481632Y-90864741D01*
X68597833Y-90887025D01*
X68802793Y-90987971D01*
X68978833Y-91119156D01*
X69169333Y-91293517D01*
X69169333Y-91115921D01*
X69092981Y-90866871D01*
X68891163Y-90625469D01*
X68604735Y-90431145D01*
X68367577Y-90342147D01*
X68185863Y-90293428D01*
X68064624Y-90234764D01*
X67984353Y-90132372D01*
X67925540Y-89952469D01*
X67868676Y-89661271D01*
X67824406Y-89401541D01*
X67787918Y-89086404D01*
X67807293Y-88911178D01*
X67828699Y-88884660D01*
X67934890Y-88854500D01*
X68180513Y-88801391D01*
X68538060Y-88730762D01*
X68980024Y-88648042D01*
X69478898Y-88558660D01*
X69493117Y-88556167D01*
X70435837Y-88381097D01*
X71227053Y-88211267D01*
X71884263Y-88041284D01*
X72424961Y-87865755D01*
X72866645Y-87679289D01*
X73226810Y-87476494D01*
X73402667Y-87351269D01*
X73598961Y-87155169D01*
X73787785Y-86896924D01*
X73932019Y-86635106D01*
X73994540Y-86428285D01*
X73994900Y-86416833D01*
X74056784Y-86298638D01*
X74215467Y-86268666D01*
X74446367Y-86195691D01*
X74713063Y-85990870D01*
X74734037Y-85970230D01*
X74909949Y-85779764D01*
X74991494Y-85621632D01*
X75004413Y-85430024D01*
X74897187Y-85430024D01*
X74796292Y-85733192D01*
X74610837Y-85972767D01*
X74369574Y-86126685D01*
X74101252Y-86172883D01*
X73834623Y-86089295D01*
X73707659Y-85988689D01*
X73552999Y-85814080D01*
X73457508Y-85671189D01*
X73402415Y-85591335D01*
X73347826Y-85671189D01*
X73170052Y-85921103D01*
X72918274Y-86107797D01*
X72656995Y-86183919D01*
X72649237Y-86184000D01*
X72343607Y-86112585D01*
X72111692Y-85923742D01*
X71960248Y-85655575D01*
X71896026Y-85346186D01*
X71925780Y-85033679D01*
X72056263Y-84756155D01*
X72294229Y-84551719D01*
X72354869Y-84523141D01*
X72676120Y-84457522D01*
X72965173Y-84550749D01*
X73233704Y-84801843D01*
X73375884Y-84944384D01*
X73457015Y-84948853D01*
X73463167Y-84936299D01*
X73637970Y-84669682D01*
X73909691Y-84482756D01*
X74043423Y-84441087D01*
X74313700Y-84466958D01*
X74578915Y-84617878D01*
X74789138Y-84855613D01*
X74884772Y-85085328D01*
X74897187Y-85430024D01*
X75004413Y-85430024D01*
X75005088Y-85420027D01*
X74990448Y-85234425D01*
X74939910Y-84932176D01*
X74836931Y-84722132D01*
X74682209Y-84559195D01*
X74452173Y-84412143D01*
X74191512Y-84328325D01*
X73954943Y-84317069D01*
X73797185Y-84387708D01*
X73783677Y-84405982D01*
X73693683Y-84407174D01*
X73518465Y-84311292D01*
X73389159Y-84215482D01*
X73242416Y-84101958D01*
X73110832Y-84023600D01*
X72958119Y-83972300D01*
X72747985Y-83939947D01*
X72444140Y-83918432D01*
X72010294Y-83899645D01*
X71968435Y-83898000D01*
X70889913Y-83855666D01*
X70431790Y-83505289D01*
X69642518Y-83000826D01*
X68809902Y-82658836D01*
X67939951Y-82479814D01*
X67038674Y-82464251D01*
X66112081Y-82612640D01*
X66112081Y-82612640D01*
G37*
X66112081Y-82612640D02*
X65166183Y-82925473D01*
X64882103Y-83050277D01*
X64238274Y-83413902D01*
X63736729Y-83847037D01*
X63358545Y-84367376D01*
X63250895Y-84575333D01*
X63157421Y-84787867D01*
X63094816Y-84983714D01*
X63057001Y-85205008D01*
X63037894Y-85493888D01*
X63031417Y-85892488D01*
X63031000Y-86099333D01*
X63043245Y-86690491D01*
X63090667Y-87175422D01*
X63189295Y-87585255D01*
X63355156Y-87951121D01*
X63604281Y-88304150D01*
X63952699Y-88675471D01*
X64416437Y-89096215D01*
X64697282Y-89335456D01*
X64975640Y-89601906D01*
X65216008Y-89888996D01*
X65350630Y-90103020D01*
X65476806Y-90451007D01*
X65523085Y-90780932D01*
X65487282Y-91046732D01*
X65401667Y-91179333D01*
X65285386Y-91317107D01*
X65329727Y-91402538D01*
X65533759Y-91434024D01*
X65549833Y-91434160D01*
X65782875Y-91470896D01*
X66082378Y-91564176D01*
X66269500Y-91641932D01*
X66714000Y-91848876D01*
X66714000Y-91629447D01*
X66722154Y-91505307D01*
X66774077Y-91446079D01*
X66910963Y-91437194D01*
X67174002Y-91464083D01*
X67179667Y-91464749D01*
X67485494Y-91482497D01*
X67638396Y-91450446D01*
X67644759Y-91376196D01*
X67510964Y-91267347D01*
X67243398Y-91131499D01*
X66848443Y-90976252D01*
X66736669Y-90937379D01*
X66079000Y-90713666D01*
X66053731Y-90182089D01*
X66046429Y-89881290D01*
X66072045Y-89688641D01*
X66148374Y-89543637D01*
X66285753Y-89393221D01*
X66553068Y-89202804D01*
X66800460Y-89170999D01*
X67015812Y-89287266D01*
X67187008Y-89541062D01*
X67301929Y-89921848D01*
X67345395Y-90315035D01*
X67366800Y-90798333D01*
X67691802Y-90851171D01*
X68037841Y-90985425D01*
X68211648Y-91147504D01*
X68406492Y-91391000D01*
X68406913Y-91110127D01*
X68420114Y-90922971D01*
X68481632Y-90864741D01*
X68597833Y-90887025D01*
X68802793Y-90987971D01*
X68978833Y-91119156D01*
X69169333Y-91293517D01*
X69169333Y-91115921D01*
X69092981Y-90866871D01*
X68891163Y-90625469D01*
X68604735Y-90431145D01*
X68367577Y-90342147D01*
X68185863Y-90293428D01*
X68064624Y-90234764D01*
X67984353Y-90132372D01*
X67925540Y-89952469D01*
X67868676Y-89661271D01*
X67824406Y-89401541D01*
X67787918Y-89086404D01*
X67807293Y-88911178D01*
X67828699Y-88884660D01*
X67934890Y-88854500D01*
X68180513Y-88801391D01*
X68538060Y-88730762D01*
X68980024Y-88648042D01*
X69478898Y-88558660D01*
X69493117Y-88556167D01*
X70435837Y-88381097D01*
X71227053Y-88211267D01*
X71884263Y-88041284D01*
X72424961Y-87865755D01*
X72866645Y-87679289D01*
X73226810Y-87476494D01*
X73402667Y-87351269D01*
X73598961Y-87155169D01*
X73787785Y-86896924D01*
X73932019Y-86635106D01*
X73994540Y-86428285D01*
X73994900Y-86416833D01*
X74056784Y-86298638D01*
X74215467Y-86268666D01*
X74446367Y-86195691D01*
X74713063Y-85990870D01*
X74734037Y-85970230D01*
X74909949Y-85779764D01*
X74991494Y-85621632D01*
X75004413Y-85430024D01*
X74897187Y-85430024D01*
X74796292Y-85733192D01*
X74610837Y-85972767D01*
X74369574Y-86126685D01*
X74101252Y-86172883D01*
X73834623Y-86089295D01*
X73707659Y-85988689D01*
X73552999Y-85814080D01*
X73457508Y-85671189D01*
X73402415Y-85591335D01*
X73347826Y-85671189D01*
X73170052Y-85921103D01*
X72918274Y-86107797D01*
X72656995Y-86183919D01*
X72649237Y-86184000D01*
X72343607Y-86112585D01*
X72111692Y-85923742D01*
X71960248Y-85655575D01*
X71896026Y-85346186D01*
X71925780Y-85033679D01*
X72056263Y-84756155D01*
X72294229Y-84551719D01*
X72354869Y-84523141D01*
X72676120Y-84457522D01*
X72965173Y-84550749D01*
X73233704Y-84801843D01*
X73375884Y-84944384D01*
X73457015Y-84948853D01*
X73463167Y-84936299D01*
X73637970Y-84669682D01*
X73909691Y-84482756D01*
X74043423Y-84441087D01*
X74313700Y-84466958D01*
X74578915Y-84617878D01*
X74789138Y-84855613D01*
X74884772Y-85085328D01*
X74897187Y-85430024D01*
X75004413Y-85430024D01*
X75005088Y-85420027D01*
X74990448Y-85234425D01*
X74939910Y-84932176D01*
X74836931Y-84722132D01*
X74682209Y-84559195D01*
X74452173Y-84412143D01*
X74191512Y-84328325D01*
X73954943Y-84317069D01*
X73797185Y-84387708D01*
X73783677Y-84405982D01*
X73693683Y-84407174D01*
X73518465Y-84311292D01*
X73389159Y-84215482D01*
X73242416Y-84101958D01*
X73110832Y-84023600D01*
X72958119Y-83972300D01*
X72747985Y-83939947D01*
X72444140Y-83918432D01*
X72010294Y-83899645D01*
X71968435Y-83898000D01*
X70889913Y-83855666D01*
X70431790Y-83505289D01*
X69642518Y-83000826D01*
X68809902Y-82658836D01*
X67939951Y-82479814D01*
X67038674Y-82464251D01*
X66112081Y-82612640D01*
G36*
X73818523Y-85146842D02*
X73667994Y-85290593D01*
X73577302Y-85444418D01*
X73572000Y-85479044D01*
X73635490Y-85606230D01*
X73778999Y-85747052D01*
X73932091Y-85837457D01*
X73974786Y-85845333D01*
X74104510Y-85790710D01*
X74200953Y-85712285D01*
X74308906Y-85556386D01*
X74334000Y-85464333D01*
X74268279Y-85300494D01*
X74119133Y-85149034D01*
X73960075Y-85083333D01*
X73818523Y-85146842D01*
X73818523Y-85146842D01*
G37*
X73818523Y-85146842D02*
X73667994Y-85290593D01*
X73577302Y-85444418D01*
X73572000Y-85479044D01*
X73635490Y-85606230D01*
X73778999Y-85747052D01*
X73932091Y-85837457D01*
X73974786Y-85845333D01*
X74104510Y-85790710D01*
X74200953Y-85712285D01*
X74308906Y-85556386D01*
X74334000Y-85464333D01*
X74268279Y-85300494D01*
X74119133Y-85149034D01*
X73960075Y-85083333D01*
X73818523Y-85146842D01*
G36*
X72693852Y-85135709D02*
X72542325Y-85285617D01*
X72504409Y-85386409D01*
X72509965Y-85624006D01*
X72630403Y-85783970D01*
X72819581Y-85841067D01*
X73031360Y-85770063D01*
X73100286Y-85712285D01*
X73212314Y-85568433D01*
X73205969Y-85435259D01*
X73079911Y-85251290D01*
X72890351Y-85120204D01*
X72693852Y-85135709D01*
X72693852Y-85135709D01*
G37*
X72693852Y-85135709D02*
X72542325Y-85285617D01*
X72504409Y-85386409D01*
X72509965Y-85624006D01*
X72630403Y-85783970D01*
X72819581Y-85841067D01*
X73031360Y-85770063D01*
X73100286Y-85712285D01*
X73212314Y-85568433D01*
X73205969Y-85435259D01*
X73079911Y-85251290D01*
X72890351Y-85120204D01*
X72693852Y-85135709D01*
D11*
G36*
X63943706Y-96262597D02*
X64020835Y-96270194D01*
X64152786Y-96310221D01*
X64218762Y-96330234D01*
X64401171Y-96427734D01*
X64561053Y-96558947D01*
X64692266Y-96718829D01*
X64789766Y-96901238D01*
X64789766Y-96901239D01*
X64849806Y-97099165D01*
X64870079Y-97305001D01*
X64849806Y-97510837D01*
X64809779Y-97642788D01*
X64789766Y-97708764D01*
X64692266Y-97891173D01*
X64561053Y-98051055D01*
X64401171Y-98182268D01*
X64218762Y-98279768D01*
X64152786Y-98299781D01*
X64020835Y-98339808D01*
X63943706Y-98347404D01*
X63866579Y-98355001D01*
X63763419Y-98355001D01*
X63686292Y-98347404D01*
X63609163Y-98339808D01*
X63477212Y-98299781D01*
X63411236Y-98279768D01*
X63228827Y-98182268D01*
X63068945Y-98051055D01*
X62937732Y-97891173D01*
X62840232Y-97708764D01*
X62820219Y-97642788D01*
X62780192Y-97510837D01*
X62759919Y-97305001D01*
X62780192Y-97099165D01*
X62840232Y-96901239D01*
X62840232Y-96901238D01*
X62937732Y-96718829D01*
X63068945Y-96558947D01*
X63228827Y-96427734D01*
X63411236Y-96330234D01*
X63477212Y-96310221D01*
X63609163Y-96270194D01*
X63686292Y-96262597D01*
X63763419Y-96255001D01*
X63866579Y-96255001D01*
X63943706Y-96262597D01*
X63943706Y-96262597D01*
G37*
G36*
X89343706Y-96262597D02*
X89420835Y-96270194D01*
X89552786Y-96310221D01*
X89618762Y-96330234D01*
X89801171Y-96427734D01*
X89961053Y-96558947D01*
X90092266Y-96718829D01*
X90189766Y-96901238D01*
X90189766Y-96901239D01*
X90249806Y-97099165D01*
X90270079Y-97305001D01*
X90249806Y-97510837D01*
X90209779Y-97642788D01*
X90189766Y-97708764D01*
X90092266Y-97891173D01*
X89961053Y-98051055D01*
X89801171Y-98182268D01*
X89618762Y-98279768D01*
X89552786Y-98299781D01*
X89420835Y-98339808D01*
X89343706Y-98347404D01*
X89266579Y-98355001D01*
X89163419Y-98355001D01*
X89086292Y-98347404D01*
X89009163Y-98339808D01*
X88877212Y-98299781D01*
X88811236Y-98279768D01*
X88628827Y-98182268D01*
X88468945Y-98051055D01*
X88337732Y-97891173D01*
X88240232Y-97708764D01*
X88220219Y-97642788D01*
X88180192Y-97510837D01*
X88159919Y-97305001D01*
X88180192Y-97099165D01*
X88240232Y-96901239D01*
X88240232Y-96901238D01*
X88337732Y-96718829D01*
X88468945Y-96558947D01*
X88628827Y-96427734D01*
X88811236Y-96330234D01*
X88877212Y-96310221D01*
X89009163Y-96270194D01*
X89086292Y-96262597D01*
X89163419Y-96255001D01*
X89266579Y-96255001D01*
X89343706Y-96262597D01*
X89343706Y-96262597D01*
G37*
G36*
X112203706Y-96262597D02*
X112280835Y-96270194D01*
X112412786Y-96310221D01*
X112478762Y-96330234D01*
X112661171Y-96427734D01*
X112821053Y-96558947D01*
X112952266Y-96718829D01*
X113049766Y-96901238D01*
X113049766Y-96901239D01*
X113109806Y-97099165D01*
X113130079Y-97305001D01*
X113109806Y-97510837D01*
X113069779Y-97642788D01*
X113049766Y-97708764D01*
X112952266Y-97891173D01*
X112821053Y-98051055D01*
X112661171Y-98182268D01*
X112478762Y-98279768D01*
X112412786Y-98299781D01*
X112280835Y-98339808D01*
X112203706Y-98347404D01*
X112126579Y-98355001D01*
X112023419Y-98355001D01*
X111946292Y-98347404D01*
X111869163Y-98339808D01*
X111737212Y-98299781D01*
X111671236Y-98279768D01*
X111488827Y-98182268D01*
X111328945Y-98051055D01*
X111197732Y-97891173D01*
X111100232Y-97708764D01*
X111080219Y-97642788D01*
X111040192Y-97510837D01*
X111019919Y-97305001D01*
X111040192Y-97099165D01*
X111100232Y-96901239D01*
X111100232Y-96901238D01*
X111197732Y-96718829D01*
X111328945Y-96558947D01*
X111488827Y-96427734D01*
X111671236Y-96330234D01*
X111737212Y-96310221D01*
X111869163Y-96270194D01*
X111946292Y-96262597D01*
X112023419Y-96255001D01*
X112126579Y-96255001D01*
X112203706Y-96262597D01*
X112203706Y-96262597D01*
G37*
G36*
X107123706Y-96262597D02*
X107200835Y-96270194D01*
X107332786Y-96310221D01*
X107398762Y-96330234D01*
X107581171Y-96427734D01*
X107741053Y-96558947D01*
X107872266Y-96718829D01*
X107969766Y-96901238D01*
X107969766Y-96901239D01*
X108029806Y-97099165D01*
X108050079Y-97305001D01*
X108029806Y-97510837D01*
X107989779Y-97642788D01*
X107969766Y-97708764D01*
X107872266Y-97891173D01*
X107741053Y-98051055D01*
X107581171Y-98182268D01*
X107398762Y-98279768D01*
X107332786Y-98299781D01*
X107200835Y-98339808D01*
X107123706Y-98347404D01*
X107046579Y-98355001D01*
X106943419Y-98355001D01*
X106866292Y-98347404D01*
X106789163Y-98339808D01*
X106657212Y-98299781D01*
X106591236Y-98279768D01*
X106408827Y-98182268D01*
X106248945Y-98051055D01*
X106117732Y-97891173D01*
X106020232Y-97708764D01*
X106000219Y-97642788D01*
X105960192Y-97510837D01*
X105939919Y-97305001D01*
X105960192Y-97099165D01*
X106020232Y-96901239D01*
X106020232Y-96901238D01*
X106117732Y-96718829D01*
X106248945Y-96558947D01*
X106408827Y-96427734D01*
X106591236Y-96330234D01*
X106657212Y-96310221D01*
X106789163Y-96270194D01*
X106866292Y-96262597D01*
X106943419Y-96255001D01*
X107046579Y-96255001D01*
X107123706Y-96262597D01*
X107123706Y-96262597D01*
G37*
G36*
X104583706Y-96262597D02*
X104660835Y-96270194D01*
X104792786Y-96310221D01*
X104858762Y-96330234D01*
X105041171Y-96427734D01*
X105201053Y-96558947D01*
X105332266Y-96718829D01*
X105429766Y-96901238D01*
X105429766Y-96901239D01*
X105489806Y-97099165D01*
X105510079Y-97305001D01*
X105489806Y-97510837D01*
X105449779Y-97642788D01*
X105429766Y-97708764D01*
X105332266Y-97891173D01*
X105201053Y-98051055D01*
X105041171Y-98182268D01*
X104858762Y-98279768D01*
X104792786Y-98299781D01*
X104660835Y-98339808D01*
X104583706Y-98347404D01*
X104506579Y-98355001D01*
X104403419Y-98355001D01*
X104326292Y-98347404D01*
X104249163Y-98339808D01*
X104117212Y-98299781D01*
X104051236Y-98279768D01*
X103868827Y-98182268D01*
X103708945Y-98051055D01*
X103577732Y-97891173D01*
X103480232Y-97708764D01*
X103460219Y-97642788D01*
X103420192Y-97510837D01*
X103399919Y-97305001D01*
X103420192Y-97099165D01*
X103480232Y-96901239D01*
X103480232Y-96901238D01*
X103577732Y-96718829D01*
X103708945Y-96558947D01*
X103868827Y-96427734D01*
X104051236Y-96330234D01*
X104117212Y-96310221D01*
X104249163Y-96270194D01*
X104326292Y-96262597D01*
X104403419Y-96255001D01*
X104506579Y-96255001D01*
X104583706Y-96262597D01*
X104583706Y-96262597D01*
G37*
G36*
X102043706Y-96262597D02*
X102120835Y-96270194D01*
X102252786Y-96310221D01*
X102318762Y-96330234D01*
X102501171Y-96427734D01*
X102661053Y-96558947D01*
X102792266Y-96718829D01*
X102889766Y-96901238D01*
X102889766Y-96901239D01*
X102949806Y-97099165D01*
X102970079Y-97305001D01*
X102949806Y-97510837D01*
X102909779Y-97642788D01*
X102889766Y-97708764D01*
X102792266Y-97891173D01*
X102661053Y-98051055D01*
X102501171Y-98182268D01*
X102318762Y-98279768D01*
X102252786Y-98299781D01*
X102120835Y-98339808D01*
X102043706Y-98347404D01*
X101966579Y-98355001D01*
X101863419Y-98355001D01*
X101786292Y-98347404D01*
X101709163Y-98339808D01*
X101577212Y-98299781D01*
X101511236Y-98279768D01*
X101328827Y-98182268D01*
X101168945Y-98051055D01*
X101037732Y-97891173D01*
X100940232Y-97708764D01*
X100920219Y-97642788D01*
X100880192Y-97510837D01*
X100859919Y-97305001D01*
X100880192Y-97099165D01*
X100940232Y-96901239D01*
X100940232Y-96901238D01*
X101037732Y-96718829D01*
X101168945Y-96558947D01*
X101328827Y-96427734D01*
X101511236Y-96330234D01*
X101577212Y-96310221D01*
X101709163Y-96270194D01*
X101786292Y-96262597D01*
X101863419Y-96255001D01*
X101966579Y-96255001D01*
X102043706Y-96262597D01*
X102043706Y-96262597D01*
G37*
G36*
X99503706Y-96262597D02*
X99580835Y-96270194D01*
X99712786Y-96310221D01*
X99778762Y-96330234D01*
X99961171Y-96427734D01*
X100121053Y-96558947D01*
X100252266Y-96718829D01*
X100349766Y-96901238D01*
X100349766Y-96901239D01*
X100409806Y-97099165D01*
X100430079Y-97305001D01*
X100409806Y-97510837D01*
X100369779Y-97642788D01*
X100349766Y-97708764D01*
X100252266Y-97891173D01*
X100121053Y-98051055D01*
X99961171Y-98182268D01*
X99778762Y-98279768D01*
X99712786Y-98299781D01*
X99580835Y-98339808D01*
X99503706Y-98347404D01*
X99426579Y-98355001D01*
X99323419Y-98355001D01*
X99246292Y-98347404D01*
X99169163Y-98339808D01*
X99037212Y-98299781D01*
X98971236Y-98279768D01*
X98788827Y-98182268D01*
X98628945Y-98051055D01*
X98497732Y-97891173D01*
X98400232Y-97708764D01*
X98380219Y-97642788D01*
X98340192Y-97510837D01*
X98319919Y-97305001D01*
X98340192Y-97099165D01*
X98400232Y-96901239D01*
X98400232Y-96901238D01*
X98497732Y-96718829D01*
X98628945Y-96558947D01*
X98788827Y-96427734D01*
X98971236Y-96330234D01*
X99037212Y-96310221D01*
X99169163Y-96270194D01*
X99246292Y-96262597D01*
X99323419Y-96255001D01*
X99426579Y-96255001D01*
X99503706Y-96262597D01*
X99503706Y-96262597D01*
G37*
G36*
X96963706Y-96262597D02*
X97040835Y-96270194D01*
X97172786Y-96310221D01*
X97238762Y-96330234D01*
X97421171Y-96427734D01*
X97581053Y-96558947D01*
X97712266Y-96718829D01*
X97809766Y-96901238D01*
X97809766Y-96901239D01*
X97869806Y-97099165D01*
X97890079Y-97305001D01*
X97869806Y-97510837D01*
X97829779Y-97642788D01*
X97809766Y-97708764D01*
X97712266Y-97891173D01*
X97581053Y-98051055D01*
X97421171Y-98182268D01*
X97238762Y-98279768D01*
X97172786Y-98299781D01*
X97040835Y-98339808D01*
X96963706Y-98347404D01*
X96886579Y-98355001D01*
X96783419Y-98355001D01*
X96706292Y-98347404D01*
X96629163Y-98339808D01*
X96497212Y-98299781D01*
X96431236Y-98279768D01*
X96248827Y-98182268D01*
X96088945Y-98051055D01*
X95957732Y-97891173D01*
X95860232Y-97708764D01*
X95840219Y-97642788D01*
X95800192Y-97510837D01*
X95779919Y-97305001D01*
X95800192Y-97099165D01*
X95860232Y-96901239D01*
X95860232Y-96901238D01*
X95957732Y-96718829D01*
X96088945Y-96558947D01*
X96248827Y-96427734D01*
X96431236Y-96330234D01*
X96497212Y-96310221D01*
X96629163Y-96270194D01*
X96706292Y-96262597D01*
X96783419Y-96255001D01*
X96886579Y-96255001D01*
X96963706Y-96262597D01*
X96963706Y-96262597D01*
G37*
G36*
X94423706Y-96262597D02*
X94500835Y-96270194D01*
X94632786Y-96310221D01*
X94698762Y-96330234D01*
X94881171Y-96427734D01*
X95041053Y-96558947D01*
X95172266Y-96718829D01*
X95269766Y-96901238D01*
X95269766Y-96901239D01*
X95329806Y-97099165D01*
X95350079Y-97305001D01*
X95329806Y-97510837D01*
X95289779Y-97642788D01*
X95269766Y-97708764D01*
X95172266Y-97891173D01*
X95041053Y-98051055D01*
X94881171Y-98182268D01*
X94698762Y-98279768D01*
X94632786Y-98299781D01*
X94500835Y-98339808D01*
X94423706Y-98347404D01*
X94346579Y-98355001D01*
X94243419Y-98355001D01*
X94166292Y-98347404D01*
X94089163Y-98339808D01*
X93957212Y-98299781D01*
X93891236Y-98279768D01*
X93708827Y-98182268D01*
X93548945Y-98051055D01*
X93417732Y-97891173D01*
X93320232Y-97708764D01*
X93300219Y-97642788D01*
X93260192Y-97510837D01*
X93239919Y-97305001D01*
X93260192Y-97099165D01*
X93320232Y-96901239D01*
X93320232Y-96901238D01*
X93417732Y-96718829D01*
X93548945Y-96558947D01*
X93708827Y-96427734D01*
X93891236Y-96330234D01*
X93957212Y-96310221D01*
X94089163Y-96270194D01*
X94166292Y-96262597D01*
X94243419Y-96255001D01*
X94346579Y-96255001D01*
X94423706Y-96262597D01*
X94423706Y-96262597D01*
G37*
G36*
X91883706Y-96262597D02*
X91960835Y-96270194D01*
X92092786Y-96310221D01*
X92158762Y-96330234D01*
X92341171Y-96427734D01*
X92501053Y-96558947D01*
X92632266Y-96718829D01*
X92729766Y-96901238D01*
X92729766Y-96901239D01*
X92789806Y-97099165D01*
X92810079Y-97305001D01*
X92789806Y-97510837D01*
X92749779Y-97642788D01*
X92729766Y-97708764D01*
X92632266Y-97891173D01*
X92501053Y-98051055D01*
X92341171Y-98182268D01*
X92158762Y-98279768D01*
X92092786Y-98299781D01*
X91960835Y-98339808D01*
X91883706Y-98347404D01*
X91806579Y-98355001D01*
X91703419Y-98355001D01*
X91626292Y-98347404D01*
X91549163Y-98339808D01*
X91417212Y-98299781D01*
X91351236Y-98279768D01*
X91168827Y-98182268D01*
X91008945Y-98051055D01*
X90877732Y-97891173D01*
X90780232Y-97708764D01*
X90760219Y-97642788D01*
X90720192Y-97510837D01*
X90699919Y-97305001D01*
X90720192Y-97099165D01*
X90780232Y-96901239D01*
X90780232Y-96901238D01*
X90877732Y-96718829D01*
X91008945Y-96558947D01*
X91168827Y-96427734D01*
X91351236Y-96330234D01*
X91417212Y-96310221D01*
X91549163Y-96270194D01*
X91626292Y-96262597D01*
X91703419Y-96255001D01*
X91806579Y-96255001D01*
X91883706Y-96262597D01*
X91883706Y-96262597D01*
G37*
G36*
X109663706Y-96262597D02*
X109740835Y-96270194D01*
X109872786Y-96310221D01*
X109938762Y-96330234D01*
X110121171Y-96427734D01*
X110281053Y-96558947D01*
X110412266Y-96718829D01*
X110509766Y-96901238D01*
X110509766Y-96901239D01*
X110569806Y-97099165D01*
X110590079Y-97305001D01*
X110569806Y-97510837D01*
X110529779Y-97642788D01*
X110509766Y-97708764D01*
X110412266Y-97891173D01*
X110281053Y-98051055D01*
X110121171Y-98182268D01*
X109938762Y-98279768D01*
X109872786Y-98299781D01*
X109740835Y-98339808D01*
X109663706Y-98347404D01*
X109586579Y-98355001D01*
X109483419Y-98355001D01*
X109406292Y-98347404D01*
X109329163Y-98339808D01*
X109197212Y-98299781D01*
X109131236Y-98279768D01*
X108948827Y-98182268D01*
X108788945Y-98051055D01*
X108657732Y-97891173D01*
X108560232Y-97708764D01*
X108540219Y-97642788D01*
X108500192Y-97510837D01*
X108479919Y-97305001D01*
X108500192Y-97099165D01*
X108560232Y-96901239D01*
X108560232Y-96901238D01*
X108657732Y-96718829D01*
X108788945Y-96558947D01*
X108948827Y-96427734D01*
X109131236Y-96330234D01*
X109197212Y-96310221D01*
X109329163Y-96270194D01*
X109406292Y-96262597D01*
X109483419Y-96255001D01*
X109586579Y-96255001D01*
X109663706Y-96262597D01*
X109663706Y-96262597D01*
G37*
G36*
X84263706Y-96262597D02*
X84340835Y-96270194D01*
X84472786Y-96310221D01*
X84538762Y-96330234D01*
X84721171Y-96427734D01*
X84881053Y-96558947D01*
X85012266Y-96718829D01*
X85109766Y-96901238D01*
X85109766Y-96901239D01*
X85169806Y-97099165D01*
X85190079Y-97305001D01*
X85169806Y-97510837D01*
X85129779Y-97642788D01*
X85109766Y-97708764D01*
X85012266Y-97891173D01*
X84881053Y-98051055D01*
X84721171Y-98182268D01*
X84538762Y-98279768D01*
X84472786Y-98299781D01*
X84340835Y-98339808D01*
X84263706Y-98347404D01*
X84186579Y-98355001D01*
X84083419Y-98355001D01*
X84006292Y-98347404D01*
X83929163Y-98339808D01*
X83797212Y-98299781D01*
X83731236Y-98279768D01*
X83548827Y-98182268D01*
X83388945Y-98051055D01*
X83257732Y-97891173D01*
X83160232Y-97708764D01*
X83140219Y-97642788D01*
X83100192Y-97510837D01*
X83079919Y-97305001D01*
X83100192Y-97099165D01*
X83160232Y-96901239D01*
X83160232Y-96901238D01*
X83257732Y-96718829D01*
X83388945Y-96558947D01*
X83548827Y-96427734D01*
X83731236Y-96330234D01*
X83797212Y-96310221D01*
X83929163Y-96270194D01*
X84006292Y-96262597D01*
X84083419Y-96255001D01*
X84186579Y-96255001D01*
X84263706Y-96262597D01*
X84263706Y-96262597D01*
G37*
G36*
X81723706Y-96262597D02*
X81800835Y-96270194D01*
X81932786Y-96310221D01*
X81998762Y-96330234D01*
X82181171Y-96427734D01*
X82341053Y-96558947D01*
X82472266Y-96718829D01*
X82569766Y-96901238D01*
X82569766Y-96901239D01*
X82629806Y-97099165D01*
X82650079Y-97305001D01*
X82629806Y-97510837D01*
X82589779Y-97642788D01*
X82569766Y-97708764D01*
X82472266Y-97891173D01*
X82341053Y-98051055D01*
X82181171Y-98182268D01*
X81998762Y-98279768D01*
X81932786Y-98299781D01*
X81800835Y-98339808D01*
X81723706Y-98347404D01*
X81646579Y-98355001D01*
X81543419Y-98355001D01*
X81466292Y-98347404D01*
X81389163Y-98339808D01*
X81257212Y-98299781D01*
X81191236Y-98279768D01*
X81008827Y-98182268D01*
X80848945Y-98051055D01*
X80717732Y-97891173D01*
X80620232Y-97708764D01*
X80600219Y-97642788D01*
X80560192Y-97510837D01*
X80539919Y-97305001D01*
X80560192Y-97099165D01*
X80620232Y-96901239D01*
X80620232Y-96901238D01*
X80717732Y-96718829D01*
X80848945Y-96558947D01*
X81008827Y-96427734D01*
X81191236Y-96330234D01*
X81257212Y-96310221D01*
X81389163Y-96270194D01*
X81466292Y-96262597D01*
X81543419Y-96255001D01*
X81646579Y-96255001D01*
X81723706Y-96262597D01*
X81723706Y-96262597D01*
G37*
G36*
X79183706Y-96262597D02*
X79260835Y-96270194D01*
X79392786Y-96310221D01*
X79458762Y-96330234D01*
X79641171Y-96427734D01*
X79801053Y-96558947D01*
X79932266Y-96718829D01*
X80029766Y-96901238D01*
X80029766Y-96901239D01*
X80089806Y-97099165D01*
X80110079Y-97305001D01*
X80089806Y-97510837D01*
X80049779Y-97642788D01*
X80029766Y-97708764D01*
X79932266Y-97891173D01*
X79801053Y-98051055D01*
X79641171Y-98182268D01*
X79458762Y-98279768D01*
X79392786Y-98299781D01*
X79260835Y-98339808D01*
X79183706Y-98347404D01*
X79106579Y-98355001D01*
X79003419Y-98355001D01*
X78926292Y-98347404D01*
X78849163Y-98339808D01*
X78717212Y-98299781D01*
X78651236Y-98279768D01*
X78468827Y-98182268D01*
X78308945Y-98051055D01*
X78177732Y-97891173D01*
X78080232Y-97708764D01*
X78060219Y-97642788D01*
X78020192Y-97510837D01*
X77999919Y-97305001D01*
X78020192Y-97099165D01*
X78080232Y-96901239D01*
X78080232Y-96901238D01*
X78177732Y-96718829D01*
X78308945Y-96558947D01*
X78468827Y-96427734D01*
X78651236Y-96330234D01*
X78717212Y-96310221D01*
X78849163Y-96270194D01*
X78926292Y-96262597D01*
X79003419Y-96255001D01*
X79106579Y-96255001D01*
X79183706Y-96262597D01*
X79183706Y-96262597D01*
G37*
G36*
X76643706Y-96262597D02*
X76720835Y-96270194D01*
X76852786Y-96310221D01*
X76918762Y-96330234D01*
X77101171Y-96427734D01*
X77261053Y-96558947D01*
X77392266Y-96718829D01*
X77489766Y-96901238D01*
X77489766Y-96901239D01*
X77549806Y-97099165D01*
X77570079Y-97305001D01*
X77549806Y-97510837D01*
X77509779Y-97642788D01*
X77489766Y-97708764D01*
X77392266Y-97891173D01*
X77261053Y-98051055D01*
X77101171Y-98182268D01*
X76918762Y-98279768D01*
X76852786Y-98299781D01*
X76720835Y-98339808D01*
X76643706Y-98347404D01*
X76566579Y-98355001D01*
X76463419Y-98355001D01*
X76386292Y-98347404D01*
X76309163Y-98339808D01*
X76177212Y-98299781D01*
X76111236Y-98279768D01*
X75928827Y-98182268D01*
X75768945Y-98051055D01*
X75637732Y-97891173D01*
X75540232Y-97708764D01*
X75520219Y-97642788D01*
X75480192Y-97510837D01*
X75459919Y-97305001D01*
X75480192Y-97099165D01*
X75540232Y-96901239D01*
X75540232Y-96901238D01*
X75637732Y-96718829D01*
X75768945Y-96558947D01*
X75928827Y-96427734D01*
X76111236Y-96330234D01*
X76177212Y-96310221D01*
X76309163Y-96270194D01*
X76386292Y-96262597D01*
X76463419Y-96255001D01*
X76566579Y-96255001D01*
X76643706Y-96262597D01*
X76643706Y-96262597D01*
G37*
G36*
X74103706Y-96262597D02*
X74180835Y-96270194D01*
X74312786Y-96310221D01*
X74378762Y-96330234D01*
X74561171Y-96427734D01*
X74721053Y-96558947D01*
X74852266Y-96718829D01*
X74949766Y-96901238D01*
X74949766Y-96901239D01*
X75009806Y-97099165D01*
X75030079Y-97305001D01*
X75009806Y-97510837D01*
X74969779Y-97642788D01*
X74949766Y-97708764D01*
X74852266Y-97891173D01*
X74721053Y-98051055D01*
X74561171Y-98182268D01*
X74378762Y-98279768D01*
X74312786Y-98299781D01*
X74180835Y-98339808D01*
X74103706Y-98347404D01*
X74026579Y-98355001D01*
X73923419Y-98355001D01*
X73846292Y-98347404D01*
X73769163Y-98339808D01*
X73637212Y-98299781D01*
X73571236Y-98279768D01*
X73388827Y-98182268D01*
X73228945Y-98051055D01*
X73097732Y-97891173D01*
X73000232Y-97708764D01*
X72980219Y-97642788D01*
X72940192Y-97510837D01*
X72919919Y-97305001D01*
X72940192Y-97099165D01*
X73000232Y-96901239D01*
X73000232Y-96901238D01*
X73097732Y-96718829D01*
X73228945Y-96558947D01*
X73388827Y-96427734D01*
X73571236Y-96330234D01*
X73637212Y-96310221D01*
X73769163Y-96270194D01*
X73846292Y-96262597D01*
X73923419Y-96255001D01*
X74026579Y-96255001D01*
X74103706Y-96262597D01*
X74103706Y-96262597D01*
G37*
G36*
X71563706Y-96262597D02*
X71640835Y-96270194D01*
X71772786Y-96310221D01*
X71838762Y-96330234D01*
X72021171Y-96427734D01*
X72181053Y-96558947D01*
X72312266Y-96718829D01*
X72409766Y-96901238D01*
X72409766Y-96901239D01*
X72469806Y-97099165D01*
X72490079Y-97305001D01*
X72469806Y-97510837D01*
X72429779Y-97642788D01*
X72409766Y-97708764D01*
X72312266Y-97891173D01*
X72181053Y-98051055D01*
X72021171Y-98182268D01*
X71838762Y-98279768D01*
X71772786Y-98299781D01*
X71640835Y-98339808D01*
X71563706Y-98347404D01*
X71486579Y-98355001D01*
X71383419Y-98355001D01*
X71306292Y-98347404D01*
X71229163Y-98339808D01*
X71097212Y-98299781D01*
X71031236Y-98279768D01*
X70848827Y-98182268D01*
X70688945Y-98051055D01*
X70557732Y-97891173D01*
X70460232Y-97708764D01*
X70440219Y-97642788D01*
X70400192Y-97510837D01*
X70379919Y-97305001D01*
X70400192Y-97099165D01*
X70460232Y-96901239D01*
X70460232Y-96901238D01*
X70557732Y-96718829D01*
X70688945Y-96558947D01*
X70848827Y-96427734D01*
X71031236Y-96330234D01*
X71097212Y-96310221D01*
X71229163Y-96270194D01*
X71306292Y-96262597D01*
X71383419Y-96255001D01*
X71486579Y-96255001D01*
X71563706Y-96262597D01*
X71563706Y-96262597D01*
G37*
G36*
X69023706Y-96262597D02*
X69100835Y-96270194D01*
X69232786Y-96310221D01*
X69298762Y-96330234D01*
X69481171Y-96427734D01*
X69641053Y-96558947D01*
X69772266Y-96718829D01*
X69869766Y-96901238D01*
X69869766Y-96901239D01*
X69929806Y-97099165D01*
X69950079Y-97305001D01*
X69929806Y-97510837D01*
X69889779Y-97642788D01*
X69869766Y-97708764D01*
X69772266Y-97891173D01*
X69641053Y-98051055D01*
X69481171Y-98182268D01*
X69298762Y-98279768D01*
X69232786Y-98299781D01*
X69100835Y-98339808D01*
X69023706Y-98347404D01*
X68946579Y-98355001D01*
X68843419Y-98355001D01*
X68766292Y-98347404D01*
X68689163Y-98339808D01*
X68557212Y-98299781D01*
X68491236Y-98279768D01*
X68308827Y-98182268D01*
X68148945Y-98051055D01*
X68017732Y-97891173D01*
X67920232Y-97708764D01*
X67900219Y-97642788D01*
X67860192Y-97510837D01*
X67839919Y-97305001D01*
X67860192Y-97099165D01*
X67920232Y-96901239D01*
X67920232Y-96901238D01*
X68017732Y-96718829D01*
X68148945Y-96558947D01*
X68308827Y-96427734D01*
X68491236Y-96330234D01*
X68557212Y-96310221D01*
X68689163Y-96270194D01*
X68766292Y-96262597D01*
X68843419Y-96255001D01*
X68946579Y-96255001D01*
X69023706Y-96262597D01*
X69023706Y-96262597D01*
G37*
G36*
X66483706Y-96262597D02*
X66560835Y-96270194D01*
X66692786Y-96310221D01*
X66758762Y-96330234D01*
X66941171Y-96427734D01*
X67101053Y-96558947D01*
X67232266Y-96718829D01*
X67329766Y-96901238D01*
X67329766Y-96901239D01*
X67389806Y-97099165D01*
X67410079Y-97305001D01*
X67389806Y-97510837D01*
X67349779Y-97642788D01*
X67329766Y-97708764D01*
X67232266Y-97891173D01*
X67101053Y-98051055D01*
X66941171Y-98182268D01*
X66758762Y-98279768D01*
X66692786Y-98299781D01*
X66560835Y-98339808D01*
X66483706Y-98347404D01*
X66406579Y-98355001D01*
X66303419Y-98355001D01*
X66226292Y-98347404D01*
X66149163Y-98339808D01*
X66017212Y-98299781D01*
X65951236Y-98279768D01*
X65768827Y-98182268D01*
X65608945Y-98051055D01*
X65477732Y-97891173D01*
X65380232Y-97708764D01*
X65360219Y-97642788D01*
X65320192Y-97510837D01*
X65299919Y-97305001D01*
X65320192Y-97099165D01*
X65380232Y-96901239D01*
X65380232Y-96901238D01*
X65477732Y-96718829D01*
X65608945Y-96558947D01*
X65768827Y-96427734D01*
X65951236Y-96330234D01*
X66017212Y-96310221D01*
X66149163Y-96270194D01*
X66226292Y-96262597D01*
X66303419Y-96255001D01*
X66406579Y-96255001D01*
X66483706Y-96262597D01*
X66483706Y-96262597D01*
G37*
G36*
X86803706Y-96262597D02*
X86880835Y-96270194D01*
X87012786Y-96310221D01*
X87078762Y-96330234D01*
X87261171Y-96427734D01*
X87421053Y-96558947D01*
X87552266Y-96718829D01*
X87649766Y-96901238D01*
X87649766Y-96901239D01*
X87709806Y-97099165D01*
X87730079Y-97305001D01*
X87709806Y-97510837D01*
X87669779Y-97642788D01*
X87649766Y-97708764D01*
X87552266Y-97891173D01*
X87421053Y-98051055D01*
X87261171Y-98182268D01*
X87078762Y-98279768D01*
X87012786Y-98299781D01*
X86880835Y-98339808D01*
X86803706Y-98347404D01*
X86726579Y-98355001D01*
X86623419Y-98355001D01*
X86546292Y-98347404D01*
X86469163Y-98339808D01*
X86337212Y-98299781D01*
X86271236Y-98279768D01*
X86088827Y-98182268D01*
X85928945Y-98051055D01*
X85797732Y-97891173D01*
X85700232Y-97708764D01*
X85680219Y-97642788D01*
X85640192Y-97510837D01*
X85619919Y-97305001D01*
X85640192Y-97099165D01*
X85700232Y-96901239D01*
X85700232Y-96901238D01*
X85797732Y-96718829D01*
X85928945Y-96558947D01*
X86088827Y-96427734D01*
X86271236Y-96330234D01*
X86337212Y-96310221D01*
X86469163Y-96270194D01*
X86546292Y-96262597D01*
X86623419Y-96255001D01*
X86726579Y-96255001D01*
X86803706Y-96262597D01*
X86803706Y-96262597D01*
G37*
G36*
X84263706Y-93722597D02*
X84340835Y-93730194D01*
X84472786Y-93770221D01*
X84538762Y-93790234D01*
X84721171Y-93887734D01*
X84881053Y-94018947D01*
X85012266Y-94178829D01*
X85109766Y-94361238D01*
X85109766Y-94361239D01*
X85169806Y-94559165D01*
X85190079Y-94765001D01*
X85169806Y-94970837D01*
X85129779Y-95102788D01*
X85109766Y-95168764D01*
X85012266Y-95351173D01*
X84881053Y-95511055D01*
X84721171Y-95642268D01*
X84538762Y-95739768D01*
X84472786Y-95759781D01*
X84340835Y-95799808D01*
X84263706Y-95807404D01*
X84186579Y-95815001D01*
X84083419Y-95815001D01*
X84006292Y-95807404D01*
X83929163Y-95799808D01*
X83797212Y-95759781D01*
X83731236Y-95739768D01*
X83548827Y-95642268D01*
X83388945Y-95511055D01*
X83257732Y-95351173D01*
X83160232Y-95168764D01*
X83140219Y-95102788D01*
X83100192Y-94970837D01*
X83079919Y-94765001D01*
X83100192Y-94559165D01*
X83160232Y-94361239D01*
X83160232Y-94361238D01*
X83257732Y-94178829D01*
X83388945Y-94018947D01*
X83548827Y-93887734D01*
X83731236Y-93790234D01*
X83797212Y-93770221D01*
X83929163Y-93730194D01*
X84006292Y-93722597D01*
X84083419Y-93715001D01*
X84186579Y-93715001D01*
X84263706Y-93722597D01*
X84263706Y-93722597D01*
G37*
G36*
X99503706Y-93722597D02*
X99580835Y-93730194D01*
X99712786Y-93770221D01*
X99778762Y-93790234D01*
X99961171Y-93887734D01*
X100121053Y-94018947D01*
X100252266Y-94178829D01*
X100349766Y-94361238D01*
X100349766Y-94361239D01*
X100409806Y-94559165D01*
X100430079Y-94765001D01*
X100409806Y-94970837D01*
X100369779Y-95102788D01*
X100349766Y-95168764D01*
X100252266Y-95351173D01*
X100121053Y-95511055D01*
X99961171Y-95642268D01*
X99778762Y-95739768D01*
X99712786Y-95759781D01*
X99580835Y-95799808D01*
X99503706Y-95807404D01*
X99426579Y-95815001D01*
X99323419Y-95815001D01*
X99246292Y-95807404D01*
X99169163Y-95799808D01*
X99037212Y-95759781D01*
X98971236Y-95739768D01*
X98788827Y-95642268D01*
X98628945Y-95511055D01*
X98497732Y-95351173D01*
X98400232Y-95168764D01*
X98380219Y-95102788D01*
X98340192Y-94970837D01*
X98319919Y-94765001D01*
X98340192Y-94559165D01*
X98400232Y-94361239D01*
X98400232Y-94361238D01*
X98497732Y-94178829D01*
X98628945Y-94018947D01*
X98788827Y-93887734D01*
X98971236Y-93790234D01*
X99037212Y-93770221D01*
X99169163Y-93730194D01*
X99246292Y-93722597D01*
X99323419Y-93715001D01*
X99426579Y-93715001D01*
X99503706Y-93722597D01*
X99503706Y-93722597D01*
G37*
G36*
X86803706Y-93722597D02*
X86880835Y-93730194D01*
X87012786Y-93770221D01*
X87078762Y-93790234D01*
X87261171Y-93887734D01*
X87421053Y-94018947D01*
X87552266Y-94178829D01*
X87649766Y-94361238D01*
X87649766Y-94361239D01*
X87709806Y-94559165D01*
X87730079Y-94765001D01*
X87709806Y-94970837D01*
X87669779Y-95102788D01*
X87649766Y-95168764D01*
X87552266Y-95351173D01*
X87421053Y-95511055D01*
X87261171Y-95642268D01*
X87078762Y-95739768D01*
X87012786Y-95759781D01*
X86880835Y-95799808D01*
X86803706Y-95807404D01*
X86726579Y-95815001D01*
X86623419Y-95815001D01*
X86546292Y-95807404D01*
X86469163Y-95799808D01*
X86337212Y-95759781D01*
X86271236Y-95739768D01*
X86088827Y-95642268D01*
X85928945Y-95511055D01*
X85797732Y-95351173D01*
X85700232Y-95168764D01*
X85680219Y-95102788D01*
X85640192Y-94970837D01*
X85619919Y-94765001D01*
X85640192Y-94559165D01*
X85700232Y-94361239D01*
X85700232Y-94361238D01*
X85797732Y-94178829D01*
X85928945Y-94018947D01*
X86088827Y-93887734D01*
X86271236Y-93790234D01*
X86337212Y-93770221D01*
X86469163Y-93730194D01*
X86546292Y-93722597D01*
X86623419Y-93715001D01*
X86726579Y-93715001D01*
X86803706Y-93722597D01*
X86803706Y-93722597D01*
G37*
G36*
X102043706Y-93722597D02*
X102120835Y-93730194D01*
X102252786Y-93770221D01*
X102318762Y-93790234D01*
X102501171Y-93887734D01*
X102661053Y-94018947D01*
X102792266Y-94178829D01*
X102889766Y-94361238D01*
X102889766Y-94361239D01*
X102949806Y-94559165D01*
X102970079Y-94765001D01*
X102949806Y-94970837D01*
X102909779Y-95102788D01*
X102889766Y-95168764D01*
X102792266Y-95351173D01*
X102661053Y-95511055D01*
X102501171Y-95642268D01*
X102318762Y-95739768D01*
X102252786Y-95759781D01*
X102120835Y-95799808D01*
X102043706Y-95807405D01*
X101966579Y-95815001D01*
X101863419Y-95815001D01*
X101786292Y-95807404D01*
X101709163Y-95799808D01*
X101577212Y-95759781D01*
X101511236Y-95739768D01*
X101328827Y-95642268D01*
X101168945Y-95511055D01*
X101037732Y-95351173D01*
X100940232Y-95168764D01*
X100920219Y-95102788D01*
X100880192Y-94970837D01*
X100859919Y-94765001D01*
X100880192Y-94559165D01*
X100940232Y-94361239D01*
X100940232Y-94361238D01*
X101037732Y-94178829D01*
X101168945Y-94018947D01*
X101328827Y-93887734D01*
X101511236Y-93790234D01*
X101577212Y-93770221D01*
X101709163Y-93730194D01*
X101786292Y-93722597D01*
X101863419Y-93715001D01*
X101966579Y-93715001D01*
X102043706Y-93722597D01*
X102043706Y-93722597D01*
G37*
G36*
X89343706Y-93722597D02*
X89420835Y-93730194D01*
X89552786Y-93770221D01*
X89618762Y-93790234D01*
X89801171Y-93887734D01*
X89961053Y-94018947D01*
X90092266Y-94178829D01*
X90189766Y-94361238D01*
X90189766Y-94361239D01*
X90249806Y-94559165D01*
X90270079Y-94765001D01*
X90249806Y-94970837D01*
X90209779Y-95102788D01*
X90189766Y-95168764D01*
X90092266Y-95351173D01*
X89961053Y-95511055D01*
X89801171Y-95642268D01*
X89618762Y-95739768D01*
X89552786Y-95759781D01*
X89420835Y-95799808D01*
X89343706Y-95807404D01*
X89266579Y-95815001D01*
X89163419Y-95815001D01*
X89086292Y-95807404D01*
X89009163Y-95799808D01*
X88877212Y-95759781D01*
X88811236Y-95739768D01*
X88628827Y-95642268D01*
X88468945Y-95511055D01*
X88337732Y-95351173D01*
X88240232Y-95168764D01*
X88220219Y-95102788D01*
X88180192Y-94970837D01*
X88159919Y-94765001D01*
X88180192Y-94559165D01*
X88240232Y-94361239D01*
X88240232Y-94361238D01*
X88337732Y-94178829D01*
X88468945Y-94018947D01*
X88628827Y-93887734D01*
X88811236Y-93790234D01*
X88877212Y-93770221D01*
X89009163Y-93730194D01*
X89086292Y-93722597D01*
X89163419Y-93715001D01*
X89266579Y-93715001D01*
X89343706Y-93722597D01*
X89343706Y-93722597D01*
G37*
G36*
X91883706Y-93722597D02*
X91960835Y-93730194D01*
X92092786Y-93770221D01*
X92158762Y-93790234D01*
X92341171Y-93887734D01*
X92501053Y-94018947D01*
X92632266Y-94178829D01*
X92729766Y-94361238D01*
X92729766Y-94361239D01*
X92789806Y-94559165D01*
X92810079Y-94765001D01*
X92789806Y-94970837D01*
X92749779Y-95102788D01*
X92729766Y-95168764D01*
X92632266Y-95351173D01*
X92501053Y-95511055D01*
X92341171Y-95642268D01*
X92158762Y-95739768D01*
X92092786Y-95759781D01*
X91960835Y-95799808D01*
X91883706Y-95807404D01*
X91806579Y-95815001D01*
X91703419Y-95815001D01*
X91626292Y-95807404D01*
X91549163Y-95799808D01*
X91417212Y-95759781D01*
X91351236Y-95739768D01*
X91168827Y-95642268D01*
X91008945Y-95511055D01*
X90877732Y-95351173D01*
X90780232Y-95168764D01*
X90760219Y-95102788D01*
X90720192Y-94970837D01*
X90699919Y-94765001D01*
X90720192Y-94559165D01*
X90780232Y-94361239D01*
X90780232Y-94361238D01*
X90877732Y-94178829D01*
X91008945Y-94018947D01*
X91168827Y-93887734D01*
X91351236Y-93790234D01*
X91417212Y-93770221D01*
X91549163Y-93730194D01*
X91626292Y-93722597D01*
X91703419Y-93715001D01*
X91806579Y-93715001D01*
X91883706Y-93722597D01*
X91883706Y-93722597D01*
G37*
G36*
X94423706Y-93722597D02*
X94500835Y-93730194D01*
X94632786Y-93770221D01*
X94698762Y-93790234D01*
X94881171Y-93887734D01*
X95041053Y-94018947D01*
X95172266Y-94178829D01*
X95269766Y-94361238D01*
X95269766Y-94361239D01*
X95329806Y-94559165D01*
X95350079Y-94765001D01*
X95329806Y-94970837D01*
X95289779Y-95102788D01*
X95269766Y-95168764D01*
X95172266Y-95351173D01*
X95041053Y-95511055D01*
X94881171Y-95642268D01*
X94698762Y-95739768D01*
X94632786Y-95759781D01*
X94500835Y-95799808D01*
X94423706Y-95807404D01*
X94346579Y-95815001D01*
X94243419Y-95815001D01*
X94166292Y-95807404D01*
X94089163Y-95799808D01*
X93957212Y-95759781D01*
X93891236Y-95739768D01*
X93708827Y-95642268D01*
X93548945Y-95511055D01*
X93417732Y-95351173D01*
X93320232Y-95168764D01*
X93300219Y-95102788D01*
X93260192Y-94970837D01*
X93239919Y-94765001D01*
X93260192Y-94559165D01*
X93320232Y-94361239D01*
X93320232Y-94361238D01*
X93417732Y-94178829D01*
X93548945Y-94018947D01*
X93708827Y-93887734D01*
X93891236Y-93790234D01*
X93957212Y-93770221D01*
X94089163Y-93730194D01*
X94166292Y-93722597D01*
X94243419Y-93715001D01*
X94346579Y-93715001D01*
X94423706Y-93722597D01*
X94423706Y-93722597D01*
G37*
G36*
X96963706Y-93722597D02*
X97040835Y-93730194D01*
X97172786Y-93770221D01*
X97238762Y-93790234D01*
X97421171Y-93887734D01*
X97581053Y-94018947D01*
X97712266Y-94178829D01*
X97809766Y-94361238D01*
X97809766Y-94361239D01*
X97869806Y-94559165D01*
X97890079Y-94765001D01*
X97869806Y-94970837D01*
X97829779Y-95102788D01*
X97809766Y-95168764D01*
X97712266Y-95351173D01*
X97581053Y-95511055D01*
X97421171Y-95642268D01*
X97238762Y-95739768D01*
X97172786Y-95759781D01*
X97040835Y-95799808D01*
X96963706Y-95807404D01*
X96886579Y-95815001D01*
X96783419Y-95815001D01*
X96706292Y-95807404D01*
X96629163Y-95799808D01*
X96497212Y-95759781D01*
X96431236Y-95739768D01*
X96248827Y-95642268D01*
X96088945Y-95511055D01*
X95957732Y-95351173D01*
X95860232Y-95168764D01*
X95840219Y-95102788D01*
X95800192Y-94970837D01*
X95779919Y-94765001D01*
X95800192Y-94559165D01*
X95860232Y-94361239D01*
X95860232Y-94361238D01*
X95957732Y-94178829D01*
X96088945Y-94018947D01*
X96248827Y-93887734D01*
X96431236Y-93790234D01*
X96497212Y-93770221D01*
X96629163Y-93730194D01*
X96706292Y-93722597D01*
X96783419Y-93715001D01*
X96886579Y-93715001D01*
X96963706Y-93722597D01*
X96963706Y-93722597D01*
G37*
G36*
X63943706Y-93722597D02*
X64020835Y-93730194D01*
X64152786Y-93770221D01*
X64218762Y-93790234D01*
X64401171Y-93887734D01*
X64561053Y-94018947D01*
X64692266Y-94178829D01*
X64789766Y-94361238D01*
X64789766Y-94361239D01*
X64849806Y-94559165D01*
X64870079Y-94765001D01*
X64849806Y-94970837D01*
X64809779Y-95102788D01*
X64789766Y-95168764D01*
X64692266Y-95351173D01*
X64561053Y-95511055D01*
X64401171Y-95642268D01*
X64218762Y-95739768D01*
X64152786Y-95759781D01*
X64020835Y-95799808D01*
X63943706Y-95807404D01*
X63866579Y-95815001D01*
X63763419Y-95815001D01*
X63686292Y-95807404D01*
X63609163Y-95799808D01*
X63477212Y-95759781D01*
X63411236Y-95739768D01*
X63228827Y-95642268D01*
X63068945Y-95511055D01*
X62937732Y-95351173D01*
X62840232Y-95168764D01*
X62820219Y-95102788D01*
X62780192Y-94970837D01*
X62759919Y-94765001D01*
X62780192Y-94559165D01*
X62840232Y-94361239D01*
X62840232Y-94361238D01*
X62937732Y-94178829D01*
X63068945Y-94018947D01*
X63228827Y-93887734D01*
X63411236Y-93790234D01*
X63477212Y-93770221D01*
X63609163Y-93730194D01*
X63686292Y-93722597D01*
X63763419Y-93715001D01*
X63866579Y-93715001D01*
X63943706Y-93722597D01*
X63943706Y-93722597D01*
G37*
G36*
X66483706Y-93722597D02*
X66560835Y-93730194D01*
X66692786Y-93770221D01*
X66758762Y-93790234D01*
X66941171Y-93887734D01*
X67101053Y-94018947D01*
X67232266Y-94178829D01*
X67329766Y-94361238D01*
X67329766Y-94361239D01*
X67389806Y-94559165D01*
X67410079Y-94765001D01*
X67389806Y-94970837D01*
X67349779Y-95102788D01*
X67329766Y-95168764D01*
X67232266Y-95351173D01*
X67101053Y-95511055D01*
X66941171Y-95642268D01*
X66758762Y-95739768D01*
X66692786Y-95759781D01*
X66560835Y-95799808D01*
X66483706Y-95807404D01*
X66406579Y-95815001D01*
X66303419Y-95815001D01*
X66226292Y-95807404D01*
X66149163Y-95799808D01*
X66017212Y-95759781D01*
X65951236Y-95739768D01*
X65768827Y-95642268D01*
X65608945Y-95511055D01*
X65477732Y-95351173D01*
X65380232Y-95168764D01*
X65360219Y-95102788D01*
X65320192Y-94970837D01*
X65299919Y-94765001D01*
X65320192Y-94559165D01*
X65380232Y-94361239D01*
X65380232Y-94361238D01*
X65477732Y-94178829D01*
X65608945Y-94018947D01*
X65768827Y-93887734D01*
X65951236Y-93790234D01*
X66017212Y-93770221D01*
X66149163Y-93730194D01*
X66226292Y-93722597D01*
X66303419Y-93715001D01*
X66406579Y-93715001D01*
X66483706Y-93722597D01*
X66483706Y-93722597D01*
G37*
G36*
X79183706Y-93722597D02*
X79260835Y-93730194D01*
X79392786Y-93770221D01*
X79458762Y-93790234D01*
X79641171Y-93887734D01*
X79801053Y-94018947D01*
X79932266Y-94178829D01*
X80029766Y-94361238D01*
X80029766Y-94361239D01*
X80089806Y-94559165D01*
X80110079Y-94765001D01*
X80089806Y-94970837D01*
X80049779Y-95102788D01*
X80029766Y-95168764D01*
X79932266Y-95351173D01*
X79801053Y-95511055D01*
X79641171Y-95642268D01*
X79458762Y-95739768D01*
X79392786Y-95759781D01*
X79260835Y-95799808D01*
X79183706Y-95807404D01*
X79106579Y-95815001D01*
X79003419Y-95815001D01*
X78926292Y-95807404D01*
X78849163Y-95799808D01*
X78717212Y-95759781D01*
X78651236Y-95739768D01*
X78468827Y-95642268D01*
X78308945Y-95511055D01*
X78177732Y-95351173D01*
X78080232Y-95168764D01*
X78060219Y-95102788D01*
X78020192Y-94970837D01*
X77999919Y-94765001D01*
X78020192Y-94559165D01*
X78080232Y-94361239D01*
X78080232Y-94361238D01*
X78177732Y-94178829D01*
X78308945Y-94018947D01*
X78468827Y-93887734D01*
X78651236Y-93790234D01*
X78717212Y-93770221D01*
X78849163Y-93730194D01*
X78926292Y-93722597D01*
X79003419Y-93715001D01*
X79106579Y-93715001D01*
X79183706Y-93722597D01*
X79183706Y-93722597D01*
G37*
G36*
X107123706Y-93722597D02*
X107200835Y-93730194D01*
X107332786Y-93770221D01*
X107398762Y-93790234D01*
X107581171Y-93887734D01*
X107741053Y-94018947D01*
X107872266Y-94178829D01*
X107969766Y-94361238D01*
X107969766Y-94361239D01*
X108029806Y-94559165D01*
X108050079Y-94765001D01*
X108029806Y-94970837D01*
X107989779Y-95102788D01*
X107969766Y-95168764D01*
X107872266Y-95351173D01*
X107741053Y-95511055D01*
X107581171Y-95642268D01*
X107398762Y-95739768D01*
X107332786Y-95759781D01*
X107200835Y-95799808D01*
X107123706Y-95807405D01*
X107046579Y-95815001D01*
X106943419Y-95815001D01*
X106866292Y-95807404D01*
X106789163Y-95799808D01*
X106657212Y-95759781D01*
X106591236Y-95739768D01*
X106408827Y-95642268D01*
X106248945Y-95511055D01*
X106117732Y-95351173D01*
X106020232Y-95168764D01*
X106000219Y-95102788D01*
X105960192Y-94970837D01*
X105939919Y-94765001D01*
X105960192Y-94559165D01*
X106020232Y-94361239D01*
X106020232Y-94361238D01*
X106117732Y-94178829D01*
X106248945Y-94018947D01*
X106408827Y-93887734D01*
X106591236Y-93790234D01*
X106657212Y-93770221D01*
X106789163Y-93730194D01*
X106866292Y-93722597D01*
X106943419Y-93715001D01*
X107046579Y-93715001D01*
X107123706Y-93722597D01*
X107123706Y-93722597D01*
G37*
G36*
X76643706Y-93722597D02*
X76720835Y-93730194D01*
X76852786Y-93770221D01*
X76918762Y-93790234D01*
X77101171Y-93887734D01*
X77261053Y-94018947D01*
X77392266Y-94178829D01*
X77489766Y-94361238D01*
X77489766Y-94361239D01*
X77549806Y-94559165D01*
X77570079Y-94765001D01*
X77549806Y-94970837D01*
X77509779Y-95102788D01*
X77489766Y-95168764D01*
X77392266Y-95351173D01*
X77261053Y-95511055D01*
X77101171Y-95642268D01*
X76918762Y-95739768D01*
X76852786Y-95759781D01*
X76720835Y-95799808D01*
X76643706Y-95807404D01*
X76566579Y-95815001D01*
X76463419Y-95815001D01*
X76386292Y-95807404D01*
X76309163Y-95799808D01*
X76177212Y-95759781D01*
X76111236Y-95739768D01*
X75928827Y-95642268D01*
X75768945Y-95511055D01*
X75637732Y-95351173D01*
X75540232Y-95168764D01*
X75520219Y-95102788D01*
X75480192Y-94970837D01*
X75459919Y-94765001D01*
X75480192Y-94559165D01*
X75540232Y-94361239D01*
X75540232Y-94361238D01*
X75637732Y-94178829D01*
X75768945Y-94018947D01*
X75928827Y-93887734D01*
X76111236Y-93790234D01*
X76177212Y-93770221D01*
X76309163Y-93730194D01*
X76386292Y-93722597D01*
X76463419Y-93715001D01*
X76566579Y-93715001D01*
X76643706Y-93722597D01*
X76643706Y-93722597D01*
G37*
G36*
X74103706Y-93722597D02*
X74180835Y-93730194D01*
X74312786Y-93770221D01*
X74378762Y-93790234D01*
X74561171Y-93887734D01*
X74721053Y-94018947D01*
X74852266Y-94178829D01*
X74949766Y-94361238D01*
X74949766Y-94361239D01*
X75009806Y-94559165D01*
X75030079Y-94765001D01*
X75009806Y-94970837D01*
X74969779Y-95102788D01*
X74949766Y-95168764D01*
X74852266Y-95351173D01*
X74721053Y-95511055D01*
X74561171Y-95642268D01*
X74378762Y-95739768D01*
X74312786Y-95759781D01*
X74180835Y-95799808D01*
X74103706Y-95807404D01*
X74026579Y-95815001D01*
X73923419Y-95815001D01*
X73846292Y-95807404D01*
X73769163Y-95799808D01*
X73637212Y-95759781D01*
X73571236Y-95739768D01*
X73388827Y-95642268D01*
X73228945Y-95511055D01*
X73097732Y-95351173D01*
X73000232Y-95168764D01*
X72980219Y-95102788D01*
X72940192Y-94970837D01*
X72919919Y-94765001D01*
X72940192Y-94559165D01*
X73000232Y-94361239D01*
X73000232Y-94361238D01*
X73097732Y-94178829D01*
X73228945Y-94018947D01*
X73388827Y-93887734D01*
X73571236Y-93790234D01*
X73637212Y-93770221D01*
X73769163Y-93730194D01*
X73846292Y-93722597D01*
X73923419Y-93715001D01*
X74026579Y-93715001D01*
X74103706Y-93722597D01*
X74103706Y-93722597D01*
G37*
G36*
X109663706Y-93722597D02*
X109740835Y-93730194D01*
X109872786Y-93770221D01*
X109938762Y-93790234D01*
X110121171Y-93887734D01*
X110281053Y-94018947D01*
X110412266Y-94178829D01*
X110509766Y-94361238D01*
X110509766Y-94361239D01*
X110569806Y-94559165D01*
X110590079Y-94765001D01*
X110569806Y-94970837D01*
X110529779Y-95102788D01*
X110509766Y-95168764D01*
X110412266Y-95351173D01*
X110281053Y-95511055D01*
X110121171Y-95642268D01*
X109938762Y-95739768D01*
X109872786Y-95759781D01*
X109740835Y-95799808D01*
X109663706Y-95807405D01*
X109586579Y-95815001D01*
X109483419Y-95815001D01*
X109406292Y-95807404D01*
X109329163Y-95799808D01*
X109197212Y-95759781D01*
X109131236Y-95739768D01*
X108948827Y-95642268D01*
X108788945Y-95511055D01*
X108657732Y-95351173D01*
X108560232Y-95168764D01*
X108540219Y-95102788D01*
X108500192Y-94970837D01*
X108479919Y-94765001D01*
X108500192Y-94559165D01*
X108560232Y-94361239D01*
X108560232Y-94361238D01*
X108657732Y-94178829D01*
X108788945Y-94018947D01*
X108948827Y-93887734D01*
X109131236Y-93790234D01*
X109197212Y-93770221D01*
X109329163Y-93730194D01*
X109406292Y-93722597D01*
X109483419Y-93715001D01*
X109586579Y-93715001D01*
X109663706Y-93722597D01*
X109663706Y-93722597D01*
G37*
G36*
X71563706Y-93722597D02*
X71640835Y-93730194D01*
X71772786Y-93770221D01*
X71838762Y-93790234D01*
X72021171Y-93887734D01*
X72181053Y-94018947D01*
X72312266Y-94178829D01*
X72409766Y-94361238D01*
X72409766Y-94361239D01*
X72469806Y-94559165D01*
X72490079Y-94765001D01*
X72469806Y-94970837D01*
X72429779Y-95102788D01*
X72409766Y-95168764D01*
X72312266Y-95351173D01*
X72181053Y-95511055D01*
X72021171Y-95642268D01*
X71838762Y-95739768D01*
X71772786Y-95759781D01*
X71640835Y-95799808D01*
X71563706Y-95807404D01*
X71486579Y-95815001D01*
X71383419Y-95815001D01*
X71306292Y-95807404D01*
X71229163Y-95799808D01*
X71097212Y-95759781D01*
X71031236Y-95739768D01*
X70848827Y-95642268D01*
X70688945Y-95511055D01*
X70557732Y-95351173D01*
X70460232Y-95168764D01*
X70440219Y-95102788D01*
X70400192Y-94970837D01*
X70379919Y-94765001D01*
X70400192Y-94559165D01*
X70460232Y-94361239D01*
X70460232Y-94361238D01*
X70557732Y-94178829D01*
X70688945Y-94018947D01*
X70848827Y-93887734D01*
X71031236Y-93790234D01*
X71097212Y-93770221D01*
X71229163Y-93730194D01*
X71306292Y-93722597D01*
X71383419Y-93715001D01*
X71486579Y-93715001D01*
X71563706Y-93722597D01*
X71563706Y-93722597D01*
G37*
G36*
X69023706Y-93722597D02*
X69100835Y-93730194D01*
X69232786Y-93770221D01*
X69298762Y-93790234D01*
X69481171Y-93887734D01*
X69641053Y-94018947D01*
X69772266Y-94178829D01*
X69869766Y-94361238D01*
X69869766Y-94361239D01*
X69929806Y-94559165D01*
X69950079Y-94765001D01*
X69929806Y-94970837D01*
X69889779Y-95102788D01*
X69869766Y-95168764D01*
X69772266Y-95351173D01*
X69641053Y-95511055D01*
X69481171Y-95642268D01*
X69298762Y-95739768D01*
X69232786Y-95759781D01*
X69100835Y-95799808D01*
X69023706Y-95807404D01*
X68946579Y-95815001D01*
X68843419Y-95815001D01*
X68766292Y-95807404D01*
X68689163Y-95799808D01*
X68557212Y-95759781D01*
X68491236Y-95739768D01*
X68308827Y-95642268D01*
X68148945Y-95511055D01*
X68017732Y-95351173D01*
X67920232Y-95168764D01*
X67900219Y-95102788D01*
X67860192Y-94970837D01*
X67839919Y-94765001D01*
X67860192Y-94559165D01*
X67920232Y-94361239D01*
X67920232Y-94361238D01*
X68017732Y-94178829D01*
X68148945Y-94018947D01*
X68308827Y-93887734D01*
X68491236Y-93790234D01*
X68557212Y-93770221D01*
X68689163Y-93730194D01*
X68766292Y-93722597D01*
X68843419Y-93715001D01*
X68946579Y-93715001D01*
X69023706Y-93722597D01*
X69023706Y-93722597D01*
G37*
G36*
X113124999Y-95815001D02*
X111024999Y-95815001D01*
X111024999Y-93715001D01*
X113124999Y-93715001D01*
X113124999Y-95815001D01*
X113124999Y-95815001D01*
G37*
G36*
X104583706Y-93722597D02*
X104660835Y-93730194D01*
X104792786Y-93770221D01*
X104858762Y-93790234D01*
X105041171Y-93887734D01*
X105201053Y-94018947D01*
X105332266Y-94178829D01*
X105429766Y-94361238D01*
X105429766Y-94361239D01*
X105489806Y-94559165D01*
X105510079Y-94765001D01*
X105489806Y-94970837D01*
X105449779Y-95102788D01*
X105429766Y-95168764D01*
X105332266Y-95351173D01*
X105201053Y-95511055D01*
X105041171Y-95642268D01*
X104858762Y-95739768D01*
X104792786Y-95759781D01*
X104660835Y-95799808D01*
X104583706Y-95807405D01*
X104506579Y-95815001D01*
X104403419Y-95815001D01*
X104326292Y-95807404D01*
X104249163Y-95799808D01*
X104117212Y-95759781D01*
X104051236Y-95739768D01*
X103868827Y-95642268D01*
X103708945Y-95511055D01*
X103577732Y-95351173D01*
X103480232Y-95168764D01*
X103460219Y-95102788D01*
X103420192Y-94970837D01*
X103399919Y-94765001D01*
X103420192Y-94559165D01*
X103480232Y-94361239D01*
X103480232Y-94361238D01*
X103577732Y-94178829D01*
X103708945Y-94018947D01*
X103868827Y-93887734D01*
X104051236Y-93790234D01*
X104117212Y-93770221D01*
X104249163Y-93730194D01*
X104326292Y-93722597D01*
X104403419Y-93715001D01*
X104506579Y-93715001D01*
X104583706Y-93722597D01*
X104583706Y-93722597D01*
G37*
G36*
X81723706Y-93722597D02*
X81800835Y-93730194D01*
X81932786Y-93770221D01*
X81998762Y-93790234D01*
X82181171Y-93887734D01*
X82341053Y-94018947D01*
X82472266Y-94178829D01*
X82569766Y-94361238D01*
X82569766Y-94361239D01*
X82629806Y-94559165D01*
X82650079Y-94765001D01*
X82629806Y-94970837D01*
X82589779Y-95102788D01*
X82569766Y-95168764D01*
X82472266Y-95351173D01*
X82341053Y-95511055D01*
X82181171Y-95642268D01*
X81998762Y-95739768D01*
X81932786Y-95759781D01*
X81800835Y-95799808D01*
X81723706Y-95807404D01*
X81646579Y-95815001D01*
X81543419Y-95815001D01*
X81466292Y-95807404D01*
X81389163Y-95799808D01*
X81257212Y-95759781D01*
X81191236Y-95739768D01*
X81008827Y-95642268D01*
X80848945Y-95511055D01*
X80717732Y-95351173D01*
X80620232Y-95168764D01*
X80600219Y-95102788D01*
X80560192Y-94970837D01*
X80539919Y-94765001D01*
X80560192Y-94559165D01*
X80620232Y-94361239D01*
X80620232Y-94361238D01*
X80717732Y-94178829D01*
X80848945Y-94018947D01*
X81008827Y-93887734D01*
X81191236Y-93790234D01*
X81257212Y-93770221D01*
X81389163Y-93730194D01*
X81466292Y-93722597D01*
X81543419Y-93715001D01*
X81646579Y-93715001D01*
X81723706Y-93722597D01*
X81723706Y-93722597D01*
G37*
G36*
X82875770Y-90815372D02*
X82991689Y-90838429D01*
X83173678Y-90913811D01*
X83337463Y-91023249D01*
X83476751Y-91162537D01*
X83586189Y-91326322D01*
X83661571Y-91508311D01*
X83682712Y-91614594D01*
X83697229Y-91687574D01*
X83700000Y-91701509D01*
X83700000Y-91898491D01*
X83661571Y-92091689D01*
X83586189Y-92273678D01*
X83476751Y-92437463D01*
X83337463Y-92576751D01*
X83173678Y-92686189D01*
X82991689Y-92761571D01*
X82875770Y-92784628D01*
X82798493Y-92800000D01*
X82601507Y-92800000D01*
X82524230Y-92784628D01*
X82408311Y-92761571D01*
X82226322Y-92686189D01*
X82062537Y-92576751D01*
X81923249Y-92437463D01*
X81813811Y-92273678D01*
X81738429Y-92091689D01*
X81700000Y-91898491D01*
X81700000Y-91701509D01*
X81702772Y-91687574D01*
X81717288Y-91614594D01*
X81738429Y-91508311D01*
X81813811Y-91326322D01*
X81923249Y-91162537D01*
X82062537Y-91023249D01*
X82226322Y-90913811D01*
X82408311Y-90838429D01*
X82524230Y-90815372D01*
X82601507Y-90800000D01*
X82798493Y-90800000D01*
X82875770Y-90815372D01*
X82875770Y-90815372D01*
G37*
G36*
X93416030Y-90414469D02*
X93416033Y-90414470D01*
X93416034Y-90414470D01*
X93604535Y-90471651D01*
X93604537Y-90471652D01*
X93778260Y-90564509D01*
X93930528Y-90689472D01*
X94055491Y-90841740D01*
X94148350Y-91015467D01*
X94189842Y-91152246D01*
X94199219Y-91174885D01*
X94212833Y-91195259D01*
X94230160Y-91212586D01*
X94250535Y-91226200D01*
X94273174Y-91235578D01*
X94297207Y-91240358D01*
X94321711Y-91240358D01*
X94345745Y-91235577D01*
X94368384Y-91226200D01*
X94388758Y-91212586D01*
X94406085Y-91195259D01*
X94419699Y-91174884D01*
X94432057Y-91140346D01*
X94438429Y-91108311D01*
X94513811Y-90926322D01*
X94623249Y-90762537D01*
X94762537Y-90623249D01*
X94926322Y-90513811D01*
X95108311Y-90438429D01*
X95224230Y-90415372D01*
X95301507Y-90400000D01*
X95498493Y-90400000D01*
X95575770Y-90415372D01*
X95691689Y-90438429D01*
X95873678Y-90513811D01*
X96037463Y-90623249D01*
X96176751Y-90762537D01*
X96286189Y-90926322D01*
X96361571Y-91108311D01*
X96382312Y-91212586D01*
X96387837Y-91240358D01*
X96400000Y-91301509D01*
X96400000Y-91498491D01*
X96361571Y-91691689D01*
X96286189Y-91873678D01*
X96176751Y-92037463D01*
X96037463Y-92176751D01*
X95873678Y-92286189D01*
X95691689Y-92361571D01*
X95575770Y-92384628D01*
X95498493Y-92400000D01*
X95301507Y-92400000D01*
X95224230Y-92384628D01*
X95108311Y-92361571D01*
X94926322Y-92286189D01*
X94762537Y-92176751D01*
X94623249Y-92037463D01*
X94513811Y-91873678D01*
X94438429Y-91691689D01*
X94432057Y-91659653D01*
X94424944Y-91636205D01*
X94413393Y-91614594D01*
X94397847Y-91595652D01*
X94378905Y-91580106D01*
X94357294Y-91568555D01*
X94333845Y-91561442D01*
X94309459Y-91559040D01*
X94285073Y-91561442D01*
X94261624Y-91568555D01*
X94240013Y-91580106D01*
X94221071Y-91595652D01*
X94205525Y-91614594D01*
X94189842Y-91647754D01*
X94148350Y-91784533D01*
X94055491Y-91958260D01*
X93930528Y-92110528D01*
X93778260Y-92235491D01*
X93778258Y-92235492D01*
X93604535Y-92328349D01*
X93416034Y-92385530D01*
X93416033Y-92385530D01*
X93416030Y-92385531D01*
X93269124Y-92400000D01*
X93170876Y-92400000D01*
X93023970Y-92385531D01*
X93023967Y-92385530D01*
X93023966Y-92385530D01*
X92835465Y-92328349D01*
X92661742Y-92235492D01*
X92661740Y-92235491D01*
X92509472Y-92110528D01*
X92384509Y-91958260D01*
X92291652Y-91784537D01*
X92291651Y-91784533D01*
X92234470Y-91596034D01*
X92234470Y-91596033D01*
X92234469Y-91596030D01*
X92215162Y-91400000D01*
X92234469Y-91203970D01*
X92243934Y-91172767D01*
X92291651Y-91015465D01*
X92384508Y-90841742D01*
X92384509Y-90841740D01*
X92509472Y-90689472D01*
X92661740Y-90564509D01*
X92835463Y-90471652D01*
X92835465Y-90471651D01*
X93023966Y-90414470D01*
X93023967Y-90414470D01*
X93023970Y-90414469D01*
X93170876Y-90400000D01*
X93269124Y-90400000D01*
X93416030Y-90414469D01*
X93416030Y-90414469D01*
G37*
G36*
X85775770Y-90415372D02*
X85891689Y-90438429D01*
X86073678Y-90513811D01*
X86237463Y-90623249D01*
X86376751Y-90762537D01*
X86486189Y-90926322D01*
X86561571Y-91108311D01*
X86582312Y-91212586D01*
X86587837Y-91240358D01*
X86600000Y-91301509D01*
X86600000Y-91498491D01*
X86561571Y-91691689D01*
X86486189Y-91873678D01*
X86376751Y-92037463D01*
X86237463Y-92176751D01*
X86073678Y-92286189D01*
X85891689Y-92361571D01*
X85775770Y-92384628D01*
X85698493Y-92400000D01*
X85501507Y-92400000D01*
X85424230Y-92384628D01*
X85308311Y-92361571D01*
X85126322Y-92286189D01*
X84962537Y-92176751D01*
X84823249Y-92037463D01*
X84713811Y-91873678D01*
X84638429Y-91691689D01*
X84600000Y-91498491D01*
X84600000Y-91301509D01*
X84612164Y-91240358D01*
X84617688Y-91212586D01*
X84638429Y-91108311D01*
X84713811Y-90926322D01*
X84823249Y-90762537D01*
X84962537Y-90623249D01*
X85126322Y-90513811D01*
X85308311Y-90438429D01*
X85424230Y-90415372D01*
X85501507Y-90400000D01*
X85698493Y-90400000D01*
X85775770Y-90415372D01*
X85775770Y-90415372D01*
G37*
G36*
X103216030Y-90414469D02*
X103216033Y-90414470D01*
X103216034Y-90414470D01*
X103404535Y-90471651D01*
X103404537Y-90471652D01*
X103578260Y-90564509D01*
X103730528Y-90689472D01*
X103855491Y-90841740D01*
X103948350Y-91015467D01*
X103977763Y-91112426D01*
X103987140Y-91135065D01*
X104000754Y-91155440D01*
X104018081Y-91172767D01*
X104038456Y-91186380D01*
X104061095Y-91195758D01*
X104085128Y-91200538D01*
X104109633Y-91200538D01*
X104133666Y-91195757D01*
X104156305Y-91186380D01*
X104176680Y-91172766D01*
X104194007Y-91155439D01*
X104207620Y-91135064D01*
X104216998Y-91112425D01*
X104217414Y-91110762D01*
X104218429Y-91108311D01*
X104293811Y-90926322D01*
X104403249Y-90762537D01*
X104542537Y-90623249D01*
X104706322Y-90513811D01*
X104888311Y-90438429D01*
X105004230Y-90415372D01*
X105081507Y-90400000D01*
X105278493Y-90400000D01*
X105355770Y-90415372D01*
X105471689Y-90438429D01*
X105653678Y-90513811D01*
X105817463Y-90623249D01*
X105956751Y-90762537D01*
X106066189Y-90926322D01*
X106141571Y-91108311D01*
X106162312Y-91212586D01*
X106167837Y-91240358D01*
X106180000Y-91301509D01*
X106180000Y-91498491D01*
X106141571Y-91691689D01*
X106066189Y-91873678D01*
X105956751Y-92037463D01*
X105817463Y-92176751D01*
X105653678Y-92286189D01*
X105471689Y-92361571D01*
X105355770Y-92384628D01*
X105278493Y-92400000D01*
X105081507Y-92400000D01*
X105004230Y-92384628D01*
X104888311Y-92361571D01*
X104706322Y-92286189D01*
X104542537Y-92176751D01*
X104403249Y-92037463D01*
X104293811Y-91873678D01*
X104218429Y-91691689D01*
X104218428Y-91691685D01*
X104215395Y-91684362D01*
X104212869Y-91676033D01*
X104201319Y-91654422D01*
X104185775Y-91635478D01*
X104166834Y-91619932D01*
X104145224Y-91608379D01*
X104121775Y-91601264D01*
X104097389Y-91598860D01*
X104073003Y-91601260D01*
X104049553Y-91608371D01*
X104027942Y-91619921D01*
X104008998Y-91635465D01*
X103993452Y-91654406D01*
X103981899Y-91676016D01*
X103977763Y-91687574D01*
X103948350Y-91784533D01*
X103855491Y-91958260D01*
X103730528Y-92110528D01*
X103578260Y-92235491D01*
X103578258Y-92235492D01*
X103404535Y-92328349D01*
X103216034Y-92385530D01*
X103216033Y-92385530D01*
X103216030Y-92385531D01*
X103069124Y-92400000D01*
X102970876Y-92400000D01*
X102823970Y-92385531D01*
X102823967Y-92385530D01*
X102823966Y-92385530D01*
X102635465Y-92328349D01*
X102461742Y-92235492D01*
X102461740Y-92235491D01*
X102309472Y-92110528D01*
X102184509Y-91958260D01*
X102091652Y-91784537D01*
X102091651Y-91784533D01*
X102034470Y-91596034D01*
X102034470Y-91596033D01*
X102034469Y-91596030D01*
X102015162Y-91400000D01*
X102034469Y-91203970D01*
X102043934Y-91172767D01*
X102091651Y-91015465D01*
X102184508Y-90841742D01*
X102184509Y-90841740D01*
X102309472Y-90689472D01*
X102461740Y-90564509D01*
X102635463Y-90471652D01*
X102635465Y-90471651D01*
X102823966Y-90414470D01*
X102823967Y-90414470D01*
X102823970Y-90414469D01*
X102970876Y-90400000D01*
X103069124Y-90400000D01*
X103216030Y-90414469D01*
X103216030Y-90414469D01*
G37*
G36*
X112996030Y-90414469D02*
X112996033Y-90414470D01*
X112996034Y-90414470D01*
X113184535Y-90471651D01*
X113184537Y-90471652D01*
X113358260Y-90564509D01*
X113510528Y-90689472D01*
X113635491Y-90841740D01*
X113635492Y-90841742D01*
X113728349Y-91015465D01*
X113776066Y-91172767D01*
X113785531Y-91203970D01*
X113804838Y-91400000D01*
X113785531Y-91596030D01*
X113785530Y-91596033D01*
X113785530Y-91596034D01*
X113728350Y-91784533D01*
X113728348Y-91784537D01*
X113635491Y-91958260D01*
X113510528Y-92110528D01*
X113358260Y-92235491D01*
X113358258Y-92235492D01*
X113184535Y-92328349D01*
X112996034Y-92385530D01*
X112996033Y-92385530D01*
X112996030Y-92385531D01*
X112849124Y-92400000D01*
X112750876Y-92400000D01*
X112603970Y-92385531D01*
X112603967Y-92385530D01*
X112603966Y-92385530D01*
X112415465Y-92328349D01*
X112241742Y-92235492D01*
X112241740Y-92235491D01*
X112089472Y-92110528D01*
X111964509Y-91958260D01*
X111871652Y-91784537D01*
X111871651Y-91784533D01*
X111814470Y-91596034D01*
X111814470Y-91596033D01*
X111814469Y-91596030D01*
X111795162Y-91400000D01*
X111814469Y-91203970D01*
X111823934Y-91172767D01*
X111871651Y-91015465D01*
X111964508Y-90841742D01*
X111964509Y-90841740D01*
X112089472Y-90689472D01*
X112241740Y-90564509D01*
X112415463Y-90471652D01*
X112415465Y-90471651D01*
X112603966Y-90414470D01*
X112603967Y-90414470D01*
X112603970Y-90414469D01*
X112750876Y-90400000D01*
X112849124Y-90400000D01*
X112996030Y-90414469D01*
X112996030Y-90414469D01*
G37*
G36*
X99675770Y-87515372D02*
X99791689Y-87538429D01*
X99973678Y-87613811D01*
X100137463Y-87723249D01*
X100276751Y-87862537D01*
X100386189Y-88026322D01*
X100461571Y-88208311D01*
X100500000Y-88401509D01*
X100500000Y-88598491D01*
X100461571Y-88791689D01*
X100386189Y-88973678D01*
X100276751Y-89137463D01*
X100137463Y-89276751D01*
X99973678Y-89386189D01*
X99791689Y-89461571D01*
X99675770Y-89484628D01*
X99598493Y-89500000D01*
X99401507Y-89500000D01*
X99324230Y-89484628D01*
X99208311Y-89461571D01*
X99026322Y-89386189D01*
X98862537Y-89276751D01*
X98723249Y-89137463D01*
X98613811Y-88973678D01*
X98538429Y-88791689D01*
X98500000Y-88598491D01*
X98500000Y-88401509D01*
X98538429Y-88208311D01*
X98613811Y-88026322D01*
X98723249Y-87862537D01*
X98862537Y-87723249D01*
X99026322Y-87613811D01*
X99208311Y-87538429D01*
X99324230Y-87515372D01*
X99401507Y-87500000D01*
X99598493Y-87500000D01*
X99675770Y-87515372D01*
X99675770Y-87515372D01*
G37*
G36*
X112975770Y-87315372D02*
X113091689Y-87338429D01*
X113273678Y-87413811D01*
X113437463Y-87523249D01*
X113576751Y-87662537D01*
X113686189Y-87826322D01*
X113761571Y-88008311D01*
X113784628Y-88124230D01*
X113796972Y-88186282D01*
X113800000Y-88201509D01*
X113800000Y-88398491D01*
X113761571Y-88591689D01*
X113686189Y-88773678D01*
X113576751Y-88937463D01*
X113437463Y-89076751D01*
X113273678Y-89186189D01*
X113091689Y-89261571D01*
X112975770Y-89284628D01*
X112898493Y-89300000D01*
X112701507Y-89300000D01*
X112624230Y-89284628D01*
X112508311Y-89261571D01*
X112326322Y-89186189D01*
X112162537Y-89076751D01*
X112023249Y-88937463D01*
X111913811Y-88773678D01*
X111838429Y-88591689D01*
X111800000Y-88398491D01*
X111800000Y-88201509D01*
X111803029Y-88186282D01*
X111815372Y-88124230D01*
X111838429Y-88008311D01*
X111913811Y-87826322D01*
X112023249Y-87662537D01*
X112162537Y-87523249D01*
X112326322Y-87413811D01*
X112508311Y-87338429D01*
X112624230Y-87315372D01*
X112701507Y-87300000D01*
X112898493Y-87300000D01*
X112975770Y-87315372D01*
X112975770Y-87315372D01*
G37*
G36*
X105376030Y-87314469D02*
X105376033Y-87314470D01*
X105376034Y-87314470D01*
X105564535Y-87371651D01*
X105564537Y-87371652D01*
X105738260Y-87464509D01*
X105890528Y-87589472D01*
X106015491Y-87741740D01*
X106108348Y-87915463D01*
X106165531Y-88103970D01*
X106184838Y-88300000D01*
X106165531Y-88496030D01*
X106165530Y-88496033D01*
X106165530Y-88496034D01*
X106111962Y-88672626D01*
X106108348Y-88684537D01*
X106015491Y-88858260D01*
X105890528Y-89010528D01*
X105738260Y-89135491D01*
X105738258Y-89135492D01*
X105564535Y-89228349D01*
X105376034Y-89285530D01*
X105376033Y-89285530D01*
X105376030Y-89285531D01*
X105229124Y-89300000D01*
X105130876Y-89300000D01*
X104983970Y-89285531D01*
X104983967Y-89285530D01*
X104983966Y-89285530D01*
X104795465Y-89228349D01*
X104621742Y-89135492D01*
X104621740Y-89135491D01*
X104469472Y-89010528D01*
X104344509Y-88858260D01*
X104251652Y-88684537D01*
X104248039Y-88672626D01*
X104194470Y-88496034D01*
X104194470Y-88496033D01*
X104194469Y-88496030D01*
X104175162Y-88300000D01*
X104194469Y-88103970D01*
X104251652Y-87915463D01*
X104344509Y-87741740D01*
X104469472Y-87589472D01*
X104621740Y-87464509D01*
X104795463Y-87371652D01*
X104795465Y-87371651D01*
X104983966Y-87314470D01*
X104983967Y-87314470D01*
X104983970Y-87314469D01*
X105130876Y-87300000D01*
X105229124Y-87300000D01*
X105376030Y-87314469D01*
X105376030Y-87314469D01*
G37*
G36*
X89289203Y-86152893D02*
X89289206Y-86152894D01*
X89289207Y-86152894D01*
X89304773Y-86157616D01*
X89326908Y-86164330D01*
X89346856Y-86174993D01*
X89361652Y-86182901D01*
X89361653Y-86182902D01*
X89361655Y-86182903D01*
X89392106Y-86207894D01*
X89417097Y-86238345D01*
X89435670Y-86273092D01*
X89447107Y-86310797D01*
X89451573Y-86356140D01*
X89451573Y-87643860D01*
X89447107Y-87689203D01*
X89435670Y-87726908D01*
X89417097Y-87761655D01*
X89392106Y-87792106D01*
X89361655Y-87817097D01*
X89361653Y-87817098D01*
X89361652Y-87817099D01*
X89346856Y-87825007D01*
X89326908Y-87835670D01*
X89304773Y-87842384D01*
X89289207Y-87847106D01*
X89289206Y-87847106D01*
X89289203Y-87847107D01*
X89243860Y-87851573D01*
X88406140Y-87851573D01*
X88360797Y-87847107D01*
X88360794Y-87847106D01*
X88360793Y-87847106D01*
X88323093Y-87835670D01*
X88323090Y-87835669D01*
X88306295Y-87826692D01*
X88283656Y-87817315D01*
X88259623Y-87812535D01*
X88235119Y-87812535D01*
X88211085Y-87817316D01*
X88188446Y-87826693D01*
X88168072Y-87840308D01*
X88150745Y-87857635D01*
X88137131Y-87878010D01*
X88127754Y-87900649D01*
X88122974Y-87924682D01*
X88122974Y-87949186D01*
X88131887Y-87984769D01*
X88141640Y-88008314D01*
X88147336Y-88022067D01*
X88180000Y-88186281D01*
X88180000Y-88353719D01*
X88147336Y-88517934D01*
X88083260Y-88672627D01*
X87990236Y-88811847D01*
X87871847Y-88930236D01*
X87732627Y-89023260D01*
X87577934Y-89087336D01*
X87413719Y-89120000D01*
X87246281Y-89120000D01*
X87082066Y-89087336D01*
X86927373Y-89023260D01*
X86788153Y-88930236D01*
X86669764Y-88811847D01*
X86576740Y-88672627D01*
X86512664Y-88517934D01*
X86480000Y-88353719D01*
X86480000Y-88186281D01*
X86512664Y-88022067D01*
X86518361Y-88008314D01*
X86541945Y-87951376D01*
X86549058Y-87927927D01*
X86551460Y-87903541D01*
X86549058Y-87879154D01*
X86541945Y-87855705D01*
X86530394Y-87834094D01*
X86514849Y-87815152D01*
X86495907Y-87799607D01*
X86474296Y-87788055D01*
X86450847Y-87780942D01*
X86426461Y-87778540D01*
X86402074Y-87780942D01*
X86378623Y-87788055D01*
X86307936Y-87817335D01*
X86307935Y-87817335D01*
X86307933Y-87817336D01*
X86143719Y-87850000D01*
X85976281Y-87850000D01*
X85812066Y-87817336D01*
X85657373Y-87753260D01*
X85518153Y-87660236D01*
X85399764Y-87541847D01*
X85306740Y-87402627D01*
X85242664Y-87247934D01*
X85210000Y-87083719D01*
X85210000Y-86916281D01*
X85242664Y-86752066D01*
X85306740Y-86597373D01*
X85399764Y-86458153D01*
X85518153Y-86339764D01*
X85657373Y-86246740D01*
X85812066Y-86182664D01*
X85976281Y-86150000D01*
X86143719Y-86150000D01*
X86307934Y-86182664D01*
X86462627Y-86246740D01*
X86601847Y-86339764D01*
X86720236Y-86458153D01*
X86813260Y-86597373D01*
X86877336Y-86752066D01*
X86910000Y-86916281D01*
X86910000Y-87083719D01*
X86877336Y-87247933D01*
X86877335Y-87247935D01*
X86877335Y-87247936D01*
X86858377Y-87293705D01*
X86848055Y-87318624D01*
X86840942Y-87342073D01*
X86838540Y-87366459D01*
X86840942Y-87390846D01*
X86848055Y-87414295D01*
X86859606Y-87435906D01*
X86875151Y-87454848D01*
X86894093Y-87470393D01*
X86915704Y-87481945D01*
X86939153Y-87489058D01*
X86963539Y-87491460D01*
X86987926Y-87489058D01*
X87011376Y-87481945D01*
X87039265Y-87470393D01*
X87082064Y-87452665D01*
X87082065Y-87452665D01*
X87082067Y-87452664D01*
X87246281Y-87420000D01*
X87413719Y-87420000D01*
X87577933Y-87452664D01*
X87577935Y-87452665D01*
X87577936Y-87452665D01*
X87583206Y-87454848D01*
X87615231Y-87468113D01*
X87638680Y-87475226D01*
X87663067Y-87477628D01*
X87687453Y-87475226D01*
X87710902Y-87468113D01*
X87732513Y-87456562D01*
X87751455Y-87441017D01*
X87767000Y-87422075D01*
X87778552Y-87400464D01*
X87785665Y-87377015D01*
X87788067Y-87352628D01*
X87785665Y-87328242D01*
X87773308Y-87293705D01*
X87764331Y-87276910D01*
X87752893Y-87239203D01*
X87748427Y-87193860D01*
X87748427Y-86356140D01*
X87752893Y-86310797D01*
X87764330Y-86273092D01*
X87782903Y-86238345D01*
X87807894Y-86207894D01*
X87838345Y-86182903D01*
X87838347Y-86182902D01*
X87838348Y-86182901D01*
X87853144Y-86174993D01*
X87873092Y-86164330D01*
X87895227Y-86157616D01*
X87910793Y-86152894D01*
X87910794Y-86152894D01*
X87910797Y-86152893D01*
X87956140Y-86148427D01*
X89243860Y-86148427D01*
X89289203Y-86152893D01*
X89289203Y-86152893D01*
G37*
G36*
X96950000Y-87150000D02*
X94850000Y-87150000D01*
X94850000Y-85050000D01*
X96950000Y-85050000D01*
X96950000Y-87150000D01*
X96950000Y-87150000D01*
G37*
G36*
X82896030Y-83194469D02*
X82896033Y-83194470D01*
X82896034Y-83194470D01*
X83084535Y-83251651D01*
X83084537Y-83251652D01*
X83258260Y-83344509D01*
X83410528Y-83469472D01*
X83535491Y-83621740D01*
X83535492Y-83621742D01*
X83628349Y-83795465D01*
X83685530Y-83983966D01*
X83685531Y-83983970D01*
X83704838Y-84180000D01*
X83685531Y-84376030D01*
X83628348Y-84564537D01*
X83535491Y-84738260D01*
X83410528Y-84890528D01*
X83258260Y-85015491D01*
X83258258Y-85015492D01*
X83084535Y-85108349D01*
X82896034Y-85165530D01*
X82896033Y-85165530D01*
X82896030Y-85165531D01*
X82749124Y-85180000D01*
X82650876Y-85180000D01*
X82503970Y-85165531D01*
X82503967Y-85165530D01*
X82503966Y-85165530D01*
X82315465Y-85108349D01*
X82141742Y-85015492D01*
X82141740Y-85015491D01*
X81989472Y-84890528D01*
X81864509Y-84738260D01*
X81771652Y-84564537D01*
X81714469Y-84376030D01*
X81695162Y-84180000D01*
X81714469Y-83983970D01*
X81714470Y-83983966D01*
X81771651Y-83795465D01*
X81864508Y-83621742D01*
X81864509Y-83621740D01*
X81989472Y-83469472D01*
X82141740Y-83344509D01*
X82315463Y-83251652D01*
X82315465Y-83251651D01*
X82503966Y-83194470D01*
X82503967Y-83194470D01*
X82503970Y-83194469D01*
X82650876Y-83180000D01*
X82749124Y-83180000D01*
X82896030Y-83194469D01*
X82896030Y-83194469D01*
G37*
G36*
X96028707Y-82517597D02*
X96105836Y-82525193D01*
X96208178Y-82556238D01*
X96303763Y-82585233D01*
X96486172Y-82682733D01*
X96646054Y-82813946D01*
X96777267Y-82973828D01*
X96874767Y-83156237D01*
X96874767Y-83156238D01*
X96934807Y-83354164D01*
X96955080Y-83560000D01*
X96934807Y-83765836D01*
X96901763Y-83874767D01*
X96874767Y-83963763D01*
X96777267Y-84146172D01*
X96646054Y-84306054D01*
X96486172Y-84437267D01*
X96303763Y-84534767D01*
X96237787Y-84554780D01*
X96105836Y-84594807D01*
X96028707Y-84602404D01*
X95951580Y-84610000D01*
X95848420Y-84610000D01*
X95771293Y-84602404D01*
X95694164Y-84594807D01*
X95562213Y-84554780D01*
X95496237Y-84534767D01*
X95313828Y-84437267D01*
X95153946Y-84306054D01*
X95022733Y-84146172D01*
X94925233Y-83963763D01*
X94898237Y-83874767D01*
X94865193Y-83765836D01*
X94844920Y-83560000D01*
X94865193Y-83354164D01*
X94925233Y-83156238D01*
X94925233Y-83156237D01*
X95022733Y-82973828D01*
X95153946Y-82813946D01*
X95313828Y-82682733D01*
X95496237Y-82585233D01*
X95591822Y-82556238D01*
X95694164Y-82525193D01*
X95771293Y-82517597D01*
X95848420Y-82510000D01*
X95951580Y-82510000D01*
X96028707Y-82517597D01*
X96028707Y-82517597D01*
G37*
G36*
X116678707Y-81917597D02*
X116755836Y-81925193D01*
X116887787Y-81965220D01*
X116953763Y-81985233D01*
X117136172Y-82082733D01*
X117296054Y-82213946D01*
X117427267Y-82373828D01*
X117524767Y-82556237D01*
X117524767Y-82556238D01*
X117584807Y-82754164D01*
X117605080Y-82960000D01*
X117584807Y-83165836D01*
X117580510Y-83180000D01*
X117524767Y-83363763D01*
X117427267Y-83546172D01*
X117296054Y-83706054D01*
X117136172Y-83837267D01*
X116953763Y-83934767D01*
X116887787Y-83954780D01*
X116755836Y-83994807D01*
X116678707Y-84002404D01*
X116601580Y-84010000D01*
X116498420Y-84010000D01*
X116421293Y-84002404D01*
X116344164Y-83994807D01*
X116212213Y-83954780D01*
X116146237Y-83934767D01*
X115963828Y-83837267D01*
X115803946Y-83706054D01*
X115672733Y-83546172D01*
X115575233Y-83363763D01*
X115519490Y-83180000D01*
X115515193Y-83165836D01*
X115494920Y-82960000D01*
X115515193Y-82754164D01*
X115575233Y-82556238D01*
X115575233Y-82556237D01*
X115672733Y-82373828D01*
X115803946Y-82213946D01*
X115963828Y-82082733D01*
X116146237Y-81985233D01*
X116212213Y-81965220D01*
X116344164Y-81925193D01*
X116421293Y-81917597D01*
X116498420Y-81910000D01*
X116601580Y-81910000D01*
X116678707Y-81917597D01*
X116678707Y-81917597D01*
G37*
G36*
X92490000Y-83950000D02*
X90390000Y-83950000D01*
X90390000Y-81850000D01*
X92490000Y-81850000D01*
X92490000Y-83950000D01*
X92490000Y-83950000D01*
G37*
G36*
X86488707Y-81857596D02*
X86565836Y-81865193D01*
X86697787Y-81905220D01*
X86763763Y-81925233D01*
X86946172Y-82022733D01*
X87106054Y-82153946D01*
X87237267Y-82313828D01*
X87334767Y-82496237D01*
X87352967Y-82556237D01*
X87394807Y-82694164D01*
X87415080Y-82900000D01*
X87394807Y-83105836D01*
X87367920Y-83194470D01*
X87334767Y-83303763D01*
X87237267Y-83486172D01*
X87106054Y-83646054D01*
X86946172Y-83777267D01*
X86763763Y-83874767D01*
X86697787Y-83894780D01*
X86565836Y-83934807D01*
X86488707Y-83942403D01*
X86411580Y-83950000D01*
X86308420Y-83950000D01*
X86231293Y-83942403D01*
X86154164Y-83934807D01*
X86022213Y-83894780D01*
X85956237Y-83874767D01*
X85773828Y-83777267D01*
X85613946Y-83646054D01*
X85482733Y-83486172D01*
X85385233Y-83303763D01*
X85352080Y-83194470D01*
X85325193Y-83105836D01*
X85304920Y-82900000D01*
X85325193Y-82694164D01*
X85367033Y-82556237D01*
X85385233Y-82496237D01*
X85482733Y-82313828D01*
X85613946Y-82153946D01*
X85773828Y-82022733D01*
X85956237Y-81925233D01*
X86022213Y-81905220D01*
X86154164Y-81865193D01*
X86231293Y-81857596D01*
X86308420Y-81850000D01*
X86411580Y-81850000D01*
X86488707Y-81857596D01*
X86488707Y-81857596D01*
G37*
G36*
X89028707Y-81857596D02*
X89105836Y-81865193D01*
X89237787Y-81905220D01*
X89303763Y-81925233D01*
X89486172Y-82022733D01*
X89646054Y-82153946D01*
X89777267Y-82313828D01*
X89874767Y-82496237D01*
X89892967Y-82556237D01*
X89934807Y-82694164D01*
X89955080Y-82900000D01*
X89934807Y-83105836D01*
X89907920Y-83194470D01*
X89874767Y-83303763D01*
X89777267Y-83486172D01*
X89646054Y-83646054D01*
X89486172Y-83777267D01*
X89303763Y-83874767D01*
X89237787Y-83894780D01*
X89105836Y-83934807D01*
X89028707Y-83942403D01*
X88951580Y-83950000D01*
X88848420Y-83950000D01*
X88771293Y-83942403D01*
X88694164Y-83934807D01*
X88562213Y-83894780D01*
X88496237Y-83874767D01*
X88313828Y-83777267D01*
X88153946Y-83646054D01*
X88022733Y-83486172D01*
X87925233Y-83303763D01*
X87892080Y-83194470D01*
X87865193Y-83105836D01*
X87844920Y-82900000D01*
X87865193Y-82694164D01*
X87907033Y-82556237D01*
X87925233Y-82496237D01*
X88022733Y-82313828D01*
X88153946Y-82153946D01*
X88313828Y-82022733D01*
X88496237Y-81925233D01*
X88562213Y-81905220D01*
X88694164Y-81865193D01*
X88771293Y-81857596D01*
X88848420Y-81850000D01*
X88951580Y-81850000D01*
X89028707Y-81857596D01*
X89028707Y-81857596D01*
G37*
G36*
X99696030Y-79894469D02*
X99696033Y-79894470D01*
X99696034Y-79894470D01*
X99884535Y-79951651D01*
X99884537Y-79951652D01*
X100058260Y-80044509D01*
X100210528Y-80169472D01*
X100335491Y-80321740D01*
X100335492Y-80321742D01*
X100428349Y-80495465D01*
X100485530Y-80683966D01*
X100485531Y-80683970D01*
X100504838Y-80880000D01*
X100485531Y-81076030D01*
X100428348Y-81264537D01*
X100335491Y-81438260D01*
X100210528Y-81590528D01*
X100058260Y-81715491D01*
X100058258Y-81715492D01*
X99884535Y-81808349D01*
X99696034Y-81865530D01*
X99696033Y-81865530D01*
X99696030Y-81865531D01*
X99549124Y-81880000D01*
X99450876Y-81880000D01*
X99303970Y-81865531D01*
X99303967Y-81865530D01*
X99303966Y-81865530D01*
X99115465Y-81808349D01*
X98941742Y-81715492D01*
X98941740Y-81715491D01*
X98789472Y-81590528D01*
X98664509Y-81438260D01*
X98571652Y-81264537D01*
X98514469Y-81076030D01*
X98495162Y-80880000D01*
X98514469Y-80683970D01*
X98514470Y-80683966D01*
X98571651Y-80495465D01*
X98664508Y-80321742D01*
X98664509Y-80321740D01*
X98789472Y-80169472D01*
X98941740Y-80044509D01*
X99115463Y-79951652D01*
X99115465Y-79951651D01*
X99303966Y-79894470D01*
X99303967Y-79894470D01*
X99303970Y-79894469D01*
X99450876Y-79880000D01*
X99549124Y-79880000D01*
X99696030Y-79894469D01*
X99696030Y-79894469D01*
G37*
G36*
X116678707Y-79377596D02*
X116755836Y-79385193D01*
X116887787Y-79425220D01*
X116953763Y-79445233D01*
X117136172Y-79542733D01*
X117296054Y-79673946D01*
X117427267Y-79833828D01*
X117524767Y-80016237D01*
X117524767Y-80016238D01*
X117584807Y-80214164D01*
X117605080Y-80420000D01*
X117584807Y-80625836D01*
X117567172Y-80683970D01*
X117524767Y-80823763D01*
X117427267Y-81006172D01*
X117296054Y-81166054D01*
X117136172Y-81297267D01*
X116953763Y-81394767D01*
X116887787Y-81414780D01*
X116755836Y-81454807D01*
X116678707Y-81462404D01*
X116601580Y-81470000D01*
X116498420Y-81470000D01*
X116421293Y-81462404D01*
X116344164Y-81454807D01*
X116212213Y-81414780D01*
X116146237Y-81394767D01*
X115963828Y-81297267D01*
X115803946Y-81166054D01*
X115672733Y-81006172D01*
X115575233Y-80823763D01*
X115532828Y-80683970D01*
X115515193Y-80625836D01*
X115494920Y-80420000D01*
X115515193Y-80214164D01*
X115575233Y-80016238D01*
X115575233Y-80016237D01*
X115672733Y-79833828D01*
X115803946Y-79673946D01*
X115963828Y-79542733D01*
X116146237Y-79445233D01*
X116212213Y-79425220D01*
X116344164Y-79385193D01*
X116421293Y-79377596D01*
X116498420Y-79370000D01*
X116601580Y-79370000D01*
X116678707Y-79377596D01*
X116678707Y-79377596D01*
G37*
G36*
X112004304Y-76845193D02*
X112105836Y-76855193D01*
X112237787Y-76895220D01*
X112303763Y-76915233D01*
X112486172Y-77012733D01*
X112646054Y-77143946D01*
X112777267Y-77303828D01*
X112874767Y-77486237D01*
X112874767Y-77486238D01*
X112934807Y-77684164D01*
X112955080Y-77890000D01*
X112934807Y-78095836D01*
X112894780Y-78227787D01*
X112874767Y-78293763D01*
X112777267Y-78476172D01*
X112646054Y-78636054D01*
X112486172Y-78767267D01*
X112303763Y-78864767D01*
X112237787Y-78884780D01*
X112105836Y-78924807D01*
X112053110Y-78930000D01*
X111951580Y-78940000D01*
X111848420Y-78940000D01*
X111746890Y-78930000D01*
X111694164Y-78924807D01*
X111562213Y-78884780D01*
X111496237Y-78864767D01*
X111313828Y-78767267D01*
X111153946Y-78636054D01*
X111022733Y-78476172D01*
X110925233Y-78293763D01*
X110905220Y-78227787D01*
X110865193Y-78095836D01*
X110844920Y-77890000D01*
X110865193Y-77684164D01*
X110925233Y-77486238D01*
X110925233Y-77486237D01*
X111022733Y-77303828D01*
X111153946Y-77143946D01*
X111313828Y-77012733D01*
X111496237Y-76915233D01*
X111562213Y-76895220D01*
X111694164Y-76855193D01*
X111795696Y-76845193D01*
X111848420Y-76840000D01*
X111951580Y-76840000D01*
X112004304Y-76845193D01*
X112004304Y-76845193D01*
G37*
G36*
X116678707Y-76837596D02*
X116755836Y-76845193D01*
X116887787Y-76885220D01*
X116953763Y-76905233D01*
X117136172Y-77002733D01*
X117296054Y-77133946D01*
X117427267Y-77293828D01*
X117524767Y-77476237D01*
X117544780Y-77542213D01*
X117584807Y-77674164D01*
X117605080Y-77880000D01*
X117584807Y-78085836D01*
X117544780Y-78217787D01*
X117524767Y-78283763D01*
X117427267Y-78466172D01*
X117296054Y-78626054D01*
X117136172Y-78757267D01*
X116953763Y-78854767D01*
X116887787Y-78874780D01*
X116755836Y-78914807D01*
X116678707Y-78922404D01*
X116601580Y-78930000D01*
X116498420Y-78930000D01*
X116421293Y-78922404D01*
X116344164Y-78914807D01*
X116212213Y-78874780D01*
X116146237Y-78854767D01*
X115963828Y-78757267D01*
X115803946Y-78626054D01*
X115672733Y-78466172D01*
X115575233Y-78283763D01*
X115555220Y-78217787D01*
X115515193Y-78085836D01*
X115494920Y-77880000D01*
X115515193Y-77674164D01*
X115555220Y-77542213D01*
X115575233Y-77476237D01*
X115672733Y-77293828D01*
X115803946Y-77133946D01*
X115963828Y-77002733D01*
X116146237Y-76905233D01*
X116212213Y-76885220D01*
X116344164Y-76845193D01*
X116421293Y-76837596D01*
X116498420Y-76830000D01*
X116601580Y-76830000D01*
X116678707Y-76837596D01*
X116678707Y-76837596D01*
G37*
G36*
X79603853Y-74072427D02*
X79896026Y-74161058D01*
X80165301Y-74304988D01*
X80357514Y-74462733D01*
X80401318Y-74498682D01*
X80595013Y-74734700D01*
X80708082Y-74946238D01*
X80738942Y-75003973D01*
X80827573Y-75296146D01*
X80850000Y-75523858D01*
X80850000Y-76276141D01*
X80827573Y-76503848D01*
X80827572Y-76503851D01*
X80827572Y-76503852D01*
X80738941Y-76796029D01*
X80595013Y-77065300D01*
X80401318Y-77301318D01*
X80165300Y-77495013D01*
X79896029Y-77638941D01*
X79896027Y-77638942D01*
X79603854Y-77727573D01*
X79300000Y-77757499D01*
X78996147Y-77727573D01*
X78703974Y-77638942D01*
X78434699Y-77495012D01*
X78198682Y-77301318D01*
X78004988Y-77065301D01*
X77976890Y-77012733D01*
X77861059Y-76796029D01*
X77861058Y-76796027D01*
X77772427Y-76503854D01*
X77750000Y-76276142D01*
X77750000Y-75523859D01*
X77772427Y-75296147D01*
X77861058Y-75003974D01*
X77897264Y-74936238D01*
X78004987Y-74734701D01*
X78004988Y-74734699D01*
X78198682Y-74498682D01*
X78434699Y-74304988D01*
X78434698Y-74304988D01*
X78434700Y-74304987D01*
X78703971Y-74161059D01*
X78703973Y-74161058D01*
X78996146Y-74072427D01*
X79300000Y-74042501D01*
X79603853Y-74072427D01*
X79603853Y-74072427D01*
G37*
G36*
X67003853Y-74072427D02*
X67296026Y-74161058D01*
X67565301Y-74304988D01*
X67757514Y-74462733D01*
X67801318Y-74498682D01*
X67995013Y-74734700D01*
X68108082Y-74946238D01*
X68138942Y-75003973D01*
X68227573Y-75296146D01*
X68250000Y-75523858D01*
X68250000Y-76276141D01*
X68227573Y-76503848D01*
X68227572Y-76503851D01*
X68227572Y-76503852D01*
X68138941Y-76796029D01*
X67995013Y-77065300D01*
X67801318Y-77301318D01*
X67565300Y-77495013D01*
X67296029Y-77638941D01*
X67296027Y-77638942D01*
X67003854Y-77727573D01*
X66700000Y-77757499D01*
X66396147Y-77727573D01*
X66103974Y-77638942D01*
X65834699Y-77495012D01*
X65598682Y-77301318D01*
X65404988Y-77065301D01*
X65376890Y-77012733D01*
X65261059Y-76796029D01*
X65261058Y-76796027D01*
X65172427Y-76503854D01*
X65150000Y-76276142D01*
X65150000Y-75523859D01*
X65172427Y-75296147D01*
X65261058Y-75003974D01*
X65297264Y-74936238D01*
X65404987Y-74734701D01*
X65404988Y-74734699D01*
X65598682Y-74498682D01*
X65834699Y-74304988D01*
X65834698Y-74304988D01*
X65834700Y-74304987D01*
X66103971Y-74161059D01*
X66103973Y-74161058D01*
X66396146Y-74072427D01*
X66700000Y-74042501D01*
X67003853Y-74072427D01*
X67003853Y-74072427D01*
G37*
G36*
X71203853Y-74072427D02*
X71496026Y-74161058D01*
X71765301Y-74304988D01*
X71957514Y-74462733D01*
X72001318Y-74498682D01*
X72195013Y-74734700D01*
X72308082Y-74946238D01*
X72338942Y-75003973D01*
X72427573Y-75296146D01*
X72450000Y-75523858D01*
X72450000Y-76276141D01*
X72427573Y-76503848D01*
X72427572Y-76503851D01*
X72427572Y-76503852D01*
X72338941Y-76796029D01*
X72195013Y-77065300D01*
X72001318Y-77301318D01*
X71765300Y-77495013D01*
X71496029Y-77638941D01*
X71496027Y-77638942D01*
X71203854Y-77727573D01*
X70900000Y-77757499D01*
X70596147Y-77727573D01*
X70303974Y-77638942D01*
X70034699Y-77495012D01*
X69798682Y-77301318D01*
X69604988Y-77065301D01*
X69576890Y-77012733D01*
X69461059Y-76796029D01*
X69461058Y-76796027D01*
X69372427Y-76503854D01*
X69350000Y-76276142D01*
X69350000Y-75523859D01*
X69372427Y-75296147D01*
X69461058Y-75003974D01*
X69497264Y-74936238D01*
X69604987Y-74734701D01*
X69604988Y-74734699D01*
X69798682Y-74498682D01*
X70034699Y-74304988D01*
X70034698Y-74304988D01*
X70034700Y-74304987D01*
X70303971Y-74161059D01*
X70303973Y-74161058D01*
X70596146Y-74072427D01*
X70900000Y-74042501D01*
X71203853Y-74072427D01*
X71203853Y-74072427D01*
G37*
G36*
X75403853Y-74072427D02*
X75696026Y-74161058D01*
X75965301Y-74304988D01*
X76157514Y-74462733D01*
X76201318Y-74498682D01*
X76395013Y-74734700D01*
X76508082Y-74946238D01*
X76538942Y-75003973D01*
X76627573Y-75296146D01*
X76650000Y-75523858D01*
X76650000Y-76276141D01*
X76627573Y-76503848D01*
X76627572Y-76503851D01*
X76627572Y-76503852D01*
X76538941Y-76796029D01*
X76395013Y-77065300D01*
X76201318Y-77301318D01*
X75965300Y-77495013D01*
X75696029Y-77638941D01*
X75696027Y-77638942D01*
X75403854Y-77727573D01*
X75100000Y-77757499D01*
X74796147Y-77727573D01*
X74503974Y-77638942D01*
X74234699Y-77495012D01*
X73998682Y-77301318D01*
X73804988Y-77065301D01*
X73776890Y-77012733D01*
X73661059Y-76796029D01*
X73661058Y-76796027D01*
X73572427Y-76503854D01*
X73550000Y-76276142D01*
X73550000Y-75523859D01*
X73572427Y-75296147D01*
X73661058Y-75003974D01*
X73697264Y-74936238D01*
X73804987Y-74734701D01*
X73804988Y-74734699D01*
X73998682Y-74498682D01*
X74234699Y-74304988D01*
X74234698Y-74304988D01*
X74234700Y-74304987D01*
X74503971Y-74161059D01*
X74503973Y-74161058D01*
X74796146Y-74072427D01*
X75100000Y-74042501D01*
X75403853Y-74072427D01*
X75403853Y-74072427D01*
G37*
G36*
X83803853Y-74072427D02*
X84096026Y-74161058D01*
X84365301Y-74304988D01*
X84557514Y-74462733D01*
X84601318Y-74498682D01*
X84795013Y-74734700D01*
X84908082Y-74946238D01*
X84938942Y-75003973D01*
X85027573Y-75296146D01*
X85050000Y-75523858D01*
X85050000Y-76276141D01*
X85027573Y-76503848D01*
X85027572Y-76503851D01*
X85027572Y-76503852D01*
X84938941Y-76796029D01*
X84795013Y-77065300D01*
X84601318Y-77301318D01*
X84365300Y-77495013D01*
X84096029Y-77638941D01*
X84096027Y-77638942D01*
X83803854Y-77727573D01*
X83500000Y-77757499D01*
X83196147Y-77727573D01*
X82903974Y-77638942D01*
X82634699Y-77495012D01*
X82398682Y-77301318D01*
X82204988Y-77065301D01*
X82176890Y-77012733D01*
X82061059Y-76796029D01*
X82061058Y-76796027D01*
X81972427Y-76503854D01*
X81950000Y-76276142D01*
X81950000Y-75523859D01*
X81972427Y-75296147D01*
X82061058Y-75003974D01*
X82097264Y-74936238D01*
X82204987Y-74734701D01*
X82204988Y-74734699D01*
X82398682Y-74498682D01*
X82634699Y-74304988D01*
X82634698Y-74304988D01*
X82634700Y-74304987D01*
X82903971Y-74161059D01*
X82903973Y-74161058D01*
X83196146Y-74072427D01*
X83500000Y-74042501D01*
X83803853Y-74072427D01*
X83803853Y-74072427D01*
G37*
G36*
X88003853Y-74072427D02*
X88296026Y-74161058D01*
X88565301Y-74304988D01*
X88757514Y-74462733D01*
X88801318Y-74498682D01*
X88995013Y-74734700D01*
X89108082Y-74946238D01*
X89138942Y-75003973D01*
X89227573Y-75296146D01*
X89250000Y-75523858D01*
X89250000Y-76276141D01*
X89227573Y-76503848D01*
X89227572Y-76503851D01*
X89227572Y-76503852D01*
X89138941Y-76796029D01*
X88995013Y-77065300D01*
X88801318Y-77301318D01*
X88565300Y-77495013D01*
X88296029Y-77638941D01*
X88296027Y-77638942D01*
X88003854Y-77727573D01*
X87700000Y-77757499D01*
X87396147Y-77727573D01*
X87103974Y-77638942D01*
X86834699Y-77495012D01*
X86598682Y-77301318D01*
X86404988Y-77065301D01*
X86376890Y-77012733D01*
X86261059Y-76796029D01*
X86261058Y-76796027D01*
X86172427Y-76503854D01*
X86150000Y-76276142D01*
X86150000Y-75523859D01*
X86172427Y-75296147D01*
X86261058Y-75003974D01*
X86297264Y-74936238D01*
X86404987Y-74734701D01*
X86404988Y-74734699D01*
X86598682Y-74498682D01*
X86834699Y-74304988D01*
X86834698Y-74304988D01*
X86834700Y-74304987D01*
X87103971Y-74161059D01*
X87103973Y-74161058D01*
X87396146Y-74072427D01*
X87700000Y-74042501D01*
X88003853Y-74072427D01*
X88003853Y-74072427D01*
G37*
G36*
X62803853Y-74072427D02*
X63096026Y-74161058D01*
X63365301Y-74304988D01*
X63557514Y-74462733D01*
X63601318Y-74498682D01*
X63795013Y-74734700D01*
X63908082Y-74946238D01*
X63938942Y-75003973D01*
X64027573Y-75296146D01*
X64050000Y-75523858D01*
X64050000Y-76276141D01*
X64027573Y-76503848D01*
X64027572Y-76503851D01*
X64027572Y-76503852D01*
X63938941Y-76796029D01*
X63795013Y-77065300D01*
X63601318Y-77301318D01*
X63365300Y-77495013D01*
X63096029Y-77638941D01*
X63096027Y-77638942D01*
X62803854Y-77727573D01*
X62500000Y-77757499D01*
X62196147Y-77727573D01*
X61903974Y-77638942D01*
X61634699Y-77495012D01*
X61398682Y-77301318D01*
X61204988Y-77065301D01*
X61176890Y-77012733D01*
X61061059Y-76796029D01*
X61061058Y-76796027D01*
X60972427Y-76503854D01*
X60950000Y-76276142D01*
X60950000Y-75523859D01*
X60972427Y-75296147D01*
X61061058Y-75003974D01*
X61097264Y-74936238D01*
X61204987Y-74734701D01*
X61204988Y-74734699D01*
X61398682Y-74498682D01*
X61634699Y-74304988D01*
X61634698Y-74304988D01*
X61634700Y-74304987D01*
X61903971Y-74161059D01*
X61903973Y-74161058D01*
X62196146Y-74072427D01*
X62500000Y-74042501D01*
X62803853Y-74072427D01*
X62803853Y-74072427D01*
G37*
G36*
X58603853Y-74072427D02*
X58896026Y-74161058D01*
X59165301Y-74304988D01*
X59357514Y-74462733D01*
X59401318Y-74498682D01*
X59595013Y-74734700D01*
X59708082Y-74946238D01*
X59738942Y-75003973D01*
X59827573Y-75296146D01*
X59850000Y-75523858D01*
X59850000Y-76276141D01*
X59827573Y-76503848D01*
X59827572Y-76503851D01*
X59827572Y-76503852D01*
X59738941Y-76796029D01*
X59595013Y-77065300D01*
X59401318Y-77301318D01*
X59165300Y-77495013D01*
X58896029Y-77638941D01*
X58896027Y-77638942D01*
X58603854Y-77727573D01*
X58300000Y-77757499D01*
X57996147Y-77727573D01*
X57703974Y-77638942D01*
X57434699Y-77495012D01*
X57198682Y-77301318D01*
X57004988Y-77065301D01*
X56976890Y-77012733D01*
X56861059Y-76796029D01*
X56861058Y-76796027D01*
X56772427Y-76503854D01*
X56750000Y-76276142D01*
X56750000Y-75523859D01*
X56772427Y-75296147D01*
X56861058Y-75003974D01*
X56897264Y-74936238D01*
X57004987Y-74734701D01*
X57004988Y-74734699D01*
X57198682Y-74498682D01*
X57434699Y-74304988D01*
X57434698Y-74304988D01*
X57434700Y-74304987D01*
X57703971Y-74161059D01*
X57703973Y-74161058D01*
X57996146Y-74072427D01*
X58300000Y-74042501D01*
X58603853Y-74072427D01*
X58603853Y-74072427D01*
G37*
G36*
X100603853Y-74072427D02*
X100896026Y-74161058D01*
X101165301Y-74304988D01*
X101357514Y-74462733D01*
X101401318Y-74498682D01*
X101595013Y-74734700D01*
X101708082Y-74946238D01*
X101738942Y-75003973D01*
X101827573Y-75296146D01*
X101850000Y-75523858D01*
X101850000Y-76276141D01*
X101827573Y-76503848D01*
X101827572Y-76503851D01*
X101827572Y-76503852D01*
X101738941Y-76796029D01*
X101595013Y-77065300D01*
X101401318Y-77301318D01*
X101165300Y-77495013D01*
X100896029Y-77638941D01*
X100896027Y-77638942D01*
X100603854Y-77727573D01*
X100300000Y-77757499D01*
X99996147Y-77727573D01*
X99703974Y-77638942D01*
X99434699Y-77495012D01*
X99198682Y-77301318D01*
X99004988Y-77065301D01*
X98976890Y-77012733D01*
X98861059Y-76796029D01*
X98861058Y-76796027D01*
X98772427Y-76503854D01*
X98750000Y-76276142D01*
X98750000Y-75523859D01*
X98772427Y-75296147D01*
X98861058Y-75003974D01*
X98897264Y-74936238D01*
X99004987Y-74734701D01*
X99004988Y-74734699D01*
X99198682Y-74498682D01*
X99434699Y-74304988D01*
X99434698Y-74304988D01*
X99434700Y-74304987D01*
X99703971Y-74161059D01*
X99703973Y-74161058D01*
X99996146Y-74072427D01*
X100300000Y-74042501D01*
X100603853Y-74072427D01*
X100603853Y-74072427D01*
G37*
G36*
X96403853Y-74072427D02*
X96696026Y-74161058D01*
X96965301Y-74304988D01*
X97157514Y-74462733D01*
X97201318Y-74498682D01*
X97395013Y-74734700D01*
X97508082Y-74946238D01*
X97538942Y-75003973D01*
X97627573Y-75296146D01*
X97650000Y-75523858D01*
X97650000Y-76276141D01*
X97627573Y-76503848D01*
X97627572Y-76503851D01*
X97627572Y-76503852D01*
X97538941Y-76796029D01*
X97395013Y-77065300D01*
X97201318Y-77301318D01*
X96965300Y-77495013D01*
X96696029Y-77638941D01*
X96696027Y-77638942D01*
X96403854Y-77727573D01*
X96100000Y-77757499D01*
X95796147Y-77727573D01*
X95503974Y-77638942D01*
X95234699Y-77495012D01*
X94998682Y-77301318D01*
X94804988Y-77065301D01*
X94776890Y-77012733D01*
X94661059Y-76796029D01*
X94661058Y-76796027D01*
X94572427Y-76503854D01*
X94550000Y-76276142D01*
X94550000Y-75523859D01*
X94572427Y-75296147D01*
X94661058Y-75003974D01*
X94697264Y-74936238D01*
X94804987Y-74734701D01*
X94804988Y-74734699D01*
X94998682Y-74498682D01*
X95234699Y-74304988D01*
X95234698Y-74304988D01*
X95234700Y-74304987D01*
X95503971Y-74161059D01*
X95503973Y-74161058D01*
X95796146Y-74072427D01*
X96100000Y-74042501D01*
X96403853Y-74072427D01*
X96403853Y-74072427D01*
G37*
G36*
X92203853Y-74072427D02*
X92496026Y-74161058D01*
X92765301Y-74304988D01*
X92957514Y-74462733D01*
X93001318Y-74498682D01*
X93195013Y-74734700D01*
X93308082Y-74946238D01*
X93338942Y-75003973D01*
X93427573Y-75296146D01*
X93450000Y-75523858D01*
X93450000Y-76276141D01*
X93427573Y-76503848D01*
X93427572Y-76503851D01*
X93427572Y-76503852D01*
X93338941Y-76796029D01*
X93195013Y-77065300D01*
X93001318Y-77301318D01*
X92765300Y-77495013D01*
X92496029Y-77638941D01*
X92496027Y-77638942D01*
X92203854Y-77727573D01*
X91900000Y-77757499D01*
X91596147Y-77727573D01*
X91303974Y-77638942D01*
X91034699Y-77495012D01*
X90798682Y-77301318D01*
X90604988Y-77065301D01*
X90576890Y-77012733D01*
X90461059Y-76796029D01*
X90461058Y-76796027D01*
X90372427Y-76503854D01*
X90350000Y-76276142D01*
X90350000Y-75523859D01*
X90372427Y-75296147D01*
X90461058Y-75003974D01*
X90497264Y-74936238D01*
X90604987Y-74734701D01*
X90604988Y-74734699D01*
X90798682Y-74498682D01*
X91034699Y-74304988D01*
X91034698Y-74304988D01*
X91034700Y-74304987D01*
X91303971Y-74161059D01*
X91303973Y-74161058D01*
X91596146Y-74072427D01*
X91900000Y-74042501D01*
X92203853Y-74072427D01*
X92203853Y-74072427D01*
G37*
G36*
X104803853Y-74072427D02*
X105096026Y-74161058D01*
X105365301Y-74304988D01*
X105557514Y-74462733D01*
X105601318Y-74498682D01*
X105795013Y-74734700D01*
X105908082Y-74946238D01*
X105938942Y-75003973D01*
X106027573Y-75296146D01*
X106050000Y-75523858D01*
X106050000Y-76276141D01*
X106027573Y-76503848D01*
X106027572Y-76503851D01*
X106027572Y-76503852D01*
X105938941Y-76796029D01*
X105795013Y-77065300D01*
X105601318Y-77301318D01*
X105365300Y-77495013D01*
X105096029Y-77638941D01*
X105096027Y-77638942D01*
X104803854Y-77727573D01*
X104500000Y-77757499D01*
X104196147Y-77727573D01*
X103903974Y-77638942D01*
X103634699Y-77495012D01*
X103398682Y-77301318D01*
X103204988Y-77065301D01*
X103176890Y-77012733D01*
X103061059Y-76796029D01*
X103061058Y-76796027D01*
X102972427Y-76503854D01*
X102950000Y-76276142D01*
X102950000Y-75523859D01*
X102972427Y-75296147D01*
X103061058Y-75003974D01*
X103097264Y-74936238D01*
X103204987Y-74734701D01*
X103204988Y-74734699D01*
X103398682Y-74498682D01*
X103634699Y-74304988D01*
X103634698Y-74304988D01*
X103634700Y-74304987D01*
X103903971Y-74161059D01*
X103903973Y-74161058D01*
X104196146Y-74072427D01*
X104500000Y-74042501D01*
X104803853Y-74072427D01*
X104803853Y-74072427D01*
G37*
G36*
X112004304Y-74305193D02*
X112105836Y-74315193D01*
X112237787Y-74355220D01*
X112303763Y-74375233D01*
X112486172Y-74472733D01*
X112646054Y-74603946D01*
X112777267Y-74763828D01*
X112874767Y-74946237D01*
X112874767Y-74946238D01*
X112934807Y-75144164D01*
X112955080Y-75350000D01*
X112934807Y-75555836D01*
X112894780Y-75687787D01*
X112874767Y-75753763D01*
X112777267Y-75936172D01*
X112646054Y-76096054D01*
X112486172Y-76227267D01*
X112303763Y-76324767D01*
X112237787Y-76344780D01*
X112105836Y-76384807D01*
X112053110Y-76390000D01*
X111951580Y-76400000D01*
X111848420Y-76400000D01*
X111746890Y-76390000D01*
X111694164Y-76384807D01*
X111562213Y-76344780D01*
X111496237Y-76324767D01*
X111313828Y-76227267D01*
X111153946Y-76096054D01*
X111022733Y-75936172D01*
X110925233Y-75753763D01*
X110905220Y-75687787D01*
X110865193Y-75555836D01*
X110844920Y-75350000D01*
X110865193Y-75144164D01*
X110925233Y-74946238D01*
X110925233Y-74946237D01*
X111022733Y-74763828D01*
X111153946Y-74603946D01*
X111313828Y-74472733D01*
X111496237Y-74375233D01*
X111562213Y-74355220D01*
X111694164Y-74315193D01*
X111795696Y-74305193D01*
X111848420Y-74300000D01*
X111951580Y-74300000D01*
X112004304Y-74305193D01*
X112004304Y-74305193D01*
G37*
G36*
X116678707Y-74297596D02*
X116755836Y-74305193D01*
X116887787Y-74345220D01*
X116953763Y-74365233D01*
X117136172Y-74462733D01*
X117296054Y-74593946D01*
X117427267Y-74753828D01*
X117524767Y-74936237D01*
X117544780Y-75002213D01*
X117584807Y-75134164D01*
X117605080Y-75340000D01*
X117584807Y-75545836D01*
X117544780Y-75677787D01*
X117524767Y-75743763D01*
X117427267Y-75926172D01*
X117296054Y-76086054D01*
X117136172Y-76217267D01*
X116953763Y-76314767D01*
X116887787Y-76334780D01*
X116755836Y-76374807D01*
X116678707Y-76382404D01*
X116601580Y-76390000D01*
X116498420Y-76390000D01*
X116421293Y-76382404D01*
X116344164Y-76374807D01*
X116212213Y-76334780D01*
X116146237Y-76314767D01*
X115963828Y-76217267D01*
X115803946Y-76086054D01*
X115672733Y-75926172D01*
X115575233Y-75743763D01*
X115555220Y-75677787D01*
X115515193Y-75545836D01*
X115494920Y-75340000D01*
X115515193Y-75134164D01*
X115555220Y-75002213D01*
X115575233Y-74936237D01*
X115672733Y-74753828D01*
X115803946Y-74593946D01*
X115963828Y-74462733D01*
X116146237Y-74365233D01*
X116212213Y-74345220D01*
X116344164Y-74305193D01*
X116421293Y-74297596D01*
X116498420Y-74290000D01*
X116601580Y-74290000D01*
X116678707Y-74297596D01*
X116678707Y-74297596D01*
G37*
G36*
X112950000Y-73860000D02*
X110850000Y-73860000D01*
X110850000Y-71760000D01*
X112950000Y-71760000D01*
X112950000Y-73860000D01*
X112950000Y-73860000D01*
G37*
G36*
X117600000Y-73850000D02*
X115500000Y-73850000D01*
X115500000Y-71750000D01*
X117600000Y-71750000D01*
X117600000Y-73850000D01*
X117600000Y-73850000D01*
G37*
G36*
X104803853Y-68572427D02*
X105096026Y-68661058D01*
X105365301Y-68804988D01*
X105601318Y-68998682D01*
X105795013Y-69234700D01*
X105938941Y-69503971D01*
X105938942Y-69503973D01*
X106027573Y-69796146D01*
X106050000Y-70023858D01*
X106050000Y-70776141D01*
X106027573Y-71003848D01*
X106027572Y-71003851D01*
X106027572Y-71003852D01*
X105938941Y-71296029D01*
X105795013Y-71565300D01*
X105601318Y-71801318D01*
X105365300Y-71995013D01*
X105246198Y-72058674D01*
X105096027Y-72138942D01*
X104803854Y-72227573D01*
X104500000Y-72257499D01*
X104196147Y-72227573D01*
X103903974Y-72138942D01*
X103634699Y-71995012D01*
X103398682Y-71801318D01*
X103204988Y-71565301D01*
X103061058Y-71296027D01*
X102972427Y-71003854D01*
X102950000Y-70776142D01*
X102950000Y-70023859D01*
X102972427Y-69796147D01*
X103061058Y-69503974D01*
X103204988Y-69234699D01*
X103398682Y-68998682D01*
X103634699Y-68804988D01*
X103634698Y-68804988D01*
X103634700Y-68804987D01*
X103903971Y-68661059D01*
X103903973Y-68661058D01*
X104196146Y-68572427D01*
X104500000Y-68542501D01*
X104803853Y-68572427D01*
X104803853Y-68572427D01*
G37*
G36*
X100603853Y-68572427D02*
X100896026Y-68661058D01*
X101165301Y-68804988D01*
X101401318Y-68998682D01*
X101595013Y-69234700D01*
X101738941Y-69503971D01*
X101738942Y-69503973D01*
X101827573Y-69796146D01*
X101850000Y-70023858D01*
X101850000Y-70776141D01*
X101827573Y-71003848D01*
X101827572Y-71003851D01*
X101827572Y-71003852D01*
X101738941Y-71296029D01*
X101595013Y-71565300D01*
X101401318Y-71801318D01*
X101165300Y-71995013D01*
X101046198Y-72058674D01*
X100896027Y-72138942D01*
X100603854Y-72227573D01*
X100300000Y-72257499D01*
X99996147Y-72227573D01*
X99703974Y-72138942D01*
X99434699Y-71995012D01*
X99198682Y-71801318D01*
X99004988Y-71565301D01*
X98861058Y-71296027D01*
X98772427Y-71003854D01*
X98750000Y-70776142D01*
X98750000Y-70023859D01*
X98772427Y-69796147D01*
X98861058Y-69503974D01*
X99004988Y-69234699D01*
X99198682Y-68998682D01*
X99434699Y-68804988D01*
X99434698Y-68804988D01*
X99434700Y-68804987D01*
X99703971Y-68661059D01*
X99703973Y-68661058D01*
X99996146Y-68572427D01*
X100300000Y-68542501D01*
X100603853Y-68572427D01*
X100603853Y-68572427D01*
G37*
G36*
X96403853Y-68572427D02*
X96696026Y-68661058D01*
X96965301Y-68804988D01*
X97201318Y-68998682D01*
X97395013Y-69234700D01*
X97538941Y-69503971D01*
X97538942Y-69503973D01*
X97627573Y-69796146D01*
X97650000Y-70023858D01*
X97650000Y-70776141D01*
X97627573Y-71003848D01*
X97627572Y-71003851D01*
X97627572Y-71003852D01*
X97538941Y-71296029D01*
X97395013Y-71565300D01*
X97201318Y-71801318D01*
X96965300Y-71995013D01*
X96846198Y-72058674D01*
X96696027Y-72138942D01*
X96403854Y-72227573D01*
X96100000Y-72257499D01*
X95796147Y-72227573D01*
X95503974Y-72138942D01*
X95234699Y-71995012D01*
X94998682Y-71801318D01*
X94804988Y-71565301D01*
X94661058Y-71296027D01*
X94572427Y-71003854D01*
X94550000Y-70776142D01*
X94550000Y-70023859D01*
X94572427Y-69796147D01*
X94661058Y-69503974D01*
X94804988Y-69234699D01*
X94998682Y-68998682D01*
X95234699Y-68804988D01*
X95234698Y-68804988D01*
X95234700Y-68804987D01*
X95503971Y-68661059D01*
X95503973Y-68661058D01*
X95796146Y-68572427D01*
X96100000Y-68542501D01*
X96403853Y-68572427D01*
X96403853Y-68572427D01*
G37*
G36*
X62803853Y-68572427D02*
X63096026Y-68661058D01*
X63365301Y-68804988D01*
X63601318Y-68998682D01*
X63795013Y-69234700D01*
X63938941Y-69503971D01*
X63938942Y-69503973D01*
X64027573Y-69796146D01*
X64050000Y-70023858D01*
X64050000Y-70776141D01*
X64027573Y-71003848D01*
X64027572Y-71003851D01*
X64027572Y-71003852D01*
X63938941Y-71296029D01*
X63795013Y-71565300D01*
X63601318Y-71801318D01*
X63365300Y-71995013D01*
X63246198Y-72058674D01*
X63096027Y-72138942D01*
X62803854Y-72227573D01*
X62500000Y-72257499D01*
X62196147Y-72227573D01*
X61903974Y-72138942D01*
X61634699Y-71995012D01*
X61398682Y-71801318D01*
X61204988Y-71565301D01*
X61061058Y-71296027D01*
X60972427Y-71003854D01*
X60950000Y-70776142D01*
X60950000Y-70023859D01*
X60972427Y-69796147D01*
X61061058Y-69503974D01*
X61204988Y-69234699D01*
X61398682Y-68998682D01*
X61634699Y-68804988D01*
X61634698Y-68804988D01*
X61634700Y-68804987D01*
X61903971Y-68661059D01*
X61903973Y-68661058D01*
X62196146Y-68572427D01*
X62500000Y-68542501D01*
X62803853Y-68572427D01*
X62803853Y-68572427D01*
G37*
G36*
X67003853Y-68572427D02*
X67296026Y-68661058D01*
X67565301Y-68804988D01*
X67801318Y-68998682D01*
X67995013Y-69234700D01*
X68138941Y-69503971D01*
X68138942Y-69503973D01*
X68227573Y-69796146D01*
X68250000Y-70023858D01*
X68250000Y-70776141D01*
X68227573Y-71003848D01*
X68227572Y-71003851D01*
X68227572Y-71003852D01*
X68138941Y-71296029D01*
X67995013Y-71565300D01*
X67801318Y-71801318D01*
X67565300Y-71995013D01*
X67446198Y-72058674D01*
X67296027Y-72138942D01*
X67003854Y-72227573D01*
X66700000Y-72257499D01*
X66396147Y-72227573D01*
X66103974Y-72138942D01*
X65834699Y-71995012D01*
X65598682Y-71801318D01*
X65404988Y-71565301D01*
X65261058Y-71296027D01*
X65172427Y-71003854D01*
X65150000Y-70776142D01*
X65150000Y-70023859D01*
X65172427Y-69796147D01*
X65261058Y-69503974D01*
X65404988Y-69234699D01*
X65598682Y-68998682D01*
X65834699Y-68804988D01*
X65834698Y-68804988D01*
X65834700Y-68804987D01*
X66103971Y-68661059D01*
X66103973Y-68661058D01*
X66396146Y-68572427D01*
X66700000Y-68542501D01*
X67003853Y-68572427D01*
X67003853Y-68572427D01*
G37*
G36*
X71203853Y-68572427D02*
X71496026Y-68661058D01*
X71765301Y-68804988D01*
X72001318Y-68998682D01*
X72195013Y-69234700D01*
X72338941Y-69503971D01*
X72338942Y-69503973D01*
X72427573Y-69796146D01*
X72450000Y-70023858D01*
X72450000Y-70776141D01*
X72427573Y-71003848D01*
X72427572Y-71003851D01*
X72427572Y-71003852D01*
X72338941Y-71296029D01*
X72195013Y-71565300D01*
X72001318Y-71801318D01*
X71765300Y-71995013D01*
X71646198Y-72058674D01*
X71496027Y-72138942D01*
X71203854Y-72227573D01*
X70900000Y-72257499D01*
X70596147Y-72227573D01*
X70303974Y-72138942D01*
X70034699Y-71995012D01*
X69798682Y-71801318D01*
X69604988Y-71565301D01*
X69461058Y-71296027D01*
X69372427Y-71003854D01*
X69350000Y-70776142D01*
X69350000Y-70023859D01*
X69372427Y-69796147D01*
X69461058Y-69503974D01*
X69604988Y-69234699D01*
X69798682Y-68998682D01*
X70034699Y-68804988D01*
X70034698Y-68804988D01*
X70034700Y-68804987D01*
X70303971Y-68661059D01*
X70303973Y-68661058D01*
X70596146Y-68572427D01*
X70900000Y-68542501D01*
X71203853Y-68572427D01*
X71203853Y-68572427D01*
G37*
G36*
X88003853Y-68572427D02*
X88296026Y-68661058D01*
X88565301Y-68804988D01*
X88801318Y-68998682D01*
X88995013Y-69234700D01*
X89138941Y-69503971D01*
X89138942Y-69503973D01*
X89227573Y-69796146D01*
X89250000Y-70023858D01*
X89250000Y-70776141D01*
X89227573Y-71003848D01*
X89227572Y-71003851D01*
X89227572Y-71003852D01*
X89138941Y-71296029D01*
X88995013Y-71565300D01*
X88801318Y-71801318D01*
X88565300Y-71995013D01*
X88446198Y-72058674D01*
X88296027Y-72138942D01*
X88003854Y-72227573D01*
X87700000Y-72257499D01*
X87396147Y-72227573D01*
X87103974Y-72138942D01*
X86834699Y-71995012D01*
X86598682Y-71801318D01*
X86404988Y-71565301D01*
X86261058Y-71296027D01*
X86172427Y-71003854D01*
X86150000Y-70776142D01*
X86150000Y-70023859D01*
X86172427Y-69796147D01*
X86261058Y-69503974D01*
X86404988Y-69234699D01*
X86598682Y-68998682D01*
X86834699Y-68804988D01*
X86834698Y-68804988D01*
X86834700Y-68804987D01*
X87103971Y-68661059D01*
X87103973Y-68661058D01*
X87396146Y-68572427D01*
X87700000Y-68542501D01*
X88003853Y-68572427D01*
X88003853Y-68572427D01*
G37*
G36*
X83803853Y-68572427D02*
X84096026Y-68661058D01*
X84365301Y-68804988D01*
X84601318Y-68998682D01*
X84795013Y-69234700D01*
X84938941Y-69503971D01*
X84938942Y-69503973D01*
X85027573Y-69796146D01*
X85050000Y-70023858D01*
X85050000Y-70776141D01*
X85027573Y-71003848D01*
X85027572Y-71003851D01*
X85027572Y-71003852D01*
X84938941Y-71296029D01*
X84795013Y-71565300D01*
X84601318Y-71801318D01*
X84365300Y-71995013D01*
X84246198Y-72058674D01*
X84096027Y-72138942D01*
X83803854Y-72227573D01*
X83500000Y-72257499D01*
X83196147Y-72227573D01*
X82903974Y-72138942D01*
X82634699Y-71995012D01*
X82398682Y-71801318D01*
X82204988Y-71565301D01*
X82061058Y-71296027D01*
X81972427Y-71003854D01*
X81950000Y-70776142D01*
X81950000Y-70023859D01*
X81972427Y-69796147D01*
X82061058Y-69503974D01*
X82204988Y-69234699D01*
X82398682Y-68998682D01*
X82634699Y-68804988D01*
X82634698Y-68804988D01*
X82634700Y-68804987D01*
X82903971Y-68661059D01*
X82903973Y-68661058D01*
X83196146Y-68572427D01*
X83500000Y-68542501D01*
X83803853Y-68572427D01*
X83803853Y-68572427D01*
G37*
G36*
X79603853Y-68572427D02*
X79896026Y-68661058D01*
X80165301Y-68804988D01*
X80401318Y-68998682D01*
X80595013Y-69234700D01*
X80738941Y-69503971D01*
X80738942Y-69503973D01*
X80827573Y-69796146D01*
X80850000Y-70023858D01*
X80850000Y-70776141D01*
X80827573Y-71003848D01*
X80827572Y-71003851D01*
X80827572Y-71003852D01*
X80738941Y-71296029D01*
X80595013Y-71565300D01*
X80401318Y-71801318D01*
X80165300Y-71995013D01*
X80046198Y-72058674D01*
X79896027Y-72138942D01*
X79603854Y-72227573D01*
X79300000Y-72257499D01*
X78996147Y-72227573D01*
X78703974Y-72138942D01*
X78434699Y-71995012D01*
X78198682Y-71801318D01*
X78004988Y-71565301D01*
X77861058Y-71296027D01*
X77772427Y-71003854D01*
X77750000Y-70776142D01*
X77750000Y-70023859D01*
X77772427Y-69796147D01*
X77861058Y-69503974D01*
X78004988Y-69234699D01*
X78198682Y-68998682D01*
X78434699Y-68804988D01*
X78434698Y-68804988D01*
X78434700Y-68804987D01*
X78703971Y-68661059D01*
X78703973Y-68661058D01*
X78996146Y-68572427D01*
X79300000Y-68542501D01*
X79603853Y-68572427D01*
X79603853Y-68572427D01*
G37*
G36*
X75403853Y-68572427D02*
X75696026Y-68661058D01*
X75965301Y-68804988D01*
X76201318Y-68998682D01*
X76395013Y-69234700D01*
X76538941Y-69503971D01*
X76538942Y-69503973D01*
X76627573Y-69796146D01*
X76650000Y-70023858D01*
X76650000Y-70776141D01*
X76627573Y-71003848D01*
X76627572Y-71003851D01*
X76627572Y-71003852D01*
X76538941Y-71296029D01*
X76395013Y-71565300D01*
X76201318Y-71801318D01*
X75965300Y-71995013D01*
X75846198Y-72058674D01*
X75696027Y-72138942D01*
X75403854Y-72227573D01*
X75100000Y-72257499D01*
X74796147Y-72227573D01*
X74503974Y-72138942D01*
X74234699Y-71995012D01*
X73998682Y-71801318D01*
X73804988Y-71565301D01*
X73661058Y-71296027D01*
X73572427Y-71003854D01*
X73550000Y-70776142D01*
X73550000Y-70023859D01*
X73572427Y-69796147D01*
X73661058Y-69503974D01*
X73804988Y-69234699D01*
X73998682Y-68998682D01*
X74234699Y-68804988D01*
X74234698Y-68804988D01*
X74234700Y-68804987D01*
X74503971Y-68661059D01*
X74503973Y-68661058D01*
X74796146Y-68572427D01*
X75100000Y-68542501D01*
X75403853Y-68572427D01*
X75403853Y-68572427D01*
G37*
G36*
X92203853Y-68572427D02*
X92496026Y-68661058D01*
X92765301Y-68804988D01*
X93001318Y-68998682D01*
X93195013Y-69234700D01*
X93338941Y-69503971D01*
X93338942Y-69503973D01*
X93427573Y-69796146D01*
X93450000Y-70023858D01*
X93450000Y-70776141D01*
X93427573Y-71003848D01*
X93427572Y-71003851D01*
X93427572Y-71003852D01*
X93338941Y-71296029D01*
X93195013Y-71565300D01*
X93001318Y-71801318D01*
X92765300Y-71995013D01*
X92646198Y-72058674D01*
X92496027Y-72138942D01*
X92203854Y-72227573D01*
X91900000Y-72257499D01*
X91596147Y-72227573D01*
X91303974Y-72138942D01*
X91034699Y-71995012D01*
X90798682Y-71801318D01*
X90604988Y-71565301D01*
X90461058Y-71296027D01*
X90372427Y-71003854D01*
X90350000Y-70776142D01*
X90350000Y-70023859D01*
X90372427Y-69796147D01*
X90461058Y-69503974D01*
X90604988Y-69234699D01*
X90798682Y-68998682D01*
X91034699Y-68804988D01*
X91034698Y-68804988D01*
X91034700Y-68804987D01*
X91303971Y-68661059D01*
X91303973Y-68661058D01*
X91596146Y-68572427D01*
X91900000Y-68542501D01*
X92203853Y-68572427D01*
X92203853Y-68572427D01*
G37*
G36*
X59700823Y-68554151D02*
X59735451Y-68564656D01*
X59767362Y-68581712D01*
X59795333Y-68604667D01*
X59818288Y-68632638D01*
X59835344Y-68664549D01*
X59845849Y-68699177D01*
X59850000Y-68741326D01*
X59850000Y-72058674D01*
X59845849Y-72100823D01*
X59835344Y-72135451D01*
X59818288Y-72167362D01*
X59795333Y-72195333D01*
X59767362Y-72218288D01*
X59735451Y-72235344D01*
X59700823Y-72245849D01*
X59658674Y-72250000D01*
X56941326Y-72250000D01*
X56899177Y-72245849D01*
X56864549Y-72235344D01*
X56832638Y-72218288D01*
X56804667Y-72195333D01*
X56781712Y-72167362D01*
X56764656Y-72135451D01*
X56754151Y-72100823D01*
X56750000Y-72058674D01*
X56750000Y-68741326D01*
X56754151Y-68699177D01*
X56764656Y-68664549D01*
X56781712Y-68632638D01*
X56804667Y-68604667D01*
X56832638Y-68581712D01*
X56864549Y-68564656D01*
X56899177Y-68554151D01*
X56941326Y-68550000D01*
X59658674Y-68550000D01*
X59700823Y-68554151D01*
X59700823Y-68554151D01*
G37*
G36*
X64676393Y-63713553D02*
X64785872Y-63735330D01*
X65095252Y-63863479D01*
X65373687Y-64049523D01*
X65610477Y-64286313D01*
X65796521Y-64564748D01*
X65924670Y-64874128D01*
X65938972Y-64946029D01*
X65990000Y-65202563D01*
X65990000Y-65537437D01*
X65946447Y-65756393D01*
X65924670Y-65865872D01*
X65796521Y-66175252D01*
X65610477Y-66453687D01*
X65373687Y-66690477D01*
X65095252Y-66876521D01*
X64785872Y-67004670D01*
X64676393Y-67026447D01*
X64457437Y-67070000D01*
X64122563Y-67070000D01*
X63903607Y-67026447D01*
X63794128Y-67004670D01*
X63484748Y-66876521D01*
X63206313Y-66690477D01*
X62969523Y-66453687D01*
X62783479Y-66175252D01*
X62655330Y-65865872D01*
X62633553Y-65756393D01*
X62590000Y-65537437D01*
X62590000Y-65202563D01*
X62641028Y-64946029D01*
X62655330Y-64874128D01*
X62783479Y-64564748D01*
X62969523Y-64286313D01*
X63206313Y-64049523D01*
X63484748Y-63863479D01*
X63794128Y-63735330D01*
X63903607Y-63713553D01*
X64122563Y-63670000D01*
X64457437Y-63670000D01*
X64676393Y-63713553D01*
X64676393Y-63713553D01*
G37*
G36*
X100053854Y-62822427D02*
X100346027Y-62911058D01*
X100346029Y-62911059D01*
X100615300Y-63054987D01*
X100851318Y-63248682D01*
X101045013Y-63484700D01*
X101167986Y-63714767D01*
X101188942Y-63753973D01*
X101277573Y-64046146D01*
X101307499Y-64350000D01*
X101277573Y-64653854D01*
X101210752Y-64874129D01*
X101188941Y-64946029D01*
X101045013Y-65215300D01*
X100851318Y-65451318D01*
X100615300Y-65645013D01*
X100346029Y-65788941D01*
X100346027Y-65788942D01*
X100053854Y-65877573D01*
X99826142Y-65900000D01*
X99073858Y-65900000D01*
X98846146Y-65877573D01*
X98553973Y-65788942D01*
X98553971Y-65788941D01*
X98284700Y-65645013D01*
X98048682Y-65451318D01*
X97854987Y-65215300D01*
X97711059Y-64946029D01*
X97689248Y-64874129D01*
X97622427Y-64653854D01*
X97592501Y-64350000D01*
X97622427Y-64046146D01*
X97711058Y-63753973D01*
X97732014Y-63714767D01*
X97854987Y-63484700D01*
X98048682Y-63248682D01*
X98284700Y-63054987D01*
X98553971Y-62911059D01*
X98553973Y-62911058D01*
X98846146Y-62822427D01*
X99073858Y-62800000D01*
X99826142Y-62800000D01*
X100053854Y-62822427D01*
X100053854Y-62822427D01*
G37*
G36*
X105553854Y-62822427D02*
X105846027Y-62911058D01*
X105846029Y-62911059D01*
X106115300Y-63054987D01*
X106351318Y-63248682D01*
X106545013Y-63484700D01*
X106667986Y-63714767D01*
X106688942Y-63753973D01*
X106777573Y-64046146D01*
X106807499Y-64350000D01*
X106777573Y-64653854D01*
X106710752Y-64874129D01*
X106688941Y-64946029D01*
X106545013Y-65215300D01*
X106351318Y-65451318D01*
X106115300Y-65645013D01*
X105846029Y-65788941D01*
X105846027Y-65788942D01*
X105553854Y-65877573D01*
X105326142Y-65900000D01*
X104573858Y-65900000D01*
X104346146Y-65877573D01*
X104053973Y-65788942D01*
X104053971Y-65788941D01*
X103784700Y-65645013D01*
X103548682Y-65451318D01*
X103354987Y-65215300D01*
X103211059Y-64946029D01*
X103189248Y-64874129D01*
X103122427Y-64653854D01*
X103092501Y-64350000D01*
X103122427Y-64046146D01*
X103211058Y-63753973D01*
X103232014Y-63714767D01*
X103354987Y-63484700D01*
X103548682Y-63248682D01*
X103784700Y-63054987D01*
X104053971Y-62911059D01*
X104053973Y-62911058D01*
X104346146Y-62822427D01*
X104573858Y-62800000D01*
X105326142Y-62800000D01*
X105553854Y-62822427D01*
X105553854Y-62822427D01*
G37*
G36*
X83128707Y-61697597D02*
X83205836Y-61705193D01*
X83337787Y-61745220D01*
X83403763Y-61765233D01*
X83586172Y-61862733D01*
X83746054Y-61993946D01*
X83877267Y-62153828D01*
X83974767Y-62336237D01*
X83974767Y-62336238D01*
X84034807Y-62534164D01*
X84055080Y-62740000D01*
X84034807Y-62945836D01*
X84001696Y-63054988D01*
X83974767Y-63143763D01*
X83877267Y-63326172D01*
X83746054Y-63486054D01*
X83586172Y-63617267D01*
X83403763Y-63714767D01*
X83337787Y-63734780D01*
X83205836Y-63774807D01*
X83128707Y-63782404D01*
X83051580Y-63790000D01*
X82948420Y-63790000D01*
X82871293Y-63782404D01*
X82794164Y-63774807D01*
X82662213Y-63734780D01*
X82596237Y-63714767D01*
X82413828Y-63617267D01*
X82253946Y-63486054D01*
X82122733Y-63326172D01*
X82025233Y-63143763D01*
X81998304Y-63054988D01*
X81965193Y-62945836D01*
X81944920Y-62740000D01*
X81965193Y-62534164D01*
X82025233Y-62336238D01*
X82025233Y-62336237D01*
X82122733Y-62153828D01*
X82253946Y-61993946D01*
X82413828Y-61862733D01*
X82596237Y-61765233D01*
X82662213Y-61745220D01*
X82794164Y-61705193D01*
X82871293Y-61697597D01*
X82948420Y-61690000D01*
X83051580Y-61690000D01*
X83128707Y-61697597D01*
X83128707Y-61697597D01*
G37*
G36*
X67139452Y-61359127D02*
X67277105Y-61386508D01*
X67449994Y-61458121D01*
X67605590Y-61562087D01*
X67737913Y-61694410D01*
X67841879Y-61850006D01*
X67913492Y-62022895D01*
X67950000Y-62206433D01*
X67950000Y-62393567D01*
X67913492Y-62577105D01*
X67841879Y-62749994D01*
X67737913Y-62905590D01*
X67605590Y-63037913D01*
X67449994Y-63141879D01*
X67277105Y-63213492D01*
X67139452Y-63240873D01*
X67093568Y-63250000D01*
X66906432Y-63250000D01*
X66860548Y-63240873D01*
X66722895Y-63213492D01*
X66550006Y-63141879D01*
X66394410Y-63037913D01*
X66262087Y-62905590D01*
X66158121Y-62749994D01*
X66086508Y-62577105D01*
X66050000Y-62393567D01*
X66050000Y-62206433D01*
X66086508Y-62022895D01*
X66158121Y-61850006D01*
X66262087Y-61694410D01*
X66394410Y-61562087D01*
X66550006Y-61458121D01*
X66722895Y-61386508D01*
X66860548Y-61359127D01*
X66906432Y-61350000D01*
X67093568Y-61350000D01*
X67139452Y-61359127D01*
X67139452Y-61359127D01*
G37*
G36*
X100053854Y-58622427D02*
X100346027Y-58711058D01*
X100346029Y-58711059D01*
X100615300Y-58854987D01*
X100851318Y-59048682D01*
X101045013Y-59284700D01*
X101172332Y-59522898D01*
X101188942Y-59553973D01*
X101277573Y-59846146D01*
X101307499Y-60150000D01*
X101277573Y-60453854D01*
X101188942Y-60746027D01*
X101188941Y-60746029D01*
X101045013Y-61015300D01*
X100851318Y-61251318D01*
X100615300Y-61445013D01*
X100376915Y-61572432D01*
X100346027Y-61588942D01*
X100053854Y-61677573D01*
X99826142Y-61700000D01*
X99073858Y-61700000D01*
X98846146Y-61677573D01*
X98553973Y-61588942D01*
X98523085Y-61572432D01*
X98284700Y-61445013D01*
X98048682Y-61251318D01*
X97854987Y-61015300D01*
X97711059Y-60746029D01*
X97711058Y-60746027D01*
X97622427Y-60453854D01*
X97592501Y-60150000D01*
X97622427Y-59846146D01*
X97711058Y-59553973D01*
X97727668Y-59522898D01*
X97854987Y-59284700D01*
X98048682Y-59048682D01*
X98284700Y-58854987D01*
X98553971Y-58711059D01*
X98553973Y-58711058D01*
X98846146Y-58622427D01*
X99073858Y-58600000D01*
X99826142Y-58600000D01*
X100053854Y-58622427D01*
X100053854Y-58622427D01*
G37*
G36*
X106650823Y-58604151D02*
X106685451Y-58614656D01*
X106717362Y-58631712D01*
X106745333Y-58654667D01*
X106768288Y-58682638D01*
X106785344Y-58714549D01*
X106795849Y-58749177D01*
X106800000Y-58791326D01*
X106800000Y-61508674D01*
X106795849Y-61550823D01*
X106785344Y-61585451D01*
X106768288Y-61617362D01*
X106745333Y-61645333D01*
X106717362Y-61668288D01*
X106685451Y-61685344D01*
X106650823Y-61695849D01*
X106608674Y-61700000D01*
X103291326Y-61700000D01*
X103249177Y-61695849D01*
X103214549Y-61685344D01*
X103182638Y-61668288D01*
X103154667Y-61645333D01*
X103131712Y-61617362D01*
X103114656Y-61585451D01*
X103104151Y-61550823D01*
X103100000Y-61508674D01*
X103100000Y-58791326D01*
X103104151Y-58749177D01*
X103114656Y-58714549D01*
X103131712Y-58682638D01*
X103154667Y-58654667D01*
X103182638Y-58631712D01*
X103214549Y-58614656D01*
X103249177Y-58604151D01*
X103291326Y-58600000D01*
X106608674Y-58600000D01*
X106650823Y-58604151D01*
X106650823Y-58604151D01*
G37*
G36*
X83128707Y-59157596D02*
X83205836Y-59165193D01*
X83337787Y-59205220D01*
X83403763Y-59225233D01*
X83586172Y-59322733D01*
X83746054Y-59453946D01*
X83877267Y-59613828D01*
X83974767Y-59796237D01*
X83974767Y-59796238D01*
X84034807Y-59994164D01*
X84055080Y-60200000D01*
X84034807Y-60405836D01*
X84020241Y-60453853D01*
X83974767Y-60603763D01*
X83877267Y-60786172D01*
X83746054Y-60946054D01*
X83586172Y-61077267D01*
X83403763Y-61174767D01*
X83337787Y-61194780D01*
X83205836Y-61234807D01*
X83128707Y-61242403D01*
X83051580Y-61250000D01*
X82948420Y-61250000D01*
X82871293Y-61242403D01*
X82794164Y-61234807D01*
X82662213Y-61194780D01*
X82596237Y-61174767D01*
X82413828Y-61077267D01*
X82253946Y-60946054D01*
X82122733Y-60786172D01*
X82025233Y-60603763D01*
X81979759Y-60453853D01*
X81965193Y-60405836D01*
X81944920Y-60200000D01*
X81965193Y-59994164D01*
X82025233Y-59796238D01*
X82025233Y-59796237D01*
X82122733Y-59613828D01*
X82253946Y-59453946D01*
X82413828Y-59322733D01*
X82596237Y-59225233D01*
X82662213Y-59205220D01*
X82794164Y-59165193D01*
X82871293Y-59157596D01*
X82948420Y-59150000D01*
X83051580Y-59150000D01*
X83128707Y-59157596D01*
X83128707Y-59157596D01*
G37*
G36*
X114863866Y-58494556D02*
X114902449Y-58506260D01*
X114938002Y-58525263D01*
X114969163Y-58550837D01*
X114994737Y-58581998D01*
X115013740Y-58617551D01*
X115025444Y-58656134D01*
X115030000Y-58702390D01*
X115030000Y-60677610D01*
X115025444Y-60723866D01*
X115013740Y-60762449D01*
X114994737Y-60798002D01*
X114969163Y-60829163D01*
X114938002Y-60854737D01*
X114902449Y-60873740D01*
X114863866Y-60885444D01*
X114817610Y-60890000D01*
X111242390Y-60890000D01*
X111196134Y-60885444D01*
X111157551Y-60873740D01*
X111121998Y-60854737D01*
X111090837Y-60829163D01*
X111065263Y-60798002D01*
X111046260Y-60762449D01*
X111034556Y-60723866D01*
X111030000Y-60677610D01*
X111030000Y-58702390D01*
X111034556Y-58656134D01*
X111046260Y-58617551D01*
X111065263Y-58581998D01*
X111090837Y-58550837D01*
X111121998Y-58525263D01*
X111157551Y-58506260D01*
X111196134Y-58494556D01*
X111242390Y-58490000D01*
X114817610Y-58490000D01*
X114863866Y-58494556D01*
X114863866Y-58494556D01*
G37*
G36*
X67139451Y-56859127D02*
X67277105Y-56886508D01*
X67449994Y-56958121D01*
X67605590Y-57062087D01*
X67737913Y-57194410D01*
X67841879Y-57350006D01*
X67913492Y-57522895D01*
X67950000Y-57706433D01*
X67950000Y-57893567D01*
X67913492Y-58077105D01*
X67841879Y-58249994D01*
X67737913Y-58405590D01*
X67605590Y-58537913D01*
X67449994Y-58641879D01*
X67347054Y-58684518D01*
X67325449Y-58696067D01*
X67306507Y-58711612D01*
X67290962Y-58730554D01*
X67279411Y-58752165D01*
X67272298Y-58775614D01*
X67269896Y-58800000D01*
X67272298Y-58824387D01*
X67279411Y-58847836D01*
X67290963Y-58869447D01*
X67306508Y-58888389D01*
X67325450Y-58903934D01*
X67347054Y-58915482D01*
X67449994Y-58958121D01*
X67605590Y-59062087D01*
X67737913Y-59194410D01*
X67841879Y-59350006D01*
X67913492Y-59522895D01*
X67950000Y-59706433D01*
X67950000Y-59893567D01*
X67913492Y-60077105D01*
X67841879Y-60249994D01*
X67737913Y-60405590D01*
X67605590Y-60537913D01*
X67449994Y-60641879D01*
X67277105Y-60713492D01*
X67139452Y-60740873D01*
X67093568Y-60750000D01*
X66906432Y-60750000D01*
X66860548Y-60740873D01*
X66722895Y-60713492D01*
X66550006Y-60641879D01*
X66394410Y-60537913D01*
X66262087Y-60405590D01*
X66158121Y-60249994D01*
X66086508Y-60077105D01*
X66050000Y-59893567D01*
X66050000Y-59706433D01*
X66086508Y-59522895D01*
X66158121Y-59350006D01*
X66262087Y-59194410D01*
X66394410Y-59062087D01*
X66550006Y-58958121D01*
X66652946Y-58915482D01*
X66674551Y-58903933D01*
X66693493Y-58888388D01*
X66709038Y-58869446D01*
X66720589Y-58847835D01*
X66727702Y-58824386D01*
X66730104Y-58800000D01*
X66727702Y-58775613D01*
X66720589Y-58752164D01*
X66709037Y-58730553D01*
X66693492Y-58711611D01*
X66674550Y-58696066D01*
X66652946Y-58684518D01*
X66550006Y-58641879D01*
X66394410Y-58537913D01*
X66262087Y-58405590D01*
X66158121Y-58249994D01*
X66086508Y-58077105D01*
X66050000Y-57893567D01*
X66050000Y-57706433D01*
X66086508Y-57522895D01*
X66158121Y-57350006D01*
X66262087Y-57194410D01*
X66394410Y-57062087D01*
X66550006Y-56958121D01*
X66722895Y-56886508D01*
X66860549Y-56859127D01*
X66906432Y-56850000D01*
X67093568Y-56850000D01*
X67139451Y-56859127D01*
X67139451Y-56859127D01*
G37*
G36*
X84050000Y-58710000D02*
X81950000Y-58710000D01*
X81950000Y-56610000D01*
X84050000Y-56610000D01*
X84050000Y-58710000D01*
X84050000Y-58710000D01*
G37*
G36*
X67950000Y-56250000D02*
X66050000Y-56250000D01*
X66050000Y-54350000D01*
X67950000Y-54350000D01*
X67950000Y-56250000D01*
X67950000Y-56250000D01*
G37*
G36*
X113924208Y-53493473D02*
X114065241Y-53507363D01*
X114291442Y-53575981D01*
X114291444Y-53575982D01*
X114291447Y-53575983D01*
X114499910Y-53687408D01*
X114682634Y-53837366D01*
X114832592Y-54020090D01*
X114944017Y-54228553D01*
X114944018Y-54228556D01*
X114944019Y-54228558D01*
X115012637Y-54454759D01*
X115035806Y-54690000D01*
X115012637Y-54925241D01*
X114944019Y-55151442D01*
X114944017Y-55151447D01*
X114832592Y-55359910D01*
X114682634Y-55542634D01*
X114499910Y-55692592D01*
X114291447Y-55804017D01*
X114291444Y-55804018D01*
X114291442Y-55804019D01*
X114065241Y-55872637D01*
X113924208Y-55886527D01*
X113888951Y-55890000D01*
X112171049Y-55890000D01*
X112135792Y-55886527D01*
X111994759Y-55872637D01*
X111768558Y-55804019D01*
X111768556Y-55804018D01*
X111768553Y-55804017D01*
X111560090Y-55692592D01*
X111377366Y-55542634D01*
X111227408Y-55359910D01*
X111115983Y-55151447D01*
X111115981Y-55151442D01*
X111047363Y-54925241D01*
X111024194Y-54690000D01*
X111047363Y-54454759D01*
X111115981Y-54228558D01*
X111115982Y-54228556D01*
X111115983Y-54228553D01*
X111227408Y-54020090D01*
X111377366Y-53837366D01*
X111560090Y-53687408D01*
X111768553Y-53575983D01*
X111768556Y-53575982D01*
X111768558Y-53575981D01*
X111994759Y-53507363D01*
X112135792Y-53493473D01*
X112171049Y-53490000D01*
X113888951Y-53490000D01*
X113924208Y-53493473D01*
X113924208Y-53493473D01*
G37*
G36*
X64676393Y-50573553D02*
X64785872Y-50595330D01*
X65095252Y-50723479D01*
X65373687Y-50909523D01*
X65610477Y-51146313D01*
X65796521Y-51424748D01*
X65924670Y-51734128D01*
X65990000Y-52062565D01*
X65990000Y-52397435D01*
X65924670Y-52725872D01*
X65796521Y-53035252D01*
X65610477Y-53313687D01*
X65373687Y-53550477D01*
X65095252Y-53736521D01*
X64785872Y-53864670D01*
X64676393Y-53886447D01*
X64457437Y-53930000D01*
X64122563Y-53930000D01*
X63903607Y-53886447D01*
X63794128Y-53864670D01*
X63484748Y-53736521D01*
X63206313Y-53550477D01*
X62969523Y-53313687D01*
X62783479Y-53035252D01*
X62655330Y-52725872D01*
X62590000Y-52397435D01*
X62590000Y-52062565D01*
X62655330Y-51734128D01*
X62783479Y-51424748D01*
X62969523Y-51146313D01*
X63206313Y-50909523D01*
X63484748Y-50723479D01*
X63794128Y-50595330D01*
X63903607Y-50573553D01*
X64122563Y-50530000D01*
X64457437Y-50530000D01*
X64676393Y-50573553D01*
X64676393Y-50573553D01*
G37*
G36*
X100335241Y-45317363D02*
X100561442Y-45385981D01*
X100561444Y-45385982D01*
X100561447Y-45385983D01*
X100769910Y-45497408D01*
X100952634Y-45647366D01*
X101102592Y-45830090D01*
X101214017Y-46038553D01*
X101214018Y-46038556D01*
X101214019Y-46038558D01*
X101282637Y-46264759D01*
X101300000Y-46441050D01*
X101300000Y-48158950D01*
X101282637Y-48335241D01*
X101214019Y-48561441D01*
X101214017Y-48561447D01*
X101102592Y-48769910D01*
X100952637Y-48952631D01*
X100952635Y-48952632D01*
X100952634Y-48952634D01*
X100769909Y-49102591D01*
X100769905Y-49102594D01*
X100561446Y-49214017D01*
X100561443Y-49214018D01*
X100561441Y-49214019D01*
X100335240Y-49282637D01*
X100100000Y-49305806D01*
X99864759Y-49282637D01*
X99638558Y-49214019D01*
X99638556Y-49214018D01*
X99638553Y-49214017D01*
X99430090Y-49102592D01*
X99247369Y-48952637D01*
X99247368Y-48952635D01*
X99247366Y-48952634D01*
X99097409Y-48769909D01*
X99097408Y-48769908D01*
X99097406Y-48769905D01*
X98985983Y-48561446D01*
X98985981Y-48561441D01*
X98917363Y-48335240D01*
X98900000Y-48158949D01*
X98900000Y-46441050D01*
X98917363Y-46264759D01*
X98917363Y-46264758D01*
X98985981Y-46038558D01*
X99097409Y-45830090D01*
X99247367Y-45647366D01*
X99430091Y-45497408D01*
X99638554Y-45385983D01*
X99638557Y-45385982D01*
X99638559Y-45385981D01*
X99864760Y-45317363D01*
X100100000Y-45294194D01*
X100335241Y-45317363D01*
X100335241Y-45317363D01*
G37*
G36*
X61335241Y-45317363D02*
X61561442Y-45385981D01*
X61561444Y-45385982D01*
X61561447Y-45385983D01*
X61769910Y-45497408D01*
X61952634Y-45647366D01*
X62102592Y-45830090D01*
X62214017Y-46038553D01*
X62214018Y-46038556D01*
X62214019Y-46038558D01*
X62282637Y-46264759D01*
X62300000Y-46441050D01*
X62300000Y-48158950D01*
X62282637Y-48335241D01*
X62214019Y-48561441D01*
X62214017Y-48561447D01*
X62102592Y-48769910D01*
X61952637Y-48952631D01*
X61952635Y-48952632D01*
X61952634Y-48952634D01*
X61769909Y-49102591D01*
X61769905Y-49102594D01*
X61561446Y-49214017D01*
X61561443Y-49214018D01*
X61561441Y-49214019D01*
X61335240Y-49282637D01*
X61100000Y-49305806D01*
X60864759Y-49282637D01*
X60638558Y-49214019D01*
X60638556Y-49214018D01*
X60638553Y-49214017D01*
X60430090Y-49102592D01*
X60247369Y-48952637D01*
X60247368Y-48952635D01*
X60247366Y-48952634D01*
X60097409Y-48769909D01*
X60097408Y-48769908D01*
X60097406Y-48769905D01*
X59985983Y-48561446D01*
X59985981Y-48561441D01*
X59917363Y-48335240D01*
X59900000Y-48158949D01*
X59900000Y-46441050D01*
X59917363Y-46264759D01*
X59917363Y-46264758D01*
X59985981Y-46038558D01*
X60097409Y-45830090D01*
X60247367Y-45647366D01*
X60430091Y-45497408D01*
X60638554Y-45385983D01*
X60638557Y-45385982D01*
X60638559Y-45385981D01*
X60864760Y-45317363D01*
X61100000Y-45294194D01*
X61335241Y-45317363D01*
X61335241Y-45317363D01*
G37*
G36*
X74335241Y-45317363D02*
X74561442Y-45385981D01*
X74561444Y-45385982D01*
X74561447Y-45385983D01*
X74769910Y-45497408D01*
X74952634Y-45647366D01*
X75102592Y-45830090D01*
X75214017Y-46038553D01*
X75214018Y-46038556D01*
X75214019Y-46038558D01*
X75282637Y-46264759D01*
X75300000Y-46441050D01*
X75300000Y-48158950D01*
X75282637Y-48335241D01*
X75214019Y-48561441D01*
X75214017Y-48561447D01*
X75102592Y-48769910D01*
X74952637Y-48952631D01*
X74952635Y-48952632D01*
X74952634Y-48952634D01*
X74769909Y-49102591D01*
X74769905Y-49102594D01*
X74561446Y-49214017D01*
X74561443Y-49214018D01*
X74561441Y-49214019D01*
X74335240Y-49282637D01*
X74100000Y-49305806D01*
X73864759Y-49282637D01*
X73638558Y-49214019D01*
X73638556Y-49214018D01*
X73638553Y-49214017D01*
X73430090Y-49102592D01*
X73247369Y-48952637D01*
X73247368Y-48952635D01*
X73247366Y-48952634D01*
X73097409Y-48769909D01*
X73097408Y-48769908D01*
X73097406Y-48769905D01*
X72985983Y-48561446D01*
X72985981Y-48561441D01*
X72917363Y-48335240D01*
X72900000Y-48158949D01*
X72900000Y-46441050D01*
X72917363Y-46264759D01*
X72917363Y-46264758D01*
X72985981Y-46038558D01*
X73097409Y-45830090D01*
X73247367Y-45647366D01*
X73430091Y-45497408D01*
X73638554Y-45385983D01*
X73638557Y-45385982D01*
X73638559Y-45385981D01*
X73864760Y-45317363D01*
X74100000Y-45294194D01*
X74335241Y-45317363D01*
X74335241Y-45317363D01*
G37*
G36*
X87335241Y-45317363D02*
X87561442Y-45385981D01*
X87561444Y-45385982D01*
X87561447Y-45385983D01*
X87769910Y-45497408D01*
X87952634Y-45647366D01*
X88102592Y-45830090D01*
X88214017Y-46038553D01*
X88214018Y-46038556D01*
X88214019Y-46038558D01*
X88282637Y-46264759D01*
X88300000Y-46441050D01*
X88300000Y-48158950D01*
X88282637Y-48335241D01*
X88214019Y-48561441D01*
X88214017Y-48561447D01*
X88102592Y-48769910D01*
X87952637Y-48952631D01*
X87952635Y-48952632D01*
X87952634Y-48952634D01*
X87769909Y-49102591D01*
X87769905Y-49102594D01*
X87561446Y-49214017D01*
X87561443Y-49214018D01*
X87561441Y-49214019D01*
X87335240Y-49282637D01*
X87100000Y-49305806D01*
X86864759Y-49282637D01*
X86638558Y-49214019D01*
X86638556Y-49214018D01*
X86638553Y-49214017D01*
X86430090Y-49102592D01*
X86247369Y-48952637D01*
X86247368Y-48952635D01*
X86247366Y-48952634D01*
X86097409Y-48769909D01*
X86097408Y-48769908D01*
X86097406Y-48769905D01*
X85985983Y-48561446D01*
X85985981Y-48561441D01*
X85917363Y-48335240D01*
X85900000Y-48158949D01*
X85900000Y-46441050D01*
X85917363Y-46264759D01*
X85917363Y-46264758D01*
X85985981Y-46038558D01*
X86097409Y-45830090D01*
X86247367Y-45647366D01*
X86430091Y-45497408D01*
X86638554Y-45385983D01*
X86638557Y-45385982D01*
X86638559Y-45385981D01*
X86864760Y-45317363D01*
X87100000Y-45294194D01*
X87335241Y-45317363D01*
X87335241Y-45317363D01*
G37*
G36*
X113335241Y-45317363D02*
X113561442Y-45385981D01*
X113561444Y-45385982D01*
X113561447Y-45385983D01*
X113769910Y-45497408D01*
X113952634Y-45647366D01*
X114102592Y-45830090D01*
X114214017Y-46038553D01*
X114214018Y-46038556D01*
X114214019Y-46038558D01*
X114282637Y-46264759D01*
X114300000Y-46441050D01*
X114300000Y-48158950D01*
X114282637Y-48335241D01*
X114214019Y-48561441D01*
X114214017Y-48561447D01*
X114102592Y-48769910D01*
X113952637Y-48952631D01*
X113952635Y-48952632D01*
X113952634Y-48952634D01*
X113769909Y-49102591D01*
X113769905Y-49102594D01*
X113561446Y-49214017D01*
X113561443Y-49214018D01*
X113561441Y-49214019D01*
X113335240Y-49282637D01*
X113100000Y-49305806D01*
X112864759Y-49282637D01*
X112638558Y-49214019D01*
X112638556Y-49214018D01*
X112638553Y-49214017D01*
X112430090Y-49102592D01*
X112247369Y-48952637D01*
X112247368Y-48952635D01*
X112247366Y-48952634D01*
X112097409Y-48769909D01*
X112097408Y-48769908D01*
X112097406Y-48769905D01*
X111985983Y-48561446D01*
X111985981Y-48561441D01*
X111917363Y-48335240D01*
X111900000Y-48158949D01*
X111900000Y-46441050D01*
X111917363Y-46264759D01*
X111917363Y-46264758D01*
X111985981Y-46038558D01*
X112097409Y-45830090D01*
X112247367Y-45647366D01*
X112430091Y-45497408D01*
X112638554Y-45385983D01*
X112638557Y-45385982D01*
X112638559Y-45385981D01*
X112864760Y-45317363D01*
X113100000Y-45294194D01*
X113335241Y-45317363D01*
X113335241Y-45317363D01*
G37*
G36*
X119133866Y-45304556D02*
X119172449Y-45316260D01*
X119208002Y-45335263D01*
X119239163Y-45360837D01*
X119264737Y-45391998D01*
X119283740Y-45427551D01*
X119295444Y-45466134D01*
X119300000Y-45512390D01*
X119300000Y-49087610D01*
X119295444Y-49133866D01*
X119283740Y-49172449D01*
X119264737Y-49208002D01*
X119239163Y-49239163D01*
X119208002Y-49264737D01*
X119172449Y-49283740D01*
X119133866Y-49295444D01*
X119087610Y-49300000D01*
X117112390Y-49300000D01*
X117066134Y-49295444D01*
X117027551Y-49283740D01*
X116991998Y-49264737D01*
X116960837Y-49239163D01*
X116935263Y-49208002D01*
X116916260Y-49172449D01*
X116904556Y-49133866D01*
X116900000Y-49087610D01*
X116900000Y-45512390D01*
X116904556Y-45466134D01*
X116916260Y-45427551D01*
X116935263Y-45391998D01*
X116960837Y-45360837D01*
X116991998Y-45335263D01*
X117027551Y-45316260D01*
X117066134Y-45304556D01*
X117112390Y-45300000D01*
X119087610Y-45300000D01*
X119133866Y-45304556D01*
X119133866Y-45304556D01*
G37*
G36*
X67133866Y-45304556D02*
X67172449Y-45316260D01*
X67208002Y-45335263D01*
X67239163Y-45360837D01*
X67264737Y-45391998D01*
X67283740Y-45427551D01*
X67295444Y-45466134D01*
X67300000Y-45512390D01*
X67300000Y-49087610D01*
X67295444Y-49133866D01*
X67283740Y-49172449D01*
X67264737Y-49208002D01*
X67239163Y-49239163D01*
X67208002Y-49264737D01*
X67172449Y-49283740D01*
X67133866Y-49295444D01*
X67087610Y-49300000D01*
X65112390Y-49300000D01*
X65066134Y-49295444D01*
X65027551Y-49283740D01*
X64991998Y-49264737D01*
X64960837Y-49239163D01*
X64935263Y-49208002D01*
X64916260Y-49172449D01*
X64904556Y-49133866D01*
X64900000Y-49087610D01*
X64900000Y-45512390D01*
X64904556Y-45466134D01*
X64916260Y-45427551D01*
X64935263Y-45391998D01*
X64960837Y-45360837D01*
X64991998Y-45335263D01*
X65027551Y-45316260D01*
X65066134Y-45304556D01*
X65112390Y-45300000D01*
X67087610Y-45300000D01*
X67133866Y-45304556D01*
X67133866Y-45304556D01*
G37*
G36*
X80133866Y-45304556D02*
X80172449Y-45316260D01*
X80208002Y-45335263D01*
X80239163Y-45360837D01*
X80264737Y-45391998D01*
X80283740Y-45427551D01*
X80295444Y-45466134D01*
X80300000Y-45512390D01*
X80300000Y-49087610D01*
X80295444Y-49133866D01*
X80283740Y-49172449D01*
X80264737Y-49208002D01*
X80239163Y-49239163D01*
X80208002Y-49264737D01*
X80172449Y-49283740D01*
X80133866Y-49295444D01*
X80087610Y-49300000D01*
X78112390Y-49300000D01*
X78066134Y-49295444D01*
X78027551Y-49283740D01*
X77991998Y-49264737D01*
X77960837Y-49239163D01*
X77935263Y-49208002D01*
X77916260Y-49172449D01*
X77904556Y-49133866D01*
X77900000Y-49087610D01*
X77900000Y-45512390D01*
X77904556Y-45466134D01*
X77916260Y-45427551D01*
X77935263Y-45391998D01*
X77960837Y-45360837D01*
X77991998Y-45335263D01*
X78027551Y-45316260D01*
X78066134Y-45304556D01*
X78112390Y-45300000D01*
X80087610Y-45300000D01*
X80133866Y-45304556D01*
X80133866Y-45304556D01*
G37*
G36*
X93133866Y-45304556D02*
X93172449Y-45316260D01*
X93208002Y-45335263D01*
X93239163Y-45360837D01*
X93264737Y-45391998D01*
X93283740Y-45427551D01*
X93295444Y-45466134D01*
X93300000Y-45512390D01*
X93300000Y-49087610D01*
X93295444Y-49133866D01*
X93283740Y-49172449D01*
X93264737Y-49208002D01*
X93239163Y-49239163D01*
X93208002Y-49264737D01*
X93172449Y-49283740D01*
X93133866Y-49295444D01*
X93087610Y-49300000D01*
X91112390Y-49300000D01*
X91066134Y-49295444D01*
X91027551Y-49283740D01*
X90991998Y-49264737D01*
X90960837Y-49239163D01*
X90935263Y-49208002D01*
X90916260Y-49172449D01*
X90904556Y-49133866D01*
X90900000Y-49087610D01*
X90900000Y-45512390D01*
X90904556Y-45466134D01*
X90916260Y-45427551D01*
X90935263Y-45391998D01*
X90960837Y-45360837D01*
X90991998Y-45335263D01*
X91027551Y-45316260D01*
X91066134Y-45304556D01*
X91112390Y-45300000D01*
X93087610Y-45300000D01*
X93133866Y-45304556D01*
X93133866Y-45304556D01*
G37*
G36*
X106133866Y-45304556D02*
X106172449Y-45316260D01*
X106208002Y-45335263D01*
X106239163Y-45360837D01*
X106264737Y-45391998D01*
X106283740Y-45427551D01*
X106295444Y-45466134D01*
X106300000Y-45512390D01*
X106300000Y-49087610D01*
X106295444Y-49133866D01*
X106283740Y-49172449D01*
X106264737Y-49208002D01*
X106239163Y-49239163D01*
X106208002Y-49264737D01*
X106172449Y-49283740D01*
X106133866Y-49295444D01*
X106087610Y-49300000D01*
X104112390Y-49300000D01*
X104066134Y-49295444D01*
X104027551Y-49283740D01*
X103991998Y-49264737D01*
X103960837Y-49239163D01*
X103935263Y-49208002D01*
X103916260Y-49172449D01*
X103904556Y-49133866D01*
X103900000Y-49087610D01*
X103900000Y-45512390D01*
X103904556Y-45466134D01*
X103916260Y-45427551D01*
X103935263Y-45391998D01*
X103960837Y-45360837D01*
X103991998Y-45335263D01*
X104027551Y-45316260D01*
X104066134Y-45304556D01*
X104112390Y-45300000D01*
X106087610Y-45300000D01*
X106133866Y-45304556D01*
X106133866Y-45304556D01*
G37*
M02*
