G04 #@! TF.GenerationSoftware,KiCad,Pcbnew,(5.0.1-dev-70-gb7b125d83)*
G04 #@! TF.CreationDate,2019-03-06T23:18:23+01:00*
G04 #@! TF.ProjectId,ATX-breakout,4154582D627265616B6F75742E6B6963,rev?*
G04 #@! TF.SameCoordinates,Original*
G04 #@! TF.FileFunction,Legend,Bot*
G04 #@! TF.FilePolarity,Positive*
%FSLAX46Y46*%
G04 Gerber Fmt 4.6, Leading zero omitted, Abs format (unit mm)*
G04 Created by KiCad (PCBNEW (5.0.1-dev-70-gb7b125d83)) date 03/06/19 23:18:23*
%MOMM*%
%LPD*%
G01*
G04 APERTURE LIST*
%ADD10C,0.300000*%
%ADD11C,0.120000*%
%ADD12C,0.150000*%
G04 APERTURE END LIST*
D10*
X56578571Y-86721428D02*
X57792857Y-86721428D01*
X57935714Y-86650000D01*
X58007142Y-86578571D01*
X58078571Y-86435714D01*
X58078571Y-86221428D01*
X58007142Y-86078571D01*
X57507142Y-86721428D02*
X57578571Y-86578571D01*
X57578571Y-86292857D01*
X57507142Y-86150000D01*
X57435714Y-86078571D01*
X57292857Y-86007142D01*
X56864285Y-86007142D01*
X56721428Y-86078571D01*
X56650000Y-86150000D01*
X56578571Y-86292857D01*
X56578571Y-86578571D01*
X56650000Y-86721428D01*
X57578571Y-87435714D02*
X56578571Y-87435714D01*
X56078571Y-87435714D02*
X56150000Y-87364285D01*
X56221428Y-87435714D01*
X56150000Y-87507142D01*
X56078571Y-87435714D01*
X56221428Y-87435714D01*
X56578571Y-87935714D02*
X56578571Y-88507142D01*
X56078571Y-88150000D02*
X57364285Y-88150000D01*
X57507142Y-88221428D01*
X57578571Y-88364285D01*
X57578571Y-88507142D01*
X57435714Y-89007142D02*
X57507142Y-89078571D01*
X57578571Y-89007142D01*
X57507142Y-88935714D01*
X57435714Y-89007142D01*
X57578571Y-89007142D01*
X57578571Y-89721428D02*
X56578571Y-89721428D01*
X56078571Y-89721428D02*
X56150000Y-89650000D01*
X56221428Y-89721428D01*
X56150000Y-89792857D01*
X56078571Y-89721428D01*
X56221428Y-89721428D01*
X57578571Y-90650000D02*
X57507142Y-90507142D01*
X57435714Y-90435714D01*
X57292857Y-90364285D01*
X56864285Y-90364285D01*
X56721428Y-90435714D01*
X56650000Y-90507142D01*
X56578571Y-90650000D01*
X56578571Y-90864285D01*
X56650000Y-91007142D01*
X56721428Y-91078571D01*
X56864285Y-91150000D01*
X57292857Y-91150000D01*
X57435714Y-91078571D01*
X57507142Y-91007142D01*
X57578571Y-90864285D01*
X57578571Y-90650000D01*
X56007142Y-92864285D02*
X57935714Y-91578571D01*
X57578571Y-93364285D02*
X56078571Y-93364285D01*
X56078571Y-93935714D01*
X56150000Y-94078571D01*
X56221428Y-94150000D01*
X56364285Y-94221428D01*
X56578571Y-94221428D01*
X56721428Y-94150000D01*
X56792857Y-94078571D01*
X56864285Y-93935714D01*
X56864285Y-93364285D01*
X57578571Y-94864285D02*
X56578571Y-94864285D01*
X56078571Y-94864285D02*
X56150000Y-94792857D01*
X56221428Y-94864285D01*
X56150000Y-94935714D01*
X56078571Y-94864285D01*
X56221428Y-94864285D01*
X57150000Y-95507142D02*
X57150000Y-96221428D01*
X57578571Y-95364285D02*
X56078571Y-95864285D01*
X57578571Y-96364285D01*
X56078571Y-96650000D02*
X56078571Y-97507142D01*
X57578571Y-97078571D02*
X56078571Y-97078571D01*
X56078571Y-97864285D02*
X57578571Y-98864285D01*
X56078571Y-98864285D02*
X57578571Y-97864285D01*
D11*
G04 #@! TO.C,J4*
X113404999Y-98635001D02*
X113404999Y-96035001D01*
X113404999Y-98635001D02*
X62484999Y-98635001D01*
X62484999Y-98635001D02*
X62484999Y-93435001D01*
X110804999Y-93435001D02*
X62484999Y-93435001D01*
X110804999Y-96035001D02*
X110804999Y-93435001D01*
X113404999Y-96035001D02*
X110804999Y-96035001D01*
X113404999Y-93435001D02*
X112074999Y-93435001D01*
X113404999Y-94765001D02*
X113404999Y-93435001D01*
D12*
X114297379Y-95701667D02*
X115011665Y-95701667D01*
X115154522Y-95654048D01*
X115249760Y-95558810D01*
X115297379Y-95415953D01*
X115297379Y-95320715D01*
X114630713Y-96606429D02*
X115297379Y-96606429D01*
X114249760Y-96368334D02*
X114964046Y-96130239D01*
X114964046Y-96749286D01*
G04 #@! TD*
M02*
