G04 #@! TF.GenerationSoftware,KiCad,Pcbnew,5.0.2-5.fc29*
G04 #@! TF.CreationDate,2019-04-09T09:13:13+02:00*
G04 #@! TF.ProjectId,ATX-breakout,4154582d-6272-4656-916b-6f75742e6b69,rev?*
G04 #@! TF.SameCoordinates,Original*
G04 #@! TF.FileFunction,Legend,Top*
G04 #@! TF.FilePolarity,Positive*
%FSLAX46Y46*%
G04 Gerber Fmt 4.6, Leading zero omitted, Abs format (unit mm)*
G04 Created by KiCad (PCBNEW 5.0.2-5.fc29) date 2019-04-09T09:13:13 CEST*
%MOMM*%
%LPD*%
G01*
G04 APERTURE LIST*
%ADD10C,0.200000*%
%ADD11C,0.300000*%
%ADD12C,0.180000*%
%ADD13C,0.150000*%
%ADD14C,0.120000*%
G04 APERTURE END LIST*
D10*
X29800000Y-22250000D02*
X28000000Y-22250000D01*
X28000000Y-19700000D02*
X29800000Y-19700000D01*
X29800000Y-19700000D02*
X29800000Y-22250000D01*
X28000000Y-19700000D02*
X26200000Y-19700000D01*
X26200000Y-17150000D02*
X28000000Y-17150000D01*
X26200000Y-19700000D02*
X26200000Y-17150000D01*
X56900000Y-37400000D02*
X55100000Y-37400000D01*
X55100000Y-34850000D02*
X56900000Y-34850000D01*
X55100000Y-37400000D02*
X55100000Y-34850000D01*
X58700000Y-34850000D02*
X56900000Y-34850000D01*
X56900000Y-32300000D02*
X58700000Y-32300000D01*
X58700000Y-32300000D02*
X58700000Y-34850000D01*
X33900000Y-40600000D02*
X33900000Y-42400000D01*
X31350000Y-40600000D02*
X33900000Y-40600000D01*
X31350000Y-42400000D02*
X31350000Y-40600000D01*
X47602380Y-41544642D02*
X47602380Y-42794642D01*
X47602380Y-41604166D02*
X47721428Y-41544642D01*
X47959523Y-41544642D01*
X48078571Y-41604166D01*
X48138095Y-41663690D01*
X48197619Y-41782738D01*
X48197619Y-42139880D01*
X48138095Y-42258928D01*
X48078571Y-42318452D01*
X47959523Y-42377976D01*
X47721428Y-42377976D01*
X47602380Y-42318452D01*
X48911904Y-42377976D02*
X48792857Y-42318452D01*
X48733333Y-42258928D01*
X48673809Y-42139880D01*
X48673809Y-41782738D01*
X48733333Y-41663690D01*
X48792857Y-41604166D01*
X48911904Y-41544642D01*
X49090476Y-41544642D01*
X49209523Y-41604166D01*
X49269047Y-41663690D01*
X49328571Y-41782738D01*
X49328571Y-42139880D01*
X49269047Y-42258928D01*
X49209523Y-42318452D01*
X49090476Y-42377976D01*
X48911904Y-42377976D01*
X49745238Y-41544642D02*
X49983333Y-42377976D01*
X50221428Y-41782738D01*
X50459523Y-42377976D01*
X50697619Y-41544642D01*
X51650000Y-42318452D02*
X51530952Y-42377976D01*
X51292857Y-42377976D01*
X51173809Y-42318452D01*
X51114285Y-42199404D01*
X51114285Y-41723214D01*
X51173809Y-41604166D01*
X51292857Y-41544642D01*
X51530952Y-41544642D01*
X51650000Y-41604166D01*
X51709523Y-41723214D01*
X51709523Y-41842261D01*
X51114285Y-41961309D01*
X52245238Y-42377976D02*
X52245238Y-41544642D01*
X52245238Y-41782738D02*
X52304761Y-41663690D01*
X52364285Y-41604166D01*
X52483333Y-41544642D01*
X52602380Y-41544642D01*
X52959523Y-42318452D02*
X53138095Y-42377976D01*
X53435714Y-42377976D01*
X53554761Y-42318452D01*
X53614285Y-42258928D01*
X53673809Y-42139880D01*
X53673809Y-42020833D01*
X53614285Y-41901785D01*
X53554761Y-41842261D01*
X53435714Y-41782738D01*
X53197619Y-41723214D01*
X53078571Y-41663690D01*
X53019047Y-41604166D01*
X52959523Y-41485119D01*
X52959523Y-41366071D01*
X53019047Y-41247023D01*
X53078571Y-41187500D01*
X53197619Y-41127976D01*
X53495238Y-41127976D01*
X53673809Y-41187500D01*
X54685714Y-42318452D02*
X54566666Y-42377976D01*
X54328571Y-42377976D01*
X54209523Y-42318452D01*
X54150000Y-42199404D01*
X54150000Y-41723214D01*
X54209523Y-41604166D01*
X54328571Y-41544642D01*
X54566666Y-41544642D01*
X54685714Y-41604166D01*
X54745238Y-41723214D01*
X54745238Y-41842261D01*
X54150000Y-41961309D01*
X55459523Y-42377976D02*
X55340476Y-42318452D01*
X55280952Y-42199404D01*
X55280952Y-41127976D01*
X56411904Y-42318452D02*
X56292857Y-42377976D01*
X56054761Y-42377976D01*
X55935714Y-42318452D01*
X55876190Y-42199404D01*
X55876190Y-41723214D01*
X55935714Y-41604166D01*
X56054761Y-41544642D01*
X56292857Y-41544642D01*
X56411904Y-41604166D01*
X56471428Y-41723214D01*
X56471428Y-41842261D01*
X55876190Y-41961309D01*
X57542857Y-42318452D02*
X57423809Y-42377976D01*
X57185714Y-42377976D01*
X57066666Y-42318452D01*
X57007142Y-42258928D01*
X56947619Y-42139880D01*
X56947619Y-41782738D01*
X57007142Y-41663690D01*
X57066666Y-41604166D01*
X57185714Y-41544642D01*
X57423809Y-41544642D01*
X57542857Y-41604166D01*
X57900000Y-41544642D02*
X58376190Y-41544642D01*
X58078571Y-41127976D02*
X58078571Y-42199404D01*
X58138095Y-42318452D01*
X58257142Y-42377976D01*
X58376190Y-42377976D01*
X52364285Y-44452976D02*
X51947619Y-43857738D01*
X51650000Y-44452976D02*
X51650000Y-43202976D01*
X52126190Y-43202976D01*
X52245238Y-43262500D01*
X52304761Y-43322023D01*
X52364285Y-43441071D01*
X52364285Y-43619642D01*
X52304761Y-43738690D01*
X52245238Y-43798214D01*
X52126190Y-43857738D01*
X51650000Y-43857738D01*
X52900000Y-44452976D02*
X52900000Y-43202976D01*
X53376190Y-43202976D01*
X53495238Y-43262500D01*
X53554761Y-43322023D01*
X53614285Y-43441071D01*
X53614285Y-43619642D01*
X53554761Y-43738690D01*
X53495238Y-43798214D01*
X53376190Y-43857738D01*
X52900000Y-43857738D01*
X54150000Y-44452976D02*
X54150000Y-43619642D01*
X54150000Y-43202976D02*
X54090476Y-43262500D01*
X54150000Y-43322023D01*
X54209523Y-43262500D01*
X54150000Y-43202976D01*
X54150000Y-43322023D01*
D11*
X2321428Y-48678571D02*
X2321428Y-49892857D01*
X2250000Y-50035714D01*
X2178571Y-50107142D01*
X2035714Y-50178571D01*
X1821428Y-50178571D01*
X1678571Y-50107142D01*
X2321428Y-49607142D02*
X2178571Y-49678571D01*
X1892857Y-49678571D01*
X1750000Y-49607142D01*
X1678571Y-49535714D01*
X1607142Y-49392857D01*
X1607142Y-48964285D01*
X1678571Y-48821428D01*
X1750000Y-48750000D01*
X1892857Y-48678571D01*
X2178571Y-48678571D01*
X2321428Y-48750000D01*
X3035714Y-49678571D02*
X3035714Y-48678571D01*
X3035714Y-48178571D02*
X2964285Y-48250000D01*
X3035714Y-48321428D01*
X3107142Y-48250000D01*
X3035714Y-48178571D01*
X3035714Y-48321428D01*
X3535714Y-48678571D02*
X4107142Y-48678571D01*
X3750000Y-48178571D02*
X3750000Y-49464285D01*
X3821428Y-49607142D01*
X3964285Y-49678571D01*
X4107142Y-49678571D01*
X4607142Y-49535714D02*
X4678571Y-49607142D01*
X4607142Y-49678571D01*
X4535714Y-49607142D01*
X4607142Y-49535714D01*
X4607142Y-49678571D01*
X5321428Y-49678571D02*
X5321428Y-48678571D01*
X5321428Y-48178571D02*
X5250000Y-48250000D01*
X5321428Y-48321428D01*
X5392857Y-48250000D01*
X5321428Y-48178571D01*
X5321428Y-48321428D01*
X6250000Y-49678571D02*
X6107142Y-49607142D01*
X6035714Y-49535714D01*
X5964285Y-49392857D01*
X5964285Y-48964285D01*
X6035714Y-48821428D01*
X6107142Y-48750000D01*
X6250000Y-48678571D01*
X6464285Y-48678571D01*
X6607142Y-48750000D01*
X6678571Y-48821428D01*
X6750000Y-48964285D01*
X6750000Y-49392857D01*
X6678571Y-49535714D01*
X6607142Y-49607142D01*
X6464285Y-49678571D01*
X6250000Y-49678571D01*
X8464285Y-48107142D02*
X7178571Y-50035714D01*
X8964285Y-49678571D02*
X8964285Y-48178571D01*
X9535714Y-48178571D01*
X9678571Y-48250000D01*
X9750000Y-48321428D01*
X9821428Y-48464285D01*
X9821428Y-48678571D01*
X9750000Y-48821428D01*
X9678571Y-48892857D01*
X9535714Y-48964285D01*
X8964285Y-48964285D01*
X10464285Y-49678571D02*
X10464285Y-48678571D01*
X10464285Y-48178571D02*
X10392857Y-48250000D01*
X10464285Y-48321428D01*
X10535714Y-48250000D01*
X10464285Y-48178571D01*
X10464285Y-48321428D01*
X11107142Y-49250000D02*
X11821428Y-49250000D01*
X10964285Y-49678571D02*
X11464285Y-48178571D01*
X11964285Y-49678571D01*
X12250000Y-48178571D02*
X13107142Y-48178571D01*
X12678571Y-49678571D02*
X12678571Y-48178571D01*
X13464285Y-48178571D02*
X14464285Y-49678571D01*
X14464285Y-48178571D02*
X13464285Y-49678571D01*
D10*
X22700000Y-18500000D02*
X24600000Y-18500000D01*
X22700000Y-18500000D02*
G75*
G02X22500000Y-18300000I0J200000D01*
G01*
X15500000Y-18300000D02*
G75*
G02X22500000Y-18300000I3500000J0D01*
G01*
X15500000Y-18300000D02*
G75*
G02X15300000Y-18500000I-200000J0D01*
G01*
X15000000Y-18500000D02*
X15300000Y-18500000D01*
X14400000Y-18400000D02*
X14400000Y-18500000D01*
X14500000Y-18600000D02*
X14500000Y-18400000D01*
X14600000Y-18300000D02*
X14600000Y-18700000D01*
X14700000Y-18800000D02*
X14700000Y-18200000D01*
X14800000Y-18100000D02*
X14800000Y-18900000D01*
X14900000Y-19000000D02*
X14900000Y-18000000D01*
X15000000Y-19250000D02*
X14250000Y-18500000D01*
X15000000Y-17750000D02*
X15000000Y-19250000D01*
X14250000Y-18500000D02*
X15000000Y-17750000D01*
D12*
X64209904Y-41910000D02*
X64105142Y-41857619D01*
X63948000Y-41857619D01*
X63790857Y-41910000D01*
X63686095Y-42014761D01*
X63633714Y-42119523D01*
X63581333Y-42329047D01*
X63581333Y-42486190D01*
X63633714Y-42695714D01*
X63686095Y-42800476D01*
X63790857Y-42905238D01*
X63948000Y-42957619D01*
X64052761Y-42957619D01*
X64209904Y-42905238D01*
X64262285Y-42852857D01*
X64262285Y-42486190D01*
X64052761Y-42486190D01*
X64733714Y-42957619D02*
X64733714Y-41857619D01*
X65362285Y-42957619D01*
X65362285Y-41857619D01*
X65886095Y-42957619D02*
X65886095Y-41857619D01*
X66148000Y-41857619D01*
X66305142Y-41910000D01*
X66409904Y-42014761D01*
X66462285Y-42119523D01*
X66514666Y-42329047D01*
X66514666Y-42486190D01*
X66462285Y-42695714D01*
X66409904Y-42800476D01*
X66305142Y-42905238D01*
X66148000Y-42957619D01*
X65886095Y-42957619D01*
X63738476Y-40365238D02*
X63895619Y-40417619D01*
X64157523Y-40417619D01*
X64262285Y-40365238D01*
X64314666Y-40312857D01*
X64367047Y-40208095D01*
X64367047Y-40103333D01*
X64314666Y-39998571D01*
X64262285Y-39946190D01*
X64157523Y-39893809D01*
X63948000Y-39841428D01*
X63843238Y-39789047D01*
X63790857Y-39736666D01*
X63738476Y-39631904D01*
X63738476Y-39527142D01*
X63790857Y-39422380D01*
X63843238Y-39370000D01*
X63948000Y-39317619D01*
X64209904Y-39317619D01*
X64367047Y-39370000D01*
X65467047Y-40312857D02*
X65414666Y-40365238D01*
X65257523Y-40417619D01*
X65152761Y-40417619D01*
X64995619Y-40365238D01*
X64890857Y-40260476D01*
X64838476Y-40155714D01*
X64786095Y-39946190D01*
X64786095Y-39789047D01*
X64838476Y-39579523D01*
X64890857Y-39474761D01*
X64995619Y-39370000D01*
X65152761Y-39317619D01*
X65257523Y-39317619D01*
X65414666Y-39370000D01*
X65467047Y-39422380D01*
X66462285Y-40417619D02*
X65938476Y-40417619D01*
X65938476Y-39317619D01*
X63712285Y-37825238D02*
X63869428Y-37877619D01*
X64131333Y-37877619D01*
X64236095Y-37825238D01*
X64288476Y-37772857D01*
X64340857Y-37668095D01*
X64340857Y-37563333D01*
X64288476Y-37458571D01*
X64236095Y-37406190D01*
X64131333Y-37353809D01*
X63921809Y-37301428D01*
X63817047Y-37249047D01*
X63764666Y-37196666D01*
X63712285Y-37091904D01*
X63712285Y-36987142D01*
X63764666Y-36882380D01*
X63817047Y-36830000D01*
X63921809Y-36777619D01*
X64183714Y-36777619D01*
X64340857Y-36830000D01*
X64812285Y-37877619D02*
X64812285Y-36777619D01*
X65074190Y-36777619D01*
X65231333Y-36830000D01*
X65336095Y-36934761D01*
X65388476Y-37039523D01*
X65440857Y-37249047D01*
X65440857Y-37406190D01*
X65388476Y-37615714D01*
X65336095Y-37720476D01*
X65231333Y-37825238D01*
X65074190Y-37877619D01*
X64812285Y-37877619D01*
X65859904Y-37563333D02*
X66383714Y-37563333D01*
X65755142Y-37877619D02*
X66121809Y-36777619D01*
X66488476Y-37877619D01*
X63686095Y-34237619D02*
X64367047Y-34237619D01*
X64000380Y-34656666D01*
X64157523Y-34656666D01*
X64262285Y-34709047D01*
X64314666Y-34761428D01*
X64367047Y-34866190D01*
X64367047Y-35128095D01*
X64314666Y-35232857D01*
X64262285Y-35285238D01*
X64157523Y-35337619D01*
X63843238Y-35337619D01*
X63738476Y-35285238D01*
X63686095Y-35232857D01*
X64681333Y-34237619D02*
X65048000Y-35337619D01*
X65414666Y-34237619D01*
X65676571Y-34237619D02*
X66357523Y-34237619D01*
X65990857Y-34656666D01*
X66148000Y-34656666D01*
X66252761Y-34709047D01*
X66305142Y-34761428D01*
X66357523Y-34866190D01*
X66357523Y-35128095D01*
X66305142Y-35232857D01*
X66252761Y-35285238D01*
X66148000Y-35337619D01*
X65833714Y-35337619D01*
X65728952Y-35285238D01*
X65676571Y-35232857D01*
X64838476Y-31697619D02*
X64314666Y-31697619D01*
X64262285Y-32221428D01*
X64314666Y-32169047D01*
X64419428Y-32116666D01*
X64681333Y-32116666D01*
X64786095Y-32169047D01*
X64838476Y-32221428D01*
X64890857Y-32326190D01*
X64890857Y-32588095D01*
X64838476Y-32692857D01*
X64786095Y-32745238D01*
X64681333Y-32797619D01*
X64419428Y-32797619D01*
X64314666Y-32745238D01*
X64262285Y-32692857D01*
X65205142Y-31697619D02*
X65571809Y-32797619D01*
X65938476Y-31697619D01*
D10*
X53300000Y-40300000D02*
X55000000Y-38600000D01*
X53300000Y-40800000D02*
X53300000Y-40300000D01*
X3183333Y-10015476D02*
X3957142Y-10015476D01*
X3540476Y-10491666D01*
X3719047Y-10491666D01*
X3838095Y-10551190D01*
X3897619Y-10610714D01*
X3957142Y-10729761D01*
X3957142Y-11027380D01*
X3897619Y-11146428D01*
X3838095Y-11205952D01*
X3719047Y-11265476D01*
X3361904Y-11265476D01*
X3242857Y-11205952D01*
X3183333Y-11146428D01*
X4314285Y-10015476D02*
X4730952Y-11265476D01*
X5147619Y-10015476D01*
X5445238Y-10015476D02*
X6219047Y-10015476D01*
X5802380Y-10491666D01*
X5980952Y-10491666D01*
X6100000Y-10551190D01*
X6159523Y-10610714D01*
X6219047Y-10729761D01*
X6219047Y-11027380D01*
X6159523Y-11146428D01*
X6100000Y-11205952D01*
X5980952Y-11265476D01*
X5623809Y-11265476D01*
X5504761Y-11205952D01*
X5445238Y-11146428D01*
X11695238Y-11265476D02*
X11576190Y-11205952D01*
X11516666Y-11146428D01*
X11457142Y-11027380D01*
X11457142Y-10670238D01*
X11516666Y-10551190D01*
X11576190Y-10491666D01*
X11695238Y-10432142D01*
X11873809Y-10432142D01*
X11992857Y-10491666D01*
X12052380Y-10551190D01*
X12111904Y-10670238D01*
X12111904Y-11027380D01*
X12052380Y-11146428D01*
X11992857Y-11205952D01*
X11873809Y-11265476D01*
X11695238Y-11265476D01*
X13183333Y-10432142D02*
X13183333Y-11265476D01*
X12647619Y-10432142D02*
X12647619Y-11086904D01*
X12707142Y-11205952D01*
X12826190Y-11265476D01*
X13004761Y-11265476D01*
X13123809Y-11205952D01*
X13183333Y-11146428D01*
X13600000Y-10432142D02*
X14076190Y-10432142D01*
X13778571Y-10015476D02*
X13778571Y-11086904D01*
X13838095Y-11205952D01*
X13957142Y-11265476D01*
X14076190Y-11265476D01*
X36800000Y-44400000D02*
X36800000Y-43900000D01*
X38000000Y-45100000D02*
X38900000Y-45100000D01*
D13*
X40519047Y-47671428D02*
X41280952Y-47671428D01*
X40785714Y-41104761D02*
X40880952Y-41152380D01*
X41071428Y-41152380D01*
X41166666Y-41104761D01*
X41214285Y-41009523D01*
X41214285Y-40961904D01*
X41166666Y-40866666D01*
X41071428Y-40819047D01*
X40928571Y-40819047D01*
X40833333Y-40771428D01*
X40785714Y-40676190D01*
X40785714Y-40628571D01*
X40833333Y-40533333D01*
X40928571Y-40485714D01*
X41071428Y-40485714D01*
X41166666Y-40533333D01*
D10*
X35469047Y-45010714D02*
X35885714Y-45010714D01*
X36064285Y-45665476D02*
X35469047Y-45665476D01*
X35469047Y-44415476D01*
X36064285Y-44415476D01*
X36480952Y-45665476D02*
X37135714Y-44832142D01*
X36480952Y-44832142D02*
X37135714Y-45665476D01*
X37433333Y-44832142D02*
X37909523Y-44832142D01*
X37611904Y-44415476D02*
X37611904Y-45486904D01*
X37671428Y-45605952D01*
X37790476Y-45665476D01*
X37909523Y-45665476D01*
X27975000Y-42265476D02*
X27975000Y-41015476D01*
X28451190Y-41015476D01*
X28570238Y-41075000D01*
X28629761Y-41134523D01*
X28689285Y-41253571D01*
X28689285Y-41432142D01*
X28629761Y-41551190D01*
X28570238Y-41610714D01*
X28451190Y-41670238D01*
X27975000Y-41670238D01*
X29225000Y-42265476D02*
X29225000Y-41432142D01*
X29225000Y-41015476D02*
X29165476Y-41075000D01*
X29225000Y-41134523D01*
X29284523Y-41075000D01*
X29225000Y-41015476D01*
X29225000Y-41134523D01*
X26741666Y-13915476D02*
X26146428Y-13915476D01*
X26086904Y-14510714D01*
X26146428Y-14451190D01*
X26265476Y-14391666D01*
X26563095Y-14391666D01*
X26682142Y-14451190D01*
X26741666Y-14510714D01*
X26801190Y-14629761D01*
X26801190Y-14927380D01*
X26741666Y-15046428D01*
X26682142Y-15105952D01*
X26563095Y-15165476D01*
X26265476Y-15165476D01*
X26146428Y-15105952D01*
X26086904Y-15046428D01*
X27158333Y-13915476D02*
X27575000Y-15165476D01*
X27991666Y-13915476D01*
X28348809Y-15105952D02*
X28527380Y-15165476D01*
X28825000Y-15165476D01*
X28944047Y-15105952D01*
X29003571Y-15046428D01*
X29063095Y-14927380D01*
X29063095Y-14808333D01*
X29003571Y-14689285D01*
X28944047Y-14629761D01*
X28825000Y-14570238D01*
X28586904Y-14510714D01*
X28467857Y-14451190D01*
X28408333Y-14391666D01*
X28348809Y-14272619D01*
X28348809Y-14153571D01*
X28408333Y-14034523D01*
X28467857Y-13975000D01*
X28586904Y-13915476D01*
X28884523Y-13915476D01*
X29063095Y-13975000D01*
X30015476Y-14510714D02*
X30194047Y-14570238D01*
X30253571Y-14629761D01*
X30313095Y-14748809D01*
X30313095Y-14927380D01*
X30253571Y-15046428D01*
X30194047Y-15105952D01*
X30075000Y-15165476D01*
X29598809Y-15165476D01*
X29598809Y-13915476D01*
X30015476Y-13915476D01*
X30134523Y-13975000D01*
X30194047Y-14034523D01*
X30253571Y-14153571D01*
X30253571Y-14272619D01*
X30194047Y-14391666D01*
X30134523Y-14451190D01*
X30015476Y-14510714D01*
X29598809Y-14510714D01*
X27961904Y-24315476D02*
X27366666Y-24315476D01*
X27307142Y-24910714D01*
X27366666Y-24851190D01*
X27485714Y-24791666D01*
X27783333Y-24791666D01*
X27902380Y-24851190D01*
X27961904Y-24910714D01*
X28021428Y-25029761D01*
X28021428Y-25327380D01*
X27961904Y-25446428D01*
X27902380Y-25505952D01*
X27783333Y-25565476D01*
X27485714Y-25565476D01*
X27366666Y-25505952D01*
X27307142Y-25446428D01*
X28378571Y-24315476D02*
X28795238Y-25565476D01*
X29211904Y-24315476D01*
X32227976Y-25057142D02*
X30977976Y-25057142D01*
X30977976Y-24580952D01*
X31037500Y-24461904D01*
X31097023Y-24402380D01*
X31216071Y-24342857D01*
X31394642Y-24342857D01*
X31513690Y-24402380D01*
X31573214Y-24461904D01*
X31632738Y-24580952D01*
X31632738Y-25057142D01*
X32227976Y-23628571D02*
X32168452Y-23747619D01*
X32108928Y-23807142D01*
X31989880Y-23866666D01*
X31632738Y-23866666D01*
X31513690Y-23807142D01*
X31454166Y-23747619D01*
X31394642Y-23628571D01*
X31394642Y-23450000D01*
X31454166Y-23330952D01*
X31513690Y-23271428D01*
X31632738Y-23211904D01*
X31989880Y-23211904D01*
X32108928Y-23271428D01*
X32168452Y-23330952D01*
X32227976Y-23450000D01*
X32227976Y-23628571D01*
X31394642Y-22795238D02*
X32227976Y-22557142D01*
X31632738Y-22319047D01*
X32227976Y-22080952D01*
X31394642Y-21842857D01*
X32168452Y-20890476D02*
X32227976Y-21009523D01*
X32227976Y-21247619D01*
X32168452Y-21366666D01*
X32049404Y-21426190D01*
X31573214Y-21426190D01*
X31454166Y-21366666D01*
X31394642Y-21247619D01*
X31394642Y-21009523D01*
X31454166Y-20890476D01*
X31573214Y-20830952D01*
X31692261Y-20830952D01*
X31811309Y-21426190D01*
X32227976Y-20295238D02*
X31394642Y-20295238D01*
X31632738Y-20295238D02*
X31513690Y-20235714D01*
X31454166Y-20176190D01*
X31394642Y-20057142D01*
X31394642Y-19938095D01*
X32168452Y-19580952D02*
X32227976Y-19402380D01*
X32227976Y-19104761D01*
X32168452Y-18985714D01*
X32108928Y-18926190D01*
X31989880Y-18866666D01*
X31870833Y-18866666D01*
X31751785Y-18926190D01*
X31692261Y-18985714D01*
X31632738Y-19104761D01*
X31573214Y-19342857D01*
X31513690Y-19461904D01*
X31454166Y-19521428D01*
X31335119Y-19580952D01*
X31216071Y-19580952D01*
X31097023Y-19521428D01*
X31037500Y-19461904D01*
X30977976Y-19342857D01*
X30977976Y-19045238D01*
X31037500Y-18866666D01*
X32168452Y-17854761D02*
X32227976Y-17973809D01*
X32227976Y-18211904D01*
X32168452Y-18330952D01*
X32049404Y-18390476D01*
X31573214Y-18390476D01*
X31454166Y-18330952D01*
X31394642Y-18211904D01*
X31394642Y-17973809D01*
X31454166Y-17854761D01*
X31573214Y-17795238D01*
X31692261Y-17795238D01*
X31811309Y-18390476D01*
X32227976Y-17080952D02*
X32168452Y-17200000D01*
X32049404Y-17259523D01*
X30977976Y-17259523D01*
X32168452Y-16128571D02*
X32227976Y-16247619D01*
X32227976Y-16485714D01*
X32168452Y-16604761D01*
X32049404Y-16664285D01*
X31573214Y-16664285D01*
X31454166Y-16604761D01*
X31394642Y-16485714D01*
X31394642Y-16247619D01*
X31454166Y-16128571D01*
X31573214Y-16069047D01*
X31692261Y-16069047D01*
X31811309Y-16664285D01*
X32168452Y-14997619D02*
X32227976Y-15116666D01*
X32227976Y-15354761D01*
X32168452Y-15473809D01*
X32108928Y-15533333D01*
X31989880Y-15592857D01*
X31632738Y-15592857D01*
X31513690Y-15533333D01*
X31454166Y-15473809D01*
X31394642Y-15354761D01*
X31394642Y-15116666D01*
X31454166Y-14997619D01*
X31394642Y-14640476D02*
X31394642Y-14164285D01*
X30977976Y-14461904D02*
X32049404Y-14461904D01*
X32168452Y-14402380D01*
X32227976Y-14283333D01*
X32227976Y-14164285D01*
X33052976Y-21277380D02*
X34064880Y-21277380D01*
X34183928Y-21217857D01*
X34243452Y-21158333D01*
X34302976Y-21039285D01*
X34302976Y-20801190D01*
X34243452Y-20682142D01*
X34183928Y-20622619D01*
X34064880Y-20563095D01*
X33052976Y-20563095D01*
X34243452Y-20027380D02*
X34302976Y-19848809D01*
X34302976Y-19551190D01*
X34243452Y-19432142D01*
X34183928Y-19372619D01*
X34064880Y-19313095D01*
X33945833Y-19313095D01*
X33826785Y-19372619D01*
X33767261Y-19432142D01*
X33707738Y-19551190D01*
X33648214Y-19789285D01*
X33588690Y-19908333D01*
X33529166Y-19967857D01*
X33410119Y-20027380D01*
X33291071Y-20027380D01*
X33172023Y-19967857D01*
X33112500Y-19908333D01*
X33052976Y-19789285D01*
X33052976Y-19491666D01*
X33112500Y-19313095D01*
X33648214Y-18360714D02*
X33707738Y-18182142D01*
X33767261Y-18122619D01*
X33886309Y-18063095D01*
X34064880Y-18063095D01*
X34183928Y-18122619D01*
X34243452Y-18182142D01*
X34302976Y-18301190D01*
X34302976Y-18777380D01*
X33052976Y-18777380D01*
X33052976Y-18360714D01*
X33112500Y-18241666D01*
X33172023Y-18182142D01*
X33291071Y-18122619D01*
X33410119Y-18122619D01*
X33529166Y-18182142D01*
X33588690Y-18241666D01*
X33648214Y-18360714D01*
X33648214Y-18777380D01*
X56661904Y-39415476D02*
X56066666Y-39415476D01*
X56007142Y-40010714D01*
X56066666Y-39951190D01*
X56185714Y-39891666D01*
X56483333Y-39891666D01*
X56602380Y-39951190D01*
X56661904Y-40010714D01*
X56721428Y-40129761D01*
X56721428Y-40427380D01*
X56661904Y-40546428D01*
X56602380Y-40605952D01*
X56483333Y-40665476D01*
X56185714Y-40665476D01*
X56066666Y-40605952D01*
X56007142Y-40546428D01*
X57078571Y-39415476D02*
X57495238Y-40665476D01*
X57911904Y-39415476D01*
X55441666Y-29015476D02*
X54846428Y-29015476D01*
X54786904Y-29610714D01*
X54846428Y-29551190D01*
X54965476Y-29491666D01*
X55263095Y-29491666D01*
X55382142Y-29551190D01*
X55441666Y-29610714D01*
X55501190Y-29729761D01*
X55501190Y-30027380D01*
X55441666Y-30146428D01*
X55382142Y-30205952D01*
X55263095Y-30265476D01*
X54965476Y-30265476D01*
X54846428Y-30205952D01*
X54786904Y-30146428D01*
X55858333Y-29015476D02*
X56275000Y-30265476D01*
X56691666Y-29015476D01*
X57048809Y-30205952D02*
X57227380Y-30265476D01*
X57525000Y-30265476D01*
X57644047Y-30205952D01*
X57703571Y-30146428D01*
X57763095Y-30027380D01*
X57763095Y-29908333D01*
X57703571Y-29789285D01*
X57644047Y-29729761D01*
X57525000Y-29670238D01*
X57286904Y-29610714D01*
X57167857Y-29551190D01*
X57108333Y-29491666D01*
X57048809Y-29372619D01*
X57048809Y-29253571D01*
X57108333Y-29134523D01*
X57167857Y-29075000D01*
X57286904Y-29015476D01*
X57584523Y-29015476D01*
X57763095Y-29075000D01*
X58715476Y-29610714D02*
X58894047Y-29670238D01*
X58953571Y-29729761D01*
X59013095Y-29848809D01*
X59013095Y-30027380D01*
X58953571Y-30146428D01*
X58894047Y-30205952D01*
X58775000Y-30265476D01*
X58298809Y-30265476D01*
X58298809Y-29015476D01*
X58715476Y-29015476D01*
X58834523Y-29075000D01*
X58894047Y-29134523D01*
X58953571Y-29253571D01*
X58953571Y-29372619D01*
X58894047Y-29491666D01*
X58834523Y-29551190D01*
X58715476Y-29610714D01*
X58298809Y-29610714D01*
D14*
G04 #@! TO.C,R4*
X29070000Y-44220000D02*
X28740000Y-44220000D01*
X29070000Y-50760000D02*
X29070000Y-44220000D01*
X28740000Y-50760000D02*
X29070000Y-50760000D01*
X26330000Y-44220000D02*
X26660000Y-44220000D01*
X26330000Y-50760000D02*
X26330000Y-44220000D01*
X26660000Y-50760000D02*
X26330000Y-50760000D01*
G04 #@! TO.C,J3*
X13260000Y-14300000D02*
X13260000Y-15300000D01*
X-490000Y-11050000D02*
X-990000Y-11050000D01*
X-490000Y-12050000D02*
X-490000Y-11050000D01*
X7510000Y-12050000D02*
X-490000Y-12050000D01*
X13010000Y-12050000D02*
X11010000Y-12050000D01*
X13010000Y-24550000D02*
X13010000Y-12050000D01*
X11010000Y-24550000D02*
X13010000Y-24550000D01*
X-490000Y-24550000D02*
X7510000Y-24550000D01*
X-490000Y-25550000D02*
X-490000Y-24550000D01*
X-990000Y-25550000D02*
X-490000Y-25550000D01*
X-990000Y-11050000D02*
X-990000Y-25550000D01*
G04 #@! TO.C,J5*
X26400000Y-27540000D02*
X490000Y-27540000D01*
X490000Y-27540000D02*
X490000Y-37360000D01*
X490000Y-37360000D02*
X24590000Y-37360000D01*
X24590000Y-37360000D02*
X24590000Y-38760000D01*
X24590000Y-38760000D02*
X26400000Y-38760000D01*
X26400000Y-27540000D02*
X52310000Y-27540000D01*
X52310000Y-27540000D02*
X52310000Y-37360000D01*
X52310000Y-37360000D02*
X28210000Y-37360000D01*
X28210000Y-37360000D02*
X28210000Y-38760000D01*
X28210000Y-38760000D02*
X26400000Y-38760000D01*
X3100000Y-27300000D02*
X250000Y-27300000D01*
X250000Y-27300000D02*
X250000Y-30150000D01*
G04 #@! TO.C,J1*
X60220000Y-43790000D02*
X62880000Y-43790000D01*
X60220000Y-33570000D02*
X60220000Y-43790000D01*
X62880000Y-33570000D02*
X62880000Y-43790000D01*
X60220000Y-33570000D02*
X62880000Y-33570000D01*
X60220000Y-32300000D02*
X60220000Y-30970000D01*
X60220000Y-30970000D02*
X61550000Y-30970000D01*
G04 #@! TO.C,J2*
X52310000Y-21750000D02*
X52310000Y-16840000D01*
X52310000Y-16840000D02*
X42490000Y-16840000D01*
X42490000Y-16840000D02*
X42490000Y-19940000D01*
X42490000Y-19940000D02*
X41090000Y-19940000D01*
X41090000Y-19940000D02*
X41090000Y-21750000D01*
X52310000Y-21750000D02*
X52310000Y-26660000D01*
X52310000Y-26660000D02*
X42490000Y-26660000D01*
X42490000Y-26660000D02*
X42490000Y-23560000D01*
X42490000Y-23560000D02*
X41090000Y-23560000D01*
X41090000Y-23560000D02*
X41090000Y-21750000D01*
X52550000Y-19450000D02*
X52550000Y-16600000D01*
X52550000Y-16600000D02*
X49700000Y-16600000D01*
G04 #@! TO.C,J7*
X42230000Y-41730000D02*
X39570000Y-41730000D01*
X42230000Y-44330000D02*
X42230000Y-41730000D01*
X39570000Y-44330000D02*
X39570000Y-41730000D01*
X42230000Y-44330000D02*
X39570000Y-44330000D01*
X42230000Y-45600000D02*
X42230000Y-46930000D01*
X42230000Y-46930000D02*
X40900000Y-46930000D01*
G04 #@! TO.C,JP1*
X55570000Y-30980000D02*
X56900000Y-30980000D01*
X55570000Y-32310000D02*
X55570000Y-30980000D01*
X55570000Y-33580000D02*
X58230000Y-33580000D01*
X58230000Y-33580000D02*
X58230000Y-38720000D01*
X55570000Y-33580000D02*
X55570000Y-38720000D01*
X55570000Y-38720000D02*
X58230000Y-38720000D01*
G04 #@! TO.C,JP2*
X26670000Y-15830000D02*
X28000000Y-15830000D01*
X26670000Y-17160000D02*
X26670000Y-15830000D01*
X26670000Y-18430000D02*
X29330000Y-18430000D01*
X29330000Y-18430000D02*
X29330000Y-23570000D01*
X26670000Y-18430000D02*
X26670000Y-23570000D01*
X26670000Y-23570000D02*
X29330000Y-23570000D01*
G04 #@! TO.C,JP3*
X37770000Y-41070000D02*
X37770000Y-42400000D01*
X36440000Y-41070000D02*
X37770000Y-41070000D01*
X35170000Y-41070000D02*
X35170000Y-43730000D01*
X35170000Y-43730000D02*
X30030000Y-43730000D01*
X35170000Y-41070000D02*
X30030000Y-41070000D01*
X30030000Y-41070000D02*
X30030000Y-43730000D01*
G04 #@! TO.C,Q1*
X34130000Y-44650000D02*
X30530000Y-44650000D01*
X34168478Y-44661522D02*
G75*
G02X32330000Y-49100000I-1838478J-1838478D01*
G01*
X30491522Y-44661522D02*
G75*
G03X32330000Y-49100000I1838478J-1838478D01*
G01*
G04 #@! TO.C,J6*
X50400000Y-9710000D02*
X49800000Y-9710000D01*
X50100000Y-9110000D02*
X50400000Y-9710000D01*
X49800000Y-9710000D02*
X50100000Y-9110000D01*
X45850000Y1810000D02*
X46100000Y3310000D01*
X44350000Y1810000D02*
X45850000Y1810000D01*
X44100000Y3310000D02*
X44350000Y1810000D01*
X46100000Y3310000D02*
X44100000Y3310000D01*
X50850000Y1810000D02*
X51100000Y3310000D01*
X49350000Y1810000D02*
X50850000Y1810000D01*
X49100000Y3310000D02*
X49350000Y1810000D01*
X51100000Y3310000D02*
X49100000Y3310000D01*
X41490000Y1810000D02*
X53710000Y1810000D01*
X41490000Y10000D02*
X41490000Y1810000D01*
X53710000Y10000D02*
X41490000Y10000D01*
X53710000Y1810000D02*
X53710000Y10000D01*
X41490000Y-8910000D02*
X53710000Y-8910000D01*
X41490000Y3310000D02*
X41490000Y-8910000D01*
X53710000Y3310000D02*
X41490000Y3310000D01*
X53710000Y-8910000D02*
X53710000Y3310000D01*
G04 #@! TO.C,J8*
X27710000Y-8910000D02*
X27710000Y3310000D01*
X27710000Y3310000D02*
X15490000Y3310000D01*
X15490000Y3310000D02*
X15490000Y-8910000D01*
X15490000Y-8910000D02*
X27710000Y-8910000D01*
X27710000Y1810000D02*
X27710000Y10000D01*
X27710000Y10000D02*
X15490000Y10000D01*
X15490000Y10000D02*
X15490000Y1810000D01*
X15490000Y1810000D02*
X27710000Y1810000D01*
X25100000Y3310000D02*
X23100000Y3310000D01*
X23100000Y3310000D02*
X23350000Y1810000D01*
X23350000Y1810000D02*
X24850000Y1810000D01*
X24850000Y1810000D02*
X25100000Y3310000D01*
X20100000Y3310000D02*
X18100000Y3310000D01*
X18100000Y3310000D02*
X18350000Y1810000D01*
X18350000Y1810000D02*
X19850000Y1810000D01*
X19850000Y1810000D02*
X20100000Y3310000D01*
X23800000Y-9710000D02*
X24100000Y-9110000D01*
X24100000Y-9110000D02*
X24400000Y-9710000D01*
X24400000Y-9710000D02*
X23800000Y-9710000D01*
G04 #@! TO.C,J9*
X37400000Y-9710000D02*
X36800000Y-9710000D01*
X37100000Y-9110000D02*
X37400000Y-9710000D01*
X36800000Y-9710000D02*
X37100000Y-9110000D01*
X32850000Y1810000D02*
X33100000Y3310000D01*
X31350000Y1810000D02*
X32850000Y1810000D01*
X31100000Y3310000D02*
X31350000Y1810000D01*
X33100000Y3310000D02*
X31100000Y3310000D01*
X37850000Y1810000D02*
X38100000Y3310000D01*
X36350000Y1810000D02*
X37850000Y1810000D01*
X36100000Y3310000D02*
X36350000Y1810000D01*
X38100000Y3310000D02*
X36100000Y3310000D01*
X28490000Y1810000D02*
X40710000Y1810000D01*
X28490000Y10000D02*
X28490000Y1810000D01*
X40710000Y10000D02*
X28490000Y10000D01*
X40710000Y1810000D02*
X40710000Y10000D01*
X28490000Y-8910000D02*
X40710000Y-8910000D01*
X28490000Y3310000D02*
X28490000Y-8910000D01*
X40710000Y3310000D02*
X28490000Y3310000D01*
X40710000Y-8910000D02*
X40710000Y3310000D01*
G04 #@! TO.C,J10*
X14710000Y-8910000D02*
X14710000Y3310000D01*
X14710000Y3310000D02*
X2490000Y3310000D01*
X2490000Y3310000D02*
X2490000Y-8910000D01*
X2490000Y-8910000D02*
X14710000Y-8910000D01*
X14710000Y1810000D02*
X14710000Y10000D01*
X14710000Y10000D02*
X2490000Y10000D01*
X2490000Y10000D02*
X2490000Y1810000D01*
X2490000Y1810000D02*
X14710000Y1810000D01*
X12100000Y3310000D02*
X10100000Y3310000D01*
X10100000Y3310000D02*
X10350000Y1810000D01*
X10350000Y1810000D02*
X11850000Y1810000D01*
X11850000Y1810000D02*
X12100000Y3310000D01*
X7100000Y3310000D02*
X5100000Y3310000D01*
X5100000Y3310000D02*
X5350000Y1810000D01*
X5350000Y1810000D02*
X6850000Y1810000D01*
X6850000Y1810000D02*
X7100000Y3310000D01*
X10800000Y-9710000D02*
X11100000Y-9110000D01*
X11100000Y-9110000D02*
X11400000Y-9710000D01*
X11400000Y-9710000D02*
X10800000Y-9710000D01*
G04 #@! TO.C,J11*
X66710000Y-8910000D02*
X66710000Y3310000D01*
X66710000Y3310000D02*
X54490000Y3310000D01*
X54490000Y3310000D02*
X54490000Y-8910000D01*
X54490000Y-8910000D02*
X66710000Y-8910000D01*
X66710000Y1810000D02*
X66710000Y10000D01*
X66710000Y10000D02*
X54490000Y10000D01*
X54490000Y10000D02*
X54490000Y1810000D01*
X54490000Y1810000D02*
X66710000Y1810000D01*
X64100000Y3310000D02*
X62100000Y3310000D01*
X62100000Y3310000D02*
X62350000Y1810000D01*
X62350000Y1810000D02*
X63850000Y1810000D01*
X63850000Y1810000D02*
X64100000Y3310000D01*
X59100000Y3310000D02*
X57100000Y3310000D01*
X57100000Y3310000D02*
X57350000Y1810000D01*
X57350000Y1810000D02*
X58850000Y1810000D01*
X58850000Y1810000D02*
X59100000Y3310000D01*
X62800000Y-9710000D02*
X63100000Y-9110000D01*
X63100000Y-9110000D02*
X63400000Y-9710000D01*
X63400000Y-9710000D02*
X62800000Y-9710000D01*
G04 #@! TO.C,R1*
X43460000Y-47460000D02*
X43130000Y-47460000D01*
X43130000Y-47460000D02*
X43130000Y-40920000D01*
X43130000Y-40920000D02*
X43460000Y-40920000D01*
X45540000Y-47460000D02*
X45870000Y-47460000D01*
X45870000Y-47460000D02*
X45870000Y-40920000D01*
X45870000Y-40920000D02*
X45540000Y-40920000D01*
G04 #@! TO.C,R2*
X47480000Y-52270000D02*
X47480000Y-51940000D01*
X40940000Y-52270000D02*
X47480000Y-52270000D01*
X40940000Y-51940000D02*
X40940000Y-52270000D01*
X47480000Y-49530000D02*
X47480000Y-49860000D01*
X40940000Y-49530000D02*
X47480000Y-49530000D01*
X40940000Y-49860000D02*
X40940000Y-49530000D01*
G04 #@! TO.C,R3*
X31140000Y-49860000D02*
X31140000Y-49530000D01*
X31140000Y-49530000D02*
X37680000Y-49530000D01*
X37680000Y-49530000D02*
X37680000Y-49860000D01*
X31140000Y-51940000D02*
X31140000Y-52270000D01*
X31140000Y-52270000D02*
X37680000Y-52270000D01*
X37680000Y-52270000D02*
X37680000Y-51940000D01*
G04 #@! TO.C,R5*
X50720000Y-49860000D02*
X50720000Y-49530000D01*
X50720000Y-49530000D02*
X57260000Y-49530000D01*
X57260000Y-49530000D02*
X57260000Y-49860000D01*
X50720000Y-51940000D02*
X50720000Y-52270000D01*
X50720000Y-52270000D02*
X57260000Y-52270000D01*
X57260000Y-52270000D02*
X57260000Y-51940000D01*
G04 #@! TO.C,R6*
X50720000Y-46430000D02*
X50720000Y-46760000D01*
X57260000Y-46430000D02*
X50720000Y-46430000D01*
X57260000Y-46760000D02*
X57260000Y-46430000D01*
X50720000Y-49170000D02*
X50720000Y-48840000D01*
X57260000Y-49170000D02*
X50720000Y-49170000D01*
X57260000Y-48840000D02*
X57260000Y-49170000D01*
G04 #@! TO.C,J12*
X55920000Y-22800000D02*
X68140000Y-22800000D01*
X68140000Y-22800000D02*
X68140000Y-10580000D01*
X68140000Y-10580000D02*
X55920000Y-10580000D01*
X55920000Y-10580000D02*
X55920000Y-22800000D01*
X66640000Y-22800000D02*
X64840000Y-22800000D01*
X64840000Y-22800000D02*
X64840000Y-10580000D01*
X64840000Y-10580000D02*
X66640000Y-10580000D01*
X66640000Y-10580000D02*
X66640000Y-22800000D01*
X68140000Y-20190000D02*
X68140000Y-18190000D01*
X68140000Y-18190000D02*
X66640000Y-18440000D01*
X66640000Y-18440000D02*
X66640000Y-19940000D01*
X66640000Y-19940000D02*
X68140000Y-20190000D01*
X68140000Y-15190000D02*
X68140000Y-13190000D01*
X68140000Y-13190000D02*
X66640000Y-13440000D01*
X66640000Y-13440000D02*
X66640000Y-14940000D01*
X66640000Y-14940000D02*
X68140000Y-15190000D01*
X55120000Y-18890000D02*
X55720000Y-19190000D01*
X55720000Y-19190000D02*
X55120000Y-19490000D01*
X55120000Y-19490000D02*
X55120000Y-18890000D01*
G04 #@! TO.C,R4*
D13*
X25782380Y-47656666D02*
X25306190Y-47990000D01*
X25782380Y-48228095D02*
X24782380Y-48228095D01*
X24782380Y-47847142D01*
X24830000Y-47751904D01*
X24877619Y-47704285D01*
X24972857Y-47656666D01*
X25115714Y-47656666D01*
X25210952Y-47704285D01*
X25258571Y-47751904D01*
X25306190Y-47847142D01*
X25306190Y-48228095D01*
X25115714Y-46799523D02*
X25782380Y-46799523D01*
X24734761Y-47037619D02*
X25449047Y-47275714D01*
X25449047Y-46656666D01*
G04 #@! TO.C,J5*
D10*
X1111904Y-40308333D02*
X1707142Y-40308333D01*
X992857Y-40665476D02*
X1409523Y-39415476D01*
X1826190Y-40665476D01*
X2064285Y-39415476D02*
X2778571Y-39415476D01*
X2421428Y-40665476D02*
X2421428Y-39415476D01*
X3076190Y-39415476D02*
X3909523Y-40665476D01*
X3909523Y-39415476D02*
X3076190Y-40665476D01*
X4326190Y-39534523D02*
X4385714Y-39475000D01*
X4504761Y-39415476D01*
X4802380Y-39415476D01*
X4921428Y-39475000D01*
X4980952Y-39534523D01*
X5040476Y-39653571D01*
X5040476Y-39772619D01*
X4980952Y-39951190D01*
X4266666Y-40665476D01*
X5040476Y-40665476D01*
X6111904Y-39832142D02*
X6111904Y-40665476D01*
X5814285Y-39355952D02*
X5516666Y-40248809D01*
X6290476Y-40248809D01*
X6766666Y-39832142D02*
X6766666Y-41082142D01*
X6766666Y-39891666D02*
X6885714Y-39832142D01*
X7123809Y-39832142D01*
X7242857Y-39891666D01*
X7302380Y-39951190D01*
X7361904Y-40070238D01*
X7361904Y-40427380D01*
X7302380Y-40546428D01*
X7242857Y-40605952D01*
X7123809Y-40665476D01*
X6885714Y-40665476D01*
X6766666Y-40605952D01*
X7897619Y-40665476D02*
X7897619Y-39832142D01*
X7897619Y-39415476D02*
X7838095Y-39475000D01*
X7897619Y-39534523D01*
X7957142Y-39475000D01*
X7897619Y-39415476D01*
X7897619Y-39534523D01*
X8492857Y-39832142D02*
X8492857Y-40665476D01*
X8492857Y-39951190D02*
X8552380Y-39891666D01*
X8671428Y-39832142D01*
X8850000Y-39832142D01*
X8969047Y-39891666D01*
X9028571Y-40010714D01*
X9028571Y-40665476D01*
G04 #@! TO.C,J1*
X60329761Y-30265476D02*
X60329761Y-29015476D01*
X60865476Y-29134523D02*
X60925000Y-29075000D01*
X61044047Y-29015476D01*
X61341666Y-29015476D01*
X61460714Y-29075000D01*
X61520238Y-29134523D01*
X61579761Y-29253571D01*
X61579761Y-29372619D01*
X61520238Y-29551190D01*
X60805952Y-30265476D01*
X61579761Y-30265476D01*
X62829761Y-30146428D02*
X62770238Y-30205952D01*
X62591666Y-30265476D01*
X62472619Y-30265476D01*
X62294047Y-30205952D01*
X62175000Y-30086904D01*
X62115476Y-29967857D01*
X62055952Y-29729761D01*
X62055952Y-29551190D01*
X62115476Y-29313095D01*
X62175000Y-29194047D01*
X62294047Y-29075000D01*
X62472619Y-29015476D01*
X62591666Y-29015476D01*
X62770238Y-29075000D01*
X62829761Y-29134523D01*
G04 #@! TO.C,J2*
X39910714Y-23238095D02*
X39910714Y-22821428D01*
X40565476Y-22642857D02*
X40565476Y-23238095D01*
X39315476Y-23238095D01*
X39315476Y-22642857D01*
X40565476Y-22107142D02*
X39315476Y-22107142D01*
X39315476Y-21630952D01*
X39375000Y-21511904D01*
X39434523Y-21452380D01*
X39553571Y-21392857D01*
X39732142Y-21392857D01*
X39851190Y-21452380D01*
X39910714Y-21511904D01*
X39970238Y-21630952D01*
X39970238Y-22107142D01*
X40505952Y-20916666D02*
X40565476Y-20738095D01*
X40565476Y-20440476D01*
X40505952Y-20321428D01*
X40446428Y-20261904D01*
X40327380Y-20202380D01*
X40208333Y-20202380D01*
X40089285Y-20261904D01*
X40029761Y-20321428D01*
X39970238Y-20440476D01*
X39910714Y-20678571D01*
X39851190Y-20797619D01*
X39791666Y-20857142D01*
X39672619Y-20916666D01*
X39553571Y-20916666D01*
X39434523Y-20857142D01*
X39375000Y-20797619D01*
X39315476Y-20678571D01*
X39315476Y-20380952D01*
X39375000Y-20202380D01*
G04 #@! TO.C,JP1*
D13*
X53952380Y-33183333D02*
X54666666Y-33183333D01*
X54809523Y-33230952D01*
X54904761Y-33326190D01*
X54952380Y-33469047D01*
X54952380Y-33564285D01*
X54952380Y-32707142D02*
X53952380Y-32707142D01*
X53952380Y-32326190D01*
X54000000Y-32230952D01*
X54047619Y-32183333D01*
X54142857Y-32135714D01*
X54285714Y-32135714D01*
X54380952Y-32183333D01*
X54428571Y-32230952D01*
X54476190Y-32326190D01*
X54476190Y-32707142D01*
X54952380Y-31183333D02*
X54952380Y-31754761D01*
X54952380Y-31469047D02*
X53952380Y-31469047D01*
X54095238Y-31564285D01*
X54190476Y-31659523D01*
X54238095Y-31754761D01*
G04 #@! TO.C,JP2*
X24952380Y-22683333D02*
X25666666Y-22683333D01*
X25809523Y-22730952D01*
X25904761Y-22826190D01*
X25952380Y-22969047D01*
X25952380Y-23064285D01*
X25952380Y-22207142D02*
X24952380Y-22207142D01*
X24952380Y-21826190D01*
X25000000Y-21730952D01*
X25047619Y-21683333D01*
X25142857Y-21635714D01*
X25285714Y-21635714D01*
X25380952Y-21683333D01*
X25428571Y-21730952D01*
X25476190Y-21826190D01*
X25476190Y-22207142D01*
X25047619Y-21254761D02*
X25000000Y-21207142D01*
X24952380Y-21111904D01*
X24952380Y-20873809D01*
X25000000Y-20778571D01*
X25047619Y-20730952D01*
X25142857Y-20683333D01*
X25238095Y-20683333D01*
X25380952Y-20730952D01*
X25952380Y-21302380D01*
X25952380Y-20683333D01*
G04 #@! TO.C,JP3*
D10*
X28542857Y-39815476D02*
X28542857Y-38565476D01*
X29019047Y-38565476D01*
X29138095Y-38625000D01*
X29197619Y-38684523D01*
X29257142Y-38803571D01*
X29257142Y-38982142D01*
X29197619Y-39101190D01*
X29138095Y-39160714D01*
X29019047Y-39220238D01*
X28542857Y-39220238D01*
X29733333Y-39755952D02*
X29911904Y-39815476D01*
X30209523Y-39815476D01*
X30328571Y-39755952D01*
X30388095Y-39696428D01*
X30447619Y-39577380D01*
X30447619Y-39458333D01*
X30388095Y-39339285D01*
X30328571Y-39279761D01*
X30209523Y-39220238D01*
X29971428Y-39160714D01*
X29852380Y-39101190D01*
X29792857Y-39041666D01*
X29733333Y-38922619D01*
X29733333Y-38803571D01*
X29792857Y-38684523D01*
X29852380Y-38625000D01*
X29971428Y-38565476D01*
X30269047Y-38565476D01*
X30447619Y-38625000D01*
X30983333Y-38565476D02*
X30983333Y-39577380D01*
X31042857Y-39696428D01*
X31102380Y-39755952D01*
X31221428Y-39815476D01*
X31459523Y-39815476D01*
X31578571Y-39755952D01*
X31638095Y-39696428D01*
X31697619Y-39577380D01*
X31697619Y-38565476D01*
X31995238Y-39934523D02*
X32947619Y-39934523D01*
X33780952Y-39755952D02*
X33661904Y-39815476D01*
X33423809Y-39815476D01*
X33304761Y-39755952D01*
X33245238Y-39696428D01*
X33185714Y-39577380D01*
X33185714Y-39220238D01*
X33245238Y-39101190D01*
X33304761Y-39041666D01*
X33423809Y-38982142D01*
X33661904Y-38982142D01*
X33780952Y-39041666D01*
X34495238Y-39815476D02*
X34376190Y-39755952D01*
X34316666Y-39696428D01*
X34257142Y-39577380D01*
X34257142Y-39220238D01*
X34316666Y-39101190D01*
X34376190Y-39041666D01*
X34495238Y-38982142D01*
X34673809Y-38982142D01*
X34792857Y-39041666D01*
X34852380Y-39101190D01*
X34911904Y-39220238D01*
X34911904Y-39577380D01*
X34852380Y-39696428D01*
X34792857Y-39755952D01*
X34673809Y-39815476D01*
X34495238Y-39815476D01*
X35447619Y-38982142D02*
X35447619Y-39815476D01*
X35447619Y-39101190D02*
X35507142Y-39041666D01*
X35626190Y-38982142D01*
X35804761Y-38982142D01*
X35923809Y-39041666D01*
X35983333Y-39160714D01*
X35983333Y-39815476D01*
X36400000Y-38982142D02*
X36876190Y-38982142D01*
X36578571Y-38565476D02*
X36578571Y-39636904D01*
X36638095Y-39755952D01*
X36757142Y-39815476D01*
X36876190Y-39815476D01*
X37292857Y-39815476D02*
X37292857Y-38982142D01*
X37292857Y-39220238D02*
X37352380Y-39101190D01*
X37411904Y-39041666D01*
X37530952Y-38982142D01*
X37650000Y-38982142D01*
X38245238Y-39815476D02*
X38126190Y-39755952D01*
X38066666Y-39696428D01*
X38007142Y-39577380D01*
X38007142Y-39220238D01*
X38066666Y-39101190D01*
X38126190Y-39041666D01*
X38245238Y-38982142D01*
X38423809Y-38982142D01*
X38542857Y-39041666D01*
X38602380Y-39101190D01*
X38661904Y-39220238D01*
X38661904Y-39577380D01*
X38602380Y-39696428D01*
X38542857Y-39755952D01*
X38423809Y-39815476D01*
X38245238Y-39815476D01*
X39376190Y-39815476D02*
X39257142Y-39755952D01*
X39197619Y-39636904D01*
X39197619Y-38565476D01*
G04 #@! TO.C,Q1*
D13*
X36104761Y-47447619D02*
X36009523Y-47400000D01*
X35914285Y-47304761D01*
X35771428Y-47161904D01*
X35676190Y-47114285D01*
X35580952Y-47114285D01*
X35628571Y-47352380D02*
X35533333Y-47304761D01*
X35438095Y-47209523D01*
X35390476Y-47019047D01*
X35390476Y-46685714D01*
X35438095Y-46495238D01*
X35533333Y-46400000D01*
X35628571Y-46352380D01*
X35819047Y-46352380D01*
X35914285Y-46400000D01*
X36009523Y-46495238D01*
X36057142Y-46685714D01*
X36057142Y-47019047D01*
X36009523Y-47209523D01*
X35914285Y-47304761D01*
X35819047Y-47352380D01*
X35628571Y-47352380D01*
X37009523Y-47352380D02*
X36438095Y-47352380D01*
X36723809Y-47352380D02*
X36723809Y-46352380D01*
X36628571Y-46495238D01*
X36533333Y-46590476D01*
X36438095Y-46638095D01*
G04 #@! TO.C,J6*
D10*
X44861904Y-11265476D02*
X44147619Y-11265476D01*
X44504761Y-11265476D02*
X44504761Y-10015476D01*
X44385714Y-10194047D01*
X44266666Y-10313095D01*
X44147619Y-10372619D01*
X45338095Y-10134523D02*
X45397619Y-10075000D01*
X45516666Y-10015476D01*
X45814285Y-10015476D01*
X45933333Y-10075000D01*
X45992857Y-10134523D01*
X46052380Y-10253571D01*
X46052380Y-10372619D01*
X45992857Y-10551190D01*
X45278571Y-11265476D01*
X46052380Y-11265476D01*
X46409523Y-10015476D02*
X46826190Y-11265476D01*
X47242857Y-10015476D01*
X48790476Y-11265476D02*
X48671428Y-11205952D01*
X48611904Y-11146428D01*
X48552380Y-11027380D01*
X48552380Y-10670238D01*
X48611904Y-10551190D01*
X48671428Y-10491666D01*
X48790476Y-10432142D01*
X48969047Y-10432142D01*
X49088095Y-10491666D01*
X49147619Y-10551190D01*
X49207142Y-10670238D01*
X49207142Y-11027380D01*
X49147619Y-11146428D01*
X49088095Y-11205952D01*
X48969047Y-11265476D01*
X48790476Y-11265476D01*
X50278571Y-10432142D02*
X50278571Y-11265476D01*
X49742857Y-10432142D02*
X49742857Y-11086904D01*
X49802380Y-11205952D01*
X49921428Y-11265476D01*
X50099999Y-11265476D01*
X50219047Y-11205952D01*
X50278571Y-11146428D01*
X50695238Y-10432142D02*
X51171428Y-10432142D01*
X50873809Y-10015476D02*
X50873809Y-11086904D01*
X50933333Y-11205952D01*
X51052380Y-11265476D01*
X51171428Y-11265476D01*
G04 #@! TO.C,J8*
X19397619Y-10015476D02*
X18802380Y-10015476D01*
X18742857Y-10610714D01*
X18802380Y-10551190D01*
X18921428Y-10491666D01*
X19219047Y-10491666D01*
X19338095Y-10551190D01*
X19397619Y-10610714D01*
X19457142Y-10729761D01*
X19457142Y-11027380D01*
X19397619Y-11146428D01*
X19338095Y-11205952D01*
X19219047Y-11265476D01*
X18921428Y-11265476D01*
X18802380Y-11205952D01*
X18742857Y-11146428D01*
X19814285Y-10015476D02*
X20230952Y-11265476D01*
X20647619Y-10015476D01*
X22195238Y-11265476D02*
X22076190Y-11205952D01*
X22016666Y-11146428D01*
X21957142Y-11027380D01*
X21957142Y-10670238D01*
X22016666Y-10551190D01*
X22076190Y-10491666D01*
X22195238Y-10432142D01*
X22373809Y-10432142D01*
X22492857Y-10491666D01*
X22552380Y-10551190D01*
X22611904Y-10670238D01*
X22611904Y-11027380D01*
X22552380Y-11146428D01*
X22492857Y-11205952D01*
X22373809Y-11265476D01*
X22195238Y-11265476D01*
X23683333Y-10432142D02*
X23683333Y-11265476D01*
X23147619Y-10432142D02*
X23147619Y-11086904D01*
X23207142Y-11205952D01*
X23326190Y-11265476D01*
X23504761Y-11265476D01*
X23623809Y-11205952D01*
X23683333Y-11146428D01*
X24100000Y-10432142D02*
X24576190Y-10432142D01*
X24278571Y-10015476D02*
X24278571Y-11086904D01*
X24338095Y-11205952D01*
X24457142Y-11265476D01*
X24576190Y-11265476D01*
G04 #@! TO.C,J9*
X31177380Y-10015476D02*
X30582142Y-10015476D01*
X30522619Y-10610714D01*
X30582142Y-10551190D01*
X30701190Y-10491666D01*
X30998809Y-10491666D01*
X31117857Y-10551190D01*
X31177380Y-10610714D01*
X31236904Y-10729761D01*
X31236904Y-11027380D01*
X31177380Y-11146428D01*
X31117857Y-11205952D01*
X30998809Y-11265476D01*
X30701190Y-11265476D01*
X30582142Y-11205952D01*
X30522619Y-11146428D01*
X31594047Y-10015476D02*
X32010714Y-11265476D01*
X32427380Y-10015476D01*
X32784523Y-11205952D02*
X32963095Y-11265476D01*
X33260714Y-11265476D01*
X33379761Y-11205952D01*
X33439285Y-11146428D01*
X33498809Y-11027380D01*
X33498809Y-10908333D01*
X33439285Y-10789285D01*
X33379761Y-10729761D01*
X33260714Y-10670238D01*
X33022619Y-10610714D01*
X32903571Y-10551190D01*
X32844047Y-10491666D01*
X32784523Y-10372619D01*
X32784523Y-10253571D01*
X32844047Y-10134523D01*
X32903571Y-10075000D01*
X33022619Y-10015476D01*
X33320238Y-10015476D01*
X33498809Y-10075000D01*
X34451190Y-10610714D02*
X34629761Y-10670238D01*
X34689285Y-10729761D01*
X34748809Y-10848809D01*
X34748809Y-11027380D01*
X34689285Y-11146428D01*
X34629761Y-11205952D01*
X34510714Y-11265476D01*
X34034523Y-11265476D01*
X34034523Y-10015476D01*
X34451190Y-10015476D01*
X34570238Y-10075000D01*
X34629761Y-10134523D01*
X34689285Y-10253571D01*
X34689285Y-10372619D01*
X34629761Y-10491666D01*
X34570238Y-10551190D01*
X34451190Y-10610714D01*
X34034523Y-10610714D01*
X36415476Y-11265476D02*
X36296428Y-11205952D01*
X36236904Y-11146428D01*
X36177380Y-11027380D01*
X36177380Y-10670238D01*
X36236904Y-10551190D01*
X36296428Y-10491666D01*
X36415476Y-10432142D01*
X36594047Y-10432142D01*
X36713095Y-10491666D01*
X36772619Y-10551190D01*
X36832142Y-10670238D01*
X36832142Y-11027380D01*
X36772619Y-11146428D01*
X36713095Y-11205952D01*
X36594047Y-11265476D01*
X36415476Y-11265476D01*
X37903571Y-10432142D02*
X37903571Y-11265476D01*
X37367857Y-10432142D02*
X37367857Y-11086904D01*
X37427380Y-11205952D01*
X37546428Y-11265476D01*
X37725000Y-11265476D01*
X37844047Y-11205952D01*
X37903571Y-11146428D01*
X38320238Y-10432142D02*
X38796428Y-10432142D01*
X38498809Y-10015476D02*
X38498809Y-11086904D01*
X38558333Y-11205952D01*
X38677380Y-11265476D01*
X38796428Y-11265476D01*
G04 #@! TO.C,J11*
X57961904Y-24765476D02*
X57247619Y-24765476D01*
X57604761Y-24765476D02*
X57604761Y-23515476D01*
X57485714Y-23694047D01*
X57366666Y-23813095D01*
X57247619Y-23872619D01*
X58438095Y-23634523D02*
X58497619Y-23575000D01*
X58616666Y-23515476D01*
X58914285Y-23515476D01*
X59033333Y-23575000D01*
X59092857Y-23634523D01*
X59152380Y-23753571D01*
X59152380Y-23872619D01*
X59092857Y-24051190D01*
X58378571Y-24765476D01*
X59152380Y-24765476D01*
X59509523Y-23515476D02*
X59926190Y-24765476D01*
X60342857Y-23515476D01*
X61890476Y-24765476D02*
X61771428Y-24705952D01*
X61711904Y-24646428D01*
X61652380Y-24527380D01*
X61652380Y-24170238D01*
X61711904Y-24051190D01*
X61771428Y-23991666D01*
X61890476Y-23932142D01*
X62069047Y-23932142D01*
X62188095Y-23991666D01*
X62247619Y-24051190D01*
X62307142Y-24170238D01*
X62307142Y-24527380D01*
X62247619Y-24646428D01*
X62188095Y-24705952D01*
X62069047Y-24765476D01*
X61890476Y-24765476D01*
X63378571Y-23932142D02*
X63378571Y-24765476D01*
X62842857Y-23932142D02*
X62842857Y-24586904D01*
X62902380Y-24705952D01*
X63021428Y-24765476D01*
X63199999Y-24765476D01*
X63319047Y-24705952D01*
X63378571Y-24646428D01*
X63795238Y-23932142D02*
X64271428Y-23932142D01*
X63973809Y-23515476D02*
X63973809Y-24586904D01*
X64033333Y-24705952D01*
X64152380Y-24765476D01*
X64271428Y-24765476D01*
G04 #@! TO.C,R1*
D13*
X47152380Y-44356666D02*
X46676190Y-44690000D01*
X47152380Y-44928095D02*
X46152380Y-44928095D01*
X46152380Y-44547142D01*
X46200000Y-44451904D01*
X46247619Y-44404285D01*
X46342857Y-44356666D01*
X46485714Y-44356666D01*
X46580952Y-44404285D01*
X46628571Y-44451904D01*
X46676190Y-44547142D01*
X46676190Y-44928095D01*
X47152380Y-43404285D02*
X47152380Y-43975714D01*
X47152380Y-43690000D02*
X46152380Y-43690000D01*
X46295238Y-43785238D01*
X46390476Y-43880476D01*
X46438095Y-43975714D01*
G04 #@! TO.C,R2*
X41633333Y-49252380D02*
X41300000Y-48776190D01*
X41061904Y-49252380D02*
X41061904Y-48252380D01*
X41442857Y-48252380D01*
X41538095Y-48300000D01*
X41585714Y-48347619D01*
X41633333Y-48442857D01*
X41633333Y-48585714D01*
X41585714Y-48680952D01*
X41538095Y-48728571D01*
X41442857Y-48776190D01*
X41061904Y-48776190D01*
X42014285Y-48347619D02*
X42061904Y-48300000D01*
X42157142Y-48252380D01*
X42395238Y-48252380D01*
X42490476Y-48300000D01*
X42538095Y-48347619D01*
X42585714Y-48442857D01*
X42585714Y-48538095D01*
X42538095Y-48680952D01*
X41966666Y-49252380D01*
X42585714Y-49252380D01*
G04 #@! TO.C,R3*
X35733333Y-49252380D02*
X35400000Y-48776190D01*
X35161904Y-49252380D02*
X35161904Y-48252380D01*
X35542857Y-48252380D01*
X35638095Y-48300000D01*
X35685714Y-48347619D01*
X35733333Y-48442857D01*
X35733333Y-48585714D01*
X35685714Y-48680952D01*
X35638095Y-48728571D01*
X35542857Y-48776190D01*
X35161904Y-48776190D01*
X36066666Y-48252380D02*
X36685714Y-48252380D01*
X36352380Y-48633333D01*
X36495238Y-48633333D01*
X36590476Y-48680952D01*
X36638095Y-48728571D01*
X36685714Y-48823809D01*
X36685714Y-49061904D01*
X36638095Y-49157142D01*
X36590476Y-49204761D01*
X36495238Y-49252380D01*
X36209523Y-49252380D01*
X36114285Y-49204761D01*
X36066666Y-49157142D01*
G04 #@! TO.C,R5*
X59633333Y-51352380D02*
X59300000Y-50876190D01*
X59061904Y-51352380D02*
X59061904Y-50352380D01*
X59442857Y-50352380D01*
X59538095Y-50400000D01*
X59585714Y-50447619D01*
X59633333Y-50542857D01*
X59633333Y-50685714D01*
X59585714Y-50780952D01*
X59538095Y-50828571D01*
X59442857Y-50876190D01*
X59061904Y-50876190D01*
X60538095Y-50352380D02*
X60061904Y-50352380D01*
X60014285Y-50828571D01*
X60061904Y-50780952D01*
X60157142Y-50733333D01*
X60395238Y-50733333D01*
X60490476Y-50780952D01*
X60538095Y-50828571D01*
X60585714Y-50923809D01*
X60585714Y-51161904D01*
X60538095Y-51257142D01*
X60490476Y-51304761D01*
X60395238Y-51352380D01*
X60157142Y-51352380D01*
X60061904Y-51304761D01*
X60014285Y-51257142D01*
G04 #@! TO.C,R6*
X59633333Y-48252380D02*
X59300000Y-47776190D01*
X59061904Y-48252380D02*
X59061904Y-47252380D01*
X59442857Y-47252380D01*
X59538095Y-47300000D01*
X59585714Y-47347619D01*
X59633333Y-47442857D01*
X59633333Y-47585714D01*
X59585714Y-47680952D01*
X59538095Y-47728571D01*
X59442857Y-47776190D01*
X59061904Y-47776190D01*
X60490476Y-47252380D02*
X60300000Y-47252380D01*
X60204761Y-47300000D01*
X60157142Y-47347619D01*
X60061904Y-47490476D01*
X60014285Y-47680952D01*
X60014285Y-48061904D01*
X60061904Y-48157142D01*
X60109523Y-48204761D01*
X60204761Y-48252380D01*
X60395238Y-48252380D01*
X60490476Y-48204761D01*
X60538095Y-48157142D01*
X60585714Y-48061904D01*
X60585714Y-47823809D01*
X60538095Y-47728571D01*
X60490476Y-47680952D01*
X60395238Y-47633333D01*
X60204761Y-47633333D01*
X60109523Y-47680952D01*
X60061904Y-47728571D01*
X60014285Y-47823809D01*
G04 #@! TO.C,J12*
D10*
X57961904Y-26665476D02*
X57247619Y-26665476D01*
X57604761Y-26665476D02*
X57604761Y-25415476D01*
X57485714Y-25594047D01*
X57366666Y-25713095D01*
X57247619Y-25772619D01*
X58438095Y-25534523D02*
X58497619Y-25475000D01*
X58616666Y-25415476D01*
X58914285Y-25415476D01*
X59033333Y-25475000D01*
X59092857Y-25534523D01*
X59152380Y-25653571D01*
X59152380Y-25772619D01*
X59092857Y-25951190D01*
X58378571Y-26665476D01*
X59152380Y-26665476D01*
X59509523Y-25415476D02*
X59926190Y-26665476D01*
X60342857Y-25415476D01*
X61890476Y-26665476D02*
X61771428Y-26605952D01*
X61711904Y-26546428D01*
X61652380Y-26427380D01*
X61652380Y-26070238D01*
X61711904Y-25951190D01*
X61771428Y-25891666D01*
X61890476Y-25832142D01*
X62069047Y-25832142D01*
X62188095Y-25891666D01*
X62247619Y-25951190D01*
X62307142Y-26070238D01*
X62307142Y-26427380D01*
X62247619Y-26546428D01*
X62188095Y-26605952D01*
X62069047Y-26665476D01*
X61890476Y-26665476D01*
X63378571Y-25832142D02*
X63378571Y-26665476D01*
X62842857Y-25832142D02*
X62842857Y-26486904D01*
X62902380Y-26605952D01*
X63021428Y-26665476D01*
X63199999Y-26665476D01*
X63319047Y-26605952D01*
X63378571Y-26546428D01*
X63795238Y-25832142D02*
X64271428Y-25832142D01*
X63973809Y-25415476D02*
X63973809Y-26486904D01*
X64033333Y-26605952D01*
X64152380Y-26665476D01*
X64271428Y-26665476D01*
G04 #@! TD*
M02*
