M48
;DRILL file {KiCad (5.0.1-dev-70-gb7b125d83)} date 04/09/19 22:27:26
;FORMAT={2:4/ absolute / inch / suppress leading zeros}
FMAT,2
INCH,TZ
T1C0.0295
T2C0.0315
T3C0.0362
T4C0.0394
T5C0.0551
T6C0.0906
T7C0.1260
%
G90
G05
M72
T1
X12228Y-18307
X12728Y-18807
X13228Y-18307
T2
X19756Y-20039
X22756Y-20039
X19756Y-18819
X22756Y-18819
X10906Y-17197
X10906Y-20197
X12047Y-20039
X15047Y-20039
X15906Y-20039
X18906Y-20039
X17520Y-15898
X17520Y-18898
T3
X4724Y-5827
X4724Y-6811
X4724Y-7598
X4724Y-8583
T4
X1181Y-15906
X1181Y-16890
X2165Y-15906
X2165Y-16890
X3150Y-15906
X3150Y-16890
X4016Y-1260
X5000Y-1260
X5984Y-1260
X5984Y-20079
X6378Y-9134
X6969Y-1260
X7362Y-9134
X7441Y-20079
X7953Y-1260
X8346Y-9134
X8780Y-20079
X8937Y-1260
X9685Y-20039
X9921Y-1260
X10197Y-16299
X10906Y-1260
X11575Y-3661
X11575Y-4646
X11575Y-5630
X11890Y-1260
X12874Y-1260
X13858Y-1260
X14094Y-5984
X14094Y-6969
X14094Y-7953
X14843Y-1260
X15039Y-18543
X15827Y-1260
X16811Y-1260
X17795Y-1260
X18583Y-15984
X18780Y-1260
X19370Y-9882
X19528Y-15984
X19528Y-17402
X19764Y-1260
X20354Y-9882
X20472Y-15984
X20748Y-1260
X21063Y-12165
X21063Y-13150
X21063Y-14134
X21339Y-9882
X21732Y-1260
X22717Y-1260
X23701Y-1260
X24685Y-1260
X25669Y-1260
X11024Y-6756
X11024Y-7756
X11024Y-8756
X16102Y-16953
X16102Y-17953
X3470Y-21364
X3470Y-22364
X4470Y-21364
X4470Y-22364
X5470Y-21364
X5470Y-22364
X6470Y-21364
X6470Y-22364
X7470Y-21364
X7470Y-22364
X8470Y-21364
X8470Y-22364
X9470Y-21364
X9470Y-22364
X10470Y-21364
X10470Y-22364
X11470Y-21364
X11470Y-22364
X12470Y-21364
X12470Y-22364
X13470Y-21364
X13470Y-22364
X14470Y-21364
X14470Y-22364
X15470Y-21364
X15470Y-22364
X16470Y-21364
X16470Y-22364
X17470Y-21364
X17470Y-22364
X18470Y-21364
X18470Y-22364
X19470Y-21364
X19470Y-22364
X20470Y-21364
X20470Y-22364
X21470Y-21364
X21470Y-22364
X22470Y-21364
X22470Y-22364
X1417Y-18071
X2417Y-18071
X22402Y-12720
X22402Y-13720
X22402Y-14720
X24232Y-12717
X24232Y-13717
X24232Y-14717
X24232Y-15717
X24232Y-16717
X12346Y-16693
X13346Y-16693
X14346Y-16693
T5
X17756Y-2677
X19724Y-2677
X15650Y-6004
X15650Y-7657
X17815Y-6004
X17815Y-7657
X1299Y-11772
X1299Y-13937
X2953Y-11772
X2953Y-13937
X4606Y-11772
X4606Y-13937
X6260Y-11772
X6260Y-13937
X7913Y-11772
X7913Y-13937
X9567Y-11772
X9567Y-13937
X11220Y-11772
X11220Y-13937
X12874Y-11772
X12874Y-13937
X14528Y-11772
X14528Y-13937
X16181Y-11772
X16181Y-13937
X17835Y-11772
X17835Y-13937
X19488Y-11772
X19488Y-13937
X22874Y-2677
X24843Y-2677
X2402Y-2677
X4370Y-2677
X22846Y-5587
X22846Y-7555
X7520Y-2677
X9488Y-2677
X12638Y-2677
X14606Y-2677
T6
X3657Y-4618
X3657Y-9791
T7
X25197Y-22244
X7480Y-7283
X1543Y-21878
T0
M30
