G04 #@! TF.GenerationSoftware,KiCad,Pcbnew,(5.0.1-dev-70-gb7b125d83)*
G04 #@! TF.CreationDate,2019-03-06T23:18:23+01:00*
G04 #@! TF.ProjectId,ATX-breakout,4154582D627265616B6F75742E6B6963,rev?*
G04 #@! TF.SameCoordinates,Original*
G04 #@! TF.FileFunction,Soldermask,Bot*
G04 #@! TF.FilePolarity,Negative*
%FSLAX46Y46*%
G04 Gerber Fmt 4.6, Leading zero omitted, Abs format (unit mm)*
G04 Created by KiCad (PCBNEW (5.0.1-dev-70-gb7b125d83)) date 03/06/19 23:18:23*
%MOMM*%
%LPD*%
G01*
G04 APERTURE LIST*
%ADD10C,0.010000*%
%ADD11C,0.100000*%
%ADD12C,3.100000*%
%ADD13O,3.100000X3.700000*%
%ADD14R,2.100000X2.100000*%
%ADD15O,2.100000X2.100000*%
%ADD16O,3.700000X3.100000*%
%ADD17C,1.700000*%
%ADD18R,1.700000X1.700000*%
%ADD19O,2.400000X4.000000*%
%ADD20C,2.400000*%
%ADD21C,3.400000*%
%ADD22R,1.900000X1.900000*%
%ADD23C,1.900000*%
%ADD24C,2.000000*%
%ADD25O,2.000000X2.000000*%
G04 APERTURE END LIST*
D10*
G04 #@! TO.C,G\002A\002A\002A*
G36*
X111712081Y-56812640D02*
X110766183Y-57125473D01*
X110482103Y-57250277D01*
X109838274Y-57613902D01*
X109336729Y-58047037D01*
X108958545Y-58567376D01*
X108850895Y-58775333D01*
X108757421Y-58987867D01*
X108694816Y-59183714D01*
X108657001Y-59405008D01*
X108637894Y-59693888D01*
X108631417Y-60092488D01*
X108631000Y-60299333D01*
X108643245Y-60890491D01*
X108690667Y-61375422D01*
X108789295Y-61785255D01*
X108955156Y-62151121D01*
X109204281Y-62504150D01*
X109552699Y-62875471D01*
X110016437Y-63296215D01*
X110297282Y-63535456D01*
X110575640Y-63801906D01*
X110816008Y-64088996D01*
X110950630Y-64303020D01*
X111076806Y-64651007D01*
X111123085Y-64980932D01*
X111087282Y-65246732D01*
X111001667Y-65379333D01*
X110885386Y-65517107D01*
X110929727Y-65602538D01*
X111133759Y-65634024D01*
X111149833Y-65634160D01*
X111382875Y-65670896D01*
X111682378Y-65764176D01*
X111869500Y-65841932D01*
X112314000Y-66048876D01*
X112314000Y-65829447D01*
X112322154Y-65705307D01*
X112374077Y-65646079D01*
X112510963Y-65637194D01*
X112774002Y-65664083D01*
X112779667Y-65664749D01*
X113085494Y-65682497D01*
X113238396Y-65650446D01*
X113244759Y-65576196D01*
X113110964Y-65467347D01*
X112843398Y-65331499D01*
X112448443Y-65176252D01*
X112336669Y-65137379D01*
X111679000Y-64913666D01*
X111653731Y-64382089D01*
X111646429Y-64081290D01*
X111672045Y-63888641D01*
X111748374Y-63743637D01*
X111885753Y-63593221D01*
X112153068Y-63402804D01*
X112400460Y-63370999D01*
X112615812Y-63487266D01*
X112787008Y-63741062D01*
X112901929Y-64121848D01*
X112945395Y-64515035D01*
X112966800Y-64998333D01*
X113291802Y-65051171D01*
X113637841Y-65185425D01*
X113811648Y-65347504D01*
X114006492Y-65591000D01*
X114006913Y-65310127D01*
X114020114Y-65122971D01*
X114081632Y-65064741D01*
X114197833Y-65087025D01*
X114402793Y-65187971D01*
X114578833Y-65319156D01*
X114769333Y-65493517D01*
X114769333Y-65315921D01*
X114692981Y-65066871D01*
X114491163Y-64825469D01*
X114204735Y-64631145D01*
X113967577Y-64542147D01*
X113785863Y-64493428D01*
X113664624Y-64434764D01*
X113584353Y-64332372D01*
X113525540Y-64152469D01*
X113468676Y-63861271D01*
X113424406Y-63601541D01*
X113387918Y-63286404D01*
X113407293Y-63111178D01*
X113428699Y-63084660D01*
X113534890Y-63054500D01*
X113780513Y-63001391D01*
X114138060Y-62930762D01*
X114580024Y-62848042D01*
X115078898Y-62758660D01*
X115093117Y-62756167D01*
X116035837Y-62581097D01*
X116827053Y-62411267D01*
X117484263Y-62241284D01*
X118024961Y-62065755D01*
X118466645Y-61879289D01*
X118826810Y-61676494D01*
X119002667Y-61551269D01*
X119198961Y-61355169D01*
X119387785Y-61096924D01*
X119532019Y-60835106D01*
X119594540Y-60628285D01*
X119594900Y-60616833D01*
X119656784Y-60498638D01*
X119815467Y-60468666D01*
X120046367Y-60395691D01*
X120313063Y-60190870D01*
X120334037Y-60170230D01*
X120509949Y-59979764D01*
X120591494Y-59821632D01*
X120604413Y-59630024D01*
X120497187Y-59630024D01*
X120396292Y-59933192D01*
X120210837Y-60172767D01*
X119969574Y-60326685D01*
X119701252Y-60372883D01*
X119434623Y-60289295D01*
X119307659Y-60188689D01*
X119152999Y-60014080D01*
X119057508Y-59871189D01*
X119002415Y-59791335D01*
X118947826Y-59871189D01*
X118770052Y-60121103D01*
X118518274Y-60307797D01*
X118256995Y-60383919D01*
X118249237Y-60384000D01*
X117943607Y-60312585D01*
X117711692Y-60123742D01*
X117560248Y-59855575D01*
X117496026Y-59546186D01*
X117525780Y-59233679D01*
X117656263Y-58956155D01*
X117894229Y-58751719D01*
X117954869Y-58723141D01*
X118276120Y-58657522D01*
X118565173Y-58750749D01*
X118833704Y-59001843D01*
X118975884Y-59144384D01*
X119057015Y-59148853D01*
X119063167Y-59136299D01*
X119237970Y-58869682D01*
X119509691Y-58682756D01*
X119643423Y-58641087D01*
X119913700Y-58666958D01*
X120178915Y-58817878D01*
X120389138Y-59055613D01*
X120484772Y-59285328D01*
X120497187Y-59630024D01*
X120604413Y-59630024D01*
X120605088Y-59620027D01*
X120590448Y-59434425D01*
X120539910Y-59132176D01*
X120436931Y-58922132D01*
X120282209Y-58759195D01*
X120052173Y-58612143D01*
X119791512Y-58528325D01*
X119554943Y-58517069D01*
X119397185Y-58587708D01*
X119383677Y-58605982D01*
X119293683Y-58607174D01*
X119118465Y-58511292D01*
X118989159Y-58415482D01*
X118842416Y-58301958D01*
X118710832Y-58223600D01*
X118558119Y-58172300D01*
X118347985Y-58139947D01*
X118044140Y-58118432D01*
X117610294Y-58099645D01*
X117568435Y-58098000D01*
X116489913Y-58055666D01*
X116031790Y-57705289D01*
X115242518Y-57200826D01*
X114409902Y-56858836D01*
X113539951Y-56679814D01*
X112638674Y-56664251D01*
X111712081Y-56812640D01*
X111712081Y-56812640D01*
G37*
X111712081Y-56812640D02*
X110766183Y-57125473D01*
X110482103Y-57250277D01*
X109838274Y-57613902D01*
X109336729Y-58047037D01*
X108958545Y-58567376D01*
X108850895Y-58775333D01*
X108757421Y-58987867D01*
X108694816Y-59183714D01*
X108657001Y-59405008D01*
X108637894Y-59693888D01*
X108631417Y-60092488D01*
X108631000Y-60299333D01*
X108643245Y-60890491D01*
X108690667Y-61375422D01*
X108789295Y-61785255D01*
X108955156Y-62151121D01*
X109204281Y-62504150D01*
X109552699Y-62875471D01*
X110016437Y-63296215D01*
X110297282Y-63535456D01*
X110575640Y-63801906D01*
X110816008Y-64088996D01*
X110950630Y-64303020D01*
X111076806Y-64651007D01*
X111123085Y-64980932D01*
X111087282Y-65246732D01*
X111001667Y-65379333D01*
X110885386Y-65517107D01*
X110929727Y-65602538D01*
X111133759Y-65634024D01*
X111149833Y-65634160D01*
X111382875Y-65670896D01*
X111682378Y-65764176D01*
X111869500Y-65841932D01*
X112314000Y-66048876D01*
X112314000Y-65829447D01*
X112322154Y-65705307D01*
X112374077Y-65646079D01*
X112510963Y-65637194D01*
X112774002Y-65664083D01*
X112779667Y-65664749D01*
X113085494Y-65682497D01*
X113238396Y-65650446D01*
X113244759Y-65576196D01*
X113110964Y-65467347D01*
X112843398Y-65331499D01*
X112448443Y-65176252D01*
X112336669Y-65137379D01*
X111679000Y-64913666D01*
X111653731Y-64382089D01*
X111646429Y-64081290D01*
X111672045Y-63888641D01*
X111748374Y-63743637D01*
X111885753Y-63593221D01*
X112153068Y-63402804D01*
X112400460Y-63370999D01*
X112615812Y-63487266D01*
X112787008Y-63741062D01*
X112901929Y-64121848D01*
X112945395Y-64515035D01*
X112966800Y-64998333D01*
X113291802Y-65051171D01*
X113637841Y-65185425D01*
X113811648Y-65347504D01*
X114006492Y-65591000D01*
X114006913Y-65310127D01*
X114020114Y-65122971D01*
X114081632Y-65064741D01*
X114197833Y-65087025D01*
X114402793Y-65187971D01*
X114578833Y-65319156D01*
X114769333Y-65493517D01*
X114769333Y-65315921D01*
X114692981Y-65066871D01*
X114491163Y-64825469D01*
X114204735Y-64631145D01*
X113967577Y-64542147D01*
X113785863Y-64493428D01*
X113664624Y-64434764D01*
X113584353Y-64332372D01*
X113525540Y-64152469D01*
X113468676Y-63861271D01*
X113424406Y-63601541D01*
X113387918Y-63286404D01*
X113407293Y-63111178D01*
X113428699Y-63084660D01*
X113534890Y-63054500D01*
X113780513Y-63001391D01*
X114138060Y-62930762D01*
X114580024Y-62848042D01*
X115078898Y-62758660D01*
X115093117Y-62756167D01*
X116035837Y-62581097D01*
X116827053Y-62411267D01*
X117484263Y-62241284D01*
X118024961Y-62065755D01*
X118466645Y-61879289D01*
X118826810Y-61676494D01*
X119002667Y-61551269D01*
X119198961Y-61355169D01*
X119387785Y-61096924D01*
X119532019Y-60835106D01*
X119594540Y-60628285D01*
X119594900Y-60616833D01*
X119656784Y-60498638D01*
X119815467Y-60468666D01*
X120046367Y-60395691D01*
X120313063Y-60190870D01*
X120334037Y-60170230D01*
X120509949Y-59979764D01*
X120591494Y-59821632D01*
X120604413Y-59630024D01*
X120497187Y-59630024D01*
X120396292Y-59933192D01*
X120210837Y-60172767D01*
X119969574Y-60326685D01*
X119701252Y-60372883D01*
X119434623Y-60289295D01*
X119307659Y-60188689D01*
X119152999Y-60014080D01*
X119057508Y-59871189D01*
X119002415Y-59791335D01*
X118947826Y-59871189D01*
X118770052Y-60121103D01*
X118518274Y-60307797D01*
X118256995Y-60383919D01*
X118249237Y-60384000D01*
X117943607Y-60312585D01*
X117711692Y-60123742D01*
X117560248Y-59855575D01*
X117496026Y-59546186D01*
X117525780Y-59233679D01*
X117656263Y-58956155D01*
X117894229Y-58751719D01*
X117954869Y-58723141D01*
X118276120Y-58657522D01*
X118565173Y-58750749D01*
X118833704Y-59001843D01*
X118975884Y-59144384D01*
X119057015Y-59148853D01*
X119063167Y-59136299D01*
X119237970Y-58869682D01*
X119509691Y-58682756D01*
X119643423Y-58641087D01*
X119913700Y-58666958D01*
X120178915Y-58817878D01*
X120389138Y-59055613D01*
X120484772Y-59285328D01*
X120497187Y-59630024D01*
X120604413Y-59630024D01*
X120605088Y-59620027D01*
X120590448Y-59434425D01*
X120539910Y-59132176D01*
X120436931Y-58922132D01*
X120282209Y-58759195D01*
X120052173Y-58612143D01*
X119791512Y-58528325D01*
X119554943Y-58517069D01*
X119397185Y-58587708D01*
X119383677Y-58605982D01*
X119293683Y-58607174D01*
X119118465Y-58511292D01*
X118989159Y-58415482D01*
X118842416Y-58301958D01*
X118710832Y-58223600D01*
X118558119Y-58172300D01*
X118347985Y-58139947D01*
X118044140Y-58118432D01*
X117610294Y-58099645D01*
X117568435Y-58098000D01*
X116489913Y-58055666D01*
X116031790Y-57705289D01*
X115242518Y-57200826D01*
X114409902Y-56858836D01*
X113539951Y-56679814D01*
X112638674Y-56664251D01*
X111712081Y-56812640D01*
G36*
X119418523Y-59346842D02*
X119267994Y-59490593D01*
X119177302Y-59644418D01*
X119172000Y-59679044D01*
X119235490Y-59806230D01*
X119378999Y-59947052D01*
X119532091Y-60037457D01*
X119574786Y-60045333D01*
X119704510Y-59990710D01*
X119800953Y-59912285D01*
X119908906Y-59756386D01*
X119934000Y-59664333D01*
X119868279Y-59500494D01*
X119719133Y-59349034D01*
X119560075Y-59283333D01*
X119418523Y-59346842D01*
X119418523Y-59346842D01*
G37*
X119418523Y-59346842D02*
X119267994Y-59490593D01*
X119177302Y-59644418D01*
X119172000Y-59679044D01*
X119235490Y-59806230D01*
X119378999Y-59947052D01*
X119532091Y-60037457D01*
X119574786Y-60045333D01*
X119704510Y-59990710D01*
X119800953Y-59912285D01*
X119908906Y-59756386D01*
X119934000Y-59664333D01*
X119868279Y-59500494D01*
X119719133Y-59349034D01*
X119560075Y-59283333D01*
X119418523Y-59346842D01*
G36*
X118293852Y-59335709D02*
X118142325Y-59485617D01*
X118104409Y-59586409D01*
X118109965Y-59824006D01*
X118230403Y-59983970D01*
X118419581Y-60041067D01*
X118631360Y-59970063D01*
X118700286Y-59912285D01*
X118812314Y-59768433D01*
X118805969Y-59635259D01*
X118679911Y-59451290D01*
X118490351Y-59320204D01*
X118293852Y-59335709D01*
X118293852Y-59335709D01*
G37*
X118293852Y-59335709D02*
X118142325Y-59485617D01*
X118104409Y-59586409D01*
X118109965Y-59824006D01*
X118230403Y-59983970D01*
X118419581Y-60041067D01*
X118631360Y-59970063D01*
X118700286Y-59912285D01*
X118812314Y-59768433D01*
X118805969Y-59635259D01*
X118679911Y-59451290D01*
X118490351Y-59320204D01*
X118293852Y-59335709D01*
G04 #@! TD*
D11*
G04 #@! TO.C,J5*
G36*
X59591097Y-68551382D02*
X59618960Y-68555515D01*
X59646285Y-68562360D01*
X59672807Y-68571849D01*
X59698271Y-68583893D01*
X59722432Y-68598375D01*
X59745057Y-68615155D01*
X59765929Y-68634071D01*
X59784845Y-68654943D01*
X59801625Y-68677568D01*
X59816107Y-68701729D01*
X59828151Y-68727193D01*
X59837640Y-68753715D01*
X59844485Y-68781040D01*
X59848618Y-68808903D01*
X59850000Y-68837038D01*
X59850000Y-71962962D01*
X59848618Y-71991097D01*
X59844485Y-72018960D01*
X59837640Y-72046285D01*
X59828151Y-72072807D01*
X59816107Y-72098271D01*
X59801625Y-72122432D01*
X59784845Y-72145057D01*
X59765929Y-72165929D01*
X59745057Y-72184845D01*
X59722432Y-72201625D01*
X59698271Y-72216107D01*
X59672807Y-72228151D01*
X59646285Y-72237640D01*
X59618960Y-72244485D01*
X59591097Y-72248618D01*
X59562962Y-72250000D01*
X57037038Y-72250000D01*
X57008903Y-72248618D01*
X56981040Y-72244485D01*
X56953715Y-72237640D01*
X56927193Y-72228151D01*
X56901729Y-72216107D01*
X56877568Y-72201625D01*
X56854943Y-72184845D01*
X56834071Y-72165929D01*
X56815155Y-72145057D01*
X56798375Y-72122432D01*
X56783893Y-72098271D01*
X56771849Y-72072807D01*
X56762360Y-72046285D01*
X56755515Y-72018960D01*
X56751382Y-71991097D01*
X56750000Y-71962962D01*
X56750000Y-68837038D01*
X56751382Y-68808903D01*
X56755515Y-68781040D01*
X56762360Y-68753715D01*
X56771849Y-68727193D01*
X56783893Y-68701729D01*
X56798375Y-68677568D01*
X56815155Y-68654943D01*
X56834071Y-68634071D01*
X56854943Y-68615155D01*
X56877568Y-68598375D01*
X56901729Y-68583893D01*
X56927193Y-68571849D01*
X56953715Y-68562360D01*
X56981040Y-68555515D01*
X57008903Y-68551382D01*
X57037038Y-68550000D01*
X59562962Y-68550000D01*
X59591097Y-68551382D01*
X59591097Y-68551382D01*
G37*
D12*
X58300000Y-70400000D03*
D13*
X62500000Y-70400000D03*
X66700000Y-70400000D03*
X70900000Y-70400000D03*
X75100000Y-70400000D03*
X79300000Y-70400000D03*
X83500000Y-70400000D03*
X87700000Y-70400000D03*
X91900000Y-70400000D03*
X96100000Y-70400000D03*
X100300000Y-70400000D03*
X104500000Y-70400000D03*
X58300000Y-75900000D03*
X62500000Y-75900000D03*
X66700000Y-75900000D03*
X70900000Y-75900000D03*
X75100000Y-75900000D03*
X79300000Y-75900000D03*
X83500000Y-75900000D03*
X87700000Y-75900000D03*
X91900000Y-75900000D03*
X96100000Y-75900000D03*
X100300000Y-75900000D03*
X104500000Y-75900000D03*
G04 #@! TD*
D14*
G04 #@! TO.C,J1*
X116550000Y-72800000D03*
D15*
X116550000Y-75340000D03*
X116550000Y-77880000D03*
X116550000Y-80420000D03*
X116550000Y-82960000D03*
G04 #@! TD*
D11*
G04 #@! TO.C,J2*
G36*
X106541097Y-58601382D02*
X106568960Y-58605515D01*
X106596285Y-58612360D01*
X106622807Y-58621849D01*
X106648271Y-58633893D01*
X106672432Y-58648375D01*
X106695057Y-58665155D01*
X106715929Y-58684071D01*
X106734845Y-58704943D01*
X106751625Y-58727568D01*
X106766107Y-58751729D01*
X106778151Y-58777193D01*
X106787640Y-58803715D01*
X106794485Y-58831040D01*
X106798618Y-58858903D01*
X106800000Y-58887038D01*
X106800000Y-61412962D01*
X106798618Y-61441097D01*
X106794485Y-61468960D01*
X106787640Y-61496285D01*
X106778151Y-61522807D01*
X106766107Y-61548271D01*
X106751625Y-61572432D01*
X106734845Y-61595057D01*
X106715929Y-61615929D01*
X106695057Y-61634845D01*
X106672432Y-61651625D01*
X106648271Y-61666107D01*
X106622807Y-61678151D01*
X106596285Y-61687640D01*
X106568960Y-61694485D01*
X106541097Y-61698618D01*
X106512962Y-61700000D01*
X103387038Y-61700000D01*
X103358903Y-61698618D01*
X103331040Y-61694485D01*
X103303715Y-61687640D01*
X103277193Y-61678151D01*
X103251729Y-61666107D01*
X103227568Y-61651625D01*
X103204943Y-61634845D01*
X103184071Y-61615929D01*
X103165155Y-61595057D01*
X103148375Y-61572432D01*
X103133893Y-61548271D01*
X103121849Y-61522807D01*
X103112360Y-61496285D01*
X103105515Y-61468960D01*
X103101382Y-61441097D01*
X103100000Y-61412962D01*
X103100000Y-58887038D01*
X103101382Y-58858903D01*
X103105515Y-58831040D01*
X103112360Y-58803715D01*
X103121849Y-58777193D01*
X103133893Y-58751729D01*
X103148375Y-58727568D01*
X103165155Y-58704943D01*
X103184071Y-58684071D01*
X103204943Y-58665155D01*
X103227568Y-58648375D01*
X103251729Y-58633893D01*
X103277193Y-58621849D01*
X103303715Y-58612360D01*
X103331040Y-58605515D01*
X103358903Y-58601382D01*
X103387038Y-58600000D01*
X106512962Y-58600000D01*
X106541097Y-58601382D01*
X106541097Y-58601382D01*
G37*
D12*
X104950000Y-60150000D03*
D16*
X104950000Y-64350000D03*
X99450000Y-60150000D03*
X99450000Y-64350000D03*
G04 #@! TD*
D14*
G04 #@! TO.C,J4*
X112074999Y-94765001D03*
D15*
X112074999Y-97305001D03*
X109534999Y-94765001D03*
X109534999Y-97305001D03*
X106994999Y-94765001D03*
X106994999Y-97305001D03*
X104454999Y-94765001D03*
X104454999Y-97305001D03*
X101914999Y-94765001D03*
X101914999Y-97305001D03*
X99374999Y-94765001D03*
X99374999Y-97305001D03*
X96834999Y-94765001D03*
X96834999Y-97305001D03*
X94294999Y-94765001D03*
X94294999Y-97305001D03*
X91754999Y-94765001D03*
X91754999Y-97305001D03*
X89214999Y-94765001D03*
X89214999Y-97305001D03*
X86674999Y-94765001D03*
X86674999Y-97305001D03*
X84134999Y-94765001D03*
X84134999Y-97305001D03*
X81594999Y-94765001D03*
X81594999Y-97305001D03*
X79054999Y-94765001D03*
X79054999Y-97305001D03*
X76514999Y-94765001D03*
X76514999Y-97305001D03*
X73974999Y-94765001D03*
X73974999Y-97305001D03*
X71434999Y-94765001D03*
X71434999Y-97305001D03*
X68894999Y-94765001D03*
X68894999Y-97305001D03*
X66354999Y-94765001D03*
X66354999Y-97305001D03*
X63814999Y-94765001D03*
X63814999Y-97305001D03*
G04 #@! TD*
D14*
G04 #@! TO.C,J7*
X95900000Y-86100000D03*
D15*
X95900000Y-83560000D03*
G04 #@! TD*
G04 #@! TO.C,JP1*
X111900000Y-77890000D03*
X111900000Y-75350000D03*
D14*
X111900000Y-72810000D03*
G04 #@! TD*
D15*
G04 #@! TO.C,JP2*
X83000000Y-62740000D03*
X83000000Y-60200000D03*
D14*
X83000000Y-57660000D03*
G04 #@! TD*
D15*
G04 #@! TO.C,JP3*
X86360000Y-82900000D03*
X88900000Y-82900000D03*
D14*
X91440000Y-82900000D03*
G04 #@! TD*
D17*
G04 #@! TO.C,Q1*
X87270000Y-86530000D03*
X88540000Y-87800000D03*
D18*
X86000000Y-87800000D03*
G04 #@! TD*
D19*
G04 #@! TO.C,J6*
X100100000Y-47300000D03*
D11*
G36*
X106029405Y-45301445D02*
X106058527Y-45305764D01*
X106087085Y-45312918D01*
X106114805Y-45322836D01*
X106141419Y-45335424D01*
X106166671Y-45350559D01*
X106190318Y-45368097D01*
X106212132Y-45387868D01*
X106231903Y-45409682D01*
X106249441Y-45433329D01*
X106264576Y-45458581D01*
X106277164Y-45485195D01*
X106287082Y-45512915D01*
X106294236Y-45541473D01*
X106298555Y-45570595D01*
X106300000Y-45600000D01*
X106300000Y-49000000D01*
X106298555Y-49029405D01*
X106294236Y-49058527D01*
X106287082Y-49087085D01*
X106277164Y-49114805D01*
X106264576Y-49141419D01*
X106249441Y-49166671D01*
X106231903Y-49190318D01*
X106212132Y-49212132D01*
X106190318Y-49231903D01*
X106166671Y-49249441D01*
X106141419Y-49264576D01*
X106114805Y-49277164D01*
X106087085Y-49287082D01*
X106058527Y-49294236D01*
X106029405Y-49298555D01*
X106000000Y-49300000D01*
X104200000Y-49300000D01*
X104170595Y-49298555D01*
X104141473Y-49294236D01*
X104112915Y-49287082D01*
X104085195Y-49277164D01*
X104058581Y-49264576D01*
X104033329Y-49249441D01*
X104009682Y-49231903D01*
X103987868Y-49212132D01*
X103968097Y-49190318D01*
X103950559Y-49166671D01*
X103935424Y-49141419D01*
X103922836Y-49114805D01*
X103912918Y-49087085D01*
X103905764Y-49058527D01*
X103901445Y-49029405D01*
X103900000Y-49000000D01*
X103900000Y-45600000D01*
X103901445Y-45570595D01*
X103905764Y-45541473D01*
X103912918Y-45512915D01*
X103922836Y-45485195D01*
X103935424Y-45458581D01*
X103950559Y-45433329D01*
X103968097Y-45409682D01*
X103987868Y-45387868D01*
X104009682Y-45368097D01*
X104033329Y-45350559D01*
X104058581Y-45335424D01*
X104085195Y-45322836D01*
X104112915Y-45312918D01*
X104141473Y-45305764D01*
X104170595Y-45301445D01*
X104200000Y-45300000D01*
X106000000Y-45300000D01*
X106029405Y-45301445D01*
X106029405Y-45301445D01*
G37*
D20*
X105100000Y-47300000D03*
G04 #@! TD*
D11*
G04 #@! TO.C,J8*
G36*
X80029405Y-45301445D02*
X80058527Y-45305764D01*
X80087085Y-45312918D01*
X80114805Y-45322836D01*
X80141419Y-45335424D01*
X80166671Y-45350559D01*
X80190318Y-45368097D01*
X80212132Y-45387868D01*
X80231903Y-45409682D01*
X80249441Y-45433329D01*
X80264576Y-45458581D01*
X80277164Y-45485195D01*
X80287082Y-45512915D01*
X80294236Y-45541473D01*
X80298555Y-45570595D01*
X80300000Y-45600000D01*
X80300000Y-49000000D01*
X80298555Y-49029405D01*
X80294236Y-49058527D01*
X80287082Y-49087085D01*
X80277164Y-49114805D01*
X80264576Y-49141419D01*
X80249441Y-49166671D01*
X80231903Y-49190318D01*
X80212132Y-49212132D01*
X80190318Y-49231903D01*
X80166671Y-49249441D01*
X80141419Y-49264576D01*
X80114805Y-49277164D01*
X80087085Y-49287082D01*
X80058527Y-49294236D01*
X80029405Y-49298555D01*
X80000000Y-49300000D01*
X78200000Y-49300000D01*
X78170595Y-49298555D01*
X78141473Y-49294236D01*
X78112915Y-49287082D01*
X78085195Y-49277164D01*
X78058581Y-49264576D01*
X78033329Y-49249441D01*
X78009682Y-49231903D01*
X77987868Y-49212132D01*
X77968097Y-49190318D01*
X77950559Y-49166671D01*
X77935424Y-49141419D01*
X77922836Y-49114805D01*
X77912918Y-49087085D01*
X77905764Y-49058527D01*
X77901445Y-49029405D01*
X77900000Y-49000000D01*
X77900000Y-45600000D01*
X77901445Y-45570595D01*
X77905764Y-45541473D01*
X77912918Y-45512915D01*
X77922836Y-45485195D01*
X77935424Y-45458581D01*
X77950559Y-45433329D01*
X77968097Y-45409682D01*
X77987868Y-45387868D01*
X78009682Y-45368097D01*
X78033329Y-45350559D01*
X78058581Y-45335424D01*
X78085195Y-45322836D01*
X78112915Y-45312918D01*
X78141473Y-45305764D01*
X78170595Y-45301445D01*
X78200000Y-45300000D01*
X80000000Y-45300000D01*
X80029405Y-45301445D01*
X80029405Y-45301445D01*
G37*
D20*
X79100000Y-47300000D03*
D19*
X74100000Y-47300000D03*
G04 #@! TD*
G04 #@! TO.C,J9*
X87100000Y-47300000D03*
D11*
G36*
X93029405Y-45301445D02*
X93058527Y-45305764D01*
X93087085Y-45312918D01*
X93114805Y-45322836D01*
X93141419Y-45335424D01*
X93166671Y-45350559D01*
X93190318Y-45368097D01*
X93212132Y-45387868D01*
X93231903Y-45409682D01*
X93249441Y-45433329D01*
X93264576Y-45458581D01*
X93277164Y-45485195D01*
X93287082Y-45512915D01*
X93294236Y-45541473D01*
X93298555Y-45570595D01*
X93300000Y-45600000D01*
X93300000Y-49000000D01*
X93298555Y-49029405D01*
X93294236Y-49058527D01*
X93287082Y-49087085D01*
X93277164Y-49114805D01*
X93264576Y-49141419D01*
X93249441Y-49166671D01*
X93231903Y-49190318D01*
X93212132Y-49212132D01*
X93190318Y-49231903D01*
X93166671Y-49249441D01*
X93141419Y-49264576D01*
X93114805Y-49277164D01*
X93087085Y-49287082D01*
X93058527Y-49294236D01*
X93029405Y-49298555D01*
X93000000Y-49300000D01*
X91200000Y-49300000D01*
X91170595Y-49298555D01*
X91141473Y-49294236D01*
X91112915Y-49287082D01*
X91085195Y-49277164D01*
X91058581Y-49264576D01*
X91033329Y-49249441D01*
X91009682Y-49231903D01*
X90987868Y-49212132D01*
X90968097Y-49190318D01*
X90950559Y-49166671D01*
X90935424Y-49141419D01*
X90922836Y-49114805D01*
X90912918Y-49087085D01*
X90905764Y-49058527D01*
X90901445Y-49029405D01*
X90900000Y-49000000D01*
X90900000Y-45600000D01*
X90901445Y-45570595D01*
X90905764Y-45541473D01*
X90912918Y-45512915D01*
X90922836Y-45485195D01*
X90935424Y-45458581D01*
X90950559Y-45433329D01*
X90968097Y-45409682D01*
X90987868Y-45387868D01*
X91009682Y-45368097D01*
X91033329Y-45350559D01*
X91058581Y-45335424D01*
X91085195Y-45322836D01*
X91112915Y-45312918D01*
X91141473Y-45305764D01*
X91170595Y-45301445D01*
X91200000Y-45300000D01*
X93000000Y-45300000D01*
X93029405Y-45301445D01*
X93029405Y-45301445D01*
G37*
D20*
X92100000Y-47300000D03*
G04 #@! TD*
D11*
G04 #@! TO.C,J10*
G36*
X67029405Y-45301445D02*
X67058527Y-45305764D01*
X67087085Y-45312918D01*
X67114805Y-45322836D01*
X67141419Y-45335424D01*
X67166671Y-45350559D01*
X67190318Y-45368097D01*
X67212132Y-45387868D01*
X67231903Y-45409682D01*
X67249441Y-45433329D01*
X67264576Y-45458581D01*
X67277164Y-45485195D01*
X67287082Y-45512915D01*
X67294236Y-45541473D01*
X67298555Y-45570595D01*
X67300000Y-45600000D01*
X67300000Y-49000000D01*
X67298555Y-49029405D01*
X67294236Y-49058527D01*
X67287082Y-49087085D01*
X67277164Y-49114805D01*
X67264576Y-49141419D01*
X67249441Y-49166671D01*
X67231903Y-49190318D01*
X67212132Y-49212132D01*
X67190318Y-49231903D01*
X67166671Y-49249441D01*
X67141419Y-49264576D01*
X67114805Y-49277164D01*
X67087085Y-49287082D01*
X67058527Y-49294236D01*
X67029405Y-49298555D01*
X67000000Y-49300000D01*
X65200000Y-49300000D01*
X65170595Y-49298555D01*
X65141473Y-49294236D01*
X65112915Y-49287082D01*
X65085195Y-49277164D01*
X65058581Y-49264576D01*
X65033329Y-49249441D01*
X65009682Y-49231903D01*
X64987868Y-49212132D01*
X64968097Y-49190318D01*
X64950559Y-49166671D01*
X64935424Y-49141419D01*
X64922836Y-49114805D01*
X64912918Y-49087085D01*
X64905764Y-49058527D01*
X64901445Y-49029405D01*
X64900000Y-49000000D01*
X64900000Y-45600000D01*
X64901445Y-45570595D01*
X64905764Y-45541473D01*
X64912918Y-45512915D01*
X64922836Y-45485195D01*
X64935424Y-45458581D01*
X64950559Y-45433329D01*
X64968097Y-45409682D01*
X64987868Y-45387868D01*
X65009682Y-45368097D01*
X65033329Y-45350559D01*
X65058581Y-45335424D01*
X65085195Y-45322836D01*
X65112915Y-45312918D01*
X65141473Y-45305764D01*
X65170595Y-45301445D01*
X65200000Y-45300000D01*
X67000000Y-45300000D01*
X67029405Y-45301445D01*
X67029405Y-45301445D01*
G37*
D20*
X66100000Y-47300000D03*
D19*
X61100000Y-47300000D03*
G04 #@! TD*
D11*
G04 #@! TO.C,J11*
G36*
X119029405Y-45301445D02*
X119058527Y-45305764D01*
X119087085Y-45312918D01*
X119114805Y-45322836D01*
X119141419Y-45335424D01*
X119166671Y-45350559D01*
X119190318Y-45368097D01*
X119212132Y-45387868D01*
X119231903Y-45409682D01*
X119249441Y-45433329D01*
X119264576Y-45458581D01*
X119277164Y-45485195D01*
X119287082Y-45512915D01*
X119294236Y-45541473D01*
X119298555Y-45570595D01*
X119300000Y-45600000D01*
X119300000Y-49000000D01*
X119298555Y-49029405D01*
X119294236Y-49058527D01*
X119287082Y-49087085D01*
X119277164Y-49114805D01*
X119264576Y-49141419D01*
X119249441Y-49166671D01*
X119231903Y-49190318D01*
X119212132Y-49212132D01*
X119190318Y-49231903D01*
X119166671Y-49249441D01*
X119141419Y-49264576D01*
X119114805Y-49277164D01*
X119087085Y-49287082D01*
X119058527Y-49294236D01*
X119029405Y-49298555D01*
X119000000Y-49300000D01*
X117200000Y-49300000D01*
X117170595Y-49298555D01*
X117141473Y-49294236D01*
X117112915Y-49287082D01*
X117085195Y-49277164D01*
X117058581Y-49264576D01*
X117033329Y-49249441D01*
X117009682Y-49231903D01*
X116987868Y-49212132D01*
X116968097Y-49190318D01*
X116950559Y-49166671D01*
X116935424Y-49141419D01*
X116922836Y-49114805D01*
X116912918Y-49087085D01*
X116905764Y-49058527D01*
X116901445Y-49029405D01*
X116900000Y-49000000D01*
X116900000Y-45600000D01*
X116901445Y-45570595D01*
X116905764Y-45541473D01*
X116912918Y-45512915D01*
X116922836Y-45485195D01*
X116935424Y-45458581D01*
X116950559Y-45433329D01*
X116968097Y-45409682D01*
X116987868Y-45387868D01*
X117009682Y-45368097D01*
X117033329Y-45350559D01*
X117058581Y-45335424D01*
X117085195Y-45322836D01*
X117112915Y-45312918D01*
X117141473Y-45305764D01*
X117170595Y-45301445D01*
X117200000Y-45300000D01*
X119000000Y-45300000D01*
X119029405Y-45301445D01*
X119029405Y-45301445D01*
G37*
D20*
X118100000Y-47300000D03*
D19*
X113100000Y-47300000D03*
G04 #@! TD*
D21*
G04 #@! TO.C,J3*
X64290000Y-65370000D03*
X64290000Y-52230000D03*
D22*
X67000000Y-55300000D03*
D23*
X67000000Y-57800000D03*
X67000000Y-59800000D03*
X67000000Y-62300000D03*
G04 #@! TD*
D24*
G04 #@! TO.C,R1*
X99500000Y-88500000D03*
D25*
X99500000Y-80880000D03*
G04 #@! TD*
G04 #@! TO.C,R2*
X103020000Y-91400000D03*
D24*
X95400000Y-91400000D03*
G04 #@! TD*
G04 #@! TO.C,R3*
X85600000Y-91400000D03*
D25*
X93220000Y-91400000D03*
G04 #@! TD*
G04 #@! TO.C,R4*
X82700000Y-84180000D03*
D24*
X82700000Y-91800000D03*
G04 #@! TD*
G04 #@! TO.C,R5*
X105180000Y-91400000D03*
D25*
X112800000Y-91400000D03*
G04 #@! TD*
G04 #@! TO.C,R6*
X105180000Y-88300000D03*
D24*
X112800000Y-88300000D03*
G04 #@! TD*
M02*
